<svg viewBox="202.95000000000005 239.8499999999999 1070.1000000000001 996.3000000000001" xmlns="http://www.w3.org/2000/svg" xmlns:xlink="http://www.w3.org/1999/xlink" overflow="visible" width="1070.1000000000001px" height="996.3000000000001px"><defs><polygon id="masterspot-illustrationsdelete-trash-path-1" points="1 0.2796 1.88532338 0.2796 1.88532338 1.2796 1 1.2796"/></defs><g id="Master/Spot Illustrations/Delete Trash" stroke="none" stroke-width="1" fill="none" fill-rule="evenodd"><g id="Group-550" transform="translate(213.000000, 242.000000)"><path d="M359.4527,596.1602 C379.0867,595.9752 377.7977,569.7682 359.6177,569.3482 C342.9667,569.2022 341.9927,596.6812 359.4527,596.1602 M510.1287,530.6442 C509.1437,556.3972 549.0277,555.8892 548.5887,529.8552 C548.9007,504.7452 509.5097,505.5502 510.1287,530.6442 M343.0977,664.6562 C301.1017,664.2832 305.3377,727.5312 344.8237,725.8122 C383.4597,727.1472 383.8057,662.4452 343.0977,664.6562 M648.7617,431.1402 C650.1917,380.5532 575.2177,384.6972 573.7597,429.6932 C571.1707,480.3292 650.7487,478.9302 648.7617,431.1402 M407.4467,529.1882 C457.3517,535.3392 466.0947,446.9842 409.9427,447.3032 C353.3937,445.0382 357.3397,532.7972 407.4467,529.1882 M848.7597,586.5322 C851.8777,625.6762 835.0077,604.2072 811.1747,593.0512 C790.7927,582.3182 771.5007,569.8372 750.3827,561.0912 C731.8247,555.1952 765.7367,543.5392 757.9577,526.5312 C756.2037,500.0902 720.7007,492.7262 705.3157,513.3642 C693.6757,521.9442 708.8817,539.6042 694.0587,538.2072 C694.7707,536.7342 699.9787,535.1692 695.7507,534.0302 C625.8497,527.2992 557.2257,569.8212 510.8267,619.0982 C499.8167,638.2532 489.2857,594.4132 463.6027,599.2292 C444.8867,598.1432 424.3817,612.4402 418.9277,629.6842 C403.2227,663.2922 451.2887,680.2712 432.4157,690.4792 C413.1877,703.9492 400.2777,724.7592 380.6117,736.9582 C350.6317,738.2872 290.0727,720.3392 341.5387,767.1282 C353.0377,788.6492 298.3507,761.4412 311.0317,735.5372 C314.1107,724.4272 302.5657,724.7972 296.1207,720.9952 C278.7407,716.3662 269.5317,683.1782 254.1307,688.3482 C242.1637,691.4092 222.9657,727.8862 226.0327,694.4872 C228.8357,677.7152 262.4537,679.4452 252.8067,664.8322 C241.6797,603.4362 282.7307,648.4482 299.7117,606.7412 C310.1837,573.9022 286.0187,572.9122 279.1077,556.8772 C283.9567,540.5012 292.2707,528.0992 268.6417,541.1282 C266.3367,553.6212 280.2327,558.6282 270.5557,573.1382 C251.6597,560.0582 242.7057,527.5422 273.5177,522.9872 C287.0437,521.8162 293.5227,528.3692 297.4447,510.6392 C301.1777,493.0202 314.6197,478.0632 324.0077,462.3382 C332.5177,449.8912 341.9497,409.0992 357.1307,392.8382 C359.5077,393.9752 361.5097,395.1412 363.6137,391.8462 C371.8867,381.9312 386.3267,381.1092 398.5447,378.5052 C413.6907,367.4512 437.3607,372.7952 455.9497,367.6222 C477.6837,360.2462 448.2157,423.5892 507.5267,413.7242 C586.4007,362.6382 438.7717,357.6172 643.6347,341.8152 C682.3917,344.5672 728.7087,341.1772 758.9527,368.0702 C740.6487,379.4412 736.3427,401.0602 742.7207,416.8032 C793.1767,486.0712 800.8947,372.2292 834.4257,513.6532 C838.8927,522.2212 842.0567,537.3292 829.4037,538.8072 C814.5657,544.9432 818.9307,566.0262 835.4527,564.9562 C851.1187,560.6402 840.4807,580.9002 848.7597,586.5322" id="Fill-1" fill="#00684a"/><path d="M180.7767,540.4102 C208.2937,542.2222 224.1997,502.9962 199.9397,495.2692 C194.6487,496.9952 197.6877,501.9332 198.3567,505.5842 C206.6017,541.6752 144.2067,519.9772 180.7767,540.4102 M146.1907,781.0412 C143.4057,812.6232 207.6737,813.2622 162.9867,788.7872 C156.8357,778.3682 164.5527,771.9092 176.1267,772.7012 C170.6127,754.5512 144.6057,764.3462 146.1907,781.0412 M234.3827,757.2532 C232.2627,794.8192 289.3737,780.9442 261.0747,771.2842 C245.2297,771.0182 239.7407,743.2822 257.9957,743.7022 C263.5337,744.6932 263.6967,742.0772 259.7757,739.2402 C246.1777,732.8912 233.5827,739.8532 234.3827,757.2532 M114.6037,821.0342 C115.3367,809.2182 99.2297,793.7542 87.9487,801.1472 C91.7687,811.7212 109.8057,819.0182 94.8987,831.4322 C54.5947,855.6262 119.7087,854.9992 114.6037,821.0342 M152.2527,858.9352 C136.7987,856.8092 115.9527,874.8052 128.8557,886.2822 C140.7707,887.3842 144.0977,858.5112 160.1397,877.7292 C187.6487,919.1482 181.4837,856.9442 152.2527,858.9352 M256.1457,840.9812 C244.7027,839.8702 219.6507,856.6792 232.9257,869.9562 C243.8157,868.6432 238.9927,850.9842 261.3137,854.5862 C269.2427,854.6772 271.4577,860.2522 273.1077,866.9102 C289.5787,888.0912 290.2507,835.6492 256.1457,840.9812 M187.7947,592.6922 C190.2227,565.4532 163.0057,608.5832 190.5287,624.3842 C204.4817,631.3422 226.4827,618.0402 231.2337,604.3192 C228.5257,580.2802 197.0267,639.1472 187.7947,592.6922 M146.3657,700.8322 C144.0857,722.5142 165.1517,741.1122 179.9657,728.7632 C177.3167,719.4722 154.5677,715.7122 159.7967,699.8372 C161.9917,687.8762 173.7247,691.9342 181.7997,694.6112 C204.4157,681.4322 140.1787,666.9992 146.3657,700.8322 M69.7627,704.4982 C65.4317,706.4812 54.3047,707.6462 55.3487,716.6492 C63.9177,718.5442 70.7437,713.9122 78.8007,718.4952 C108.6057,731.7242 78.4087,749.2062 81.3657,756.8872 C120.4487,764.9672 110.1697,700.6022 69.7627,704.4982 M124.8117,623.0012 C118.8147,634.9832 103.4197,627.2662 95.1427,632.1042 C97.6677,648.4042 131.5867,646.9522 137.4437,633.0532 C148.4287,612.8942 119.4067,578.4132 101.4457,600.0292 C112.6987,604.9772 125.0467,606.6372 124.8117,623.0012 M298.6347,501.8972 C297.5127,522.3642 291.4187,524.6992 273.5127,522.9862 C243.3617,527.4882 250.7227,559.9372 270.7377,572.9872 C270.2947,584.4972 249.5757,610.5662 264.9877,615.1692 C275.8257,615.8592 285.6757,608.2922 287.9267,597.0852 C294.3607,581.7982 270.1827,577.8482 271.8427,568.3672 C281.8217,554.3622 251.5777,539.3062 282.7767,535.8132 C292.7357,538.3572 266.2197,562.5032 287.4127,565.9912 C316.5097,584.7852 297.2837,635.4222 263.2077,628.2472 C254.9737,626.2482 254.0657,631.7862 253.4467,635.2372 C245.2487,655.2902 263.3307,674.0462 247.4497,676.3312 C226.4807,678.8402 215.6337,719.7982 236.1297,704.5262 C239.2387,695.5292 247.3357,692.7672 254.1277,688.3552 C268.9807,681.9492 282.4567,723.6152 305.7567,724.6752 C310.7397,726.6932 312.0977,729.6932 311.0257,735.5382 C305.5647,757.2232 326.4607,780.9982 345.9477,771.7652 C335.0467,765.6382 306.4857,732.4312 334.1707,733.4372 C381.7087,741.1832 392.8867,728.7922 351.9127,771.7162 C317.6827,821.0022 315.6667,850.5232 354.7987,897.0542 C337.4307,926.6252 370.5717,944.2122 315.4127,943.8242 C300.2767,945.0982 306.7867,924.3532 316.3787,921.0162 C323.7327,918.9992 319.3057,913.4412 315.0187,911.6022 C297.2337,910.8302 288.2517,929.5812 290.6487,945.1782 C285.6557,952.0062 273.3427,941.8892 268.1677,946.1712 C260.7387,951.8112 259.2837,941.0402 254.1397,942.6402 C236.8687,954.1662 220.0957,945.7892 239.5787,928.5262 C245.2837,924.9952 244.1267,921.2072 238.5657,918.4632 C223.6777,914.4862 214.7007,936.6082 216.8467,949.2582 C207.9327,945.6382 198.6787,947.8962 189.4327,948.3122 C182.6037,947.9492 188.6777,940.4072 178.6607,943.7672 C151.3097,942.4322 123.0177,932.7152 99.7877,918.8842 C98.4307,918.1682 96.1857,916.3652 96.3777,915.8962 C100.5717,906.6112 90.5477,917.0232 82.8037,906.3892 C51.2857,865.8962 22.0287,815.0152 11.4957,766.0302 C-0.0213,746.0852 29.7607,752.2772 34.5087,736.9682 C24.3977,713.2142 1.8847,769.9542 1.2677,698.2642 C8.2927,579.2702 21.4627,658.3372 67.3837,617.9752 C79.6627,591.5122 45.9667,635.6882 26.5587,611.3402 C27.7647,588.3082 146.8607,480.1152 103.0737,544.0712 C94.4877,547.0942 100.2857,558.9582 108.2207,556.0592 C129.2037,549.5932 134.3587,526.7722 121.9217,510.9712 C168.5987,465.3202 253.3347,449.6942 298.6347,501.8972" id="Fill-3" fill="#162b22"/><path d="M798.9551,767.7847 C796.4091,762.1587 794.4781,767.2537 791.4911,769.5097 C792.0361,773.6177 796.3741,768.6477 798.9551,767.7847 M762.5761,798.8407 C747.5821,805.2787 747.5821,805.2787 752.0151,817.1187 C755.2821,811.4647 758.3891,806.0887 762.5761,798.8407 M924.6541,894.3107 C917.9641,900.3647 911.3311,901.6897 909.0121,909.0167 C918.9211,913.4477 922.9861,904.0707 924.6541,894.3107 M489.0211,717.1417 C495.9931,732.3467 495.1861,756.6907 515.7821,739.1837 C525.1021,727.8497 507.4921,709.6387 505.1731,696.5037 C497.5071,694.1677 494.1971,712.1157 489.0211,717.1417 M526.1301,814.2467 C567.5601,799.7277 544.0591,789.7497 532.6581,760.9597 C524.1611,743.8617 524.0691,743.8517 507.9951,754.3107 C501.0811,771.1867 522.5621,795.5277 526.1301,814.2467 M742.5201,730.0827 C747.4731,745.6777 739.0391,785.0947 752.8751,791.4077 C769.2561,783.7997 786.5241,772.5077 786.3881,753.8107 C775.9701,746.6207 746.0161,699.2827 742.5201,730.0827 M853.9941,668.2317 C824.5231,677.9237 794.9571,697.4197 765.4551,710.3697 C758.3421,719.5097 782.9011,730.8037 787.7261,739.7247 C799.1681,759.6817 838.8481,677.4167 853.9941,668.2317 M448.3431,849.1557 C457.1291,866.4207 491.8231,827.9397 509.0511,823.7707 C514.3111,820.8117 516.3311,817.8267 513.9291,811.9317 C505.2051,800.7267 503.4601,761.9677 488.1731,764.8227 C449.7571,774.5977 452.8481,816.7127 448.3431,849.1557 M570.5181,917.3767 C581.5321,906.7647 604.2171,896.7287 606.0871,881.8377 C591.4511,859.6647 576.5441,837.6787 561.8611,815.5437 C558.3791,808.9987 553.1211,813.9857 548.4541,816.1087 C530.9801,825.2037 530.7831,825.285703 538.3171,843.6257 C549.1951,868.1227 557.7401,893.8677 570.5181,917.3767 M739.5291,838.2197 C737.3631,829.6007 742.3901,808.0647 730.1111,816.0807 C695.7401,836.3307 662.1051,857.6477 630.0401,881.3987 C619.4511,894.2327 673.5611,932.3757 682.0371,947.7557 C685.6171,951.5997 687.3041,949.9627 688.7881,945.7907 C701.4821,908.3987 723.5111,874.0707 739.5291,838.2197 M657.9391,645.0367 C565.6701,595.1777 579.4561,589.0027 515.1331,675.7417 C508.8781,682.0737 526.9861,732.2567 535.2591,727.9047 C578.0881,702.7657 619.4781,676.7777 657.9391,645.0367 M735.5581,798.9357 C731.1911,786.1927 737.7041,720.8567 722.8231,731.3957 C674.3031,754.7437 625.8061,778.1267 577.3401,801.5757 C559.1731,807.7407 607.3261,855.0347 611.9661,868.6097 C618.2191,877.6797 618.5081,877.2807 627.4341,871.0507 C662.1591,845.2787 700.0171,823.0537 735.5581,798.9357 M730.5151,707.1957 C728.0681,695.0657 671.3701,646.4207 661.3831,656.3747 C623.6901,686.0467 582.9281,711.2087 541.8071,735.7687 C537.3111,738.4967 535.6281,740.7597 538.3781,745.9207 C549.4991,758.1577 552.3971,793.5277 570.1171,792.2607 C620.0651,761.3757 691.4101,747.3507 730.5151,707.1957 M966.2931,734.7937 C987.7371,701.6117 798.9361,769.1927 821.8321,777.8577 C850.0451,813.3137 876.1211,850.1117 898.5571,889.5047 C945.0951,905.4987 961.4461,768.4777 966.2931,734.7937 M752.6551,837.1067 C758.9351,854.1337 763.3131,982.2327 780.9891,967.6507 C816.5961,948.9637 857.6511,938.1947 886.8071,909.3827 C907.2711,892.4947 829.9221,808.8937 816.3611,787.4597 C789.7051,758.5647 763.0271,816.5547 752.6551,837.1067 M468.4731,762.9097 C485.6251,756.8067 494.9631,752.4277 483.7011,733.9187 C474.4341,735.8887 474.0541,755.5937 468.1861,763.6997 C468.2821,763.4357 468.3771,763.1727 468.4731,762.9097 M324.9301,828.8797 C374.4601,785.3697 466.3171,808.0767 473.3911,703.8997 C455.0791,663.7467 464.9161,635.3427 480.6141,693.9787 C484.7971,704.4577 491.1851,685.2177 495.1041,681.4907 C501.0151,668.6247 490.5541,653.0667 489.7251,639.3557 C500.3231,616.7187 501.3641,647.5857 504.5991,658.5147 C509.0861,669.8537 547.9811,608.8467 559.4761,602.5567 C567.3161,588.8257 528.1011,601.2067 551.0641,583.8757 C585.8721,601.1467 617.2261,534.6827 673.6831,532.6177 C677.9581,530.4297 703.6921,531.6427 694.0561,538.2097 C653.5761,541.7947 620.1291,565.9927 589.8601,590.9307 C582.8021,602.3377 649.6431,625.0707 660.9311,635.7537 C677.6601,638.6107 690.0421,611.2347 703.1751,601.6587 C717.5611,588.5467 721.3861,570.0157 726.9051,552.9177 C752.2281,572.6167 698.3781,624.5737 681.1841,639.9237 C678.6931,642.0447 674.1321,643.9467 679.7211,648.0497 C763.7631,719.6777 710.8851,654.9427 736.5671,567.4747 C759.5401,517.5157 733.7151,674.6137 740.7181,688.6247 C749.5181,740.6337 875.6541,607.1917 904.8421,649.4417 C922.2561,672.2277 888.5161,636.9547 881.8381,652.8577 C852.7101,681.7947 828.1621,714.6847 805.3221,748.6857 C788.3791,785.5147 935.6741,706.7527 961.4651,713.2857 C969.4171,712.3357 966.0891,706.2207 964.2391,701.2327 C972.5931,705.8627 983.3161,707.5437 986.2511,718.9187 C981.5451,720.0117 976.6971,719.8217 976.1411,727.1937 C976.9481,769.7097 954.1961,824.9387 949.7391,863.0047 C978.2931,844.4877 1008.1491,828.4607 1040.0731,816.5907 C1052.6021,811.4307 1042.1851,796.5137 1042.9901,786.7907 C1053.2301,800.7187 1052.5301,827.0577 1042.8521,841.1527 C1047.7871,808.7047 939.0141,875.6567 934.7281,895.9637 C937.8191,911.8137 989.0691,883.3767 1007.0301,883.9357 C1013.2891,882.4947 1013.7081,872.1587 1021.9691,875.6997 C1023.1281,866.4607 1029.6451,859.2787 1036.3761,853.1497 C1025.3171,904.3027 973.5501,900.7157 932.6911,915.6957 C909.8141,922.6397 927.1271,968.3277 940.7111,976.2937 C926.7391,980.4317 912.8981,983.1157 898.3091,980.8737 C906.0431,978.2957 920.2181,979.7027 923.2451,971.1757 C919.9971,965.1847 920.3141,948.4607 912.2771,949.5047 C904.2031,961.5147 904.7401,985.5397 886.0901,980.6677 C964.4451,857.3437 802.7431,982.9587 840.3351,983.0247 C824.8891,991.3987 804.6861,978.5067 788.0851,989.3667 C783.3491,991.5007 778.8891,991.8977 774.2281,988.2687 C765.0061,977.8627 755.7931,993.5937 749.4331,987.9737 C744.9991,985.6697 734.8371,993.0887 732.3781,984.8947 C741.6061,985.4287 760.6991,985.0467 759.3161,971.8027 C753.1521,934.2077 747.7191,896.4907 742.0501,858.8167 C728.7581,891.4037 692.9031,931.1737 700.4641,964.0087 C719.1771,978.6717 736.2301,986.0697 702.1481,984.6017 C696.2311,971.9357 689.6001,968.7087 686.8131,982.8937 C663.3121,989.9087 686.2021,970.3887 677.2501,959.9707 C659.5371,947.6757 626.9011,891.8307 608.6461,897.8577 C564.7031,931.6497 575.0091,927.9837 594.5051,974.8027 C582.9341,980.6177 535.1391,962.3057 575.4141,969.7797 C586.8961,968.5547 569.3691,948.5427 568.4141,940.9517 C560.0671,932.9117 550.3941,959.5207 542.7891,964.6017 C520.2171,959.6117 553.1991,941.7527 558.5531,929.9257 C557.3171,898.4857 533.2211,867.3947 523.7991,836.4437 C513.4091,824.0287 472.0731,864.2697 455.7671,868.6527 C440.3051,887.3917 472.5121,954.7617 502.5491,950.8707 C482.7921,959.5167 467.7881,935.0537 449.5721,943.6607 C444.2481,946.1017 436.8941,945.3927 436.5121,937.3507 C441.5991,935.1097 459.3091,941.9707 454.3961,933.2257 C449.0101,918.2817 443.5241,903.3637 438.7131,888.2347 C433.8841,868.0647 386.1671,934.3047 378.2091,924.4717 C382.0841,902.2007 410.0651,889.4217 429.8671,871.9697 C441.6651,850.5797 432.2651,820.0107 442.4451,795.9317 C441.3461,774.4637 350.4061,830.5267 324.9301,828.8797" id="Fill-5" fill="#00684a"/><path d="M340.2564,400.0972 C336.0524,398.8312 333.1834,394.7182 329.8264,397.2632 C333.7634,399.0322 335.6424,403.8052 340.2564,400.0972 M273.6124,164.6662 C278.8024,163.1132 279.2514,154.5172 274.4224,153.1902 C266.5174,155.9102 269.8414,160.0902 273.6124,164.6662 M324.8154,282.1482 C325.7644,274.3332 319.9074,281.0772 319.0134,277.8872 C310.4344,278.1332 322.4084,284.4932 324.8154,282.1482 M326.2354,387.4622 C324.5114,396.1592 338.3934,389.1822 337.5334,384.9512 C332.8544,380.4082 328.9384,384.0932 326.2354,387.4622 M284.3594,31.7492 C294.0114,23.5922 288.2814,17.7222 277.2124,17.9542 C279.3164,22.6362 280.6984,28.0272 284.3594,31.7492 M328.0864,403.7942 C320.2594,393.4892 308.9204,407.0652 320.1924,414.5602 C321.4264,409.9512 325.3534,407.3522 328.0864,403.7942 M293.5574,225.7202 C284.7814,230.7362 286.0924,236.7392 296.2844,235.7092 C302.3184,231.7832 299.9854,228.2582 293.5574,225.7202 M316.9354,11.1542 C307.9684,8.2642 306.3154,18.5882 300.4514,22.2482 C298.5724,25.6532 305.9704,27.7962 301.4884,30.6072 C315.4864,58.2212 340.0814,5.1242 316.9354,11.1542 M259.7844,82.5802 C257.2004,108.9422 276.2834,79.6252 289.9264,93.2922 C302.2704,81.6002 298.2854,115.9892 306.7354,80.9772 C314.3744,59.3832 248.6464,61.8412 259.7844,82.5802 M361.8444,11.1292 C337.5794,7.2742 335.2604,17.2282 330.6014,38.1852 C321.0614,76.4422 309.8244,114.7912 310.4484,154.6162 C315.7604,169.3672 348.5414,132.9112 367.7404,159.6082 C389.8944,181.6142 415.1224,137.9992 440.3564,161.6682 C455.8144,176.4822 454.1634,98.5862 465.7114,87.3362 C510.1034,-25.2758 515.1724,20.3342 361.8444,11.1292 M286.8674,376.5082 C282.4364,393.2992 304.7194,413.9102 315.8544,394.4012 C298.0124,398.3372 315.2504,374.6242 315.4944,367.4402 C309.0164,364.9722 309.8254,345.5282 302.9724,353.4182 C308.0034,357.0292 304.7964,361.2462 304.3314,365.4632 C307.3844,369.5322 310.1854,377.6952 305.0064,382.0272 C298.1124,379.6492 304.2244,368.0872 295.5144,366.8352 C293.7274,360.6352 304.2984,363.8662 297.9044,357.6332 C279.6224,344.4712 285.4464,364.5162 286.8674,376.5082 M248.8274,9.4242 C240.1354,7.3032 236.6974,17.4622 245.7494,20.0772 C250.3004,21.0282 248.7354,24.3442 249.3254,26.9022 C251.1684,39.9232 236.2484,44.5242 238.3654,29.9832 C242.1094,23.7962 231.0544,24.2892 229.2454,25.4842 C218.2634,37.8092 225.1984,64.7582 244.8414,56.2222 C246.5214,52.0122 242.3434,46.7502 246.2954,42.7552 C249.1934,44.6672 259.9394,43.3622 255.3124,48.7672 C244.9824,56.3642 268.9054,59.0542 266.0934,50.8262 C260.9084,39.7542 265.3284,43.6182 273.1564,42.5562 C267.2644,61.0372 286.2664,55.2652 298.5534,54.5782 C300.7114,53.8452 305.1844,49.1452 303.6684,45.8812 C298.6154,48.4492 293.8814,40.0352 288.7004,45.4802 C284.2254,50.6162 281.5964,43.9422 281.3864,39.6662 C284.0134,42.8742 288.2714,45.1862 290.6094,40.3582 C284.8984,37.5352 280.7184,29.5542 276.7604,39.0272 C272.2084,35.7062 268.0764,31.8442 261.8104,31.5352 C256.2654,28.6962 252.5264,23.6062 261.1704,21.2942 C261.7804,10.0832 244.5654,20.3792 248.8274,9.4242 M550.3294,52.3082 C571.5314,57.0422 608.7994,53.3272 636.1194,53.8312 C669.2974,49.1582 715.9824,61.9402 742.7274,48.1512 C753.3194,-6.6408 733.2994,19.3842 681.1174,13.8382 C662.2344,17.7482 536.2564,4.2072 540.4374,19.0072 C537.6364,22.7972 538.6924,14.9792 537.4274,13.9722 C517.1134,2.8542 499.5144,38.7772 499.649617,54.3762 C516.2284,54.0312 535.4104,57.2972 550.3294,52.3082 M290.9684,493.7352 C265.0364,469.2002 281.8674,414.2282 270.2794,379.0722 C265.9674,313.5512 256.2554,248.3832 252.6524,182.7872 C245.8864,160.9032 250.5204,73.6552 235.4874,68.6692 C220.6534,70.1322 210.4144,67.8782 210.2784,50.5482 C212.5444,34.5182 198.7694,1.9672 223.9274,3.0252 C268.8134,2.9872 313.6624,1.2372 358.5484,1.0922 C488.4964,0.0242 618.5504,-0.6718 748.4654,1.0122 C766.4804,3.9642 758.4374,43.9342 758.5794,58.1802 C755.1714,74.9332 725.4784,55.5652 724.5864,72.2592 C719.3554,153.1452 715.3074,234.2092 705.0384,314.6472 C705.0264,327.8222 706.7084,353.4312 686.6544,344.1622 C692.4464,283.0592 694.1094,221.6952 700.8404,160.6812 C700.3904,59.8822 747.6024,61.6392 638.2764,68.6862 C498.2804,81.7432 486.8754,21.2842 466.3384,164.9292 C464.7704,181.4202 448.0994,183.8942 433.9454,179.2222 C430.8504,175.7202 429.5434,167.5252 422.2564,174.8962 C406.5784,169.8112 380.0284,188.8982 369.2834,179.6782 C362.5174,174.8262 349.8654,157.1942 348.7054,173.0112 C338.4664,173.2492 331.0224,174.0002 320.6924,175.1802 C320.6494,178.2472 326.0584,180.9292 327.6784,180.5352 C339.3644,176.4002 328.9274,205.6702 322.9264,190.7342 C324.9164,188.8292 325.4884,186.5362 322.0464,186.6572 C310.1854,193.8212 306.1274,183.9992 318.6964,178.3772 C309.8284,172.1852 303.6764,178.3462 294.7184,173.0942 C293.4974,165.0552 295.0924,154.6032 293.5974,145.6772 C295.0424,140.9092 298.5534,128.7512 289.7224,128.1532 C283.6304,127.0552 280.2254,124.1992 278.4364,117.2092 C284.4394,118.1702 286.4834,124.5762 292.4164,118.3782 C300.9584,121.4462 302.9734,106.7702 298.6584,101.7422 C293.4704,101.6452 282.3084,107.6692 280.8014,101.2062 C285.3464,90.9022 268.5584,94.8472 266.8814,97.9672 C259.0624,110.8212 265.0334,125.0602 265.9464,139.6242 C259.7414,145.3052 266.5724,145.9542 272.0314,147.0252 C280.1284,141.0592 266.5764,137.1602 272.4244,135.0772 C290.3864,132.2022 286.4874,154.9032 283.7574,166.3162 C279.3364,163.6422 278.9184,167.4352 277.7584,170.0312 C267.9174,167.4122 267.7624,167.5272 268.7384,176.9642 C272.7914,185.9682 264.3964,212.8622 279.8274,208.9252 C289.2754,204.4442 270.6074,205.4202 275.9724,198.3262 C288.5574,206.5282 306.9664,191.7582 306.9324,213.2652 C300.4674,213.5372 291.2464,212.4812 290.7294,221.2442 C296.8894,225.1762 312.9914,203.3212 310.9924,223.7182 C307.2254,234.6182 318.0574,231.4882 320.2784,239.1772 C306.9404,238.3712 322.2674,252.3262 311.8374,253.1812 C311.7584,254.0172 311.3624,255.4462 311.6514,255.6012 C314.9574,259.2322 325.2104,258.0612 322.6774,264.2112 C322.4354,265.0542 323.1444,266.4812 323.8514,267.2212 C333.5214,272.2692 326.7184,278.9402 333.4194,281.4622 C334.0324,284.6722 334.0044,289.6962 335.6854,292.1542 C340.4464,292.9532 339.3894,296.1932 338.5104,298.9202 C335.7624,305.5302 330.4884,296.6972 324.8784,301.7962 C319.5594,283.4432 293.7914,308.1692 307.3684,284.4292 C300.9684,276.8032 306.7074,289.9722 299.3324,287.2472 C292.4754,292.8102 290.1244,282.7372 286.2914,277.4162 C285.9154,270.5342 296.3014,275.9872 295.7054,268.4232 C277.7994,267.3642 299.4664,262.3052 278.2574,257.3952 C280.1104,248.2042 292.5774,258.2852 292.7864,248.9932 C290.8974,240.7742 276.3274,255.1522 279.9314,239.2442 C266.5514,205.8142 281.1424,266.4492 277.9884,279.4582 C276.9634,291.1282 282.9004,287.6712 289.7924,292.8202 C288.9724,300.2322 276.7004,291.1332 278.8214,299.6542 C282.9624,310.7672 280.0764,323.8822 283.6704,334.7862 C293.6614,331.7382 285.2944,349.8632 297.7934,347.7022 C322.3994,349.9062 307.4444,330.7992 319.1744,336.0292 C325.6934,343.9702 317.0924,354.7062 327.1714,361.1522 C333.0794,364.0022 345.2474,357.8192 351.2414,364.4832 C359.9074,367.9672 361.9104,373.5452 367.8604,378.3112 C370.2864,361.1572 365.9724,337.7182 361.8044,320.0232 C364.6154,314.7782 360.5634,312.5402 358.1384,308.7652 C356.3694,306.0112 363.9514,301.6342 361.2984,296.2382 C356.5964,291.1302 361.8274,283.6542 355.4924,279.5512 C356.2404,277.8462 356.6524,273.8382 356.6924,271.6342 C355.2994,273.9162 354.0764,276.0712 351.1124,276.2852 C351.3234,272.9372 341.9904,275.2082 346.8834,269.1022 C345.5244,268.3402 344.1654,267.5762 342.8064,266.8142 C341.3594,273.1302 336.1324,270.2342 332.4364,271.0682 C334.7764,266.1812 342.7574,264.8802 341.0934,257.4492 C348.6894,268.2512 362.2864,261.1942 353.9004,250.7182 C345.6994,246.6042 359.9794,239.0822 353.1344,226.2712 C351.6924,212.7092 345.4154,232.0032 342.3944,221.6112 C346.1714,214.4082 341.6604,214.5222 336.8894,219.1972 C330.8674,214.6832 331.5034,211.3502 325.7394,216.7702 C319.2404,196.4882 330.4584,204.3052 343.4284,199.7102 C349.5694,203.6692 349.0974,196.5962 349.6424,192.3222 C355.9634,186.2862 365.6214,183.1762 366.9924,194.8892 C377.3244,231.3772 377.0134,264.8532 382.8414,302.8092 C385.7374,334.1342 408.5494,384.3682 361.2034,386.9942 C352.0194,383.9022 357.2634,390.1142 357.1344,392.8402 C340.5934,392.1272 345.9514,401.1632 344.3454,415.5692 C333.9124,410.3642 326.0884,417.5262 315.5604,416.6622 C315.6914,411.0732 313.2174,410.3052 308.1444,411.7092 C301.8044,413.2982 294.9984,411.9452 289.7134,407.8492 C288.8404,421.5492 292.0324,434.1622 292.3794,447.6342 C293.1374,451.2992 295.0654,455.1722 294.9054,458.6522 C289.4274,461.6712 296.1704,464.5232 294.7034,468.4452 C288.7524,474.6752 301.7704,487.5082 290.9684,493.7352" id="Fill-7" fill="#0f0f0f"/><path d="M848.7589,586.5323 C831.8699,564.0223 900.6189,551.9093 914.4589,538.3943 C948.1819,517.5543 982.7189,496.0423 1008.1119,465.0063 C1077.4489,373.7633 930.0589,391.3953 884.2299,421.1633 C783.8359,485.8753 810.1609,454.6383 859.8979,379.4313 C898.8819,319.0413 951.5119,268.2543 983.1689,203.3373 C1003.3459,170.2723 997.9669,106.2283 945.4199,122.9693 C840.4039,152.4783 780.8959,262.5933 737.8369,355.2723 C713.8119,332.4673 831.7489,176.2563 863.0499,155.1583 C918.1139,101.3463 1035.1609,81.0123 999.4159,195.0423 C975.5529,262.7423 920.5389,312.8113 881.7519,371.8693 C815.2809,462.1573 876.0359,401.4883 929.1209,390.5093 C976.7959,370.9423 1068.6369,381.0653 1035.2439,453.6893 C993.9959,520.5663 918.2119,556.0653 848.7589,586.5323" id="Fill-9" fill="#0f0f0f"/><path d="M883.0172,636.8706 C860.3902,643.3446 741.2822,730.2966 740.7162,688.6366 C749.0262,542.8266 716.6272,537.3036 848.1032,614.2206 C859.2832,622.1706 871.4732,630.0686 883.0172,636.8706" id="Fill-11" fill="#144936"/><path d="M502.5489,950.8707 C472.4289,954.6917 440.3879,887.5317 455.7639,868.6577 C471.3839,864.2867 514.3499,824.0127 523.7919,836.4377 C533.2269,867.3797 557.3109,898.4967 558.5639,929.9257 C531.9439,961.2197 539.8649,961.6837 502.5489,950.8707" id="Fill-13" fill="#144936"/><path d="M150.5474,490.1665 C127.6134,525.4565 80.9804,373.9225 65.7174,352.2045 C-44.2816,90.5295 168.8094,248.1055 221.1384,375.1965 C265.4124,447.5905 276.3284,539.7665 221.5974,401.2845 C182.0374,332.7055 137.6674,227.2225 48.1754,221.0535 C34.7574,301.0525 114.1274,416.7625 150.5474,490.1665" id="Fill-15" fill="#0f0f0f"/><path d="M964.2398,701.2325 C965.9918,706.2075 969.5288,712.3545 961.4658,713.2735 C936.4218,706.7695 787.4838,785.4525 805.3208,748.6975 C828.1598,714.6855 852.7118,681.7945 881.8348,652.8575 C902.1748,638.2985 946.1258,688.3075 964.2398,701.2325" id="Fill-17" fill="#144936"/><path d="M1042.9899,786.7906 C1042.3419,796.5756 1052.3929,811.3426 1040.0749,816.5906 C1008.1489,828.4606 978.2929,844.4876 949.7469,863.0056 C954.3749,824.9076 976.7269,769.7096 976.1339,727.1926 C976.6879,719.8776 981.6959,719.7776 986.4039,718.9966 C1005.5639,738.6876 1026.9779,762.5556 1042.9899,786.7906" id="Fill-19" fill="#144936"/><path d="M593.085,970.585 C590.074,955.846 570.507,937.641 578.571,923.929 C591.492,918.004 606.066,888.005 620.063,899.109 C690.175,968.796 714.116,997.575 593.085,970.585" id="Fill-21" fill="#144936"/><path d="M726.4791,983.7779 C717.9491,973.7059 694.1571,968.0779 697.1181,952.8569 C709.6581,920.6399 724.3001,889.4189 742.0501,858.8169 C747.7191,896.4899 753.1521,934.2079 759.3151,971.8019 C760.0761,987.0619 736.8161,985.9579 726.4791,983.7779" id="Fill-23" fill="#144936"/><path d="M940.7115,976.294 C927.0695,968.375 909.8855,922.597 932.6895,915.699 C957.8015,910.177 982.8205,896.748 1008.3855,896.93 C990.3115,941.882 993.8735,964.735 940.7115,976.294" id="Fill-25" fill="#144936"/><path d="M1036.3766,853.1495 C1029.6566,859.2755 1023.1196,866.4625 1021.9676,875.6985 C997.9136,887.1715 967.7686,894.2005 939.4786,901.5525 C906.4186,889.3535 1080.2376,789.6915 1036.3766,853.1495" id="Fill-27" fill="#144936"/><path d="M852.0518,984.0914 C851.6168,983.3444 851.2988,983.3154 850.7358,983.9704 C851.2748,984.3994 851.7358,984.9704 852.0518,984.0914 M840.3418,983.0284 C812.4828,977.9324 887.4648,926.5614 902.7578,926.4774 C911.2808,924.0544 907.7188,936.6034 906.0598,940.6294 C895.9948,972.1434 874.8758,993.5914 840.3418,983.0284" id="Fill-29" fill="#144936"/><path d="M391.8233,923.129 C393.2893,906.096 420.6523,897.877 431.7153,884.931 C443.1583,879.792 447.4853,923.942 454.4003,933.22 C465.8543,946.11 393.1073,926.3 391.8233,923.129" id="Fill-31" fill="#144936"/><path d="M83.1873,906.8746 C90.9253,916.8876 100.5603,906.5416 96.3783,915.8956 C108.8953,925.0806 123.8013,934.2186 140.5613,935.7146 C153.2043,937.2636 164.9313,946.8206 178.6613,943.7636 C181.9233,943.6526 186.2713,940.7936 185.9963,947.5516 C195.7213,949.8026 207.0783,944.6136 216.8443,949.2576 C185.3113,962.5676 110.9773,938.7356 83.1873,906.8746" id="Fill-33" fill="#144936"/><path d="M290.6476,945.1783 C285.7886,928.7763 306.9296,898.4963 321.4736,917.9073 C303.2756,924.9903 300.1276,947.5243 324.1146,944.8383 C314.7056,947.0893 294.7116,957.2953 290.6476,945.1783" id="Fill-35" fill="#00684a"/><path d="M121.9222,510.9702 C150.6602,546.1182 84.7982,572.6872 103.0602,544.0652 C121.9792,535.9392 103.4852,519.2752 121.9222,510.9702" id="Fill-37" fill="#00684a"/><path d="M1.5084,705.5889 C5.2244,713.8979 -0.6196,735.7159 11.3984,735.5149 C25.7554,730.0399 46.0424,728.5469 26.4564,746.4119 C-3.9156,754.9159 15.4094,757.7689 12.7554,776.4589 C2.9114,757.0159 0.2964,727.7029 1.5084,705.5889" id="Fill-39" fill="#00684a"/><path d="M542.7916,964.6065 C564.1396,938.1925 565.2006,926.6375 579.3096,965.5525 C583.6746,975.3225 548.6456,964.4455 542.7536,964.5905 L542.7916,964.6065 Z" id="Fill-41" fill="#144936"/><path d="M26.557,611.3433 C40.066,621.9923 50.692,621.9123 63.765,611.0633 C65.556,608.9673 70.806,605.6253 70.327,610.7323 C67.074,636.7363 3.925,638.7533 26.557,611.3433" id="Fill-43" fill="#00684a"/><path d="M593.085,970.585 C617.201,977.463 642.066,976.939 666.282,982.304 C658.352,983.199 650.661,988.572 642.306,982.942 C634.18,982.752 624.683,991.67 617.444,981.782 C607.638,977.705 595.295,986.543 593.085,970.585" id="Fill-45" fill="#00684a"/><path d="M352.8795,934.2408 C338.0655,916.9968 362.9475,873.4128 362.4445,914.1128 C365.6645,933.5688 386.9755,920.4218 352.8795,934.2408" id="Fill-47" fill="#00684a"/><path d="M219.3192,950.0826 C203.5212,922.8036 255.2422,906.5156 239.5802,928.5336 C220.8742,939.4906 245.5902,955.4926 219.3192,950.0826" id="Fill-49" fill="#00684a"/><path d="M290.6476,945.1783 C289.5966,961.2403 246.8316,949.9243 254.1376,942.6393 C259.2836,941.0403 260.7386,951.8113 268.1676,946.1703 C273.3476,941.9183 285.6496,951.9663 290.6476,945.1783" id="Fill-51" fill="#144936"/><path d="M950.231,973.8335 C956.967,968.9305 963.846,971.3665 968.082,966.3845 C989.56,948.9305 964.208,989.0545 950.231,973.8335" id="Fill-53" fill="#00684a"/><path d="M686.4576,984.8428 C687.3636,980.5618 689.1006,975.9608 691.4786,972.4338 C702.7826,976.1068 704.6386,993.8518 686.4576,984.8428" id="Fill-55" fill="#144936"/><path d="M504.1222,951.7173 C512.1192,950.9193 519.2102,952.5923 524.4992,959.1843 C515.0532,966.6453 509.0622,959.2373 504.1222,951.7173" id="Fill-57" fill="#00684a"/><path d="M405.2975,928.1856 C412.5315,930.1726 422.3805,927.5056 427.0105,934.4766 C419.1985,934.1226 406.0205,940.5156 405.2975,928.1856" id="Fill-59" fill="#00684a"/><path d="M70.8492,891.1895 C77.9382,893.8155 81.5882,899.1475 82.8042,906.3895 C77.5802,902.2945 72.9972,897.7005 70.8492,891.1895" id="Fill-61" fill="#144936"/><path d="M234.1766,951.0957 C236.6356,946.9017 245.0076,947.2217 249.6496,944.8297 C246.4226,955.2347 243.5516,952.2197 234.1766,951.0957" id="Fill-63" fill="#144936"/><path d="M14.4232,780.8912 C19.6672,782.6252 18.4852,786.9002 18.3252,790.7662 C12.8712,789.1102 13.6392,785.0042 14.4232,780.8912" id="Fill-65" fill="#00684a"/><path d="M1.6783,671.9336 C7.1293,675.6016 2.4193,678.9156 1.3143,682.3456 C1.4353,678.8696 1.5573,675.4016 1.6783,671.9336" id="Fill-67" fill="#00684a"/><path d="M392.4449,925.1246 C395.9929,926.0756 399.5419,927.0256 403.0909,927.9736 C399.0169,928.9886 394.6389,931.1446 392.4449,925.1246" id="Fill-69" fill="#00684a"/><path d="M995.7872,727.3477 C992.9492,727.2287 990.1392,727.0747 990.3222,723.0847 C993.3552,722.9547 996.4672,722.7207 995.7872,727.3477" id="Fill-71" fill="#00684a"/><path d="M694.2901,987.1436 C695.6651,987.0826 697.0411,987.0216 698.4161,986.9616 C697.0401,987.0216 695.6651,987.0826 694.2901,987.1436" id="Fill-73" fill="#00684a"/><path d="M526.3336,958.711 C527.9486,956.161 529.1736,956.466 530.0656,959.22 C528.8216,959.051 527.5776,958.881 526.3336,958.711" id="Fill-75" fill="#00684a"/><path d="M943.6412,975.8853 C944.9852,975.2793 946.3292,974.6733 947.6712,974.0643 C946.3272,974.6693 944.9842,975.2773 943.6412,975.8853" id="Fill-77" fill="#00684a"/><path d="M374.1524,926.2305 C373.3754,924.1345 376.8744,925.0175 378.2084,924.4725 C380.1524,926.0665 375.3504,925.6625 374.1524,926.2305" id="Fill-79" fill="#00684a"/><path d="M988.6817,722.0454 C987.9227,721.0284 987.1627,720.0124 986.4047,718.9964 C987.1637,720.0124 987.9227,721.0294 988.6817,722.0454" id="Fill-81" fill="#00684a"/><path d="M670.4141,982.0499 C672.3111,981.4179 674.2111,979.6069 674.2451,982.6419 C672.9681,982.4439 671.6911,982.2469 670.4141,982.0499" id="Fill-83" fill="#00684a"/><path d="M686.4371,984.8243 C687.9191,985.2883 689.4011,985.7513 690.8841,986.2133 C689.4021,985.7493 687.9201,985.2863 686.4371,984.8243" id="Fill-85" fill="#00684a"/><path d="M882.5611,636.062 C881.3591,635.637 880.1581,635.212 878.9571,634.789 C880.1591,635.214 881.3601,635.638 882.5611,636.062" id="Fill-87" fill="#00684a"/><path d="M70.2689,889.2701 C70.7629,889.5681 70.8879,889.9771 70.6439,890.4901 C70.0559,890.2071 69.9259,889.8321 70.2689,889.2701" id="Fill-89" fill="#144936"/><path d="M1042.4264,786.315 C1041.7134,785.922 1041.0004,785.529 1040.2884,785.138 C1041.0014,785.532 1041.7144,785.923 1042.4264,786.315" id="Fill-91" fill="#00684a"/><path d="M542.754,964.5904 C543.364,964.7654 543.973,964.9414 544.583,965.1174 C543.974,964.9424 543.364,964.7664 542.754,964.5904" id="Fill-93" fill="#00684a"/><path d="M552.317,966.2588 C553.173,966.3148 554.03,966.3698 554.888,966.4248 C554.031,966.3688 553.174,966.3138 552.317,966.2588" id="Fill-95" fill="#00684a"/><path d="M558.4571,970.837 L558.0321,971.634 C558.1441,971.36 558.5611,971.078 558.4571,970.837" id="Fill-97" fill="#00684a"/><g id="Group-101" transform="translate(0.000000, 696.987000)"><mask id="masterspot-illustrationsdelete-trash-mask-2" fill="#fff"><use xlink:href="#masterspot-illustrationsdelete-trash-path-1"/></mask><g id="Clip-100"/><path d="M1.4185,0.2816 C1.9335,0.7556 1.8835,0.9836 1.2675,1.2776 C0.8705,0.8386 0.9115,0.5806 1.4185,0.2816" id="Fill-99" fill="#00684a" mask="url(#masterspot-illustrationsdelete-trash-mask-2)"/></g><path d="M848.669,614.8418 C848.669,614.8418 848.103,614.2148 848.103,614.2198 C848.737,613.2278 849.746,614.3188 848.669,614.8418" id="Fill-102" fill="#00684a"/><path d="M742.3365,557.2549 C726.3515,581.6249 730.9595,620.7979 728.4025,650.6529 C726.2345,657.9059 733.8405,684.3499 723.6425,680.9379 C648.8135,628.5679 685.8405,654.0499 722.1065,593.8619 C726.4055,582.9629 744.7815,558.9519 726.9125,552.9189 C725.8445,553.1629 724.5265,555.2379 724.4775,556.5469 C722.4755,591.2229 691.9545,611.7569 670.3535,635.0269 C644.4695,636.0139 616.9525,606.9219 590.7635,597.8309 C592.0385,571.6449 694.4915,518.0019 722.4985,547.1329 C727.5865,548.6629 740.4025,552.1759 742.3365,557.2549" id="Fill-104" fill="#144936"/><path d="M460.5489,663.0376 C505.3489,768.5536 407.9739,796.3736 326.4259,821.0426 C351.7549,753.0416 413.3699,711.1996 460.5489,663.0376" id="Fill-106" fill="#144936"/><path d="M593.2452,345.8799 C594.9392,271.4569 597.1222,197.0549 602.3832,122.7859 C630.4742,77.9059 615.7322,190.5679 616.9272,203.4619 C609.6202,230.1379 627.3452,362.3699 593.2452,345.8799" id="Fill-108" fill="#0f0f0f"/><path d="M434.5645,490.1519 C435.9915,454.3609 378.5835,455.2729 381.3425,489.4259 C380.5465,524.8359 434.1445,524.8259 434.5645,490.1519 M407.4465,529.1889 C357.3405,532.7849 353.3935,445.0309 409.9535,447.3039 C466.0935,446.9919 457.3515,535.3529 407.4465,529.1889" id="Fill-110" fill="#162b22"/><path d="M610.5128,455.1133 C644.8288,455.4853 642.9118,403.9703 610.1298,403.5533 C577.5738,404.0673 577.8878,454.5253 610.5128,455.1133 M648.7618,431.1403 C650.7398,478.9303 571.1628,480.3293 573.7608,429.6843 C575.2328,384.6983 650.1958,380.5513 648.7618,431.1403" id="Fill-112" fill="#162b22"/><path d="M341.9146,679.1045 C322.7596,678.2305 321.0666,710.4575 340.5916,710.7725 C360.7446,711.1065 362.3716,679.3485 341.9146,679.1045 M343.0976,664.6565 C383.8056,662.4495 383.4606,727.1525 344.8186,725.8145 C305.3376,727.5275 301.1016,664.2795 343.0976,664.6565" id="Fill-114" fill="#162b22"/><path d="M452.3448,671.2329 C432.4198,700.0809 408.7038,648.3959 418.9298,629.6879 C430.1548,594.1419 486.4578,587.4479 500.7688,624.9149 C488.5678,650.3489 481.2418,603.4949 456.9588,611.8899 C424.8238,614.2389 420.4298,659.7709 452.3448,671.2329" id="Fill-116" fill="#162b22"/><path d="M834.4341,513.648 C875.0331,490.741 914.6371,450.138 959.9761,442.461 C943.3791,460.763 918.4821,470.606 898.7771,485.666 C879.8041,491.639 841.7011,540.717 834.4341,513.648" id="Fill-118" fill="#0f0f0f"/><path d="M498.3922,629.4605 C515.6902,617.9385 530.4212,583.1325 558.0842,596.5805 C567.8612,603.1445 534.2222,625.1845 529.9592,634.7585 C506.2112,664.7575 505.7112,672.4875 498.3922,629.4605" id="Fill-120" fill="#144936"/><path d="M512.7398,357.855 C544.6088,360.726 534.9218,409.371 507.5228,413.721 C480.0418,422.514 456.4118,393.196 466.8368,367.395 C488.6098,353.063 474.2698,378.027 479.5618,388.624 C484.7328,403.734 507.9278,405.668 515.5118,391.48 C529.5868,378.099 501.5358,364.399 512.7398,357.855" id="Fill-122" fill="#162b22"/><path d="M742.3716,528.7344 C742.2656,512.4744 714.8616,509.1784 714.7806,528.6204 C714.6126,546.5974 742.7086,547.3704 742.3716,528.7344 M720.5786,545.2464 C680.6266,538.3134 708.1476,493.4924 737.4016,502.0454 C775.8636,513.0884 754.6666,575.4264 720.5786,545.2464" id="Fill-124" fill="#162b22"/><path d="M758.9512,368.0728 C766.3992,371.0058 764.1892,374.5818 759.8722,379.7768 C737.8242,406.0458 767.2722,441.4548 797.8872,424.3868 C814.6662,452.3788 744.4552,442.1688 742.7262,416.8018 C736.3112,401.0688 740.6952,379.4288 758.9512,368.0728" id="Fill-126" fill="#162b22"/><path d="M646.1465,538.8233 C621.8195,550.1013 599.9575,565.1673 580.0815,583.0013 C506.2725,604.2653 620.7525,531.2123 646.1465,538.8233" id="Fill-128" fill="#144936"/><path d="M325.6578,436.7794 C322.7338,432.2184 321.4188,430.1674 320.1048,428.1174 C316.0688,432.3764 319.3738,440.6884 325.6578,436.7794 M342.2578,423.0894 C337.6608,434.9084 325.9478,445.9464 328.5928,459.0524 C324.6198,456.7324 325.4598,461.1354 324.0058,462.3454 C321.6098,459.9964 317.4878,458.6454 318.8338,454.0504 C320.1438,447.0984 313.2198,447.9254 313.5848,454.9334 C301.3848,458.6564 310.0908,451.7704 309.1418,447.3734 C307.8628,459.3184 292.1178,441.8344 297.8638,436.3724 C303.3248,430.7524 305.9958,427.9474 297.2688,423.2174 C306.3068,429.4654 307.5088,413.6064 313.8918,425.7584 C317.7108,425.8444 329.9098,414.5294 324.5958,425.9044 C330.4338,433.7384 336.4458,415.9494 342.2578,423.0894" id="Fill-130" fill="#0f0f0f"/><path d="M536.6168,529.3052 C536.5218,520.6962 520.9478,520.8522 522.4118,530.2232 C522.1798,539.8792 537.8008,539.3502 536.6168,529.3052 M510.1288,530.6442 C509.5128,505.5502 548.9038,504.7452 548.5898,529.8582 C549.0248,555.8892 509.1408,556.3972 510.1288,530.6442" id="Fill-132" fill="#162b22"/><path d="M359.4527,596.1602 C341.9937,596.6792 342.9657,569.1992 359.6197,569.3482 C377.7977,569.7712 379.0867,595.9762 359.4527,596.1602" id="Fill-134" fill="#162b22"/><path d="M313.5831,454.9327 C313.2151,447.9377 320.1491,447.0917 318.8351,454.0517 C317.4881,458.6447 321.6101,459.9957 324.0051,462.3457 C315.0921,464.0097 312.0941,475.2337 307.7121,468.0327 C288.8071,469.4117 317.0461,494.2147 298.6301,501.8927 C295.3021,499.9037 297.1841,493.0157 290.9681,493.7317 C293.9831,490.9157 296.9431,488.3647 294.7601,483.3067 C294.0831,474.9387 298.9721,473.9687 294.7171,465.8127 C300.6541,463.5707 297.1411,461.0957 294.9061,458.6527 C302.7561,448.9867 309.5481,462.8637 313.5831,454.9327" id="Fill-136" fill="#00684a"/><path d="M836.0089,537.0186 C838.1139,546.1206 840.2199,555.2216 842.3269,564.3146 C818.7489,571.6886 811.3859,539.4986 836.0089,537.0186" id="Fill-138" fill="#162b22"/><path d="M421.0074,367.0982 C418.8674,352.8922 424.2884,349.8902 437.0954,353.5592 C437.3574,363.0792 444.6274,362.2792 449.9644,360.9282 C460.1474,357.9132 457.3884,371.3722 450.5074,365.5942 C453.9424,369.9372 424.6994,374.8772 421.0074,367.0982" id="Fill-140" fill="#00684a"/><path d="M421.0074,367.0982 C434.3204,378.0542 403.4174,366.7922 400.5284,377.8042 C395.7724,379.6012 389.8784,379.7922 384.8074,380.9832 C398.5484,348.7042 396.5554,374.0332 421.0074,367.0982" id="Fill-142" fill="#162b22"/><path d="M306.9139,487.2569 C299.7879,483.4949 297.3949,466.3429 307.7119,468.0299 C311.6269,473.2429 312.7989,470.1819 315.1849,466.5639 C331.5289,457.2059 311.0549,481.2989 306.9139,487.2569" id="Fill-144" fill="#162b22"/><path d="M342.2574,423.0889 C336.4464,415.9489 330.4344,433.7389 324.5944,425.9049 C328.1514,418.3059 324.1434,420.9569 320.5864,422.8499 C297.6694,423.8359 352.4544,400.6309 342.2574,423.0889" id="Fill-146" fill="#00684a"/><path d="M357.1349,392.8404 C357.2629,390.1144 352.0189,383.9024 361.2039,386.9984 C367.4189,385.2364 375.3879,381.7904 382.3209,380.6084 C376.7919,386.7564 367.4779,383.9524 363.6139,391.8464 C361.5099,395.1414 359.5079,393.9754 357.1349,392.8404" id="Fill-148" fill="#162b22"/><path d="M475.2755,362.4019 C471.0495,364.6399 467.4085,368.5169 462.3445,366.8919 C462.7195,355.3779 486.7995,357.4079 475.2755,362.4019" id="Fill-150" fill="#00684a"/><path d="M344.838,398.4146 C346.224,392.6556 347.03,390.7156 352.214,394.9136 C351.954,402.8726 351.078,403.6466 344.838,398.4146" id="Fill-152" fill="#162b22"/><path d="M344.838,398.4146 C352.063,402.1486 351.147,404.2056 345.331,409.1086 C344.313,405.2546 344.59,402.5126 344.838,398.4146" id="Fill-154" fill="#00684a"/><path d="M328.5457,459.1041 C328.9427,459.4941 329.2097,460.5801 329.6877,459.8671 C329.2837,459.6421 328.9347,459.1501 328.5457,459.1041" id="Fill-156" fill="#0f0f0f"/><path d="M458.2769,367.9459 C459.0709,367.7769 459.8639,367.6069 460.6579,367.4389 C459.8639,367.6089 459.0709,367.7779 458.2769,367.9459" id="Fill-158" fill="#00684a"/><path d="M362.984,903.2999 C342.232,880.6669 293.482,825.1389 354.618,820.7179 C374.324,818.7529 441.92,775.5899 442.442,795.9199 C432.263,820.0119 441.666,850.5799 429.873,871.9729 C412.582,885.3439 395.653,899.1759 378.596,912.8429 C372.459,909.6589 370.997,900.8959 362.984,903.2999" id="Fill-160" fill="#144936"/><path d="M189.6771,471.1363 C166.6991,431.1803 145.0311,390.5113 116.1121,354.4033 C114.1461,351.6113 108.7551,348.5493 113.0701,344.4523 C141.7011,349.8413 176.3091,415.7423 193.1391,442.2113 C204.4381,460.3633 220.8601,471.2873 189.6771,471.1363" id="Fill-162" fill="#0f0f0f"/><path d="M124.8121,623.001 C125.0421,606.638 112.7031,604.977 101.4471,600.032 C119.4051,578.418 148.4331,612.893 137.4421,633.05 C131.6031,646.968 97.6611,648.39 95.1431,632.111 C103.3941,627.273 118.8411,634.979 124.8121,623.001" id="Fill-164" fill="#00684a"/><path d="M69.7625,704.4986 C110.1875,700.6166 120.4365,764.9646 81.3675,756.8946 C78.3425,749.3806 108.6135,731.6246 78.7995,718.4916 C70.7375,713.9176 63.9255,718.5436 55.3465,716.6516 C54.3145,707.6646 65.4205,706.4576 69.7625,704.4986" id="Fill-166" fill="#00684a"/><path d="M146.3653,700.8321 C140.2143,666.9781 204.4003,681.4481 181.8043,694.6141 C173.7283,691.9361 161.9873,687.8751 159.7923,699.8411 C154.5853,715.7281 177.3003,719.4511 179.9683,728.7581 C165.1393,741.1021 144.1003,722.5201 146.3653,700.8321" id="Fill-168" fill="#00684a"/><path d="M187.7943,592.6924 C197.1063,639.1864 228.4143,580.2714 231.2363,604.3144 C226.4813,618.0444 204.4843,631.3364 190.5243,624.3844 C162.9693,608.4664 190.2633,565.4984 187.7943,592.6924" id="Fill-170" fill="#00684a"/><path d="M256.1456,840.981 C290.2806,835.673 289.5566,888.083 273.1046,866.915 C271.4576,860.252 269.2426,854.677 261.3116,854.582 C238.8956,851.03 243.9116,868.567 232.9286,869.96 C219.6586,856.674 244.6956,839.874 256.1456,840.981" id="Fill-172" fill="#00684a"/><path d="M152.2523,858.9351 C181.4953,856.9651 187.6413,919.1371 160.1353,877.7281 C144.0443,858.5201 140.8293,887.3561 128.8603,886.2841 C115.9503,874.7961 136.8013,856.8231 152.2523,858.9351" id="Fill-174" fill="#00684a"/><path d="M114.6036,821.0342 C119.6926,855.0112 54.6036,855.6172 94.8986,831.4292 C109.8036,819.0032 91.7706,811.7342 87.9466,801.1502 C99.2356,793.7612 115.3306,809.2132 114.6036,821.0342" id="Fill-176" fill="#00684a"/><path d="M270.5553,573.1382 C310.0233,582.0452 271.8973,634.9162 259.1233,608.3942 C262.5053,596.8042 267.3673,583.9292 270.5553,573.1382" id="Fill-178" fill="#00684a"/><path d="M234.3824,757.2535 C232.1804,738.1845 253.5534,729.5735 263.2604,743.6655 C241.7384,738.8265 241.4854,769.4735 261.0734,771.2875 C289.3864,780.9755 232.2234,794.7805 234.3824,757.2535" id="Fill-180" fill="#00684a"/><path d="M146.1908,781.0411 C144.6098,764.3511 170.6118,754.5451 176.1258,772.6991 C164.5448,771.9191 156.8388,778.3641 162.9868,788.7901 C207.6838,813.2681 143.3918,812.6141 146.1908,781.0411" id="Fill-182" fill="#00684a"/><path d="M180.7767,540.4102 C144.2067,519.9912 206.6117,541.6592 198.3547,505.5842 C197.6877,501.9332 194.6487,496.9952 199.9387,495.2742 C224.1967,503.0032 208.2957,542.2162 180.7767,540.4102" id="Fill-184" fill="#00684a"/><path d="M752.6548,837.107 C762.9408,816.479 789.7668,758.631 816.3548,787.458 C829.9978,808.95 907.0858,892.259 886.8148,909.38 C857.6518,938.197 816.5958,948.961 780.9958,967.649 C763.5038,983.112 758.8288,853.589 752.6548,837.107" id="Fill-186" fill="#144936"/><path d="M966.2935,734.794 C961.5215,768.236 945.0525,905.576 898.5605,889.509 C876.1225,850.111 850.0445,813.314 821.8355,777.865 C798.7075,769.24 987.6315,701.662 966.2935,734.794" id="Fill-188" fill="#144936"/><path d="M730.5152,707.1953 C691.3962,747.3623 620.0812,761.3593 570.1292,792.2633 C552.2982,793.5973 549.6032,758.0973 538.3742,745.9263 C535.6282,740.7593 537.3112,738.4973 541.8072,735.7693 C582.9282,711.2093 623.6902,686.0463 661.3792,656.3803 C671.7382,646.4333 727.6012,694.9073 730.5152,707.1953" id="Fill-190" fill="#144936"/><path d="M735.5582,798.9361 C700.0122,823.0561 662.1622,845.2771 627.4352,871.0531 C618.5082,877.2801 618.2192,877.6801 611.9722,868.6091 C607.1802,854.9671 559.3742,807.8591 577.3342,801.5771 C625.8062,778.1271 674.3032,754.7441 722.8182,731.3981 C737.7382,720.4791 731.1562,786.4851 735.5582,798.9361" id="Fill-192" fill="#144936"/><path d="M657.939,645.0367 C619.487,676.7727 578.081,702.7707 535.265,727.9017 C526.84,732.6427 509.075,681.7477 515.128,675.7387 C579.487,588.9117 565.759,595.2517 657.939,645.0367" id="Fill-194" fill="#144936"/><path d="M739.5289,838.2193 C723.5069,874.0773 701.4859,908.3913 688.7879,945.7903 C687.3039,949.9623 685.6169,951.5993 682.0449,947.7533 C673.4639,932.3573 619.6229,894.3103 630.0319,881.4003 C662.1049,857.6483 695.7399,836.3303 730.1109,816.0833 C742.4799,807.9603 737.2619,829.7063 739.5289,838.2193" id="Fill-196" fill="#144936"/><path d="M570.5181,917.377 C557.7401,893.869 549.1951,868.122 538.3161,843.627 C530.7831,825.286 530.9801,825.204 548.4541,816.108 C553.1261,814.007 558.3741,808.977 561.8611,815.544 C576.5441,837.679 591.4511,859.665 606.0811,881.834 C604.2311,896.757 581.5211,906.729 570.5181,917.377" id="Fill-198" fill="#144936"/><path d="M448.3429,849.1553 C452.8459,816.7203 449.7599,774.5883 488.1689,764.8303 C503.4799,761.9003 505.1839,800.7693 513.9339,811.9273 C516.3309,817.8273 514.3119,820.8113 509.0509,823.7613 C491.8429,828.0003 457.1329,866.3513 448.3429,849.1553" id="Fill-200" fill="#144936"/><path d="M452.3448,671.2329 C420.4318,659.7729 424.8218,614.2359 456.9618,611.8829 C514.8458,620.1999 479.6028,649.3229 452.3448,671.2329" id="Fill-202" fill="#00684a"/><path d="M853.9937,668.2315 C838.7357,677.5205 799.3567,759.4965 787.7357,739.7285 C782.8377,730.8495 758.4137,719.4735 765.4507,710.3745 C794.9477,697.4245 824.5337,677.9185 853.9937,668.2315" id="Fill-204" fill="#144936"/><path d="M742.5201,730.083 C746.0601,699.271 775.9041,746.627 786.3831,753.806 C786.5111,772.531 769.2671,783.766 752.8841,791.404 C739.3581,786.61 747.2741,744.674 742.5201,730.083" id="Fill-206" fill="#144936"/><path d="M526.1299,814.2466 C522.5569,795.5346 501.0879,771.1856 507.9859,754.3116 C524.0689,743.8516 524.1609,743.8616 532.6589,760.9626 C544.0699,789.7716 567.5529,799.7276 526.1299,814.2466" id="Fill-208" fill="#144936"/><path d="M468.4835,657.0835 C489.5255,631.9055 491.9855,644.2535 496.7605,670.3785 C499.7985,677.3405 485.1265,704.1255 480.6125,693.9795 C476.4995,681.7015 472.5095,669.3865 468.4835,657.0835" id="Fill-210" fill="#144936"/><path d="M489.0211,717.1421 C494.1791,712.0921 497.5211,694.1971 505.1671,696.5001 C507.4951,709.6281 525.0971,727.8531 515.7901,739.1851 C495.1941,756.6931 495.9831,732.3431 489.0211,717.1421" id="Fill-212" fill="#144936"/><path d="M898.3126,980.8755 C904.6276,972.1785 905.8556,951.2765 916.1446,949.4815 C926.8986,972.8905 924.0196,978.0615 898.3126,980.8755" id="Fill-214" fill="#144936"/><path d="M468.5865,763.0201 C474.0265,754.9991 474.6715,735.7181 483.7025,733.9171 C495.2565,752.7771 485.0145,756.6491 468.5865,763.0201" id="Fill-216" fill="#144936"/><path d="M362.984,903.2999 C370.999,900.9009 372.458,909.6539 378.596,912.8429 C391.089,932.1489 353.593,929.0699 362.984,903.2999" id="Fill-218" fill="#162b22"/><path d="M924.6539,894.3111 C922.9899,904.0661 918.9179,913.4511 909.0129,909.0171 C911.3299,901.6911 917.9649,900.3631 924.6539,894.3111" id="Fill-220" fill="#144936"/><path d="M762.5762,798.8409 C758.3892,806.0889 755.2822,811.4649 752.0152,817.1189 C747.5822,805.2789 747.5822,805.2789 762.5762,798.8409" id="Fill-222" fill="#144936"/><path d="M798.9551,767.7847 C796.3781,768.6477 792.0331,773.6177 791.4921,769.5097 C794.4801,767.2527 796.4081,762.1587 798.9551,767.7847" id="Fill-224" fill="#00684a"/><path d="M468.4732,762.9092 C468.3772,763.1732 468.2822,763.4362 468.1862,763.7002 C468.2642,763.4402 468.7122,763.1232 468.4732,762.9092" id="Fill-226" fill="#144936"/><path d="M302.4337,312.9278 C291.7827,312.1508 299.2337,317.6988 304.8567,319.0858 C306.9887,319.5698 309.8037,318.2348 306.7407,315.1278 C322.6957,313.6298 310.9847,305.5878 302.4337,312.9278 M319.1757,336.0318 C315.0587,324.4728 281.8167,324.0378 296.5807,309.8308 C297.8047,297.8998 277.0257,313.6198 278.8247,299.6538 C277.2257,292.7008 284.1437,297.3678 287.8177,295.7168 C294.9537,287.8248 274.5257,293.6668 277.9887,279.4588 C278.4967,279.8868 279.1297,280.1798 279.6797,280.5638 C274.5397,274.7758 285.7397,271.7858 287.0637,267.3628 C298.7197,266.5418 297.1507,273.5498 288.0577,273.6888 C283.0447,277.4958 290.7737,282.3138 291.6807,286.3938 C293.9097,292.5268 296.8037,287.1238 299.3327,287.2488 C309.4857,288.5328 303.3747,300.2858 294.0197,299.8058 C298.3127,299.6538 300.1137,307.3938 305.2187,303.3778 C306.7867,305.7818 308.6067,306.4988 309.6417,303.4958 C309.0577,281.2628 327.4477,301.2698 331.8147,312.5158 C325.2467,311.2698 312.4637,319.6958 325.6017,317.2248 C333.6237,313.1028 339.0837,327.5228 328.9367,327.6798 C323.1337,327.4828 322.5297,333.3638 319.1757,336.0318" id="Fill-228" fill="#00684a"/><path d="M265.0414,82.313 C263.6354,81.458 262.6374,80.392 261.1684,81.734 C262.7344,82.805 263.3924,84.758 265.0414,82.313 M283.3094,79.515 C284.0854,85.725 292.7844,86.923 290.8594,79.255 C290.1304,76.588 292.3354,74.139 293.2914,71.775 C286.6464,71.291 284.2834,71.539 283.3094,79.515 M259.7844,82.58 C248.6354,61.842 314.3594,59.382 306.7354,80.974 C298.0264,115.742 302.1814,81.549 289.9284,93.292 C276.2744,79.623 257.2094,108.946 259.7844,82.58" id="Fill-230" fill="#00684a"/><path d="M286.1266,143.1041 C282.7816,135.9991 277.0636,135.4741 270.7006,132.4291 C267.0266,153.8711 252.3606,93.3631 275.1106,94.5861 C278.4736,94.5741 283.6216,95.0071 280.8046,101.2081 C276.2516,101.7191 272.4536,102.5941 275.6876,108.6571 C278.0606,112.0201 273.5136,117.2251 278.6756,117.3541 C277.5476,130.1221 300.7266,124.6551 294.1726,137.2451 C287.5916,136.0951 287.5916,136.0951 286.1266,143.1041" id="Fill-232" fill="#00684a"/><path d="M433.9464,179.2242 C418.8824,180.0782 438.0984,194.0542 424.8104,189.9812 C412.3424,190.1212 433.9314,199.3412 430.3484,205.6762 C426.7014,206.9532 419.4484,210.6742 418.7344,204.4102 C422.7284,191.7662 403.5294,188.0142 409.5784,176.4632 C407.9384,170.4792 418.9204,175.8472 422.2564,174.8952 C429.5434,167.5252 430.8504,175.7202 433.9464,179.2242" id="Fill-234" fill="#00684a"/><path d="M592.6841,69.1915 C580.8161,75.0205 591.6101,99.3865 571.4171,93.5035 C551.9761,65.6925 565.7161,69.0295 592.6841,69.1915" id="Fill-236" fill="#00684a"/><path d="M332.4364,271.0684 C332.4474,278.3524 323.2054,267.5244 322.6754,264.2144 C325.2254,258.0534 314.9374,259.2494 311.6524,255.5994 C311.3634,255.4464 311.7584,254.0174 311.8364,253.1794 C322.2834,252.2974 306.9134,238.4094 320.2774,239.1804 C319.2124,242.7634 314.4704,248.6544 319.8214,250.5494 C329.2534,245.9184 334.3834,254.1634 341.1094,257.4594 C342.7574,264.8804 334.7764,266.1814 332.4364,271.0684" id="Fill-238" fill="#00684a"/><path d="M386.9742,259.9214 C394.6322,252.0074 394.3252,271.5454 389.8692,273.9974 C378.4892,276.3224 388.1472,283.3404 390.2602,289.2324 C391.5652,292.4804 392.0532,292.6874 392.6802,289.0824 C396.3472,280.3094 408.3392,296.8214 402.7312,301.1994 C390.6112,299.6754 394.5242,293.3204 382.8442,302.8264 C381.3162,291.1124 379.2762,279.4294 379.1112,267.6044 C387.0102,270.4454 384.7322,262.8764 386.9742,259.9214" id="Fill-240" fill="#00684a"/><path d="M304.5101,176.5308 C302.8231,178.5718 304.0221,186.1838 297.8861,179.6258 C295.6811,177.2688 292.0671,176.3138 289.5961,180.2598 C288.2551,177.2208 286.1051,174.9148 283.1331,177.8828 C281.2581,179.7558 280.9771,182.7048 284.8021,184.0288 C288.6001,190.4318 277.0421,186.7428 278.2621,180.8648 C289.2571,171.9688 278.4691,145.9378 293.5971,145.6728 C297.3151,161.1528 286.8721,174.1348 304.5101,176.5308" id="Fill-242" fill="#00684a"/><path d="M386.9742,259.9214 C380.3862,281.4194 376.4012,254.0814 374.3932,245.3524 C380.9292,242.3024 373.0692,237.1624 376.1202,233.6514 C385.7012,230.0864 390.8052,237.6714 391.8572,246.3134 C386.5522,248.0584 376.7522,255.8814 386.9742,259.9214" id="Fill-244" fill="#162b22"/><path d="M361.0929,355.5591 C372.4389,347.7241 366.8789,370.1161 369.3399,377.3991 C368.0139,378.5041 360.9549,374.1221 360.2989,370.3151 C360.0639,368.0761 354.4239,366.4081 351.2549,364.4841 C354.5209,363.5031 358.5369,360.5831 352.7529,361.2081 C347.2069,367.8631 335.9049,352.0621 346.8339,356.3931 C350.5989,358.2791 352.2489,356.2001 353.4709,353.1101 C356.2429,354.7521 358.9399,360.5211 361.0929,355.5591" id="Fill-246" fill="#00684a"/><path d="M512.1651,76.94 C488.7671,64.729 533.2531,69.98 542.5331,69.678 C525.8151,77.387 539.7981,91.75 513.4861,76.204 C513.0461,76.449 512.6051,76.695 512.1651,76.94" id="Fill-248" fill="#00684a"/><path d="M283.7591,166.317 C288.1411,176.22 272.1061,179.23 272.8641,187.096 C274.9541,189.563 281.2221,190.19 284.6791,191.359 C279.0611,195.554 269.6371,201.854 280.2631,204.893 C283.3111,206.559 282.9811,207.64 279.8291,208.924 C265.0541,213.158 272.4111,188.337 269.2321,179.774 C271.2981,177.927 271.4371,173.158 276.0951,175.259 C277.9761,171.82 277.4681,162.838 283.7591,166.317" id="Fill-250" fill="#162b22"/><path d="M386.2838,324.6661 C379.3928,292.3851 402.3258,334.5611 402.7358,301.2011 C412.6498,298.3341 409.2298,309.7711 410.8088,316.9891 C403.1158,316.9841 397.2208,317.8521 402.2898,325.9761 C392.8438,329.7341 398.5008,313.4941 386.2838,324.6661" id="Fill-252" fill="#162b22"/><path d="M325.7389,216.7686 C322.6839,216.5366 318.8839,221.8676 316.6899,216.0666 C315.0899,211.8376 308.7389,207.7926 315.4479,202.4366 C318.2729,196.3836 311.2489,187.3066 322.0489,186.6576 C330.9239,190.0146 312.8579,189.9256 320.2909,196.9766 C331.7179,197.0266 320.3869,210.0586 325.7389,216.7686" id="Fill-254" fill="#162b22"/><path d="M300.2987,369.0557 C284.9047,380.4177 286.0707,372.0707 284.4827,357.0037 C282.7307,349.8127 296.2307,355.1237 297.9047,357.6327 C305.5677,363.5207 286.2377,363.8197 300.2987,369.0557" id="Fill-256" fill="#00684a"/><path d="M256.4608,27.2183 C247.3228,28.9573 251.8008,23.3103 245.7508,20.0733 C236.3568,17.0183 240.4798,7.7043 249.0118,9.2203 C248.1028,13.0933 247.3688,16.5933 253.6318,15.1243 C258.1768,13.1383 264.8748,21.1433 258.8518,22.5543 C254.2768,22.2683 256.6598,25.3773 256.4608,27.2183" id="Fill-258" fill="#00684a"/><path d="M364.754,337.0206 C359.857,333.7416 355.262,331.1646 349.018,330.5826 C344.429,326.1426 352.588,321.6906 355.341,318.3916 C363.189,317.1236 366.745,330.2176 364.754,337.0206" id="Fill-260" fill="#00684a"/><path d="M510.1881,54.3765 C516.5791,53.3115 545.1971,54.4705 537.2721,44.4855 C534.5691,39.7925 546.9341,36.0765 546.1711,44.5875 C546.3361,47.5645 543.4091,50.7775 547.1281,53.4065 C534.8041,55.4885 522.7481,55.4965 510.1881,54.3765" id="Fill-262" fill="#00684a"/><path d="M392.7608,189.0772 C384.0188,198.2692 391.0368,179.1332 381.0138,187.2762 C379.6978,188.6642 380.2018,192.6582 376.8878,190.7112 C347.3028,184.6022 413.8228,168.0692 392.7608,189.0772" id="Fill-264" fill="#162b22"/><path d="M294.1505,117.9219 C283.4805,119.5699 285.6185,111.6739 282.3175,104.5469 C293.7055,99.1979 303.7655,106.7549 294.1505,117.9219" id="Fill-266" fill="#162b22"/><path d="M338.1436,336.8531 C330.5376,349.4261 327.1516,348.5071 319.2176,336.2031 C327.9416,339.7191 335.8616,320.5571 338.1436,336.8531" id="Fill-268" fill="#00684a"/><path d="M354.3038,232.815 C321.9218,228.533 347.6638,205.242 342.3998,221.609 C346.7958,231.644 352.6338,210.218 354.3038,232.815" id="Fill-270" fill="#00684a"/><path d="M291.39,423.7256 C301.688,421.7856 307.063,429.9056 297.861,436.3706 C293.357,448.8326 287.595,429.5546 291.39,423.7256" id="Fill-272" fill="#00684a"/><path d="M287.0638,267.3629 C284.7208,271.9079 278.1038,273.6579 277.9858,279.4589 C278.5418,274.9309 278.4508,270.2759 279.4758,265.8249 C278.1128,269.3019 276.6848,257.4139 278.2568,257.3939 C284.0458,261.0049 292.4988,258.2869 287.0638,267.3629" id="Fill-274" fill="#162b22"/><path d="M311.6739,377.6436 C299.3479,362.3906 309.8989,361.8856 302.9759,353.4186 C309.8339,345.5186 309.0029,364.9826 315.4939,367.4386 C316.4069,368.1956 313.0559,374.1106 311.6739,377.6436" id="Fill-276" fill="#00684a"/><path d="M326.2782,201.4283 C326.3442,196.9953 323.1982,197.6543 320.2892,196.9773 C318.2972,194.6513 317.1722,189.2443 322.9252,190.7403 C326.3022,196.5983 328.6002,196.3223 332.5392,189.5813 C338.5952,186.2943 345.6312,192.0603 335.9182,192.5913 C342.4142,193.2223 333.8852,199.3893 338.8612,200.5813 C334.9192,204.6163 330.4342,200.5773 326.2782,201.4283" id="Fill-278" fill="#00684a"/><path d="M278.2584,257.3941 C277.9244,257.2461 277.6144,257.3501 277.4414,257.6721 C276.6824,251.9571 270.5924,238.1791 279.9294,239.2461 C279.0384,247.3141 279.1264,247.3611 287.4744,246.9991 C289.4104,246.9151 292.4364,243.7131 292.7854,248.9921 C292.5894,258.2781 280.0944,248.2151 278.2584,257.3941" id="Fill-280" fill="#00684a"/><path d="M338.8614,200.5811 C333.8854,199.3891 342.4144,193.2221 335.9184,192.5911 C346.1204,186.2971 356.7154,201.6161 343.4274,199.7151 C342.3454,199.1501 340.4074,200.2441 338.8614,200.5811" id="Fill-282" fill="#162b22"/><path d="M282.4405,44.9898 C268.0665,53.7218 274.4715,38.9548 280.4225,33.8058 C283.3455,36.3038 294.1905,39.4508 288.0775,43.0918 C282.8965,44.3118 280.2755,35.4898 282.4405,44.9898" id="Fill-284" fill="#00684a"/><path d="M293.557,225.7203 C299.981,228.2583 302.325,231.7863 296.281,235.7093 C286.082,236.7383 284.789,230.7303 293.557,225.7203" id="Fill-286" fill="#00684a"/><path d="M328.0865,403.7945 C325.3535,407.3525 321.4265,409.9525 320.1905,414.5615 C308.9195,407.0565 320.2625,393.4945 328.0865,403.7945" id="Fill-288" fill="#00684a"/><path d="M284.3595,31.7491 C280.6975,28.0261 279.3165,22.6361 277.2135,17.9531 C288.2885,17.7241 294.0065,23.5961 284.3595,31.7491" id="Fill-290" fill="#00684a"/><path d="M306.8228,213.1407 C304.2638,219.6577 295.9178,217.8307 292.4838,223.0867 C285.9408,214.5717 301.5748,212.8487 306.8228,213.1407" id="Fill-292" fill="#00684a"/><path d="M265.9461,139.6231 C271.4681,132.2991 277.9171,143.3981 272.0301,147.0251 C266.6411,145.9821 259.6441,145.2631 265.9461,139.6231" id="Fill-294" fill="#162b22"/><path d="M386.2838,324.6661 C406.2888,312.3061 390.3558,332.6451 388.1208,340.3331 C387.5068,335.1011 386.8948,329.8841 386.2838,324.6661" id="Fill-296" fill="#00684a"/><path d="M371.234,211.7589 C375.29,209.9519 379.329,208.1019 383.442,206.4369 C386.503,209.8549 368.922,227.0639 371.234,211.7589" id="Fill-298" fill="#00684a"/><path d="M246.6942,40.1011 C246.5012,45.7041 241.7602,48.8941 238.5762,52.9161 C235.4032,47.3541 239.4732,34.7171 246.6942,40.1011" id="Fill-300" fill="#00684a"/><path d="M326.2352,387.4625 C328.9462,384.0925 332.8502,380.4075 337.5312,384.9515 C338.3972,389.1815 324.5072,396.1605 326.2352,387.4625" id="Fill-302" fill="#00684a"/><path d="M279.93,239.2457 C272.501,241.6977 274.454,231.9957 272.392,227.1507 C278.067,224.2817 277.449,235.5407 279.93,239.2457" id="Fill-304" fill="#162b22"/><path d="M324.815,282.148 C322.413,284.495 310.43,278.131 319.013,277.889 C319.908,281.077 325.764,274.334 324.815,282.148" id="Fill-306" fill="#00684a"/><path d="M551.6641,49.8839 C558.8611,46.5859 563.8621,51.1979 569.1431,54.7359 C562.8991,53.8049 554.9231,57.0769 551.6641,49.8839" id="Fill-308" fill="#00684a"/><path d="M294.1505,117.9219 C299.2935,113.3219 297.7885,107.9159 296.0205,102.4889 C303.9745,98.1559 301.3895,123.2849 294.1505,117.9219" id="Fill-310" fill="#00684a"/><path d="M273.6122,164.6661 C269.8422,160.0901 266.5172,155.9071 274.4242,153.1901 C279.2512,154.5231 278.8022,163.1111 273.6122,164.6661" id="Fill-312" fill="#00684a"/><path d="M330.3763,332.0606 C327.2483,335.0336 324.0693,337.8686 319.2193,336.2026 C321.6983,332.7066 328.5993,321.9196 330.3763,332.0606" id="Fill-314" fill="#162b22"/><path d="M309.0038,337.6739 C317.0328,337.7929 314.3638,347.2729 307.3168,346.6979 C303.7828,342.8309 305.5428,340.7639 309.0038,337.6739" id="Fill-316" fill="#00684a"/><path d="M277.7584,170.0313 C277.1884,176.2623 271.1544,174.2203 269.2354,179.7733 C267.9544,170.7513 266.1484,165.9463 277.7584,170.0313" id="Fill-318" fill="#00684a"/><path d="M279.0255,114.8863 C297.6505,114.2523 289.9745,127.5823 281.5405,117.4503 C279.6215,116.6513 278.0455,118.1423 279.0255,114.8863" id="Fill-320" fill="#00684a"/><path d="M309.3739,296.1905 C309.3109,299.6895 311.0469,303.6105 307.6209,306.0295 C303.8649,302.4875 301.6849,294.2605 309.3739,296.1905" id="Fill-322" fill="#162b22"/><path d="M263.7328,45.3965 C256.4438,46.1475 263.0388,39.2375 265.5708,38.7055 C264.9178,40.9135 264.2938,43.1585 263.7328,45.3965" id="Fill-324" fill="#144936"/><path d="M340.2564,400.0972 C335.6484,403.8062 333.7574,399.0302 329.8254,397.2642 C333.1804,394.7172 336.0544,398.8322 340.2564,400.0972" id="Fill-326" fill="#162b22"/><path d="M303.202,287.3497 C303.704,285.7657 303.673,283.2007 304.004,281.2777 C307.966,284.0877 307.063,285.1287 303.202,287.3497" id="Fill-328" fill="#162b22"/><path d="M349.4142,363.0425 C351.5642,361.2945 353.7282,360.7355 356.4192,361.5085 C354.2142,362.9665 351.6492,365.8965 349.4142,363.0425" id="Fill-330" fill="#162b22"/><path d="M336.8839,285.7652 C333.3989,291.5402 333.9399,284.3622 333.5869,281.5022 C334.6879,282.9212 335.7859,284.3432 336.8839,285.7652" id="Fill-332" fill="#00684a"/><path d="M251.567,44.1939 C252.287,44.1459 252.96,44.0379 253.316,44.8189 C252.725,44.6109 252.146,44.4019 251.567,44.1939" id="Fill-334" fill="#144936"/><path d="M272.4259,135.0767 C271.8509,134.1947 271.2759,133.3117 270.6999,132.4297 C271.4359,133.0657 274.8919,135.5077 272.4259,135.0767" id="Fill-336" fill="#162b22"/><path d="M332.1939,215.1719 C329.7709,215.0509 328.5919,214.9159 329.6809,212.3009 C330.5179,213.2579 331.3559,214.2149 332.1939,215.1719" id="Fill-338" fill="#00684a"/><path d="M499.6549,54.379 C500.7549,54.415 501.8549,54.45 502.9369,54.484 C501.8309,54.449 500.7429,54.414 499.6549,54.379" id="Fill-340" fill="#00684a"/><path d="M344.5411,403.6285 C344.6941,403.9295 344.8461,404.2305 344.9991,404.5315 C344.2531,405.0335 343.3361,403.4195 344.5411,403.6285" id="Fill-342" fill="#162b22"/><path d="M384.6143,301.5523 C383.9583,302.0763 383.4833,303.8113 382.6153,303.3243 C382.8983,302.4513 383.9493,302.1473 384.6143,301.5523" id="Fill-344" fill="#162b22"/><path d="M291.9185,444.9503 C292.2605,445.8473 292.9725,446.6893 292.3845,447.6443 C292.2255,446.7393 292.0725,445.8453 291.9185,444.9503" id="Fill-346" fill="#00684a"/><path d="M336.6871,218.9561 C335.9821,218.4581 335.2771,217.9611 334.5721,217.4651 C335.2781,217.9621 335.9821,218.4591 336.6871,218.9561" id="Fill-348" fill="#00684a"/><path d="M275.138,248.0635 C275.138,248.0635 275.185,248.2355 275.186,248.2345 C275.187,248.2325 275.138,248.0635 275.138,248.0635" id="Fill-350" fill="#162b22"/><path d="M399.7662,177.5948 C399.7002,178.2708 399.4972,178.5498 398.8082,178.2928 C398.8912,177.7168 399.1872,177.4748 399.7662,177.5948" id="Fill-352" fill="#162b22"/><path d="M295.087,142.9512 L294.657,142.3542 C295.193,141.1502 296.38,143.1502 295.087,142.9512" id="Fill-354" fill="#00684a"/><path d="M282.3155,104.5474 C282.7845,104.7394 284.1855,103.9554 285.0115,103.8074 C284.1135,104.0534 283.2145,104.3004 282.3155,104.5474" id="Fill-356" fill="#00684a"/><path d="M549.5728,53.0103 C549.4878,52.3153 549.6238,52.1093 550.3308,52.2993 C550.4098,52.9723 550.2318,53.1303 549.5728,53.0103" id="Fill-358" fill="#00684a"/><path d="M248.8272,9.4239 L248.7612,9.0869 C248.9582,9.2269 249.0462,9.2389 248.8272,9.4239" id="Fill-360" fill="#00684a"/><path d="M511.6339,359.0445 C493.9339,366.6785 487.1899,358.5705 490.2709,340.7745 C488.8179,313.4175 486.4799,280.0285 488.8479,254.0545 C490.5889,236.7945 476.4569,100.8655 497.5429,111.6125 C514.5799,131.1305 504.2289,163.6455 508.3099,188.2545 C506.8039,244.9165 511.8689,301.4145 512.7259,357.9185 C512.0339,357.8995 511.7009,358.4135 511.6339,359.0445" id="Fill-362" fill="#0f0f0f"/><path d="M490.2945,361.0279 C509.3255,356.5889 526.7115,375.6619 515.5115,391.4819 C499.6835,415.9539 466.8695,389.8609 480.9095,366.9549 C470.5645,359.4279 482.3545,359.2859 490.2945,361.0279" id="Fill-364" fill="#00684a"/><path d="M410.8082,316.9879 C407.5002,300.5149 414.9312,284.1619 396.5172,280.7739 C401.4662,271.0319 403.9262,270.9189 411.9702,277.8599 C415.7632,281.2639 428.6012,277.7449 423.4002,285.7989 C418.3082,288.2869 414.5882,315.3419 424.3712,303.4309 C429.5442,305.8809 433.2162,302.3809 437.3912,300.3569 C447.5212,296.6029 439.4652,291.8819 437.6712,284.8669 C445.3592,281.7799 446.0052,292.0869 445.7572,296.3539 C451.1652,301.5449 443.7802,304.8029 443.1942,304.6729 C433.5152,302.7449 438.2012,311.8379 434.4312,316.2129 C425.6702,317.7289 425.6432,317.7809 430.2912,324.4439 C422.3892,336.9879 428.3352,322.4719 418.0712,322.4859 C417.2352,322.4959 415.4892,320.5609 415.6652,320.0929 C419.1202,310.9539 410.8362,320.3999 410.8082,316.9879" id="Fill-366" fill="#00684a"/><path d="M480.1617,245.6695 C469.0037,251.6025 457.0207,236.4825 467.0947,257.5865 C467.9567,248.9065 476.5857,257.3445 470.8507,261.1995 C464.4387,267.9145 468.2257,276.5165 457.0067,270.5845 C453.4127,282.7325 454.5787,257.7605 446.9607,268.2165 C438.5347,264.5885 454.3637,259.7375 455.6587,256.8955 C453.1197,252.3625 455.6427,249.4665 457.6027,246.2515 C454.0267,233.6585 475.2687,243.7635 480.1617,245.6695" id="Fill-368" fill="#00684a"/><path d="M410.8082,316.9879 C410.8362,320.3999 419.1202,310.9539 415.6652,320.0929 C415.4892,320.5609 417.2352,322.4959 418.0722,322.4869 C424.0392,322.4209 424.7992,326.5669 425.3782,330.9749 C420.9462,336.1789 417.3652,327.8509 412.1792,330.5279 C403.3482,333.5559 412.6222,346.7899 404.5052,347.6289 C401.5422,343.0489 398.3322,343.0079 394.8972,347.1019 C388.4872,329.8539 388.6582,335.0979 403.7242,338.5429 C404.8492,327.6949 393.4192,315.0209 410.8082,316.9879" id="Fill-370" fill="#0f0f0f"/><path d="M453.8492,251.3209 C455.0312,254.1919 457.3392,258.3419 452.8862,259.4479 C449.0472,259.0599 440.7232,267.2529 446.9592,268.2159 C451.1852,264.1319 452.7232,265.3749 453.6552,270.7969 C455.4872,277.9429 454.4512,268.6299 465.5642,273.2829 C458.9002,283.8759 454.8572,280.0229 448.1122,274.4299 C443.2032,278.8749 439.9922,265.0659 434.8922,273.2119 C434.9522,260.2099 436.8382,256.6579 441.6592,265.9509 C446.7392,260.5349 445.3602,249.8839 453.8492,251.3209" id="Fill-372" fill="#162b22"/><path d="M488.4425,297.4507 C497.0155,331.5887 466.9725,312.5597 485.6585,303.8847 C478.6195,295.2737 471.8765,293.9327 484.3785,285.2507 C490.4615,278.6177 487.3055,288.2377 487.9115,292.7717 C486.1485,293.6617 482.2115,290.1667 482.6095,295.4167 C483.0015,300.5757 486.6505,296.3387 488.4425,297.4507" id="Fill-374" fill="#00684a"/><path d="M387.4591,234.7183 C366.9861,229.1293 388.1481,212.7663 400.2201,213.8903 C399.2351,225.3493 398.7631,225.7373 388.9541,228.7203 C387.9411,229.0293 387.9331,232.6393 387.4591,234.7183" id="Fill-376" fill="#00684a"/><path d="M400.2184,213.8892 C396.3134,212.5982 390.4214,199.2062 398.3424,202.7072 C402.3164,208.6362 426.8594,222.9082 412.5494,227.2692 C414.9884,220.3572 413.0194,217.0342 406.5894,217.2132 C405.2334,214.6342 403.9964,211.8262 400.2184,213.8892" id="Fill-378" fill="#162b22"/><path d="M512.1432,328.0274 C513.1092,322.6574 507.9812,303.1334 513.9842,308.2114 C516.1092,307.6944 518.7142,303.8564 519.5562,308.8394 C519.8302,310.4624 523.6432,315.2774 517.2582,315.3044 C516.7152,315.3074 516.1752,315.9354 515.6332,316.2724 C521.1712,322.1804 511.9122,323.6944 512.1432,328.0274" id="Fill-380" fill="#00684a"/><path d="M394.8971,347.1021 C403.5281,337.8751 405.4491,352.1261 404.4211,358.4341 C398.2561,358.4171 392.9771,353.5991 394.8971,347.1021" id="Fill-382" fill="#00684a"/><path d="M537.0191,208.4986 C543.7461,206.7636 549.6071,204.1646 554.6251,200.1286 C554.4401,208.7986 544.3761,218.7666 537.0191,208.4986" id="Fill-384" fill="#00684a"/><path d="M438.3907,200.709 C449.5047,191.459 439.8147,207.285 447.5177,204.049 C456.7487,205.148 446.3577,220.565 438.3907,200.709" id="Fill-386" fill="#00684a"/><path d="M399.254,283.0694 C407.847,282.7144 410.402,285.8854 408.658,294.7414 C403.188,295.2784 396.724,288.4714 399.254,283.0694" id="Fill-388" fill="#0f0f0f"/><path d="M408.0943,344.2779 C407.0003,337.4379 408.2883,328.0009 417.9763,330.3869 C413.4463,334.6839 414.1463,341.2679 408.0943,344.2779" id="Fill-390" fill="#162b22"/><path d="M563.5997,110.6456 C559.1267,114.6466 553.4527,113.9986 553.7437,107.4786 C558.6067,101.4966 561.4857,102.5236 563.5997,110.6456" id="Fill-392" fill="#00684a"/><path d="M435.3575,261.7003 C435.0865,268.0903 433.4015,273.6353 439.7625,277.1423 C430.5615,280.3183 425.2065,262.8523 435.3575,261.7003" id="Fill-394" fill="#00684a"/><path d="M391.859,246.3126 C388.901,237.3236 387.91,234.7256 397.587,239.7056 C396.404,242.5376 397.552,247.3886 391.859,246.3126" id="Fill-396" fill="#00684a"/><path d="M544.8741,181.1358 C549.5661,181.4218 553.0661,181.0188 555.9471,184.3488 C554.7211,191.8208 547.3651,185.7918 544.8741,181.1358" id="Fill-398" fill="#00684a"/><path d="M570.1539,118.5587 C558.8559,125.6167 562.4589,114.1667 571.9229,114.3097 C574.8219,115.5997 573.1639,123.2127 570.1539,118.5587" id="Fill-400" fill="#00684a"/><path d="M476.0372,326.4615 C471.7912,328.7575 469.9732,329.0915 466.9212,325.6135 C471.0522,322.9405 472.4812,320.5885 476.0372,326.4615" id="Fill-402" fill="#162b22"/><path d="M475.4801,301.4361 C471.5681,305.9541 468.7161,305.7071 464.0621,302.8051 C468.8431,299.3561 470.4691,293.7511 475.4801,301.4361" id="Fill-404" fill="#00684a"/><path d="M480.1617,245.6695 C476.6707,242.7665 479.4297,233.7975 484.8187,240.9275 C492.2997,244.9645 485.4177,246.7755 480.1617,245.6695" id="Fill-406" fill="#162b22"/><path d="M408.5567,196.4444 C412.4407,208.1314 393.2447,197.1274 402.1487,189.9334 C404.2727,192.0994 406.4147,194.2724 408.5567,196.4444" id="Fill-408" fill="#162b22"/><path d="M526.3629,155.8458 C520.5459,158.2538 520.4269,154.6188 517.4329,151.2538 C522.5049,148.3808 523.0869,151.6258 526.3629,155.8458" id="Fill-410" fill="#00684a"/><path d="M461.2535,190.6412 C458.7975,191.4222 454.8125,195.4782 453.6235,191.4322 C454.8445,186.0822 463.1005,183.3162 461.2535,190.6412" id="Fill-412" fill="#00684a"/><path d="M543.2452,136.046 C537.5052,140.228 536.6062,138.629 534.4532,133.091 C536.8462,128.767 539.7432,134.061 543.2452,136.046" id="Fill-414" fill="#00684a"/><path d="M523.1114,115.2735 C517.2944,110.6715 523.3824,108.7725 526.3444,105.0995 C529.1634,107.7485 523.9504,111.9265 523.1114,115.2735" id="Fill-416" fill="#00684a"/><path d="M406.5894,217.2134 C413.1504,216.9574 414.8514,220.6124 412.6054,227.2214 C406.3494,228.2524 406.4244,221.8044 406.5894,217.2134" id="Fill-418" fill="#00684a"/><path d="M461.3643,222.5464 C455.1433,230.3254 456.3233,221.5034 456.7723,216.0854 C458.1913,218.0814 459.6103,220.0774 461.3643,222.5464" id="Fill-420" fill="#00684a"/><path d="M430.2911,324.4434 C425.6441,317.7804 425.6701,317.7284 434.4321,316.2134 C432.9891,318.9244 438.0611,324.9144 430.2911,324.4434" id="Fill-422" fill="#162b22"/><path d="M446.4547,325.1495 C446.9907,320.2535 452.9327,320.8755 454.7477,324.4485 C452.0497,325.1365 449.1067,326.6825 446.4547,325.1495" id="Fill-424" fill="#00684a"/><path d="M512.4386,346.4112 C512.0376,342.1192 511.6356,337.8282 511.2316,333.5402 C511.6316,337.8332 512.0356,342.1222 512.4386,346.4112" id="Fill-426" fill="#00684a"/><path d="M408.5567,196.4444 C406.4147,194.2724 404.2727,192.0994 402.1487,189.9334 C408.6267,189.8294 408.6267,189.8294 408.5567,196.4444" id="Fill-428" fill="#00684a"/><path d="M387.2423,190.2339 C389.4443,193.2809 386.9713,196.1129 384.5523,198.0899 C382.0573,194.2659 384.2383,192.5129 387.2423,190.2339" id="Fill-430" fill="#00684a"/><path d="M405.0094,352.4268 C401.3564,351.2078 404.2834,349.2648 404.4924,347.6248 C408.5144,346.7438 405.4964,350.1658 405.0094,352.4268" id="Fill-432" fill="#162b22"/><path d="M514.4781,99.2838 C515.3821,97.1098 514.0911,89.7928 517.1701,91.6368 C516.3011,94.1218 515.4951,97.0728 514.4781,99.2838" id="Fill-434" fill="#00684a"/><path d="M487.3746,255.5982 C488.8856,257.9732 486.8736,258.8322 485.1606,260.2622 C485.8986,258.7072 486.6366,257.1532 487.3746,255.5982" id="Fill-436" fill="#162b22"/><path d="M440.2374,259.8653 C435.8724,260.6693 437.1934,258.7643 438.4134,255.6553 C439.0214,257.0583 439.6294,258.4623 440.2374,259.8653" id="Fill-438" fill="#00684a"/><path d="M490.0294,339.6602 C490.4714,339.9442 490.5684,340.3392 490.2714,340.7742 C485.1324,343.2962 484.3724,339.8672 490.0294,339.6602" id="Fill-440" fill="#00684a"/><path d="M406.5465,217.3023 C406.6785,220.0113 406.8095,222.7203 406.9425,225.4303 C405.7205,222.7753 402.8445,220.1993 406.5465,217.3023" id="Fill-442" fill="#162b22"/><path d="M514.5406,99.337 C514.6736,101.401 513.0536,102.366 511.7236,103.614 C512.3246,101.979 512.6206,99.789 514.5406,99.337" id="Fill-444" fill="#00684a"/><path d="M466.4771,253.1734 C466.8511,251.7664 467.2251,250.3604 467.5991,248.9544 C467.8141,250.9414 469.7181,254.1474 466.4771,253.1734" id="Fill-446" fill="#00684a"/><path d="M441.6622,265.9473 C439.4062,266.9183 439.3322,266.2323 439.6932,264.0523 C440.3532,264.6893 441.0072,265.3183 441.6622,265.9473" id="Fill-448" fill="#00684a"/><path d="M524.981,317.96 C524.847,318.827 524.482,318.626 523.874,318.378 C524.008,317.491 524.365,317.706 524.981,317.96" id="Fill-450" fill="#00684a"/><path d="M488.8844,327.5474 C489.2064,328.5884 489.5294,329.6294 489.8514,330.6634 C489.5294,329.6204 489.2064,328.5834 488.8844,327.5474" id="Fill-452" fill="#00684a"/><path d="M392.7608,189.0772 C392.2928,188.7252 391.8248,188.3722 391.3578,188.0202 C392.9038,187.9062 394.4418,187.2422 392.7608,189.0772" id="Fill-454" fill="#00684a"/><path d="M410.8922,227.3619 C411.4802,227.5259 412.0512,227.4789 412.6052,227.2209 C412.0342,227.2679 411.4632,227.3149 410.8922,227.3619" id="Fill-456" fill="#162b22"/><path d="M488.1632,254.2686 C488.3912,254.1966 488.6202,254.1256 488.8482,254.0546 C488.6152,254.0746 488.3832,254.0946 488.1512,254.1146 C488.1522,254.1146 488.1632,254.2686 488.1632,254.2686" id="Fill-458" fill="#162b22"/><path d="M446.6651,325.3536 C446.3511,325.5986 446.0381,325.8436 445.7241,326.0886 C446.0541,325.8256 446.3061,324.8986 446.6651,325.3536" id="Fill-460" fill="#00684a"/><path d="M511.6339,359.0445 C511.6569,358.2995 512.1679,358.0015 512.7399,357.8555 C512.3629,358.2435 511.9939,358.6405 511.6339,359.0445" id="Fill-462" fill="#00684a"/><path d="M778.6368,386.7872 C794.2218,357.1672 872.4758,198.8692 903.4838,217.2402 C871.6358,239.1022 854.2388,284.9522 830.6898,317.6762 C814.2708,331.8142 793.0388,419.9792 778.6368,386.7872" id="Fill-464" fill="#0f0f0f"/><path d="M778.6368,386.7872 C808.8758,416.6272 790.0478,448.0922 757.2118,416.6932 C743.4838,399.3552 763.3758,353.4112 778.6368,386.7872" id="Fill-466" fill="#00684a"/><path d="M720.5782,545.2466 C721.2182,545.8756 721.8582,546.5036 722.4982,547.1326 C721.8582,546.5046 721.2182,545.8756 720.5782,545.2466" id="Fill-468" fill="#00684a"/><path d="M722.3575,546.9825 C723.0925,547.0315 723.8285,547.0815 724.5655,547.1315 C723.8295,547.0825 723.0935,547.0325 722.3575,546.9825" id="Fill-470" fill="#00684a"/><path d="M434.5645,490.1519 C434.1395,524.8249 380.5435,524.8359 381.3425,489.4209 C378.5895,455.2739 435.9955,454.3609 434.5645,490.1519" id="Fill-472" fill="#00684a"/><path d="M610.5128,455.1133 C577.8878,454.5193 577.5738,404.0603 610.1348,403.5533 C642.9118,403.9763 644.8288,455.4883 610.5128,455.1133" id="Fill-474" fill="#00684a"/><path d="M341.9146,679.1045 C362.3706,679.3515 360.7446,711.1085 340.5886,710.7715 C321.0666,710.4545 322.7586,678.2285 341.9146,679.1045" id="Fill-476" fill="#00684a"/><path d="M742.3716,528.7344 C742.7056,547.3694 714.6106,546.5974 714.7806,528.6174 C714.8626,509.1784 742.2676,512.4744 742.3716,528.7344" id="Fill-478" fill="#00684a"/><path d="M325.6578,436.7794 C319.3738,440.6884 316.0688,432.3764 320.1048,428.1174 C321.4188,430.1674 322.7338,432.2184 325.6578,436.7794" id="Fill-480" fill="#00684a"/><path d="M313.5831,454.9327 C311.2881,458.4357 310.2741,460.6937 307.4431,456.3037 C309.4911,455.8577 311.5371,455.3947 313.5831,454.9327" id="Fill-482" fill="#162b22"/><path d="M303.2286,455.0513 C298.9246,451.2053 305.6786,451.2793 308.6316,451.1173 C306.9186,452.5523 305.1256,453.8703 303.2286,455.0513" id="Fill-484" fill="#162b22"/><path d="M308.5084,451.0206 C308.9614,449.8916 308.5134,446.4176 310.0884,447.9346 C309.5704,448.8456 309.1914,450.5946 308.5084,451.0206" id="Fill-486" fill="#162b22"/><path d="M536.6168,529.3052 C537.7998,539.3502 522.1798,539.8792 522.4118,530.2222 C520.9478,520.8522 536.5218,520.6962 536.6168,529.3052" id="Fill-488" fill="#00684a"/><path d="M361.567,44.5899 C374.381,49.5029 443.527,41.2089 431.604,59.2889 C420.538,64.0539 319.696,57.9289 361.567,44.5899" id="Fill-490" fill="#0f0f0f"/><path d="M379.3634,76.7574 C457.3874,94.1014 368.1104,89.6714 347.5824,90.9954 C333.7734,78.5124 375.2604,82.5804 379.3634,76.7574" id="Fill-492" fill="#0f0f0f"/><path d="M552.2789,32.9854 C542.5249,35.3474 550.1039,26.5464 542.8799,24.6354 C545.6669,13.2754 559.6749,24.2784 552.2789,32.9854" id="Fill-494" fill="#00684a"/><path d="M557.9249,30.3419 C563.3179,28.5519 570.5749,29.1409 574.0229,33.8699 C569.0649,37.0289 560.4789,35.9939 557.9249,30.3419" id="Fill-496" fill="#162b22"/><path d="M557.9249,30.3419 C562.8429,33.4459 558.5659,45.8409 554.4169,38.6529 C551.7949,34.7809 551.7439,26.3959 557.9249,30.3419" id="Fill-498" fill="#0f0f0f"/><path d="M559.6016,38.7554 C559.0066,37.9994 558.4116,37.2424 557.8156,36.4854 C560.1536,36.2614 560.6816,36.5314 559.6016,38.7554" id="Fill-500" fill="#162b22"/><path d="M321.4156,234.0391 C330.9466,226.2391 330.6066,236.7201 338.6866,235.9901 C332.9526,245.1581 327.2206,236.9111 321.4156,234.0391" id="Fill-502" fill="#0f0f0f"/><path d="M285.9808,187.2774 C285.6098,182.9464 278.8568,181.8144 283.1338,177.8824 C288.7038,171.7164 305.2948,197.4804 285.9808,187.2774" id="Fill-504" fill="#0f0f0f"/><path d="M336.0689,220.7764 C330.8229,223.4184 331.4569,223.2884 329.3209,219.9134 C330.5909,216.5044 332.7959,219.5134 336.0689,220.7764" id="Fill-506" fill="#00684a"/><path d="M294.004,330.8575 C283.379,333.3735 290.302,321.9415 291.081,316.3225 C300.626,326.1875 305.302,321.9105 294.004,330.8575" id="Fill-508" fill="#0f0f0f"/><path d="M294.004,330.8575 C296.823,325.1035 303.95,325.1785 309.054,327.5255 C307.639,332.9265 298.408,333.0255 294.004,330.8575" id="Fill-510" fill="#00684a"/><path d="M302.4337,312.9278 C306.0197,309.3638 311.2647,310.5178 315.8547,309.7588 C314.1577,316.1828 306.6837,315.8728 302.4337,312.9278" id="Fill-512" fill="#162b22"/><path d="M302.4337,312.9278 C306.2407,313.6698 311.3217,319.7048 304.8557,319.0868 C299.2307,317.6938 291.7837,312.1548 302.4337,312.9278" id="Fill-514" fill="#0f0f0f"/><path d="M325.5438,313.2027 C326.7728,318.2397 322.8958,318.4017 318.9158,317.4317 C320.4168,314.9147 322.9278,314.0887 325.5438,313.2027" id="Fill-516" fill="#162b22"/><path d="M278.399,279.3917 L279.68,280.5637 C279.32,280.1837 277.67,279.6807 278.399,279.3917" id="Fill-518" fill="#162b22"/><path d="M338.1436,336.8531 C340.2146,330.5031 358.4226,328.1311 362.6226,336.8891 C358.2266,336.9431 352.8916,338.5931 349.6396,336.6871 C337.3236,332.0091 352.6816,346.8381 342.7796,346.0681 C337.6806,346.3461 338.6506,340.4991 338.1436,336.8531" id="Fill-520" fill="#0f0f0f"/><path d="M336.8839,285.7652 C329.5309,279.0122 341.1589,281.8812 346.0909,279.7402 C343.3889,286.1602 343.0879,287.9982 336.8839,285.7652" id="Fill-522" fill="#0f0f0f"/><path d="M354.3385,299.8482 C351.3995,302.8702 349.2085,306.6882 347.3355,310.4962 C346.6075,306.8642 350.9395,292.7492 354.3385,299.8482" id="Fill-524" fill="#0f0f0f"/><path d="M341.6954,324.4464 C341.0024,321.9684 335.8624,318.2224 339.0614,316.6014 C339.8384,319.1144 344.7644,322.6264 341.6954,324.4464" id="Fill-526" fill="#00684a"/><path d="M338.3951,285.5762 C341.0361,286.9802 343.1381,287.6872 340.9011,290.6732 C340.0661,288.9732 339.2301,287.2752 338.3951,285.5762" id="Fill-528" fill="#00684a"/><path d="M283.3092,79.5147 C284.2832,71.5427 286.6492,71.2857 293.2932,71.7757 C292.3362,74.1367 290.1292,76.5897 290.8572,79.2557 C292.7862,86.9217 284.0822,85.7257 283.3092,79.5147" id="Fill-530" fill="#0f0f0f"/><path d="M265.0414,82.313 C263.3924,84.759 262.7334,82.805 261.1684,81.734 C262.6384,80.392 263.6354,81.458 265.0414,82.313" id="Fill-532" fill="#0f0f0f"/><path d="M279.0255,114.8863 C279.1335,117.8353 277.8385,117.2383 275.5785,116.4643 C276.1615,114.3053 277.0075,113.9893 279.0255,114.8863" id="Fill-534" fill="#0f0f0f"/><path d="M361.0929,355.5591 C358.9379,360.5221 356.2439,354.7511 353.4709,353.1101 C356.5689,350.5561 359.1659,351.3901 361.0929,355.5591" id="Fill-536" fill="#162b22"/><path d="M299.5811,332.9927 C303.6121,329.2267 304.8501,332.3837 307.2801,335.9717 C310.1181,342.2847 298.7661,347.0097 299.5811,332.9927" id="Fill-538" fill="#0f0f0f"/><path d="M395.3463,300.8516 C390.2643,309.2906 392.1683,305.7206 388.1383,300.6706 C391.2673,295.0266 393.9963,293.3806 395.3463,300.8516" id="Fill-540" fill="#162b22"/><path d="M402.2877,325.9752 C403.8197,334.2342 405.9937,340.9792 395.3117,336.9842 C397.7137,334.0122 402.1347,331.2652 396.5207,327.2802 C398.1847,326.5022 400.4277,326.4872 402.2877,325.9752" id="Fill-542" fill="#00684a"/><path d="M278.4952,267.043 C278.8222,266.637 279.1492,266.231 279.4752,265.825 C279.1482,266.522 279.3372,268.288 278.4952,267.043" id="Fill-544" fill="#0f0f0f"/><path d="M396.5206,327.2798 C402.1346,331.2648 397.7136,334.0118 395.3126,336.9858 C389.4366,332.4348 390.4746,330.7418 396.5206,327.2798" id="Fill-546" fill="#162b22"/><path d="M307.8912,336.4254 C307.2922,336.6914 307.2132,336.5924 307.2812,335.9714 C307.8182,335.8244 307.9872,335.8004 307.8912,336.4254" id="Fill-548" fill="#00684a"/></g></g></svg>