<svg viewBox="147.60000000000014 166.04999999999995 1180.8000000000002 1143.9" xmlns="http://www.w3.org/2000/svg" xmlns:xlink="http://www.w3.org/1999/xlink" overflow="visible" width="1180.8000000000002px" height="1143.9px"><defs><polygon id="masterspot-illustrationscalendar-path-1" points="0.669562399 0.0614 74.748 0.0614 74.748 121.7184 0.669562399 121.7184"/><polygon id="masterspot-illustrationscalendar-path-3" points="0.88141285 0.652 61.8823033 0.652 61.8823033 75.8253215 0.88141285 75.8253215"/></defs><g id="Master/Spot Illustrations/Calendar" stroke="none" stroke-width="1" fill="none" fill-rule="evenodd"><g id="Group-481" transform="translate(150.000000, 177.000000)"><path d="M361.3549,830.5665 C381.8269,835.4225 346.7949,784.6515 352.0229,821.4645 C352.5019,830.5535 352.5029,830.5535 361.3549,830.5665 M815.2879,492.7195 C814.1479,454.0535 762.4759,483.5655 781.2979,504.2415 C791.7139,518.9785 814.6499,508.6775 815.2879,492.7195 M708.8959,645.1835 C708.7249,622.1855 673.9119,620.4115 673.4389,644.6455 C674.6169,666.9725 709.8839,675.8705 708.8959,645.1835 M297.5889,806.3005 C295.6169,798.7805 302.7129,782.0655 292.2039,780.6935 C279.2709,783.2755 258.3649,774.7985 249.7419,785.6815 C252.5529,798.3715 242.1199,825.4215 255.3039,830.6095 C278.4049,828.6745 304.4569,840.6025 297.5889,806.3005 M325.2369,676.2925 C359.7589,683.4035 347.4779,656.2045 349.3779,633.1175 C343.9129,620.9585 320.1259,629.8935 308.2509,626.3365 C290.8049,627.5225 303.1899,656.7965 299.4359,668.9425 C298.8539,681.9255 317.1769,674.3055 325.2369,676.2925 M323.6469,830.5595 C359.4289,837.4885 347.4779,811.7655 346.8959,787.6025 C348.5919,777.0265 297.7239,776.9075 299.4809,786.5905 C300.8189,808.5115 290.7239,838.2895 323.6469,830.5595 M760.1919,566.2745 C762.9409,528.4265 702.3019,514.3165 696.2199,554.2535 C676.3169,609.6205 757.6319,632.4995 760.1919,566.2745 M574.4749,587.9395 C624.4739,581.0635 632.3029,504.4165 574.9459,503.5685 C533.8919,504.2925 530.6669,587.5055 574.4749,587.9395 M541.6589,664.9565 C550.2969,599.6585 454.9569,588.0915 456.5849,653.8295 C466.5999,713.2575 538.6609,740.0225 541.6589,664.9565 M602.1859,613.6945 C573.6299,623.5715 617.9169,671.8025 636.2589,644.2495 C667.0379,618.0075 615.3309,570.4395 602.1859,613.6945 M345.3899,768.2475 C348.3899,746.6335 349.3449,715.3765 349.5219,685.6385 C345.5899,669.4935 313.8089,682.8735 300.0469,679.2805 C285.8439,681.5975 254.4019,670.1235 249.3069,685.5465 C249.8259,714.1555 249.8259,742.7895 249.3919,771.3915 C263.5189,791.2445 329.8109,768.7455 356.3449,781.6985 C393.5079,787.9245 433.5129,731.5735 396.3549,705.0175 C386.2479,692.9625 358.4519,703.3785 364.3479,684.3435 C364.3509,682.4525 370.5959,679.7925 364.1869,678.8925 C343.9479,671.9725 353.6649,702.7375 351.9469,714.1445 C414.1039,703.6725 397.4929,769.4285 345.3899,768.2475 M831.9269,449.5085 C859.8409,465.4585 896.3009,479.3645 901.5539,514.3125 C921.3619,538.1575 942.3769,568.8665 945.4759,601.9145 C880.0489,575.9805 901.8999,692.1025 947.6099,632.5475 C960.2889,620.7545 949.2929,651.2355 957.3689,655.4105 C953.1709,662.6115 959.6329,667.6665 961.0559,673.7345 C961.3019,678.6615 961.3659,683.7395 968.6339,682.7895 C961.1329,685.8145 969.1099,725.0545 969.2389,735.2145 C945.9079,716.3025 918.8129,697.0345 888.5319,692.7735 C884.4029,677.4785 865.2159,675.0415 852.2549,669.0325 C834.7419,664.4055 833.4259,659.9035 850.7629,655.0605 C876.5949,638.6805 889.2419,588.8455 858.2649,571.3785 C806.4459,544.9065 783.7499,607.2985 802.6999,646.9075 C793.4259,646.9935 784.0889,646.4355 774.8889,647.3165 C728.5619,650.2555 691.2289,675.3615 654.0309,700.0705 C633.7539,723.1695 630.0779,690.1215 608.7739,703.7935 C612.5749,712.0955 624.5279,713.4875 623.0229,724.3725 C614.4689,734.3845 608.5449,706.4855 597.6959,708.3955 C585.0239,721.5455 614.1259,737.1925 610.6669,742.3095 C600.1059,741.5815 597.9059,752.1345 589.6559,755.1495 C581.8189,733.2835 558.3629,724.1235 536.2899,729.8675 C496.7829,738.1595 496.2429,792.0075 520.9619,816.4635 C513.9159,829.1685 501.7489,838.3995 491.9809,849.0255 C422.0279,892.8935 492.5649,800.6585 418.0579,808.9825 C396.3809,807.5405 396.1489,841.5335 383.0439,836.8985 C325.9599,825.9265 256.1189,836.2545 194.8979,833.1655 C162.5309,829.8625 227.6849,830.0045 240.0839,830.6645 C253.2839,828.6965 247.4079,790.9795 245.2189,780.7435 C191.7359,780.8445 138.2279,780.8805 84.7749,780.7295 C96.7459,776.2425 92.2819,768.4665 91.6259,755.5995 C105.4159,781.0035 78.3469,779.7265 138.0899,778.6465 C155.2099,770.6055 138.5749,733.3935 146.0259,718.1165 C153.8279,733.3275 135.8369,772.3345 155.0389,778.7665 C175.0209,773.4315 242.9809,789.7905 247.3119,770.1465 C249.4319,627.6625 252.2029,696.3415 149.5399,676.2995 C196.8129,675.8525 244.0749,675.8495 291.3489,676.3875 C296.7339,676.4435 297.6949,673.8185 297.6419,669.3185 C293.8399,657.0445 306.2159,628.3045 289.6309,626.2385 C253.3779,626.1115 245.3369,619.4955 249.2639,661.5555 C248.3629,616.1615 243.6809,627.1375 203.7499,625.7995 C213.1709,614.9205 238.7319,631.6255 247.0379,620.2125 C245.5749,597.9115 250.5739,589.9375 249.1629,617.2055 C252.0279,632.2845 278.8719,620.6815 290.6549,624.3405 C306.5299,619.9245 292.3509,591.3975 299.4189,578.3795 C305.4729,591.4475 290.4469,620.8335 306.8239,624.3165 C351.7529,624.6565 349.5699,630.5285 350.8759,586.2055 C357.0809,607.4725 343.3669,664.5405 356.7139,676.1325 C376.9609,679.8635 378.8759,644.1845 387.6469,630.3385 C391.6019,611.5335 407.9509,598.7105 415.9009,581.0145 C416.0239,564.0165 444.4439,582.2315 456.6219,572.6855 C481.1679,562.2435 505.2169,520.7745 478.1129,501.4715 C463.8009,490.3735 492.0369,486.4405 499.2519,486.1785 C500.2349,480.0265 504.5999,484.9875 507.0579,483.7175 C510.0209,482.1865 513.1369,480.3075 516.3319,479.9755 C535.7489,481.1055 556.5189,471.5125 574.6349,476.7345 C575.8809,477.1745 577.2129,477.3635 578.5069,477.6635 C579.3499,470.0065 588.7699,469.0065 593.9379,466.9025 C609.7419,472.1985 605.0929,454.6575 614.3379,483.6435 C629.4539,518.0375 666.8749,480.8865 656.7939,455.3195 C716.0119,452.4185 773.0739,445.6235 831.9269,449.5085" id="Fill-1" fill="#00684a"/><path d="M621.6398,1088.4473 C620.4208,1087.0123 619.4848,1085.2243 618.2098,1087.1993 C618.6398,1089.6133 619.3708,1089.8043 621.6398,1088.4473 M463.2678,1037.2633 C471.5738,1036.1883 460.1138,1027.7733 455.4308,1028.3003 C451.9548,1034.3793 456.0938,1038.6223 463.2678,1037.2633 M414.1988,935.4203 C395.0468,932.7283 405.5068,961.7793 405.7448,973.8093 C405.4618,986.2293 421.4348,986.9873 419.7678,976.8443 C409.7358,963.4623 436.1708,933.1853 414.1988,935.4203 M403.6288,1012.4533 C405.4598,1020.3503 398.2428,1037.9423 411.0088,1037.3073 C422.0338,1033.6803 453.0498,1046.1273 449.7668,1027.6613 C442.2158,1003.5813 398.0168,957.6633 403.6288,1012.4533 M194.9808,908.2683 C201.9228,878.7053 174.8768,888.1883 155.2788,886.8753 C141.7528,890.0703 151.9348,914.3823 148.8818,925.3303 C153.4888,938.1973 177.3728,928.0853 188.8788,931.2193 C199.8098,930.9773 193.3058,915.3243 194.9808,908.2683 M272.6908,931.1643 C279.8528,929.1823 295.9348,936.0713 297.2568,925.7303 C294.3188,914.6353 304.0178,891.1533 291.6128,886.8933 C279.8338,889.8063 257.0608,880.3573 251.2238,892.1633 C251.6358,914.0243 240.2348,937.3983 272.6908,931.1643 M223.8338,886.8923 C216.2008,888.7443 199.5378,881.6923 199.0028,893.3343 C202.0198,904.2223 192.2558,927.1683 204.8968,931.1773 C217.2748,928.9253 236.0538,936.1643 245.1338,926.9923 C245.2418,904.9843 256.6028,880.4363 223.8338,886.8923 M375.8898,931.1183 C382.9378,929.3623 398.2898,935.8573 399.5098,925.8013 C396.5578,914.6843 406.2648,891.1583 393.8278,886.8903 C381.9098,890.0233 356.6488,879.7243 351.9758,892.7553 C353.0848,915.3263 343.7628,937.3043 375.8898,931.1183 M347.7858,957.9563 C347.4368,919.3903 349.0438,945.1683 329.2848,935.4423 C321.0858,937.3513 302.1898,929.7253 301.3008,941.6143 C304.5638,953.5013 293.9788,978.9683 307.5248,983.2933 C331.4208,982.0863 354.2688,991.8453 347.7858,957.9563 M400.2618,958.7023 C401.0118,924.3313 387.7658,937.8573 359.6968,935.3343 C346.0578,939.4853 356.7558,965.1533 353.4608,976.9993 C353.4738,987.7013 368.4908,981.9193 375.3388,983.2573 C396.2928,985.6013 401.0588,979.1573 400.2618,958.7023 M298.0758,1012.3933 C293.7768,1006.7023 303.4118,987.6243 291.2488,987.3063 C279.7558,990.3923 255.9978,980.5403 251.1898,992.9613 C254.4028,1005.1773 243.7998,1030.9683 257.3528,1035.7293 C279.3038,1035.3423 301.7418,1041.7313 298.0758,1012.3933 M298.0438,959.9263 C300.9398,926.0983 284.8278,937.0113 258.4558,935.2723 C243.1928,937.6433 254.6368,964.3383 251.0998,975.8723 C250.3598,988.0523 266.4398,981.8643 273.9588,983.2583 C293.8828,985.5393 298.5738,979.4163 298.0438,959.9263 M399.5928,1013.0933 C397.6328,1005.0313 405.2018,986.6983 392.2458,987.2873 C380.5288,990.1553 347.1228,978.6213 354.1788,1000.3723 C361.0408,1010.4243 344.9858,1034.1863 359.5168,1037.2233 C382.4588,1035.7853 406.1188,1046.2663 399.5928,1013.0933 M143.2098,858.5993 C141.2558,850.7833 148.6458,833.1873 136.5498,833.0053 C125.1328,836.2213 100.9428,825.9623 96.6918,838.9713 C100.0968,851.4773 89.2018,877.8723 102.8398,882.8163 C125.7518,881.2393 149.7898,891.9283 143.2098,858.5993 M348.5248,1012.6783 C344.3908,1006.4283 354.1708,987.0343 340.7808,987.2753 C329.4468,990.6233 304.9548,980.0023 301.2918,993.7223 C304.7818,1005.9783 293.6018,1033.2473 307.8288,1037.2123 C330.6628,1037.0773 352.4048,1042.6193 348.5248,1012.6783 M194.5598,935.1923 C150.9978,935.4293 145.5948,926.6853 148.7968,975.5993 C155.4518,993.7203 217.8118,978.2733 238.1688,983.3463 C253.2078,981.1503 242.4198,955.0823 245.4808,943.8333 C245.4048,926.1913 207.6398,938.9603 194.5598,935.1923 M387.0208,839.4283 C393.5238,840.2503 397.3838,846.9003 400.3438,838.8853 C414.9918,810.5023 453.9978,825.4883 435.0908,857.3293 C412.1018,857.9303 400.3078,836.4893 403.6358,877.0253 C408.2018,889.6313 433.0748,879.9383 444.6828,882.5683 C459.9418,877.9083 436.2488,845.6393 460.1788,860.0303 C450.5508,863.6613 453.9148,876.0263 455.9708,881.8873 C484.2578,862.1273 504.9318,830.9823 531.9438,808.1633 C607.7018,732.2703 558.8668,807.3623 556.9368,859.1103 C543.1358,949.5463 560.8578,922.5523 434.9238,924.9473 C427.9498,914.9663 459.7248,891.5523 444.1388,886.8753 C432.5628,890.1573 405.7078,878.9943 403.5778,894.3633 C405.7178,913.9323 395.1338,935.5573 424.1698,931.2153 C517.9448,936.8023 599.9918,905.2203 500.8568,1019.1643 C456.3528,1079.5623 525.4518,1001.0203 538.2438,984.1663 C554.3098,987.6413 534.3918,1043.7223 550.3658,1062.8573 C564.0488,1044.6453 527.2898,930.1103 593.5148,937.5943 C610.6848,943.9123 661.6358,936.8023 665.4108,954.2173 C660.8798,986.3633 635.1658,1073.1563 652.2718,1094.5123 C661.7358,1095.0923 662.8888,935.4413 685.0878,950.0123 C699.2168,956.9593 786.4478,956.3503 771.9888,975.1503 C743.6708,1017.1803 713.2918,1057.7333 680.2498,1096.1663 C677.5738,1099.3563 680.7278,1100.1053 681.3548,1101.9523 C676.6598,1103.7503 672.4588,1106.2943 667.4238,1101.3263 C659.5618,1097.1703 647.9428,1097.2843 639.4728,1093.2973 C634.7188,1091.4373 630.2378,1089.1863 625.1398,1091.5683 C614.0988,1093.7143 608.6358,1079.7753 596.4518,1081.6753 C578.9988,1085.7893 564.4928,1064.9303 548.6928,1073.4463 C536.7548,1070.7643 525.9278,1061.7283 512.1798,1062.7583 C499.4108,1063.7243 489.2948,1050.9213 476.9658,1053.5903 C480.7038,1045.9343 480.6918,1045.9673 472.5468,1043.0533 C451.7048,1026.2933 448.1658,1064.8953 460.8788,1056.3763 C463.8718,1054.5063 468.6498,1055.5013 472.6148,1055.1923 C458.2738,1063.0583 443.6198,1071.2103 427.0878,1072.9803 C438.6978,1061.2043 457.4398,1066.3243 451.7648,1045.0393 C451.2878,1041.0173 449.5398,1039.7273 445.8148,1039.7533 C433.9158,1043.0753 407.3568,1032.2283 403.5998,1046.2023 C405.7738,1057.0723 396.8568,1076.4493 413.8828,1075.6233 C397.7718,1083.4923 378.3158,1084.2973 360.8618,1082.1413 C359.3738,1070.0483 384.2028,1083.8693 392.9238,1077.3433 C403.0948,1078.0983 403.2278,1038.0943 393.6468,1039.7493 C356.9778,1036.6833 351.3828,1041.7373 352.0918,1078.1723 C342.6088,1075.4913 344.1278,1073.5053 347.6298,1065.9413 C354.4068,1029.4113 333.9198,1041.7163 307.9018,1039.7313 C293.5918,1043.4863 304.8428,1069.8833 301.6438,1081.8343 C291.2608,1079.2483 299.7068,1056.7873 297.3448,1046.8293 C294.8198,1031.8633 267.3288,1043.1753 255.5978,1039.7553 C252.3548,1039.7423 250.6958,1040.2603 250.9048,1044.3893 C254.9568,1088.1373 249.1868,1078.2523 214.2628,1066.7193 C240.4888,1062.8743 248.0208,1087.5523 245.5338,1046.4893 C245.1318,1033.8653 225.4288,1041.9993 217.0468,1039.7693 C199.4018,1039.7693 199.4048,1039.7713 198.9798,1056.8893 C186.3238,1058.4913 207.7288,1033.6733 178.4888,1039.8493 C148.3488,1032.8133 225.6888,1036.0403 240.1858,1035.7733 C252.2718,1029.8323 242.3028,1006.4463 245.5618,994.4303 C235.6338,977.1403 178.5628,992.2803 156.7678,987.2473 C143.8698,986.2333 150.4568,1002.5513 148.9808,1010.3993 C137.3048,1001.2593 153.5758,984.7083 133.7798,987.3883 C151.2668,981.7523 142.9058,964.6793 144.8178,942.4933 C142.5108,922.5543 107.1808,947.7393 106.2638,930.9853 C117.3098,928.0313 141.0318,938.3233 144.7728,925.0623 C142.7518,913.0973 149.0078,896.0163 141.2568,886.5383 C106.2178,884.9463 84.9808,878.1743 103.1368,922.2613 C77.6028,898.1423 105.7068,842.1873 86.1098,832.9433 C82.9198,832.9963 83.7378,830.0763 86.0248,829.3703 C100.9438,823.3923 89.0578,795.0403 92.5948,781.0373 C111.2888,809.8073 68.9548,836.5013 138.1878,828.8173 C150.3968,821.9233 132.0198,781.3133 149.1518,780.7203 C151.7228,831.3573 134.3028,824.0543 182.5908,832.7483 C172.8158,835.5673 150.6018,826.4203 148.8228,839.7143 C152.3378,851.9533 141.0778,878.9283 155.5318,882.8353 C221.7778,890.6833 180.7538,861.0903 199.2358,832.9083 C200.6458,875.2533 186.2958,887.5163 238.3908,882.8563 C254.3188,877.8353 241.5088,847.0343 245.2888,832.8913 C264.2498,833.3443 237.1828,882.0153 259.5408,882.8983 C310.6398,887.5873 295.2548,873.8243 297.1848,833.1903 C312.1368,836.2403 289.1518,880.0093 308.4558,882.8573 C360.3208,887.5143 346.2648,875.2463 347.5688,832.9013 C366.2088,833.2963 340.3668,880.4413 360.6808,882.8313 C385.2528,883.2483 405.3078,886.1043 399.5288,855.2553 C401.4948,844.8023 385.8538,849.7473 387.0208,839.4283" id="Fill-3" fill="#144936"/><path d="M556.4005,945.2989 C558.4995,942.3199 567.2955,939.2489 563.3575,935.9059 C556.6005,933.7579 551.1355,939.5619 556.4005,945.2989 M822.1285,974.8989 C811.9065,978.7729 831.7165,993.1899 834.3415,1000.0089 C841.3025,1007.0549 841.5825,991.5559 844.9175,988.5839 C852.9465,976.0339 829.6415,978.1439 822.1285,974.8989 M859.7165,983.5009 C834.2045,1004.3989 856.0655,1029.0829 872.1745,1047.8969 C875.4115,1052.3609 877.6155,1051.0439 879.9245,1047.7769 C915.7025,993.9519 933.1465,997.4919 859.7165,983.5009 M1014.6575,1084.1449 C1012.7985,1132.8379 1062.2945,1042.4639 1077.1895,1030.3599 C1080.3985,1026.3399 1079.3055,1025.2999 1074.9305,1024.6969 C999.5485,1007.6439 1023.8365,1021.6519 1014.6575,1084.1449 M680.7075,934.4069 C702.7295,949.6229 747.2225,945.2319 776.4635,955.3599 C790.4765,953.8839 760.8195,929.2029 756.7155,920.3689 C694.9675,846.1339 709.7025,835.0889 680.7075,934.4069 M666.0465,936.7129 C679.3455,912.2379 692.1725,870.0589 694.4305,841.7749 C684.5955,833.1589 668.5245,792.6699 656.9225,801.4069 C595.3215,937.7369 527.9105,926.6239 666.0465,936.7129 M1005.5075,1002.0519 C1011.0715,1002.2209 1011.8575,1000.6529 1013.6855,992.3109 C1021.1255,952.7539 1034.0335,914.5409 1055.5235,880.2869 C1067.7435,864.2149 1036.4335,860.6919 1027.9175,851.3759 C1005.2445,830.6309 995.2645,893.7269 981.3855,906.7909 C943.5865,985.4829 890.7045,986.8329 1005.5075,1002.0519 M1082.1585,1015.3639 C1109.8445,999.7489 1121.5235,958.6579 1140.2995,932.4469 C1146.5755,921.9849 1147.0495,921.7319 1136.8185,915.7719 C1114.7895,907.8559 1087.6955,877.7099 1066.8935,882.3529 C1044.5735,918.5459 1030.0485,957.9899 1023.3545,999.9029 C1027.6845,1014.3919 1067.3485,1009.0569 1082.1585,1015.3639 M872.0805,749.2599 C859.9375,738.3169 801.4705,692.2439 789.8555,706.4119 C761.0185,747.6269 716.4535,796.6489 714.3855,846.1959 C738.3955,876.2169 761.9395,906.6039 786.2825,936.3479 C796.4305,950.6909 803.8485,919.0929 809.5655,912.5219 C828.9215,874.2879 846.7095,835.4759 859.7155,794.5709 C891.8145,767.4969 811.3225,933.4459 802.7885,943.3719 C789.1355,967.8199 830.6915,963.1139 844.4375,969.0139 C863.0205,971.0749 869.7475,915.7169 886.7875,902.6949 C908.2515,898.8469 866.5625,953.4629 864.3385,965.7979 C861.1095,972.2219 861.4625,973.1189 868.3265,974.6379 C885.8475,974.9059 911.3075,991.7209 925.2415,980.5049 C953.8205,934.5979 982.7045,888.7209 1005.9985,839.8359 C1010.4725,831.2079 994.6505,831.8789 990.4555,826.2569 C980.5065,822.4289 968.4255,803.2769 957.9515,812.8589 C941.1345,827.4339 912.7655,891.9119 896.1005,889.9539 C894.4475,867.9689 965.9555,807.6209 948.1835,797.8009 C933.1995,791.9179 887.6435,745.2859 879.0265,757.2589 C871.6435,802.6809 858.7455,781.8909 872.0805,749.2599 M681.3545,1101.9519 C672.8465,1090.5779 800.1815,965.7919 767.8575,964.3229 C645.7195,943.4909 679.9935,926.9389 656.3825,1081.2569 C654.9755,1085.7669 659.9575,1094.4969 652.2845,1094.5119 C639.0605,1091.1169 650.0595,1065.4109 648.4825,1054.3619 C653.3245,1020.8999 656.4865,986.9149 665.4045,954.2239 C667.7485,941.9089 648.2935,946.4969 640.8035,943.6169 C615.1505,944.3629 577.8105,922.7609 563.1285,952.0279 C536.6645,978.0339 563.6695,1045.5629 550.3625,1062.8649 C524.1835,988.8099 578.9395,946.9539 495.7825,1029.1629 C505.1605,1000.3609 567.7115,960.9079 538.6875,932.8389 C500.5095,932.4849 462.3425,931.5559 424.1705,931.2179 C403.6195,931.0359 403.6145,931.3949 403.6165,911.0519 C405.1835,903.3609 398.5835,886.6479 410.7655,886.8249 C472.1795,885.4289 440.7675,887.3849 434.9215,924.9439 C468.4655,928.8919 503.5665,923.9759 537.6035,924.9309 C556.0675,929.7709 554.9125,840.8109 563.4715,823.4179 C564.8035,799.3369 593.4045,726.5459 579.2845,795.2729 C547.6425,933.9319 542.4485,986.4489 631.9065,828.4309 C638.5885,813.5129 657.7275,799.2969 650.0315,781.5539 C643.6205,769.7829 601.4875,714.7339 629.3295,728.2979 C620.8785,729.6979 628.0955,742.5469 633.2285,736.0329 C651.5155,762.0329 659.9755,790.7989 671.3205,745.1369 C679.1705,737.2189 686.4105,653.5349 695.5895,684.4609 C693.5575,748.8279 640.5885,771.9149 697.5325,824.8909 C702.4215,830.2739 703.8375,829.6379 706.8315,823.0809 C725.0515,778.4579 751.5415,737.8969 782.8075,701.3419 C792.9765,684.8509 739.1795,676.9469 727.9055,667.9919 C702.2985,638.2029 794.8835,703.8569 801.5365,681.7949 C809.2385,673.7539 827.6925,649.7329 837.8245,663.7149 C784.2255,699.7899 807.6715,696.0199 849.8755,721.9769 C884.8165,752.4249 876.2285,706.5789 879.9265,682.4349 C901.6095,694.3629 877.8595,726.8729 884.2585,743.7599 C905.0255,760.2689 928.6825,772.9329 950.4175,788.1369 C967.7035,802.9469 985.1335,765.8179 997.0605,754.7279 C1031.5945,757.3789 959.8835,789.4069 973.2635,803.9789 C1033.7095,849.8359 1002.6935,814.9829 1038.6415,785.5229 C1029.4455,837.3149 1000.0115,827.5559 1060.2335,861.3249 C1072.5365,866.4719 1079.2975,843.7589 1087.5425,836.8189 C1091.5365,830.5559 1095.5795,838.8039 1098.9735,835.5549 C1093.1965,852.8619 1060.3555,868.8179 1091.8795,879.0659 C1109.7975,889.4619 1127.7215,899.8529 1145.6005,910.3199 C1153.4285,915.9549 1155.7365,898.6409 1162.1135,900.3859 C1168.8625,904.8209 1154.3225,916.7639 1164.0125,920.8029 C1168.8255,922.5239 1168.8585,927.2219 1169.4175,931.5519 C1160.2495,931.5829 1154.9825,922.1559 1150.2135,933.5399 C1134.2585,959.7199 1118.3915,985.9539 1102.5535,1012.2059 C1093.0745,1026.8139 1141.9945,1015.1389 1131.6945,1029.2789 C1117.6665,1035.4839 1098.0835,1022.5079 1087.7765,1032.4329 C1065.3355,1057.7549 1043.9735,1101.9019 1013.2505,1111.6979 C977.8445,1021.6109 1065.1955,1019.4839 935.8245,999.1389 C911.1115,999.8889 903.4645,1039.2449 886.3405,1054.9669 C875.0225,1067.5729 953.8535,1130.1759 906.8915,1110.9299 C896.6475,1103.8359 881.3535,1067.5349 869.7585,1077.4529 C860.0075,1096.6579 809.3265,1142.5599 843.6935,1095.6639 C871.1115,1064.5369 870.3415,1057.9959 838.9425,1031.2689 C827.2065,1054.0949 826.0285,1080.3629 823.5305,1105.4309 C824.4425,1117.4039 808.6515,1114.8429 813.6925,1104.3609 C816.2805,1036.0699 854.4165,1030.4509 796.2105,971.7709 C785.6925,960.6599 780.0065,986.7119 773.4245,992.3129 C744.2255,1027.3469 719.6945,1081.6909 681.3545,1101.9519" id="Fill-5" fill="#162b22"/><path d="M727.1769,172.1016 C748.5949,176.6246 738.0599,153.8186 724.1219,153.5386 C704.2639,157.4366 700.8049,180.0536 727.1769,172.1016 M628.0769,173.3426 C656.3899,178.9066 649.7389,157.1566 631.0019,153.6316 C616.1319,154.1006 605.8429,180.2776 628.0769,173.3426 M449.4409,175.2426 C474.1379,180.2306 467.0659,156.6926 450.4209,153.3656 C432.9479,154.2526 424.0689,181.3726 449.4409,175.2426 M541.2809,174.6116 C565.4059,180.6226 561.9149,159.4846 544.6309,153.5286 C528.7679,151.7186 514.7259,179.8016 541.2809,174.6116 M154.1679,523.4246 C171.0059,534.1836 153.7669,504.1086 165.3739,501.4836 C173.0929,497.9276 161.7709,488.2516 160.4459,482.7656 C149.1439,466.3766 143.8499,523.2386 154.1679,523.4246 M831.9269,449.5086 C802.4529,443.7426 836.5159,260.6636 817.6329,224.0456 C813.0779,196.0106 762.8099,167.9296 746.9269,199.3916 C742.3869,207.7686 731.8689,220.4736 721.1339,218.0286 C720.8099,205.4956 735.3089,201.3766 737.5239,189.6126 C713.2939,188.5496 688.9599,189.3116 664.6939,188.8866 C657.0069,187.7216 656.7549,197.6926 652.9369,202.4806 C649.4079,209.6626 634.1289,225.8646 627.1529,216.8096 C626.2929,213.6976 624.4739,209.7286 630.9309,207.3996 C669.6599,178.2336 602.9399,194.1646 585.1989,189.6506 C562.6839,185.5666 565.9169,214.2266 546.3849,218.4876 C532.0919,220.8506 541.1149,206.5836 548.4439,202.5556 C567.7649,179.3726 502.7209,194.4196 486.6919,190.2676 C467.8319,190.1926 469.0309,223.2586 446.5609,218.0986 C440.5509,207.6326 476.4169,191.7596 454.0979,191.2976 C419.9889,194.1666 369.6229,177.1356 356.1649,220.1056 C342.6479,262.3976 351.7239,308.0296 349.5129,351.7176 C349.3989,364.8546 348.8709,365.0806 361.6869,370.5386 C463.7409,411.4806 466.4639,547.1596 438.7599,481.7946 C419.5569,360.3606 207.5109,341.6466 252.0439,403.8476 C225.1149,421.0356 253.5899,356.0906 201.9609,402.0696 C197.7859,405.1436 193.2459,407.6826 194.8029,414.1316 C194.5619,415.4476 188.3259,415.6096 187.5399,415.2246 C181.0199,422.6766 176.8299,431.9656 172.2009,440.1786 C162.6299,445.1556 158.7909,458.0076 159.0699,467.8346 C159.0579,469.8666 153.6109,471.2996 158.1039,473.5716 C164.5089,472.3486 164.0839,465.8416 166.9289,474.8706 C177.7939,479.8776 160.5029,499.5606 176.9799,495.2376 C184.3279,506.2746 187.0639,491.4346 193.8299,489.4686 C200.5449,488.5906 196.2189,480.6586 201.4159,479.6626 C205.6119,478.0126 209.0729,477.5926 204.6569,472.8556 C207.9809,475.0106 205.7549,477.3866 205.1819,479.9296 C200.1309,486.9846 206.2259,496.4516 197.2989,498.8456 C186.2349,492.6636 197.3369,506.9776 187.2439,505.7866 C183.0809,507.3806 157.5039,518.2746 169.4909,527.7526 C179.6289,542.3076 144.9519,528.3376 150.1019,538.9636 C158.9259,569.9116 171.2069,596.2136 193.3139,621.6396 C202.4629,645.4336 165.3129,587.6256 109.1899,603.5566 C83.5939,601.9866 65.3499,619.5706 44.6409,630.0016 C43.7019,611.4176 69.8649,603.2096 83.3979,594.4676 C90.1409,590.7716 101.5169,594.3306 104.8889,587.1526 C106.8599,585.5496 110.5139,588.8256 111.8499,589.8186 C147.8849,585.4186 183.1789,615.9236 139.4179,563.9156 C129.7079,559.7506 113.7129,555.3836 105.9959,563.3786 C110.6639,563.0566 101.5779,571.3676 109.5879,569.1696 C109.8429,569.0996 110.7699,571.4836 111.3829,572.7236 C85.4249,584.3376 112.2549,547.2216 68.8159,574.6946 C44.1829,585.5476 -19.3621,644.4136 31.2619,657.1226 C77.7309,654.2486 118.8899,623.1246 166.3719,624.6186 C222.0389,638.1966 143.5629,637.9356 123.9149,645.1396 C-35.2711,717.5706 -36.7431,601.2066 94.5829,552.2436 C106.0489,542.8036 142.1139,558.6496 139.8009,544.6296 C121.6459,470.5906 165.8179,389.5076 238.6419,365.8786 C241.2339,364.6476 250.0349,361.2896 243.7349,359.1826 C199.7809,339.9746 166.0899,301.4976 140.8179,261.7256 C114.9409,185.5196 235.4409,222.9556 263.1659,253.0436 C273.6049,259.9176 349.0349,336.5706 307.2179,328.0316 C303.9589,323.6926 296.6549,325.5686 297.7979,331.1726 C301.5089,328.1846 295.9289,326.9176 293.2119,326.7216 C315.0639,314.0876 213.6239,234.5676 193.9929,235.0516 C180.1349,225.3196 133.1259,234.8466 154.2809,256.1096 C182.2039,293.4066 214.2909,336.3516 260.4179,349.1396 C260.1549,359.3626 260.1319,359.1636 269.0529,357.6966 C287.6369,354.6366 306.2029,355.2306 324.7069,358.5706 C335.0519,359.7646 339.1829,362.5236 337.9359,349.6416 C338.8839,285.7476 315.2839,167.3446 412.8219,175.3846 C427.7499,175.3016 419.9049,146.5736 441.5819,141.5376 C481.2979,132.6876 473.6459,172.7496 484.7509,174.9056 C495.0649,174.3736 511.0319,182.3976 514.5589,167.6466 C516.9209,135.1386 564.4719,131.0356 571.3449,162.9666 C571.4429,176.2686 578.4879,173.7136 589.2149,173.8606 C600.6379,173.6306 600.2869,173.5026 604.2049,162.5936 C611.2039,130.7826 659.0759,134.5986 660.5289,167.0176 C661.5169,177.6796 676.9609,171.6176 684.4029,173.5586 C693.8929,173.6546 694.0619,173.4486 696.5689,163.6756 C704.1349,137.2446 737.1299,130.7806 751.3739,156.8306 C755.1119,168.6416 753.5289,174.6176 768.6739,172.9006 C824.8559,171.3786 841.3489,235.1006 837.0919,280.4716 C835.1349,336.1446 843.8189,395.7796 831.9269,449.5086" id="Fill-7" fill="#0f0f0f"/><path d="M683.3851,1103.6515 C725.7591,1067.3005 754.8171,1017.8315 786.2561,972.2915 C801.1061,961.4685 818.1091,1006.7415 830.0131,1016.2325 C832.9311,1040.5985 813.1201,1064.3475 815.2511,1090.0005 C816.2201,1097.0245 808.4321,1110.1725 816.4941,1113.4245 C832.0151,1104.4545 822.8941,1069.6405 830.6861,1052.3095 C838.5051,1013.8325 851.0001,1043.9545 864.7281,1061.0855 C865.8491,1074.2815 849.6991,1084.4685 843.7021,1095.6665 C831.7881,1124.7035 804.0001,1119.1585 778.4181,1115.4365 C766.9291,1118.3425 754.4481,1112.3985 743.5651,1117.0895 C738.2001,1120.4325 732.0331,1119.1875 729.1981,1116.2785 C715.7421,1107.3915 697.9991,1112.9115 683.3851,1103.6515" id="Fill-9" fill="#144936"/><path d="M832.2736,1116.6475 C852.0756,1114.6855 863.1546,1067.7125 878.9946,1077.5625 C890.3596,1086.4865 909.0146,1127.5135 922.7066,1110.7855 C873.4396,1054.6655 880.5196,1062.6015 921.1716,1004.5705 C941.5586,989.4645 975.8066,1012.8955 1000.7456,1012.3145 C1021.1386,1020.7475 996.6016,1064.2785 1007.0006,1084.5165 C1002.7676,1096.5435 1019.0386,1113.9715 1004.5246,1113.4935 C970.4886,1124.5535 935.1886,1109.9375 901.5806,1121.1365 C893.2116,1125.2645 882.7476,1117.1555 874.7756,1121.7285 C865.6936,1112.7915 853.5436,1124.7395 843.8246,1117.1265 C841.3616,1115.1965 836.1966,1116.7135 832.2736,1116.6475" id="Fill-11" fill="#144936"/><path d="M877.4039,473.9464 C856.1639,464.8254 879.9809,453.8714 881.5919,437.4474 C889.4009,413.3464 898.4259,389.3564 915.9219,370.9094 C974.1119,290.8234 1110.8579,338.6384 1020.0779,431.1484 C958.5289,505.2624 1121.3609,474.0484 1044.8539,569.5094 C1090.4749,555.9894 1189.8039,595.9674 1125.0199,644.4994 C1111.8559,656.0024 956.0359,696.9764 961.0569,673.7424 C1244.6889,644.8034 1128.0219,543.4264 998.5349,593.2684 C984.3249,597.3634 944.7519,628.9714 945.2329,601.4234 C948.9999,599.2304 979.0149,587.0784 971.7529,582.9424 C966.7849,580.0794 968.7989,578.2444 972.9089,575.8234 C978.0389,579.6604 972.3849,587.8964 979.8009,584.1584 C1002.6769,576.7404 1023.8709,566.2674 1041.0609,549.0424 C1075.7279,517.2244 1028.5659,502.5794 1007.0349,486.9804 C969.2739,459.2564 1015.3719,420.4974 1032.0359,394.4814 C1060.9529,340.8914 976.9099,327.6564 947.6589,358.8494 C905.2869,384.4344 903.1879,436.4074 877.4039,473.9464" id="Fill-13" fill="#0f0f0f"/><path d="M1161.1056,899.6222 C1154.9796,902.4972 1153.0916,914.7442 1145.6016,910.3212 C1123.7876,897.7122 1102.1846,884.7092 1080.1496,872.4932 C1069.4406,861.1182 1097.7426,848.3692 1098.9736,835.5552 C1095.5796,838.8042 1091.5366,830.5562 1087.5396,836.8142 C1064.2636,877.3802 1055.6036,856.6452 1024.5106,838.3742 C1010.7956,830.2612 1056.5566,782.2842 1032.5186,787.5532 C1023.2646,797.5612 1021.3726,826.8892 1007.8306,826.9812 C999.2826,816.9612 965.0426,809.1122 973.1366,794.7562 C1008.5336,757.7832 1005.5036,750.7182 1045.8786,787.1192 C1088.5196,819.6962 1134.0096,854.2852 1161.1056,899.6222" id="Fill-15" fill="#144936"/><path d="M1022.0773,1112.1641 C1048.8523,1087.5751 1069.0253,1046.6981 1096.9533,1028.4381 C1108.3213,1031.5191 1120.1353,1031.1681 1131.6953,1029.2791 C1121.4033,1053.0501 1120.7173,1080.2171 1098.4813,1097.5721 C1076.2813,1111.1751 1047.4073,1112.1291 1022.0773,1112.1641" id="Fill-17" fill="#144936"/><g id="Group-21" transform="translate(1101.000000, 902.350000)"><mask id="masterspot-illustrationscalendar-mask-2" fill="#fff"><use xlink:href="#masterspot-illustrationscalendar-path-1"/></mask><g id="Clip-20"/><path d="M33.3507,121.7184 C25.7477,117.4794 -4.8773,121.3004 1.5497,109.8604 C15.5877,95.6874 44.4137,17.6234 61.9007,27.9574 C70.7417,32.8774 69.5007,21.0914 63.0127,18.4524 C55.1917,14.6984 63.2877,6.3704 63.1757,0.0614 C87.3677,31.8714 69.0107,68.2294 50.1517,97.1584 C48.6087,102.5884 47.9367,106.2284 41.3867,102.8634 C35.6487,111.6994 50.8477,108.4504 33.3507,121.7184" id="Fill-19" fill="#144936" mask="url(#masterspot-illustrationscalendar-mask-2)"/></g><path d="M144.777,732.7667 C141.3,745.7867 153.259,774.2657 138.089,778.6537 C106.827,777.6947 85.597,788.0667 97.417,745.9357 C104.824,728.1207 128.049,732.9267 144.777,732.7667" id="Fill-22" fill="#162b22"/><path d="M123.6342,395.0987 C123.8912,379.4377 98.9952,379.4387 97.0982,395.5957 C97.9362,412.8757 122.4012,412.8337 123.6342,395.0987 M110.1142,367.5297 C151.9802,367.5687 144.0332,424.0057 113.1232,424.9397 C78.2492,426.9107 71.9882,366.1307 110.1142,367.5297" id="Fill-24" fill="#0f0f0f"/><g id="Group-28" transform="translate(555.000000, 0.350000)"><mask id="masterspot-illustrationscalendar-mask-4" fill="#fff"><use xlink:href="#masterspot-illustrationscalendar-path-3"/></mask><g id="Clip-27"/><path d="M43.8927,1.2838 C53.0627,-1.7242 70.7447,6.6178 56.5777,13.2868 C40.2757,14.7968 29.7377,11.7508 43.7377,30.0528 C56.2947,54.6488 18.1237,40.4658 18.1487,51.4278 C19.8337,58.8328 31.3587,69.5398 22.6297,75.4898 C12.7957,80.6528 -21.9733,24.3988 24.4707,32.5188 C35.8157,22.3708 -3.6043,0.4598 43.8927,1.2838" id="Fill-26" fill="#0f0f0f" mask="url(#masterspot-illustrationscalendar-mask-4)"/></g><path d="M103.1366,922.2618 C85.0386,878.2858 106.1016,884.8678 141.2566,886.5408 C148.9966,895.9958 142.7656,913.1268 144.7736,925.0578 C144.5676,935.7748 100.9856,934.7708 103.1366,922.2618" id="Fill-29" fill="#162b22"/><path d="M251.4367,1076.7081 C248.3887,1032.6091 250.4997,1039.6591 291.0647,1039.7231 C296.3927,1039.6151 297.4367,1042.2851 297.3487,1046.8271 C304.3967,1083.8901 282.9187,1092.5391 251.4367,1076.7081" id="Fill-31" fill="#162b22"/><path d="M148.9816,1010.3995 C140.9856,977.1005 173.6666,989.3715 195.0026,987.3515 C194.5506,1015.5655 204.4796,1044.9115 165.9426,1034.8675 C161.2926,1024.6445 153.7986,1020.4685 148.9816,1010.3995" id="Fill-33" fill="#162b22"/><path d="M301.6488,1081.836 C299.4588,1036.23 297.6928,1038.163 343.2148,1039.718 C352.4628,1040.648 349.2428,1071.028 341.9848,1074.888 C337.8728,1082.325 324.5288,1079.337 316.1978,1082.643 C310.7318,1073.087 308.1288,1084.684 301.6488,1081.836" id="Fill-35" fill="#162b22"/><path d="M352.0849,1078.1661 C354.5619,1054.9131 348.6219,1034.8751 379.1019,1039.8191 C385.6459,1040.9841 400.0979,1035.5831 399.6409,1046.0171 C403.2329,1074.6561 395.1279,1084.5281 365.7019,1077.1201 C358.7549,1074.1681 358.8319,1089.8071 352.0849,1078.1661" id="Fill-37" fill="#162b22"/><path d="M267.3263,337.4093 C247.9713,322.8823 233.3593,300.1263 211.0133,287.9283 C206.1443,285.5303 204.8233,278.1133 197.7723,278.9793 C197.2153,279.0473 195.5913,276.1493 195.7693,274.8023 C209.4453,263.0693 228.3693,286.6843 241.8393,292.0943 C248.8143,294.6423 253.1353,306.7393 260.0943,301.8073 C263.7623,312.4713 271.5543,318.9523 281.5423,323.1453 C287.3883,335.9773 275.2123,343.1803 267.3263,337.4093" id="Fill-39" fill="#0f0f0f"/><path d="M940.2452,285.1309 C909.0782,251.0149 918.1952,287.8609 896.8352,280.6559 C892.1502,274.3469 900.7732,270.6769 904.7272,267.4279 C925.3132,257.6809 901.8952,250.9159 902.5892,236.4279 C913.8862,234.1159 918.5622,254.6299 927.3052,248.7739 C947.4582,227.4049 966.7062,238.3299 936.6502,256.3139 C925.7702,263.4919 962.3802,279.8069 940.2452,285.1309" id="Fill-41" fill="#0f0f0f"/><path d="M413.8827,1075.6231 C396.8537,1076.4581 405.7747,1057.0651 403.6007,1046.2071 C399.5557,1036.0321 453.2547,1036.5831 451.7677,1045.0351 C453.5407,1059.9441 451.8617,1062.0701 436.7607,1066.0701 C429.6837,1069.6121 422.9777,1077.6041 413.8827,1075.6231" id="Fill-43" fill="#162b22"/><path d="M109.379,939.0235 C117.227,934.4325 144.149,929.7335 144.82,942.4915 C149.961,1013.4205 124.015,983.4325 109.379,939.0235" id="Fill-45" fill="#162b22"/><path d="M198.7084,1058.9464 C194.5884,1030.7294 220.3154,1042.0164 238.8524,1039.7344 C251.3154,1040.1404 243.2524,1059.0584 245.4304,1067.2564 C245.4304,1072.4644 242.1294,1073.7124 238.8374,1070.9964 C225.8034,1062.4634 211.1864,1069.5894 198.7084,1058.9464" id="Fill-47" fill="#162b22"/><path d="M186.4894,638.1964 C202.8364,624.9374 192.1944,665.6164 194.8804,676.0374 C137.0594,680.1654 152.8784,670.9614 186.4894,638.1964" id="Fill-49" fill="#162b22"/><path d="M92.589,781.0352 C89.421,797.9002 101.412,823.9922 83.401,831.9142 C101.75,834.5922 89.364,862.9642 92.558,876.7782 C83.689,894.4812 71.178,773.6312 92.589,781.0352" id="Fill-51" fill="#162b22"/><path d="M145.1803,718.127 C145.0453,721.518 144.9093,724.908 144.7753,728.299 C134.2353,725.756 101.9983,736.44 111.4723,718.792 C132.9853,691.566 149.3093,667.819 145.1803,718.127" id="Fill-53" fill="#162b22"/><path d="M226.9303,298.9727 C248.0653,313.5177 228.8613,308.3827 234.1793,325.4207 C231.9943,318.5227 222.6753,323.2917 224.4523,331.8127 C220.2993,327.9277 213.0343,327.5147 211.8823,320.3857 C223.1903,319.5007 218.2563,304.3687 226.9303,298.9727" id="Fill-55" fill="#162b22"/><path d="M281.5412,323.1466 C272.3362,320.2906 251.5572,301.5216 271.8792,308.3166 C273.1292,308.4236 274.6072,305.8736 275.9812,304.5346 C260.0512,302.3576 279.6112,302.2056 271.3022,294.8096 C274.8322,287.6796 296.1652,313.2106 287.5542,310.4776 C272.8652,310.3236 292.4742,323.8686 281.5412,323.1466" id="Fill-57" fill="#00684a"/><path d="M472.6149,1055.1925 C464.7399,1052.8025 452.0619,1064.1065 454.1729,1051.5485 C447.6009,1026.7125 495.2079,1046.3395 472.6149,1055.1925" id="Fill-59" fill="#162b22"/><path d="M172.3778,1040.0753 C189.6338,1041.0963 197.6458,1032.6803 194.7148,1056.6513 C189.3928,1051.4203 170.5528,1045.1213 172.3778,1040.0753" id="Fill-61" fill="#162b22"/><path d="M109.2763,728.5518 C119.1083,731.0538 143.2113,722.4928 144.7803,732.7628 C133.5213,728.1938 94.7293,742.1238 109.2763,728.5518" id="Fill-63" fill="#144936"/><path d="M133.7809,987.3868 C145.9869,987.5058 146.9289,989.1078 143.1219,1003.2588 C140.0079,997.9678 136.8949,992.6778 133.7809,987.3868" id="Fill-65" fill="#162b22"/><path d="M91.6281,755.6026 C90.9321,763.1996 98.5421,781.0186 85.1181,778.4176 C87.2881,770.8136 89.4581,763.2076 91.6281,755.6026" id="Fill-67" fill="#162b22"/><path d="M969.4454,735.0177 C976.3134,739.9497 990.5714,741.1027 992.3544,749.8197 C984.0514,746.4677 972.7394,745.0247 969.4454,735.0177" id="Fill-69" fill="#00684a"/><path d="M145.1801,718.127 C147.7171,706.817 139.2081,684.31 147.3291,679.189 C145.6501,691.021 149.9871,709.567 145.1801,718.127" id="Fill-71" fill="#144936"/><path d="M320.2379,1082.3175 C326.4999,1079.8345 332.8429,1078.7295 339.5849,1079.2965 C336.0999,1086.7765 326.7629,1081.5725 320.2379,1082.3175" id="Fill-73" fill="#144936"/><path d="M305.8793,1082.8419 C309.2103,1077.2929 312.6523,1077.3819 316.1963,1082.6389 C312.7573,1082.7059 309.3183,1082.7739 305.8793,1082.8419" id="Fill-75" fill="#144936"/><path d="M244.0485,315.2774 C245.6535,317.0204 247.2595,318.7634 248.8565,320.5034 C247.2485,318.7574 245.6485,317.0174 244.0485,315.2774" id="Fill-77" fill="#162b22"/><path d="M1000.47576,753.63 C997.3137,755.995 993.0777,751.911 992.7447,749.303 C995.4177,750.574 1000.4967,747.55 1000.47576,753.63" id="Fill-79" fill="#00684a"/><path d="M162.7099,1029.045 C163.7879,1030.986 164.8669,1032.928 165.9429,1034.867 C159.9239,1035.668 163.3889,1031.206 162.7099,1029.045" id="Fill-81" fill="#144936"/><path d="M154.7514,1020.7188 C158.7994,1020.4638 159.7684,1022.9238 159.6814,1026.3108 C158.0364,1024.4468 156.3944,1022.5818 154.7514,1020.7188" id="Fill-83" fill="#144936"/><path d="M260.185,349.2872 C262.184,347.5032 258.863,346.8212 260.408,349.1412 C260.421,349.1362 260.185,349.2872 260.185,349.2872" id="Fill-85" fill="#0f0f0f"/><path d="M353.7946,1081.6378 C355.3556,1081.7408 356.9156,1081.8428 358.4756,1081.9478 C356.9146,1081.8458 355.3546,1081.7418 353.7946,1081.6378" id="Fill-87" fill="#144936"/><path d="M138.8002,686.3712 C138.2732,686.9422 137.7472,687.5132 137.2322,688.0772 C137.7622,687.5042 138.2812,686.9372 138.8002,686.3712" id="Fill-89" fill="#144936"/><path d="M295.3986,315.2511 C295.9096,315.8541 296.4196,316.4571 296.9286,317.0571 C296.4166,316.4531 295.9076,315.8521 295.3986,315.2511" id="Fill-91" fill="#00684a"/><path d="M1163.2389,901.1798 C1162.5639,901.3568 1162.1869,901.0908 1162.1139,900.3868 C1162.8199,900.2608 1163.2109,900.4088 1163.2389,901.1798" id="Fill-93" fill="#144936"/><path d="M341.1169,1076.2178 C341.1319,1075.6008 341.4209,1075.1558 341.9809,1074.8888 C342.1699,1075.6278 341.8829,1076.0708 341.1169,1076.2178" id="Fill-95" fill="#144936"/><path d="M418.6024,1075.9698 C419.2454,1075.6908 419.8894,1075.4118 420.5304,1075.1338 C419.8874,1075.4118 419.2444,1075.6908 418.6024,1075.9698" id="Fill-97" fill="#144936"/><path d="M97.8844,745.6954 C97.8504,746.2004 97.8364,746.3144 97.4164,745.9354 C97.4164,745.4344 97.4804,745.4454 97.8844,745.6954" id="Fill-99" fill="#00684a"/><path d="M719.6451,662.1036 C767.8511,697.7306 813.8491,670.9486 756.3451,734.7206 C740.6951,745.1326 704.5011,843.1746 697.5381,824.8986 C689.2991,809.5566 665.9181,796.3466 668.9341,777.8056 C673.0461,761.3036 711.3051,678.4056 688.0581,678.5866 C695.3801,667.6056 708.0681,666.0896 719.6451,662.1036" id="Fill-101" fill="#144936"/><path d="M618.1808,732.3477 C642.7598,768.9397 667.4128,788.5617 631.8998,828.4337 C612.9948,849.8837 585.9248,927.3687 559.0838,925.9127 C555.7738,877.7997 574.2338,824.4697 584.4288,776.3467 C579.1698,751.9227 607.3838,747.9397 618.1808,732.3477" id="Fill-103" fill="#144936"/><path d="M992.3522,749.8214 C1003.9762,761.2984 975.5772,774.7474 969.6532,785.5744 C958.9882,807.8084 901.2542,751.9134 884.2572,743.7664 C882.7432,742.3804 881.2192,738.9584 881.9062,737.5194 C893.4342,717.2154 876.4882,681.2344 910.6612,697.4654 C930.1972,709.7454 952.4982,718.8484 969.2442,735.2134 C973.7012,745.2184 983.7122,746.4344 992.3522,749.8214" id="Fill-105" fill="#144936"/><path d="M197.0287,632.378 C206.6707,619.83 225.1877,628.477 239.1747,626.015 C255.2137,626.735 243.5427,650.883 249.2637,661.556 C245.5267,619.677 252.9207,625.999 289.6307,626.244 C306.1517,628.24 293.9437,657.12 297.6467,669.316 C288.0087,686.637 220.6477,671.077 197.5627,675.845 C197.3817,661.352 197.2057,646.864 197.0287,632.378" id="Fill-107" fill="#162b22"/><path d="M417.8686,572.712 C430.8076,538.816 438.5226,492.312 480.8596,485.641 C505.1226,465.679 538.3996,479.414 566.0086,469.855 C588.2936,460.62 599.6576,465.602 574.6356,476.742 C553.9606,473.68 527.6906,477.809 507.0566,483.709 C504.5996,484.987 500.2346,480.026 499.2536,486.178 C492.5196,487.061 485.1986,486.082 479.3566,491.016 C471.7126,494.545 471.9176,495.926 478.1116,501.473 C515.0756,534.776 458.1496,591.415 417.8686,572.712" id="Fill-109" fill="#00684a"/><path d="M246.9733,732.8849 C243.3263,746.0059 256.1263,775.6009 239.3153,778.7689 C211.2243,778.4389 183.1303,778.4439 155.0453,778.7639 C138.0633,775.6919 151.0013,745.8839 147.2443,732.7419 C193.5833,734.6319 192.8803,720.1769 197.4423,766.1439 C190.9773,719.0309 212.6253,735.0889 246.9733,732.8849" id="Fill-111" fill="#162b22"/><path d="M524.5309,663.7599 C525.2209,625.0889 480.8449,613.2049 472.8829,651.7779 C474.9009,685.5329 519.7979,712.9509 524.5309,663.7599 M541.6589,664.9559 C538.6589,740.0339 466.5729,713.2349 456.5939,653.8229 C454.9649,588.0809 550.3069,599.6719 541.6589,664.9559" id="Fill-113" fill="#00684a"/><path d="M924.3781,498.4913 C925.5771,498.3993 926.9861,498.2223 925.4311,497.2983 C913.8851,500.7343 927.7611,520.3393 924.3781,498.4913 M898.2851,489.7143 C902.2231,491.8503 913.5061,495.5053 908.5151,487.8393 C907.6661,485.6583 901.8601,486.9843 905.3921,480.9423 C909.2351,477.1773 912.4921,478.6613 915.3261,481.2253 C921.5701,496.3093 906.1371,500.1343 927.2291,492.5163 C935.3761,464.6123 937.6631,431.8093 962.3361,411.7623 C977.3691,408.9363 950.3711,450.7633 949.0261,459.3503 C946.0811,465.4243 955.2741,465.8033 953.0981,467.5523 C944.6601,469.2443 948.6221,478.9803 945.2161,485.8443 C945.7401,494.2733 928.4801,533.2383 945.4331,523.7743 C957.2341,517.1513 995.5491,498.4763 980.6411,522.6043 C984.7931,531.7993 977.7681,529.1503 974.2361,528.1423 C968.1841,526.4153 962.6751,523.5933 961.4381,533.4643 C947.8351,539.7603 938.0561,536.0333 928.0791,551.9743 C922.4561,541.4363 909.6841,525.9373 919.3761,514.7173 C910.3401,506.4193 890.3551,509.7813 898.2851,489.7143" id="Fill-115" fill="#0f0f0f"/><path d="M837.0001,582.254 C809.7051,576.959 807.3741,614.605 814.8161,634.678 C843.7141,676.202 890.0681,578.947 837.0001,582.254 M836.2131,659.973 C786.5731,651.958 790.0971,611.703 807.4201,575.541 C875.9631,529.976 905.0831,644.312 836.2131,659.973" id="Fill-117" fill="#00684a"/><path d="M574.6805,520.0645 C555.7465,520.7835 552.8995,541.6585 558.0585,555.3445 C578.0365,596.7265 622.4715,524.5585 574.6805,520.0645 M574.4745,587.9395 C530.6665,587.5045 533.8925,504.2935 574.9485,503.5655 C632.3095,504.4215 624.4675,581.0745 574.4745,587.9395" id="Fill-119" fill="#00684a"/><path d="M879.9254,682.4366 C879.9204,768.4886 859.3004,721.1996 807.8954,697.3886 C796.2014,685.3756 830.9544,673.5076 837.8184,663.7166 C851.1464,670.3096 869.9264,671.9316 879.9254,682.4366" id="Fill-121" fill="#144936"/><path d="M722.0841,546.9444 C690.5071,543.7824 706.3881,595.0414 729.3931,590.0114 C748.6051,579.8854 744.9601,547.6894 722.0841,546.9444 M760.1921,566.2744 C757.6191,632.5144 676.3101,609.6004 696.2231,554.2484 C702.3081,514.3234 762.9451,528.4224 760.1921,566.2744" id="Fill-123" fill="#00684a"/><path d="M686.0487,680.6993 C684.4487,714.5693 671.6227,744.4063 659.6657,775.9473 C613.3327,718.9293 628.1247,712.7043 686.0487,680.6993" id="Fill-125" fill="#144936"/><path d="M589.6559,755.1485 C575.3979,787.7485 563.9949,732.6345 535.7789,751.2945 C510.8819,759.4175 522.7709,791.4565 531.9439,808.1625 C508.9279,831.0165 498.9729,771.8195 507.0429,754.9815 C519.9689,719.4685 577.7049,719.2255 589.6559,755.1485" id="Fill-127" fill="#00684a"/><path d="M300.0473,679.297 C355.9923,676.661 350.8493,672.61 349.1533,728.119 C294.0703,729.92 298.2293,734.563 300.0473,679.297" id="Fill-129" fill="#162b22"/><path d="M197.5643,678.8653 C253.5293,676.7713 248.6613,672.4633 246.9513,728.1973 C191.3783,730.0403 196.0543,734.2363 197.5643,678.8653" id="Fill-131" fill="#162b22"/><path d="M323.6466,830.5587 C290.7336,838.2807 300.8056,808.5127 299.4836,786.5927 C297.6546,776.8077 348.5736,777.1267 346.8976,787.6017 C347.4586,811.7747 359.4466,837.4937 323.6466,830.5587" id="Fill-133" fill="#162b22"/><path d="M325.237,676.2921 C317.168,674.3251 298.866,681.9091 299.44,668.9461 C303.156,656.7911 290.835,627.5381 308.244,626.3381 C320.126,629.8611 343.906,620.9881 349.381,633.1151 C347.46,656.2171 359.774,683.4011 325.237,676.2921" id="Fill-135" fill="#162b22"/><path d="M249.7128,728.2052 C248.6628,674.7182 241.4518,676.2932 297.1308,678.7322 C297.9348,731.9662 305.3218,730.7012 249.7128,728.2052" id="Fill-137" fill="#162b22"/><path d="M297.5922,806.3009 C304.4492,840.5859 278.3982,828.6949 255.3062,830.6059 C242.0872,825.4269 252.5882,798.3759 249.7382,785.6889 C258.3632,774.7839 279.2682,783.2919 292.1992,780.6909 C302.7382,782.0469 295.5892,798.7939 297.5922,806.3009" id="Fill-139" fill="#162b22"/><path d="M146.8629,718.1397 C140.9809,673.4067 156.2209,677.5787 194.8879,678.6637 C191.7759,693.3517 201.7669,719.3077 190.3439,728.3447 C176.7939,724.6817 144.1819,737.9587 146.8629,718.1397" id="Fill-141" fill="#162b22"/><path d="M247.2479,801.5411 C254.2749,843.0701 228.3379,828.0971 199.5749,830.4511 C199.4859,813.8931 199.3949,797.3321 199.3039,780.7711 C223.2059,782.2221 254.4439,772.0421 247.2479,801.5411" id="Fill-143" fill="#162b22"/><path d="M802.7008,646.9034 C812.9798,651.0384 823.2598,655.1724 833.5328,659.3034 C809.8208,657.7314 804.0858,698.7954 780.9088,684.2994 C699.7398,654.6204 742.5848,647.3304 802.7008,646.9034" id="Fill-145" fill="#144936"/><path d="M345.3034,768.1563 C367.4204,769.1093 392.2094,753.9873 393.5454,729.8943 C388.8674,708.5143 340.5604,718.9103 363.0914,694.5443 C468.3284,701.7283 370.2264,825.2613 345.3034,768.1563" id="Fill-147" fill="#00684a"/><path d="M297.1862,833.1944 C295.1972,873.8574 310.7422,887.5684 259.5402,882.8934 C253.2612,883.1464 250.8472,881.0984 251.0562,874.6054 C247.4942,827.9484 253.6482,831.0544 297.1862,833.1944" id="Fill-149" fill="#162b22"/><path d="M194.8971,833.1729 C193.3831,875.6679 207.5891,887.4659 155.5341,882.8269 C141.0251,878.9439 152.4021,851.9449 148.8201,839.7199 C153.5101,825.1979 181.8811,835.8739 194.8971,833.1729" id="Fill-151" fill="#162b22"/><path d="M245.2824,832.8897 C243.8804,875.2437 258.2724,887.5137 206.1654,882.8557 C200.7254,882.9947 198.8474,880.8257 198.9514,875.5247 C195.2554,828.5727 201.0384,830.7897 245.2824,832.8897" id="Fill-153" fill="#162b22"/><path d="M347.5712,832.9063 C346.1502,875.2553 360.5412,887.4923 308.4542,882.8523 C303.0042,882.9953 301.1502,880.8103 301.2542,875.5193 C297.5692,828.5883 303.3432,830.7983 347.5712,832.9063" id="Fill-155" fill="#162b22"/><path d="M182.5304,830.5138 C134.4574,832.4538 151.6624,817.6888 149.1524,780.7188 C164.3844,780.8178 179.6164,780.9128 194.8484,781.0068 C190.6754,796.6338 205.8024,834.4068 182.5304,830.5138" id="Fill-157" fill="#162b22"/><path d="M338.3756,580.336 C356.5776,584.404 347.8736,602.24 349.5366,616.32 C347.7006,632.787 318.9146,620.521 306.8326,624.318 C292.3146,623.985 302.9986,601.887 300.5896,592.551 C293.1496,568.128 323.1036,579.336 338.3756,580.336" id="Fill-159" fill="#162b22"/><path d="M297.1466,778.3077 C247.3426,779.9927 246.7796,784.6667 249.6886,732.8617 C299.4026,731.1937 299.9566,726.6387 297.1466,778.3077" id="Fill-161" fill="#162b22"/><path d="M142.9716,780.7677 C139.0646,824.1427 155.1626,832.9937 102.7386,828.9207 C97.3066,828.9787 96.6516,825.6537 96.6956,821.3917 C91.4526,777.2197 102.7216,778.2697 142.9716,780.7677" id="Fill-163" fill="#162b22"/><path d="M248.9442,595.462 C259.5092,584.065 284.6642,586.238 290.2842,575.399 C295.3512,568.426 277.7512,567.111 286.7442,563.415 C298.8482,565.088 289.0152,567.209 297.9422,570.263 C301.2202,569.911 304.3802,568.453 307.5872,567.443 C308.0562,574.026 318.3832,568.118 315.3392,573.793 C295.6202,572.868 301.8772,567.342 297.7042,588.963 C294.5262,599.198 304.8152,622.564 290.6602,624.338 C262.1592,622.824 243.6712,633.899 248.9442,595.462" id="Fill-165" fill="#162b22"/><path d="M993.2609,643.6915 C866.8559,674.0585 1076.1419,594.9745 1105.7359,612.9645 C1112.4949,620.4165 1103.4479,624.8265 1095.9829,623.7765 C1061.2779,627.7235 1027.0909,636.0425 993.2609,643.6915" id="Fill-167" fill="#0f0f0f"/><path d="M387.0207,839.4288 C387.3487,843.5708 388.5557,846.9938 393.5187,847.3058 C405.9727,851.0308 396.5537,871.1228 398.7137,881.1318 C385.9857,879.0518 356.9617,891.4498 353.3747,875.5738 C351.0537,846.8598 352.4747,817.4398 387.0207,839.4288" id="Fill-169" fill="#162b22"/><path d="M348.3498,734.5509 C337.9228,779.3369 351.8888,781.0859 299.9048,778.0979 C297.3178,723.5859 297.3168,732.1489 348.3498,734.5509" id="Fill-171" fill="#162b22"/><path d="M602.3073,613.5665 C603.3573,589.8215 639.8153,593.5645 643.4833,611.5745 C657.7753,650.1595 598.2363,669.2815 593.6503,626.5735 C593.3483,615.8275 593.5823,615.4745 602.1863,613.6945 C602.3743,623.9765 608.6183,639.1925 619.7883,636.7025 C640.8903,620.0375 626.1913,605.3845 602.3073,613.5665" id="Fill-173" fill="#00684a"/><path d="M435.0966,857.3302 C454.0336,825.5212 414.9066,810.4702 400.3386,838.8872 C376.9376,854.0062 400.0496,806.2092 418.0606,808.9872 C454.9186,794.1792 478.6936,866.6012 435.0966,857.3302" id="Fill-175" fill="#00684a"/><path d="M925.1134,613.4278 C904.8604,611.3678 910.6994,633.5158 922.3604,635.9018 C931.9434,634.4748 944.8844,612.0388 925.1134,613.4278 M950.3434,614.2468 C962.6124,646.7888 898.8324,665.2408 903.3224,623.9788 C905.7904,594.8298 941.6944,589.1568 950.3434,614.2468" id="Fill-177" fill="#00684a"/><path d="M387.6469,630.3341 C378.8419,644.2131 377.0169,679.8101 356.7249,676.1341 C350.6079,676.7231 351.7929,671.6331 351.7859,668.0531 C348.4829,636.0841 352.1159,619.8851 387.6469,630.3341" id="Fill-179" fill="#162b22"/><path d="M639.465,462.7071 C684.903,431.9231 637.817,536.4361 614.339,483.6331 C603.24,463.8201 613.981,465.0121 631.948,464.2331 C627.636,469.1891 622.951,475.7761 629.188,480.5361 C635.953,488.8891 651.805,461.8741 639.465,462.7071" id="Fill-181" fill="#00684a"/><path d="M351.4518,586.8038 C367.4818,581.3328 356.8718,585.1028 360.1708,590.4408 C370.5068,601.2678 401.4548,606.4178 389.0718,623.8918 C353.0368,627.2818 348.5168,622.8898 351.4518,586.8038" id="Fill-183" fill="#162b22"/><path d="M695.5284,646.0206 C691.8044,643.5686 688.8164,636.8956 686.0384,641.9306 C689.1394,646.2816 689.0414,651.3656 695.5284,646.0206 M708.8964,645.1836 C709.8844,675.8716 674.6094,666.9726 673.4384,644.6416 C673.9154,620.4126 708.7274,622.1846 708.8964,645.1836" id="Fill-185" fill="#00684a"/><path d="M793.193,500.6593 C799.344,494.0273 803.202,491.3803 794.837,485.1823 C788.487,491.5023 782.911,492.3533 793.193,500.6593 M815.288,492.7203 C814.64,508.6693 791.719,518.9883 781.3,504.2393 C762.471,483.5593 814.159,454.0593 815.288,492.7203" id="Fill-187" fill="#00684a"/><path d="M242.6046,595.797 C251.5186,593.634 247.2366,619.919 244.5216,623.846055 C185.2026,623.864 215.5856,619.492 242.6046,595.797" id="Fill-189" fill="#162b22"/><path d="M348.3498,734.5509 C282.1038,729.5909 307.2908,730.3319 297.1538,778.3129 C303.6468,703.2809 283.8168,747.9039 249.7058,728.2119 C319.0988,733.6879 287.8878,721.4049 300.0388,679.2859 C291.2908,766.4219 322.4548,707.1939 348.3498,734.5509" id="Fill-191" fill="#144936"/><path d="M147.2963,728.3136 C203.1133,730.4546 195.7043,732.1146 194.8783,678.6556 C205.9993,686.6436 186.2923,724.7846 204.5723,728.5506 C216.3703,731.1786 243.9363,721.7786 246.9773,732.8786 C233.0443,736.7166 201.2813,723.4096 197.3643,740.3046 C199.2543,768.0016 193.2663,769.7596 195.1103,740.9746 C194.7123,719.6596 150.1913,743.5946 147.2963,728.3136" id="Fill-193" fill="#144936"/><path d="M618.1808,732.3477 C608.9858,750.4597 588.2478,717.7677 597.6938,708.3947 C605.9648,710.0667 618.8868,723.9037 618.1808,732.3477" id="Fill-195" fill="#00684a"/><path d="M359.4362,699.878 C351.9212,737.017 350.0592,696.366 352.2292,682.226 C353.0472,675.483 360.0802,678.316 364.1862,678.893 C370.5962,679.792 364.3512,682.452 364.3482,684.341 C364.4542,690.115 363.2002,695.483 359.4362,699.878" id="Fill-197" fill="#162b22"/><path d="M636.4476,712.002 C624.2596,730.023 625.6586,719.495 613.4806,709.791 C600.3106,695.331 634.4636,698.247 636.4476,712.002" id="Fill-199" fill="#00684a"/><path d="M478.6654,858.4649 C478.4554,864.1719 457.2864,888.6569 454.4204,878.6359 C450.3434,859.7289 462.4804,858.6989 478.6654,858.4649" id="Fill-201" fill="#162b22"/><path d="M361.3549,830.5665 C352.5029,830.5535 352.5019,830.5535 352.0189,821.4665 C346.7979,784.6655 381.8219,835.4045 361.3549,830.5665" id="Fill-203" fill="#162b22"/><path d="M901.4723,509.4542 C930.6613,507.9002 908.8403,517.9672 919.3603,533.5442 C922.8443,547.8372 900.8593,512.3822 901.4723,509.4542" id="Fill-205" fill="#00684a"/><path d="M393.2253,614.21 C396.1513,599.231 406.5103,584.843 417.2193,573.449 C414.1793,588.214 403.7073,603.687 393.2253,614.21" id="Fill-207" fill="#00684a"/><path d="M898.2853,489.714 C896.2693,502.916 872.0693,477.346 879.9633,471.795 C884.7013,489.166 899.3513,467.047 898.2853,489.714" id="Fill-209" fill="#00684a"/><path d="M194.6361,830.2452 C197.8241,816.1662 188.1831,786.8072 199.2981,780.7682 C196.0921,794.4722 206.6521,826.2882 194.6361,830.2452" id="Fill-211" fill="#144936"/><path d="M352.0829,623.7501 C361.8459,626.6111 391.9719,616.9001 387.6459,630.3321 C377.7669,625.0231 353.2359,634.1121 352.0829,623.7501" id="Fill-213" fill="#144936"/><path d="M935.1964,561.5245 C934.1584,562.0755 934.8014,562.6885 935.1544,563.4455 C936.1874,562.8935 935.5494,562.2805 935.1964,561.5245 M930.8344,558.0495 C935.6964,556.5075 940.5574,554.9655 945.4224,553.4235 C941.4814,565.3725 937.7784,572.5785 930.8344,558.0495" id="Fill-215" fill="#162b22"/><path d="M197.0287,632.378 C194.9647,645.313 201.9537,667.906 194.8827,676.041 C196.4897,662.061 191.9307,644.654 197.0287,632.378" id="Fill-217" fill="#144936"/><path d="M342.4145,761.7774 C339.8045,757.9354 341.9475,755.5944 345.0125,753.5474 C349.5215,756.2594 347.4455,763.5194 342.4145,761.7774" id="Fill-219" fill="#144936"/><path d="M341.0443,778.335 C342.2333,774.627 340.2543,767.149 345.3033,768.157 C344.6123,772.639 348.0213,780.458 341.0443,778.335" id="Fill-221" fill="#144936"/><path d="M593.9398,466.9054 C596.8048,466.5684 599.6688,466.2324 602.5338,465.8974 C600.2278,471.0084 597.2438,470.3254 593.9398,466.9054" id="Fill-223" fill="#00684a"/><path d="M383.0397,836.8907 C380.2467,835.6027 377.4537,834.3157 374.6617,833.0287 C378.0097,833.1127 382.0357,831.7247 383.0397,836.8907" id="Fill-225" fill="#144936"/><path d="M345.3898,768.2472 C340.8708,770.0322 340.9368,759.8272 345.3808,762.1622 C348.9898,764.1872 347.0518,766.2172 345.3898,768.2472" id="Fill-227" fill="#00684a"/><path d="M247.2482,801.5411 C244.2682,799.7941 244.2002,799.0941 247.2492,797.3941 C247.2482,798.7761 247.2482,800.1591 247.2482,801.5411" id="Fill-229" fill="#144936"/><path d="M898.9664,503.2725 C899.3404,504.4215 899.7144,505.5715 900.0874,506.7165 C899.7134,505.5655 899.3404,504.4185 898.9664,503.2725" id="Fill-231" fill="#00684a"/><path d="M345.498,751.462 C345.843,748.873 346.384,748.954 348.198,750.652 C347.298,750.922 346.398,751.191 345.498,751.462" id="Fill-233" fill="#144936"/><path d="M247.2101,782.7559 C246.5431,782.0839 245.8771,781.4119 245.2111,780.7409 C245.8781,781.4129 246.5441,782.0849 247.2101,782.7559" id="Fill-235" fill="#144936"/><path d="M197.705,987.3849 C242.198,987.6399 249.4,977.6539 245.502,1028.6329 C245.527,1032.4429 244.898,1035.7759 240.188,1035.7719 C191.313,1040.3579 195.639,1031.8219 197.705,987.3849" id="Fill-237" fill="#162b22"/><path d="M348.5246,1012.6788 C352.3976,1042.6038 330.6606,1037.0998 307.8296,1037.2058 C293.5696,1033.2548 304.8156,1005.9818 301.2886,993.7298 C304.9396,979.9718 329.4536,990.6538 340.7776,987.2718 C354.1756,987.0288 344.3856,1006.4338 348.5246,1012.6788" id="Fill-239" fill="#162b22"/><path d="M143.2106,858.5997 C149.7866,891.9107 125.7426,881.2597 102.8416,882.8127 C89.1716,877.8807 100.1276,851.4787 96.6896,838.9787 C100.9296,825.9327 125.1376,836.2517 136.5466,833.0007 C148.6656,833.1727 141.2336,850.7927 143.2106,858.5997" id="Fill-241" fill="#162b22"/><path d="M198.1376,935.2179 C243.4386,936.2649 248.8306,924.3079 245.5516,976.0739 C245.6736,981.4899 243.4826,983.4319 238.1716,983.3389 C192.7826,989.0379 194.5996,975.8369 198.1376,935.2179" id="Fill-243" fill="#162b22"/><path d="M399.5922,1013.0938 C406.1152,1046.2468 382.4512,1035.8058 359.5162,1037.2208 C344.9702,1034.1918 361.0582,1010.4238 354.1772,1000.3748 C347.1232,978.5938 380.5192,990.1898 392.2432,987.2858 C405.2212,986.6868 397.6102,1005.0398 399.5922,1013.0938" id="Fill-245" fill="#162b22"/><path d="M298.0436,959.9259 C298.5486,979.3929 293.8986,985.5719 273.9546,983.2519 C266.4316,981.8829 250.3696,988.0349 251.1036,975.8749 C254.6036,964.3349 243.2246,937.6559 258.4546,935.2689 C284.8486,937.0349 300.9356,926.0729 298.0436,959.9259" id="Fill-247" fill="#162b22"/><path d="M298.0753,1012.3936 C301.7343,1041.7166 279.3013,1035.3616 257.3543,1035.7246 C243.7703,1030.9756 254.4343,1005.1796 251.1863,992.9686 C255.9873,980.5126 279.7583,990.4216 291.2463,987.3026 C303.4193,987.6176 293.7713,1006.7066 298.0753,1012.3936" id="Fill-249" fill="#162b22"/><path d="M195.0836,983.2091 C150.8436,983.3131 145.5896,991.8831 148.8126,942.4181 C148.6806,936.9411 150.9546,935.2031 156.2006,935.2781 C200.3556,928.8291 197.0876,944.8201 195.0836,983.2091" id="Fill-251" fill="#162b22"/><path d="M400.2619,958.7022 C401.0339,979.1352 396.3089,985.6332 375.3359,983.2512 C368.4799,981.9432 353.4879,987.6802 353.4649,977.0022 C356.7229,965.1532 346.0889,939.4952 359.6949,935.3322 C387.7999,937.8812 400.9989,924.3052 400.2619,958.7022" id="Fill-253" fill="#162b22"/><path d="M347.7858,957.9561 C354.2708,991.8191 331.4048,982.1131 307.5258,983.2891 C297.5798,986.0571 297.6988,932.7121 307.4058,935.3291 C316.2138,936.3821 326.8988,933.0921 334.8188,937.3011 C337.2238,939.9741 338.5178,940.4911 341.2868,937.4791 C351.7208,929.2431 346.6738,952.8381 347.7858,957.9561" id="Fill-255" fill="#162b22"/><path d="M375.8898,931.1114 C343.7818,937.3134 353.0648,915.3094 351.9798,892.7574 C356.6418,879.6964 381.9078,890.0534 393.8208,886.8884 C406.2918,891.1484 396.5288,914.6864 399.5128,925.7974 C398.3068,935.8784 382.9248,929.3424 375.8898,931.1114" id="Fill-257" fill="#162b22"/><path d="M531.9437,808.1622 C494.1017,756.6302 562.6247,721.4752 575.1067,772.2712 C556.2667,777.2492 549.1977,801.3552 531.9437,808.1622" id="Fill-259" fill="#00684a"/><path d="M223.8334,886.8995 C256.5854,880.4245 245.2594,905.0025 245.1314,926.9915 C236.0514,936.1745 217.2804,928.9115 204.9024,931.1785 C192.2294,927.1805 202.0484,904.2175 198.9994,893.3375 C199.5234,881.6745 216.2114,888.7605 223.8334,886.8995" id="Fill-261" fill="#162b22"/><path d="M272.6903,931.1641 C240.2523,937.3991 251.6163,914.0111 251.2273,892.1651 C257.0543,880.3301 279.8333,889.8351 291.6063,886.8911 C304.0443,891.1411 294.2903,914.6411 297.2603,925.7271 C295.9503,936.0891 279.8433,929.1641 272.6903,931.1641" id="Fill-263" fill="#162b22"/><path d="M194.9877,908.2686 C193.3237,915.3326 199.7917,930.9656 188.8827,931.2156 C177.3687,928.1106 153.5007,938.1726 148.8837,925.3366 C151.9017,914.3826 141.7837,890.0786 155.2767,886.8716 C174.8807,888.2006 201.9207,878.6966 194.9877,908.2686" id="Fill-265" fill="#162b22"/><path d="M403.6361,1012.4532 C398.0021,957.6552 442.2331,1003.5962 449.7631,1027.6592 C453.0651,1046.1542 422.0281,1033.6502 411.0111,1037.3102 C398.2281,1037.9502 405.4731,1020.3472 403.6361,1012.4532" id="Fill-267" fill="#162b22"/><path d="M435.0966,857.3302 C449.5066,855.3962 457.0756,876.7402 444.6856,882.5662 C433.0216,879.9092 408.2856,889.6812 403.6316,877.0262 C400.4406,836.6642 411.7206,857.7462 435.0966,857.3302" id="Fill-269" fill="#162b22"/><path d="M414.1989,935.42 C436.1719,933.17 409.7349,963.472 419.7709,976.842 C421.4379,987.019 405.4609,986.202 405.7529,973.812 C405.4979,961.777 395.0529,932.742 414.1989,935.42" id="Fill-271" fill="#162b22"/><path d="M463.268,1037.2637 C456.099,1038.6237 451.947,1034.3727 455.43,1028.2997 C460.112,1027.7727 471.575,1036.1897 463.268,1037.2637" id="Fill-273" fill="#162b22"/><path d="M197.705,987.3849 C195.83,1002.1089 200.711,1024.3879 195.38,1035.4189 C197.592,1021.2169 190.418,996.2939 197.705,987.3849" id="Fill-275" fill="#00684a"/><path d="M495.778,1029.1573 C492.176,1033.9343 492.046,1043.9703 484.434986,1042.8493 C484.423,1036.5553 492.11,1033.4173 495.778,1029.1573" id="Fill-277" fill="#162b22"/><path d="M195.4186,966.377 C197.3676,957.767 189.7746,937.102 198.1286,935.217 C196.3306,944.335 200.4006,960.984 195.4186,966.377" id="Fill-279" fill="#00684a"/><path d="M195.0836,983.2091 C196.1276,979.6491 193.2286,971.2711 197.1716,970.6291 C196.2696,974.3251 200.2526,983.8221 195.0836,983.2091" id="Fill-281" fill="#00684a"/><path d="M872.0802,749.2599 C858.6252,782.4859 871.8382,802.1829 879.0292,757.2669 C887.5192,745.0089 933.2512,792.1109 948.1782,797.7909 C966.3072,806.9929 894.2012,868.4459 896.1002,889.9479 C912.7722,891.9949 941.1012,827.4109 957.9562,812.8689 C968.5302,803.2389 980.3962,822.4649 990.4542,826.2549 C994.7502,831.8639 1010.3602,831.2239 1005.9992,839.8349 C982.7042,888.7219 953.8212,934.5969 925.2412,980.4969 C911.3262,991.8189 885.8362,974.8069 868.3272,974.6449 C861.4622,973.1189 861.1102,972.2219 864.3322,965.7989 C866.4402,953.9529 908.3092,898.4109 886.7882,902.6869 C869.9092,915.6379 862.6252,971.5499 844.4442,969.0179 C830.6382,963.2629 789.1882,967.6969 802.7862,943.3789 C810.8412,934.2699 892.0132,767.2669 859.7182,794.5669 C781.0812,979.0589 815.5232,970.4459 714.4012,846.1989 C716.4432,796.6009 761.0442,747.6949 789.8442,706.4179 C800.2852,691.5209 860.9212,739.0199 872.0802,749.2599" id="Fill-283" fill="#144936"/><path d="M1082.1583,1015.3643 C1067.2603,1009.0963 1027.8113,1014.3453 1023.3483,999.9103 C1030.0493,957.9923 1044.5733,918.5443 1066.8923,882.3623 C1087.7203,877.6873 1114.7553,907.8843 1136.8203,915.7623 C1147.0493,921.7313 1146.5753,921.9843 1140.2943,932.4423 C1121.5393,958.6533 1109.8323,999.7503 1082.1583,1015.3643" id="Fill-285" fill="#144936"/><path d="M1005.5079,1002.0518 C890.7209,986.8358 943.5659,985.4938 981.3879,906.7898 C995.3309,893.6168 1005.1549,830.7678 1027.9109,851.3748 C1036.4809,860.6258 1067.6869,864.2818 1055.5249,880.2838 C1034.0319,914.5408 1021.1269,952.7538 1013.6869,992.3108 C1011.8579,1000.6538 1011.0709,1002.2208 1005.5079,1002.0518" id="Fill-287" fill="#144936"/><path d="M666.0468,936.713 C527.7768,926.739 595.5908,937.342 656.9158,801.409 C668.5258,792.488 684.5858,833.307 694.4228,841.765 C692.1898,870.043 679.3348,912.23 666.0468,936.713" id="Fill-289" fill="#144936"/><path d="M680.7074,934.4073 C709.7234,834.9913 694.9894,846.2083 756.7084,920.3743 C760.9654,929.2533 790.3194,953.8123 776.4724,955.3523 C747.2584,945.2443 702.6964,949.6163 680.7074,934.4073" id="Fill-291" fill="#144936"/><path d="M1014.6578,1084.1446 C1023.8218,1021.5766 999.6028,1007.6666 1074.9308,1024.7036 C1079.3058,1025.2996 1080.3988,1026.3396 1077.1838,1030.3556 C1062.2918,1042.4576 1012.8288,1132.8086 1014.6578,1084.1446" id="Fill-293" fill="#144936"/><path d="M859.7169,983.5011 C933.2089,997.4821 915.6409,994.0181 879.9209,1047.7791 C877.6159,1051.0441 875.4109,1052.3611 872.1699,1047.8971 C856.0739,1029.1001 834.1929,1004.3741 859.7169,983.5011" id="Fill-295" fill="#144936"/><path d="M822.1281,974.8985 C829.6341,978.1295 852.9471,976.0445 844.9201,988.5825 C841.6021,991.5625 841.2881,1007.0485 834.3451,1000.0085 C831.7121,993.2065 811.9161,978.7655 822.1281,974.8985" id="Fill-297" fill="#144936"/><path d="M556.4005,945.2989 C551.1355,939.5579 556.6015,933.7599 563.3555,935.9069 C567.2975,939.2499 558.4985,942.3169 556.4005,945.2989" id="Fill-299" fill="#144936"/><path d="M629.33,728.3087 C633.17,732.3537 633.702,742.4047 626.681,735.8947 C624.521,732.3777 624.791,729.5597 629.33,728.3087" id="Fill-301" fill="#00684a"/><path d="M625.4335,723.5421 C627.5665,721.8881 628.3965,721.8461 629.2845,724.5281 C628.0005,724.2001 626.7175,723.8711 625.4335,723.5421" id="Fill-303" fill="#00684a"/><path d="M246.9633,385.7472 C249.5293,385.7792 254.8223,380.5892 254.4293,386.2392 C252.8553,391.6932 256.5533,400.2312 252.0493,403.8572 C247.0013,397.6572 240.1893,392.2872 246.9633,385.7472" id="Fill-305" fill="#162b22"/><path d="M108.6647,608.5938 C123.9047,602.0208 107.8417,622.0738 100.5427,617.6678 C98.3487,613.6538 101.8527,614.2898 103.8637,613.7088 C92.9537,609.9718 102.4717,599.5568 108.6647,608.5938" id="Fill-307" fill="#162b22"/><path d="M202.7826,501.3712 C207.9176,512.1332 191.7496,513.0572 187.2406,505.7762 C202.3856,509.9712 192.5756,495.3862 202.7826,501.3712" id="Fill-309" fill="#162b22"/><path d="M163.0773,452.6807 C158.9343,460.5377 171.5093,471.4367 158.1023,473.5707 C153.6103,471.2997 159.0573,469.8667 159.0723,467.8357 C159.1123,462.4277 158.0153,456.7507 163.0773,452.6807" id="Fill-311" fill="#00684a"/><path d="M154.1679,523.4249 C155.5879,519.2159 154.6919,510.9109 161.3819,514.2079 C162.5549,521.2779 162.5389,530.4209 154.1679,523.4249" id="Fill-313" fill="#00684a"/><path d="M160.1764,563.3663 C165.2094,559.5433 164.0694,566.6223 166.6914,567.0543 C166.0994,577.7833 156.7424,571.3013 160.1764,563.3663" id="Fill-315" fill="#00684a"/><path d="M83.4013,594.4698 C79.7493,585.2688 92.3763,590.6658 96.9073,591.1858 C92.3903,592.2848 87.8953,593.3778 83.4013,594.4698" id="Fill-317" fill="#00684a"/><path d="M822.3849,295.0724 C822.2869,291.0544 822.1899,287.0374 822.0939,283.0374 C823.2719,287.6674 829.5619,292.7084 822.3849,295.0724" id="Fill-319" fill="#162b22"/><path d="M202.7826,501.3712 C195.6606,498.9872 198.2686,498.1442 203.6696,495.3592 C212.1246,498.6702 203.0516,499.3652 202.7826,501.3712" id="Fill-321" fill="#00684a"/><path d="M108.6647,608.5938 C106.6507,607.0738 104.6377,605.5548 102.6187,604.0388 C107.4897,603.4808 110.2907,602.7258 108.6647,608.5938" id="Fill-323" fill="#00684a"/><path d="M234.7914,385.9395 C234.0694,385.3135 233.3464,384.6865 232.6474,384.0665 C233.3784,384.6955 234.0844,385.3175 234.7914,385.9395" id="Fill-325" fill="#162b22"/><path d="M243.0177,392.2667 C240.5487,394.7417 239.2337,392.3087 242.8317,391.97469 C242.8307,391.9727 243.0177,392.2667 243.0177,392.2667" id="Fill-327" fill="#162b22"/><path d="M261.7829,299.6964 C262.6499,293.5934 267.1049,294.4614 271.2959,294.8064 C279.6249,302.2004 260.0389,302.3564 275.9809,304.5354 C272.3789,311.0164 267.2849,306.8964 262.0539,305.6714 C267.7749,303.4154 261.2219,301.7174 261.7829,299.6964" id="Fill-329" fill="#162b22"/><path d="M261.7829,299.6964 C261.2219,301.7174 267.7749,303.4154 262.0549,305.6714 C260.8769,303.4214 259.2989,301.6004 261.7829,299.6964" id="Fill-331" fill="#00684a"/><path d="M248.2719,297.1026 C249.1999,297.7866 250.1289,298.4696 251.0499,299.1446 C250.1189,298.4576 249.1949,297.7806 248.2719,297.1026" id="Fill-333" fill="#00684a"/><path d="M255.3812,303.4317 C255.7692,303.1717 255.9132,303.1337 255.9762,303.6467 C255.5282,303.9587 255.4112,304.0697 255.3812,303.4317" id="Fill-335" fill="#162b22"/><path d="M711.9713,360.755 C704.2703,362.676 684.3223,354.742 685.7713,367.736 C689.1433,380.076 680.9153,402.85 690.3683,410.11 C704.4443,409.844 718.5173,409.77 732.5843,409.414 C740.3833,404.813 735.2063,389.53 726.4053,400.137 C720.2123,406.651 712.3033,407.508 707.4013,399.247 C688.6083,365.73 698.9563,366.168 721.1523,389.756 C744.2423,377.049 740.9393,354.855 711.9713,360.755 M713.7103,350.2 C730.7523,350.496 750.0723,345.179 746.0843,369.347 C755.6293,367.533 786.2313,333.525 781.8613,356.65 C712.2553,396.744 771.1373,419.833 730.0263,420.759 C713.8343,416.621 675.9403,432.854 673.9203,409.58 C676.9483,367.626 661.6893,346.393 713.7103,350.2" id="Fill-337" fill="#0f0f0f"/><path d="M484.0446,403.6427 C487.9986,402.9857 487.3896,399.5007 486.2056,396.2477 C479.9376,373.7307 505.0436,391.4647 499.2906,368.0967 C498.7536,353.5097 467.6606,365.0147 456.4246,361.2417 C441.5916,365.4127 454.1496,394.6297 450.8496,407.6517 C467.5776,421.5567 445.6816,389.8967 467.2456,388.1177 C470.0626,395.0207 469.1136,401.4847 476.8596,393.9247 C487.7646,393.1457 472.7826,405.3067 472.4276,410.4547 C480.6616,402.9817 480.1376,414.6377 484.0446,403.6427 M438.8756,402.0607 C440.2046,388.9857 431.5276,357.6507 447.1006,352.5857 C464.6896,357.0037 505.2246,338.9917 509.8206,361.2197 C504.2426,378.8357 520.4126,413.3747 502.2216,421.9547 C482.2746,418.0547 430.7866,437.0867 438.8756,402.0607" id="Fill-339" fill="#0f0f0f"/><path d="M612.4689,284.5724 C612.4689,284.5724 612.2409,283.8484 612.2429,283.8524 C608.6139,279.6344 601.0069,276.2454 609.7279,272.1644 C627.3539,252.4124 588.7609,260.5854 579.7669,260.6464 C573.7009,266.5684 573.2439,264.4764 566.4609,259.3494 C563.4709,272.8994 564.3959,294.5784 566.1259,307.1284 C580.7629,311.4854 595.9159,309.4964 612.4289,308.3954 C618.8329,304.4384 613.7779,290.1244 612.4689,284.5724 M598.5879,320.2304 C535.4529,327.7274 557.0779,303.2484 554.6029,256.0854 C566.3329,242.3454 596.7789,252.9094 614.7009,248.5674 C634.9409,252.3904 620.2429,294.2724 624.7219,311.0214 C625.3909,326.1434 605.4669,316.0194 598.5879,320.2304" id="Fill-341" fill="#0f0f0f"/><path d="M615.0001,385.7833 C618.9701,347.6123 598.7481,363.9843 570.9571,360.4873 C560.8101,353.8523 563.4441,412.8913 569.7401,409.9953 C593.9601,408.9623 621.3691,421.5433 615.0001,385.7833 M591.9911,350.1363 C642.1321,341.1273 620.0921,380.7413 624.5801,413.3893 C616.3851,430.6583 581.5511,416.9963 564.1841,421.4913 C543.7421,421.4623 555.8811,380.1933 553.8471,365.8513 C553.6151,342.5843 577.4681,353.0693 591.9911,350.1363" id="Fill-343" fill="#0f0f0f"/><path d="M735.5206,278.1671 C742.2916,248.9521 712.1066,261.5321 694.0576,259.0271 C676.8816,258.1841 690.4116,292.6911 686.5706,304.7201 C694.1566,314.8951 719.3316,305.6881 732.7076,308.5391 C741.5686,309.2171 730.9386,296.9281 733.0726,294.7111 C738.7706,288.8661 734.3906,282.2151 735.5206,278.1671 M718.9876,319.8931 C658.3006,326.6481 676.1046,305.8961 675.2476,259.4291 C667.4596,245.8171 755.3056,242.6321 745.7576,258.6731 C739.8766,286.6711 762.9616,327.1091 718.9876,319.8931" id="Fill-345" fill="#0f0f0f"/><path d="M484.7663,309.8419 C509.7543,312.6329 496.0023,280.8409 499.4013,265.0129 C490.3813,254.2379 468.4783,263.2589 454.9963,260.3139 C442.6533,266.5729 453.6033,292.8479 450.7893,305.9389 C457.4043,314.6309 474.4773,307.7409 484.7663,309.8419 M477.9193,249.9609 C490.1123,251.5019 514.3233,243.5389 509.6323,264.0299 C504.8433,280.2009 520.7263,314.8819 501.4503,320.8369 C483.4383,316.0129 441.5583,333.5099 437.9893,309.3499 C441.0103,267.2619 425.8173,246.1649 477.9193,249.9609" id="Fill-347" fill="#0f0f0f"/><path d="M639.465,462.7071 C648.423,462.1071 642.239,471.9671 639.956,476.5611 C624.981,494.9321 620.934,460.6031 639.465,462.7071" id="Fill-349" fill="#00684a"/><path d="M360.1845,542.589 C339.0175,541.198 319.5955,523.851 301.2095,535.463 C260.7365,558.401 245.6295,484.081 287.0965,484.179 C311.4725,478.984 315.3005,420.144 339.6515,414.234 C348.7055,436.491 316.6875,463.077 309.1115,485.175 C303.1315,492.854 315.3365,498.932 314.4475,507.193 C314.6425,512.143 316.3795,513.766 320.7265,514.712 C333.3855,518.602 386.3075,523.581 360.1845,542.589" id="Fill-351" fill="#0f0f0f"/><path d="M230.9308,582.5245 C231.0188,590.2925 235.0558,596.7955 226.5788,600.7745 C223.7388,600.8595 221.5878,595.3905 217.9168,600.3815 C213.0088,606.1805 220.2518,606.4185 219.9868,611.5495 C216.9218,610.4685 209.6908,612.5695 213.2168,603.5875 C217.5658,592.4535 188.1448,577.6185 212.3788,577.2645 C218.1638,584.4985 221.3498,567.9465 230.5768,574.7275 C224.2248,577.6195 229.9768,579.9625 230.9308,582.5245" id="Fill-353" fill="#0f0f0f"/><path d="M212.3776,577.2638 C204.2406,576.4128 202.7596,581.6538 198.1556,587.5768 C196.1716,590.2728 194.2436,592.0728 191.3876,588.6248 C192.4486,584.6768 196.9866,579.8678 188.8036,578.2158 C188.0846,570.0758 182.5656,567.5988 175.5016,566.9458 C189.0486,566.8788 180.7276,553.4558 190.0046,547.9058 C194.3596,545.0168 193.9816,544.5658 196.8636,550.3658 C201.2566,552.4418 206.1356,558.5268 199.2896,562.3828 C191.4386,565.6448 203.0856,579.5828 204.6286,569.3828 C208.6296,570.0478 209.8656,574.5578 212.3776,577.2638" id="Fill-355" fill="#00684a"/><path d="M315.6828,573.4854 C311.6708,554.1214 328.4058,553.2334 309.4058,545.8404 C330.6338,533.4624 330.5838,568.3364 338.3758,580.3334 C332.1238,578.9194 318.0958,578.0734 315.6828,573.4854" id="Fill-357" fill="#0f0f0f"/><path d="M224.8007,414.2315 C229.4417,412.8245 233.1597,412.8435 236.4097,408.5785 C233.0607,413.3465 246.2617,424.8055 245.3357,415.7805 C246.9347,408.5175 255.3487,411.3085 260.7507,410.8125 C260.2137,415.7105 247.9127,419.3585 259.5877,420.6355 C269.1847,425.4785 254.6107,427.6385 249.7547,429.7105 C242.7337,432.8915 250.3227,418.3685 237.7547,425.4295 C232.2157,433.8525 236.0897,416.1475 224.8007,414.2315" id="Fill-359" fill="#0f0f0f"/><path d="M195.7367,533.0733 C172.6387,535.8413 195.6317,503.9683 204.1197,522.0043 C202.6567,525.9663 195.7157,529.4223 195.7367,533.0733" id="Fill-361" fill="#162b22"/><path d="M230.931,582.5245 C229.977,579.9625 224.225,577.6195 230.576,574.7255 C229.259,570.6065 227.081,565.9625 231.229,563.0075 C239.369,567.4525 245.883,557.9025 247.028,571.5135 C240.372,567.9425 240.806,573.8785 239.332,577.2605 C231.802,580.4165 236.69,567.6935 230.931,582.5245" id="Fill-363" fill="#162b22"/><path d="M250.3065,544.7462 C250.1595,537.3442 267.0595,531.9222 265.2505,541.5852 C268.4385,545.4512 272.8345,561.0212 264.6315,551.7032 C262.9875,546.1742 255.5075,548.0232 258.9175,542.3602 C256.1455,543.2222 252.8615,547.5372 250.3065,544.7462" id="Fill-365" fill="#00684a"/><path d="M202.0182,474.797 C197.9542,476.481 189.5822,473.223 187.2302,470.002 C191.0672,456.645 197.0822,468.5 202.0182,474.797" id="Fill-367" fill="#0f0f0f"/><path d="M230.0285,563.92 C228.9265,569.734 224.8455,565.641 221.2515,564.048 C221.6035,560.259 222.1335,555.605 219.4295,552.149 C227.6625,547.026 230.5995,557.494 230.0285,563.92" id="Fill-369" fill="#00684a"/><path d="M184.7987,562.2198 C171.4457,578.7168 165.1717,542.8348 176.5747,555.0368 C176.0077,561.2248 180.2017,561.9508 184.7987,562.2198" id="Fill-371" fill="#0f0f0f"/><path d="M231.6491,592.712 C230.5211,580.936 251.7701,595.584 237.8221,597.291 C237.5661,603.138 233.3531,604.052 229.0271,604.992 C220.3931,597.843 244.7001,593.671 231.6491,592.712" id="Fill-373" fill="#00684a"/><path d="M221.6945,444.0079 C224.7685,442.0499 230.0235,444.2259 231.3345,438.9239 C245.4755,439.8609 224.1785,459.7499 221.6945,444.0079" id="Fill-375" fill="#162b22"/><path d="M188.8036,578.2159 C206.2096,585.3499 174.4186,595.8509 176.9056,582.7219 C180.6126,579.4369 194.5916,588.0319 188.8036,578.2159" id="Fill-377" fill="#162b22"/><path d="M236.0988,467.3819 C238.1658,471.6999 246.5068,476.8569 238.9158,479.2379 C232.6808,478.8559 231.6248,470.8509 236.0988,467.3819" id="Fill-379" fill="#0f0f0f"/><path d="M221.6945,444.0079 C222.3225,448.0339 225.9925,449.3499 228.5295,451.6709 C221.4635,461.0439 207.4745,443.9079 221.6945,444.0079" id="Fill-381" fill="#0f0f0f"/><path d="M309.3734,545.7579 C305.0774,548.6419 300.8734,553.0059 295.4064,553.6659 C293.2994,546.1319 303.1914,541.2189 309.3734,545.7579" id="Fill-383" fill="#162b22"/><path d="M239.3319,577.2608 C239.1679,571.5878 247.2519,566.2408 246.9199,575.3688 C252.8709,584.3468 245.1249,580.1278 239.3319,577.2608" id="Fill-385" fill="#00684a"/><path d="M242.7763,529.0636 C249.5513,533.1926 242.1633,534.8296 238.6483,537.8836 C233.1213,534.6466 239.2283,532.0686 242.7763,529.0636" id="Fill-387" fill="#00684a"/><path d="M253.733,465.3458 C269.343,466.0658 250.019,474.9148 246.587,468.6608 C246.903,465.4468 251.644,465.9308 253.733,465.3458" id="Fill-389" fill="#00684a"/><path d="M222.12,438.6807 C217.51,442.7317 216.606,434.5877 214.553,431.3287 C217.918,425.1647 219.618,435.1927 222.12,438.6807" id="Fill-391" fill="#0f0f0f"/><path d="M278.6454,384.8809 C274.0754,386.7259 269.9024,390.2819 268.6644,384.5199 C271.7214,379.5709 274.2384,381.5049 278.6454,384.8809" id="Fill-393" fill="#00684a"/><path d="M244.3082,562.7813 C239.9422,562.5843 235.6592,567.1453 231.2292,563.0073 C236.2162,560.6663 241.9932,560.5673 244.3082,562.7813" id="Fill-395" fill="#00684a"/><path d="M180.3822,573.6368 C179.2502,575.6438 178.3232,577.5478 176.6512,575.2598 C176.9582,572.8108 177.7802,571.9958 180.3822,573.6368" id="Fill-397" fill="#00684a"/><path d="M941.6823,562.9679 C946.2003,547.5259 952.0123,536.8469 967.5923,548.7219 C970.6413,553.3659 958.2303,552.1329 967.4703,556.1059 C976.2153,569.1989 953.4453,559.4539 950.2533,567.9509 C947.3953,566.2909 944.5383,564.6299 941.6823,562.9679" id="Fill-399" fill="#0f0f0f"/><path d="M938.4718,435.545 C931.0928,448.147 936.0208,431.473 923.7748,433.395 C927.0988,427.715 932.4968,427.997 938.3028,427.897 C939.3378,430.424 931.7208,433.144 938.4718,435.545" id="Fill-401" fill="#162b22"/><path d="M938.4718,435.545 C931.7208,433.144 939.3378,430.424 938.3018,427.896 C948.8138,418.512 948.0358,441.945 938.4718,435.545" id="Fill-403" fill="#00684a"/><path d="M938.8395,448.5938 C937.9315,453.1628 937.0225,457.7328 936.1275,462.2818 C934.3515,454.4938 925.0205,443.6968 938.8395,448.5938" id="Fill-405" fill="#162b22"/><path d="M936.3063,415.3136 C937.3773,426.9486 920.7953,418.1586 925.1033,410.5706 C927.4263,417.7096 931.1853,417.3946 936.3063,415.3136" id="Fill-407" fill="#00684a"/><path d="M921.8864,477.9522 C919.1114,474.0002 921.6944,471.0542 923.0804,467.2972 C926.9524,472.2552 929.5204,473.9102 921.8864,477.9522" id="Fill-409" fill="#0f0f0f"/><path d="M938.3668,411.1231 C928.7858,399.4571 944.2438,394.2881 938.3828,411.1371 L938.3668,411.1231 Z" id="Fill-411" fill="#00684a"/><path d="M936.2628,415.2774 C938.4838,410.8644 938.5028,410.9234 936.3058,415.3134 L936.2628,415.2774 Z" id="Fill-413" fill="#00684a"/><path d="M1009.3497,625.4347 C984.0607,640.7267 990.4067,611.5057 999.9047,618.5317 C1002.0227,626.2657 1007.8437,618.7327 1009.3497,625.4347" id="Fill-415" fill="#162b22"/><path d="M1035.2867,605.5919 C1030.5577,608.5319 1028.4747,613.4459 1024.3247,607.8269 C1028.5187,606.4639 1030.8117,601.7549 1035.2867,605.5919" id="Fill-417" fill="#00684a"/><path d="M997.3219,642.2559 C1003.5389,640.7819 1007.1939,640.8889 1007.6939,647.0969 C1001.6539,649.5809 1007.0169,640.6169 997.3219,642.2559" id="Fill-419" fill="#162b22"/><path d="M993.2609,643.6915 C993.8739,643.3725 994.4869,643.0535 995.0909,642.7385 C994.4749,643.0585 993.8679,643.3755 993.2609,643.6915" id="Fill-421" fill="#162b22"/><path d="M524.5309,663.7599 C520.7319,727.3649 444.9689,659.6769 483.7669,633.1769 C509.3069,617.3049 521.9029,640.1089 524.5309,663.7599" id="Fill-423" fill="#00684a"/><path d="M924.3781,498.4913 C927.7671,512.6733 916.9861,510.4073 922.6121,497.8673 C923.4161,496.5083 928.9541,498.1193 924.3781,498.4913" id="Fill-425" fill="#00684a"/><path d="M837.0001,582.254 C890.0711,578.946 843.7081,676.209 814.8141,634.679 C807.3681,614.617 809.7091,576.947 837.0001,582.254" id="Fill-427" fill="#00684a"/><path d="M574.6805,520.0645 C622.4795,524.5775 578.0275,596.7155 558.0535,555.3495 C552.8995,541.6545 555.7465,520.7895 574.6805,520.0645" id="Fill-429" fill="#00684a"/><path d="M722.0841,546.9444 C744.9591,547.6964 748.6081,579.8844 729.3911,590.0104 C706.3871,595.0404 690.5071,543.7824 722.0841,546.9444" id="Fill-431" fill="#00684a"/><path d="M359.4362,699.878 C359.5552,699.455 359.7862,699.102 360.1092,698.822 C360.7562,699.864 360.6702,700.03 359.4362,699.878" id="Fill-433" fill="#00684a"/><path d="M299.4213,578.2237 C300.5553,574.4247 299.8313,568.0957 307.0753,573.6457 C324.5603,574.9317 308.4213,578.8907 299.4213,578.2237" id="Fill-435" fill="#00684a"/><path d="M315.08,577.2393 C315.354,576.0483 314.873,574.3913 315.682,573.4853 C316.936,579.1713 321.724,573.2503 324.721,578.2113 C321.507,577.8863 318.294,577.5633 315.08,577.2393" id="Fill-437" fill="#00684a"/><path d="M602.3073,613.5665 C626.2203,605.3755 640.8723,620.0665 619.7873,636.7075 C608.7223,639.2285 602.0413,623.7415 602.3073,613.5665" id="Fill-439" fill="#00684a"/><path d="M925.1134,613.4278 C944.8844,612.0358 931.9434,634.4808 922.3594,635.9008 C910.7004,633.5068 904.8594,611.3718 925.1134,613.4278" id="Fill-441" fill="#00684a"/><path d="M695.5284,646.0206 C689.0434,651.3666 689.1354,646.2796 686.0374,641.9306 C688.8194,636.8966 691.8004,643.5666 695.5284,646.0206" id="Fill-443" fill="#00684a"/><path d="M793.193,500.6593 C782.91,492.3563 788.488,491.4963 794.839,485.1803 C803.201,491.3833 799.345,494.0283 793.193,500.6593" id="Fill-445" fill="#00684a"/><path d="M935.1964,561.5235 C935.5494,562.2805 936.1884,562.8935 935.1544,563.4455 C934.8014,562.6885 934.1584,562.0755 935.1964,561.5235" id="Fill-447" fill="#00684a"/><path d="M197.1735,970.63 C194.3065,971.565 195.7335,968.228 195.4175,966.376 C198.1755,965.977 196.9315,968.761 197.1735,970.63" id="Fill-449" fill="#144936"/><path d="M90.9445,574.1671 C91.2115,577.6281 86.4775,577.8461 84.1575,579.3931 C80.6085,576.6961 88.3985,573.1061 90.9445,574.1671" id="Fill-451" fill="#00684a"/><path d="M90.5951,573.8087 C90.9631,573.5527 91.3321,573.2957 91.7011,573.0397 C91.3001,573.4347 91.0931,574.5757 90.5951,573.8087" id="Fill-453" fill="#00684a"/><path d="M247.3642,294.0743 C244.7772,292.1213 242.7282,286.2943 242.4592,284.2173 C238.0382,284.7023 236.0132,283.7463 237.8922,278.8213 C231.5132,267.7593 243.6052,270.8943 251.3892,269.2243 C248.4712,276.4013 240.7412,277.0293 251.2902,281.5493 C254.1692,283.2733 257.7002,285.7293 259.7882,288.0023 C254.5192,290.1973 249.8322,287.0383 247.3642,294.0743" id="Fill-455" fill="#00684a"/><path d="M259.9101,287.838 C262.6961,288.239 266.7621,286.907 264.0881,290.716 C262.8721,289.722 260.5601,288.934 259.9101,287.838" id="Fill-457" fill="#00684a"/><path d="M256.7907,294.838 C255.3467,295.712 254.8467,295.346 254.5007,293.792 C255.9397,292.918 256.4267,293.317 256.7907,294.838" id="Fill-459" fill="#00684a"/><path d="M475.5094,403.5343 C481.6754,402.6473 485.7684,413.8773 479.2254,408.0903 C476.4204,405.4623 474.6234,408.9473 472.4274,410.4543 L475.5094,403.5343 Z" id="Fill-461" fill="#00684a"/><path d="M484.0446,403.6427 C484.3986,403.3717 484.2956,403.6867 484.3466,403.9377 L484.0446,403.6427 Z" id="Fill-463" fill="#00684a"/><path d="M594.5526,266.8731 C592.0236,262.1781 578.6176,260.6091 581.5106,258.9751 C591.4086,264.3301 608.7626,253.5051 614.3676,262.7721 C612.6596,274.9021 598.0316,273.7071 612.2436,283.8501 C594.5256,286.5751 609.4276,265.9521 594.5526,266.8731" id="Fill-465" fill="#00684a"/><path d="M585.8046,309.1788 C592.0886,307.7558 608.6616,310.5748 600.1486,298.2088 C620.3996,297.8068 591.3446,317.3738 585.8046,309.1788" id="Fill-467" fill="#162b22"/><path d="M613.3785,285.6583 C612.7835,285.5813 612.4435,285.1613 612.4685,284.5703 C613.1685,284.5853 613.4225,284.9953 613.3785,285.6583" id="Fill-469" fill="#00684a"/><path d="M484.7663,309.8419 C489.0033,303.9159 490.3473,296.4469 499.0123,296.9969 C502.8483,308.4689 493.8853,309.5909 484.7663,309.8419" id="Fill-471" fill="#00684a"/><path d="M594.5526,266.8731 C602.9316,267.8961 602.5726,267.8461 601.4956,275.3571 C606.1046,292.4401 592.4116,293.8481 594.5526,266.8731" id="Fill-473" fill="#0f0f0f"/><path d="M590.1976,295.3966 C580.6136,297.4286 579.8816,292.9406 577.2446,285.8146 C580.6876,280.7756 586.7286,291.8276 590.1976,295.3966" id="Fill-475" fill="#0f0f0f"/><path d="M593.3429,396.3419 C590.6699,400.1599 587.9349,393.4979 586.0389,390.6119 C588.4969,381.3659 592.6879,390.6689 593.3429,396.3419" id="Fill-477" fill="#00684a"/><path d="M709.8739,292.252 C706.5929,293.771 704.2649,298.698 702.1759,294.358 C704.9759,293.087 706.9249,288.848 709.8739,292.252" id="Fill-479" fill="#162b22"/></g></g></svg>