<svg viewBox="166.04999999999995 55.34999999999991 1143.9 1365.3000000000004" xmlns="http://www.w3.org/2000/svg" overflow="visible" xmlns:xlink="http://www.w3.org/1999/xlink" width="1143.9px" height="1365.3000000000004px"><g id="Master/Spot Illustrations/Mobile Life" stroke="none" stroke-width="1" fill="none" fill-rule="evenodd"><g id="Group-537" transform="translate(172.000000, 64.000000)"><path d="M269.014786,890.758395 C272.394907,888.46897 276.286944,886.161067 271.143763,884.466634 C267.705428,886.185089 264.502721,887.474853 269.014786,890.758395 M220.92152,972.388687 C225.713567,969.061722 233.183469,966.885936 226.092422,965.310686 C223.075447,966.867458 218.280627,968.041736 220.92152,972.388687 M139.057536,1058.55441 C134.311691,1054.99646 132.399862,1053.21241 129.810715,1058.63294 C131.695747,1062.96326 134.06405,1060.89926 139.057536,1058.55441 M246.25672,1164.83621 C243.792318,1167.73171 236.332581,1171.25454 242.275976,1172.69952 C246.335263,1170.25026 252.188103,1169.47326 246.25672,1164.83621 M426.723587,815.736763 C422.588529,812.395939 420.866127,809.005225 417.100684,814.619767 C421.29488,817.362828 422.494278,822.556995 426.723587,815.736763 M277.910474,917.86286 C278.23943,913.994489 277.931726,910.928988 273.241323,911.394634 C265.343593,912.673312 276.676886,925.469331 277.910474,917.86286 M328.558697,930.461165 C321.697735,923.039474 320.73951,926.101279 317.015648,933.129389 C319.968864,938.221004 323.811927,932.615701 328.558697,930.461165 M208.333387,967.248105 C201.418831,972.110593 202.807656,973.330141 209.044894,976.62015 C213.888688,974.603276 210.951179,970.914142 208.333387,967.248105 M242.299077,966.897023 C239.623995,973.45764 242.465403,976.632161 247.19554,979.159953 C264.474076,984.573085 252.986469,947.746417 241.478534,950.175351 C233.62793,951.677613 241.978437,963.092402 242.299077,966.897023 M420.447539,1167.85551 C442.077358,1164.40382 391.691561,1130.79695 387.47334,1136.39855 C383.768882,1151.58563 409.551315,1160.66664 420.447539,1167.85551 M96.0917429,1114.96314 C84.7159443,1128.7967 116.628428,1136.32649 124.32749,1144.04845 C148.41709,1134.56092 108.262212,1116.36932 96.0917429,1114.96314 M636.430627,1114.19353 C631.123893,1085.32904 615.572378,1131.03531 616.611918,1141.91331 C627.882377,1175.37237 634.587177,1125.06784 636.430627,1114.19353 M263.876225,1174.26276 C254.225601,1183.21074 247.5208,1197.00457 242.647438,1209.6001 C241.696606,1231.01704 260.412017,1213.05826 261.803614,1201.43467 C263.448397,1193.85499 278.13871,1175.80198 263.876225,1174.26276 M451.346356,983.049573 C437.379562,971.398266 417.413007,973.310739 400.529958,974.434202 C380.443279,983.928202 459.940808,1003.31071 451.346356,983.049573 M298.388944,1111.07444 C353.663812,1101.49729 376.303601,1014.18779 306.647048,1009.79372 C227.83238,1003.79391 207.783586,1115.21629 298.388944,1111.07444 M527.561712,1057.95202 C471.110547,1050.91929 440.439043,1130.18717 483.668187,1165.34528 C512.162664,1174.37363 546.353818,1178.29189 567.941131,1153.49441 C578.626675,1130.99928 564.079587,1141.87081 553.169502,1150.77259 C514.169668,1174.3108 461.668754,1147.74497 477.109384,1099.25314 C494.89614,1044.5296 591.752596,1068.12878 551.365785,1123.17107 C522.979421,1165.18729 491.133468,1094.95423 526.78737,1086.96988 C532.830561,1088.22547 537.333385,1095.49656 537.101452,1102.13756 C536.920341,1108.20943 524.345145,1105.70196 528.811008,1113.75191 C546.898075,1122.75162 548.589983,1093.75963 538.109575,1084.69894 C503.168104,1058.97478 486.285055,1132.41377 516.953787,1145.19408 C576.422851,1169.51391 596.642591,1052.68487 527.561712,1057.95202 M37.8599621,1231.41154 C22.2012598,1292.53771 121.231047,1359.6951 159.933342,1280.57413 C184.294609,1202.90182 76.0429489,1159.39351 37.8599621,1231.41154 M340.207086,856.949186 C370.500659,861.859716 371.426543,823.306279 340.797544,827.332636 C322.667972,835.418612 326.350252,870.844647 338.85707,882.393402 C359.674662,891.670285 376.977223,871.508008 384.759448,854.805737 C394.317669,807.936272 323.036662,789.962715 306.384621,832.960113 C268.994457,933.864814 431.790997,947.694678 408.619888,854.125746 C401.847633,847.917136 404.194682,863.62067 402.435319,867.355999 C398.433322,906.286388 332.213256,915.919897 319.200991,878.965731 C315.460496,854.618185 309.744414,819.986705 343.706407,818.802264 C405.628785,819.130249 349.763459,904.679726 340.207086,856.949186 M298.063684,1235.23002 C304.581829,1225.48102 284.540427,1221.01859 284.552439,1231.64067 C283.357662,1238.61704 297.434416,1244.13919 298.063684,1235.23002 M379.153326,1040.3933 C383.974942,1052.79758 380.728806,1033.42801 373.833654,1037.65393 C364.397406,1041.92697 373.631291,1047.56461 379.153326,1040.3933 M44.1239974,1304.08462 C40.6135873,1299.67392 38.7008342,1294.10095 35.8012114,1289.13591 C33.9466726,1286.47785 32.1069183,1283.80501 30.2449871,1281.15526 C25.3928778,1257.68172 0.759944622,1198.70547 22.4692301,1183.38073 C28.0892128,1179.3941 43.0465722,1172.2542 39.0159302,1163.71551 C30.8622427,1153.42604 24.1814675,1171.21204 15.7089878,1169.15082 C12.1070982,1161.36142 14.6833086,1150.33929 8.3287178,1142.84091 C4.87467383,1120.32361 2.81592317,1097.73425 2,1074.97396 C10.7829556,1086.08479 60.7723415,1052.39753 37.3295658,1048.62155 C-2.11010903,1068.84758 5.50671398,1075.12918 4.20474824,1030.90299 C2.24209725,1015.95059 21.52579,984.704279 37.2602632,995.059354 C52.2157746,1022.39387 81.673096,1042.49425 112.811238,1044.13417 C201.80785,1047.0925 186.399561,935.35137 163.372601,886.426227 C239.368037,843.869529 199.622506,839.080029 242.720437,888.915214 C251.784299,872.448538 221.900074,849.439724 233.880191,838.236508 C269.581219,814.931122 305.597343,794.339231 339.74784,770 C349.836458,781.630982 366.251945,768.131873 377.053918,782.015324 C386.003199,780.000297 439.617576,797.734565 433.263909,808.781641 C431.010187,811.894261 432.493264,812.880987 435.608187,812.327571 C449.730218,809.456088 457.870969,825.360109 468.952925,831.735945 C469.767924,832.417784 470.770502,834.288682 470.473887,834.675796 C465.862951,840.673757 471.286114,837.823525 473.28665,837.937164 C552.808204,900.223754 489.582937,868.063707 477.023449,923.467239 C454.304193,992.662756 547.899729,1018.19567 592.416054,978.6786 C609.623439,983.872768 610.215746,1004.77047 619.797068,1017.43068 C627.327956,1030.88359 641.508201,1040.66307 646.425917,1055.39467 C694.215175,1140.02671 724.079072,1161.62011 626.215417,1228.1705 C593.15251,1250.68965 555.969329,1263.0773 518.817566,1275.49267 C512.84645,1278.30318 512.792856,1241.38043 508.083972,1234.17955 C505.69534,1226.85025 499.374939,1228.8662 497.549969,1234.76807 C494.687308,1248.28843 502.480622,1261.33852 505.976247,1273.93683 C520.201771,1281.9646 481.423705,1282.9892 477.112156,1289.18303 C467.698085,1284.27527 462.724927,1294.05199 454.796704,1296.53358 C441.904563,1288.88738 434.581583,1305.87052 421.804947,1303.54968 C419.228737,1302.84936 416.966698,1302.101 417.461057,1298.51442 C420.603701,1270.38443 399.630872,1241.51901 370.320472,1239.94284 C318.008062,1239.09562 297.560084,1277.67585 296.231322,1320.12722 C250.232844,1317.73432 239.177686,1345.73497 227.896139,1286.70051 C219.310927,1272.01789 212.256841,1288.96684 216.729172,1298.726 C216.517568,1307.35707 229.110321,1321.90481 219.378381,1327.01213 C192.372525,1332.40494 166.406209,1328.422 139.364316,1331.82011 C104.857142,1332.94634 63.9473268,1339.39424 44.1239974,1304.08462" id="Fill-1" fill="#162b22"/><path d="M1043.64274,1274.50918 C1043.72305,1274.24691 1043.80336,1273.98464 1043.88459,1273.72145 C1043.2892,1274.06037 1042.73073,1274.28939 1043.64274,1274.50918 M1081.80788,1320.55398 C1076.12627,1302.2201 1064.31257,1284.77922 1046.85048,1276.99335 C1052.51179,1294.92182 1068.45816,1307.94753 1081.80788,1320.55398 M913.954205,1131.9476 C974.161796,1160.27633 912.492031,1078.18988 886.362136,1096.42588 C853.910924,1140.21646 870.994542,1138.38797 913.954205,1131.9476 M897.017358,1140.96171 C873.571808,1141.27385 861.891956,1152.67238 859.360844,1175.64307 C858.832837,1202.50438 1006.58993,1140.00314 897.017358,1140.96171 M899.807858,1214.77007 C859.155918,1220.87521 844.08002,1213.17244 841.817528,1262.05233 C840.892592,1265.81645 842.507999,1266.89507 845.049264,1267.22568 C874.366588,1258.2716 901.559882,1239.60342 928.105167,1223.90515 C936.427743,1214.10978 907.493501,1217.63286 899.807858,1214.77007 M957.445568,1180.45256 C947.615588,1132.66792 935.867427,1180.88013 907.152881,1183.67459 C892.458219,1193.14674 849.435786,1185.01733 853.556457,1206.8863 C852.207824,1214.69065 852.621368,1215.31492 859.861159,1213.96571 C884.565804,1209.36493 909.269526,1208.3334 934.113557,1213.19738 C948.360521,1213.52891 956.489247,1194.03328 957.445568,1180.45256 M842.144302,1290.95824 C841.372599,1304.14371 859.310074,1339.2748 873.608731,1319.53723 C883.298402,1302.61535 898.756459,1291.98146 914.23667,1281.54057 C925.58421,1266.6365 978.166159,1266.33821 975.385813,1253.50736 C968.674952,1242.5327 949.971312,1215.08682 936.180355,1229.62612 C920.54968,1242.44035 901.272801,1251.14601 883.837486,1261.50102 C869.091131,1271.74982 839.1858,1268.18979 842.144302,1290.95824 M914.164669,1085.15386 C899.984168,1087.82826 949.484844,1104.62732 954.865533,1152.49415 C983.646541,1184.21575 945.675254,1210.70028 954.838763,1221.80053 C965.769989,1227.04129 971.941766,1237.43508 979.255404,1246.65974 C984.316704,1253.35129 987.758905,1262.83175 999.231062,1256.40617 C1006.11823,1255.08651 1029.49363,1264.5799 1027.22744,1253.2377 C1010.72999,1196.96811 1034.278,1218.99684 991.190029,1174.1812 C949.123916,1098.11215 1039.82669,1075.31231 914.164669,1085.15386 M514.210286,1270.18913 C516.583549,1284.0746 540.033715,1268.1741 547.825514,1264.71473 C603.255194,1245.02241 674.036776,1214.81716 691.505322,1152.18109 C697.783254,1130.51805 674.699554,1114.24261 669.317942,1094.58722 C651.74601,1068.56074 640.22216,1041.8324 619.765573,1017.71568 C610.178365,1005.04828 609.614358,984.181283 592.416277,978.983004 C589.309157,966.551093 581.957672,952.78475 571.316296,943.792808 C568.499027,933.313136 579.222558,930.036623 585.576183,923.899163 C601.062856,909.739417 622.078836,908.361582 636.244567,892.411205 C669.543176,866.594348 681.650418,855.734202 725.679019,868.116246 C741.090922,858.306099 759.557328,876.445128 777.965579,871.588537 C803.94778,882.798683 834.725431,874.63141 860.427936,888.815166 C935.948659,909.713559 1040.18301,921.546131 1061.81469,1009.73957 C1063.44948,1044.80232 1056.42569,1078.454 1047.55111,1112.21834 C1035.2574,1107.3756 1025.15695,1097.69105 1011.55061,1094.68788 C983.631772,1079.77919 988.466915,1121.13733 988.079217,1137.8662 C984.303781,1150.0931 1014.57835,1207.69435 1021.11936,1182.07789 C1026.46866,1161.67725 1041.22056,1127.47241 1064.08364,1129.68692 C1039.94208,1148.76605 1002.18126,1199.01454 1053.12011,1206.69884 C1069.18648,1210.76123 1085.39501,1210.08432 1101.37276,1205.09105 C1140.05391,1210.35398 1050.78469,1224.86188 1039.679,1210.09356 C1015.21805,1195.66231 1030.02533,1239.8583 1033.29122,1252.3881 C1036.65957,1268.32555 1047.45049,1250.59285 1055.61337,1247.83256 C1065.97782,1236.97611 1125.16909,1213.91954 1114.78249,1231.03812 C1093.78312,1236.10804 1050.16991,1245.39088 1047.60926,1267.10655 C1079.25092,1280.72791 1082.48174,1319.27588 1107.94332,1336.919 C1075.83734,1345.96081 1057.50201,1300.9854 1039.44638,1279.64651 C1014.08726,1258.24667 1005.33822,1391.65654 1003.57789,1327.19289 C1003.29542,1277.90021 1062.207,1262.94257 997.633194,1263.96948 C978.891707,1262.45959 992.792512,1291.287 988.006293,1302.96442 C984.940713,1316.15636 975.513199,1353.28679 959.615752,1347.36543 C971.390682,1331.08814 999.601221,1274.13886 971.854072,1266.43887 C943.757997,1275.35417 914.657599,1282.25719 894.082857,1304.81785 C859.714388,1346.18522 883.438712,1329.82389 827.237329,1328.56426 C753.068932,1320.04699 679.742392,1315.05927 606.29862,1300.16073 C564.188199,1293.3676 523.053484,1274.05852 482,1287.90428 C487.910542,1280.02791 498.352531,1284.42276 506.024328,1280.43239 C509.003138,1278.92342 512.460108,1276.46511 506.062175,1274.10377 C501.987658,1267.09732 508.979138,1269.83359 514.210286,1270.18913" id="Fill-3" fill="#144936"/><path d="M752.575605,823.982339 C748.910111,821.577442 747.101837,818.270247 743.564714,822.275638 C747.312402,826.146193 748.076162,830.50807 752.575605,823.982339 M403.887293,207.385712 C387.844639,201.971922 454.157849,327.246381 457.076206,294.951123 C466.395556,262.479469 475.461859,229.93855 484.728567,197.45489 C486.661517,182.239574 464.935454,174.575119 456.082487,164.359846 C446.656008,159.809567 452.130698,157.131302 449.054417,150.424557 C441.592288,153.462079 444.809869,157.373269 435.041683,152.276254 C407.847394,139.437206 388.659193,171.122004 396.565541,194.782166 C399.325051,199.562407 407.511229,196.658799 412.381007,198.054267 C417.05592,198.430148 414.188357,194.168936 415.714953,192.765155 C420.03523,191.112019 423.3701,183.538071 426.435299,189.650056 C430.192223,208.391446 405.467455,198.084744 424.990897,222.541921 C417.16305,222.152187 413.516026,216.441018 411.22567,209.500617 C407.926817,214.720463 404.545771,212.859531 403.887293,207.385712 M737.256998,865.017053 C733.144515,865.524076 728.391102,863.182903 725.128267,867.921585 C724.851208,868.324248 722.167428,867.069158 720.602043,866.5843 C731.671484,838.763591 743.129731,811.074949 753.357835,782.931925 C792.244949,660.821513 835.712776,526.462195 808.502786,397.872229 C793.089056,360.489191 758.386461,407.255391 744.145615,422.905694 C723.257194,448.005655 720.981614,482.057485 711.259605,512.111312 C711.7971,533.879142 664.140137,617.564763 705.562343,597.010465 C742.008565,606.175672 619.949185,620.662315 615.331531,654.497114 C610.153293,656.589855 610.294593,644.1978 604.327661,652.343419 C591.781494,661.805083 578.82805,669.814942 567.818639,681.962259 C560.497809,680.782899 559.784844,685.56037 559.732202,690.931676 C537.652427,718.696972 517.661678,744.759261 510.294672,780.649859 C504.843069,797.713178 497.267346,781.606646 501.710453,772.011069 C501.395529,763.902391 514.710073,748.64921 504.28618,744.765726 C468.530759,733.163297 430.822994,726.937717 396.869382,710.416516 C372.90191,700.158761 370.763012,670.827142 368.314732,648.06189 C332.345975,647.212233 344.715748,686.99278 343.45051,711.996692 C340.87663,732.750475 356.222942,759.9284 348.817148,776.709115 C321.886065,747.187247 334.443314,690.666621 332.031975,651.337685 C307.625825,622.813239 282.349709,587.800928 299.779507,548.408267 C303.250136,536.945293 318.820866,521.530493 332.200058,529.538505 C334.851515,532.322054 331.018862,533.144004 329.830277,534.998472 C328.326769,538.917051 330.348378,545.08999 328.71927,549.58301 C317.046763,548.340849 325.4315,534.184833 315.526631,544.340999 C308.601997,547.902168 300.742749,566.388661 309.755487,570.036642 C310.793536,570.165938 312.585186,572.098907 312.402327,572.722296 C310.96716,577.361235 307.660919,570.852128 305.610681,575.540939 C306.592394,597.918304 316.328256,619.619639 335.20338,631.837145 C355.913559,646.872371 376.156432,628.378489 380.478557,605.995582 C392.26281,589.057865 392.449364,618.604669 388.008104,626.215559 C364.80162,682.886723 407.978535,710.917074 458.598185,719.771973 C477.217491,721.192377 503.942627,741.363406 519.067292,728.555758 C551.825855,671.828259 607.072394,632.660019 666.8036,608.125265 C685.752606,583.087181 684.576027,544.483224 697.253336,515.031545 C716.550513,445.480697 733.915664,375.336938 755.335115,306.427027 C761.359307,269.298886 788.168484,226.677531 770.814416,190.593914 C722.232075,149.030012 649.184478,145.586133 589.359996,126.900155 C515.630833,111.415166 519.740546,132.615018 500.345474,195.186676 C490.001005,210.694754 439.253908,451.468005 425.679851,404.912371 C426.245052,388.968383 450.596714,346.903923 437.944341,338.967023 C402.004214,338.302998 378.229759,364.982211 374.508853,399.179961 C365.002027,412.361642 393.647183,414.950324 379.918897,427.54094 C374.5578,509.207704 543.1225,545.647807 463.213992,425.038147 C456.243181,413.145727 464.52633,407.828909 470.307633,418.756231 C539.969566,502.384593 459.133833,551.287864 391.887857,484.177932 C379.343537,473.656045 382.377336,459.282997 365.971734,470.830014 C388.173416,405.571779 291.573935,465.089291 369.043398,555.636812 C371.717019,558.69927 381.825988,572.280844 380.702975,559.50552 C389.5818,586.870923 424.907779,570.468859 424.44509,546.587047 C421.399286,528.189214 439.755385,525.420442 440.832222,543.197657 C418.504016,668.048211 281.618272,507.710646 338.004449,445.722665 C344.0231,435.70226 354.675105,437.352625 363.279642,431.653462 C362.034722,427.87249 355.234764,428.288083 359.307535,424.79618 C358.340599,385.933632 369.901358,342.457079 410.466527,326.79477 C418.84757,318.119962 451.852716,329.535836 446.485154,315.516504 C414.627034,272.051958 373.287945,212.848449 388.76817,156.764656 C425.959681,97.2813148 490.099823,190.246663 492.706027,170.622369 C508.093898,47.5717933 672.046484,144.927649 745.302799,156.075696 C828.130588,180.038779 777.108278,269.588877 764.171458,325.856454 C759.865957,349.972845 723.503777,430.163792 764.263811,382.945981 C852.584761,322.286973 834.837269,503.446663 827.353898,549.513744 C809.456794,657.653772 780.523495,764.197924 737.256998,865.017053" id="Fill-5" fill="#0f0f0f"/><path d="M603.697238,575.630444 C603.560502,574.704245 603.013554,573.163967 603.345233,572.942344 C614.383034,568.296577 604.587875,559.53509 611.53004,554.842228 C623.800319,552.525346 616.314904,576.684999 625.591756,570.029852 C632.908099,554.935494 636.546406,537.367272 639.707983,521.214666 C631.953713,517.713026 646.329555,513.990687 645.322507,503.203199 C650.822467,492.592085 635.175343,479.488639 647.140736,476.25664 C649.092931,478.258632 648.808371,485.059681 651.62441,481.389054 C653.452803,473.246264 660.269317,460.755051 647.81241,468.749169 C643.62346,464.928946 648.783426,448.584267 655.421628,453.182939 C666.651599,453.884745 668.04576,412.794036 674.358751,401.70274 C675.221671,398.584323 676.333119,396.526925 670.82392,397.238888 C666.279269,397.827112 661.33919,392.46107 656.570032,397.821571 C656.143192,398.301754 653.244002,397.630421 653.183025,397.232424 C649.446784,388.079403 637.150635,390.76935 629.19588,388.131115 C610.080445,385.927816 591.416796,371.852923 574.156546,377.964171 C571.042089,367.675334 538.993016,367.094497 528.273959,364.530137 C526.197038,375.275148 525.402487,364.265113 524.142291,364.10259 C493.086407,342.306914 504.606483,386.03401 493.392217,401.530982 C469.455887,410.565804 494.277311,363.830179 494.903713,351.540273 C497.127534,337.472767 595.342435,359.349705 595.915251,372.986893 C601.781075,375.407198 601.147282,368.472252 604.216469,365.434173 C626.439894,368.340202 649.64265,374.436675 672.667095,380.080668 C680.677284,381.108444 695.529857,391.128563 687.868901,398.375628 C682.929746,428.901394 670.547674,457.900734 663.526055,488.131003 C653.599702,521.410433 643.609601,554.672317 634.201555,588.105035 C626.760486,615.931621 590.489203,593.384275 570.897961,593.260535 C514.312948,587.976679 495.407237,555.809981 567.146014,576.549255 C580.014055,575.840985 619.589196,599.614645 622.125294,583.857266 C627.353628,580.538465 628.174049,578.491224 621.970079,577.078379 C614.820038,576.996194 610.506361,588.732043 604.657168,583.925599 C605.08216,579.011114 614.363632,573.265544 603.697238,575.630444" id="Fill-7" fill="#0f0f0f"/><path d="M241.499392,347.5297 C231.720031,313.82433 222.801675,355.602076 225.086581,365.468006 C231.022893,365.720412 241.221648,356.030429 241.499392,347.5297 M223.9969,270.48517 C192.873848,268.344327 204.683517,307.817259 222.571148,303.496885 C223.542325,294.275787 242.05488,269.923244 223.9969,270.48517 M225.696692,258.306135 C242.398356,262.013919 238.477539,245.678481 245.921074,235.896379 C257.864986,227.768732 253.669202,248.020143 252.05551,254.170919 C248.063405,272.602061 285.472726,274.757642 279.313293,297.235566 C265.719583,314.131086 249.823376,233.027798 237.609126,312.293315 C238.011855,327.786786 265.919558,329.732336 253.148895,360.861142 C243.436193,387.162919 213.866655,371.768936 212.30666,400.867442 C204.076184,417.28026 192.086907,396.661295 199.337874,386.595467 C201.459837,370.333724 173.598424,364.930032 173.75859,345.742594 C173.62805,339.768686 170.119219,327.1005 179.384754,326.676754 C185.929326,326.709917 188.724355,332.247181 187.694851,337.953024 C186.19596,346.982514 200.446997,365.923073 207.374855,357.928077 C208.245119,343.040748 224.743105,325.438676 209.54959,314.706829 C178.382099,293.948765 189.812185,252.253926 225.696692,258.306135" id="Fill-9" fill="#0f0f0f"/><path d="M946.779751,785.96061 C946.667271,776.159649 936.689746,766.553188 928.065667,769.856914 C929.594288,781.701054 942.319275,810.362058 946.779751,785.96061 M893.937218,758.42956 C899.007114,758.788923 904.006019,758.64351 900.643605,752.443583 C890.235521,699.265357 849.876419,757.506147 893.937218,758.42956 M898.565492,771.141542 C866.51239,778.145404 842.759757,737.042866 876.189355,718.543112 C891.966975,710.569527 867.083088,696.306174 877.811095,686.014331 C884.535921,685.568833 887.607915,695.623571 891.026568,700.290651 C897.946852,716.215592 939.56075,691.611308 936.693433,719.107163 C894.458129,712.935947 897.62693,716.537907 917.605031,751.522022 C929.464291,761.631405 950.277694,747.19578 959.466016,776.23467 C968.982558,794.965973 948.510283,805.520854 950.147696,819.678621 C953.948044,826.347202 959.503817,835.434995 952.251625,841.669192 C945.103616,843.911502 939.089625,834.238355 936.959882,828.212552 C931.629991,817.655818 880.875713,830.357612 884.892723,799.010652 C895.134853,788.883671 902.098469,812.766452 914.406727,808.724551 C935.273604,813.342543 913.87844,765.22966 898.565492,771.141542" id="Fill-11" fill="#0f0f0f"/><path d="M876,1331.40068 C878.333687,1302.65686 963.571071,1251.91073 981.608815,1271.30721 C986.495406,1353.47076 945.209589,1359.92821 879.672111,1335.51782 C878.447458,1334.14482 877.223729,1332.77368 876,1331.40068" id="Fill-13" fill="#00684a"/><path d="M211.236515,637.556882 C203.515961,580.074204 149.641727,604.006946 137.428426,645.438829 C126.282764,653.309706 117.304647,639.874234 105.463822,647.317065 C95.8154344,651.301396 81.3663637,651.344754 77.274673,662.357709 C45.7314074,709.260091 153.960221,747.713181 186.710342,726.507386 C202.094287,700.265594 221.091423,663.850334 211.236515,637.556882 M222.869897,650.347518 C220.009033,685.969417 213.178178,736.150409 173.799112,743.925345 C131.182098,745.298043 75.8714388,727.828424 60.4570683,684.251699 C54.5408045,632.311476 107.58158,643.440667 131.508475,627.341901 C158.972957,572.05019 226.35309,586.26334 222.869897,650.347518" id="Fill-15" fill="#0f0f0f"/><path d="M43,980.649391 C55.9292444,969.410933 62.8173821,997.794258 73.9776633,1003.29186 C120.128833,1012.71012 173.696148,957.923677 136.692174,916.104333 C133.711845,912.824638 133.640643,910.031441 137.406047,907.255816 C174.528384,859.161026 185.347449,1013.61929 146.917577,1024.49612 C110.475824,1045.56441 52.6983204,1019.50721 43,980.649391" id="Fill-17" fill="#162b22"/><path d="M1107.66129,1336.86172 C1082.01585,1319.21936 1078.87072,1280.72905 1047,1267.09532 C1049.86393,1245.46465 1093.0391,1235.99552 1114.52042,1231.03898 C1133.09049,1211.27463 1144.74666,1341.8275 1107.66129,1336.86172" id="Fill-19" fill="#00684a"/><path d="M308.80286,1297.85204 C310.312007,1314.58574 303.899055,1320.52111 327.292677,1318.16663 C335.094856,1317.65454 336.43796,1316.49493 334.633625,1308.83591 C332.948288,1272.38876 397.418196,1266.90982 399.797224,1305.64186 C432.956945,1236.65223 310.190242,1231.08052 308.80286,1297.85204 M47,1309.18936 C74.2107676,1345.29975 125.923956,1332.95496 164.891495,1329.08927 C236.715265,1331.79905 222.107166,1335.14431 215.204387,1286.82828 C233.357506,1263.54137 228.70092,1328.8527 245.869773,1326.34701 C262.307113,1317.62949 285.431377,1326.68562 299.541347,1317.24821 C281.279378,1259.94657 372.620587,1209.74269 406.700925,1261.84555 C419.690105,1272.99362 412.173889,1297.72123 421,1303.93306 C412.032752,1310.25156 396.772473,1307.53343 385.629138,1310.42319 C391.40467,1298.75654 387.421481,1290.64944 374.75424,1288.36547 C351.692704,1279.07278 326.358223,1323.19935 362.962416,1316.66284 C296.763815,1326.53719 228.99703,1330.98454 161.785567,1335.0905 C124.187884,1332.13117 64.4409785,1354.35958 47,1309.18936" id="Fill-21" fill="#00684a"/><path d="M981.829088,429.268827 C981.10058,411.641406 1020.13398,406.64209 1035.62494,402 C1049.84656,402.908715 1043.73837,429.234761 1046.38985,439.584173 C1060.03365,479.062194 1016.9426,475.340788 992.266717,490.846953 C961.62132,506.938673 950.624367,427.035247 921.968498,442.762375 C870.638291,460.402686 907.308668,433.985492 930.629235,426.832696 C948.01912,423.860727 958.20436,451.682885 971.64847,461.018624 C971.678979,462.079252 973.688846,462.999016 974.336922,464.434363 C974.105797,465.22431 975.413043,465.506039 975.857728,466.460789 C988.106457,489.8342 1013.31393,465.126717 1032.45852,460.837249 C1036.80183,457.678381 1035.03511,453.362214 1032.84312,450.834935 C1028.30289,443.652677 1033.77594,434.792012 1031.1596,426.422071 C1026.75434,422.580976 1030.9673,413.520522 1023.18669,421.075657 C1015.74537,435.029548 1009.3432,421.383166 998.141003,427.249766 C992.792759,428.876615 987.415854,429.541349 981.829088,429.268827" id="Fill-23" fill="#0f0f0f"/><path d="M1111,1204.49077 C1064.78888,1216.4125 995.080865,1206.98096 1045.59012,1148.36765 C1061.89436,1124.33977 1075.30226,1132.87237 1087.15037,1156.11343 C1093.6807,1173.30467 1108.27359,1185.72314 1111,1204.49077" id="Fill-25" fill="#00684a"/><path d="M1060,1126.59604 C1023.19227,1138.48758 1023.67087,1203.17837 1010.40246,1184.70475 C987.810157,1165.7079 984.17206,1135.64527 988.699778,1107.95138 C988.909917,1069.42895 1051.46389,1110.7753 1060,1126.59604" id="Fill-27" fill="#00684a"/><path d="M43.5170922,988.187426 C119.57074,1085.25827 202.718981,1009.83062 161.139316,907.168751 C141.699184,856.121199 189.792162,924.981211 181.690259,962.515036 C194.073686,1030.64767 115.854787,1068.5618 64.7629864,1026.13848 C56.4808766,1019.57454 18.2382672,983.47516 43.5170922,988.187426" id="Fill-29" fill="#00684a"/><path d="M529.177669,244.0959 C494.847205,278.608527 556.369742,328.57865 579.868974,284.269187 C597.210712,255.640001 554.647887,220.169968 529.177669,244.0959 M547.572009,315.907756 C501.300714,313.216894 489.497778,238.439843 539.187043,227.056843 C607.277084,208.675578 616.568483,319.641638 547.572009,315.907756" id="Fill-31" fill="#0f0f0f"/><path d="M1009.08272,1344.17387 C1007.52327,1314.06488 1028.22247,1243.43805 1053.49088,1300.77742 C1121.70881,1366.26288 1066.22821,1337.70965 1009.08272,1344.17387" id="Fill-33" fill="#00684a"/><path d="M62,967.088724 C74.7206931,953.78527 86.9985509,939.239467 103.474597,930.498419 C110.360177,942.373682 101.996024,955.764481 88.9890075,953.393145 C87.9505084,982.081476 137.192673,936.948043 109.158722,924.867425 C130.028134,899.606009 146.608214,951.045039 133.116932,966.256155 C116.77254,991.700625 68.8680879,1008.1002 62,967.088724" id="Fill-35" fill="#162b22"/><path d="M725.182198,55.9811804 C718.42632,67.0853156 777.104251,45.6269277 764.946261,41.0184087 C726.735698,10.1089312 728.237415,3.15622629 725.182198,55.9811804 M710.345344,62.3253516 C716.21813,48.8586734 707.048779,-14.5463242 734.803729,3.06719496 C744.465022,16.1557194 801.076243,36.6696409 782.159601,52.8522337 C763.809801,55.2661762 704.971897,101.467015 710.345344,62.3253516" id="Fill-37" fill="#0f0f0f"/><path d="M1118,1223.93978 C1055.29196,1222.09496 1028.38449,1306.32442 1026,1208.90718 C1026.09331,1202.04202 1035.56012,1209.41948 1039.15117,1209.94736 C1064.32179,1230.3907 1116.40172,1195.19153 1118,1223.93978" id="Fill-39" fill="#00684a"/><path d="M968,1346.91005 C1012.38724,1292.98444 954.50611,1252.69668 1025.54014,1265.3353 C1037.73125,1262.89317 1000.51395,1300.59738 1003.02407,1326.701 C1005.54161,1357.10932 996.126556,1338.90334 977.916337,1347.36483 C976.525529,1348.92329 971.408914,1347.15408 968,1346.91005" id="Fill-41" fill="#00684a"/><path d="M62.0272843,967.099305 C69.7598725,1016.02251 141.829223,983.922883 138.300194,946.269761 C137.592353,926.605032 114.473237,915.786235 140.014743,904 C137.489646,908.563818 131.388332,911.367902 136.777179,916.451579 C171.251364,953.356884 126.351092,1010.79705 82.0318979,1003.34019 C70.4501334,1006.96901 64.948402,993.599105 58.4575434,986.372982 C53.2195176,978.344368 53.8376065,977.940343 44,978.826233 C47.1163524,970.451048 54.6648093,968.918346 62.0272843,967.099305" id="Fill-43" fill="#00684a"/><path d="M616.508283,304 C634.263878,311.661001 702.95743,309.529919 700.957203,333.41226 C697.284427,342.882096 569.095415,307.024881 616.508283,304" id="Fill-45" fill="#0f0f0f"/><path d="M508.535334,645.087572 C525.739831,643.150331 542.35354,674.155488 516.990583,658.845332 C493.007373,645.293009 476.710922,689.249982 503.902996,693.975959 C508.156671,694.953875 515.053542,695.267143 514.094325,701.541797 C477.107262,728.621345 455.948671,646.192841 508.535334,645.087572" id="Fill-47" fill="#0f0f0f"/><path d="M706.476737,291 C696.028683,285.444619 601.498711,275.193411 626.05692,260 C636.636524,264.169064 742.750329,274.128851 706.476737,291" id="Fill-49" fill="#0f0f0f"/><path d="M613.25971,158 C624.080161,162.523762 703.394959,167.154239 676.44707,186 C668.297089,184.568171 577.632335,167.786174 613.25971,158" id="Fill-51" fill="#0f0f0f"/><path d="M363.240522,1316.17389 C331.118156,1322.97552 346.960857,1285.49524 368.421667,1287.10026 C393.036696,1284.99698 395.629104,1316.75273 369.39382,1310.50308 C364.405453,1309.96407 365.379442,1314.4531 363.240522,1316.17389" id="Fill-53" fill="#162b22"/><path d="M1037.73528,482.002458 C1056.25214,481.687698 1063.95162,511.706283 1045.17053,515.931328 C1028.14816,517.689513 1020.49318,485.131431 1037.73528,482.002458" id="Fill-55" fill="#0f0f0f"/><path d="M988,509.673462 C991.023514,495.088137 1008.58807,482.695626 1016.07361,501.627571 C1026.44464,526.81382 991.737139,537.182552 988,509.673462" id="Fill-57" fill="#0f0f0f"/><path d="M229.722759,842 C232.451369,852.328299 255.5414,887.68113 239.197617,886.990007 C228.959751,880.918586 226.131699,847.279337 213.030465,854.841307 C200.955248,864.870394 187.167214,872.325897 173,879.447311 C188.766648,864.543648 209.529553,851.793206 229.722759,842" id="Fill-59" fill="#00684a"/><path d="M309.305244,598.475835 C309.704511,591.054005 302.307034,578.754451 308.447832,573.809005 C310.190255,575.507515 311.791922,575.815919 312.554577,573.238869 C301.349345,566.926196 307.734855,559.894219 309.974062,549.311477 C313.847134,544.348643 314.681547,554.948773 313.541704,556.645452 C309.263845,562.174761 311.428534,563.502637 316.904194,564.122191 C318.629137,565.560799 323.806726,569.827207 318.870169,571.930211 C316.806677,577.383563 318.882128,578.648294 324.025679,579.300793 C322.363294,573.260833 329.073553,570.922636 332.328406,574.177809 C335.800372,578.004032 328.370696,580.010945 330.576784,582.74723 C333.228136,585.716877 345.943958,590.086697 336.651344,593.858926 C329.17383,605.007228 324.575821,602.281925 319.217917,591.353258 C315.420282,593.024313 307.864571,592.678388 309.305244,598.475835" id="Fill-61" fill="#144936"/><path d="M3.34469507,1053.57189 C8.75564646,1057.02617 2.61937386,1062.0818 5.04538485,1065.97818 C15.7450218,1059.9332 26.4023714,1053.71833 37.308849,1048 C64.7754486,1052.75714 -17.2051533,1107.13286 3.34469507,1053.57189" id="Fill-63" fill="#00684a"/><path d="M8,1143 C16.2254753,1149.06497 8.00747431,1174.3052 21.3313615,1167.97312 C27.7648716,1157.3949 48.3089398,1160.31469 36.308005,1172.46781 C17.9417631,1187.50362 11.2924324,1186.59745 13.3852385,1212 C5.15509175,1189.25476 15.2715668,1165.77029 8,1143" id="Fill-65" fill="#00684a"/><path d="M658.597125,407.417574 C655.680203,397.452941 666.505388,402.913672 667,408.339033 C663.10585,413.510448 661.880392,425.716148 654.256346,424.96701 C651.52675,422.411231 653.178534,417.116471 651.149331,413.880482 C639.709572,426.170529 631.772703,396.285699 648.973405,400.390544 C656.382442,401.003641 642.331203,413.678233 658.597125,407.417574" id="Fill-67" fill="#0f0f0f"/><path d="M109.312302,925 C137.5,937.128053 87.9851545,982.341168 89.0159033,953.601193 C113.506607,956.740087 99.0344485,933.529968 109.312302,925" id="Fill-69" fill="#00684a"/><path d="M1032,461.214514 C1018.33332,469.308735 1001.44607,471.314374 1005.65681,451.138239 C1010.92231,449.923607 1012.14779,457.111616 1016.81624,457.150622 C1025.26171,449.24599 1024.5327,459.796688 1032,461.214514" id="Fill-71" fill="#00684a"/><path d="M550.931984,411.389537 C540.286342,414.995999 557.987096,420.464364 551.548052,426.602868 C532.619726,441.446752 531.898699,402.287207 550.931984,411.389537" id="Fill-73" fill="#144936"/><path d="M550.926802,411.878498 C529.841974,408.216848 571.946966,389.597123 569.929474,407.989655 C570.193669,419.00667 558.636505,400.790944 557.076274,411.758489 C556.96727,412.233029 553.063459,411.858344 550.926802,411.878498" id="Fill-75" fill="#0f0f0f"/><path d="M527.695945,396.649051 C538.470001,374.131372 544.182268,397.173282 532.663051,403.971494 C528.275409,428.878061 516.497705,409.384505 527.695945,396.649051" id="Fill-77" fill="#0f0f0f"/><path d="M571.225257,501.440736 C570.660913,500.374966 569.931349,501.175914 569.139597,501.455551 C569.70951,502.506506 570.436289,501.724077 571.225257,501.440736 M579.646793,502.681511 C585.917696,515.849467 568.193764,499.698096 571.125011,511.450271 C559.658059,542.040003 561.705663,467.447207 579.646793,502.681511" id="Fill-79" fill="#00684a"/><path d="M403,573.135888 C392.231544,576.557337 384.088695,569.374834 380.805515,559.403056 C381.996078,570.499952 374.023711,561.973141 371,557.551692 C378.895556,553.994778 388.727299,556.545107 393.143903,565.283583 C395.599965,570.143414 398.900943,571.569566 403,573.135888" id="Fill-81" fill="#144936"/><path d="M2.5409047,1085 C2.84075807,1104.48406 5.49357854,1123.7235 8,1143 C-1.15258337,1125.69998 -1.67644486,1104.04763 2.5409047,1085" id="Fill-83" fill="#00684a"/><path d="M378.661286,434.806604 C374.438083,425.598585 392.304116,422.944207 380.067465,413.684747 C385.422516,409.952904 390.414592,417.799127 392.734274,410.097876 C393.140172,408.930622 396.148481,408.674351 397.963357,408 C398.89179,419.373235 381.859947,423.570857 382.873292,433.391496 C386.90521,437.760278 380.997764,445.021939 378.661286,434.806604" id="Fill-85" fill="#00684a"/><path d="M579.449632,503 C575.440634,488.634856 564.969057,499.112812 566.889922,492.142277 C562.537295,488.898884 566.059941,474.611502 573.803399,482.185144 C570.544383,487.861759 577.412406,488.565232 578.687831,492.016592 C585.474039,481.465395 585.791304,502.25222 579.449632,503" id="Fill-87" fill="#144936"/><path d="M508,397 C508.406556,390.434743 521.057608,387.599552 514.411068,386.72551 C510.831172,387.735914 514.575714,380.277676 515.7034,379.542837 C517.787687,378.573152 526.115637,378.514441 523.128098,382.693365 C513.759844,388.136477 543.585568,390.021869 508,397" id="Fill-89" fill="#0f0f0f"/><path d="M18.2915731,1229 C21.2447021,1245.13218 24.96755,1261.09681 29,1277 C19.2089484,1267.21141 17.1265161,1243.89976 18.2915731,1229" id="Fill-91" fill="#00684a"/><path d="M604,584.003985 C611.284379,589.437445 618.185855,569.693858 627,580.060376 C618.277198,583.354127 619.95828,600.358282 604,584.003985" id="Fill-93" fill="#00684a"/><path d="M1005.30194,450.452215 C1000.03534,453.598003 995.353101,453.976134 990,450.768572 C994.768742,440.143468 1008.21453,443.861131 1005.75838,431 C1009.05104,435.546931 1004.68261,444.789611 1005.30194,450.452215" id="Fill-95" fill="#00684a"/><path d="M545.380876,367 C559.253983,372.588631 551.554629,401.403387 543,380.490436 C549.780238,376.911492 546.612622,371.796599 545.380876,367" id="Fill-97" fill="#144936"/><path d="M632.063898,465.846387 C620.802633,464.776331 631.073041,451.285626 636.458537,448 C633.726886,454.925816 644.036667,467.532839 632.063898,465.846387" id="Fill-99" fill="#144936"/><path d="M590.902735,583 C583.517251,581.365553 582.440886,580.801888 585.862192,574.296022 C586.230669,569.676337 587.292033,568.573633 591.151199,572.012174 C598.910785,574.965489 599.071115,581.191346 590.902735,583" id="Fill-101" fill="#00684a"/><path d="M637.507153,469 C642.265231,492.177189 610.360669,485.535452 636.245556,469.05201 C636.604532,469.274648 637.163253,469.247274 637.507153,469" id="Fill-103" fill="#0f0f0f"/><path d="M1007.61026,432.540359 C1004.72763,429.019802 1002.85466,426.0932 998,427.112233 C1009.45052,417.324911 1033.10583,445.457706 1007.61026,432.540359" id="Fill-105" fill="#144936"/><path d="M401,352.743005 C408.717906,329.161629 420.781314,368.013289 406.021589,356.979075 C408.016845,350.932805 403.228051,353.454385 401,352.743005" id="Fill-107" fill="#144936"/><path d="M582.986054,487.005015 C579.78929,493.571501 570.853489,488.318123 573.475149,481.078078 C578.83386,478.840125 589.424815,479.752689 582.986054,487.005015" id="Fill-109" fill="#0f0f0f"/><path d="M604,365.075856 C600.923212,368.129582 601.544879,374.829929 595.663167,372.527567 C584.306145,361.160566 591.550886,361.807195 604,365.075856" id="Fill-111" fill="#144936"/><path d="M340.057928,483 C335.298759,481.497738 340.319713,474.017195 340.065915,470.024434 C340.855708,478.045249 344.289977,470.1819 347.834284,469 C349.072219,475.160181 343.066241,478.477828 340.057928,483" id="Fill-113" fill="#144936"/><path d="M581.97169,416 C575.095346,400.113863 588.460687,417.707767 587.860864,405 C592.333214,408.706988 589.51837,414.188415 581.97169,416" id="Fill-115" fill="#144936"/><path d="M639,418.609233 C632.757525,427.399315 631.005785,421.164479 626,415.746521 C629.583449,409.38888 633.800952,415.663742 639,418.609233" id="Fill-117" fill="#144936"/><path d="M431,1302.73501 C438.815909,1298.10272 445.50111,1291.80442 455,1296.88422 C446.870109,1298.34354 439.931667,1304.31924 431,1302.73501" id="Fill-119" fill="#00684a"/><path d="M405.64898,357 C412.53109,359.350653 413.173958,367.289443 405.233264,368 C400.828784,363.031555 400.88316,361.568644 405.64898,357" id="Fill-121" fill="#00684a"/><path d="M334,775.01942 C329.663636,778.013557 325.328182,781.009524 321,784 C323.380909,778.133432 327.417273,774.709208 334,775.01942" id="Fill-123" fill="#0f0f0f"/><path d="M375,399.082656 L375.00705,399.186409 C379.039403,396.903841 379.155721,390.507507 383.884219,394.04398 C387.521796,402.50296 381.661842,401.985969 375,399.082656" id="Fill-125" fill="#144936"/><path d="M460.186403,1293.70906 C466.035635,1286.05371 484.449478,1286.00343 468.911164,1294.12592 C466.895358,1293.77671 458.665144,1296.5421 460.186403,1293.70906" id="Fill-127" fill="#144936"/><path d="M637,433 C640.942585,434.798034 648.413539,433.853515 645.230664,441.791878 C642.396107,449.29151 638.816903,435.48487 637,433" id="Fill-129" fill="#144936"/><path d="M508.03935,397.41628 C513.316593,395.442308 518.509901,400.972818 519,403.861558 C514.097085,407.223731 507.426727,402.55895 508.03935,397.41628" id="Fill-131" fill="#144936"/><path d="M595.59364,469 C599.965954,473.824308 602.856218,477.242147 595.466429,479 C589.484854,477.180632 592.402696,473.091714 595.59364,469" id="Fill-133" fill="#144936"/><path d="M325.256154,600.133052 C329.061057,603.64968 330.862296,599.32271 333.440995,598 C340.185562,608.95233 322.707013,612.647016 325.256154,600.133052" id="Fill-135" fill="#00684a"/><path d="M983.048283,476 C976.939141,468.367636 986.700249,472.694631 984.056085,461 C991.661129,463.731171 986.537842,471.824944 983.048283,476" id="Fill-137" fill="#00684a"/><path d="M405.497592,368.158161 C416.6114,361.101192 415.321711,389.026841 402,378.667824 C409.040904,377.316688 409.518108,375.881341 405.497592,368.158161" id="Fill-139" fill="#00684a"/><path d="M642.8388,418.116341 C652.067468,416.423404 647.977801,433.866001 638,427.658268 C640.137905,423.772532 646.31894,422.336209 642.8388,418.116341" id="Fill-141" fill="#00684a"/><path d="M678,434 C679.996818,428.997271 681.994599,423.993633 683.996235,419 C691.78498,424.208295 682.481275,430.58541 678,434" id="Fill-143" fill="#00684a"/><path d="M362.255578,531 C357.512156,527.137349 355.77587,520.159917 362.115585,518 C367.539886,518.062098 360.942001,523.743579 365,524.725441 C364.255488,526.427276 363.511885,528.12911 362.255578,531" id="Fill-145" fill="#144936"/><path d="M331.877801,571.716747 C325.54878,574.22292 331.14418,559.337597 334.534319,557 C336.006839,562.327024 333.674909,566.89077 331.877801,571.716747" id="Fill-147" fill="#00684a"/><path d="M328.828837,569.002903 C330.185803,575.603364 323.155251,572.166612 319.006418,571.618737 C323.767719,569.570473 319.258557,567.531161 319,565.487372 C322.841681,565.150769 327.169304,563.519678 328.828837,569.002903" id="Fill-149" fill="#0f0f0f"/><path d="M560,536.919903 C562.312952,534.940068 564.460819,531.00081 567,534.22392 C564.256426,538.939672 563.595208,545.289164 560,536.919903" id="Fill-151" fill="#00684a"/><path d="M581,521.561501 C573.342254,523.599868 570.148871,518.154976 576.063238,513 C577.588226,515.64773 579.116026,518.29546 581,521.561501" id="Fill-153" fill="#144936"/><path d="M581,547.294741 C576.294779,553.656523 574.97338,547.334988 572,543.267266 C574.769088,537.511056 577.76754,544.160181 581,547.294741" id="Fill-155" fill="#00684a"/><path d="M4.51488409,1031 C8.06362257,1037.47753 4.21279798,1043.67902 3.63852508,1050 C0.22175596,1043.52618 2.96733718,1037.28578 4.51488409,1031" id="Fill-157" fill="#00684a"/><path d="M381.52633,441 C381.52633,441 382.125158,441.13534 382.123304,441.133512 C385.424273,444.834342 388.704849,448.544316 385.998072,454 C384.526958,449.369162 374.374694,443.725098 381.52633,441" id="Fill-159" fill="#144936"/><path d="M344.398293,493.149942 C341.757872,489.035583 352.99823,487.998746 356,489.958304 C354.159318,496.103543 349.193054,493.51279 344.398293,493.149942" id="Fill-161" fill="#144936"/><path d="M379,521.803922 C375.57885,523.816505 372.039579,530.268037 370.032388,524.937247 C369.513528,519.566839 375.347857,518.666195 379,521.803922" id="Fill-163" fill="#144936"/><path d="M620,501.221278 C614.960565,506.653616 614.116109,503.154241 611,498.950772 C613.041946,494.189126 616.422594,499.415773 620,501.221278" id="Fill-165" fill="#144936"/><path d="M521.212409,409 C525.241582,414.119835 521.861242,415.482517 517,418 C518.480902,415.132549 517.922184,410.432295 521.212409,409" id="Fill-167" fill="#144936"/><path d="M580.136164,460 C577.63182,456.534123 579.723271,454.521866 582.022517,453 C587.67798,454.575487 584.265992,456.927994 580.136164,460" id="Fill-169" fill="#00684a"/><path d="M401.80508,378 C420.117459,382.649674 397.344723,387.680935 400.262333,380.127164 C401.410999,380.045526 400.747424,378.528351 401.80508,378" id="Fill-171" fill="#144936"/><path d="M36,1289 C37.6666667,1292.33429 39.3333333,1295.66857 41,1299 C39.3324241,1295.66476 37.6666667,1292.33238 36,1289" id="Fill-173" fill="#00684a"/><path d="M30.0805239,1281 L36,1289 C30.8308518,1288.42111 29.6527669,1285.23485 30.0805239,1281" id="Fill-175" fill="#00684a"/><path d="M393,357.923028 C395.334251,356.614466 397.667584,355.307676 400,354 C399.439376,358.25792 396.237122,358.121483 393,357.923028" id="Fill-177" fill="#00684a"/><path d="M637.387042,469.766194 C637.039446,470.04765 636.474723,470.084407 636.11189,469.825006 C625.20596,464.461602 647.253995,465.014011 637.387042,469.766194" id="Fill-179" fill="#00684a"/><path d="M150,895 C148.665777,896.334917 147.331554,897.670784 146,899 C147.335112,897.662233 148.667556,896.330166 150,895" id="Fill-181" fill="#00684a"/><path d="M982,429.5415 C984.666667,429.5145 987.332449,429.4855 990,429.4585 C987.333333,429.4855 984.667551,429.5145 982,429.5415" id="Fill-183" fill="#144936"/><path d="M460,1294.98178 C463.000919,1294.65452 466.000919,1294.32726 469,1294 C466.366728,1298.26831 463.256434,1297.40391 460,1294.98178" id="Fill-185" fill="#00684a"/><path d="M603,575.499498 C605.303284,575.155378 607.506269,574.225344 609,576.359797 C606.821194,577.835572 605.081194,576.421951 603,575.499498" id="Fill-187" fill="#00684a"/><path d="M44,1304 C44.9996814,1305.667 46.0003186,1307.334 47,1309 C46.0003186,1307.334 44.9996814,1305.667 44,1304" id="Fill-189" fill="#00684a"/><path d="M168,883 C166.997766,884.000863 165.99649,885.001726 165,886 C166.004148,884.997412 167.001595,883.998274 168,883" id="Fill-191" fill="#00684a"/><path d="M16,1222 C16.3335408,1223.33399 16.6670815,1224.66798 17,1226 C16.6664592,1224.66601 16.3329185,1223.33202 16,1222" id="Fill-193" fill="#00684a"/><path d="M990,429 C992.666993,428.333664 995.333007,427.666336 998,427 C995.333987,427.666336 992.666993,428.332671 990,429" id="Fill-195" fill="#144936"/><path d="M340.861874,498 C339.479498,494.444956 339.472369,493.552947 343,494.189699 C342.287027,495.45949 341.574054,496.729281 340.861874,498" id="Fill-197" fill="#144936"/><path d="M581,375.274342 C583.515116,373.162359 585.534884,373.63406 587,377 C585.000291,376.424781 583.000581,375.849561 581,375.274342" id="Fill-199" fill="#144936"/><path d="M43,981 C42.8837293,982.333627 42.7666885,983.667253 42.6496478,985 C40.4112435,983.397185 40.3773633,982.046844 43,981" id="Fill-201" fill="#00684a"/><path d="M94,935 C92.6649451,935.669177 91.330751,936.337278 90,937 C91.3341941,936.328671 92.6675274,935.664874 94,935" id="Fill-203" fill="#00684a"/><path d="M514.001498,397 C513.943924,393.673634 515.551193,393.428182 518,394.740859 C516.667166,395.493906 515.334332,396.245971 514.001498,397" id="Fill-205" fill="#144936"/><path d="M589,377 C591,377.665643 592.999113,378.333333 595,379 C593.000887,378.333333 591.000887,377.666667 589,377" id="Fill-207" fill="#144936"/><path d="M525,415.531 C526.333996,415.51 527.667991,415.489 529,415.469 C527.666004,415.49 526.333002,415.51 525,415.531" id="Fill-209" fill="#162b22"/><path d="M979.665845,422 C979.77723,423.667283 979.889453,425.333642 980,427 C978.000097,425.486222 976.884573,423.902164 979.665845,422" id="Fill-211" fill="#144936"/><path d="M342,490.828985 C338.844041,491.434765 338.251069,490.417089 339.878229,488 C340.586423,488.945293 341.292743,489.887139 342,490.828985" id="Fill-213" fill="#144936"/><path d="M512.113393,387.095293 C513.843921,386.72723 515.387977,387.508837 517,388.019241 C515.363579,388.667773 511.269042,390.265521 512.113393,387.095293" id="Fill-215" fill="#144936"/><path d="M539,366 C540.999391,366.666667 543.000609,367.334461 545,368 C543.000609,367.334461 541.000305,366.666667 539,366" id="Fill-217" fill="#144936"/><path d="M610,367 C608.662323,366.666437 607.325576,366.331496 606,366 C607.341401,366.334252 608.6707,366.667815 610,367" id="Fill-219" fill="#144936"/><path d="M647,468.972 C648.000288,468.657 649.001441,468.341 650,468.028 C648.998847,468.344 647.999424,468.659 647,468.972" id="Fill-221" fill="#00684a"/><path d="M878.9315,1335.622 C878.9315,1335.622 878.6055,1335.298 878.6075,1335.296 C878.4285,1335.431 878.2475,1335.567 878.0685,1335.704 C878.3565,1335.677 878.6435,1335.649 878.9315,1335.622" id="Fill-223" fill="#144936"/><path d="M366.0505,471 L366.9495,473 C366.7235,472.317403 366.3495,471.627638 366.0505,471" id="Fill-225" fill="#0f0f0f"/><path d="M427,1303 C428.333333,1302.66728 429.666667,1302.33272 431,1302 C429.666667,1302.33272 428.333333,1302.66728 427,1303" id="Fill-227" fill="#00684a"/><path d="M374.251,396 C374.417,394.999464 374.584,393.998928 374.749,393 C374.583,394.000536 374.417,395.000268 374.251,396" id="Fill-229" fill="#144936"/><path d="M234,839 C232.998578,839.334363 231.995023,839.668727 231,840 C232.005688,839.665019 233.002844,839.332509 234,839" id="Fill-231" fill="#00684a"/><path d="M378,412.96 C377.330855,412.652 376.660967,412.346 376,412.04 C376.672862,412.349 377.336059,412.654 378,412.96" id="Fill-233" fill="#144936"/><path d="M369,555 C367.997134,554.330918 366.994267,553.664251 366,553 C367.007166,553.669082 368.003583,554.334541 369,555" id="Fill-235" fill="#144936"/><path d="M532.651404,404 C531.102531,402.258934 532.626243,402.427651 534,402 C533.549126,402.670182 533.100265,403.335677 532.651404,404" id="Fill-237" fill="#162b22"/><path d="M143,902 C141.998233,902.334167 140.995583,902.668333 140,903 C141.003534,902.665 142.001767,902.331667 143,902" id="Fill-239" fill="#00684a"/><path d="M564.410509,484 C564.696485,484.748689 565.549244,485.457039 564.465637,486 C564.264937,485.278741 563.558611,484.573618 564.410509,484" id="Fill-241" fill="#00684a"/><path d="M15,1216 C15.5124282,1216.67065 16.5158946,1217.12787 15.6779676,1218 C15.4519784,1217.33119 15.2259892,1216.66605 15,1216" id="Fill-243" fill="#00684a"/><path d="M974.8061,464.871962 C974.1411,464.923962 973.9991,464.762962 974.2051,464.129962 C974.8811,464.071962 974.9821,464.231962 974.8061,464.871962" id="Fill-245" fill="#00684a"/><path d="M412,342.724 L414,342.276 C413.333671,342.425 412.667343,342.575 412,342.724" id="Fill-247" fill="#144936"/><path d="M753.162,828 C753.388,827.332141 753.613,826.665474 753.838,826 C753.612,826.669052 753.388,827.333333 753.162,828" id="Fill-249" fill="#144936"/><path d="M408.866,572.567906 C408.62,572.608906 408.374,572.648906 408.134,572.688906 C408.361,572.225906 408.507,572.191906 408.866,572.567906" id="Fill-251" fill="#144936"/><path d="M975.88724,466.936838 C975.15424,466.996838 974.95624,466.764838 975.11624,466.058838 C975.84224,466.019838 976.04024,466.213838 975.88724,466.936838" id="Fill-253" fill="#00684a"/><path d="M400.895538,379 C401.074538,379.621307 400.760538,379.919427 400.091538,380 C399.950538,379.376902 400.215538,379.044763 400.895538,379" id="Fill-255" fill="#00684a"/><path d="M369.68748,556.865 C369.12448,556.813 369.00148,556.653 369.24848,556.135 C369.91148,556.17 370.02648,556.255 369.68748,556.865" id="Fill-257" fill="#144936"/><path d="M537,400 C537.666667,399.665956 538.333333,399.333333 539,399 C538.332258,399.334044 537.666667,399.666667 537,400" id="Fill-259" fill="#162b22"/><path d="M605.630729,580.322046 C605.948729,580.842046 605.821729,580.797046 605.312729,580.706046 C605.143729,580.229046 605.089729,580.147046 605.630729,580.322046" id="Fill-261" fill="#00684a"/><path d="M3.46451028,1025 C3.78100917,1025.69323 4.36125713,1026.30677 3.68918542,1027 C3.33263575,1026.25797 2.46714805,1025.6494 3.46451028,1025" id="Fill-263" fill="#00684a"/><path d="M566.13,492.400825 C566.377,492.350825 566.623,492.299825 566.87,492.249825 C566.517,492.473825 566.153,493.162825 566.13,492.400825" id="Fill-265" fill="#00684a"/><path d="M29,1279 C29.333862,1279.6675 29.666931,1280.33416 30,1281 C29.666138,1280.3325 29.333069,1279.66667 29,1279" id="Fill-267" fill="#00684a"/><path d="M373.816917,409.943 C372.711142,409.597 372.747899,409.504 373.806196,409.057 C374.058901,409.354 374.066559,409.638 373.816917,409.943" id="Fill-269" fill="#144936"/><path d="M971.842444,461.937135 C971.093444,461.993135 970.946444,461.753135 971.132444,461.055135 C971.875444,461.051135 972.089444,461.187135 971.842444,461.937135" id="Fill-271" fill="#00684a"/><path d="M374.344531,402 C374.181531,401.236842 373.514531,400.458059 374.656531,400 C374.817531,400.764803 375.485531,401.540296 374.344531,402" id="Fill-273" fill="#144936"/><path d="M42,1301 C42.6682001,1301.66667 43.3352501,1302.33333 44,1303 C43.33295,1302.33236 42.66705,1301.66667 42,1301" id="Fill-275" fill="#00684a"/><path d="M528,397 C528.334118,397.333333 528.668235,397.668058 529,398 C528.665882,397.665971 528.333333,397.333333 528,397" id="Fill-277" fill="#162b22"/><path d="M739.307491,866.38546 C739.307491,866.38546 739.695491,866.61046 739.692491,866.61446 C739.689491,866.61946 739.307491,866.38546 739.307491,866.38546" id="Fill-279" fill="#0f0f0f"/><path d="M163.849,886.276542 C163.774,886.880542 163.677,886.996542 163.151,886.627542 C163.237,886.135542 163.406,886.060542 163.849,886.276542" id="Fill-281" fill="#00684a"/><path d="M40.2760338,1254.33156 C49.0850016,1179.83405 187.860282,1225.87287 114.406216,1282.11547 C84.3838536,1296.66697 68.0005257,1245.87518 97.0494655,1235.66587 C110.866328,1230.40614 125.471376,1252.27031 112.263019,1259.73806 C93.4317777,1257.95374 115.18514,1252.32108 108.462872,1246.39026 C99.3501148,1238.92621 89.4241651,1247.81458 90.5494827,1259.06329 C94.861811,1286.77428 132.663221,1265.92273 123.150351,1244.8441 C110.166131,1210.48229 39.8249805,1226.0501 53.0703857,1264.15871 C81.0662505,1333.75742 176.77382,1302.33286 142.127003,1230.86399 C120.457924,1190.07105 68.8063087,1203.79454 42.5340785,1231.992 C31.8245743,1229.49598 57.9995547,1207.84965 66.4306381,1203.44931 C117.027326,1171.27705 179.899702,1227.27873 160.343256,1280.96623 C135.382507,1343.28457 40.3038194,1315.02527 40.2760338,1254.33156" id="Fill-283" fill="#00684a"/><path d="M527.039709,1057.44112 C595.877223,1052.19229 575.716028,1169.21336 516.466106,1144.86139 C485.914516,1132.04482 502.738375,1058.46497 537.55347,1084.23698 C547.98069,1093.33495 546.313403,1122.35531 528.281658,1113.35177 C523.845072,1105.2721 536.346505,1107.81967 536.546285,1101.71456 C536.775525,1095.05956 532.289224,1087.77508 526.27005,1086.52166 C490.720281,1094.54024 522.5129,1164.87729 550.757354,1122.77837 C591.00241,1067.64439 494.473749,1043.98209 476.768833,1098.83187 C461.405117,1147.40712 513.694045,1174.04191 552.555373,1150.43793 C563.405169,1141.4603 577.939385,1130.76732 567.273717,1153.17713 C545.765619,1178.00584 511.689802,1174.10578 483.303568,1165.04299 C440.246863,1129.82031 470.789247,1050.38436 527.039709,1057.44112" id="Fill-285" fill="#00684a"/><path d="M355.409076,845.898579 C354.411541,842.976235 353.188009,845.329937 351.445797,846.17646 C352.252531,848.082056 353.955843,846.165418 355.409076,845.898579 M340.015361,857.178497 C341.303728,889.423659 379.916759,857.586116 372.737657,838.226505 C362.064866,806.220579 307.641323,817.484854 316.022654,853.778603 C306.985562,918.129066 407.002102,916.50319 403.939105,855.236095 C404.38832,852.247501 406.990061,852.058874 408.580375,854.367489 C419.142019,872.600856 409.62422,896.286935 392.199313,906.131444 C341.976161,942.404951 283.154017,889.062046 306.122329,833.283548 C322.821082,790.485374 394.24903,808.348848 384.671027,855.046547 C376.877843,871.672441 359.52055,891.765398 338.664938,882.516216 C326.113781,871.021907 322.445038,835.734784 340.607213,827.682695 C379.619444,824.261638 361.567488,870.537917 343.517385,851.266639 C342.367951,844.349994 348.155876,842.59622 353.456612,840.384219 C337.041281,832.587927 338.352803,846.090887 340.015361,857.178497" id="Fill-287" fill="#00684a"/><path d="M296.473045,1097.78295 C301.521248,1102.47505 303.679771,1093.23458 308.239616,1094.41781 C237.733077,1100.19854 277.01047,981.358692 320.96083,1043.7849 C326.075251,1056.62789 314.776805,1083.33111 299.390316,1074.51627 C291.800077,1067.61629 292.708735,1045.19438 303.655859,1043.73204 C301.33455,1050.99274 298.578225,1057.48749 300.831477,1065.34907 C316.674134,1088.80955 328.162038,1011.11826 283.343486,1037.5025 C245.205595,1107.85705 377.034604,1089.04972 330.435523,1030.35122 C270.298539,981.158397 204.021675,1102.57241 296.473045,1097.78295 M298.560751,1110.88744 C208.350677,1115.03428 228.373346,1003.18899 306.786499,1009.23679 C376.105712,1013.65904 353.579635,1101.27977 298.560751,1110.88744" id="Fill-289" fill="#00684a"/><path d="M587.550769,968.174146 C611.89701,1003.84688 445.974029,1020.11864 476.844347,923.118358 C476.676659,882.370315 561.225626,868.293434 506.752081,897.462627 C439.903913,953.009962 527.902988,1015.27185 587.550769,968.174146" id="Fill-291" fill="#00684a"/><path d="M353,774.752902 C365.239892,766.293242 429.571151,790.381345 440.785585,805.838774 C447.63767,806.570639 453.409792,803.841775 455.004332,811.223865 C457.567974,819.361726 466.293597,824.804741 474.251513,827.919764 C478.363503,828.565203 473.387727,830.616448 474.383621,831.817221 C478.419857,836.297595 482.701833,839.871413 473.587275,838.423314 C471.588096,838.311143 466.166108,841.14758 470.775121,835.178651 C471.072596,834.793411 470.070235,832.930649 469.254489,832.25395 C458.184172,825.878634 450.027632,810.12331 435.918822,812.93768 C432.80365,813.489337 431.320894,812.507387 433.571357,809.411672 C440.025269,798.240618 388.916862,782.805255 379.890069,782.47702 C370.836485,777.146174 363.585303,776.029988 353,774.752902" id="Fill-293" fill="#144936"/><path d="M451,983.315677 C451.051315,1004.1163 412.001449,985.21986 399.761733,983.356012 C387.283534,965.733402 444.972733,973.972983 451,983.315677" id="Fill-295" fill="#00684a"/><path d="M263.924403,1174 C277.963949,1175.52451 263.49348,1193.44983 261.890701,1200.97788 C260.518838,1212.5034 242.096423,1230.35809 243.034636,1209.08198 C247.828427,1196.58323 254.432278,1182.87919 263.924403,1174" id="Fill-297" fill="#00684a"/><path d="M636,1114.32789 C634.151419,1125.08119 627.390337,1174.9357 616.050576,1141.78538 C614.997963,1131.03665 630.666267,1085.72377 636,1114.32789" id="Fill-299" fill="#00684a"/><path d="M96.4151451,1115 C108.493679,1116.38613 148.446814,1134.54946 124.48908,1144 C116.854682,1136.32702 85.0889357,1128.76825 96.4151451,1115" id="Fill-301" fill="#00684a"/><path d="M420.575955,1168 C409.61564,1160.85125 383.630257,1151.77026 387.363725,1136.64847 C391.385671,1130.95121 442.445404,1164.57483 420.575955,1168" id="Fill-303" fill="#00684a"/><path d="M513.578084,1269.96471 C497.956431,1271.04687 496.235981,1246.9701 497.225604,1234.64335 C508.091415,1215.33768 515.94097,1261.96473 513.578084,1269.96471" id="Fill-305" fill="#00684a"/><path d="M242.199654,967.039914 C241.873377,963.19074 233.479417,951.636673 241.371412,950.117385 C252.948198,947.650997 264.510112,984.928243 247.126341,979.449457 C242.366045,976.878355 239.508567,973.688318 242.199654,967.039914" id="Fill-307" fill="#00684a"/><path d="M520,880 C506.158938,874.851112 493.974885,853.568554 483,842 C496.374562,852.919918 515.794967,863.203991 520,880" id="Fill-309" fill="#144936"/><path d="M52,1227.90521 C45.0824904,1243.68298 27.8198846,1262.33411 38.2887498,1231.03653 C44.8972887,1234.50659 47.5027605,1221.23222 52,1227.90521" id="Fill-311" fill="#144936"/><path d="M339.903427,857 C338.297074,845.972513 337.020782,832.547945 352.919279,840.301861 C340.983298,842.467468 339.717768,857.065874 353,856.408049 C348.632084,856.606586 344.267755,856.803293 339.903427,857" id="Fill-313" fill="#144936"/><path d="M298,1235.04089 C294.118017,1249.71319 274.018354,1227.36823 290.231284,1225.1802 C298.329674,1223.47652 290.451701,1234.39791 298,1235.04089" id="Fill-315" fill="#144936"/><path d="M208.656059,968 C211.300706,971.515181 214.272198,975.069401 209.373252,977 C203.070737,973.837934 201.669971,972.66946 208.656059,968" id="Fill-317" fill="#00684a"/><path d="M329,930.274396 C324.06973,932.419323 320.063646,938.003861 317,932.93094 C320.872548,925.929333 321.866864,922.884476 329,930.274396" id="Fill-319" fill="#144936"/><path d="M277.900085,917.576883 C276.593279,925.258244 264.565374,912.336581 272.94638,911.047493 C277.922633,910.576445 278.249089,913.671375 277.900085,917.576883" id="Fill-321" fill="#144936"/><path d="M378.998344,1040.09196 C374.405392,1042.80793 370.182175,1047.63016 370,1039.46905 C371.551624,1037.64961 379.128469,1034.67585 378.998344,1040.09196" id="Fill-323" fill="#144936"/><path d="M427,815.848156 C422.608257,822.227569 421.354297,817.368915 417,814.80177 C420.914546,809.552557 422.704273,812.723686 427,815.848156" id="Fill-325" fill="#144936"/><path d="M297.672747,1235 C292.523655,1234.17908 294.558837,1228.95281 294,1225 C297.843931,1227.23748 300.832849,1229.83175 297.672747,1235" id="Fill-327" fill="#00684a"/><path d="M246.404353,1165 C252.505583,1169.71711 246.483245,1170.50846 242.308669,1173 C236.196984,1171.52444 243.868432,1167.94925 246.404353,1165" id="Fill-329" fill="#144936"/><path d="M139,1058.37968 C134.146583,1060.73968 131.828237,1062.81607 130,1058.45779 C132.523381,1053.00227 134.379496,1054.79877 139,1058.37968" id="Fill-331" fill="#00684a"/><path d="M220.778844,972 C218.094107,967.70278 222.96853,966.538703 226.035593,965 C233.242488,966.560632 225.651388,968.707871 220.778844,972" id="Fill-333" fill="#144936"/><path d="M269.274618,891 C264.658181,887.869604 267.934972,886.636123 271.454733,885 C276.714049,886.618502 272.733873,888.815859 269.274618,891" id="Fill-335" fill="#144936"/><path d="M379,1040 C380.517074,1041.88459 383.880323,1043.22159 380.634801,1045 C380.077381,1043.37102 379.58596,1041.50413 379,1040" id="Fill-337" fill="#144936"/><path d="M482.910634,843 C482.06623,841.461768 477.691151,839.354518 479.387149,838 C480.24388,839.594836 483.58554,841.415094 482.910634,843" id="Fill-339" fill="#144936"/><path d="M40.7655,1254 C40.5875,1254.66754 40.4105,1255.33333 40.2345,1256 C40.4115,1255.33159 40.5885,1254.66667 40.7655,1254" id="Fill-341" fill="#144936"/><path d="M514,1270 C514.667426,1269.3339 515.333713,1268.66695 516,1268 C515.332574,1268.6678 514.666287,1269.3339 514,1270" id="Fill-343" fill="#144936"/><path d="M913.623877,1085.15786 C1039.48412,1075.32646 948.616175,1098.08253 990.760002,1174.22621 C1033.7385,1218.80334 1010.44542,1197.46364 1026.83099,1253.32087 C1029.22038,1264.89108 1005.5964,1254.93958 998.804432,1256.4936 C987.316879,1262.91944 983.870058,1253.43451 978.801966,1246.73889 C971.477588,1237.50711 965.297529,1227.11397 954.358103,1221.86982 C951.771832,1219.7097 948.764068,1218.73959 953.131519,1213.35408 C971.079203,1193.51574 965.192156,1166.1678 950.991699,1144.08897 C949.000696,1133.90186 948.414672,1123.92818 940.051349,1116.69761 C938.028918,1103.19549 904.307571,1092.1131 913.623877,1085.15786" id="Fill-345" fill="#00684a"/><path d="M842.205647,1290.51796 C839.232775,1267.74362 869.237396,1271.30286 884.022133,1261.04823 C901.510324,1250.6929 920.845565,1241.98648 936.520035,1229.17303 C950.449296,1214.57118 969.003128,1242.12412 975.841382,1253.04571 C979.291062,1265.5885 925.443286,1266.43096 914.517449,1281.10394 C898.986484,1291.54056 883.482369,1302.17763 873.76105,1319.10273 C859.362387,1338.87577 841.511267,1303.67412 842.205647,1290.51796" id="Fill-347" fill="#00684a"/><path d="M527.857623,887 C533.144636,891.615725 537.280333,898.399108 527.468315,899.337196 C479.197911,916.238463 531.426887,979.807998 571.341025,943.409811 C619.921399,982.173049 514.423756,1001.3047 494.354139,967.571344 C469.409879,934.99838 493.062598,897.405675 527.857623,887" id="Fill-349" fill="#162b22"/><path d="M958,1179.98776 C957.097504,1193.54666 948.819216,1212.99408 934.558299,1212.67605 C909.591724,1207.8172 884.768917,1208.84778 859.945183,1213.44023 C852.670492,1214.787 852.254954,1214.16293 853.611017,1206.37825 C849.340626,1184.60879 892.79677,1192.6101 907.465804,1183.20027 C936.309493,1180.42286 948.121706,1132.28872 958,1179.98776" id="Fill-351" fill="#00684a"/><path d="M899.246117,1215 C907.041265,1217.75809 935.740994,1214.41506 927.541598,1224.05144 C901.003394,1239.61501 873.805288,1258.12249 844.498264,1267 C841.956489,1266.66863 840.341344,1265.59944 841.260592,1261.86554 C843.531947,1213.39348 858.632161,1221.04985 899.246117,1215" id="Fill-353" fill="#00684a"/><path d="M896.612528,1141.01095 C1005.9153,1140.05604 858.69902,1201.93667 859,1175.36479 C861.567792,1152.60339 873.174701,1141.31919 896.612528,1141.01095" id="Fill-355" fill="#00684a"/><path d="M913.471397,1132.02052 C870.633331,1138.34363 853.380955,1140.47708 885.894162,1096.66017 C912.012098,1078.50799 973.637478,1160.22221 913.471397,1132.02052" id="Fill-357" fill="#00684a"/><path d="M570.745348,943.477887 C545.619569,965.595814 503.656928,951.391352 508.364774,914.460308 C509.360184,898.863705 528.820636,904.226916 533.402668,894 C542.084753,896.097924 545.631595,902.237219 546.429959,910.545663 C538.946806,907.1666 530.479345,904.9623 522.699234,909.246948 C510.853299,916.342704 519.166269,936.611534 529.105568,940.830507 C547.329158,950.119463 560.970717,932.897617 578,928.506592 C573.937876,934.549686 568.468671,933.712551 570.745348,943.477887" id="Fill-359" fill="#00684a"/><path d="M1082,1321 C1068.63969,1308.27025 1052.66868,1295.103 1047,1277 C1064.48937,1284.86864 1076.30637,1302.47162 1082,1321" id="Fill-361" fill="#00684a"/><path d="M1043.62959,1273.9265 C1042.64159,1273.6885 1043.24759,1273.4395 1043.89159,1273.0735 C1043.80359,1273.3585 1043.71659,1273.6425 1043.62959,1273.9265" id="Fill-363" fill="#00684a"/><path d="M568.088514,681.671609 C579.482479,690.588271 578.142556,675.29788 583.618682,674 C588.666033,680.05404 577.99655,686.738349 576.564219,692.837929 C577.611207,696.195112 584.477157,698.17973 588.469203,696.354501 C594.810272,697.290796 599.124824,706.146435 593.145996,710 C588.700224,708.967161 586.15437,700.7764 580.909265,706.260284 C577.520647,704.882255 575.189181,700.558721 570.35899,703.08526 C569.140122,700.36199 566.666347,697.507565 566.941725,694.940039 C567.69393,687.942418 563.826635,689.625563 560,690.519962 C560.052673,685.22279 560.765142,680.512169 568.088514,681.671609" id="Fill-365" fill="#144936"/><path d="M550.852914,702.891857 C552.772668,703.008975 556.209084,703.656354 556.382101,703.161137 C558.903734,697.149365 567.037382,705.144773 565.889763,709.384092 C561.970188,715.767508 559.363886,706.30028 554.450383,719.485788 C553.849424,720.146078 553.088333,720.662505 552.400865,721.246253 C547.377846,713.592978 545.570368,722.378705 542.214019,723.245566 C527.611554,728.002235 548.020218,708.948817 550.852914,702.891857" id="Fill-367" fill="#00684a"/><path d="M621.377242,643 C621.630515,647.571139 620.762412,654.56752 626.963933,649.578741 C638.035457,641.351422 632.222104,662.186696 622.783091,655.742589 C611.014148,653.557308 621.20564,654.26528 619.101454,646.181755 C618.831663,645.563538 620.567869,644.082566 621.377242,643" id="Fill-369" fill="#00684a"/><path d="M753,823.616397 C748.507379,830.211283 747.740008,825.801939 744,821.89092 C747.534331,817.845522 749.339311,821.186359 753,823.616397" id="Fill-371" fill="#144936"/><path d="M534.764931,724.133001 C543.685286,722.928449 539.900893,730.310703 533.111453,729.989823 C531.05777,727.084903 531.988949,725.271578 534.764931,724.133001" id="Fill-373" fill="#144936"/><path d="M406,213 C405.332995,210.999672 404.667005,209.000328 404,207 C404.668018,209.001311 405.334009,211.000656 406,213" id="Fill-375" fill="#00684a"/><path d="M560,691 C559.334081,691.667073 558.668161,692.332927 558,693 C558.66704,692.334146 559.33296,691.667073 560,691" id="Fill-377" fill="#144936"/><path d="M614,654.748658 C613.33255,654.612658 612.663925,654.476658 612,654.341658 C612.762632,654.140658 613.428907,654.274658 614,654.748658" id="Fill-379" fill="#00684a"/><path d="M85.8391704,706.25902 C89.0127086,705.785811 95.6164077,696.378826 88.1204649,700.828649 C87.9469477,700.949488 85.2327735,697.532791 83.8866454,695.630731 C81.9679105,692.918775 83.3934913,692.440031 85.9651987,691.339567 C87.514068,690.676337 81.7487309,687.245803 86.5168008,684.607641 C90.4419423,678.757563 95.3652644,681.874468 100,681.49627 C91.8748291,688.078762 110.715143,715.040595 85.8391704,706.25902" id="Fill-381" fill="#144936"/><path d="M136.755922,645 C140.82305,645.963175 152.36921,645.669994 144.068187,648.967581 C138.37439,654.449771 133.925427,671.982672 125.227077,659.757341 C117.241363,655.33115 121.775076,650.0824 128.87683,654.594064 C124.039654,647.46308 131.401129,647.520062 136.755922,645" id="Fill-383" fill="#00684a"/><path d="M77,662.428433 C81.460705,664.173839 91.389548,658.053078 88.4724757,667.090743 C85.4071707,680.454516 81.6537734,667.710111 77,662.428433" id="Fill-385" fill="#144936"/><path d="M127.058508,649.597445 C134.008474,662.059817 119.988988,646.891483 120.980906,656.9994 C108.410069,657.104575 128.004659,643.343194 105,647.479174 C112.758819,644.039751 120.21782,643.685476 127.058508,649.597445" id="Fill-387" fill="#144936"/><path d="M213.422363,653 C211.529644,637.846277 210.538756,632.448308 217,649.795134 C215.808478,650.862791 214.615932,651.931395 213.422363,653" id="Fill-389" fill="#144936"/><path d="M210.8665,638 C210.6215,635.999349 210.3765,633.998697 210.1335,632 C210.3785,634.001628 210.6225,636.000326 210.8665,638" id="Fill-391" fill="#144936"/><path d="M83,703 C83.6687864,703.669801 84.3375729,704.337513 85,705 C84.3290938,704.329154 83.6645469,703.664577 83,703" id="Fill-393" fill="#144936"/><path d="M211.399734,668 C210.890801,667.681312 210.867999,667.347153 211.330417,667 C211.749967,667.453589 212.563531,667.826733 211.399734,668" id="Fill-395" fill="#144936"/><path d="M310,1297.29678 C309.876884,1260.70963 362.453507,1235.36168 391.353899,1256.95216 C403.226989,1260.39582 415.502293,1307.68221 398.989493,1302.70824 C398.452903,1264.69416 331.922176,1274.68456 335.770346,1308.22401 C337.573399,1315.8451 336.233305,1316.99883 328.448607,1317.50832 C305.125807,1319.84901 311.47837,1313.94929 310,1297.29678" id="Fill-397" fill="#162b22"/><path d="M531.101634,245.614645 C528.199204,229.19457 588.784866,237.629985 543.766528,243.027747 C548.624983,244.562571 553.007447,245.94777 557.391771,247.332029 C556.071639,249.877522 555.188453,252.684621 559.384054,252.549113 C567.558642,253.077032 570.741832,246.016466 561.735189,245.429261 C565.481759,238.405395 568.397204,242.771786 573,246.63096 C565.16846,252.65639 571.077442,260.079254 561.891373,258.869087 C558.656122,250.687751 556.608989,261.199083 552.505425,257.67774 C550.5494,253.518376 552.575151,246.463456 546.440259,249.917986 C540.560096,250.355566 535.974964,244.612445 531.101634,245.614645" id="Fill-399" fill="#00684a"/><path d="M528.776192,244 C529.719614,249.366422 527.721494,251.866308 522,250.731121 C524.259376,248.487414 526.517784,246.242755 528.776192,244" id="Fill-401" fill="#00684a"/><path d="M319.75177,572 C324.94767,572.24941 325.54244,574.231657 324.666953,579 C319.762297,578.377778 317.785873,577.175047 319.75177,572" id="Fill-403" fill="#00684a"/><path d="M621.789085,584 C620.105056,582.720513 621.404507,583.027649 623,583.043153 C622.619111,583.374653 622.214243,583.695817 621.789085,584" id="Fill-405" fill="#0f0f0f"/><path d="M52,1228.21307 C61.4621027,1200.14393 126.755218,1193.72539 141.607126,1230.38697 C163.321132,1264.0539 134.266856,1315.60855 92.6253122,1301.65965 C5.04880687,1263.23316 80.8783006,1188.76595 122.740965,1244.32758 C132.184641,1284.68571 67.3005978,1275.00632 98.0399936,1243.37051 C125.274634,1244.29258 91.2340975,1258.65691 111.905153,1259.19394 C125.037851,1251.73911 110.521309,1229.9264 96.770395,1235.176 C79.9938197,1241.34399 76.3886388,1264.92991 88.7557084,1277.46393 C156.5871,1310.25117 148.453561,1168.93369 52,1228.21307" id="Fill-407" fill="#162b22"/><path d="M69,1219 C70.3342898,1218 71.6666667,1217 73,1216 C71.6657102,1217.00104 70.3333333,1218 69,1219" id="Fill-409" fill="#144936"/><path d="M75,1215.5145 C76.0009174,1215.5045 77.0027523,1215.4935 78,1215.4855 C76.9972477,1215.4945 75.9981651,1215.5045 75,1215.5145" id="Fill-411" fill="#144936"/><path d="M81,1214.419 C82.0002809,1214.475 83.0022472,1214.53 84,1214.581 C82.9980337,1214.524 81.9994382,1214.472 81,1214.419" id="Fill-413" fill="#144936"/><path d="M356,845.682793 C354.533302,845.998729 352.815144,848.268017 352,846.011802 C353.75929,845.009524 354.993223,842.222755 356,845.682793" id="Fill-415" fill="#144936"/><path d="M295.883283,1097.86313 C203.290743,1102.61552 269.728436,981.708523 329.890292,1030.71372 C376.518954,1089.22091 244.55511,1107.84998 282.740486,1037.82383 C327.645502,1011.56841 316.079031,1088.93278 300.240276,1065.56333 C297.987199,1057.73103 300.753134,1051.26276 303.076188,1044.03352 C292.117412,1045.48805 291.203107,1067.81762 298.803905,1074.68947 C314.217273,1083.46098 325.507519,1056.88787 320.392748,1044.08893 C279.870506,990.039517 241.234883,1074.62113 295.883283,1097.86313" id="Fill-417" fill="#162b22"/><path d="M296.17378,1097.65685 C294.608844,1091.41974 304.022493,1095.27828 308,1094.28109 C303.417039,1093.09413 301.247574,1102.36375 296.17378,1097.65685" id="Fill-419" fill="#144936"/><path d="M563,934.912408 C527.192131,972.485953 490.975024,891.564457 546.998333,911.088111 C547.58506,912.854215 549.048201,914.891312 548.608615,916.336306 C543.854097,926.110662 568.874635,924.72228 561.162567,934.067871 C561.879883,934.209865 562.714913,934.092929 563,934.912408" id="Fill-421" fill="#162b22"/><path d="M536.017106,804.038192 C545.824208,794.895927 544.231451,781.662915 529.481212,791.659405 C532.02031,794.089367 536.99139,794.820224 534.802512,798.852092 C517.206733,804.337264 518.830228,784.264843 533.086805,784.781677 C531.025535,781.829274 527.964832,782.573216 524.878049,782.670414 C526.250056,779.103978 524.151528,770.283215 529.502635,770.826218 C542.42912,774.770234 527.655595,777.344124 542.891113,784.033062 C545.13867,780.125496 547.182244,762.582105 549.887137,766.591542 C547.495206,774.606679 556.825412,770.496304 549.179245,782.074139 C548.844859,785.834038 550.919169,785.14991 553,783.478844 C552.373143,789.678051 549.976555,795.979129 549.408378,801.903564 C548.829956,802.601711 548.224522,803.286773 547.659139,803.994266 C544.01722,808.97195 540.415353,806.888724 536.017106,804.038192" id="Fill-423" fill="#0f0f0f"/><path d="M551.01772,724.401257 C554.726496,728.216702 558.247829,730.030222 563.368495,725.865809 C571.827713,718.969978 585.649129,733.376046 569.609162,733.816897 C565.864016,735.958038 567.63494,737.021648 570.977222,738.036068 C568.575889,741.591644 567.752442,748.186768 560.9224,743.204693 C558.22265,735.27588 554.812292,733.996949 547.514106,738.149297 C542.103415,735.73158 553.09359,725.801769 551.01772,724.401257" id="Fill-425" fill="#144936"/><path d="M617.576783,711.354364 C617.252068,712.060062 616.447969,712.63703 617.453771,713.186215 C617.774868,712.473108 618.618765,711.889657 617.576783,711.354364 M625,721.95558 C614.705001,722.946521 614.911227,724.406075 607.469015,731 C604.284277,727.766939 602.465331,719.794958 605.707053,715.803411 C605.521631,719.897757 609.481524,718.952195 611.171127,717.193507 C615.708994,694.592644 619.885063,707.721222 625,721.95558" id="Fill-427" fill="#00684a"/><path d="M659.50364,683.434843 C660.248972,702.783806 674.241679,689.394001 670.302199,704.868414 C662.057484,707.245854 654.876871,676.409588 650.591904,692.85218 C648.058329,703.072979 646.993306,693.711463 645.088978,689.221047 C643.410369,685.200994 666.119497,674.568398 659.50364,683.434843" id="Fill-429" fill="#144936"/><path d="M588.323025,697.073863 C570.529509,702.849086 579.152255,679.756499 588.784568,679 C590.465967,682.231726 592.536081,688.527272 597.045909,686.544692 C600.92669,681.851631 601.900755,687.107453 604,688.384275 C602.084643,697.679985 588.62799,685.333371 588.323025,697.073863" id="Fill-431" fill="#00684a"/><path d="M549,801.645514 C552.205092,798.522628 562.541399,800.152576 564.99879,792 C565.067766,797.462453 562.190081,820.67764 555.875543,808.529093 C554.754451,804.903521 556.187316,798.816491 549,801.645514" id="Fill-433" fill="#144936"/><path d="M578.072306,731.501214 C567.506461,721.491111 587.840454,727.203902 584.666967,716 C589.802825,727.677242 595.948553,733.866099 578.072306,731.501214" id="Fill-435" fill="#00684a"/><path d="M605,688 C602.829277,686.73196 601.822046,681.512291 597.808185,686.17307 C576.853083,680.3487 604.675239,665.593996 605,688" id="Fill-437" fill="#144936"/><path d="M645.587213,648 C659.536962,649.537398 648.905465,659.152892 658,667.830267 C652.548258,670.001188 639.489154,650.679181 645.587213,648" id="Fill-439" fill="#00684a"/><path d="M549.461416,767.012446 C546.743459,759.788409 556.837912,749.656404 558.780399,761.300706 C570.037106,768.303921 555.924305,769.046686 549.461416,767.012446" id="Fill-441" fill="#00684a"/><path d="M547.211245,738.312235 C558.049617,729.511154 567.166922,748.98218 551.964486,744.628316 C546.205243,748.093981 546.8778,744.628316 547.211245,738.312235" id="Fill-443" fill="#00684a"/><path d="M675,646.98479 C679.357253,641.234657 697.508777,634.687718 695.899291,646.948231 C693.656913,646.056745 691.522636,652.420887 688.671388,646.332346 C685.325839,641.149352 680.188789,650.221701 675,646.98479" id="Fill-445" fill="#00684a"/><path d="M560,745.827221 C565.348908,743.158492 567.468709,748.686839 571.017557,738.739335 C578.022968,740.019955 575.215211,732.490061 577.821615,733.027513 C579.662691,737.602345 566.656771,762.800525 566.187879,748.822128 C564.930355,747.408999 560.07644,748.748924 560,745.827221" id="Fill-447" fill="#00684a"/><path d="M674.763745,646.076533 C682.623414,645.113584 679.03563,653.459139 679.951501,658.648209 C671.222689,660.728619 667.704062,653.201617 674.763745,646.076533" id="Fill-449" fill="#144936"/><path d="M663,630.302838 C659.938229,632.053976 664.350923,636.546992 657.902195,635.9449 C653.061065,635.493108 651.727511,632.881965 652.044013,630.444246 C654.038555,627.246129 660.075251,624.701687 663,630.302838" id="Fill-451" fill="#00684a"/><path d="M537.427905,751 C542.200205,753.306499 551.632535,751.507262 544.309247,756.882554 C545.251946,767.765793 534.789597,759.122726 537.427905,751" id="Fill-453" fill="#00684a"/><path d="M551,724.557299 C550.974156,726.604952 548.631903,731.333084 544.83663,737 C538.69336,728.214569 539.360524,719.332219 551,724.557299" id="Fill-455" fill="#0f0f0f"/><path d="M548.915707,767 C554.431748,767.65053 568.836211,767.417624 560.421751,775 C557.260439,770.087563 544.510601,775.462242 548.915707,767" id="Fill-457" fill="#144936"/><path d="M536.86201,751.597364 C537.06393,755.67599 537.872492,769.557114 531.146772,761.561719 C528.563942,755.141677 530.291682,749.037992 536.86201,751.597364" id="Fill-459" fill="#144936"/><path d="M575.606287,780 C573.739047,775.265396 569.427051,772.011655 574.105325,768 C581.318471,771.730981 582.021957,774.042526 575.606287,780" id="Fill-461" fill="#00684a"/><path d="M659.415715,681.744742 C662.343474,676.249934 652.752373,682.332769 657.194924,673.587404 C665.135464,670.009542 671.172329,684.039639 659.415715,681.744742" id="Fill-463" fill="#00684a"/><path d="M678.851776,636 C671.925674,634.435627 671.748726,634.13644 675.20293,629.816208 C680.089478,626.839249 685.620489,632.720344 678.851776,636" id="Fill-465" fill="#00684a"/><path d="M518,820 C514.536935,815.616243 511.912814,813.908942 511,809 C518.167965,809.1137 516.945603,813.743806 518,820" id="Fill-467" fill="#00684a"/><path d="M660,682.074278 C663.114977,682.222928 666.408748,682.667065 666.607308,678 C678.727595,686.737718 662.151823,688.655665 660,682.074278" id="Fill-469" fill="#00684a"/><path d="M622,668.45735 C620.302471,675.556456 618.539256,670.327953 616,667.088137 C617.811073,663.505314 620.408508,664.909203 622,668.45735" id="Fill-471" fill="#144936"/><path d="M576.943771,710.824974 C572.011205,702.943433 588.135689,708.526077 585.759342,716 C582.985237,714.598412 576.0713,716.971172 577.631734,711.216179 C577.64286,710.643506 577.448153,710.595176 576.943771,710.824974" id="Fill-473" fill="#0f0f0f"/><path d="M535.217554,804 C536.692407,805.414144 542.255261,806.546212 538.988384,807.979162 C535.77525,816.445224 534.436076,809.794795 535.217554,804" id="Fill-475" fill="#144936"/><path d="M673,659.157545 C678.482024,658.571977 682.434373,659.69157 688,661.312232 C681.746249,661.763449 677.363937,663.398476 673,659.157545" id="Fill-477" fill="#00684a"/><path d="M524.451822,783.147486 C527.66915,783.053825 530.850589,782.339662 533,785.182805 C526.26854,782.224388 520.106442,796.606707 524.451822,783.147486" id="Fill-479" fill="#00684a"/><path d="M589,747 C587.197933,748.40988 585.294317,753.490769 584,749.501492 C585.623018,748.652144 587.516836,747.88165 589,747" id="Fill-481" fill="#00684a"/><path d="M553,783.775838 C546.636078,788.165009 549.13387,779.532973 551.833564,777 C552.221377,779.259211 552.610189,781.517525 553,783.775838" id="Fill-483" fill="#144936"/><path d="M548,762.00392 C547.991917,764.820183 546.829609,767.359206 546.060934,770 C545.774803,766.086185 542.909447,761.853017 548,762.00392" id="Fill-485" fill="#144936"/><path d="M543,807.883705 C544.287526,806.588806 545.573349,805.293907 546.860024,804 C547.563395,807.977897 545.513742,808.243619 543,807.883705" id="Fill-487" fill="#144936"/><path d="M562.298323,930 C561.530417,928.998567 560.762511,927.997994 560,927 C563.440291,927.349857 565.741312,927 562.298323,930" id="Fill-489" fill="#00684a"/><path d="M560.010246,747.001603 C563.750924,746.952749 561.455284,748.029376 559.316905,749 C557.058849,748.354761 557.979677,747.486454 560.010246,747.001603" id="Fill-491" fill="#00684a"/><path d="M589,747 C589.712798,746.68625 590.408482,745.357118 591,746.381106 C590.356399,746.604173 589.52753,746.745823 589,747" id="Fill-493" fill="#00684a"/><path d="M576.09834,743 C577.812173,743.249131 576.678028,745.025439 576,743.149633 C576.000647,743.148861 576.09834,743 576.09834,743" id="Fill-495" fill="#00684a"/><path d="M585,712 C584.333333,711.839402 583.666667,711.677408 583,711.516112 C583.979521,710.505045 584.343791,711.148833 585,712" id="Fill-497" fill="#144936"/><path d="M562.773203,933.861825 C562.182891,933.779825 561.590312,933.698825 561,933.616825 C561.717213,933.262825 563.658105,932.634825 562.773203,933.861825" id="Fill-499" fill="#00684a"/><path d="M677.484988,662.519036 C677.484988,662.519036 677.515988,662.479036 677.514988,662.481036 C677.514988,662.482036 677.484988,662.519036 677.484988,662.519036" id="Fill-501" fill="#00684a"/><path d="M547,804 C547.667042,803.333017 548.335208,802.666033 549,802 C548.334083,802.667933 547.667042,803.333967 547,804" id="Fill-503" fill="#144936"/><path d="M423.480905,175 C418.995645,169.412286 416.065429,167.200651 423.758243,164 C428.133631,166.370952 425.022658,170.449634 423.480905,175" id="Fill-505" fill="#144936"/><path d="M423.480284,226 C424.234513,230.022113 425.924997,233.949455 424.352089,238 C416.496263,236.665614 418.240744,228.774917 423.480284,226" id="Fill-507" fill="#144936"/><path d="M423.013821,226.857 C423.342547,226.619 423.671976,226.381 424,226.143 C423.69656,226.419 422.884578,226.406 423.013821,226.857" id="Fill-509" fill="#144936"/><path d="M580,706.932442 C575.104999,708.810428 572.359227,708.493085 570,703.684398 C574.384873,701.743483 577.212414,704.280427 580,706.932442" id="Fill-511" fill="#00684a"/><path d="M577.091662,715 C590.71022,715.641259 584.314016,724.095709 576,725 C576.366753,721.672746 576.72873,718.336853 577.091662,715" id="Fill-513" fill="#144936"/><path d="M550.326416,724 C547.546734,723.893683 544.767052,723.787365 542,723.676829 C545.304764,722.878606 547.075785,714.84068 552,721.842434 C551.44244,722.561341 550.884879,723.280249 550.326416,724" id="Fill-515" fill="#144936"/><path d="M576.130422,711.265674 C576.686422,711.015674 576.869422,711.064674 576.871422,711.694674 C576.262422,711.974674 576.109422,711.995674 576.130422,711.265674" id="Fill-517" fill="#00684a"/><path d="M197,655.243555 C189.575999,670.749758 191.730747,700.311166 171,704 C174.070281,686.930263 185.843298,671.781045 185.376592,653.167144 C183.579401,642.358925 196.210553,644.36154 197,655.243555" id="Fill-519" fill="#0f0f0f"/><path d="M120.750622,678 C128.253126,678.11811 133.377845,696.167244 123.674593,692.704252 C116.691905,686.299843 116.936747,695.972598 112.264985,699 C102.800924,670.487244 116.498857,689.671181 120.750622,678" id="Fill-521" fill="#144936"/><path d="M120.686236,678 C114.900748,677.409704 116.519999,671.72956 121.440865,671 C122.519164,673.50584 121.912396,676.261456 120.686236,678" id="Fill-523" fill="#00684a"/><path d="M151.958081,670.62169 C150.207628,672.69478 147.364603,673.463522 145.185762,675 C143.601804,672.530983 152.688861,665.979094 151.958081,670.62169" id="Fill-525" fill="#00684a"/><path d="M531.309501,244.948786 C532.16584,244.621131 533.62043,243.812411 533.790968,244.039686 C538.23864,250.650549 548.757288,245.261289 545.101205,254.918584 C551.639109,269.590135 519.910804,263.10238 533.356871,258.729229 C537.207203,258.465969 536.709268,255.429953 535.811891,252.53409 C527.637915,254.278426 533.68974,246.913768 531.309501,244.948786" id="Fill-527" fill="#144936"/><path d="M531.77797,264.278451 C544.734676,262.662185 535.871497,268.422773 542,272.772528 C540.681698,276.879328 527.738194,269.819535 531.77797,264.278451" id="Fill-529" fill="#00684a"/><path d="M558.168906,246.633208 C560.921996,244.639356 569.257586,243.453743 567.838742,249.303998 C566.195532,252.443586 553.071921,254.225409 558.168906,246.633208" id="Fill-531" fill="#144936"/><path d="M535.595718,795.249374 C523.862316,790.453005 537.54054,784.879948 544,790.102661 C541.412276,794.762786 540.453296,802.005999 535.595718,795.249374" id="Fill-533" fill="#00684a"/><path d="M575.473441,732 C578.124637,738.89935 570.110256,738.989178 566,736.54182 C568.208538,733.363921 571.975877,733.022024 575.473441,732" id="Fill-535" fill="#0f0f0f"/></g></g></svg>