<svg viewBox="166.04999999999995 147.60000000000014 1162.3500000000001 1180.8000000000002" xmlns="http://www.w3.org/2000/svg" xmlns:xlink="http://www.w3.org/1999/xlink" overflow="visible" width="1162.3500000000001px" height="1180.8000000000002px"><defs><polygon id="masterspot-illustrationspicture-art-path-1" points="0 0.102563328 352.373539 0.102563328 352.373539 483.054993 0 483.054993"/></defs><g id="Master/Spot Illustrations/Picture Art" stroke="none" stroke-width="1" fill="none" fill-rule="evenodd"><g id="Group-386" transform="translate(165.000000, 161.000000)"><path d="M177.8739,871.997 C179.2749,992.477 312.2069,974.053 294.5269,863.174 C288.7319,830.422 251.4289,819.263 222.0949,822.031 C193.3099,811.345 177.0779,854.962 177.8739,871.997 M438.9299,699.879 C352.0369,696.746 308.1319,812.952 403.1939,841.9 C495.8229,873.012 548.4179,696.522 438.9299,699.879 M414.0339,981.654 C362.4609,960.993 293.4909,1004.938 304.4479,1063.181 C306.3379,1074.842 311.4829,1084.838 294.4819,1081.592 C208.7979,1084.175 167.6379,1007.502 135.4579,939.727 C104.3509,888.722 136.6629,824.308 160.8929,785.392 C170.8949,780.963 185.1579,742.435 194.1429,752.899 C247.6109,823.157 339.4359,702.157 266.9209,660.518 C290.0899,634.142 322.6029,604.668 354.7429,582.76 C366.7779,575.198 359.8169,622.16 370.8359,630.704 C396.6279,679.987 460.4939,644.933 470.5819,602.763 C527.3949,672.154 602.4159,724.547 650.5779,801.829 C641.1499,812.056 632.2279,779.44 617.5459,780.086 C583.6919,772.621 567.2749,805.092 553.9339,827.136 C432.1799,857.591 435.8359,864.119 414.0339,981.654" id="Fill-1" fill="#163a2c"/><path d="M496.4154,620.4362 C496.0504,619.7472 495.4634,619.6462 495.1854,620.3942 C495.4004,621.1852 495.9864,621.1082 496.4154,620.4362 L496.4154,620.4362 Z M736.3064,596.4802 C736.0094,595.8332 735.5344,595.7092 735.2684,596.3962 C735.4194,597.1162 735.9134,597.0742 736.3064,596.4802 L736.3064,596.4802 Z M504.3284,525.9542 C505.5134,525.4912 506.5314,524.7222 505.2724,523.8682 C503.9364,524.1992 503.2544,524.7612 504.3284,525.9542 L504.3284,525.9542 Z M733.5764,600.4692 C733.1484,600.4192 732.7194,600.3682 732.2904,600.3182 C732.6954,600.7902 733.0664,600.7972 733.5764,600.4692 L733.5764,600.4692 Z M621.7094,620.0242 C622.6144,619.9322 622.3934,619.5472 622.1794,618.9162 C621.2584,619.0082 621.4914,619.3882 621.7094,620.0242 L621.7094,620.0242 Z M630.8724,573.9862 C629.2224,574.5142 629.2924,575.2462 630.0684,576.5762 C631.4994,575.7312 632.5134,575.2982 630.8724,573.9862 L630.8724,573.9862 Z M505.7024,551.1912 C503.9124,549.2302 502.7944,547.1302 501.5294,549.7302 C502.2404,552.0272 502.8904,552.4412 505.7024,551.1912 L505.7024,551.1912 Z M508.2854,547.6122 C510.6924,545.3262 511.0074,544.9742 509.7894,542.4642 C506.4304,543.0512 507.9164,544.4852 508.2854,547.6122 L508.2854,547.6122 Z M742.7914,589.8662 C741.5324,586.2832 740.6984,588.4512 739.4324,590.5502 C740.0314,593.3082 741.5954,591.3852 742.7914,589.8662 L742.7914,589.8662 Z M627.9874,617.3902 C629.1164,614.6362 630.1304,613.4602 627.0554,612.2642 C625.5264,614.7622 624.5044,615.3672 627.9874,617.3902 L627.9874,617.3902 Z M502.1364,303.1242 C499.5024,298.9802 497.5364,300.1832 495.7644,303.7862 C497.0354,308.1522 499.5114,306.7602 502.1364,303.1242 L502.1364,303.1242 Z M518.1944,170.2822 C513.3394,174.3402 516.9484,175.1532 519.1984,178.6602 C524.3194,175.3402 521.3754,174.1382 518.1944,170.2822 L518.1944,170.2822 Z M623.0704,578.1042 C616.6864,583.5412 616.2664,584.7832 620.0274,590.8422 C623.3064,586.6592 622.3544,584.6432 623.0704,578.1042 L623.0704,578.1042 Z M494.8224,314.6612 C485.1614,318.2612 501.9384,324.4752 504.1464,323.1592 C505.6284,318.4202 497.3784,318.2852 494.8224,314.6612 L494.8224,314.6612 Z M483.3394,426.5972 C477.9164,421.3322 477.0254,434.6852 471.7034,436.1352 C477.5674,438.7272 479.5374,429.7662 483.3394,426.5972 L483.3394,426.5972 Z M650.1684,576.5732 C644.8764,569.3522 643.3464,566.0952 637.3664,573.7012 C642.0564,577.2512 643.7064,581.1502 650.1684,576.5732 L650.1684,576.5732 Z M759.8424,747.2222 C766.1994,747.7462 767.2324,732.2002 769.7954,726.4242 C762.8544,730.0002 763.3864,740.6602 759.8424,747.2222 L759.8424,747.2222 Z M494.9974,589.7062 C501.3704,586.6122 513.5684,570.7402 510.4204,561.0292 C504.1854,569.9432 500.1194,580.1412 494.9974,589.7062 L494.9974,589.7062 Z M470.6064,137.2872 C476.9514,158.8992 474.7074,138.4342 488.0474,133.3502 C483.8054,129.7012 468.9684,127.1962 470.6064,137.2872 L470.6064,137.2872 Z M805.1694,505.5592 C821.9704,506.6142 817.9934,488.7602 819.1164,475.1472 C818.9464,464.9882 785.0174,470.7282 776.6394,473.2432 C748.4264,475.9742 719.5164,475.0202 691.0934,476.1842 C598.2274,479.4292 490.6184,477.5642 405.3734,477.8752 C410.1924,494.0882 399.0264,523.1502 424.0204,515.0222 C459.6024,512.8662 495.1694,509.9042 530.8114,509.0582 C623.5914,510.1112 711.7314,504.3562 805.1694,505.5592 L805.1694,505.5592 Z M487.9564,536.5802 C475.1624,569.3682 497.2924,542.2412 502.4444,527.1932 C497.4684,528.4942 496.2874,519.3682 490.3414,522.8802 C482.3864,523.9032 481.7014,531.3922 487.9564,536.5802 L487.9564,536.5802 Z M738.7604,561.5012 C732.5184,555.0082 722.4994,583.6892 738.8464,561.4092 C738.5104,568.1742 734.8334,572.7652 737.9134,578.8132 C747.2744,581.5472 761.4584,536.7152 738.7604,561.5012 L738.7604,561.5012 Z M463.1494,403.6622 C494.6644,412.8502 478.5574,384.9322 474.0414,397.5362 C474.0364,397.8932 472.6094,398.5672 471.8984,398.5002 C463.8644,394.2562 456.9774,413.1432 463.1494,403.6622 L463.1494,403.6622 Z M747.9644,705.6142 C744.8084,716.8132 727.0794,734.3732 732.1384,742.6382 C744.7164,720.0062 776.6064,649.6862 747.9644,705.6142 L747.9644,705.6142 Z M478.4894,262.4452 C485.8774,256.2062 466.3664,254.5932 470.3054,258.5592 C477.5884,262.3192 466.8284,267.2862 472.7404,272.0072 C489.9084,268.0932 473.4904,280.8112 484.5844,286.5522 C484.9374,286.0762 485.6364,285.2212 485.5944,285.1822 C476.3824,274.4792 503.5324,277.5632 494.3174,282.5532 C494.2464,286.7512 494.1444,290.6302 499.8494,289.2992 C495.1094,285.3852 503.1324,283.4022 501.2674,279.9232 C502.3464,272.4982 513.4464,282.8912 511.7284,273.2862 C507.3364,249.6322 489.6584,289.4462 478.4894,262.4452 L478.4894,262.4452 Z M485.6554,343.9132 C485.6614,349.5602 485.3914,355.2522 489.6884,359.4712 C490.4204,361.1352 487.4204,366.0372 493.1824,363.3692 C501.4124,359.3382 499.2814,369.5392 511.1664,368.5452 C517.5524,371.0362 521.5424,366.3082 519.7594,359.8332 C513.3914,349.1202 498.0844,345.9672 488.5124,345.4102 C484.2124,339.6902 497.9394,330.1872 482.9974,328.3712 C479.7774,328.2772 482.2484,326.8542 482.3424,325.4272 C479.9824,318.5222 470.1834,305.6042 473.8284,300.0012 C474.4684,299.5232 473.5844,297.0132 473.4064,295.4442 C462.3594,299.8182 458.7404,311.2072 473.4384,310.8592 C471.0904,314.1132 471.6834,316.7312 473.8754,319.8372 C449.8684,315.9332 476.6314,331.4702 469.3514,337.6452 C462.4094,336.1672 463.8324,339.3172 464.6184,343.8272 C471.3024,341.8642 481.1914,333.2542 485.6554,343.9132 L485.6554,343.9132 Z M637.1994,598.2102 C629.3614,594.5812 626.3854,617.9712 636.4394,602.7442 C637.2584,601.5942 636.9394,599.6352 637.1344,598.0422 C656.3414,591.6872 644.3654,575.3782 637.1994,598.2102 L637.1994,598.2102 Z M534.9414,261.6092 C535.9794,253.2282 527.1264,255.7692 524.5684,249.4522 C516.5834,244.8402 513.1344,239.0822 505.1424,242.5002 C502.6294,239.7702 507.8994,232.6882 502.7804,231.0012 C499.4174,226.8422 504.8154,221.1392 497.1224,222.2532 C488.0944,223.5672 489.9304,217.0192 488.0224,210.7932 C473.3094,210.9372 496.7634,225.5272 470.9994,217.0372 C467.3174,220.2032 467.4044,232.4282 474.3174,230.2922 C477.2224,220.2162 490.8054,222.7352 491.6564,231.0602 C487.1754,239.6032 466.7644,228.8762 468.2574,242.7132 C473.6234,250.5312 483.5554,240.2132 489.4354,237.1322 C497.3824,229.8432 498.2414,242.1992 497.9214,248.8782 C495.1524,261.4002 517.6784,259.4422 525.5084,264.0152 C536.2484,273.2782 522.1334,268.4352 517.8364,273.7442 C519.8184,277.3622 520.0184,287.4892 525.8914,283.2252 C527.6954,279.2482 530.3574,277.3662 534.7824,277.5442 C539.3434,271.5842 542.7434,265.3192 534.8004,261.4082 L534.9414,261.6092 Z M499.0204,607.3372 L497.4344,606.2092 C499.9704,609.5052 496.1134,613.8842 498.4754,617.5622 C502.6034,615.6662 507.3474,601.1782 499.0204,607.3372 L499.0204,607.3372 Z M740.7834,553.4632 C742.4054,551.4802 744.0264,549.4972 745.6484,547.5142 C743.8784,546.2642 738.2154,558.2612 740.7834,553.4632 L740.7834,553.4632 Z M626.8984,571.5412 C629.4834,557.6082 638.9874,570.3222 642.8054,559.5262 C645.9774,559.4722 648.0244,563.2292 650.5544,564.9112 C654.0844,549.9092 655.1534,535.7422 658.6674,521.1592 C650.9074,526.3652 642.0444,516.3632 634.1964,523.8872 C636.9954,535.6942 628.8364,540.6152 619.3744,545.6372 C614.6904,549.2642 616.7354,551.6532 621.4144,553.0182 C617.1324,558.9492 606.6804,562.8152 610.5654,571.3252 C617.6374,568.7442 620.0574,560.1882 624.8484,554.8132 C632.0544,562.4262 627.9784,564.1302 625.9974,572.3812 C626.2974,572.1012 626.5984,571.8212 626.8984,571.5412 L626.8984,571.5412 Z M744.7924,535.4452 C728.6334,536.9242 768.2684,509.1852 732.2184,520.0932 C719.3544,516.9152 723.9164,527.9442 725.7594,535.2072 C724.0984,538.4672 722.2104,541.8322 728.5924,541.4212 C723.3834,548.6662 730.4434,549.3512 730.9774,541.6112 L730.8014,541.8362 C737.3784,533.2032 741.9494,543.2072 745.7154,534.6192 C745.4084,534.8942 745.1004,535.1702 744.7924,535.4452 L744.7924,535.4452 Z M493.1614,400.1162 C497.0044,404.0252 489.4384,416.7752 484.8084,412.5382 C481.0624,405.8532 478.2154,414.9632 480.5604,417.5882 C485.1854,417.4662 500.8414,419.6182 498.7184,424.6822 C490.6974,427.1162 488.3564,430.1602 492.9414,437.9782 C494.4614,444.7362 488.4164,443.4352 486.6484,438.1842 C484.1714,441.8442 484.7914,445.0442 487.4574,448.4022 C481.5224,457.7762 476.0354,459.0072 468.6014,452.8162 C444.5894,466.2172 481.2294,467.1832 491.2464,458.7162 C505.2094,463.5242 533.1404,466.7962 541.0084,451.5192 C543.7344,455.9612 539.2824,461.5542 546.9154,460.8392 C616.9344,459.3132 686.9774,458.2762 756.9574,455.4592 C781.9384,467.6602 771.8514,352.8732 776.5624,334.8052 C779.4884,280.7942 783.4684,226.8122 787.2124,172.8102 C784.5184,159.3012 802.5054,122.1952 785.8584,120.0792 C741.3834,122.5282 692.4864,122.4662 651.3404,126.1962 C644.8444,126.0012 609.1254,122.7312 615.2274,134.0652 C611.0124,133.0602 606.8804,132.7302 606.2244,127.5512 C605.2104,131.9732 600.7154,143.0512 608.9144,141.5242 C610.5834,146.6912 596.5894,161.0622 593.3464,150.6842 C592.2194,147.6502 590.4124,144.0242 594.7514,141.0832 C604.0214,135.3342 594.5784,123.9982 589.0654,134.7472 C585.8694,138.1252 583.2684,131.5412 583.3894,129.6192 C576.2144,129.4082 562.2564,123.7862 561.1854,135.0342 C557.3504,138.9372 554.7334,131.5222 551.6764,135.6232 C546.9974,138.7112 546.9394,133.9772 548.0584,132.1252 C539.5404,135.2152 536.3154,126.8672 529.2294,138.0952 C528.2584,137.9082 526.5514,137.9402 526.4294,137.5162 C523.4634,125.9122 509.1034,130.5402 501.1804,131.8682 C502.1514,144.7682 505.8704,136.0872 509.7694,139.6322 C508.6974,146.8032 511.0034,154.7352 501.3434,153.2782 C508.9944,163.9132 516.0814,167.9712 524.6964,155.6762 C538.4144,166.9892 519.6774,177.8692 535.8084,182.5152 C539.1244,183.8132 541.6344,179.8252 540.3794,175.7562 C541.8184,171.6252 544.9744,172.9862 547.8404,173.4212 C548.1184,175.1942 545.3484,179.3732 550.7544,177.0952 C560.9914,169.5382 560.1564,195.4322 550.6514,192.1812 C537.9354,177.0492 529.5674,197.4702 518.0364,186.3782 C516.5444,185.1282 512.9564,183.7002 512.7104,184.0462 C507.0274,193.5212 500.2384,180.9762 484.4734,182.4422 C487.9854,175.5492 487.9014,175.4262 479.4364,175.1512 C466.9264,166.7102 486.1284,183.6472 473.4824,180.1682 C464.8904,169.4832 468.8934,203.9292 472.9514,194.6232 C471.9294,182.1862 487.5894,187.9942 493.7334,190.5972 C499.4834,195.6452 498.7854,202.9082 500.5724,209.2952 C503.2714,210.4222 505.1904,211.6652 504.1444,215.1222 C510.5694,222.9172 514.6744,207.2482 522.3884,206.8282 C526.7784,211.1652 531.1004,218.1872 535.8114,221.5672 C561.1824,238.5922 526.4644,237.5972 513.5484,229.8322 C502.0494,232.8242 517.0604,238.2022 520.8484,239.2792 C525.7564,244.6072 530.4114,245.7482 536.0594,240.9132 C532.8354,256.5292 553.3724,248.0002 557.9154,259.1382 C556.1364,264.6222 560.5944,272.5122 551.7014,275.2482 C552.3814,276.1752 553.0614,277.1032 553.7424,278.0302 C553.7814,287.2342 540.3424,282.5922 547.7394,278.5302 C538.5374,275.7012 533.3154,285.1782 531.4174,293.0562 C522.0484,294.0132 531.3274,305.1052 523.7324,306.0432 C516.4544,292.7432 515.9154,313.2512 510.8484,319.5202 C509.6854,317.6042 508.5594,312.1842 506.9754,316.3792 C506.3934,322.5942 512.8104,317.3422 510.1284,324.1812 C502.5644,327.1002 524.7064,338.9442 507.1244,336.4282 C505.2194,331.3352 500.0644,326.0362 498.0394,333.6842 C502.4044,333.3772 504.2604,340.5442 506.4034,341.1962 C514.0184,339.5052 517.0094,347.1462 522.7154,348.9172 C529.4894,347.0222 529.4924,350.4062 527.8534,355.1512 C525.9704,363.9512 535.2464,351.3702 536.4604,357.9072 C535.6014,367.0722 520.7344,366.2532 520.7544,376.8402 C515.0504,378.3952 505.9914,378.1992 499.9004,376.5292 C499.4034,381.5562 495.1694,386.6852 503.2394,386.8922 C503.0864,398.8582 493.5464,393.0012 493.2674,384.4052 C489.1334,384.1882 485.3944,384.0202 484.8734,378.2282 C484.5034,374.1092 480.8304,372.5432 478.4234,376.0912 C474.2354,382.2632 472.2834,379.7542 469.7714,375.1342 C460.9874,368.4622 473.8174,359.0352 482.5454,362.2262 C482.7464,362.3522 483.4824,361.5922 483.9694,361.2442 C479.1184,357.3932 471.8384,358.3762 469.0074,351.7192 C459.5044,357.8542 459.2274,383.3452 471.6614,385.3822 C476.5944,385.7822 481.2774,385.2972 483.0984,391.3212 C489.2574,392.4722 481.1554,397.6422 493.1614,400.1162 L493.1614,400.1162 Z M510.9474,579.5292 C511.1824,579.2072 511.4174,578.8852 511.6534,578.5632 C508.5074,580.4312 507.2974,586.0122 509.8594,588.5002 C508.2354,586.0112 508.6484,581.5822 510.9474,579.5292 L510.9474,579.5292 Z M518.2904,651.9512 C497.0044,636.6062 480.9994,612.8432 463.1964,593.2522 C458.1704,578.1042 484.1514,520.9092 460.8254,524.0212 C443.8374,520.1552 394.5144,536.6572 392.3854,515.5372 C395.5264,483.7632 384.5964,455.0882 429.1274,465.0432 C436.3444,465.6652 437.1884,465.4272 437.5204,458.0652 C438.9044,397.3472 444.2084,337.0212 447.5254,276.3752 C468.6314,112.6562 411.0304,118.4852 567.8224,114.4302 C585.1944,108.7132 560.5754,67.1762 584.9584,63.7972 C702.5384,53.5182 647.0284,52.8152 673.8944,110.2412 C696.1344,115.6422 805.1294,96.9342 803.8344,117.8742 C807.8964,212.4762 795.8324,307.5562 792.3224,401.9032 C794.2844,415.1082 779.8964,454.8352 794.3594,457.8542 C845.2354,453.9182 832.4634,459.8632 831.2614,510.3252 C820.1924,527.1662 769.9314,504.0102 764.6114,522.0332 C777.4674,620.1192 785.9624,718.7742 792.8854,817.4602 C774.9454,812.8082 760.1564,797.5662 742.2994,796.8592 C739.5894,802.7162 710.2354,793.4272 711.2594,788.6462 C708.9824,750.3082 710.0664,711.9152 710.1934,673.5392 C710.3324,638.4592 711.7524,599.7392 709.6094,562.9182 C710.5254,530.6752 721.1334,510.9292 678.4284,518.8332 C659.2534,514.1552 673.9014,585.0422 653.1784,608.1242 C648.6164,604.3672 647.0344,611.5942 643.3164,610.7902 C644.7484,607.5692 643.9484,606.5572 641.1064,608.3062 C594.0804,667.1132 605.5454,625.3932 598.9074,577.4332 C600.3834,567.6142 590.3394,547.1432 601.6364,543.0792 C612.3914,544.6652 620.5764,525.7202 620.1684,524.8422 C619.3004,527.5052 613.7474,528.7392 617.7074,532.8362 C614.1554,529.6082 604.7734,544.9582 600.0514,537.5372 C594.5134,531.9962 597.7894,520.8142 587.8404,521.9392 C570.0384,521.9312 552.2354,521.8972 534.4334,521.7372 C529.5154,521.6932 527.5984,523.4642 527.3604,528.6982 C525.4874,569.8572 521.7244,610.9012 518.2904,651.9512 L518.2904,651.9512 Z" id="Fill-3" fill="#0f0f0f"/><path d="M943.351,883.5834 C947.662,865.6414 907.223,894.2404 940.122,890.5414 C941.64,890.3604 942.573,885.3904 943.351,883.5834 M951.514,835.4014 C947.551,838.5844 945.801,859.0074 954.208,853.5254 C968.591,843.8624 969.867,839.7584 951.514,835.4014 M889.105,946.5444 C885.2,938.2604 889.514,914.2994 879.536,914.2784 C875.899,915.5524 871.325,917.1114 874.331,922.6914 C880.361,927.6554 883.232,960.8224 889.105,946.5444 M874.649,786.7654 C877.927,758.9514 841.83,781.0754 826.474,779.7284 C823.543,788.1854 853.656,790.1284 862.047,795.4904 C874.736,799.7284 874.996,802.0884 874.649,786.7654 M944.805,775.3734 C940.308,758.7394 905.992,773.3834 892.017,771.4104 C880.227,772.3494 881.396,803.2484 891.803,805.9464 C942.544,821.5774 944.386,839.9794 944.805,775.3734 M886.635,830.6854 C891.935,842.6924 880.404,896.2414 902.9,888.0204 C920.593,876.0374 947.84,868.3124 942.858,841.6254 C942.478,822.5064 916.401,825.3774 903.305,817.7184 C882.172,810.6174 887.022,813.2034 886.635,830.6854 M926.355,895.5104 C883.713,889.1174 896.268,928.4544 900.626,955.5424 C902.286,961.4864 900.539,971.7204 906.212,975.2184 C912.1,973.8474 918.334,983.8814 923.933,974.7624 C931.183,977.8174 933.416,968.5104 940.632,968.4964 C954.461,955.9504 939.881,927.7844 942.93,909.9424 C943.101,892.9794 942.153,895.6334 926.355,895.5104 M963.079,767.9314 C941.137,768.6914 954.289,802.2424 950.059,817.1974 C949.755,821.6404 948.051,827.8924 952.539,828.3674 C961.213,829.2844 968.304,837.6984 977.783,833.4554 C1034.349,774.7794 1057.662,768.9934 963.079,767.9314 M913.29,760.8464 C958.452,769.2594 946.476,736.3864 956.238,703.7194 C965.701,685.6944 883.913,698.4784 888.881,712.3044 C889.861,740.5914 868.906,773.4354 913.29,760.8464 M778.994,647.6304 C781.409,633.0924 817.729,646.8924 832.293,643.4704 C841.324,641.7804 842.929,659.5464 851.071,649.5364 C865.058,633.9364 896.003,649.4904 899.321,622.8784 C927.13,639.5094 948.091,646.9124 902.549,649.1494 C920.009,657.2044 942.566,649.3044 957.982,663.1824 C940.776,666.8044 903.673,646.2204 896.776,665.5584 C896.127,673.3584 884.98,696.6444 900.906,692.4844 C922.336,686.2954 948.119,691.2724 966.978,679.6534 C968.81,677.4914 974.104,672.8424 971.779,681.9764 C974.774,687.3944 984.886,685.7094 989.53,691.4314 C979.14,696.0674 963.999,687.9474 962.618,703.5664 C944.329,770.0694 957.205,759.5314 1016.585,763.3624 C1042.809,771.6034 1031.686,742.0384 1045.521,745.2134 C1050.826,747.7944 1043.826,755.4364 1045.96,760.9974 C1045.785,770.6424 1054.606,765.5824 1059.213,768.5894 C1068.407,775.2334 1051.804,776.6744 1047.321,774.4454 C1042.277,772.9134 1040.008,774.8994 1037.844,778.9384 C1027.223,800.1364 1008.555,815.6454 993.486,833.5974 C975.948,846.1334 1064.436,866.2994 1075.624,871.9084 C1081.915,895.9914 1052.612,894.3294 1037.295,888.4454 C1046.816,881.9374 1059.564,886.8074 1069.591,881.5484 C1045.399,866.6894 1015.634,860.7404 989.755,848.1844 C975.999,842.6734 965.084,860.2354 953.469,865.7604 C932.886,908.8764 1008.366,882.2604 1030.424,886.7974 C1038.659,899.1924 971.585,893.4754 959.375,895.4594 C942.341,894.4574 954.414,918.1884 952.651,928.4264 C954.872,958.3434 949.703,969.7094 983.189,952.2074 C1004.775,947.5754 1061.875,905.8184 1064.955,921.3554 C1031.558,939.2604 996.443,953.3424 960.994,966.5574 C954.904,982.7884 1048.944,950.3344 1061.367,939.3254 C1053.785,973.7364 994.822,979.0704 962.825,985.4894 C948.128,986.0974 964.83,1006.5584 956.527,1009.7634 C944.018,1005.7914 956.51,985.8294 940.734,987.4514 C884.708,985.7994 919.536,989.9604 903.095,1017.3574 C896.457,1017.0974 897.912,1022.9864 896.325,1025.8684 C882.722,1036.8724 879.003,1053.8084 870.944,1068.1954 C848.334,1091.5614 810.556,1098.3894 782.641,1115.8334 C735.599,1142.6714 790.504,1046.8254 783.142,1017.9044 C787.96,1009.9334 785.531,1027.7764 784.326,1031.2784 C804.224,985.0034 800.653,927.4914 855.389001,906.7684 C864.08,903.1154 872.468,910.4314 879.481,902.0164 C887.68,889.7724 863.006,899.8124 859.188,892.4194 C866.758,884.3204 885.116,897.3334 880.48,878.7614 C874.252,856.3024 884.254,821.3074 867.678,805.3004 C849.078,793.2764 786.818,791.8344 790.13,773.3314 C816.588,778.0584 843.055,767.7534 869.473,765.4814 C881.737,756.6014 874.344,730.9954 878.673,716.3684 C878.33,692.8554 806.996,731.8684 786.373,733.7924 C782.747,705.8004 874.973,712.2864 882.222,688.3224 C883.908,668.6734 898.24,645.6184 866.51,653.4574 C835.106,654.1114 808.724,673.5784 781.675,687.7854 C777.944,664.4674 815.011,663.2974 829.151,651.7684 C814.162,645.7964 795.32,649.7994 778.994,647.6304" id="Fill-5" fill="#00684a"/><path d="M763.1068,1046.3324 C758.9038,1042.7514 754.9398,1064.9474 760.7258,1058.5474 C761.6488,1054.5044 762.3378,1050.4094 763.1068,1046.3324 M848.8618,878.1634 C830.0118,836.5074 837.5588,885.0364 823.8648,893.8524 C830.6868,899.4194 848.3958,886.5394 848.8618,878.1634 M722.8238,959.5014 C770.6558,932.5004 817.6818,906.2964 815.3138,845.0584 C779.8588,878.6164 749.0288,919.7704 722.0188,960.3494 C722.2868,960.0664 722.5548,959.7844 722.8238,959.5014 M791.0618,785.5864 C886.5898,801.7794 874.1378,797.8254 880.6638,884.7564 C880.7648,896.3934 863.9738,884.0354 859.1878,892.4204 C863.0148,899.7944 887.6768,889.7964 879.4838,902.0204 C872.4428,910.4574 864.0958,903.0754 855.3818,906.7594 C800.6498,927.4934 804.2278,984.9974 784.3258,1031.2784 C791.1398,981.0504 765.7998,1110.6854 760.7648,1124.8234 C707.8678,1149.8644 750.5228,1088.4464 752.3158,1061.4394 C749.3098,1043.0754 793.9338,956.3264 772.2858,963.3134 C726.3338,997.4324 672.7738,1022.2844 655.9018,1081.5564 C646.3938,1100.8624 636.7008,1120.0794 627.0898,1139.3354 C586.6158,1125.9724 618.4028,1097.6374 626.6648,1068.9884 C601.2558,1072.9074 580.6698,1116.7274 552.9738,1085.2554 C583.4588,1061.4494 615.2308,1038.9414 646.5908,1015.5434 C661.9758,1007.4544 668.0018,993.9674 673.9868,978.5264 C686.8848,948.9544 716.2048,930.1944 730.1198,902.5674 C742.3888,872.7314 770.5008,849.6244 792.8698,826.4404 C796.9218,815.3194 789.4248,799.4074 791.0618,785.5864" id="Fill-7" fill="#00684a"/><path d="M792.8837,817.4601 C800.2797,830.2491 771.7007,841.4581 766.1147,853.1441 C744.9837,872.7871 734.1607,897.8101 718.6637,920.2511 C654.1707,989.1971 686.5077,996.5191 592.1717,1055.3891 C550.2497,1104.4131 527.9387,1066.8321 478.6537,1058.0191 C449.8977,1040.3381 542.0677,986.1921 553.0017,972.7401 C609.0787,930.2991 658.4517,877.0551 717.3757,836.8471 C759.8967,809.2161 739.1647,789.1341 792.8837,817.4601" id="Fill-9" fill="#00684a"/><g id="Group-13" transform="translate(0.000000, 307.130000)"><mask id="masterspot-illustrationspicture-art-mask-2" fill="#fff"><use xlink:href="#masterspot-illustrationspicture-art-path-1"/></mask><g id="Clip-12"/><path d="M341.7079,284.3542 C289.4519,334.1122 370.9819,85.3102 316.6809,53.7682 C244.1019,-40.4088 80.4989,55.9602 98.4369,164.4492 C97.3469,262.0562 209.9599,291.2942 267.9949,348.4032 C260.2309,378.2022 228.1289,326.2762 205.9719,330.7502 C139.2649,315.9812 37.6809,330.8982 15.4279,405.9462 C15.0709,400.5712 6.4579,398.1112 5.5499,403.6562 C15.2939,412.4812 16.2859,399.1692 14.4059,419.4802 C26.7559,517.8142 224.3589,424.4812 158.8779,480.1802 C116.1149,477.9082 66.7979,494.6732 27.4259,466.2882 C-13.1021,441.5632 -4.7221,386.6502 26.6449,358.1892 C75.3569,307.2992 143.8149,316.3902 192.6149,310.7232 C-104.1371,134.6872 289.3699,-156.7568 351.9339,103.8542 C354.8379,163.6382 342.4319,224.0452 341.7079,284.3542" id="Fill-11" fill="#0f0f0f" mask="url(#masterspot-illustrationspicture-art-mask-2)"/></g><path d="M414.0336,981.654 C425.7416,945.844 422.2426,899.512 445.1126,870.063 C468.8666,847.279 648.1956,791.461 586.1456,836.525 C599.9326,836.479 569.5466,864.435 563.8936,869.941 C558.6286,865.839 557.5366,871.761 555.9176,873.855 C535.2186,899.173 517.3436,924.835 502.9296,953.49 C500.1986,947.675 486.1876,966.468 492.9316,969.496 C488.1546,984.273 476.7626,981.095 473.8036,993.554 C466.2846,994.717 466.4146,1001.272 464.6436,1006.47 C459.7806,1014.23 453.9206,1021.693 449.6976,1030.218 C429.1416,1061.427 404.6596,1003.064 414.0336,981.654" id="Fill-14" fill="#00684a"/><path d="M732.8065,1129.4857 C714.1045,1147.9677 653.4625,1166.6977 627.0925,1139.3387 C643.8455,1105.9197 660.6085,1072.5047 676.4965,1038.6647 C678.3995,1027.5647 788.7575,944.1117 779.3235,967.9317 C761.5375,1021.6277 747.9455,1076.2987 732.3585,1130.2857 C732.5075,1130.0197 732.6575,1129.7527 732.8065,1129.4857" id="Fill-16" fill="#00684a"/><path d="M1067.2181,913.6347 C1032.1641,929.3847 997.8161,946.8667 961.9821,960.7987 C948.2631,963.6727 956.0351,936.9667 952.6501,928.4297 C947.6991,893.9497 949.2041,893.8717 983.3231,895.2447 C992.3131,893.1957 1039.6481,897.4467 1030.4301,886.7957 C1013.0321,882.6827 948.3721,902.9517 950.5451,878.4297 C947.1001,864.6937 978.0051,843.5937 989.7511,848.1837 C1013.4111,864.4137 1114.8881,879.5927 1037.2991,888.4357 C1057.6311,897.5817 1078.9201,878.6077 1067.2181,913.6347" id="Fill-18" fill="#00684a"/><path d="M899.3197,622.8783 C895.9927,649.4863 865.0657,633.9393 851.0697,649.5353 C842.9277,659.5523 841.3277,641.7763 832.2957,643.4773 C801.1097,641.8123 770.2847,650.8813 774.8887,609.4303 C789.9127,594.3113 813.4387,588.0313 827.7717,572.8333 C800.7387,571.5813 768.5107,624.5773 771.2817,573.5033 C778.4147,567.1963 798.8937,540.9963 776.3787,553.3003 C766.6337,571.9613 754.7227,525.4603 798.5437,551.5323 C825.5837,559.7903 844.6357,581.9533 868.7107,595.8813 C874.6817,602.7043 900.9827,616.4293 899.3197,622.8783" id="Fill-20" fill="#00684a"/><path d="M878.7294,603.1857 C865.4334,543.4247 1023.4674,486.2797 1082.8064,487.1047 C1203.1464,505.0177 1128.1184,607.5717 1065.7114,648.7477 C1045.1034,665.8387 1025.3274,684.1567 1003.3874,699.5237 C986.6064,688.4587 1021.3784,676.1177 1027.5534,666.5637 C1289.1254,470.9987 991.7064,449.7577 878.7294,603.1857" id="Fill-22" fill="#0f0f0f"/><path d="M998.2714,690.3847 C1005.1634,712.1277 1039.0684,721.4067 1045.5314,745.2227 C1036.0864,740.0417 1038.2154,760.1497 1032.1224,762.5767 C1017.3714,762.1987 944.5354,768.1747 954.6914,747.5247 C961.2784,731.6517 953.2624,693.8487 975.6804,693.4817 C986.4974,693.4387 993.2204,691.3107 980.0914,685.7337 C977.4134,684.9707 972.0004,686.1577 971.7794,681.9757 C974.1044,672.8417 968.8104,677.4917 966.9774,679.6487 C948.1194,691.2677 922.3344,686.2987 900.9094,692.4897 C893.3584,693.6557 891.9364,692.8447 892.8564,685.0237 C893.6674,647.3817 912.5854,658.7317 940.2094,661.7487 C964.3574,659.4867 977.9634,680.8967 998.2714,690.3847" id="Fill-24" fill="#00684a"/><path d="M1075.6273,871.9042 C967.2773,829.4182 975.5613,865.5892 1037.8473,778.9442 C1041.5323,769.6402 1051.6843,777.1002 1059.1453,775.1142 C1063.3473,773.4232 1062.3783,768.7852 1057.3413,767.9352 C1044.8573,769.5882 1042.7063,757.1262 1048.5943,747.4632 C1084.2323,776.9112 1089.7603,831.7722 1075.6273,871.9042" id="Fill-26" fill="#00684a"/><path d="M412.5912,988.9555 C411.5292,1007.1015 414.5062,1022.4975 428.6212,1034.5835 C424.2702,1051.2085 422.4552,1072.9575 400.4832,1072.7625 C377.1522,1077.2895 408.1872,1047.7715 386.6812,1037.7295 C359.9312,998.2235 311.2492,1027.3975 331.3182,1070.3505 C316.0692,1127.2405 269.6782,969.2175 412.5912,988.9555" id="Fill-28" fill="#163a2c"/><path d="M462.7118,590.1952 C463.3778,639.6772 379.5968,670.7892 374.3028,607.2272 C410.2448,623.5792 464.0698,608.0912 423.5338,566.4552 C438.8868,569.5732 449.7598,581.9212 462.7118,590.1952" id="Fill-30" fill="#163a2c"/><path d="M959.1918,1008.9296 C959.6278,1001.5396 950.8988,986.6096 962.8168,985.4806 C997.3758,984.3316 1027.1838,967.6366 1058.5228,955.2946 C1054.7738,977.9456 1027.7838,1005.5336 1004.4948,996.3476 C1008.4548,1004.2826 988.3848,1012.9666 981.7198,1005.8386 C974.5398,1010.5926 966.9938,1008.9286 959.1918,1008.9296" id="Fill-32" fill="#00684a"/><path d="M849.5214,146.6781 C804.4944,129.6041 958.1964,102.6381 954.0244,122.9201 C934.7084,148.3141 877.0874,134.3491 849.5214,146.6781" id="Fill-34" fill="#0f0f0f"/><path d="M888.9266,31.7421 C882.3526,39.5201 819.9926,120.2861 825.1826,78.7051 C831.6206,67.4451 884.4176,-1.7649 888.9266,31.7421" id="Fill-36" fill="#0f0f0f"/><path d="M800.559,13.5314 C793.593,31.2064 801.132,71.4194 780.402,77.7394 C766.998,60.2154 782.701,30.2514 782.534,8.8754 C784.209,-5.1966 802.616,-1.7116 800.559,13.5314" id="Fill-38" fill="#0f0f0f"/><path d="M1061.371,939.3219 C1030.493,958.4159 993.027,968.0129 957.29,971.4189 C976.221,955.1509 1006.332,952.2699 1028.594,939.3489 C1045.283,934.5579 1072.81,907.2319 1061.371,939.3219" id="Fill-40" fill="#00684a"/><path d="M904.701,1015.5031 C916.079,1006.4781 894.48,984.4881 918.764,987.5021 C963.203,985.9351 938.211,987.2561 956.52,1009.7661 C939.868,1015.7591 922.081,1014.1981 904.701,1015.5031" id="Fill-42" fill="#00684a"/><path d="M576.6615,1099.9838 C592.9405,1091.7738 610.9475,1070.2488 626.6615,1068.9868 C611.3365,1098.4098 608.9975,1147.6338 576.6615,1099.9838" id="Fill-44" fill="#00684a"/><path d="M423.5336,566.4552 C394.3036,567.3562 387.4276,590.6282 414.3036,604.2442 C353.7986,613.4542 369.6476,546.7182 423.5336,566.4552" id="Fill-46" fill="#163a2c"/><path d="M355.7353,1024.8917 C396.6753,1038.4037 323.5953,1036.6127 351.5053,1078.9927 C327.2453,1072.2037 324.7103,1025.1937 355.7353,1024.8917" id="Fill-48" fill="#163a2c"/><path d="M380.8764,1056.4396 C382.1684,1086.2116 352.7464,1078.4996 352.2754,1056.0566 C357.2564,1040.5986 382.4644,1033.7046 380.8764,1056.4396" id="Fill-50" fill="#163a2c"/><path d="M438.9052,1042.067 C451.5172,1045.911 466.6692,1051.336 478.6572,1058.021 C454.8512,1058.654 421.1022,1082.603 438.9052,1042.067" id="Fill-52" fill="#163a2c"/><path d="M423.3993,598.2382 C409.7193,600.2342 393.2533,579.0562 411.9103,573.7692 C424.7943,570.0372 445.7183,597.4752 423.3993,598.2382" id="Fill-54" fill="#163a2c"/><path d="M897.2045,1025.3793 C896.1405,1020.4813 898.2015,1017.8783 903.0895,1017.3553 C904.3015,1022.3633 900.7175,1023.8453 897.2045,1025.3793" id="Fill-56" fill="#00684a"/><path d="M893.1766,1029.1044 C894.2286,1028.0244 895.2816,1026.9454 896.3246,1025.8684 C895.2686,1026.9494 894.2226,1028.0264 893.1766,1029.1044" id="Fill-58" fill="#00684a"/><path d="M1077.0712,867.192 C1077.5672,866.168 1078.0622,865.144 1078.5532,864.127 C1078.0552,865.153 1077.5632,866.172 1077.0712,867.192" id="Fill-60" fill="#00684a"/><path d="M1078.8778,858.9267 C1077.6828,858.5087 1078.7948,858.1687 1079.4548,857.7167 C1079.7108,858.3557 1079.5468,858.7327 1078.8778,858.9267" id="Fill-62" fill="#00684a"/><path d="M470.8163,1052.5619 C431.1813,1047.1659 443.8583,1033.7879 463.5483,1010.0929 C465.7513,1002.7129 466.4363,995.5569 474.8013,992.2529 C476.3323,981.3189 490.0793,982.5989 493.3383,968.6659 C483.7113,969.6639 504.7503,942.0209 502.2933,956.0649 C515.4083,925.8519 535.1563,900.0469 555.9193,873.8559 C557.5373,871.7609 558.6283,865.8389 563.8883,869.9409 C576.5823,860.0439 586.3093,844.3799 594.8863,831.4639 L594.8533,831.4969 C595.5343,830.8149 596.2153,830.1329 596.8973,829.4509 C597.2753,829.0729 598.4923,827.8529 598.8343,827.5129 L600.9013,825.4469 L600.8473,825.5009 C712.4223,755.5349 567.2423,887.8729 554.9433,922.3739 C538.7813,942.8969 503.8543,990.2499 549.5043,946.2759 C592.0003,922.1219 724.5293,771.9899 755.5573,801.1469 C726.8163,836.0339 684.9673,855.7949 652.4503,886.9889 C624.6743,921.8779 583.8693,941.9609 553.0053,972.7409 C525.1623,998.1769 486.2023,1014.8299 470.8163,1052.5619" id="Fill-64" fill="#00684a"/><path d="M280.7138,610.5616 C291.8338,623.9276 300.3198,639.1876 277.9528,645.8036 C249.1568,600.3366 222.7658,552.2996 210.4808,499.4996 C200.1678,477.1736 136.8248,469.9736 131.1248,440.7416 C132.1358,436.2866 136.3548,437.0346 139.3468,438.0856 C235.3178,498.4596 195.6218,459.0826 190.7138,381.5086 C206.4188,305.0436 231.6578,555.7516 241.5088,515.4016 C243.4408,474.3596 249.1118,415.5196 278.0958,388.3546 C290.0378,415.6886 246.3618,475.3146 254.6618,516.2386 C256.4298,537.7726 251.9348,562.1136 264.7538,580.7036 C266.2088,589.5366 285.9578,606.5566 271.6688,607.5116 C270.4338,612.6596 277.5208,610.9286 280.7138,610.5616" id="Fill-66" fill="#0f0f0f"/><path d="M671.8265,797.5883 C684.3155,798.0303 711.3905,800.5253 707.9695,780.2103 C701.9175,769.1083 681.6815,794.5233 671.8265,797.5883 M731.4725,798.3273 C656.6125,845.7983 595.9875,914.7913 524.7605,967.0783 C556.4695,907.6203 605.7295,858.8583 647.1395,805.8393 C654.6955,792.3313 715.1865,768.6703 704.3315,757.3633 C669.2695,749.4343 651.3935,732.4103 630.3785,771.8003 C613.2215,763.2833 652.0615,745.8763 634.4845,741.0963 C583.8765,735.5063 582.9365,717.3033 634.7965,733.2013 C658.0295,739.8793 674.9985,692.9773 692.8465,679.6943 C727.6325,640.8903 707.9325,681.6853 689.5585,695.8773 C648.7435,741.6513 649.2375,739.8553 709.7265,749.2403 C710.2205,762.3733 710.6015,775.5153 711.2605,788.6423 C712.1725,795.8943 725.7805,793.9383 731.4725,798.3273" id="Fill-68" fill="#00684a"/><path d="M710.4149,661.5033 C687.9849,683.2213 669.2549,708.3073 649.1459,732.1253 C632.1399,739.7393 611.6859,722.5683 592.3149,725.8773 C540.2269,688.4973 558.0249,684.1073 600.4929,649.3623 C627.8949,660.6063 697.0039,630.1373 710.0879,653.9523 C709.8569,655.6473 710.6139,658.9743 710.4149,661.5033" id="Fill-70" fill="#00684a"/><path d="M630.3749,771.7958 C651.3719,732.4198 669.3369,749.4278 704.3279,757.3658 C715.7379,761.7498 694.2779,770.3878 690.7389,774.4268 C660.9319,795.0578 649.4909,812.9068 630.3749,771.7958" id="Fill-72" fill="#00684a"/><path d="M602.327,737.6437 C609.379,734.7867 647.22,737.8567 637.052,748.9497 C623.864,777.0007 615.925,752.4227 602.327,737.6437" id="Fill-74" fill="#00684a"/><path d="M639.5233,796.5812 C638.6233,799.5882 636.8853,800.1932 634.9203,797.7162 C634.9893,794.6072 637.1773,793.5132 639.5233,796.5812" id="Fill-76" fill="#00684a"/><path d="M781.6752,687.7851 C810.9452,671.7501 839.9212,651.9441 874.4282,652.9961 C896.7092,641.1371 885.1112,701.1651 870.0692,699.3541 C828.9812,698.5001 777.3112,754.7831 781.6752,687.7851" id="Fill-78" fill="#00684a"/><path d="M786.371,733.8014 C816.628,723.2984 847.603,714.9454 878.267,706.0144 C879.541,723.9814 875.693,741.9034 874.812,759.8604 C860.112,774.2864 826.744,768.6754 805.788,775.0774 C781.175,779.7704 790.526,749.7974 786.371,733.8014" id="Fill-80" fill="#00684a"/><path d="M709.6058,562.9186 C715.2378,668.9166 717.9318,634.1756 606.7338,641.8816 C621.8598,631.4596 635.2928,609.4566 653.1808,608.1226 C661.7438,586.6946 691.6748,578.0966 709.6058,562.9186" id="Fill-82" fill="#00684a"/><path d="M709.7235,749.2387 C700.3305,748.0407 650.7135,743.3027 661.2025,730.3427 C716.4585,661.2087 711.2835,664.3237 709.7235,749.2387" id="Fill-84" fill="#00684a"/><path d="M634.8661,527.2704 C632.2611,519.3114 645.9581,520.2124 650.7121,522.5284 C650.9151,530.7044 664.4121,530.4844 652.9891,544.4214 C644.8141,548.2054 659.7631,572.9114 644.7581,559.8874 C641.4021,558.3804 637.7831,554.6144 642.8021,559.5254 C636.4051,573.5514 627.7781,556.6144 621.4171,553.0174 C607.8871,548.3144 628.6831,541.1004 632.9571,537.3134 C633.4471,536.2334 644.8171,528.1484 643.6391,534.4434 C651.3461,528.5644 639.0631,529.0174 634.8661,527.2704" id="Fill-86" fill="#163a2c"/><path d="M528.8397,161.1532 C521.1237,154.4842 525.2357,145.4482 529.2277,138.0892 C533.4267,137.5832 543.7997,150.0892 540.8077,139.3502 C524.1007,123.5212 550.2077,132.0402 547.6427,151.3292 C562.3087,119.0902 583.6747,172.0502 557.8077,152.4562 C553.0617,178.5672 544.1327,159.2692 528.8397,161.1532" id="Fill-88" fill="#163a2c"/><path d="M606.7357,641.8766 C635.9647,650.3286 692.3027,626.2856 709.1827,645.6366 C694.9357,640.9506 581.5147,663.5296 606.7357,641.8766" id="Fill-90" fill="#00684a"/><path d="M778.9945,647.6303 C795.3165,649.7943 814.1645,645.8043 829.1535,651.7663 C800.0765,660.2323 775.0785,696.9973 778.9945,647.6303" id="Fill-92" fill="#00684a"/><path d="M774.1088,599.6322 C791.8518,591.3282 808.0488,574.1652 827.7688,572.8282 C819.6718,584.5382 802.6228,585.6672 793.4208,597.4612 C783.0248,599.0442 772.5878,617.1312 774.1088,599.6322" id="Fill-94" fill="#00684a"/><path d="M493.0937,346.0593 C518.1727,345.1493 500.6667,368.1653 519.7587,359.8333 C524.3897,372.6553 500.9447,371.5113 499.2577,361.7653 C480.4967,368.6473 495.8547,355.4753 493.0937,346.0593" id="Fill-96" fill="#163a2c"/><path d="M547.119,205.2183 C547.428,202.8753 551.981,201.4683 547.596,197.9333 C543.067,185.4953 573.157,194.5173 560.493,205.6893 C547.065,230.9093 536.259,197.7813 547.741,206.7363 C547.534,206.2303 547.327,205.7243 547.119,205.2183" id="Fill-98" fill="#163a2c"/><path d="M487.4565,448.4028 C512.0035,454.9988 457.5325,474.7678 461.8015,458.9098 C467.5745,443.7108 478.8005,467.2288 487.4565,448.4028" id="Fill-100" fill="#163a2c"/><path d="M525.5101,264.0133 C525.9501,253.6953 530.8551,250.7443 534.9421,261.6093 C534.4691,265.3823 539.2521,274.2963 534.7831,277.5443 C523.4901,278.8903 523.1831,293.1723 517.8381,273.7423 C522.1161,268.4123 536.2781,273.3083 525.5101,264.0133" id="Fill-102" fill="#163a2c"/><path d="M562.9261,245.5695 C556.8701,261.0475 562.0951,256.7595 548.8911,253.3065 C539.0811,254.6645 528.6151,236.6735 542.7551,244.0435 C544.8111,245.1285 547.0491,247.2755 547.0991,242.5865 C555.3181,243.2665 554.7261,251.2015 562.9261,245.5695" id="Fill-104" fill="#163a2c"/><path d="M553.7421,278.0303 C571.3591,288.8603 551.4911,309.5613 543.7261,289.7113 C542.8501,282.4973 553.6511,285.1053 553.7421,278.0303" id="Fill-106" fill="#163a2c"/><path d="M769.3578,561.5775 C773.4198,556.6415 780.2558,546.1575 787.4728,550.9285 C784.4778,560.4385 768.0948,583.6965 769.3578,561.5775" id="Fill-108" fill="#00684a"/><path d="M738.7616,561.5011 C761.4626,536.7211 747.2726,581.5391 737.9146,578.8161 C734.8366,572.7551 738.5086,568.1811 738.8456,561.4091 L738.7616,561.5011 Z" id="Fill-110" fill="#163a2c"/><path d="M497.5043,280.6267 C475.6183,276.9497 508.2053,255.5337 513.4433,272.7537 C495.2493,272.9387 508.7813,278.0447 497.5043,280.6267" id="Fill-112" fill="#163a2c"/><path d="M484.4735,182.4393 C483.5775,184.1783 477.9515,181.3653 480.5675,186.4853 C476.2845,187.5513 471.8905,188.4543 472.9535,194.6223 C472.6755,197.5313 469.7885,196.4043 469.2085,194.3353 C470.3795,190.3953 465.1545,172.4083 473.4805,180.1683 C475.9615,182.2533 479.0485,179.8983 478.7855,175.8423 C486.1225,174.0453 488.8235,175.7223 484.4735,182.4393" id="Fill-114" fill="#163a2c"/><path d="M471.5497,335.9381 C472.9987,334.3501 475.8627,332.5421 475.6567,331.2111 C475.8577,320.4571 493.2167,334.8871 482.4257,339.3181 C475.6127,336.1961 470.7307,342.9561 464.9637,343.4901 C460.7787,335.3031 467.4177,339.3761 471.5497,335.9381" id="Fill-116" fill="#163a2c"/><path d="M462.5888,403.0063 C465.2308,396.0233 468.7748,399.9223 474.0448,397.5413 C479.3838,384.4933 493.8138,414.3843 462.5888,403.0063" id="Fill-118" fill="#163a2c"/><path d="M750.0585,705.9057 C744.0865,718.1497 738.1155,730.3937 732.1435,742.6387 C728.1705,735.9807 743.8065,711.4247 750.0585,705.9057" id="Fill-120" fill="#163a2c"/><path d="M516.3895,378.144 C518.9205,387.521 509.5305,384.703 503.2385,386.9 C495.1805,386.661 499.3945,381.588 499.9005,376.526 C505.2885,379.322 510.8195,376.005 516.3895,378.144" id="Fill-122" fill="#163a2c"/><path d="M474.5722,309.9031 C451.8052,316.0531 471.7032,286.7391 473.8332,299.9971 C468.6572,303.8781 477.8272,306.4281 474.5722,309.9031" id="Fill-124" fill="#163a2c"/><path d="M750.0585,705.9057 C747.2445,703.2917 757.9365,679.9717 762.5485,679.6487 C761.1105,689.5487 754.2675,697.1727 750.0585,705.9057" id="Fill-126" fill="#00684a"/><path d="M725.7592,535.2069 C728.7232,531.1229 742.7272,512.5949 739.3102,525.6379 C736.8802,530.7359 732.9792,537.5029 730.9782,541.6099 C724.9212,541.8949 722.3222,540.2749 725.7592,535.2069" id="Fill-128" fill="#163a2c"/><path d="M663.975,125.9116 C658.805,131.9736 667.347,135.8606 661.951,142.0876 C659.543,137.5106 653.817,116.4586 663.975,125.9116" id="Fill-130" fill="#163a2c"/><path d="M615.2289,134.0691 C622.1479,139.9151 609.2289,141.3091 604.6689,141.3111 C604.5639,124.8981 603.4889,130.5971 615.2289,134.0691" id="Fill-132" fill="#163a2c"/><path d="M759.8422,747.2226 C762.0652,740.8936 764.1952,734.5286 766.6132,728.2746 C773.1102,721.5546 764.4272,750.3136 759.8422,747.2226" id="Fill-134" fill="#163a2c"/><path d="M531.7211,171.8204 C538.4821,172.4224 545.6241,182.3424 535.8091,182.5184 C529.4621,179.2834 522.6291,176.5654 531.7211,171.8204" id="Fill-136" fill="#163a2c"/><path d="M650.1688,576.5734 C643.7108,581.1504 642.0508,577.2504 637.3658,573.6984 C643.3498,566.0944 644.8778,569.3534 650.1688,576.5734" id="Fill-138" fill="#163a2c"/><path d="M485.9716,391.5693 C491.2666,392.0833 493.5786,389.5723 493.2596,384.3953 C502.0436,393.9243 484.7676,406.6613 485.9716,391.5693" id="Fill-140" fill="#163a2c"/><path d="M481.7865,266.7769 C482.6925,271.6519 475.3865,273.0119 472.7405,272.0069 C466.2375,264.9419 478.1885,257.0889 481.7865,266.7769" id="Fill-142" fill="#163a2c"/><path d="M539.2396,284.0992 C543.4896,290.9912 536.6516,294.2122 533.4936,297.0122 C528.3526,298.6932 532.6416,284.3402 536.9206,283.5322 C537.1166,283.3352 538.5756,283.9992 539.2396,284.0992" id="Fill-144" fill="#163a2c"/><path d="M524.7216,306.231 C526.3516,308.749 522.8886,315.171 530.1756,313.354 C532.4276,318.172 522.5426,324.131 521.3126,317.45 C522.2346,314.589 522.1216,306.27 524.7216,306.231" id="Fill-146" fill="#163a2c"/><path d="M509.7685,139.6355 C513.1105,139.4325 516.7985,141.1885 514.9955,144.0945 C512.5435,160.0835 506.2765,151.4655 509.7685,139.6355" id="Fill-148" fill="#163a2c"/><path d="M581.6522,133.8315 C588.9242,132.5345 588.1752,141.3765 588.4872,146.3525 C581.2872,150.6815 583.3242,138.5685 581.6522,133.8315" id="Fill-150" fill="#163a2c"/><path d="M494.8222,314.6613 C497.3922,318.2963 505.6102,318.4053 504.1482,323.1583 C501.9262,324.4683 485.1702,318.2653 494.8222,314.6613" id="Fill-152" fill="#163a2c"/><path d="M513.7758,210.9106 C509.6368,211.4306 510.9338,208.5356 510.9648,206.4346 C516.4858,196.8456 529.2038,208.0146 513.7758,210.9106" id="Fill-154" fill="#163a2c"/><path d="M488.2509,414.2506 C487.8089,419.9226 476.9369,419.2416 480.0739,411.9246 C482.4269,406.8916 484.8669,414.2336 488.2509,414.2506" id="Fill-156" fill="#163a2c"/><path d="M738.8461,561.4091 C735.7901,564.6641 732.7351,567.9191 729.6791,571.1751 C729.1081,568.9721 735.9831,554.6431 738.8461,561.4091" id="Fill-158" fill="#00684a"/><path d="M623.0702,578.1039 C622.3552,584.6409 623.3052,586.6609 620.0262,590.8419 C616.2662,584.7789 616.6872,583.5439 623.0702,578.1039" id="Fill-160" fill="#163a2c"/><path d="M732.2191,520.0912 C730.5061,523.8822 729.4371,528.4752 723.5451,527.0462 C723.3491,519.5902 723.8831,519.1622 732.2191,520.0912" id="Fill-162" fill="#163a2c"/><path d="M637.1996,598.2098 C638.3016,601.1478 630.9616,611.7908 629.7816,606.3448 C632.7256,604.0448 629.1716,595.7408 637.1996,598.2098" id="Fill-164" fill="#163a2c"/><path d="M489.3988,225.1149 C495.2498,221.6899 496.1968,223.9749 497.4768,229.8589 C492.2238,231.8769 490.6568,230.3289 489.3988,225.1149" id="Fill-166" fill="#163a2c"/><path d="M499.0204,607.337 C507.4634,602.146 502.1244,611.256 500.8044,616.129 C496.2934,620.52 497.5404,609.618 499.0204,607.337" id="Fill-168" fill="#163a2c"/><path d="M502.1361,303.1246 C499.5121,306.7596 497.0311,308.1526 495.7641,303.7846 C497.5391,300.1836 499.5021,298.9796 502.1361,303.1246" id="Fill-170" fill="#163a2c"/><path d="M608.9564,147.7076 C607.2344,148.8946 605.5114,150.0826 603.7894,151.2656 C601.9124,147.0666 606.0014,148.2766 608.9564,147.7076" id="Fill-172" fill="#163a2c"/><path d="M547.8407,173.4213 C550.4667,173.9813 554.8227,172.8983 556.5417,174.6533 C552.6067,176.5133 545.2927,180.4343 547.8407,173.4213" id="Fill-174" fill="#163a2c"/><path d="M504.0263,330.9012 C502.6873,334.3232 501.5343,335.5642 498.0393,333.6812 C499.3533,331.2862 500.0023,327.4562 504.0263,330.9012" id="Fill-176" fill="#163a2c"/><path d="M627.9877,617.39 C624.5047,615.368 625.5267,614.76 627.0557,612.264 C630.1307,613.462 629.1167,614.636 627.9877,617.39" id="Fill-178" fill="#163a2c"/><path d="M478.7851,175.842 C470.7451,178.024 474.9471,169.054 479.43811,175.151 C479.4411,175.151 478.7851,175.842 478.7851,175.842" id="Fill-180" fill="#163a2c"/><path d="M740.8226,553.5023 C742.4096,551.9993 743.6036,546.6663 745.6476,547.5133 C744.0876,549.5093 742.2416,551.5133 740.8226,553.5023" id="Fill-182" fill="#00684a"/><path d="M554.9203,141.5015 C550.9353,141.1495 550.5223,138.8195 551.6733,135.6245 C556.3053,130.6585 556.5243,138.3645 554.9203,141.5015" id="Fill-184" fill="#163a2c"/><path d="M505.2636,152.9149 C504.8256,154.2439 504.3866,155.5729 503.9366,156.8969 C501.4606,153.8189 500.7866,152.8639 505.2636,152.9149" id="Fill-186" fill="#163a2c"/><path d="M510.1298,324.1816 C510.2408,325.7196 510.3518,327.2586 510.4598,328.7876 C507.2648,326.9746 506.8168,326.2036 510.1298,324.1816" id="Fill-188" fill="#163a2c"/><path d="M630.9257,563.5575 C629.5277,566.0665 628.2727,569.3175 626.8117,571.4565 C627.5437,568.6595 625.5357,563.5995 630.9257,563.5575" id="Fill-190" fill="#163a2c"/><path d="M485.6552,343.9136 L486.1702,343.3326 C491.0252,346.2066 484.0642,352.2666 485.6552,343.9136" id="Fill-192" fill="#163a2c"/><path d="M742.7914,589.8661 C741.5964,591.3841 740.0294,593.3091 739.4334,590.5491 C740.6994,588.4501 741.5314,586.2841 742.7914,589.8661" id="Fill-194" fill="#00684a"/><path d="M508.2856,547.6124 C507.9166,544.4854 506.4306,543.0504 509.7896,542.4644 C511.0076,544.9764 510.6936,545.3244 508.2856,547.6124" id="Fill-196" fill="#163a2c"/><path d="M738.9218,536.0751 C739.5018,534.9901 743.1508,535.8371 744.7928,535.4451 C743.8078,540.1741 741.1678,540.6711 738.9218,536.0751" id="Fill-198" fill="#163a2c"/><path d="M463.1493,403.6621 C462.0843,405.1611 461.3273,408.7931 459.8833,405.9871 C460.8053,405.2811 462.2373,402.1571 463.1493,403.6621" id="Fill-200" fill="#163a2c"/><path d="M505.7025,551.191 C502.4405,553.249 500.0725,549.993 503.0055,548.211 C503.7265,549.008 504.4475,549.805 505.7025,551.191" id="Fill-202" fill="#163a2c"/><path d="M630.8744,573.9867 C632.5124,575.2987 631.4984,575.7327 630.0684,576.5757 C629.2924,575.2447 629.2214,574.5127 630.8744,573.9867" id="Fill-204" fill="#163a2c"/><path d="M509.1513,581.7045 C508.8953,583.6225 509.4953,585.9955 508.7423,587.6805 C509.0263,586.2255 508.1623,581.3225 509.1513,581.7045" id="Fill-206" fill="#163a2c"/><path d="M493.9897,401.5895 C495.6417,401.8435 497.2927,402.0975 498.9447,402.3515 C496.5117,403.3575 494.5267,405.2195 493.9897,401.5895" id="Fill-208" fill="#163a2c"/><path d="M621.7094,620.0243 C621.4914,619.3883 621.2584,619.0073 622.1794,618.9163 C622.3934,619.5473 622.6144,619.9313 621.7094,620.0243" id="Fill-210" fill="#163a2c"/><path d="M545.5897,279.0034 C544.0827,277.9884 546.9697,278.3834 547.7387,278.5294 C547.0227,278.6874 546.3057,278.8454 545.5897,279.0034" id="Fill-212" fill="#163a2c"/><path d="M733.5765,600.4725 C733.0655,600.7955 732.6945,600.7895 732.2905,600.3175 C732.7195,600.3685 733.1485,600.4195 733.5765,600.4725" id="Fill-214" fill="#00684a"/><path d="M744.7928,535.4454 C745.1008,535.1704 745.4078,534.8944 745.7158,534.6194 C745.3938,534.8594 745.1048,535.6864 744.7928,535.4454" id="Fill-216" fill="#163a2c"/><path d="M498.5131,607.9437 C498.1531,607.3657 497.7941,606.7877 497.4341,606.2097 C497.9631,606.5857 498.4921,606.9617 499.0201,607.3367 L498.5131,607.9437 Z" id="Fill-218" fill="#163a2c"/><path d="M464.9159,343.4423 L464.6179,343.8273 C464.6199,343.7863 465.0759,343.4803 464.9159,343.4423" id="Fill-220" fill="#163a2c"/><path d="M507.9931,337.2513 L507.1641,337.2463 C506.9771,335.9623 507.3761,336.7463 507.9931,337.2513" id="Fill-222" fill="#163a2c"/><path d="M509.0233,587.412 C509.3023,587.775 509.5813,588.137 509.8593,588.5 C509.5303,588.113 508.4013,587.838 509.0233,587.412" id="Fill-224" fill="#163a2c"/><path d="M736.3075,596.4816 C735.9115,597.0726 735.4195,597.1166 735.2675,596.3966 C735.5365,595.7086 736.0095,595.8336 736.3075,596.4816" id="Fill-226" fill="#00684a"/><path d="M626.8988,571.5414 C626.5988,571.8214 626.2978,572.1014 625.9978,572.3814 C626.3168,572.1414 626.5828,571.4504 626.8988,571.5414" id="Fill-228" fill="#163a2c"/><path d="M710.224,655.0138 L709.574,654.5418 C710.01,653.6288 710.81,654.2388 710.224,655.0138" id="Fill-230" fill="#00684a"/><path d="M547.1171,133.3727 C548.1611,131.2967 549.2401,133.1707 547.0301,133.3787 C547.0341,133.3777 547.1171,133.3727 547.1171,133.3727" id="Fill-232" fill="#163a2c"/><path d="M510.8046,579.3817 C511.0876,579.1087 511.3706,578.8357 511.6536,578.5637 C511.3566,578.8127 511.1136,579.6857 510.8046,579.3817" id="Fill-234" fill="#163a2c"/><path d="M652.4056,126.2319 C651.7796,126.1329 650.9046,126.3809 651.8866,125.7959 C651.8866,125.7959 652.4056,126.2319 652.4056,126.2319" id="Fill-236" fill="#163a2c"/><path d="M508.7577,581.3053 C509.4717,580.8543 510.2707,579.4373 510.9477,579.5293 C510.2487,580.0113 509.4547,582.2363 508.7577,581.3053" id="Fill-238" fill="#163a2c"/><path d="M496.4154,620.4362 C495.9864,621.1082 495.3994,621.1852 495.1854,620.3932 C495.4634,619.6462 496.0504,619.7462 496.4154,620.4362" id="Fill-240" fill="#163a2c"/><path d="M491.9628,399.3525 C492.3658,399.6105 492.7698,399.8685 493.1668,400.1215 C492.7618,399.8615 492.3618,399.6065 491.9628,399.3525" id="Fill-242" fill="#163a2c"/><path d="M740.7836,553.4633 C740.4046,554.4993 740.3866,555.5603 739.4646,554.2003 C739.9066,553.9153 740.4926,553.7843 740.7836,553.4633" id="Fill-244" fill="#00684a"/><path d="M506.9315,138.3878 C507.6125,138.3598 508.2935,138.3318 508.9685,138.2978 C508.2845,138.3228 507.6075,138.3558 506.9315,138.3878" id="Fill-246" fill="#163a2c"/><path d="M913.2904,760.8466 C868.9314,773.4436 889.8404,740.5726 888.8784,712.3056 C883.8744,698.4456 965.6384,685.7356 956.2374,703.7176 C946.4624,736.4116 958.4594,769.2536 913.2904,760.8466" id="Fill-248" fill="#00684a"/><path d="M963.079,767.9311 C1057.506,769.0651 1034.608,774.5151 977.786,833.4621 C968.304,837.6991 961.213,829.2851 952.539,828.3671 C948.051,827.8921 949.755,821.6401 950.063,817.1981 C954.259,802.2441 941.162,768.6961 963.079,767.9311" id="Fill-250" fill="#00684a"/><path d="M926.3549,895.5109 C942.1499,895.6669 943.1039,892.9549 942.9229,909.9419 C939.8969,927.7789 954.4469,955.9499 940.6379,968.4969 C933.4139,968.5079 931.1849,977.8179 923.9339,974.7629 C918.3339,983.8819 912.0999,973.8479 906.2129,975.2169 C900.5339,971.7129 902.2979,961.4859 900.6219,955.5409 C896.2769,928.4729 883.7089,889.0859 926.3549,895.5109" id="Fill-252" fill="#00684a"/><path d="M886.6346,830.685 C887.0216,813.203 882.1716,810.618 903.3036,817.722 C916.4166,825.37 942.4556,822.515 942.8606,841.622 C947.8386,868.312 920.5926,876.038 902.9046,888.016 C880.3816,896.284 891.9566,842.681 886.6346,830.685" id="Fill-254" fill="#00684a"/><path d="M928.5624,641.0375 C952.4084,621.5325 973.2964,598.6375 1001.0734,584.7685 C1011.3694,576.1235 1093.0954,536.7035 1059.0474,575.3155 C1022.6544,578.4785 934.4294,669.2345 928.5624,641.0375" id="Fill-256" fill="#0f0f0f"/><path d="M944.8046,775.373 C944.3916,840.002 942.5106,821.563 891.8046,805.945 C881.3036,803.26 880.3196,772.361 892.0096,771.414 C905.9556,773.352 940.3306,758.764 944.8046,775.373" id="Fill-258" fill="#00684a"/><path d="M874.6493,786.765 C874.9963,802.089 874.7353,799.728 862.0503,795.488 C849.8623,790.153 834.4723,788.984 824.0933,781.057 C838.9043,780.194 878.1093,759.392 874.6493,786.765" id="Fill-260" fill="#00684a"/><path d="M889.1053,946.5448 C883.2283,960.8258 880.3733,927.6628 874.3303,922.6938 C871.3243,917.1118 875.8983,915.5518 879.5323,914.280788 C889.5043,914.2608 885.2043,938.2808 889.1053,946.5448" id="Fill-262" fill="#00684a"/><path d="M932.4315,646.6425 C966.9195,657.9505 914.7645,655.7345 902.5515,649.1565 C911.6705,645.2315 922.6115,647.8055 932.4315,646.6425" id="Fill-264" fill="#00684a"/><path d="M951.5135,835.4015 C969.8815,839.7605 968.5765,843.8715 954.2065,853.5255 C945.7895,859.0055 947.5645,838.5975 951.5135,835.4015" id="Fill-266" fill="#00684a"/><path d="M943.351,883.5834 C942.573,885.3904 941.64,890.3604 940.123,890.5454 C907.222,894.2364 947.658,865.6444 943.351,883.5834" id="Fill-268" fill="#00684a"/><path d="M946.5233,655.8891 C950.0903,655.7051 952.5703,657.1611 953.6983,660.6491 C951.3053,659.0591 948.9143,657.4741 946.5233,655.8891" id="Fill-270" fill="#00684a"/><path d="M722.7924,959.4687 C749.4774,918.6787 780.2254,878.5047 815.3144,845.0567 C817.7044,906.2097 770.5734,932.6747 722.7924,959.4687" id="Fill-272" fill="#00684a"/><path d="M848.8617,878.1635 C848.4077,886.5455 830.6987,899.3985 823.8667,893.8565 C837.5487,885.0395 830.0247,836.5105 848.8617,878.1635" id="Fill-274" fill="#00684a"/><path d="M763.1068,1046.3324 C762.3378,1050.4094 761.6488,1054.5044 760.7268,1058.5474 C754.9428,1064.9464 758.9008,1042.7564 763.1068,1046.3324" id="Fill-276" fill="#00684a"/><path d="M722.8236,959.5014 C722.5546,959.7844 722.2866,960.0664 722.0186,960.3494 C721.9546,959.8304 722.3936,959.5334 722.8236,959.5014" id="Fill-278" fill="#00684a"/><path d="M257.7567,722.1491 C258.0827,702.9781 231.1907,704.0181 237.6887,722.9331 C241.0057,713.3251 251.4797,716.7641 252.5067,725.7391 C252.5867,735.0781 257.6287,727.5941 257.7567,722.1491 M263.3767,664.8231 C298.8477,688.3901 284.0647,739.4521 252.7107,759.2811 C239.1227,771.2921 212.1367,763.4521 200.7567,750.2921 C190.1857,729.5821 245.8157,677.5211 263.3767,664.8231" id="Fill-280" fill="#163a2c"/><path d="M15.4276,713.0761 C12.2016,713.8431 7.5516,716.0531 5.5516,710.7861 C6.4446,705.2331 15.0906,707.7121 15.4276,713.0761" id="Fill-282" fill="#163a2c"/><path d="M569.0482,823.8539 C577.2432,798.9699 613.2642,772.4359 630.5212,808.3869 C611.5152,817.2419 589.8492,821.7529 569.0482,823.8539" id="Fill-284" fill="#163a2c"/><path d="M590.3739,832.9916 C592.5489,828.6226 603.3379,818.1066 598.8339,827.5136 C598.4329,827.9136 597.4779,828.8706 596.8399,829.5086 C596.3989,829.9496 595.4959,830.8546 594.8529,831.4966 C593.8509,832.5456 591.7559,835.0436 590.3739,832.9916" id="Fill-286" fill="#00684a"/><path d="M589.243,835.8891 C588.21,836.1011 587.178,836.3131 586.145,836.5241 C587.275,835.9231 588.353,834.2401 589.243,835.8891" id="Fill-288" fill="#00684a"/><path d="M590.8676,835.486 C587.8556,836.544 588.4396,834.299 590.3776,832.995 C591.4186,833.641 591.1976,834.455 590.8676,835.486" id="Fill-290" fill="#00684a"/><path d="M732.8065,1129.4857 C732.6575,1129.7527 732.5075,1130.0197 732.3585,1130.2857 C732.5195,1130.0147 732.6375,1129.7257 732.8065,1129.4857" id="Fill-292" fill="#00684a"/><path d="M280.7138,610.5616 C277.5138,610.9076 270.4438,612.6906 271.6658,607.5126 C276.1348,605.8926 279.3258,605.2466 280.7138,610.5616" id="Fill-294" fill="#163a2c"/><path d="M235.1771,690.1559 C211.5521,725.3749 160.7011,707.7999 124.6091,724.9679 C107.8501,727.1499 87.8351,742.5679 72.1201,734.8219 C80.8201,713.9139 125.1631,710.8909 146.6061,702.0959 C159.4051,691.7789 101.3671,688.2269 101.5071,671.1339 C121.6211,665.1639 144.4061,682.7949 163.1261,689.7729 C181.0791,704.9399 212.4581,687.9219 235.1771,690.1559" id="Fill-296" fill="#0f0f0f"/><path d="M502.9013,953.4667 C502.6983,954.3327 502.4953,955.1987 502.2933,956.0657 C502.4733,955.2017 502.7913,954.3077 502.9013,953.4667" id="Fill-298" fill="#00684a"/><path d="M592.8724,833.4809 C593.5434,832.8089 594.2154,832.1359 594.8864,831.4639 C594.2154,832.1359 593.5434,832.8089 592.8724,833.4809" id="Fill-300" fill="#00684a"/><path d="M590.8778,835.474 C590.9438,834.149 591.5318,833.527 592.8688,833.481 C592.2058,834.145 591.5418,834.81 590.8778,835.474" id="Fill-302" fill="#00684a"/><path d="M596.8402,829.508 C597.5272,828.821 598.2142,828.134 598.9002,827.446 C598.2142,828.133 597.5272,828.821 596.8402,829.508" id="Fill-304" fill="#00684a"/><path d="M598.8344,827.5133 C599.5224,826.8243 600.2114,826.1353 600.9004,825.4463 C600.2124,826.1353 599.5234,826.8243 598.8344,827.5133" id="Fill-306" fill="#00684a"/><path d="M492.932,969.496 C493.067,969.219 493.203,968.942 493.339,968.665 C493.22,968.954 492.968,969.218 492.932,969.496" id="Fill-308" fill="#00684a"/><path d="M594.8534,831.497 C595.5344,830.815 596.2154,830.133 596.8964,829.451 C596.2154,830.133 595.5344,830.815 594.8534,831.497" id="Fill-310" fill="#00684a"/><path d="M671.8265,797.5883 C681.6565,794.5283 701.9275,769.1103 707.9725,780.2013 C711.3985,800.5213 684.3055,798.0343 671.8265,797.5883" id="Fill-312" fill="#00684a"/><path d="M374.5141,738.5912 C354.3261,791.5712 438.8961,837.1982 446.8071,768.3362 C451.5021,728.0412 385.3271,736.4572 401.4131,773.1622 C405.2661,782.8732 424.1431,788.6092 412.6331,774.5482 C404.3051,767.5352 404.8181,757.3242 414.2221,751.6702 C416.0691,756.9602 416.3761,762.1242 422.0261,764.9312 C416.3201,758.8502 424.2371,749.2162 431.2291,752.7042 C441.2071,760.7832 440.7741,772.0152 427.4221,776.1492 C419.6391,782.0602 428.1141,782.0392 432.9941,784.5492 C406.8271,819.4662 366.0871,764.7042 384.1401,735.2332 C403.8831,695.8942 492.1011,696.6212 489.9811,751.2372 C491.7331,890.2432 301.6981,822.5792 374.5141,738.5912" id="Fill-314" fill="#163a2c"/><path d="M371.5067,735.6393 C376.0687,731.9183 375.3107,733.9593 374.5087,738.5903 C373.5117,737.6073 372.5087,736.6233 371.5067,735.6393" id="Fill-316" fill="#163a2c"/><path d="M290.1132,880.1186 C266.6072,1022.3776 131.2982,896.9576 212.2772,823.2866 C214.9712,822.4956 218.4292,824.1096 215.0612,826.9646 C171.4882,855.8456 220.6252,960.6616 260.4382,903.7896 C281.5752,860.8136 231.8912,834.9426 206.2262,873.8506 C192.3202,805.7276 293.9922,820.0816 290.1132,880.1186" id="Fill-318" fill="#163a2c"/><path d="M230.7811,888.9462 C220.0551,878.1542 243.2111,868.0172 249.5691,875.7372 C262.9621,897.3682 214.0741,912.7682 215.1281,883.3502 C213.9171,865.5992 240.3651,851.3542 251.3281,867.0022 C245.4821,870.2292 237.4731,867.6902 232.0311,870.7162 C224.5901,873.4182 220.6161,891.2022 230.7811,888.9462" id="Fill-320" fill="#163a2c"/><path d="M232.2606,908.5529 C237.2326,906.7449 256.3076,892.8489 251.3166,904.3549 C240.8526,924.3369 212.9756,903.2309 232.2606,908.5529" id="Fill-322" fill="#163a2c"/><path d="M223.0145,906.5209 C222.2755,906.8639 221.6645,907.4889 221.0905,906.5199 C221.8285,906.1779 222.4405,905.5509 223.0145,906.5209" id="Fill-324" fill="#163a2c"/><path d="M568.2113,228.106 C580.8533,160.885 713.1143,203.754 672.2623,264.36 C638.0083,301.086 617.8193,259.395 623.6103,324.735 C622.0883,335.689 611.0143,332.02 607.3553,324.372 C604.3983,320.873 608.8693,308.417 600.8523,310.837 C592.8263,312.335 599.6603,301.752 604.3723,302.742 C608.1333,292.894 596.3253,285.891 605.4873,276.115 C618.9003,258.28 667.5793,267.13 659.8413,236.778 C653.8773,226.646 644.3683,214.373 632.5063,212.914 C616.9453,215.607 587.6153,208.446 588.9433,232.528 C585.5093,257.336 563.7823,251.701 568.2113,228.106" id="Fill-326" fill="#0f0f0f"/><path d="M593.8217,398.2749 C591.9297,378.9909 596.7337,347.1819 623.8697,355.0239 C642.0307,365.5019 630.9217,401.2839 606.4317,390.6219 C602.8697,389.4279 602.1767,388.7869 600.4117,391.9969 C599.1467,394.3789 591.8437,393.7699 593.8217,398.2749" id="Fill-328" fill="#0f0f0f"/><path d="M556.3104,173.9858 C539.1434,173.6708 563.5444,153.0368 560.4164,163.2908 C556.1434,151.2128 572.7714,162.3688 569.8914,151.0678 C561.8204,101.4698 614.9884,166.5338 556.3104,173.9858" id="Fill-330" fill="#0f0f0f"/><path d="M535.4237,391.007 C531.6307,397.43 520.7257,396.83 525.5107,404.03 C532.9367,413.776 512.1707,416.32 516.3337,424.582 C507.4317,433.924 503.5607,414.696 504.9857,407.299 C503.6807,400.665 514.0207,400.369 512.6857,392.745 C523.2307,395.294 527.0867,385.742 535.4237,391.007" id="Fill-332" fill="#0f0f0f"/><path d="M528.2792,437.1068 C519.6762,442.9558 516.7772,441.6878 508.4302,436.7758 C518.1002,428.6948 549.4042,414.4878 528.2792,437.1068" id="Fill-334" fill="#163a2c"/><path d="M589.5243,248.2517 C596.0123,255.2497 586.9643,261.4097 585.6923,268.6157 C583.4913,268.4687 578.2403,269.7067 577.7823,266.8657 C582.4643,261.0627 579.8313,250.7087 589.5243,248.2517" id="Fill-336" fill="#163a2c"/><path d="M521.0634,203.8195 C517.7014,204.7105 512.6884,199.2185 510.9644,206.4345 C510.4144,206.8445 509.8284,206.7915 509.4064,206.2345 C511.5544,203.6465 510.4924,202.3795 507.6064,201.8655 C500.1684,185.2785 532.7864,192.0695 521.0634,203.8195" id="Fill-338" fill="#0f0f0f"/><path d="M568.2113,228.106 C568.5003,229.697 569.5183,231.632 568.9583,232.824 C563.6013,245.712 586.0033,259.477 562.9223,245.566 C565.4373,241.54 562.1243,229.803 568.2113,228.106" id="Fill-340" fill="#163a2c"/><path d="M574.6298,345.6227 C567.3148,353.0807 560.8998,344.9067 566.3978,336.9787 C570.7768,338.0977 572.0898,343.0817 574.6298,345.6227" id="Fill-342" fill="#163a2c"/><path d="M646.7738,141.2804 C659.2148,129.3164 652.3368,160.6314 642.0038,155.0664 C641.1708,149.4214 649.7268,148.9564 646.7738,141.2804" id="Fill-344" fill="#0f0f0f"/><path d="M504.9926,453.2499 C492.6636,457.7079 508.6996,441.8629 513.6736,448.6709 C516.5286,454.2209 508.4686,454.6609 504.9926,453.2499" id="Fill-346" fill="#163a2c"/><path d="M587.2894,238.5947 C589.8644,226.3647 597.6644,233.7237 592.0944,242.9107 C591.4824,240.4717 589.2344,239.7477 587.2894,238.5947" id="Fill-348" fill="#163a2c"/><path d="M604.7064,415.2474 C601.0994,409.9464 600.1694,408.4744 603.3944,403.7244 C610.8304,406.5654 609.0724,407.6344 604.7064,415.2474" id="Fill-350" fill="#163a2c"/><path d="M646.7738,141.2804 C647.0578,145.4224 648.1248,149.9434 642.0898,151.0264 C642.1298,146.1094 639.2588,137.0714 646.7738,141.2804" id="Fill-352" fill="#163a2c"/><path d="M564.0394,391.1526 C559.5024,388.8676 557.1254,387.0426 563.3114,386.1546 C566.5134,387.3146 568.2364,389.0406 564.0394,391.1526" id="Fill-354" fill="#163a2c"/><path d="M600.8407,164.3787 C595.9777,164.4337 590.8567,167.8887 586.3437,167.1607 C591.2417,163.7247 596.5577,156.6767 600.8407,164.3787" id="Fill-356" fill="#163a2c"/><path d="M532.9862,197.3462 C540.9332,195.9032 543.3152,191.2292 540.6382,202.3432 C539.7192,204.8382 537.9542,205.9832 536.5012,201.9972 C536.3952,199.9482 529.9592,199.0362 532.9862,197.3462" id="Fill-358" fill="#163a2c"/><path d="M528.2792,437.1068 C530.5412,429.1238 537.9842,438.0318 536.0402,443.2438 C533.4522,441.1988 530.8652,439.1528 528.2792,437.1068" id="Fill-360" fill="#0f0f0f"/><path d="M563.4803,224.4684 C563.4193,221.4394 560.2193,217.3674 565.0153,216.9584 C564.4013,219.2174 566.5893,224.6344 563.4803,224.4684" id="Fill-362" fill="#163a2c"/><path d="M507.6064,201.8657 C510.4924,202.3797 511.5544,203.6467 509.4064,206.2347 C504.1534,205.4037 501.0254,204.0917 507.6064,201.8657" id="Fill-364" fill="#163a2c"/><path d="M606.4965,162.0317 C604.7745,163.8887 603.6745,163.8857 601.6055,162.9237 C603.3735,160.4027 603.8725,159.2367 606.4965,162.0317" id="Fill-366" fill="#163a2c"/><path d="M574.4452,345.7512 C575.7422,346.4912 579.7102,347.5462 577.2882,348.9232 C576.4192,347.9862 575.5782,345.9292 574.4452,345.7512" id="Fill-368" fill="#163a2c"/><path d="M520.6625,331.9664 C519.5275,332.5434 518.6325,333.8344 517.6465,332.2854 C519.0105,331.1344 519.5935,329.4734 520.6625,331.9664" id="Fill-370" fill="#163a2c"/><path d="M539.2396,284.0992 C538.4346,283.8722 537.6286,283.6452 536.8226,283.4182 C537.6276,283.6452 538.4336,283.8722 539.2396,284.0992" id="Fill-372" fill="#0f0f0f"/><path d="M593.6122,398.4795 L593.4262,398.1565 C593.6812,398.2425 593.9802,398.2105 593.6122,398.4795" id="Fill-374" fill="#0f0f0f"/><path d="M531.7245,198.2546 C531.3415,197.5626 530.9595,196.8696 530.5765,196.1776 C531.7915,196.8266 534.0945,197.3696 531.7245,198.2546" id="Fill-376" fill="#163a2c"/><path d="M642.8031,559.5238 C642.0781,558.4738 638.9901,557.5128 640.3651,556.2858 C641.0731,557.3668 642.4421,558.4558 642.8031,559.5238" id="Fill-378" fill="#0f0f0f"/><path d="M465.1659,368.3938 C465.3949,367.3318 465.6239,366.2698 465.8529,365.2088 C467.3379,366.8498 467.2389,367.5478 465.1659,368.3938" id="Fill-380" fill="#0f0f0f"/><path d="M487.9565,536.58 C490.2105,534.453 491.6375,530.841 494.0555,534.664 C491.9785,537.374 490.8695,539.883 487.9565,536.58" id="Fill-382" fill="#0f0f0f"/><path d="M491.8315,532.4493 C492.4005,529.7313 494.4795,529.2693 496.8505,528.7263 C497.6575,532.3113 494.3385,536.5923 491.8315,532.4493" id="Fill-384" fill="#0f0f0f"/></g></g></svg>