<svg viewBox="147.60000000000014 55.34999999999991 1180.8000000000002 1365.3000000000004" xmlns="http://www.w3.org/2000/svg" xmlns:xlink="http://www.w3.org/1999/xlink" overflow="visible" width="1180.8000000000002px" height="1365.3000000000004px"><defs><polygon id="masterspot-illustrationswork-at-home-path-1" points="0 0.0555564203 187.387801 0.0555564203 187.387801 304.401288 0 304.401288"/><polygon id="masterspot-illustrationswork-at-home-path-3" points="0.969326499 0.51 243.465243 0.51 243.465243 237.269093 0.969326499 237.269093"/></defs><g id="Master/Spot Illustrations/Work at Home" stroke="none" stroke-width="1" fill="none" fill-rule="evenodd"><g id="Group-441" transform="translate(153.000000, 71.000000)"><path d="M285.0013,1026.1143 C288.8253,971.3843 222.3613,950.2273 179.7643,962.4153 C77.9853,1064.5733 270.8743,1205.1033 285.0013,1026.1143 M445.2513,825.4313 C332.3453,819.5163 300.1783,978.5683 426.1053,986.8033 C520.2923,994.1393 557.7543,816.0053 445.2513,825.4313 M184.5313,1217.3823 C147.1443,1184.2623 127.6343,1139.1243 105.1333,1095.6413 C59.7153,1017.2643 122.0393,940.7023 165.5373,877.6773 C223.4343,963.2603 333.0073,847.0103 253.0523,774.3403 C439.4173,616.0803 295.5553,722.8823 402.5773,773.4213 C536.4863,757.5693 415.0563,645.9783 562.3133,800.7773 C578.5093,823.5993 607.6823,841.3333 626.9153,863.4043 C635.6473,875.1043 703.4983,958.0743 671.8013,935.0023 C645.4203,891.1403 585.1473,922.4033 579.3333,965.2913 C553.6923,970.5563 528.7403,980.6573 503.3243,988.9153 C424.5793,1007.8953 433.8153,1076.5343 417.3333,1140.9463 C394.1793,1131.3583 369.5243,1135.1113 346.6773,1143.8323 C293.0723,1161.8773 293.8233,1211.2303 292.8283,1254.2133 C253.8353,1251.5033 212.8233,1247.1333 184.5313,1217.3823" id="Fill-1" fill="#163a2c"/><path d="M559.3099,75.2285 C561.6129,72.9455 562.3659,72.1435 559.4249,70.4225 C557.8919,72.5265 556.0119,73.1305 559.3099,75.2285 M248.7799,725.2105 C274.8739,718.7595 264.7479,716.4535 244.7569,712.3365 C243.2479,711.8045 242.9869,713.8155 243.6539,714.4155 C253.4809,716.6655 242.1039,718.5815 241.4379,723.5205 C243.8149,724.7655 246.0059,726.1865 248.7799,725.2105 M748.5509,343.2785 C738.9219,341.1025 742.8289,360.2895 741.2589,366.8735 C742.9919,380.2475 723.3629,433.1415 737.4679,432.7845 C756.7269,412.0255 779.5849,395.7555 803.5979,382.8005 C819.7979,331.0095 790.5079,353.5405 748.5509,343.2785 M892.5909,658.5805 C898.0889,602.9545 843.1109,535.1545 794.2669,594.4265 C792.5699,597.8695 782.5889,613.8485 791.6339,613.1755 C808.9459,608.5815 841.2669,647.0885 834.3249,612.0945 C833.9459,606.6015 833.5989,595.6185 841.4189,596.6755 C854.3719,603.7955 848.0269,624.3685 851.9679,636.8585 C858.4479,647.3985 895.9849,683.8955 892.5909,658.5805 M280.4079,546.0015 C273.7549,567.3325 304.1599,553.4905 315.6869,562.5195 C323.6559,560.5045 321.1179,546.7105 323.2329,540.0545 C325.7389,513.4785 330.9799,487.4385 339.6119,462.2415 C352.8849,427.4345 375.5309,393.1515 347.0529,359.2965 C307.8389,403.0315 285.1969,484.6925 280.4079,546.0015 M810.6509,535.7225 C809.4529,489.6065 804.6199,505.8045 772.9149,523.4485 C764.3409,532.1005 713.2359,534.4475 729.7029,548.6205 C747.4239,578.5585 651.3069,606.5095 664.3239,640.9555 C666.2879,655.8225 700.2479,632.9665 711.5989,633.2475 C731.0189,622.0545 771.0299,628.2925 777.0349,603.7655 C782.7189,572.8865 825.6619,570.3275 810.6509,535.7225 M826.4389,432.5745 C800.6869,341.3885 766.0579,462.0945 726.5489,447.6725 C705.1399,421.4025 713.4849,454.4085 708.8679,470.4515 C710.1299,480.2825 702.0399,476.5385 702.0399,482.8665 C717.4339,489.1765 695.0129,500.2725 703.8309,509.8555 C715.2979,538.7675 732.2369,527.3045 754.4969,517.4725 C789.2939,500.8085 824.2259,474.9215 826.4389,432.5745 M537.2169,565.8955 C525.9139,563.0615 514.7409,574.9605 503.2359,578.2115 C497.9669,583.2715 501.6189,584.4265 503.9339,589.1615 C508.2639,599.7395 515.1789,581.2635 536.2419,585.6985 C537.6999,585.6355 540.3839,584.8465 540.3839,584.3895 C540.3979,577.3945 545.5279,575.0355 550.4929,572.2265 C555.4709,561.9365 535.9079,577.2895 546.0989,561.2115 C541.5219,559.7065 538.4339,561.0265 537.2169,565.8955 M258.0969,697.5365 C251.7249,705.0705 262.3599,703.4595 266.5469,708.1305 C268.7719,710.3145 269.8519,710.7525 270.0179,707.3815 C267.6239,686.6195 276.5529,692.9335 262.4319,685.4865 C263.4229,689.4175 261.2589,694.1525 258.0969,697.5365 M475.6639,62.4835 C455.6679,73.4845 442.3759,92.6425 445.8799,112.5155 C428.8729,124.2615 434.0799,135.1495 423.7959,152.8345 C404.3779,163.3485 371.4219,183.6755 401.4279,201.3685 C388.3329,205.6435 399.7369,225.5365 397.9609,237.3655 C396.5919,257.5025 375.4139,268.3765 372.4849,287.7105 C354.2279,301.2905 354.2549,328.9705 361.8089,348.7035 C364.3819,353.7555 374.0319,355.2375 368.9779,359.3655 C363.3949,424.8675 424.7889,287.8485 463.6879,297.4525 C488.4699,297.9305 543.1259,347.2295 538.7829,293.1035 C538.8589,284.4415 538.8909,284.8225 530.7809,285.6735 C523.0729,289.6035 483.8789,283.8665 503.0299,274.4675 C521.3009,278.1085 545.0639,273.6505 557.3639,258.8365 C567.2499,242.1375 592.1869,206.6565 568.7699,192.5825 C553.9349,188.8205 531.2639,132.0625 523.5189,149.0585 C507.7219,166.6155 478.3209,198.7085 454.9879,191.8175 C454.8219,187.6675 460.0329,182.1155 464.6129,180.8285 C547.5639,129.1705 502.1999,101.4675 582.5609,184.1195 C599.6949,216.6705 580.8879,263.5005 550.9099,282.5115 C548.7089,287.6775 551.5699,294.7965 551.5059,300.9115 C549.7299,313.8355 560.4979,301.0825 566.4269,302.6455 C606.8369,314.6295 632.1529,359.8315 643.6339,397.3935 C655.5649,410.8745 657.9709,488.7775 672.2589,480.4475 C682.6899,468.6445 693.9099,490.6475 694.2059,476.5085 C699.2309,456.2855 691.3879,407.5285 719.2579,406.0965 C725.0029,410.1045 724.3699,406.4815 724.7809,402.7585 C731.7799,350.9715 749.2849,322.2185 696.8759,288.0725 C688.2679,306.3915 694.9009,335.5525 680.6149,355.0605 C650.1159,377.7615 707.3249,273.5335 644.7509,236.2535 C601.2879,197.8445 662.9259,114.6335 608.2389,78.7645 C600.4019,74.3025 587.6529,67.7565 580.1409,71.1575 C578.8589,72.4465 576.5259,73.1245 574.6179,73.2575 C563.6299,72.9305 571.3199,80.3145 566.1189,84.7995 C560.6179,84.1475 561.0149,74.0515 553.9119,76.0255 C549.6469,77.9115 556.1979,83.5515 551.6279,88.0955 C543.2849,86.7555 543.9669,78.7065 537.6909,78.7545 C526.4409,79.2385 514.9239,67.4135 506.5709,63.9845 C499.1689,71.0925 501.7389,59.8175 497.7379,59.3885 C488.6709,55.8855 482.3719,67.8045 475.6639,62.4835 M492.0819,723.5055 C488.7569,720.2565 477.2139,716.5845 484.4439,712.5365 C517.2879,711.6105 546.8349,687.1515 570.6649,669.3145 C618.7639,639.4685 683.1769,600.0015 714.5959,554.4525 C703.6439,536.4065 692.8069,518.3025 682.2709,500.0275 C674.8309,492.6985 662.0129,508.6575 652.8459,509.9115 C629.2819,525.2035 590.2699,529.2855 576.1489,553.2265 C533.8859,546.7785 561.0659,563.2065 559.5829,583.1155 C551.7439,583.9205 553.0249,594.6975 544.4469,593.0935 C547.0179,598.7255 545.0459,604.5305 546.2549,610.2935 C538.5939,608.8345 536.9479,599.2425 527.4049,602.2075 C525.2149,595.8255 518.4889,603.0495 509.4809,600.3365 C494.8659,588.9305 482.6739,583.4055 465.8549,594.5575 C406.6599,586.3405 654.3819,505.7415 649.9989,484.0995 C636.9749,424.4745 622.2059,353.3675 570.8459,315.0095 C548.2009,330.2755 520.5799,345.0615 494.1669,326.2905 C457.0789,292.9995 435.0539,325.7085 410.4719,354.0655 C405.4189,364.6325 380.9959,382.9185 390.5509,393.0075 C338.9259,443.9595 334.8039,538.6815 335.7989,609.7545 C330.8919,633.7445 366.4519,684.8655 347.6919,694.0535 C323.5849,659.1935 330.4209,616.6965 316.0439,580.0165 C254.2599,541.7825 223.5569,621.5855 227.4969,672.3135 C214.8599,671.8565 212.9059,681.2455 227.2229,679.0485 C230.1359,692.0665 224.3319,709.2685 233.8289,719.3855 C238.2199,715.1075 242.6229,708.2635 237.6269,702.7835 C238.3059,705.3485 238.1809,708.1335 241.5689,708.2825 C242.3489,703.1755 250.9559,704.0505 249.8279,697.4235 C250.2499,693.6865 245.9879,685.3725 252.6489,686.3605 C262.0969,689.2025 253.1939,676.7735 259.1809,678.8995 C260.1719,685.2815 264.6329,681.8935 267.0759,681.0685 C275.7259,673.2305 263.5019,611.8635 280.7979,630.0255 C278.7179,647.0945 294.1099,708.2405 276.3669,711.5825 C267.4969,712.6065 268.9019,725.0085 261.6549,728.7985 C260.4499,730.1035 260.9639,737.6315 257.4579,729.7005 C249.7239,721.4045 249.2819,764.4025 236.0999,740.4175 C227.8269,744.3065 227.2649,780.8065 236.3579,791.0165 C200.1639,849.2685 216.5869,722.6285 213.1609,699.8055 C208.2629,639.2745 216.3349,587.4985 267.5819,554.8885 C265.1979,495.5825 288.6299,437.6665 311.3199,383.9725 C325.7429,361.3585 342.2439,340.4975 342.2319,313.3505 C341.9409,308.9035 347.1719,300.0515 339.2599,300.7755 C281.1799,305.7105 216.0419,290.6015 161.2739,302.4965 C165.3429,316.8375 147.3729,376.0985 167.0389,375.0215 C189.5139,380.0075 315.0469,358.7185 309.1039,384.9995 C285.2759,393.8235 250.4139,382.4225 224.4639,392.0995 C223.2849,400.4105 223.0059,409.0545 222.1299,417.4715 C220.4739,429.4415 227.7419,442.2885 210.4619,444.5905 C202.7279,429.4935 208.1539,412.0875 207.5989,395.8955 C189.7899,380.2515 147.1639,392.7205 123.5519,389.5855 C114.7649,388.3935 49.5049,395.2195 73.4659,379.3905 C98.8189,368.1125 146.6859,396.3345 143.5849,353.2465 C143.8099,347.1895 144.4139,339.1115 145.1139,332.3195 C146.1359,329.8415 145.7729,325.2425 146.5339,321.9295 C146.7849,320.5355 147.1019,319.1225 147.3749,317.7295 C148.3669,316.5985 147.6719,313.5855 148.3149,311.6465 C162.9039,276.6985 56.1899,312.7875 45.1569,287.5915 C65.0409,269.3145 184.3909,296.2595 182.8209,276.9005 C168.3999,262.7355 194.4679,257.4085 193.7229,278.0445 C194.3359,279.6435 196.7899,282.1915 196.9919,282.0655 C203.0459,278.2665 208.6929,284.4165 214.5459,282.6525 C226.4099,282.7145 204.4699,273.6455 211.3789,266.3675 C217.0009,268.2905 215.2699,257.2625 218.9099,262.0745 C244.2479,303.3045 224.0659,198.5275 245.4809,219.5555 C249.2829,312.4735 239.3579,277.5215 349.8599,285.0295 C371.9589,244.2285 393.5359,251.8095 374.7349,197.5245 C364.5319,162.5285 409.0349,152.2065 418.3179,123.2745 C425.9839,98.5315 434.4899,72.5525 457.3669,58.0505 C493.3879,25.7075 512.7989,59.7075 543.5719,60.5105 C629.2909,24.5575 665.1299,118.5675 644.8519,188.3665 C637.3219,219.8205 673.4729,239.0445 690.9509,261.0475 C722.1849,278.5335 738.3729,318.2195 767.4969,333.3045 C783.8349,337.8685 822.2119,326.3285 819.3829,352.1295 C821.3139,364.3725 811.0539,382.2275 820.8909,391.1685 C825.6889,393.7265 830.2749,396.8905 829.5569,403.9485 C839.0819,413.0335 844.6529,427.2285 841.7979,440.9915 C814.9079,507.5915 822.3629,477.6185 831.7439,550.6695 C845.0899,566.0555 872.4299,554.9915 889.0259,588.7265 C914.5519,620.0225 900.9029,662.2525 913.3949,695.3245 C875.7089,684.7525 831.6959,625.7015 791.2079,625.3065 C759.8149,639.7385 653.6579,638.3855 662.7039,680.9775 C670.4469,705.5725 539.2479,734.1665 578.5499,707.8405 C600.9239,697.6105 631.2359,694.9025 649.3919,679.8025 C647.6059,669.4515 659.1259,634.4875 646.6399,636.4495 C596.2889,665.7375 550.5989,713.3755 492.0819,723.5055" id="Fill-3" fill="#0f0f0f"/><path d="M1000.9945,1038.671 C1010.0835,1041.911 1012.3925,1031.16 1011.8245,1023.338 C1004.1025,1025.082 982.1465,1038.224 1000.9945,1038.671 M1019.2095,987.305 C1017.0185,1005.342 1030.1915,992.991 1037.5605,986.483 C1039.7755,979.727 1029.3105,980.752 1025.4885,978.079 C1017.8725,974.106 1019.2935,982.484 1019.2095,987.305 M950.4505,1097.77 C947.0855,1090.698 951.4805,1055.216 935.5745,1067.226 C929.0025,1071.605 933.7535,1076.108 936.2435,1079.36 C942.0695,1084.594 946.4115,1121.38 950.4505,1097.77 M705.6815,935.942 C720.6215,930.768 748.3655,940.286 747.8335,920.385 C747.1225,897.347 717.9745,929.749 705.6815,935.942 M875.3885,915.198 C882.2495,918.751 937.0125,944.135 935.6425,930.155 C932.5605,922.597 939.4345,904.73 927.0675,907.505 C909.7585,909.188 892.4595,911.79 875.3885,915.198 M1013.2275,918.203 C1018.9485,885.608 971.9695,908.849 952.9865,905.005 C940.0705,906.634 948.8835,925.502 946.3005,934.435 C956.1745,952.127 988.3615,951.698 1006.1295,962.141 C1017.4025,959.676 1009.5455,930.754 1013.2275,918.203 M743.4695,880.387 C756.2645,878.756 748.0835,857.15 752.4055,847.912 C755.0995,825.595 763.5285,803.42 763.505547,781.083 C737.2695,799.475 721.5035,831.274 699.0255,854.744 C678.1595,875.19 731.7915,873.023 743.4695,880.387 M1010.9975,990.219 C1010.8465,976.996 1013.3375,971.109 998.4365,967.539 C984.8785,966.862 944.3595,936.598 948.3935,963.8 C954.1635,979.532 940.7095,1050.954 968.6185,1035.69 C984.0075,1022.141 1015.7045,1015.757 1010.9975,990.219 M991.4745,1044.956 C956.3385,1042.091 952.6745,1062.899 961.0005,1094.185 C965.3425,1111.976 961.3045,1143.341 988.2495,1135.057 C995.6045,1136.038 999.5355,1135.471 1002.8555,1127.702 C1010.1035,1125.778 1016.6945,1124.459 1015.2925,1114.999 C1008.6035,1092.38 1028.9185,1038.427 991.4745,1044.956 M1018.9275,951.817 C1018.0805,962.261 1020.6465,971.297 1033.9785,972.109 C1064.6835,984.219 1090.2425,931.142 1107.1455,910.395 C1102.4665,896.999 1047.1975,903.976 1029.9385,900.953 C1012.3905,905.637 1023.8385,935.491 1018.9275,951.817 M757.9345,876.5 C763.8605,890.822 788.0265,821.837 807.4625,815.635 C829.8285,796.499 859.9925,778.594 884.4215,770.915 C855.5805,759.503 817.9695,767.714 786.3155,765.164 C763.1415,779.622 765.9215,847.759 757.9345,876.5 M963.0525,895.27 C1005.1205,891.633 1021.3025,902.636 1022.0865,850.157 C1021.3025,840.817 1034.3335,822.692 1023.8395,818.07 C1004.6805,821.733 954.8315,816.535 950.8965,838.792 C953.6045,856.364 934.0205,900.412 963.0525,895.27 M875.9805,905.044 C892.2285,902.458 927.3095,904.097 935.5935,890.165 C933.1485,875.967 949.3525,835.098 933.1835,832.558 C895.3015,845.486 716.2995,886.789 834.6115,904.359 C847.8085,910.627 862.1815,908.764 875.9805,905.044 M779.2725,875.969 C828.6065,856.221 877.5245,831.611 930.9035,823.498 C938.0345,822.668 942.6105,818.7 943.9225,811.062 C946.5795,795.872 959.3645,758.392 931.2165,771.573 C869.9145,777.582 800.3535,816.342 778.7525,876.833 C778.9255,876.545 779.0985,876.257 779.2725,875.969 M626.9165,863.403 C603.6965,844.1 653.6445,860.976 666.4785,861.707 C681.9625,868.349 686.9065,851.119 695.6685,841.931 C749.8755,767.901 814.3145,754.483 681.0335,766.679 C668.9825,762.691 616.1705,781.07 633.2225,761.148 C805.5625,746.203 737.3505,795.317 829.6275,654.331 C848.9075,655.918 816.7515,681.191 812.3265,689.412 C804.8835,706.522 794.0945,720.54 789.9375,739.634 C807.5475,720 853.4585,699.39 808.2755,733.989 C803.7615,739.66 780.0635,755.318 795.3455,756.793 C825.5225,756.107 855.4345,759.839 885.4765,761.643 C896.9505,758.703 898.9875,779.112 908.9135,766.889 C921.9725,750.644 950.4895,765.867 960.7875,746.393 C968.1095,755.568 977.4745,759.657 988.6485,762.359 C935.6265,771.452 998.6915,769.867 1015.2495,777.044 C1026.0815,789.226 977.3275,776.586 968.9775,777.025 C955.7945,777.108 959.1275,799.883 954.9295,809.37 C953.4135,827.351 1004.5655,804.684 1018.8535,809.051 C1028.2945,812.967 1043.8685,791.337 1043.9255,807.92 C1051.1895,802.59 1058.8365,813.515 1064.1845,815.729 C1053.9975,821.437 1036.5445,810.675 1033.9595,827.706 C1035.3135,843.065 1012.8115,889.653 1030.4995,893.349 C1055.3405,892.237 1080.0255,893.077 1104.6255,896.787 C1119.8595,900.888 1115.3605,878.197 1124.4435,875.855 C1125.6145,880.775 1128.5405,886.336 1127.2235,890.558 C1120.6435,904.513 1150.6245,899.006 1144.0565,908.577 C1134.9065,910.338 1123.3405,903.036 1118.2885,913.53 C1114.5095,932.025 1055.9875,978.237 1068.0765,983.86 C1090.9335,999.911 1162.1955,1004.382 1159.1215,1032.686 C1127.7265,1048.263 1089.5105,1031.94 1152.2795,1030.453 C1159.0515,1028.922 1151.3095,1024.967 1148.0715,1023.845 C1118.7055,1012.652 1089.2335,1001.717 1060.0075,990.161 C1045.9885,988.585 1035.1465,1005.764 1022.8795,1011.765 C1016.5215,1016.407 1020.9385,1025.178 1020.8205,1031.732 C1042.9805,1046.88 1081.4255,1028.939 1109.3545,1034.94 C1119.1855,1042.32 1094.5575,1042.091 1089.3995,1042.686 C1012.9735,1041.113 1015.9655,1036.655 1025.5675,1113.837 C1039.7115,1133.323 1138.2815,1053.953 1149.7335,1072.291 C1111.3055,1096.243 1066.9715,1105.996 1028.3455,1127.997 C1068.4995,1128.274 1110.5375,1114.727 1144.9685,1093.009 C1136.5535,1131.584 1069.8775,1137.777 1034.1745,1145.294 C1018.8955,1144.144 1038.5315,1176.733 1020.8475,1162.552 C1020.1165,1143.06 1006.5225,1147.664 991.4285,1147.377 C969.9915,1147.222 970.1155,1147.196 972.9135,1168.518 C900.7375,1265.496 961.9375,1232.222 839.2615,1287.55 C786.9555,1322.384 818.1805,1268.203 823.3525,1235.664 C831.5725,1215.586 825.7415,1193.066 837.6425,1174.567 C831.0655,1208.053 849.7825,1157.398 847.3225,1144.236 C867.6095,1090.854 862.2655,1085.579 914.8085,1055.202 C917.6205,1053.314 920.9785,1051.367 922.8065,1056.799 C927.4915,1061.421 942.8985,1052.541 943.4445,1046.72 C940.1375,1042.82 897.9065,1039.262 928.0935,1036.925 C943.7115,1037.526 940.7545,1033.521 940.1155,1020.836 C934.5955,996.871 944.9325,961.261 929.5535,943.104 C901.3485,936.35 874.5315,919.46 845.0375,921.225 C831.1035,921.45 782.9435,941.413 785.5425,926.126 C865.5435,908.002 804.4855,912.357 769.4245,891.54 C756.8885,891.627 772.9595,896.053 766.5645,909.471 C768.2935,952.926 714.5495,970.847 689.2285,1000.539 C640.1035,1044.025 589.2455,1086.823 538.3115,1127.293 C576.8935,1061.419 629.9065,1007.488 674.8235,946.839 C674.8225,946.84 674.7855,946.907 674.7855,946.907 C675.5015,946.192 676.2175,945.476 676.9335,944.76 L676.8645,944.827 C685.6495,929.104 759.2295,900.594 740.8095,888.403 C698.9565,879.058 685.7235,860.412 660.2615,905.373 C644.8415,876.419 711.8765,873.527 626.9165,863.403" id="Fill-5" fill="#00684a"/><path d="M778.473,929.8536 C775.66,927.4246 775.051,929.1056 773.194,931.0526 C775.681,934.1226 776.274,932.9006 778.473,929.8536 M808.667,1214.9146 C804.793,1214.1666 803.175,1225.9586 803.918,1229.6846 C810.079,1228.0546 807.164,1219.8126 808.667,1214.9146 M904.94,1016.9976 C900.244,1014.5256 895.102,1005.6836 890.807,1007.5586 C891.611,1015.3746 885.067,1022.1116 887.535,1030.2466 C888.709,1036.2226 876.347,1036.3516 879.789,1042.3786 C896.704,1047.4756 896.481,1026.5836 904.94,1016.9976 M870.536,995.5726 C871.993,964.2806 769.715,1102.4696 763.903,1116.8686 C818.822,1081.6976 860.676,1065.9636 870.536,995.5726 M837.642,1174.5676 C823.812,1215.1666 820.154,1260.0896 806.292,1301.8816 C765.14,1320.7626 776.523,1301.2146 785.776,1270.3136 C798.743,1243.7426 798.203,1214.1876 808.643,1186.8676 C843.144,1088.8226 825.506,1120.2126 759.525,1162.3026 C703.559,1192.7746 689.052,1257.5916 660.123,1309.8856 C658.332,1328.3856 638.829,1303.9276 628.123,1300.7516 C639.237,1279.9796 648.613,1258.5126 656.543,1236.3926 C626.678,1252.9236 601.674,1286.7996 570.66,1256.3006 C610.398,1234.9846 642.598,1202.5056 681.04,1178.3276 C698.153,1167.0266 706.001,1148.4686 713.47,1130.4066 C756.469,1076.2026 787.756,1014.6846 840.099,970.0166 C858.18,956.1336 825.285,948.4946 816.132,942.2336 C794.499,932.4386 778.251,967.2346 759.969,976.5056 C747.764,986.3046 733.698,992.3566 722.437,1003.4096 C683.444,1031.1706 655.536,1072.4496 613.898,1096.2336 C593.533,1105.2546 581.72,1127.6526 564.275,1141.5356 C547.291,1152.1086 528.236,1159.2066 515.779,1176.0596 C481.398,1198.9316 493.902,1238.4586 448.093,1208.5156 C465.304,1186.5526 474.046,1159.9056 495.296,1141.0926 C493.172,1132.9166 524.777,1086.5406 515.735,1112.7646 C526.446,1103.7676 524.14,1092.1396 530.716,1081.5946 C538.726,1074.2966 584.332,999.0466 584.369,1018.4076 C594.513,1000.3186 614.683,990.6176 626.153,973.6486 C632.688,966.9336 628.582,957.4136 638.345,953.5666 C650.681,952.3976 662.966,943.1406 674.824,946.8356 C629.916,1007.4816 576.878,1061.4266 538.315,1127.2946 C609.618,1071.2756 678.282,1009.7606 747.392,950.1646 C761.527,939.7996 768.193,927.1266 766.563,909.4706 C766.71,904.5246 771.738,898.6786 764.317,894.7786 C763.105,892.1156 767.96,890.6306 769.426,891.5366 C804.221,912.4516 866.107,907.8116 785.545,926.1246 C782.053,928.2596 781.175,930.8086 786.222,930.9336 C848.109,920.5516 869.203,918.0176 929.544,943.1176 C945,961.2476 934.519,996.8816 940.123,1020.8346 C940.568,1033.5146 943.857,1037.5316 928.091,1036.9276 C924.561,1037.0406 919.509,1034.0456 917.571,1040.1056 C923.761,1045.3166 947.852,1039.2766 941.915,1050.9746 C936.797,1053.9136 931.475,1056.5146 926.08,1058.9046 C916.003,1043.7476 884.577,1079.3426 870.077,1085.7546 C858.966,1099.1126 862.57,1119.9046 850.998,1133.8326 C844.744,1147.1656 848.332,1172.5296 837.642,1174.5676" id="Fill-7" fill="#00684a"/><path d="M482.5297,1220.9903 C495.0327,1184.2023 531.7407,1159.7563 564.2757,1141.5383 C581.7187,1127.6483 593.5337,1105.2603 613.8957,1096.2303 C667.1497,1062.5063 704.6607,1008.1663 759.9737,976.5163 C790.8037,953.9233 799.8747,923.8053 839.0727,954.1383 C861.9427,964.5873 798.1567,1002.5853 792.8197,1019.5803 C775.7537,1033.1843 773.7507,1052.9183 761.8447,1069.3643 C743.0137,1087.6213 727.1107,1108.1343 713.4707,1130.4063 C701.1067,1177.9143 651.5167,1193.7533 618.6647,1223.5663 C570.2057,1278.2213 538.4497,1238.3273 482.5297,1220.9903" id="Fill-9" fill="#00684a"/><path d="M960.7865,746.3917 C950.4765,765.8557 921.9845,750.6527 908.9135,766.8887 C903.7595,772.2467 901.1415,772.7537 897.4555,767.0707 C879.7515,755.0947 851.9975,762.0487 830.7665,757.4247 C804.2135,755.9637 771.8635,763.2327 808.2775,733.9827 C833.3445,714.1537 855.0745,697.0177 888.8695,682.9157 C926.2655,702.7367 955.2295,727.1907 988.2285,752.7247 C1016.0135,776.1377 1051.4405,792.2197 1075.0995,818.7887 C1117.8145,863.0077 1187.8525,919.3697 1165.3125,989.7987 C1176.5575,1026.3127 1144.5815,1017.9987 1123.1965,1005.0467 C1112.4445,997.0377 1058.5295,990.0097 1067.2505,975.8367 C1087.1165,957.4737 1104.4135,936.7777 1118.2875,913.5307 C1123.5285,901.9727 1136.9475,912.0877 1145.7145,907.7137 C1143.9905,897.7267 1122.6055,904.8787 1127.2235,890.5587 C1128.0155,887.6917 1126.6085,874.4497 1121.7215,876.0827 C1116.8905,915.5887 1059.8825,884.7767 1030.5075,893.3537 C1013.1885,889.4777 1032.6935,856.7047 1031.3145,842.9697 C1031.8955,814.8187 1042.6525,818.9717 1064.1865,815.7377 C1058.4645,812.8437 1052.5605,804.5947 1044.3275,806.9837 C1042.5445,799.9957 1041.5605,799.1997 1037.1225,803.0377 C1014.9015,814.9187 986.9905,808.4457 962.9245,816.4237 C944.7035,819.9327 961.4715,790.7287 961.4055,781.4127 C973.8035,768.9887 1001.9695,787.5167 1019.0155,781.2177 C1011.5695,769.4887 934.2725,769.0777 985.8255,764.8597 C993.6075,760.8107 964.1305,756.7307 961.0005,746.5947 C972.4905,745.4927 962.3975,733.0777 960.7865,746.3917" id="Fill-11" fill="#00684a"/><path d="M1030.0394,579.6934 C1121.0044,536.2634 1075.2074,576.6714 1024.3484,599.6994 C1014.9414,605.0014 1014.5194,607.2004 1016.9264,617.0954 C1022.8874,625.7134 1043.7824,610.6284 1053.9634,609.1864 C1069.6134,599.7704 1131.2144,580.1994 1107.1894,558.2874 C1092.5344,550.6464 1071.8414,548.3144 1058.0244,557.9124 C1040.0184,572.6774 1044.7944,541.8164 1030.0394,579.6934 M965.3684,735.6134 C943.7024,727.6824 972.5324,703.4914 958.6714,695.0014 C940.1224,685.2604 903.9244,517.3154 951.1604,551.2364 C956.9474,560.9654 1001.5454,670.9494 967.2144,642.4724 C957.3984,625.9944 955.1644,605.8344 947.3574,588.2624 C963.0244,740.4134 971.8554,662.4194 1013.1034,575.2964 C1021.8604,552.6954 1094.9924,418.1484 1061.9434,518.7774 C1038.6684,563.0844 1076.1884,519.2884 1083.4934,503.4224 C1094.2424,484.7084 1141.0974,391.5834 1106.0874,390.5044 C1079.3564,404.8404 1050.2864,428.8274 1040.6204,457.8204 C1040.7574,464.4744 1032.2284,470.3614 1033.0604,477.7674 C1032.5254,485.8054 1021.1934,483.5274 1020.6714,495.1654 L1020.7754,494.8704 C1011.4104,506.2324 1026.0794,524.9304 1020.6944,528.9844 C1024.3474,543.3974 1014.6014,575.9724 1005.0464,547.1814 C999.2304,521.6084 1003.1164,486.1624 991.9124,460.3924 C988.0374,475.0014 989.6914,490.9334 989.0914,506.0024 C989.3464,518.7194 990.8864,531.4124 991.8604,544.1154 C989.5354,559.2694 1008.7614,577.3114 999.0804,589.1114 C993.1284,592.7714 987.7004,586.2244 985.6854,581.2614 C970.5264,549.7244 973.2524,512.8194 975.2784,478.5494 C975.3044,415.8584 1002.8424,406.2394 1013.9244,473.0544 C1033.8014,433.6144 1059.4814,395.4834 1100.5454,375.7324 C1170.0614,365.6134 1110.9224,493.4154 1090.4074,519.4044 C1088.2854,524.4434 1074.8094,538.9634 1087.7224,537.4694 C1110.2974,536.9414 1146.6304,552.7414 1125.9724,580.6024 C1095.8654,608.4994 1051.4624,636.6584 1009.3104,631.7444 C985.8234,655.6534 986.3994,705.7274 965.3684,735.6134" id="Fill-13" fill="#0f0f0f"/><path d="M657.7084,1318.7754 C699.6754,1211.3174 726.0634,1173.4634 828.3984,1117.4534 C812.0154,1181.6524 793.2274,1245.1954 774.6124,1308.9694 C755.9384,1324.7594 687.0474,1349.6674 657.7084,1318.7754" id="Fill-15" fill="#00684a"/><g id="Group-19" transform="translate(0.000000, 543.490000)"><mask id="masterspot-illustrationswork-at-home-mask-2" fill="#fff"><use xlink:href="#masterspot-illustrationswork-at-home-path-1"/></mask><g id="Clip-18"/><path d="M102.6996,164.4026 C98.2246,154.1266 81.7896,114.8056 73.6676,140.8776 C82.1306,147.0446 91.3596,174.4426 102.6996,164.4026 M55.4836,207.0026 C66.0056,224.9096 103.2766,226.4066 111.4766,245.7126 C116.4116,248.8076 119.7476,241.0286 126.0136,244.9636 C107.3646,225.5836 81.8976,211.5786 55.4836,207.0026 M121.6136,136.3576 C114.5366,100.6106 -9.4884,-66.2964 17.8846,57.4646 C21.1046,72.5396 64.1576,154.3756 74.6376,127.3486 C83.9986,122.9296 77.3496,118.7776 73.5466,113.1866 C71.7446,111.8216 67.5956,113.6816 67.2616,109.7556 C70.8896,109.9346 73.2156,110.3106 73.3206,105.7726 C90.8086,75.3126 116.7536,187.1636 121.6136,136.3576 M46.3796,130.8186 C23.0646,103.9366 -39.7044,-11.8804 36.8656,1.0606 C74.8066,26.2596 103.7426,64.8276 124.6376,104.7336 C126.4006,108.4336 127.6956,109.2216 129.8476,105.2256 C177.3706,16.8426 174.8156,156.9246 166.0746,189.9646 C140.6956,232.3006 165.9596,82.3746 147.5076,97.6446 C134.8126,129.2306 120.4816,168.4846 139.6986,200.0196 C154.8976,229.4196 168.5966,260.0226 185.8036,288.1816 C193.6456,314.2006 170.1146,305.1396 164.5096,287.3766 C156.0416,279.4006 151.8136,244.4746 138.4726,251.8686 C99.9006,261.8696 59.1966,221.4456 27.2286,201.5946 C7.7326,176.3896 67.7506,190.3796 78.0616,197.0306 C133.4506,223.6366 143.4446,239.4476 107.1056,173.5486 C105.7886,168.9186 98.9446,160.7446 96.3726,170.0846 C88.2936,182.9376 63.4636,147.5986 55.6956,140.2056 C54.3056,138.6286 51.5306,135.5786 49.7756,134.1736 C48.1996,133.1796 48.1106,131.1896 46.3796,130.8186" id="Fill-17" fill="#0f0f0f" mask="url(#masterspot-illustrationswork-at-home-mask-2)"/></g><g id="Group-22" transform="translate(833.000000, 0.490000)"><mask id="masterspot-illustrationswork-at-home-mask-4" fill="#fff"><use xlink:href="#masterspot-illustrationswork-at-home-path-3"/></mask><g id="Clip-21"/><path d="M116.1263,221.7229 C263.3973,229.5649 259.3133,1.5359 112.1993,13.2359 C-17.9607,22.7619 -7.9647,217.6409 116.1263,221.7229 M243.4543,119.0199 C245.3363,272.2459 3.8333,278.5799 1.1683,126.2069 C-7.0397,-32.6911 241.4153,-47.3261 243.4543,119.0199" id="Fill-20" fill="#0f0f0f" mask="url(#masterspot-illustrationswork-at-home-mask-4)"/></g><path d="M1150.2328,1069.6729 C1123.0658,1063.7779 1045.4768,1129.7899 1025.5648,1113.8379 C1015.9558,1036.4099 1013.0368,1041.2069 1089.4008,1042.6919 C1143.3028,1038.3779 1087.9788,1030.5959 1071.9678,1035.5409 C1051.8528,1034.8659 1014.0258,1048.4159 1019.6108,1016.2899 C1051.8898,976.1559 1074.1388,996.0299 1114.1208,1010.9889 C1149.0518,1024.5189 1175.8638,1029.9869 1119.3848,1033.6659 C1111.4758,1045.1399 1155.4228,1037.2809 1159.1138,1032.6939 C1154.0608,1044.3509 1155.1648,1058.8499 1150.2328,1069.6729" id="Fill-23" fill="#00684a"/><path d="M419.4867,1238.9854 C409.1747,1240.1534 378.2507,1252.2974 394.0747,1232.5014 C397.6507,1161.9574 290.0597,1165.5294 326.2137,1251.9034 C275.8967,1261.5854 308.9207,1159.4714 348.6737,1155.5154 C368.4657,1148.2434 421.6647,1136.7884 415.9207,1165.8854 C419.3817,1197.0824 447.5507,1203.9844 419.4867,1238.9854" id="Fill-25" fill="#163a2c"/><path d="M235.1205,857.1241 C251.4355,864.7771 231.2725,805.9161 217.4825,846.5991 C218.2395,856.9261 229.9505,827.8581 235.1205,857.1241 M183.5645,848.1501 C207.8885,841.3411 228.0265,778.3011 253.4475,788.6001 C296.8175,826.5181 251.3195,912.3461 196.5165,894.4571 C170.5255,885.2981 173.5245,868.9351 183.5645,848.1501" id="Fill-27" fill="#163a2c"/><path d="M946.6469,1203.2637 C952.6659,1192.6097 961.7329,1184.8427 970.3129,1176.4127 C977.6649,1157.6307 961.6249,1143.9047 991.4339,1147.3787 C1031.9479,1144.3177 1007.1579,1153.0637 1028.2029,1167.0747 C1031.2659,1159.7877 1022.1199,1145.7027 1034.1669,1145.2847 C1072.8969,1143.1907 1107.8949,1125.4327 1142.4199,1109.8827 C1137.9959,1138.5147 1107.8359,1167.4207 1077.4869,1156.6317 C1081.9309,1160.2297 1084.4579,1162.2757 1086.9849,1164.3207 C1077.7449,1164.8447 1066.9839,1174.6427 1057.4859,1169.7497 C1052.1659,1165.7877 1052.1869,1170.0227 1050.8649,1172.8677 C1039.7489,1169.4257 1029.2169,1174.2197 1018.4189,1175.2047 C977.9919,1177.6417 976.0559,1176.5097 946.6469,1203.2637" id="Fill-29" fill="#00684a"/><path d="M1144.9681,1093.0079 C1110.5481,1114.7189 1068.4891,1128.2819 1028.3471,1128.0049 C1052.4261,1111.8909 1082.9221,1106.1699 1108.5721,1093.6159 C1126.8891,1086.2749 1159.3931,1057.2639 1144.9681,1093.0079" id="Fill-31" fill="#00684a"/><path d="M65.1039,383.1173 C62.9189,377.1833 61.0699,379.5813 59.5279,383.8273 C60.8309,389.3103 63.2059,387.7643 65.1039,383.1173 M85.4839,376.6303 C31.0039,389.6803 117.7349,394.0423 131.3509,387.2043 C114.3769,397.6483 89.2929,389.5383 69.5989,390.2893 C59.5299,389.8953 29.4879,397.4033 40.9899,378.2593 C43.4969,374.7643 40.0579,374.4493 39.9589,372.5923 C52.5849,377.0463 51.9829,362.5223 41.3939,360.9303 C33.6779,361.5233 40.9289,367.3173 37.2819,369.7993 C26.8659,379.0463 23.7879,378.9563 23.1019,365.1103 C11.4599,358.1743 32.1929,354.2093 36.1729,349.7813 C35.3599,356.1463 38.7879,353.4023 41.6649,352.4613 C63.3889,354.2633 31.1289,372.8093 67.6319,363.8553 C61.9599,366.1543 66.1529,369.2573 67.0119,372.0293 C69.8989,386.7543 79.3149,365.1463 85.4839,376.6303" id="Fill-33" fill="#163a2c"/><path d="M656.0609,1237.1338 C647.2169,1256.2228 640.3629,1289.5598 625.2579,1299.6218 C579.3499,1268.1808 626.7959,1257.8358 656.0609,1237.1338" id="Fill-35" fill="#00684a"/><path d="M820.6107,268.1358 C815.5557,278.8338 820.6677,304.8778 806.2487,306.0758 C794.5687,296.5328 807.2847,272.5318 805.6177,258.2868 C812.3247,237.9748 821.8627,257.2828 820.6107,268.1358" id="Fill-37" fill="#0f0f0f"/><path d="M367.9691,1248.1348 C328.9241,1239.5208 357.7821,1192.6348 377.5091,1213.3458 C380.5361,1224.6568 381.7211,1244.7838 367.9691,1248.1348" id="Fill-39" fill="#163a2c"/><path d="M482.5297,1220.9903 C509.6587,1231.0303 456.8647,1231.1133 445.0577,1235.6623 C437.5017,1234.9393 437.6357,1234.9833 439.7157,1228.4953 C442.9087,1194.3593 460.8957,1220.6213 482.5297,1220.9903" id="Fill-41" fill="#163a2c"/><path d="M869.9506,274.9141 C864.7706,292.8681 816.7816,331.6881 842.7856,290.5771 C848.5716,283.2801 860.8986,260.9801 869.9506,274.9141" id="Fill-43" fill="#0f0f0f"/><path d="M188.3421,262.0127 C177.7581,268.5707 183.0851,250.8377 182.5521,244.2637 C184.3061,238.8507 195.8991,240.4947 189.8941,246.4237 C180.3891,249.0507 197.0711,256.7337 188.3421,262.0127" id="Fill-45" fill="#163a2c"/><path d="M55.597,295.5977 C86.297,299.0937 122.994,291.2987 150.759,300.6757 C121.074,293.9327 86.791,299.8877 55.597,295.5977" id="Fill-47" fill="#163a2c"/><path d="M136.1722,389.9971 C159.3482,389.3961 182.5282,387.8831 205.6572,390.4581 C182.4692,390.4391 159.3362,390.6811 136.1722,389.9971" id="Fill-49" fill="#163a2c"/><path d="M226.6283,389.6583 C245.0493,390.0093 264.8583,385.2963 282.6313,389.2273 C263.9503,389.3693 245.2893,389.5133 226.6283,389.6583" id="Fill-51" fill="#163a2c"/><path d="M142.2757,363.3702 C139.3397,378.8862 137.9457,379.7992 121.9857,376.6502 C140.0817,377.3912 129.7977,367.0372 142.2757,363.3702" id="Fill-53" fill="#163a2c"/><path d="M938.5394,1220.4747 C938.9614,1214.1247 940.8514,1208.4277 945.8164,1204.1087 C944.5264,1210.0737 944.9794,1216.8057 938.5394,1220.4747" id="Fill-55" fill="#00684a"/><path d="M309.891,385.8077 C308.912,394.9087 297.292,388.5587 290.761,389.4637 C297.594,390.8287 298.843,381.1757 304.69,386.9947 C305.243,387.8997 308.884,383.7717 309.891,385.8077" id="Fill-57" fill="#163a2c"/><path d="M116.8812,376.7413 C111.0682,376.8313 105.2542,376.9213 99.4482,377.0103 C102.9462,370.2523 111.0542,376.6393 116.8812,376.7413" id="Fill-59" fill="#163a2c"/><path d="M210.4652,444.5938 C213.7372,443.3198 217.0112,442.0448 220.2782,440.7798 C219.6512,447.0318 217.5042,447.8648 210.4652,444.5938" id="Fill-61" fill="#163a2c"/><path d="M67.0648,353.6446 C66.0258,354.3426 64.9838,355.0366 63.9418,355.7296 C63.7238,354.6256 66.6658,351.9626 67.0648,353.6446" id="Fill-63" fill="#163a2c"/><path d="M212.556,678.0303 C212.37,681.7683 212.186,685.5073 211.999,689.2343 C212.185,685.4933 212.37,681.7613 212.556,678.0303" id="Fill-65" fill="#163a2c"/><path d="M98.2875,377.255 C95.1165,377.227 91.9445,377.199 88.7805,377.175 C91.9545,377.203 95.1215,377.229 98.2875,377.255" id="Fill-67" fill="#163a2c"/><path d="M221.6781,428.5186 C221.5451,427.6546 221.4131,426.7896 221.2741,425.9376 C221.4041,426.8056 221.5411,427.6626 221.6781,428.5186" id="Fill-69" fill="#163a2c"/><path d="M144.2259,342.4874 C144.0539,344.1094 143.8809,345.7314 143.7099,347.3404 C143.8819,345.7134 144.0539,344.0994 144.2259,342.4874" id="Fill-71" fill="#163a2c"/><path d="M213.3382,659.9659 C213.2662,661.3549 213.1942,662.7439 213.1272,664.1219 C213.1992,662.7299 213.2692,661.3479 213.3382,659.9659" id="Fill-73" fill="#163a2c"/><path d="M36.0189,349.8223 L36.2579,349.4893 C36.2109,349.6113 36.1869,349.8473 36.0189,349.8223" id="Fill-75" fill="#163a2c"/><path d="M145.4066,330.9864 C145.8986,331.5934 145.7996,331.9794 145.1126,332.3194 C144.6886,331.7314 144.7686,331.3354 145.4066,330.9864" id="Fill-77" fill="#163a2c"/><path d="M143.7064,352.2003 C144.1784,352.6463 144.1314,352.9263 143.5854,353.2463 C143.1084,352.7613 143.0614,352.5253 143.7064,352.2003" id="Fill-79" fill="#163a2c"/><path d="M146.5843,321.6192 C146.6303,322.1262 146.2673,321.7792 146.0083,321.7302 L146.5843,321.6192 Z" id="Fill-81" fill="#163a2c"/><path d="M147.6771,316.5362 C148.1371,317.1152 148.0381,317.4422 147.3751,317.7292 C146.9841,317.1612 147.0321,316.8272 147.6771,316.5362" id="Fill-83" fill="#163a2c"/><path d="M148.4408,311.0323 C148.3568,311.6283 148.3108,311.7033 147.8178,311.3063 L148.4408,311.0323 Z" id="Fill-85" fill="#163a2c"/><path d="M213.1839,699.376 C213.2499,699.981 212.9859,699.695 212.6219,699.564 L213.1839,699.376 Z" id="Fill-87" fill="#163a2c"/><path d="M224.2738,392.4053 C224.4688,391.9283 224.5518,392.2583 224.7648,392.4983 C224.7638,392.4983 224.2738,392.4053 224.2738,392.4053" id="Fill-89" fill="#163a2c"/><path d="M222.0941,417.8262 C222.0651,417.3432 222.2591,417.5502 222.5581,417.6752 L222.0941,417.8262 Z" id="Fill-91" fill="#163a2c"/><path d="M445.5209,1208.7364 C419.9249,1195.4074 410.3529,1168.2814 417.3359,1140.9384 C430.2919,1100.4094 426.0139,1048.1984 452.7759,1015.1314 C505.1569,979.8624 566.9129,968.5414 626.9549,957.6124 C625.0249,965.3344 605.9699,973.3904 610.6799,981.7574 C617.5839,974.5154 622.6959,965.0224 631.0239,959.4624 C630.0439,974.6854 615.7109,988.0344 603.0479,996.2644 C596.4899,1000.9334 591.7259,1010.4704 585.0919,1015.8344 C583.7729,1006.8014 574.5729,1023.3014 571.8259,1025.8144 C557.7839,1049.4194 532.2819,1068.9214 525.8739,1095.6274 C526.4369,1100.2934 524.1299,1105.7684 518.2579,1107.6794 C516.0259,1093.8414 491.6489,1139.9064 495.3159,1141.1114 C472.5849,1158.7224 466.3679,1191.7074 445.5209,1208.7364" id="Fill-93" fill="#00684a"/><path d="M621.3422,764.711 C648.8802,776.909 683.3042,762.666853 714.0782,764.46 C724.2232,766.463 762.6632,757.649 761.6262,767.217 C739.8222,783.521 686.6692,870.478 666.4852,861.717 C627.8482,859.658 599.8762,844.162 574.9752,814.722 C589.1582,796.109 611.0712,785.551 621.3422,764.711" id="Fill-95" fill="#00684a"/><path d="M660.2572,905.3692 C672.9632,893.3222 677.1442,867.8752 698.7122,877.3382 C714.6822,882.6672 732.9792,883.3242 747.2582,892.4042 C729.1122,911.1372 703.6462,922.4052 683.0532,938.7152 C675.4522,927.5982 667.8552,916.4842 660.2572,905.3692" id="Fill-97" fill="#00684a"/><path d="M621.3422,764.711 C613.3612,783.187 594.8732,790.988 582.6262,806.669 C585.1532,795.702 571.5452,799.466 566.4282,792.676 C565.2212,804.849 551.2892,796.6 553.5982,790.222 C547.5422,784.504 563.0282,780.462 562.3062,766.954 C563.6942,767.5 566.1812,767.877 566.2942,768.616 C567.9152,779.222 572.9762,772.174 576.8982,770.815 C581.8392,772.391 584.7092,772.626 579.0862,776.197 C582.5992,781.434 584.5732,783.697 589.4232,777.525 C598.3412,780.432 602.1182,772.031 608.8932,765.819 C602.3332,752.823 614.9002,764.013 621.3422,764.711" id="Fill-99" fill="#0f0f0f"/><path d="M626.9164,863.4034 C635.1534,864.2684 677.1074,867.5344 669.8114,877.8544 C650.0014,913.6774 644.5804,883.1454 626.9164,863.4034" id="Fill-101" fill="#00684a"/><path d="M562.0931,800.628 C562.8871,802.44 563.6821,804.253 564.4761,806.066 C563.6811,804.254 562.8871,802.44 562.0931,800.628" id="Fill-103" fill="#0f0f0f"/><path d="M676.8646,944.8272 C676.7196,942.6962 677.2876,942.5352 679.1796,943.2992 C678.4096,943.8092 677.6366,944.3182 676.8646,944.8272" id="Fill-105" fill="#00684a"/><path d="M613.9594,851.1241 C614.8614,851.6751 615.7634,852.2261 616.6664,852.7761 C615.7664,852.2261 614.8624,851.6751 613.9594,851.1241" id="Fill-107" fill="#00684a"/><path d="M833.6371,653.6339 C839.8311,654.7209 846.0251,655.8079 852.2171,656.8939 C914.1601,684.7989 847.0491,686.6799 827.2961,713.0679 C777.1261,746.4759 789.8961,738.9159 810.7341,691.7039 C816.1321,679.7379 841.3241,666.3629 833.6371,653.6339" id="Fill-109" fill="#00684a"/><path d="M561.5814,659.71 C557.9534,657.149 556.9454,657.103 554.0624,659.69 C556.9124,662.303 557.9194,662.107 561.5814,659.71 M541.3464,679.757 C542.0274,674.454 533.4454,671.55 537.7044,663.986 C533.3374,653.137 527.3844,684.424 520.0794,667.525 C533.4374,675.615 521.2744,656.829 532.3754,654.707 C535.4304,653.624 542.4404,652.908 541.5174,645.784 C541.4624,645.368 547.1524,643.13 548.1884,647.394 C550.1164,653.864 559.6254,652.238 561.2584,659.418 C571.8064,673.981 571.9344,670.786 554.8524,679.682 C571.2114,658.361 539.7434,665.124 544.5184,670.003 C550.0244,675.85 543.5464,677.273 541.3464,679.757" id="Fill-111" fill="#163a2c"/><path d="M827.2455,713.1134 C833.3715,704.4604 885.8495,670.1904 888.8655,682.9174 C865.7965,687.2004 849.4755,713.3794 827.2455,713.1134" id="Fill-113" fill="#00684a"/><path d="M374.7719,285.6211 C376.7149,287.6631 381.3109,295.0421 375.5119,292.6141 C367.7369,287.6661 373.4379,304.8711 363.3739,302.3031 C362.4509,302.2771 361.4729,304.0191 360.5199,304.9431 C367.0509,313.6881 379.2589,303.4951 378.0079,317.5431 C378.9439,320.3941 377.8389,329.6591 374.2609,324.7021 C374.7319,315.5171 365.3399,323.2081 364.4649,315.7381 C365.4449,309.4291 361.6639,311.0121 358.3279,311.5971 C358.1729,300.6231 367.1609,292.3391 374.7719,285.6211" id="Fill-115" fill="#163a2c"/><path d="M480.7523,588.336 C494.1273,604.301 470.3983,589.026 468.9433,600.764 C492.3783,601.685 473.8503,608.638 463.7883,614.275 C461.8503,600.398 466.8193,591.219 480.7523,588.336" id="Fill-117" fill="#163a2c"/><path d="M395.0463,250.7783 C407.6453,272.8413 385.4783,293.0273 384.0383,268.9663 C396.0583,267.4273 387.0213,255.8583 395.0463,250.7783" id="Fill-119" fill="#163a2c"/><path d="M343.0531,647.0225 C347.3271,647.8545 352.3741,649.1465 352.8271,654.6965 C346.6821,657.9695 350.5541,658.5905 353.4651,661.8285 C357.4231,666.2305 350.4381,664.4805 349.0921,666.2875 C343.9761,660.8335 342.1761,654.3475 343.0531,647.0225" id="Fill-121" fill="#163a2c"/><path d="M596.6215,72.0176 C594.2295,76.8616 582.7165,95.8256 585.2105,81.3306 C577.7575,72.5716 591.8205,73.0506 596.6215,72.0176" id="Fill-123" fill="#163a2c"/><path d="M538.1449,691.7843 C530.1169,683.1623 531.7689,682.2083 541.1579,679.6783 C544.2619,685.1613 548.6049,684.1133 553.1599,681.9513 C549.9929,688.0353 544.3229,690.2973 538.1449,691.7843" id="Fill-125" fill="#163a2c"/><path d="M430.6254,138.2578 C434.3534,141.2648 429.9774,148.8718 437.2254,149.8798 C426.5774,166.7628 421.3244,148.1888 430.6254,138.2578" id="Fill-127" fill="#163a2c"/><path d="M616.1771,735.3594 C612.2551,727.3714 603.8971,724.1484 603.2821,714.0224 C610.8131,713.9414 621.3981,728.2244 616.1771,735.3594" id="Fill-129" fill="#163a2c"/><path d="M445.8744,112.5127 C451.9984,117.0317 445.2324,124.9417 441.6984,128.7327 C438.1204,130.8857 439.4904,121.0897 434.0034,124.2007 C436.3204,116.9487 442.7504,118.7367 445.8744,112.5127" id="Fill-131" fill="#163a2c"/><path d="M361.8109,348.7022 C372.1589,350.0642 368.0009,328.1192 375.4349,339.2152 C373.8509,349.4572 371.5179,362.9972 361.8109,348.7022" id="Fill-133" fill="#163a2c"/><path d="M339.1654,632.2882 C344.4774,633.5752 349.1564,635.0122 351.4794,640.4602 C341.3724,649.4422 340.9494,642.3972 339.1654,632.2882" id="Fill-135" fill="#163a2c"/><path d="M481.3568,64.4102 C494.1198,72.5912 465.3348,82.5672 473.4648,74.4342 C482.2238,76.1482 473.6458,63.5422 481.3568,64.4102" id="Fill-137" fill="#163a2c"/><path d="M448.8588,86.252 C453.0158,92.301 455.2208,112.888 443.7228,106.858 C449.5418,101.011 445.7978,92.783 448.8588,86.252" id="Fill-139" fill="#163a2c"/><path d="M560.1166,574.6651 C570.4916,572.3201 576.6586,574.6861 565.5336,581.0731 C560.9566,576.5191 558.9036,591.0501 560.1166,574.6651" id="Fill-141" fill="#163a2c"/><path d="M397.9642,237.3652 C406.2072,245.5302 408.8752,248.2912 405.8542,257.2722 C401.3012,252.0462 397.6652,244.3582 397.9642,237.3652" id="Fill-143" fill="#163a2c"/><path d="M227.4877,672.3116 C229.9547,680.5856 218.7437,682.0806 215.6767,675.2826 C219.3067,673.2116 223.4447,672.9796 227.4877,672.3116" id="Fill-145" fill="#163a2c"/><path d="M268.0804,720.2686 C269.4484,723.8386 270.2254,727.5976 271.2734,731.2696 C264.6264,728.2756 263.2344,726.2046 268.0804,720.2686" id="Fill-147" fill="#163a2c"/><path d="M520.3793,601.1163 C516.3623,603.8913 509.6883,608.2403 509.4683,600.3393 C513.1153,600.5973 516.7473,600.8563 520.3793,601.1163" id="Fill-149" fill="#163a2c"/><path d="M655.7133,508.7725 C654.4653,512.0885 659.7833,516.1545 653.9543,518.2675 C654.0663,514.7475 650.7453,509.4385 655.7133,508.7725" id="Fill-151" fill="#163a2c"/><path d="M537.2172,565.8956 C538.6092,570.3276 533.3012,577.6536 532.8582,570.0336 C532.6082,566.5176 532.6442,566.5146 525.7312,568.3426 C528.5712,562.8336 533.0622,565.1546 537.2172,565.8956" id="Fill-153" fill="#163a2c"/><path d="M599.5541,715.3985 C598.8001,720.0275 596.6761,715.3095 595.3691,716.0085 C596.7791,715.8015 598.1661,715.5995 599.5541,715.3985" id="Fill-155" fill="#163a2c"/><path d="M357.8607,316.9835 L358.3207,317.2075 C358.2307,317.1415 357.5777,317.2525 357.8607,316.9835" id="Fill-157" fill="#163a2c"/><path d="M369.3011,359.2003 C369.4241,359.7013 369.3161,359.5783 368.9731,359.3693 C368.9221,358.9203 368.9611,358.9683 369.3011,359.2003" id="Fill-159" fill="#163a2c"/><path d="M475.6635,62.4834 C475.3025,62.7664 475.3495,62.4624 475.2715,62.1794 C475.2715,62.1804 475.6635,62.4834 475.6635,62.4834" id="Fill-161" fill="#163a2c"/><path d="M309.7377,383.9346 C312.5287,382.8176 310.0957,386.9286 309.1017,385.0076 C309.0567,384.4976 309.2687,384.1396 309.7377,383.9346" id="Fill-163" fill="#163a2c"/><path d="M633.2279,761.1456 C634.4649,751.0416 646.1299,753.8056 649.4019,743.0306 C655.4569,730.1286 682.7829,727.7496 686.2539,714.3276 C709.5139,699.2556 728.7569,673.5086 756.0209,669.3646 C772.2319,653.4736 812.0979,641.8696 829.6339,654.3286 C737.5159,795.5306 804.7119,746.1546 633.2279,761.1456" id="Fill-165" fill="#00684a"/><path d="M779.223,875.92 C800.794,815.883 870.405,777.582 931.214,771.568 C959.342,758.412 946.594,795.855 943.921,811.062 C942.611,818.7 938.035,822.668 930.904,823.498 C877.513,831.543 828.539,856.382 779.223,875.92" id="Fill-167" fill="#00684a"/><path d="M875.9808,905.044 C862.1868,908.747 847.8008,910.641 834.6138,904.359 C716.3418,886.78 895.2098,845.516 933.1738,832.558 C949.4638,834.999 933.0568,876.037 935.5968,890.154 C927.4528,904.086 892.1268,902.461 875.9808,905.044" id="Fill-169" fill="#00684a"/><path d="M963.0521,895.2696 C933.9981,900.4366 953.6171,856.3506 950.8951,838.7986 C954.7951,816.5046 1004.6791,821.7646 1023.8311,818.0656 C1034.3881,822.6486 1021.2481,840.8526 1022.0961,850.1616 C1021.3011,902.6246 1005.0941,891.6516 963.0521,895.2696" id="Fill-171" fill="#00684a"/><path d="M757.9349,876.5001 C765.8869,847.8181 763.1689,779.6221 786.3059,765.1631 C817.9559,767.7061 855.5949,759.5061 884.4199,770.9061 C859.9539,778.6151 829.8579,796.4831 807.4589,815.6291 C787.5889,822.2891 764.4319,890.1461 757.9349,876.5001" id="Fill-173" fill="#00684a"/><path d="M1018.9271,951.8175 C1023.8061,935.4755 1012.4201,905.6625 1029.9291,900.9565 C1047.2961,903.9385 1102.2931,897.0335 1107.1471,910.3805 C1090.2891,931.1085 1064.6551,984.2255 1033.9801,972.1195 C1020.6901,971.2625 1018.0291,962.2925 1018.9271,951.8175" id="Fill-175" fill="#00684a"/><path d="M991.475,1044.9561 C1028.935,1038.4191 1008.583,1092.3781 1015.299,1114.9991 C1016.666,1124.4221 1010.131,1125.8201 1002.856,1127.7041 C999.517,1135.3881 995.619,1136.1241 988.247,1135.0551 C961.3,1143.3231 965.347,1111.9881 960.996,1094.1821 C952.685,1062.9701 956.348,1042.0261 991.475,1044.9561" id="Fill-177" fill="#00684a"/><path d="M1011.0052,990.2188 C1015.7222,1015.4398 984.7572,1021.8228 969.4822,1035.0998 C939.7152,1051.2968 954.6452,980.4508 948.3872,963.8088 C944.3322,936.5198 984.8872,966.9428 998.4382,967.5318 C1013.3252,971.1108 1010.8612,976.9908 1011.0052,990.2188" id="Fill-179" fill="#00684a"/><path d="M743.4691,880.3868 C731.7531,873.1368 678.2151,875.0888 699.0251,854.7508 C721.5001,831.2748 737.2721,799.4738 763.500175,781.0798 C763.5291,803.4188 755.0991,825.5948 752.4041,847.9098 C748.0921,857.1878 756.2561,878.7108 743.4691,880.3868" id="Fill-181" fill="#00684a"/><path d="M1013.2279,918.2032 C1009.5769,930.7962 1017.3659,959.6112 1006.1389,962.1392 C988.3649,951.7152 956.1769,952.1142 946.2979,934.4412 C948.8459,925.4962 940.1089,906.6452 952.9829,905.0082 C971.9469,908.8282 1018.9609,885.6232 1013.2279,918.2032" id="Fill-183" fill="#00684a"/><path d="M875.3881,915.1983 C892.4591,911.7903 909.7581,909.1873 927.0661,907.5053 C939.4511,904.7193 932.5481,922.6033 935.6461,930.1473 C937.1471,944.1683 882.2491,918.7523 875.3881,915.1983" id="Fill-185" fill="#00684a"/><path d="M705.681,935.9415 C717.923,929.7765 747.154,897.3275 747.832,920.3775 C748.364,940.2915 720.632,930.7595 705.681,935.9415" id="Fill-187" fill="#00684a"/><path d="M950.4506,1097.7696 C946.3976,1121.3606 942.0906,1084.6216 936.2476,1079.3606 C933.7536,1076.1076 929.0026,1071.6046 935.5726,1067.2266 C951.4806,1055.2046 947.0806,1090.7016 950.4506,1097.7696" id="Fill-189" fill="#00684a"/><path d="M1019.2094,987.3048 C1019.2954,982.4878 1017.8714,974.1028 1025.4874,978.0798 C1029.3114,980.7438 1039.7754,979.7318 1037.5614,986.4838 C1030.1844,992.9928 1017.0214,1005.3408 1019.2094,987.3048" id="Fill-191" fill="#00684a"/><path d="M1000.9945,1038.671 C982.1465,1038.222 1004.1015,1025.084 1011.8265,1023.341 C1012.3915,1031.156 1010.0835,1041.918 1000.9945,1038.671" id="Fill-193" fill="#00684a"/><path d="M838.0785,1183.129 C838.2755,1186.45 836.2765,1192.238 835.6965,1185.981 C835.9985,1185.011 836.8725,1181.563 838.0785,1183.129" id="Fill-195" fill="#00684a"/><path d="M840.3734,1174.96 C839.3004,1176.792 839.1944,1183.655 837.2714,1182.487 C837.8084,1180.061 836.1444,1171.687 840.3734,1174.96" id="Fill-197" fill="#00684a"/><path d="M674.7855,946.9073 L676.9325,944.7603 L674.7855,946.9073 Z" id="Fill-199" fill="#00684a"/><path d="M1044.4701,807.13 C1044.2881,807.394 1044.1071,807.656 1043.9251,807.92 C1044.1181,807.66 1044.1911,806.815 1044.4701,807.13" id="Fill-201" fill="#00684a"/><path d="M779.2728,875.9688 C779.0988,876.2568 778.9248,876.5448 778.7518,876.8328 C778.9528,876.5648 779.0418,876.0348 779.2728,875.9688" id="Fill-203" fill="#00684a"/><path d="M870.5365,995.5723 C860.3775,1066.4763 819.1885,1081.2863 763.9045,1116.8733 C769.4735,1102.8423 871.8565,964.3613 870.5365,995.5723" id="Fill-205" fill="#00684a"/><path d="M591.514,963.838 C601.626,933.912 642.853,906.938 661.832,947.734 C637.937,951.711 615.902,964.859 591.514,963.838" id="Fill-207" fill="#163a2c"/><path d="M904.9398,1016.9971 C896.4968,1026.5701 896.6918,1047.4881 879.7898,1042.3801 C876.3498,1036.3481 888.7078,1036.2261 887.5348,1030.2461 C885.0668,1022.1111 891.6108,1015.3741 890.8068,1007.5611 C895.1108,1005.6651 900.2338,1014.5421 904.9398,1016.9971" id="Fill-209" fill="#00684a"/><path d="M808.6674,1214.9141 C807.1634,1219.8131 810.0804,1228.0521 803.9214,1229.6851 C803.1744,1225.9631 804.7914,1214.1731 808.6674,1214.9141" id="Fill-211" fill="#00684a"/><path d="M778.473,929.8536 C776.273,932.9006 775.68,934.1236 773.194,931.0516 C775.053,929.1056 775.659,927.4246 778.473,929.8536" id="Fill-213" fill="#00684a"/><path d="M633.1136,955.0968 C634.8646,954.5848 636.6166,954.0738 638.3556,953.5638 C636.3336,954.4978 632.2876,959.6748 633.1136,955.0968" id="Fill-215" fill="#00684a"/><path d="M839.3373,1174.0762 C837.1233,1175.0372 838.1463,1173.3972 838.4803,1171.9612 C838.7663,1172.6662 839.0523,1173.3712 839.3373,1174.0762" id="Fill-217" fill="#00684a"/><path d="M516.1927,1111.876 C516.8567,1110.48 517.6697,1109.062 518.2577,1107.68 C517.5877,1109.078 516.8077,1110.487 516.1927,1111.876" id="Fill-219" fill="#00684a"/><path d="M585.0697,1015.8155 C584.8367,1016.6795 584.6017,1017.5435 584.3687,1018.4075 C584.5837,1017.5445 584.9157,1016.6605 585.0697,1015.8155" id="Fill-221" fill="#00684a"/><path d="M633.1156,957.3878 C631.5846,958.9158 630.7126,960.3048 630.9326,957.2658 C631.6276,957.3798 632.4296,957.2428 633.1156,957.3878" id="Fill-223" fill="#00684a"/><path d="M516.1752,1111.8585 C516.0282,1112.1605 515.8812,1112.4625 515.7352,1112.7645 C515.8702,1112.4515 516.0932,1112.1665 516.1752,1111.8585" id="Fill-225" fill="#00684a"/><path d="M495.3129,1139.0049 C495.6849,1139.8619 496.6129,1140.5509 495.2929,1141.0899 C495.3729,1140.4839 495.2459,1139.6859 495.3129,1139.0049" id="Fill-227" fill="#00684a"/><path d="M656.0746,1237.1475 C656.2306,1236.8955 656.3866,1236.6445 656.5436,1236.3925 C656.3936,1236.6555 656.1796,1236.8855 656.0746,1237.1475" id="Fill-229" fill="#00684a"/><path d="M960.7865,746.3917 C960.9525,743.7667 963.0205,741.4717 963.9725,739.0027 C969.1895,741.5297 965.2975,747.6277 960.7865,746.3917" id="Fill-231" fill="#00684a"/><path d="M1047.5277,487.5479 C1042.2627,480.0849 1046.1217,469.9279 1049.5007,461.5609 C1049.0867,484.1339 1044.2047,482.1699 1064.8197,478.2959 C1055.6587,482.4299 1060.2707,488.9169 1052.6127,496.1799 C1054.2757,488.8069 1053.8427,488.0709 1047.5277,487.5479" id="Fill-233" fill="#163a2c"/><path d="M1020.2963,523.1368 C1023.6863,523.5278 1027.3673,522.7788 1029.2223,526.3758 C1025.1743,528.1368 1022.9683,526.0858 1020.2963,523.1368" id="Fill-235" fill="#163a2c"/><path d="M1022.5717,528.2237 C1021.9367,528.4817 1021.3007,528.7407 1020.6767,528.9917 C1021.3167,528.7297 1021.9437,528.4767 1022.5717,528.2237" id="Fill-237" fill="#163a2c"/><path d="M775.0853,1308.1387 C774.9273,1308.4147 774.7703,1308.6927 774.6123,1308.9697 C774.7933,1308.6897 774.8853,1308.3367 775.0853,1308.1387" id="Fill-239" fill="#00684a"/><path d="M234.6048,685.3321 C236.9318,684.4561 240.5288,681.0541 241.3408,685.2201 C238.2848,688.3761 236.0198,690.5071 234.6048,685.3321" id="Fill-241" fill="#163a2c"/><path d="M942.0922,191.1289 C941.7502,196.6699 944.0582,202.4929 940.2832,207.7509 C945.4272,214.1279 954.0532,210.5649 948.0372,221.9229 C925.4852,223.4199 945.1442,218.2949 934.6432,213.7749 C932.1242,213.1579 930.6362,208.2419 928.7662,205.2369 C939.4702,198.2519 933.0392,193.0889 942.0922,191.1289" id="Fill-243" fill="#163a2c"/><path d="M1036.392,186.044 C1039.966,173.588 1039.185,178.208 1027.803,177.014 C1030.712,158.576 1048.835,175.111 1036.392,186.044" id="Fill-245" fill="#163a2c"/><path d="M949.1263,222.2129 C950.0743,222.2529 951.0223,222.2939 951.9643,222.3349 C951.0143,222.2949 950.0703,222.2539 949.1263,222.2129" id="Fill-247" fill="#163a2c"/><path d="M1080.807,451.001 C1079.022,452.056 1077.578,453.656 1076.446,453.46 C1065.451,449.98 1062.138,455.396 1052.617,454.756 C1055.747,450.021 1058.191,439.301 1064.878,445.578 C1074.167,449.321 1067.423,420.548 1080.807,451.001" id="Fill-249" fill="#163a2c"/><path d="M1080.0189,419.3878 C1082.8919,426.2178 1085.2079,431.7248 1088.1569,438.7358 C1082.5629,432.8488 1077.7519,428.4068 1080.0189,419.3878" id="Fill-251" fill="#163a2c"/><path d="M1094.2347,436.5928 C1089.7447,431.5448 1097.9097,416.6248 1102.0357,428.5948 C1095.1647,427.5218 1098.3357,435.7978 1094.2347,436.5928" id="Fill-253" fill="#163a2c"/><path d="M1088.7719,455.5352 C1083.5219,448.3532 1090.0129,444.1052 1095.2869,440.4392 C1095.3229,446.9922 1093.2579,449.9822 1088.7719,455.5352" id="Fill-255" fill="#163a2c"/><path d="M1047.5277,487.5479 C1053.8427,488.0709 1054.2757,488.8069 1052.6157,496.1819 C1048.8577,494.4599 1047.9717,491.3609 1047.5277,487.5479" id="Fill-257" fill="#0f0f0f"/><path d="M1020.6713,495.1651 C1022.9563,495.3211 1025.6893,494.2931 1024.4313,497.5001 C1023.3163,496.9801 1021.4723,494.6271 1020.6713,495.1651" id="Fill-259" fill="#0f0f0f"/><path d="M354.2953,1190.3057 C394.7103,1205.6117 315.7263,1202.6417 346.4543,1249.7937 C318.8693,1241.6797 317.8943,1187.8627 354.2953,1190.3057" id="Fill-261" fill="#163a2c"/><path d="M396.7719,671.8614 C488.3149,666.4034 491.9319,753.6364 405.5469,760.4604 C382.9409,757.4324 374.6249,737.0104 370.9209,717.6864 C394.3009,733.4844 452.6039,733.2854 444.2799,695.0934 C424.2379,652.8514 369.5479,693.4594 417.8219,716.9814 C382.4329,731.0834 350.0309,679.2744 396.7719,671.8614" id="Fill-263" fill="#163a2c"/><path d="M396.7719,671.8614 C377.8319,682.6284 377.6499,651.7534 374.8479,639.2164 C374.8499,639.2224 375.4609,638.9874 375.4609,638.9874 C370.3829,586.9044 357.9149,522.1044 381.1689,475.7864 C386.9879,536.9464 364.0919,614.0124 396.7719,671.8614" id="Fill-265" fill="#0f0f0f"/><path d="M428.1908,709.8448 C414.2488,712.4048 394.4858,691.3248 412.9378,683.4988 C427.5918,676.3638 452.8738,708.4988 428.1908,709.8448" id="Fill-267" fill="#163a2c"/><path d="M420.1722,388.2169 C432.4652,386.5429 416.9542,379.4219 423.2562,375.3479 C429.6982,374.4409 438.6172,379.9299 437.0502,368.6099 C438.0362,364.1369 442.3912,363.8469 444.0222,368.5949 C443.7402,374.1539 425.0262,390.8699 439.2902,391.7109 C441.4912,393.1959 437.0132,394.4629 437.2812,395.7009 C438.9862,407.7549 418.1932,412.9219 423.7192,399.5739 C433.9772,388.6619 423.5152,395.0209 420.1722,388.2169" id="Fill-269" fill="#163a2c"/><path d="M623.9037,563.2862 C625.5757,570.1912 632.6617,570.9132 622.6977,575.1272 C620.8597,577.2342 616.1587,584.0292 614.1447,583.8052 C609.2067,581.4672 614.9457,578.9802 614.7037,576.4212 C614.0137,574.4682 614.0377,569.5272 611.0117,571.0652 C619.3037,565.5142 610.3667,559.2182 612.6747,552.1392 C619.3887,550.3832 627.3887,558.8012 623.9037,563.2862" id="Fill-271" fill="#0f0f0f"/><path d="M645.7035,573.2608 C650.0755,571.6658 659.0855,599.0398 648.7615,592.3938 C645.3425,591.6918 644.4735,595.8798 643.0325,598.1098 C645.4895,581.3948 621.7205,587.4568 645.8155,573.1798 L645.7035,573.2608 Z" id="Fill-273" fill="#163a2c"/><path d="M449.5717,344.252 C454.6607,343.488 460.6877,342.671 453.6527,338.761 C451.2057,339.004 445.4847,337.631 450.9087,334.807 C453.0687,333.528 453.2547,329.423 456.6747,331.499 C452.8077,339.197 462.1067,340.937 463.6467,346.471 C468.7627,355.133 453.0397,349.977 456.5437,358.974 C456.7687,359.593 454.1127,361.263 452.7917,362.446 C441.5987,353.111 465.1387,350.258 449.5717,344.252" id="Fill-275" fill="#163a2c"/><path d="M420.2299,389.585 C428.5659,392.86 429.9989,392.389 423.7159,399.574 C422.3419,403.359 424.2539,408.983 419.6969,411.28 C408.4899,417.157 418.8019,400.781 409.5629,399.885 C398.9589,396.334 410.5409,386.893 414.5239,394.507 C417.3119,403.527 420.3969,392.708 420.2299,389.585" id="Fill-277" fill="#0f0f0f"/><path d="M371.2719,604.6612 C372.3499,627.0282 377.0349,632.4592 362.1449,622.7802 C368.2839,618.8362 368.9039,617.6752 363.1879,613.2542 C357.7909,606.9172 364.9749,593.9582 371.2719,604.6612" id="Fill-279" fill="#163a2c"/><path d="M675.9554,573.377 C653.3694,593.497 670.9364,553.954 690.9934,559.717 C696.5424,561.706 678.2964,569.623 675.9554,573.377" id="Fill-281" fill="#163a2c"/><path d="M420.2299,389.585 C420.4169,392.705 417.2989,403.53 414.5239,394.506 C408.7129,391.075 404.9919,383.804 397.0039,383.659 C420.3709,367.088 404.3889,380.178 420.2299,389.585" id="Fill-283" fill="#163a2c"/><path d="M519.5551,682.7061 C518.9731,693.7691 487.3321,708.5081 496.0471,691.7621 C505.7361,691.8371 509.2011,680.0981 519.5551,682.7061" id="Fill-285" fill="#163a2c"/><path d="M641.8978,568.6925 C628.8228,572.7445 638.3158,535.5525 645.9318,548.1645 C644.0998,550.6695 647.3248,559.9665 638.4908,553.8865 C631.0898,554.0265 638.6508,566.5465 641.8978,568.6925" id="Fill-287" fill="#163a2c"/><path d="M520.0795,667.5255 C518.4495,651.9625 509.5665,672.6025 503.3535,674.9345 C501.4285,672.5445 501.4505,670.3625 502.8445,667.7095 C513.3605,670.2825 514.2255,645.8335 520.0795,667.5255" id="Fill-289" fill="#163a2c"/><path d="M617.4349,611.5821 C621.2979,605.5071 626.8109,611.6491 627.9479,614.3411 C623.6559,624.8971 620.4709,621.3781 617.4349,611.5821" id="Fill-291" fill="#163a2c"/><path d="M599.6381,613.4913 C602.7191,615.2463 604.6861,616.2233 606.2501,619.1523 C602.3971,619.1443 598.9001,637.3413 595.5471,626.1023 C602.6681,624.1283 599.6011,618.5073 599.6381,613.4913" id="Fill-293" fill="#163a2c"/><path d="M582.9056,600.1749 C578.1476,602.1379 574.8536,607.7379 570.6796,605.1529 C568.1896,599.2259 578.2486,597.0299 582.9056,600.1749" id="Fill-295" fill="#163a2c"/><path d="M428.0043,353.6358 C432.7513,357.5848 433.6703,360.5228 428.8413,363.6758 C421.8953,362.8218 425.5383,358.2698 428.0043,353.6358" id="Fill-297" fill="#163a2c"/><path d="M369.9603,505.7003 C377.2863,521.8183 364.7733,505.2783 359.3733,503.5123 C362.6513,500.8753 366.4723,504.9503 369.9603,505.7003" id="Fill-299" fill="#163a2c"/><path d="M675.9554,573.377 C678.0214,571.818 680.0884,570.26 682.1434,568.696 C690.5214,570.661 678.8584,580.821 675.9554,573.377" id="Fill-301" fill="#0f0f0f"/><path d="M478.599,601.6749 L468.945,600.7649 C468.662,593.4179 482.427,594.1079 478.599,601.6749" id="Fill-303" fill="#0f0f0f"/><path d="M369.8568,585.0616 C369.9378,604.6886 353.1308,593.2516 365.9718,588.0126 C367.1548,588.1366 368.5558,586.1056 369.8568,585.0616" id="Fill-305" fill="#163a2c"/><path d="M449.5717,344.252 C452.6697,346.172 458.2177,346.938 453.4457,352.491 C451.4357,350.935 444.9657,346.277 449.5717,344.252" id="Fill-307" fill="#0f0f0f"/><path d="M368.7006,566.0362 C369.2456,569.0912 369.7906,572.1442 370.3486,575.1932 C369.8076,572.1382 369.2546,569.0872 368.7006,566.0362" id="Fill-309" fill="#163a2c"/><path d="M645.8158,573.1798 C644.4308,571.9358 643.1108,569.4508 641.6968,568.8378 C643.0878,570.1648 644.3928,572.2088 645.8158,573.1798" id="Fill-311" fill="#163a2c"/><path d="M551.7875,612.5635 C550.3765,613.4105 549.7665,613.0945 549.2635,611.5805 C550.6345,610.8715 551.3215,611.0065 551.7875,612.5635" id="Fill-313" fill="#0f0f0f"/><path d="M419.9818,389.3468 L415.8158,387.7828 C417.5258,388.2748 420.3658,387.2878 419.9818,389.3468" id="Fill-315" fill="#0f0f0f"/><path d="M374.7797,638.8624 L375.4617,638.9874 C375.1707,639.0514 374.7387,639.4394 374.7797,638.8624" id="Fill-317" fill="#163a2c"/><path d="M375.806,645.0567 C375.982,645.5147 375.714,645.2837 375.441,645.2407 L375.806,645.0567 Z" id="Fill-319" fill="#163a2c"/><path d="M368.2426,539.5977 C369.5296,540.7867 368.2456,541.6587 367.6796,539.9957 C367.6626,539.9597 368.0456,539.7357 368.2426,539.5977" id="Fill-321" fill="#163a2c"/><path d="M627.2719,961.9376 C621.3569,966.3066 614.9129,982.5426 608.7129,980.0126 C613.5969,974.1086 618.8569,961.4426 627.2719,961.9376" id="Fill-323" fill="#00684a"/><path d="M630.933,957.2657 C631.816,959.4937 627.869,962.8207 626.281,961.0787 C626.305,957.7067 627.807,957.1617 630.933,957.2657" id="Fill-325" fill="#00684a"/><path d="M495.2953,1139.0196 C495.7033,1141.7966 494.6173,1140.7366 492.8423,1139.7086 C493.6603,1139.4796 494.4783,1139.2486 495.2953,1139.0196" id="Fill-327" fill="#00684a"/><path d="M592.7592,777.1339 C582.3692,779.1299 574.5772,769.7489 579.2172,759.8019 C583.3952,764.7769 600.2132,761.6669 592.7592,777.1339" id="Fill-329" fill="#163a2c"/><path d="M695.3187,687.2637 C692.0777,691.1977 685.3157,693.5577 683.3217,700.0937 C682.1067,701.1207 678.9177,699.9427 679.7177,697.7277 C683.7107,687.5807 679.7427,677.3017 695.3187,687.2637" id="Fill-331" fill="#0f0f0f"/><path d="M616.1761,735.3594 C619.8771,749.0554 615.7241,743.4734 612.5351,752.7264 C606.4331,750.9244 610.1361,737.6254 616.1761,735.3594" id="Fill-333" fill="#0f0f0f"/><path d="M594.9457,764.2911 C579.5427,766.0261 574.2847,753.3861 584.2177,757.6761 C587.5657,760.3441 590.1597,763.2491 594.6957,759.3921 C599.2677,760.0201 601.9667,762.5891 594.9457,764.2911" id="Fill-335" fill="#0f0f0f"/><path d="M549.8002,759.126 C549.6922,755.571 553.6542,750.152 557.5002,753.544 C555.5712,756.321 552.3442,758.48 549.8002,759.126" id="Fill-337" fill="#163a2c"/><path d="M549.6136,758.9395 C546.7236,760.8145 543.8756,764.0815 540.9326,764.1675 C535.8686,762.2645 547.4986,758.7455 549.6136,758.9395" id="Fill-339" fill="#163a2c"/><path d="M424.2621,894.6495 C427.0731,863.4605 463.1061,902.9195 431.5341,909.9125 C425.0261,911.9025 426.9801,919.4085 433.6721,918.6995 C447.8211,926.2675 405.8761,939.2285 396.5801,923.3875 C335.6851,864.8155 443.2151,803.5865 490.4011,849.2755 C519.0351,883.6455 496.1841,947.0385 458.2791,965.5415 C406.4761,993.2215 337.4371,942.0725 359.0081,883.8285 C396.8281,811.8365 335.0931,924.8165 414.1231,941.1285 C454.3291,946.2735 473.8061,875.8075 428.5391,869.5935 C400.8161,864.3155 387.6011,916.9245 419.6551,918.7285 C419.6221,905.7415 399.1621,894.6825 416.9161,882.7015 C416.5741,893.5485 434.2681,902.4855 424.2621,894.6495" id="Fill-341" fill="#163a2c"/><path d="M196.6429,963.5284 C165.7219,990.5714 165.8979,1044.7784 201.5029,1067.6964 C282.0719,1094.9534 249.8799,942.0744 188.2169,1016.9694 C185.9329,1021.2994 182.6219,1019.6214 182.5149,1015.2964 C173.3619,946.8334 271.9619,960.3384 276.4599,1015.5394 C284.4019,1061.6334 235.7889,1129.4614 188.6719,1086.5644 C156.6779,1056.5274 148.2809,974.9314 196.6429,963.5284" id="Fill-343" fill="#163a2c"/><path d="M211.475,1037.962 C200.049,1022.782 224.578,1014.179 232.537,1022.311 C246.541,1046.18 194.083,1063.024 193.621,1031.806 C191.136,1010.083 222.985,995.02 235.671,1013.259 C221.576,1008.289 186.044,1027.358 211.475,1037.962" id="Fill-345" fill="#163a2c"/><path d="M236.3754,1049.2042 C228.1464,1066.2192 215.8284,1068.7812 199.0764,1055.9582 C214.8134,1059.5372 223.3904,1053.4122 236.3754,1049.2042" id="Fill-347" fill="#163a2c"/><path d="M236.5189,1049.3048 C236.9029,1048.2878 236.2869,1045.2938 237.7999,1046.5748 C237.4909,1047.4528 236.4009,1048.5378 236.5189,1049.3048" id="Fill-349" fill="#163a2c"/><path d="M196.8177,963.711 C197.9927,962.622 198.7847,960.585 200.0857,962.569 C199.2327,962.998 196.8617,963.082 196.8177,963.711" id="Fill-351" fill="#163a2c"/><path d="M532.0697,253.5088 C512.8237,256.0478 496.5907,227.0758 516.0027,232.8928 C527.8117,245.3428 534.9087,234.5998 546.4667,232.7838 C552.9057,241.0608 540.0027,253.9998 532.0697,253.5088" id="Fill-353" fill="#0f0f0f"/><path d="M498.3705,84.5713 C506.9125,85.8853 514.4985,93.6953 503.1845,96.4143 C492.7915,93.7623 491.5935,103.7913 494.2705,111.0723 C485.0075,111.4713 485.3925,111.4383 484.7235,103.5723 C484.3465,99.1373 480.7165,94.5533 488.0905,92.2243 C487.9495,85.4633 489.6535,82.5423 498.3705,84.5713" id="Fill-355" fill="#0f0f0f"/><path d="M467.1976,107.794 C468.5036,118.023 462.4986,133.486 471.5486,140.667 C477.8116,142.722 474.0436,145.455 472.8216,148.193 C472.1436,144.78 470.5146,142.362 466.5846,143.301 C460.7016,145.395 470.4786,148.8 463.4736,150.916 C457.4716,142.107 460.2226,131.064 457.8436,121.594 C465.2916,120.208 462.9976,103.243 467.1976,107.794" id="Fill-357" fill="#163a2c"/><path d="M414.1879,222.2295 C419.7769,229.3085 425.4859,228.8125 426.0069,219.4585 C432.3529,223.4285 431.5729,251.2885 421.6869,243.5015 C412.1249,239.2975 418.6729,229.2505 414.1879,222.2295" id="Fill-359" fill="#163a2c"/><path d="M416.1791,175.4746 C418.3181,179.9986 432.0751,193.7126 420.7411,193.5446 C417.1381,183.6936 407.0021,193.8546 403.1021,185.1266 C408.3851,184.1406 411.7991,178.9906 416.1791,175.4746" id="Fill-361" fill="#0f0f0f"/><path d="M494.2699,111.0713 C487.8189,95.3013 502.6079,95.4063 514.1419,95.6753 C523.7299,91.7703 517.4239,104.0083 511.2199,101.4823 C497.8269,94.4263 498.2599,100.2373 494.2699,111.0713" id="Fill-363" fill="#163a2c"/><path d="M414.3783,222.0859 C397.2653,222.9609 404.1333,218.0979 411.0313,206.7639 C414.4423,212.5249 404.3703,219.2589 414.3783,222.0859" id="Fill-365" fill="#163a2c"/><path d="M430.2006,178.9268 C429.8916,170.2678 440.2086,171.6778 443.8516,166.2138 C452.1716,172.4498 434.0156,175.6928 430.2006,178.9268" id="Fill-367" fill="#163a2c"/><path d="M498.3705,84.5713 C490.9275,83.3523 483.7195,85.0563 476.3115,85.0373 C484.0825,78.5593 490.7955,74.9203 498.3705,84.5713" id="Fill-369" fill="#163a2c"/><path d="M391.2416,308.3399 C388.0906,316.6949 383.9326,305.9619 380.4026,307.4779 C377.0816,294.4659 388.0126,300.2009 391.2416,308.3399" id="Fill-371" fill="#0f0f0f"/><path d="M403.101,185.1279 C406.039,188.6479 404.046,193.2529 404.592,198.0779 C400.952,193.6689 391.588,183.0299 403.101,185.1279" id="Fill-373" fill="#163a2c"/><path d="M584.182,107.4238 C582.495,104.3738 580.734,101.3598 579.227,98.2228 C580.505,92.5998 589.029,107.3928 584.182,107.4238" id="Fill-375" fill="#163a2c"/><path d="M391.2416,308.3399 C382.8206,301.4239 396.7156,297.3479 399.0826,303.4999 C399.4646,309.8269 393.4376,303.2809 391.2416,308.3399" id="Fill-377" fill="#163a2c"/><path d="M463.475,150.917 C470.486,148.809 460.696,145.378 466.583,143.3 C476.993,140.468 470.708,160.549 463.475,150.917" id="Fill-379" fill="#0f0f0f"/><path d="M467.1976,107.794 C463.2726,102.881 472.2596,100.672 475.7986,104.356 C473.1686,106.305 470.6596,108.133 467.1976,107.794" id="Fill-381" fill="#0f0f0f"/><path d="M416.1791,175.4746 C413.6191,177.7966 411.0591,180.1196 408.5051,182.4346 C410.0211,176.4066 412.8011,162.3016 416.1791,175.4746" id="Fill-383" fill="#163a2c"/><path d="M486.0072,77.1953 C482.3862,80.8283 480.4752,84.6063 478.5592,77.7703 C481.2382,71.9773 482.4372,71.9513 486.0072,77.1953" id="Fill-385" fill="#0f0f0f"/><path d="M519.3129,79.0293 C520.1939,81.3173 523.2069,84.1583 519.6839,84.9463 C515.9869,83.3023 516.4809,81.7613 519.3129,79.0293" id="Fill-387" fill="#163a2c"/><path d="M507.3812,71.1865 C505.3902,72.3465 503.3392,72.2565 502.8332,69.7535 C503.3522,66.1345 507.6842,68.4175 507.3812,71.1865" id="Fill-389" fill="#0f0f0f"/><path d="M407.3783,183.919 C406.2933,184.21 405.2093,184.501 404.1323,184.79 C405.2193,184.499 406.2983,184.209 407.3783,183.919" id="Fill-391" fill="#163a2c"/><path d="M448.7406,118.582 C448.6806,117.659 448.6226,116.736 448.5606,115.811 C448.6196,116.732 448.6796,117.657 448.7406,118.582" id="Fill-393" fill="#0f0f0f"/><path d="M757.1722,402.8878 C750.0812,404.6568 750.3112,407.7398 745.7412,411.3058 C740.5522,399.3398 743.7882,391.6738 757.1722,402.8878" id="Fill-395" fill="#163a2c"/><path d="M259.392,696.3751 C260.741,698.5211 260.151,698.2861 258.102,697.5211 C258.482,697.0971 258.913,696.7101 259.392,696.3751" id="Fill-397" fill="#0f0f0f"/><path d="M633.0844,957.3497 C629.9564,957.5987 631.6764,956.6117 633.1124,955.1017 C633.1044,955.8477 633.0944,956.5987 633.0844,957.3497" id="Fill-399" fill="#00684a"/><path d="M949.7523,72.1397 C951.5383,88.5017 943.4073,109.7327 952.0833,123.7147 C963.5653,130.0127 1036.7763,158.4277 991.9363,162.8607 C973.8163,149.2857 945.3533,142.9487 932.5923,124.8157 C931.0233,110.0127 938.3423,15.1997 949.7523,72.1397" id="Fill-401" fill="#0f0f0f"/><path d="M896.4135,101.7539 C901.4035,94.3149 879.4215,87.7329 896.0015,84.7499 C903.0845,77.1959 904.1785,69.1649 912.9655,80.9929 C911.9765,90.2089 898.3505,83.3659 897.3265,89.7749 C897.1745,95.9579 903.7985,100.8629 908.0985,104.7879 C902.8435,104.3559 894.2835,109.6189 896.4135,101.7539" id="Fill-403" fill="#163a2c"/><path d="M888.0658,105.3643 C884.1768,99.2853 868.3858,99.7133 877.3428,91.6973 C879.5228,89.3563 879.8738,85.3343 884.0518,86.4123 C873.6128,96.0253 898.1018,99.0873 888.0658,105.3643" id="Fill-405" fill="#163a2c"/><path d="M892.7963,164.1104 C899.9603,165.3534 909.6063,163.7084 911.6863,172.7704 C915.1053,162.8924 923.3263,177.5414 916.6393,174.2254 C913.3363,172.0424 907.1213,175.1054 906.2953,168.5044 C896.9163,173.5704 896.7053,172.7774 892.7963,164.1104" id="Fill-407" fill="#163a2c"/><path d="M887.6019,170.8692 C887.1149,166.9232 884.4759,166.0022 885.7699,169.1862 C892.9149,175.0822 888.3879,177.2442 884.9659,184.4872 C878.0189,183.6512 870.8599,172.2652 876.3309,168.2112 C879.9089,171.2732 882.8029,172.1762 887.6019,170.8692" id="Fill-409" fill="#0f0f0f"/><path d="M864.2552,125.6934 C874.8602,122.4034 866.0692,121.8214 866.7162,113.6104 C884.1892,111.3334 875.7032,136.2714 864.2552,125.6934" id="Fill-411" fill="#163a2c"/><path d="M869.0394,130.6045 C882.7784,122.9335 879.0794,143.0735 865.7034,143.5005 C862.2494,138.0195 865.0084,134.1485 869.0394,130.6045" id="Fill-413" fill="#0f0f0f"/><path d="M869.0394,130.6045 C865.0084,134.1485 862.2494,138.0195 865.7044,143.5015 C855.9944,145.9135 860.3834,116.4205 869.0394,130.6045" id="Fill-415" fill="#163a2c"/><path d="M973.6166,213.9033 C961.8596,209.5913 971.7116,207.1193 968.0036,199.6873 C967.6976,206.0333 976.8126,207.3813 973.4576,214.0483 L973.6166,213.9033 Z" id="Fill-417" fill="#163a2c"/><path d="M910.6986,55.5078 C896.2606,61.3648 906.1896,43.1558 913.0116,46.9958 C916.4116,50.6498 914.7816,53.7368 910.5516,55.6688 L910.6986,55.5078 Z" id="Fill-419" fill="#163a2c"/><path d="M876.7289,135.4785 C881.7029,133.5315 890.9559,136.5905 890.0229,142.3215 C888.3779,139.9425 883.3669,142.6975 883.0769,137.6045 C883.0299,136.7785 878.9469,136.1805 876.7289,135.4785" id="Fill-421" fill="#163a2c"/><path d="M910.5511,55.669 C922.2381,53.954 921.8141,60.75 916.4151,65.796 C911.3911,66.117 912.2531,58.031 910.5511,55.669" id="Fill-423" fill="#163a2c"/><path d="M888.0658,105.3643 C896.2348,93.0613 900.9458,115.3713 891.2858,110.0343 C887.8428,108.8063 884.1718,109.0453 888.0658,105.3643" id="Fill-425" fill="#0f0f0f"/><path d="M880.1195,113.5391 C884.0335,114.3811 889.1825,112.7621 891.0385,117.3121 C888.2025,120.1011 879.4275,117.0021 880.1195,113.5391" id="Fill-427" fill="#163a2c"/><path d="M910.389,199.208 C903.076,205.996 902.586,200.368 897.16,196.58 C901.754,193.51 904.349,197.457 910.389,199.208" id="Fill-429" fill="#0f0f0f"/><path d="M865.9066,94.1748 C863.3556,95.3998 860.8186,97.6598 858.3906,94.5448 C860.4726,90.3868 862.6756,92.7498 865.9066,94.1748" id="Fill-431" fill="#163a2c"/><path d="M942.224,191.2471 C943.764,189.6231 944.617,183.4791 947.018,186.1371 C945.584,187.8391 943.161,189.5601 942.224,191.2471" id="Fill-433" fill="#163a2c"/><path d="M973.4574,214.0479 C974.6774,214.6099 977.5084,214.9529 974.9754,215.7179 C974.3794,215.4179 973.9814,213.8709 973.4574,214.0479" id="Fill-435" fill="#163a2c"/><path d="M891.1254,109.958 C891.3874,109.991 891.1934,110.204 891.1514,110.343 L891.1254,109.958 Z" id="Fill-437" fill="#163a2c"/><path d="M869.0062,130.5557 C867.6522,129.2017 866.2982,127.8457 864.9442,126.4917 C867.8562,126.2887 870.2402,126.6157 869.0062,130.5557" id="Fill-439" fill="#0f0f0f"/></g></g></svg>