<svg viewBox="166.04999999999995 147.60000000000014 1143.9 1180.8000000000002" xmlns="http://www.w3.org/2000/svg" xmlns:xlink="http://www.w3.org/1999/xlink" overflow="visible" width="1143.9px" height="1180.8000000000002px"><defs><polygon id="masterspot-illustrationssecurity-path-1" points="0 0.0806 44.8792 0.0806 44.8792 140.694776 0 140.694776"/></defs><g id="Master/Spot Illustrations/Security" stroke="none" stroke-width="1" fill="none" fill-rule="evenodd"><g id="Group-410" transform="translate(172.000000, 165.000000)"><path d="M398.5334,691.7308 C393.1384,693.6318 401.4514,699.2728 404.2044,695.5458 C402.3514,694.2988 400.4974,693.0518 398.5334,691.7308 M626.3274,907.9138 C621.1784,904.4818 618.7784,903.1998 616.6684,908.6188 C618.4594,914.5968 621.7814,910.7098 626.3274,907.9138 M370.1564,803.6768 C365.1194,800.3008 360.8694,798.7468 359.2214,804.5288 C361.9434,811.8808 365.4904,807.9388 370.1564,803.6768 M312.0864,701.6458 C303.2764,701.3278 295.7784,707.4248 302.3844,715.0658 C307.1674,710.9868 308.7614,707.9528 312.0864,701.6458 M271.4494,1028.9368 C262.5384,1029.2678 254.7964,1025.3048 247.9834,1029.2998 C255.8264,1038.4568 261.5824,1039.6148 271.4494,1028.9368 M482.4214,1003.3388 C469.8254,1001.7698 458.5704,993.4628 457.2594,1011.1228 C450.4064,1030.8818 473.9554,1008.6308 482.4214,1003.3388 M115.3644,783.6728 C117.2084,787.2938 114.4014,809.1028 123.4514,802.0208 C127.1314,797.0148 145.1364,788.2518 132.8994,783.7878 C124.8984,781.3148 113.4854,767.3918 115.3644,783.6728 M212.6114,1016.7408 C201.9304,1008.3058 185.7044,978.3008 181.7764,1004.5068 C176.2374,1021.2008 201.8294,1013.7118 212.6114,1016.7408 M220.2024,754.4828 C223.5474,761.4378 220.5324,779.2448 231.0914,775.8758 C235.3184,772.7408 253.6004,771.3318 246.1234,763.8488 C239.3084,758.8648 227.4504,742.5898 220.2024,754.4828 M428.7344,1021.2718 C428.4014,1034.4338 441.0064,1036.2388 444.3464,1023.0668 C445.5814,1020.1818 444.1984,1015.8448 449.2814,1015.0038 C450.6364,1014.7808 447.6334,999.4448 445.9844,999.1498 C434.5404,1000.5658 428.2384,1008.1328 428.7344,1021.2718 M288.3884,729.0768 C213.8334,739.9858 264.0834,764.7768 275.0804,750.1848 C278.1884,744.5258 296.4084,734.1818 288.3884,729.0768 M375.1744,959.9108 C382.1084,953.1658 422.2304,923.0578 405.7414,925.4798 C393.3534,933.9268 336.4654,954.5288 375.1744,959.9108 M502.0074,929.2518 C481.2764,930.8168 458.7424,943.7448 459.3084,966.9618 C463.7904,978.7168 495.6894,936.7598 502.0074,929.2518 M462.1334,811.4058 C462.1524,803.2198 462.9044,794.2858 452.0944,800.2618 C440.0544,811.6968 374.9844,805.7048 403.0564,820.7268 C421.2434,819.4848 465.5674,843.5118 462.1334,811.4058 M226.1874,990.3698 C233.7214,975.8198 233.0144,958.9418 238.0324,943.5118 C238.8014,931.9908 256.8384,902.2188 247.6344,899.3518 C230.1094,917.1598 212.0774,935.0808 201.0884,957.9398 C192.0344,973.8438 216.3154,980.3128 226.1874,990.3698 M147.2134,905.1148 C145.1184,867.4288 156.0824,828.9338 166.0784,794.3118 C149.9324,784.4718 137.8454,810.1978 125.7174,817.7468 C118.6774,843.7668 137.5794,879.6108 147.2134,905.1148 M449.5414,968.7068 C449.7814,960.2458 446.2994,964.7578 441.7934,969.1638 C421.1704,974.8558 439.0514,954.2748 445.3454,947.0518 C454.4664,936.3458 443.6154,896.1948 428.9744,920.0398 C416.3074,949.8858 354.7854,965.4738 412.4604,977.8888 C417.2964,979.7538 421.3204,981.0028 425.2094,975.6298 C428.8514,973.0898 435.7424,971.8308 435.0534,979.7098 C436.9994,995.1778 453.3834,979.1378 449.5414,968.7068 M341.6714,1019.2038 C379.4394,1013.5268 463.2204,995.5998 378.0774,976.4608 C352.3974,985.6918 329.4924,1006.1568 302.2024,1014.4298 C295.1804,1024.5538 333.9104,1017.0068 341.6714,1019.2038 M290.1684,855.6708 C338.2864,834.4298 403.3624,825.7468 437.2104,874.9748 C440.4324,879.9838 442.7124,879.4628 444.8054,874.4308 C474.7774,821.6068 425.0964,851.4778 395.6254,832.8468 C336.0194,803.5638 320.8594,780.3668 290.1684,855.6708 M162.9554,878.4058 C164.8494,891.8938 173.1074,961.5008 193.8064,944.2658 C200.5634,928.9238 212.4004,917.7338 223.5794,906.0548 C230.2394,894.4498 255.6454,887.0788 250.3734,872.4568 C236.6314,848.7308 225.1614,823.9178 216.8004,797.7798 C173.4334,773.2478 167.1764,847.4358 162.9554,878.4058 M110.7124,836.4268 C91.1484,864.2568 48.4454,920.4348 75.2984,951.5948 C95.5834,976.2278 133.3984,1006.3088 163.4044,1005.3758 C185.0044,974.6208 156.4564,953.3898 144.1784,925.6098 C127.8884,897.6708 122.0004,866.4358 110.7124,836.4268 M363.2354,847.6048 C256.1544,858.9678 255.0114,889.9158 340.8534,944.5188 C367.4714,943.0858 393.0444,916.1268 420.8774,908.9948 C460.8834,881.8378 388.8534,843.6558 363.2354,847.6048 M229.3894,793.6518 C267.5234,881.5448 250.1614,887.9978 303.8164,806.2628 C309.1944,798.5238 308.7564,797.3448 300.4384,793.5848 C283.8604,788.9178 268.9254,768.5968 250.9694,778.8918 C245.2774,783.3608 207.1004,791.6118 229.3894,793.6518 M415.3174,1042.4468 C427.2934,1043.6738 412.8144,1032.1908 414.1154,1025.4308 C412.6354,1016.2888 412.5974,1016.0188 403.6344,1019.8298 C369.2314,1036.1078 331.6854,1035.4208 294.5834,1034.6648 C287.2764,1033.6418 278.4544,1032.1658 277.1354,1041.6398 C311.5344,1068.9648 374.9174,1062.7348 415.3174,1042.4468 M512.2794,973.9008 C518.6364,967.5368 521.7454,972.0778 524.5264,962.9078 C512.3594,919.8548 530.7194,911.5438 495.5734,954.5758 C489.1094,966.1218 458.3214,978.7278 463.9494,990.2468 C484.6624,1001.0638 506.3274,989.6598 512.2794,973.9008 M318.9614,683.0378 C351.4774,561.2128 278.5594,683.7038 303.7294,689.5938 C310.9284,686.2308 315.4064,689.8928 322.2514,689.5778 C321.3544,687.2948 324.6634,682.8998 318.9614,683.0378 M238.4094,1090.2148 C231.5504,1091.7928 240.4254,1095.1738 237.6544,1097.0288 C228.9544,1100.9868 243.0134,1101.7748 246.5124,1104.2238 C235.3814,1087.3928 255.4624,1067.8998 257.9384,1050.0448 C225.4344,1014.0588 237.0454,1069.7668 238.4094,1090.2148 M328.5914,973.5608 C326.4824,965.7458 337.3834,957.7788 328.2674,950.6588 C308.0744,936.5758 289.0464,921.1328 272.8844,902.4588 C257.5564,897.1438 248.7354,971.4898 242.6714,986.7518 C237.2684,1005.0638 272.4094,1016.9338 283.7534,1006.2258 C298.7244,994.1448 308.3864,973.0948 324.1274,964.1808 C324.4024,967.8958 322.7084,972.5228 328.5434,973.6338 C324.5524,981.2178 308.1274,989.9878 311.7454,997.8948 C327.6724,990.0138 349.6354,982.1958 361.1654,969.9068 C352.3364,957.2018 338.3264,966.7978 328.5914,973.5608 M311.1674,766.0288 C297.6414,747.0178 294.1594,744.8338 279.4844,764.0618 C288.1794,775.9838 304.9584,777.2338 317.7654,782.7518 C321.5274,783.7878 320.2914,781.0218 319.8144,779.1298 C325.9014,779.2698 328.8424,775.6468 330.3534,770.3148 C339.0734,772.1718 342.7094,762.9528 349.1724,759.0678 C420.5024,718.6668 361.4524,726.8068 316.8134,725.2878 C289.7904,732.7068 336.8174,758.1658 311.1674,766.0288 M209.2944,764.5508 C202.2654,767.1688 193.4074,777.2598 196.2504,783.9718 C211.1134,784.5858 213.0414,776.0488 209.6374,763.6208 C209.5234,763.9298 209.4084,764.2408 209.2944,764.5508 M177.9494,777.0388 C159.4694,778.3588 173.9114,793.9678 178.7054,776.0668 C178.4534,776.3908 178.2014,776.7138 177.9494,777.0388 M248.6254,1123.5298 C202.3274,1117.0268 239.4914,1050.9878 217.2924,1030.0508 C172.1494,1027.6688 174.4134,1024.2368 174.0394,1070.0278 C173.9004,1073.4608 174.8844,1077.2778 169.7494,1077.8958 C146.9334,1070.5218 157.6764,1047.8278 157.1164,1029.3858 C155.5514,1020.4738 143.6594,1018.4668 136.4884,1015.4928 C107.5264,1008.4348 88.5244,986.4728 66.6614,968.0048 C50.9714,963.2658 72.5454,1023.2518 43.8624,987.8128 C52.3964,915.0918 -3.9786,864.3908 39.9234,791.8658 C36.5214,825.7738 38.6364,958.9918 68.7744,874.3618 C75.9534,851.3148 105.2234,830.5168 106.6384,811.3928 C113.3634,751.8428 58.1844,757.5418 68.5084,728.2148 C133.1874,799.6878 76.8944,659.3218 130.5794,637.0368 C125.0874,668.2638 93.0244,765.0488 133.9084,774.7938 C144.5884,781.6338 153.0574,778.9118 162.8064,770.6938 C176.5514,759.1598 214.7064,752.5098 202.8664,728.5248 C191.4174,710.8108 115.2044,625.9818 150.3654,617.7818 C162.1644,646.6118 178.2304,675.9578 199.5044,698.4628 C210.2444,676.1388 188.0994,608.4408 219.5694,611.2228 C208.4904,651.5028 214.4874,697.4308 218.1444,733.4168 C218.1814,738.1668 220.2234,739.5078 223.7174,735.4998 C246.9064,718.2648 237.3244,726.8388 257.3194,727.9308 C265.4754,722.2298 288.0464,726.7228 286.5544,713.5218 C282.6904,706.2348 269.7114,717.9898 263.6144,719.8848 C256.3724,725.5278 230.3884,719.8798 245.2004,712.2818 C257.3664,702.8768 280.6734,702.9808 284.8724,686.5708 C288.3824,660.3308 297.5314,636.6098 318.5544,618.9898 C322.8144,615.4188 323.7464,611.5278 320.7164,606.7018 C311.7414,597.5738 335.4994,593.7298 328.0334,606.1218 C327.9654,606.7478 330.5764,608.4988 331.0054,608.2268 C362.1024,584.7098 403.8144,598.4608 441.0414,596.4778 C445.6954,611.9828 374.9524,584.6228 345.6934,611.3798 C331.2554,620.5058 342.0204,641.6958 338.3954,656.0228 C339.7154,665.4948 327.7904,679.3368 338.2734,685.4108 C336.8044,694.6318 350.6734,690.7898 343.5004,684.5768 C367.1084,680.4548 390.8524,685.6478 413.7254,691.1058 C426.1324,706.1528 386.2284,703.6558 391.3024,692.7998 C380.6494,705.0108 335.5854,685.2048 321.7104,709.2278 C320.4184,713.5208 318.8804,715.9618 325.9894,715.2688 C355.6334,711.1008 383.9864,721.2808 413.4314,721.9578 C415.2944,723.2228 422.7344,720.9628 416.7574,727.3438 C421.2424,747.4048 405.4734,730.3028 393.5344,744.0058 C378.5784,756.2118 348.6824,763.1348 345.5654,783.8468 C371.2974,807.4808 416.6824,792.5188 448.0224,787.3368 C461.3614,801.3348 479.7704,794.6048 472.2934,818.0218 C473.0204,835.3028 505.9414,808.8898 520.0534,824.8098 C504.3454,838.7718 473.7824,831.0278 465.0174,850.2238 C459.8864,870.1568 443.4784,887.6668 452.1234,907.8938 C459.2874,915.3088 453.7504,928.8448 460.9834,933.9818 C478.0584,925.1538 502.1194,924.1428 515.3414,910.3118 C538.4194,887.0258 504.7754,889.5928 520.1914,884.0708 C528.1794,884.6178 531.6394,880.8978 533.6874,873.3098 C539.5564,825.7818 569.7234,832.2758 540.7934,870.2608 C539.9574,877.2688 545.2114,882.0018 547.5584,887.7298 C539.8264,881.9068 518.8014,916.3268 526.0824,915.5348 C550.9634,898.2348 581.6694,893.8208 606.3204,875.3698 C636.0184,879.7458 663.3044,886.1898 695.8964,887.8468 C679.1874,917.5978 659.7834,949.0418 620.8404,946.2068 C577.3434,943.2538 570.4444,980.2028 547.4364,985.7958 C532.6764,970.5218 532.1264,961.0818 515.8874,985.5578 C512.8164,985.2498 504.9314,986.7258 510.6114,990.0478 C509.3894,992.1228 505.9484,993.8508 510.3754,996.4448 C599.6834,1013.4258 535.6324,961.4658 628.9564,956.9458 C671.6174,957.9558 687.7424,917.7748 708.1784,887.7458 C736.8084,890.7618 767.3844,887.5588 797.0194,887.3068 C813.0024,888.4998 873.1944,874.4618 851.4804,893.4658 C844.3554,891.3638 844.0114,891.6958 844.7264,899.9868 C817.8394,913.7658 785.9234,909.0078 762.1974,929.9318 C759.4734,929.2088 757.5304,917.8728 751.8674,922.4008 C756.3164,952.9598 708.2334,986.1118 674.6984,994.4178 C636.4394,1002.4388 604.6714,1027.1458 592.2614,1064.7068 C575.3254,1052.6858 575.5094,1011.9548 555.1404,1006.4468 C524.3904,1005.2208 493.1934,999.1138 470.5844,1025.0068 C466.8164,1029.9018 462.5414,1028.2488 457.0114,1028.5328 C459.7124,1035.9738 450.4754,1037.8288 449.8314,1044.4028 C441.2564,1065.9658 443.5704,1084.8548 458.0644,1103.5038 C447.5264,1105.1658 442.0524,1110.2098 435.9254,1098.2168 C427.6644,1087.7808 429.0884,1110.8718 424.7434,1112.8478 C392.4764,1131.2738 447.6904,1066.7468 413.6064,1056.3908 C397.8254,1064.1498 380.6874,1067.3418 363.6894,1069.7228 C266.4274,1085.3078 276.3124,1004.9908 248.6254,1123.5298" id="Fill-1" fill="#00684a"/><path d="M628.7056,676.5394 C623.5816,681.2254 626.4446,681.7414 630.0496,684.9044 C634.0946,681.3854 631.9086,680.0104 628.7056,676.5394 M618.2046,549.7614 C618.4366,529.4834 604.8826,571.3194 595.9936,560.9694 C595.5446,560.6054 592.4456,562.5074 592.5026,562.6654 C595.4556,578.2324 601.7086,570.5254 612.8906,567.5994 C624.3276,567.0304 618.2336,557.2544 618.2046,549.7614 M629.3566,652.6434 C619.4536,616.1394 640.7186,569.4274 586.7546,603.4964 C537.1546,634.3114 517.0926,704.3964 487.4156,753.5224 C514.4296,744.5204 554.0266,702.7544 588.8086,688.0004 C602.6926,675.4274 634.2006,676.5164 629.3566,652.6434 M695.8956,887.8514 C673.1666,884.1314 591.2766,885.7254 656.1026,865.2354 C678.7636,856.8084 677.1016,863.1984 670.4766,836.5924 C653.6176,793.4424 648.7276,746.6194 635.4286,702.1834 C629.4666,681.6104 560.6856,738.5174 546.2566,746.3464 C513.7706,764.6314 472.6296,837.3444 446.6496,779.3654 C460.6206,746.8664 475.0626,714.4204 493.7846,684.3354 C497.9246,670.3364 529.4946,637.9204 518.7056,632.3464 C499.0816,639.7854 383.3476,673.4424 437.3426,634.4324 C476.1986,622.0474 521.9116,612.9924 553.7606,587.4724 C572.7356,554.7634 604.7896,526.4374 617.7676,492.0084 C617.9696,462.3834 618.6926,432.7514 624.6336,403.7204 C664.8286,385.5224 641.4056,434.2784 645.4736,457.2994 C642.9976,471.0504 709.6716,395.9014 700.8256,395.0554 C702.4766,392.8664 704.1446,390.7884 707.0086,390.2374 C709.7696,400.9544 725.0996,396.4204 733.3896,401.1584 C702.6726,443.5464 638.8656,478.3494 647.7306,536.6944 C648.0896,546.2924 649.0426,547.0974 657.1586,542.4064 C705.0716,515.9034 748.9616,483.2624 793.2366,451.2444 C803.1016,439.7064 773.9166,424.7504 768.9896,412.7444 C800.0186,419.2314 817.4896,449.4454 823.1216,478.5724 C815.9896,464.6184 803.4316,470.9394 795.0986,479.9214 C754.0686,513.1124 709.5026,542.7854 662.3376,567.1334 C640.0286,580.7944 664.4316,614.8514 661.3396,636.3064 C658.6416,648.5804 684.4146,667.9394 679.3976,648.0254 C673.2456,640.4164 699.2486,634.5124 703.9526,633.9164 C715.7296,633.2724 720.6776,623.9744 731.4566,622.2384 C763.7816,619.4844 854.7536,565.3914 850.0666,622.2954 C789.4896,622.7014 732.7266,647.9264 677.4116,670.0764 C661.0386,674.5144 674.2316,689.4774 673.2506,700.9304 C670.8066,707.8784 669.8436,710.2054 677.7946,713.2484 C685.3606,751.7634 695.6216,791.7034 709.3626,829.1794 C707.5996,852.6684 751.9366,808.3134 763.2906,805.6554 C803.1156,770.8954 843.2196,737.7104 866.9586,689.3304 C873.4756,707.7494 880.1826,733.8514 860.5686,748.8114 C825.1876,792.8104 781.5496,831.4234 732.0506,859.0964 C706.6186,879.3634 754.5616,895.2604 695.8956,887.8514" id="Fill-3" fill="#00684a"/><path d="M826.9675,949.725 C833.6745,945.857 835.2485,942.421 828.7095,938.976 C823.7655,940.363 821.7395,944.697 826.9675,949.725 M889.9155,936.789 C883.4495,933.588 880.9585,928.806 875.6765,934.343 C881.1355,939.808 881.7195,944.41 889.9155,936.789 M1122.9055,737.244 C1132.3155,762.701 1137.9885,815.899 1113.4235,832.734 C1088.8835,862.335 1044.4855,838.198 1021.0965,870.029 C998.0495,911.539 942.7895,889.763 917.8875,931.123 C889.2815,971.407 828.5315,951.062 800.5995,994.756 C753.3435,1082.862 662.6935,1040.846 639.7625,1134.288 C572.9105,1097.623 600.3805,1029.233 664.5555,1009.581 C705.7105,1003.822 734.8835,977.701 761.4775,947.708 C785.3055,915.121 829.8015,933.17 855.9735,906.049 C873.8665,889.113 886.2005,864.162 911.7885,857.705 C993.1665,858.8 969.4875,804.5 1028.4765,793.738 C1073.1215,795.871 1079.8165,738.256 1122.9055,737.244" id="Fill-5" fill="#00684a"/><path d="M293.8303,301.1791 C297.3413,306.6211 289.3203,322.2491 298.9423,324.2071 C332.4903,329.1461 366.4243,322.2701 400.5813,323.9501 C420.4893,319.3911 467.6283,330.6741 477.6243,315.9961 C477.7943,282.6661 475.9363,242.7551 445.9683,222.6581 C386.6693,167.6791 281.0773,220.6121 293.8303,301.1791 M219.5733,611.2301 C202.8113,607.4301 225.7663,538.8331 202.4293,551.6921 C191.6503,561.4391 186.4923,583.5121 172.5733,586.6871 C156.2043,583.5571 147.7253,568.3881 138.0253,556.4301 C122.2933,548.7711 116.3583,604.6751 96.0403,586.4551 C84.1183,579.3851 66.8183,541.0231 56.7893,563.1671 C54.9973,571.8441 40.7173,595.7741 40.2763,575.5101 C75.4133,468.1721 84.8003,623.0451 123.5963,538.4111 C142.1283,510.6251 156.5303,572.0771 173.4573,561.8171 C184.3173,549.2931 190.5953,529.5971 208.7183,526.3541 C223.5543,518.1421 197.2233,469.3211 186.8603,476.4661 C168.9463,518.8311 158.6193,512.6931 136.8193,477.0431 C131.7123,469.8781 131.4453,469.8011 126.4173,476.5891 C79.0603,561.4911 87.5963,425.8351 54.7843,494.9201 C29.6843,512.2271 59.8473,463.0181 63.8133,455.7591 C76.7263,438.7851 88.9423,470.5061 96.3883,479.4121 C122.5173,496.7341 118.5183,407.9961 158.5003,479.1941 C172.9233,494.7711 177.6433,432.0651 196.4353,458.5181 C220.6653,493.1691 208.2923,435.8311 210.6783,418.4701 C208.3313,410.4461 216.6803,392.1411 205.8433,390.7411 C145.3753,385.5331 71.7663,401.3831 17.4683,381.9131 C44.1833,364.7911 88.7013,385.3091 116.9043,373.4351 C120.0093,358.9011 110.4873,237.1141 129.5533,258.3481 C137.7733,295.0211 124.1573,345.0101 136.6783,375.5901 C219.8953,368.7901 196.0893,397.1451 231.8063,337.5501 C237.1643,329.6431 240.8313,335.1681 247.7383,333.9091 C283.6783,309.6581 280.3353,346.9641 278.0883,282.1201 C284.3613,193.4401 401.5063,155.6121 461.5373,218.9721 C486.1723,244.3631 493.4823,280.3041 493.4613,314.5901 C493.4163,319.9241 493.6543,322.4091 500.4753,324.0571 C558.7133,330.4021 544.8903,376.4871 565.1263,409.0921 C557.5523,406.6761 550.0273,410.4301 542.5133,411.6001 C550.3303,334.4931 477.7873,327.4501 506.1773,343.8471 C513.3063,352.0431 502.5433,348.4931 497.6973,348.9081 C496.9143,353.5661 504.2893,356.9671 496.5183,360.3261 C500.0333,376.8961 486.2113,375.8891 486.1953,359.7711 C486.1703,354.9061 488.8603,349.3491 482.5463,346.1961 C484.7603,339.9601 479.2843,349.8111 474.6003,337.6761 C463.9043,338.9871 463.9623,344.5241 466.3183,353.0521 C463.2943,353.6131 458.0673,355.3951 457.5933,354.5401 C417.8443,327.7111 444.4393,372.7371 419.3343,360.1911 C417.8143,328.9971 423.3713,353.8641 430.3183,340.7801 C407.8303,332.2741 371.5173,341.5031 344.6113,340.1651 C234.5183,334.5091 218.7533,335.7801 222.3283,452.1311 C226.5213,475.8441 214.6323,507.7901 231.8063,526.3751 C238.7553,530.5401 231.6773,536.6201 234.1083,541.3421 C229.7583,545.8061 224.7713,531.8691 223.9983,539.7061 C231.9633,554.2801 215.1103,569.4541 233.9513,580.6721 C236.7583,587.1131 260.0363,584.8891 248.7373,593.4981 C239.6883,591.9271 240.9113,597.5511 235.7343,597.0831 C221.3093,591.9331 229.3753,607.1251 219.5733,611.2301" id="Fill-7" fill="#0f0f0f"/><path d="M764.7185,1134.7728 C704.6645,1151.9828 587.2535,1159.5928 692.1475,1083.5038 C722.4265,1071.4038 758.3005,1068.5688 778.7515,1039.9608 C836.5125,948.7888 862.8155,996.8428 916.6955,949.2188 C933.6405,930.0298 952.5625,910.6288 980.1175,912.2728 C1022.3865,913.7568 1030.0435,852.1398 1077.3605,864.5118 C1092.4955,866.4368 1104.9485,855.7748 1116.2415,847.1148 C1109.1945,867.3238 1109.5525,910.3028 1085.9225,912.8288 C1053.3125,910.4098 1041.1145,943.3788 1014.2775,952.5308 C977.5625,956.8398 970.3285,1003.6948 932.8505,1005.0298 C881.7105,1001.7088 868.8635,1058.9798 824.9325,1069.6248 C793.5565,1077.7778 767.9225,1101.4258 764.7185,1134.7728" id="Fill-9" fill="#00684a"/><path d="M813.5872,446.8431 C806.1472,437.4771 800.2542,434.3631 813.3492,428.7391 C829.9102,411.0881 852.7812,392.0851 856.4152,367.6381 C895.0142,313.3141 876.6772,205.9871 883.3052,132.6041 C864.8382,108.1961 818.5482,104.7471 791.2922,86.6321 C765.1782,80.1211 738.7592,54.5001 711.8142,62.0251 C661.9382,82.3241 611.5482,101.3361 560.8542,119.4861 C554.8502,114.5591 555.8952,246.0601 567.1302,236.4831 C571.1822,237.6321 571.8302,240.1191 568.0332,242.8191 C548.6422,263.7391 568.2032,286.2521 591.8542,290.1721 C593.8572,293.9291 592.2992,301.3741 600.5852,298.6141 C604.0102,302.7091 600.4512,303.1511 596.7762,304.4441 C593.6712,305.5191 588.8412,313.7771 588.4632,302.4921 C586.0812,299.4591 582.6342,301.9581 581.8982,305.4251 C589.0862,309.2061 580.1632,312.4151 580.6542,316.3741 C553.7612,252.7631 564.9772,338.3351 578.1062,359.9751 C583.6462,365.8071 579.6672,354.8881 584.9212,358.5871 C585.9352,359.3591 585.7922,364.0151 584.6662,364.8541 C578.3812,369.5361 588.2682,372.6081 585.5032,376.6531 C597.9282,373.4401 586.1332,391.8831 602.2392,404.4721 C576.0642,428.3011 546.1982,305.8691 547.6492,286.5941 C551.9102,247.8681 527.4672,127.9571 556.9172,109.6241 C745.7362,34.7831 698.0432,31.1801 885.1002,114.2951 C899.1762,126.9071 890.3622,152.9371 893.4292,170.4371 C891.1972,232.9561 896.8792,297.9061 877.5002,357.9761 C886.5162,369.3301 943.1322,357.4581 963.1782,360.7061 C979.1182,356.5171 1009.5872,367.8931 1017.3472,352.6021 C1020.9572,323.1971 1015.6422,289.0591 1028.9402,262.4511 C1041.7002,286.6301 1030.4622,320.6361 1032.8402,348.1081 C1029.9222,371.0341 1079.4172,354.1621 1097.7332,359.2201 C1108.6902,356.3531 1148.8182,358.6681 1122.9932,372.7091 C1089.9142,372.9441 1056.7322,373.9471 1023.6742,374.2591 C1006.5282,379.4091 928.8352,362.8281 932.5472,384.2871 C936.6052,396.0681 926.4062,421.4101 938.9002,425.9131 C951.8332,425.7441 946.5372,415.0981 947.6092,407.1841 C954.9832,401.5521 947.5362,419.5561 946.2652,423.1151 C943.9832,432.0351 960.7932,430.3611 966.3242,434.6161 C974.2172,436.5381 978.1872,454.6811 968.7972,456.1631 C965.6692,449.9641 964.8852,454.4441 963.4272,457.1851 C958.3892,471.0841 955.0552,444.3971 946.1972,452.2181 C949.5912,428.4891 929.1482,446.7351 938.2022,459.2731 C937.7662,460.6911 937.6672,463.1301 936.8662,463.3871 C927.1332,466.5291 935.8232,473.6621 933.6072,480.2581 C936.0472,499.2901 942.2682,476.0221 944.9882,478.4901 C947.0822,479.3851 949.8922,480.9981 947.1892,484.8831 C943.3012,490.4691 943.6942,491.0441 950.1202,490.8761 C973.3682,494.8571 1060.5052,477.2791 1067.4832,493.9021 C1069.7882,508.0161 1049.1672,495.3221 1043.3402,505.1611 C1028.8372,496.3671 1013.7102,508.3191 998.3002,502.6121 C983.8052,500.5451 998.7892,536.6711 992.9302,547.6201 C992.4192,559.2171 1003.3412,586.8581 989.9512,592.694018 C984.3922,592.8071 983.8192,587.7281 983.6102,583.6621 C982.1902,464.5761 985.4552,511.6351 864.2312,505.8221 C852.6812,507.4971 807.9902,507.9031 834.1472,495.3771 C859.8272,491.0481 896.2492,499.3161 916.9372,488.7391 C912.4722,469.8651 932.0722,371.3661 914.3192,374.2261 C900.3982,376.7271 878.9682,367.2341 869.0602,377.6151 C853.8272,403.2891 833.9692,425.2381 813.5872,446.8431" id="Fill-11" fill="#0f0f0f"/><path d="M866.9631,689.3344 C843.2061,737.7114 803.1251,770.8974 763.2841,805.6474 C751.7031,808.4644 707.8281,852.4954 709.3631,829.1844 C695.6241,791.7044 685.3571,751.7634 677.7941,713.2494 C670.0371,710.2004 670.6111,707.8884 673.2531,700.9284 C674.2391,689.4794 661.0351,674.5144 677.4121,670.0784 C732.7221,647.9254 789.4931,622.7014 850.0661,622.3034 C855.1061,630.8114 860.0751,641.9874 855.3401,651.3254 C862.3601,662.4824 866.5621,676.2824 866.9631,689.3344" id="Fill-13" fill="#144936"/><path d="M587.5115,406.5756 C646.4055,400.6376 616.7615,393.6716 618.2875,465.5676 C624.0035,515.2096 575.9395,546.8086 553.7625,587.4696 C521.8905,612.9996 476.2285,622.0386 437.3495,634.4426 C422.7415,630.6896 449.5705,577.7976 452.3005,562.7526 C471.0735,517.1266 492.2415,470.4646 506.4545,424.3306 C529.1455,410.7546 560.1565,405.7546 587.5115,406.5756" id="Fill-15" fill="#144936"/><path d="M1095.4924,923.5414 C1086.2114,969.7114 1072.5284,1028.0084 1018.1934,1036.5844 C1002.9704,1038.5744 988.3544,1043.2764 977.4694,1055.2254 C962.8134,1072.2234 951.9334,1093.0454 926.3214,1092.7454 C909.5354,1093.8304 896.4934,1101.4264 892.2244,1119.3794 C855.1224,1126.5214 815.0894,1129.2964 776.7354,1130.7444 C783.2414,1105.3964 802.3514,1087.3654 827.6774,1082.9044 C872.0694,1075.9244 881.2464,1017.4044 929.2284,1019.3394 C972.4994,1022.6324 979.6874,970.0994 1019.0054,964.5294 C1047.3454,954.6554 1060.3504,921.3504 1095.4924,923.5414" id="Fill-17" fill="#00684a"/><path d="M826.4104,497.351 C821.6704,544.123 879.6204,605.266 802.8254,601.812 C760.5554,611.988 721.9314,625.951 681.9064,641.655 C671.8204,643.255 686.7764,653.364 677.5614,656.766 C660.9384,664.26 643.5144,565.321 662.3324,567.131 C709.5004,542.781 754.0684,513.121 795.1024,479.922 C811.7744,459.762 826.7684,475.997 826.4104,497.351" id="Fill-19" fill="#144936"/><path d="M1049.9866,685.4769 C1075.1986,687.2559 1146.7056,724.6249 1093.4226,732.8529 C1068.5566,744.0859 1062.8066,779.3859 1031.4766,779.4449 C985.2026,776.8629 980.0866,835.0739 940.1456,839.7619 C913.2506,832.5969 862.1066,884.6459 883.3406,836.9189 C894.0406,805.9779 858.0456,788.7069 910.2836,787.1639 C971.4976,775.0569 983.3246,695.0829 1049.9866,685.4769" id="Fill-21" fill="#00684a"/><path d="M248.6257,1123.5297 C276.2927,1005.0057 266.4647,1085.3047 363.6927,1069.7217 C397.3817,1068.1807 437.3177,1033.2397 421.1277,1095.5137 C406.3917,1141.9497 289.1177,1140.2217 248.6257,1123.5297" id="Fill-23" fill="#162b22"/><path d="M870.9221,736.6508 C877.0201,727.1138 873.4341,717.5428 871.0241,707.9758 C883.1171,697.9908 892.9781,683.2698 909.5231,681.2248 C940.9801,680.7588 947.0781,638.6648 977.2441,655.4648 C1069.6811,683.2508 1006.9541,675.5788 973.8891,719.0468 C952.8311,754.2478 924.1391,778.5438 881.5731,779.5438 C876.9631,765.9848 882.5001,746.2148 870.9221,736.6508" id="Fill-25" fill="#00684a"/><path d="M458.0583,1103.5053 C436.0373,1076.6343 445.9823,1055.3013 457.0183,1028.5353 C462.6153,1028.1273 466.7153,1030.0703 470.5813,1024.9993 C493.2043,999.1103 524.3833,1005.2293 555.1413,1006.4523 C570.5623,1010.1403 578.5593,1044.1363 585.3693,1058.9853 C544.8933,1078.8203 501.8313,1092.9793 458.0583,1103.5053" id="Fill-27" fill="#162b22"/><path d="M879.1077,862.3451 C905.1077,831.4871 955.8967,854.0051 974.4567,816.4491 C987.2277,794.4911 1006.3127,782.1101 1031.4787,779.4471 C1069.4177,776.6431 1075.4797,726.1651 1116.2447,726.7181 C1134.0037,743.0001 1084.4547,740.6401 1078.4107,764.4491 C1057.4477,804.5961 1000.1637,782.5631 982.1437,826.4481 C968.8937,855.5441 938.3127,852.4711 911.7887,857.7051 C872.7117,867.5381 861.7917,924.1631 817.8117,922.7331 C758.2257,921.6001 739.4887,995.0661 683.6587,1004.4481 C612.8527,1007.0591 598.3247,1099.9531 592.2667,1064.7051 C618.5987,983.4531 711.7117,1006.3751 755.8417,935.8851 C780.7077,909.5501 823.7777,909.2621 853.4087,900.2471 C849.6317,885.7811 871.0207,874.3161 879.1077,862.3451" id="Fill-29" fill="#162b22"/><path d="M138.5561,628.0023 C154.1761,658.6043 169.2481,689.9163 192.6171,715.5603 C202.7461,724.9843 213.0411,741.9303 196.7501,750.7993 C176.4561,758.3603 155.5601,787.4803 133.9161,774.7973 C113.0591,764.0543 115.1171,769.1603 114.9231,745.5983 C117.5381,711.5913 114.9931,660.6643 135.5541,636.5733 C133.4271,632.6813 135.2301,630.0683 138.5561,628.0023" id="Fill-31" fill="#162b22"/><path d="M1116.2415,847.1146 C1087.4815,877.4786 1038.2275,850.6216 1017.6275,893.6646 C998.2045,924.3866 954.1165,902.1186 932.9165,932.5586 C899.0135,986.5536 836.1905,959.6636 802.1805,1010.7056 C761.6205,1091.2856 674.5575,1055.9136 651.9025,1130.9506 C641.8735,1149.3436 638.5625,1122.7636 647.2815,1112.6706 C660.7605,1079.1706 694.6965,1065.7976 727.4145,1058.0636 C787.0515,1042.9146 800.8165,958.4986 868.7745,959.0746 C889.9505,957.6406 905.1775,946.6296 917.8875,931.1206 C942.7875,889.7656 998.0495,911.5376 1021.0965,870.0306 C1044.4785,838.2006 1088.8935,862.3316 1113.4135,832.7306 C1128.8065,819.9166 1118.8525,837.1776 1116.2415,847.1146" id="Fill-33" fill="#162b22"/><path d="M64.6208,737.0707 C92.4338,765.5537 113.9718,773.8597 104.2198,820.8647 C83.1198,849.2307 65.4988,874.9537 52.0728,910.1857 C29.6218,853.3527 33.6508,789.4857 64.6208,737.0707" id="Fill-35" fill="#162b22"/><path d="M1066.7224,1021.5336 C1046.0314,1127.6836 992.8144,1119.2936 902.1724,1118.9616 C917.8684,1092.0846 958.7524,1115.3256 975.4844,1075.1816 C996.4894,1040.9496 1044.6584,1056.2736 1066.7224,1021.5336" id="Fill-37" fill="#00684a"/><path d="M1095.4929,923.5414 C1060.2649,921.3894 1047.3989,954.6374 1019.0109,964.5404 C979.7049,970.0954 972.4829,1022.6334 929.2259,1019.3344 C881.2399,1017.4054 872.0809,1075.9214 827.6759,1082.9034 C786.5249,1086.4614 790.0649,1124.5644 764.7249,1134.7794 C767.9269,1101.4204 793.5469,1077.7884 824.9309,1069.6194 C868.8309,1058.9904 881.7389,1001.7014 932.8519,1005.0344 C970.3199,1003.6974 977.5739,956.8364 1014.2759,952.5274 C1024.9969,950.5074 1032.5549,943.0274 1039.5559,935.1984 C1048.7249,919.8004 1104.7779,897.3134 1095.4929,923.5414" id="Fill-39" fill="#162b22"/><g id="Group-43" transform="translate(0.000000, 842.180000)"><mask id="masterspot-illustrationssecurity-mask-2" fill="#fff"><use xlink:href="#masterspot-illustrationssecurity-path-1"/></mask><g id="Clip-42"/><path d="M33.9382,100.1876 C28.5092,102.8226 32.4552,105.0076 33.6172,108.7416 C37.3622,106.9026 34.2982,103.7096 33.9382,100.1876 M21.1422,0.0806 C18.9712,39.6236 42.2802,73.8386 44.8792,110.8966 C40.9952,131.4046 47.5782,154.2386 24.0752,130.7456 C-15.9828,94.2916 1.8052,42.2686 21.1422,0.0806" id="Fill-41" fill="#162b22" mask="url(#masterspot-illustrationssecurity-mask-2)"/></g><path d="M60.5425,998.9672 C60.0355,969.9052 58.0615,955.6112 84.3295,983.4652 C101.7005,1009.3912 139.6435,1008.0712 157.1215,1029.3802 C156.7435,1042.5602 154.6515,1055.6892 155.4065,1068.9302 C123.3295,1046.2712 89.5985,1025.5332 60.5425,998.9672" id="Fill-44" fill="#162b22"/><path d="M169.7493,1077.8959 C184.2883,1070.0239 163.0523,1029.0079 184.3633,1028.8329 C195.6563,1033.2149 217.8823,1023.5659 223.4523,1035.3029 C220.0083,1115.5159 251.1323,1136.0809 169.7493,1077.8959" id="Fill-46" fill="#162b22"/><path d="M207.2073,610.8265 C195.0703,646.0905 217.6643,741.7465 173.6233,663.2405 C137.1683,607.9355 150.3763,612.8085 207.2073,610.8265" id="Fill-48" fill="#162b22"/><path d="M1066.7224,1021.5336 C1044.6394,1056.2816 996.5034,1040.9446 975.4874,1075.1856 C953.6874,1112.5506 927.5024,1097.3696 892.2254,1119.3846 C900.2004,1080.6426 949.6774,1103.0896 965.0094,1070.4746 C976.8344,1051.5456 995.9094,1038.1906 1018.1944,1036.5866 C1036.8834,1041.0996 1081.1094,986.2966 1066.7224,1021.5336" id="Fill-50" fill="#162b22"/><path d="M881.5774,779.5502 C953.1954,783.1082 965.8574,700.7602 1026.2234,681.2242 C1085.9654,679.8022 987.3214,700.9292 971.8794,740.4782 C956.9264,763.1892 938.6204,783.7022 910.2764,787.1572 C897.8864,787.3252 876.9674,799.6152 881.5774,779.5502" id="Fill-52" fill="#162b22"/><path d="M866.9631,689.3344 C869.5091,673.0514 853.7681,659.4794 857.4051,644.8134 C862.1101,666.8294 906.2851,622.1984 945.4071,646.4324 C937.1701,656.7604 927.0151,664.9974 914.0451,667.4174 C894.4841,665.4594 877.8621,694.9794 866.9631,689.3344" id="Fill-54" fill="#00684a"/><path d="M190.2243,110.5843 C188.5183,110.0683 181.4683,113.9233 181.1183,107.7293 C182.0513,98.3693 196.6713,104.6513 203.0913,100.4793 C198.3333,95.9923 182.1233,77.3353 197.9963,79.8173 C227.7043,109.7613 213.3983,85.6243 239.1833,79.3883 C239.8673,87.4043 233.4483,92.8513 229.4983,99.1463 C237.8113,97.1893 254.8233,103.8543 240.3623,109.2153 C228.4383,110.5433 242.2003,118.1033 244.2923,121.9863 C248.2683,151.7733 219.4833,102.5483 213.6313,119.2283 C207.9483,123.9743 203.1523,139.1943 194.2383,134.2733 C186.5573,122.2293 218.8463,109.8313 190.2243,110.5843" id="Fill-56" fill="#0f0f0f"/><path d="M318.4683,100.2874 C333.4023,96.7144 344.1073,108.1414 324.7093,111.1844 C327.1563,118.1994 341.1973,122.8664 335.3443,130.7074 C331.4293,134.8374 327.7593,131.4174 324.6023,128.5764 C310.1663,111.9784 305.5813,113.9914 293.8853,131.4894 C288.9623,140.9734 276.6143,132.4784 285.2103,125.0244 C299.8403,110.5724 290.7423,110.6554 275.5983,111.2624 C261.5963,103.2154 286.8893,102.8294 292.8963,101.0794 C288.7453,93.9264 279.4543,89.8004 281.9013,80.2944 C294.6933,76.1714 302.2383,104.2244 312.1273,92.1464 C328.9053,67.9344 336.0793,81.6654 318.4683,100.2874" id="Fill-58" fill="#0f0f0f"/><path d="M378.2212,111.4905 C369.3122,113.6265 359.6882,107.2365 373.1932,103.0635 C390.3462,101.8425 385.6742,98.7995 376.9332,87.5575 C375.3372,72.5205 389.1372,83.8745 394.5122,89.6005 C404.3302,102.2755 408.5512,88.5185 416.5292,81.2795 C432.2742,71.6535 419.8112,94.8685 414.3692,99.5435 C421.0012,99.7105 427.4962,99.1675 432.3472,104.5825 C420.6912,114.6385 415.0552,108.2765 429.7262,122.3975 C439.1432,139.0415 413.8072,127.9595 409.9562,119.7295 C398.1542,104.6665 393.6732,139.0835 379.9042,134.7555 C369.2882,126.1185 405.0722,108.7235 378.2212,111.4905" id="Fill-60" fill="#0f0f0f"/><path d="M107.0664,660.9799 C103.6984,691.5839 103.9694,722.7099 99.2714,753.0789 C48.2694,732.5099 85.2024,692.2619 107.0664,660.9799" id="Fill-62" fill="#162b22"/><path d="M997.6418,164.0961 C986.0318,159.8661 907.9148,157.6541 929.6138,138.7841 C954.5188,146.1501 979.9978,141.4871 1004.9368,146.4671 C1019.6308,153.5191 1006.2438,163.4061 997.6418,164.0961" id="Fill-64" fill="#0f0f0f"/><path d="M936.1375,5.888 C919.9955,25.68 908.1105,61.25 886.9095,71.174 C873.0195,67.05 929.0325,-23.615 936.1375,5.888" id="Fill-66" fill="#0f0f0f"/><path d="M921.6306,109.2298 C895.7886,106.5828 980.5486,43.6728 985.6886,55.5078 C982.6826,77.4138 938.6376,93.8288 921.6306,109.2298" id="Fill-68" fill="#0f0f0f"/><path d="M870.4666,693.6146 C882.0286,679.9556 895.9636,670.7916 914.0456,667.4176 C931.6006,668.0796 939.2236,641.6406 954.6876,649.4996 C941.5226,680.1276 906.6766,674.8556 885.3936,694.5686 C876.4786,704.3196 866.3216,713.8356 870.4666,693.6146" id="Fill-70" fill="#162b22"/><path d="M1017.9314,505.1332 C1020.2074,511.4442 1023.5614,514.5502 1031.3574,514.0822 C1028.3534,510.8812 1029.4984,507.6172 1030.7604,503.9452 C1035.1094,503.8462 1040.9834,518.4572 1040.1504,522.8652 C1035.2114,526.6032 1037.9174,534.3472 1032.1734,533.3442 C1029.4564,533.1632 1024.1554,535.4942 1024.8214,530.9302 C1025.0334,519.7582 1010.1704,521.0482 1007.7834,529.7812 C988.2564,502.9182 1016.8434,534.5282 1017.9314,505.1332" id="Fill-72" fill="#0f0f0f"/><path d="M97.3208,372.3754 C91.8318,368.1684 90.2398,366.7584 85.3978,371.0984 C89.2338,376.4714 91.0108,375.6214 97.3208,372.3754 M114.6418,376.2204 C103.2778,376.3264 91.9148,376.4334 80.5628,376.5424 C96.1128,372.1044 81.1008,370.1284 77.8738,364.1784 C82.9418,370.7174 90.8238,364.9574 97.2458,363.8244 C103.8868,359.6914 90.1018,377.4904 114.6418,376.2204" id="Fill-74" fill="#162b22"/><path d="M425.9407,1112.0707 C436.2007,1072.7737 433.2437,1112.8657 447.9567,1105.3817 C443.7957,1108.7377 433.2847,1111.9437 425.9407,1112.0707" id="Fill-76" fill="#162b22"/><path d="M78.25,375.808 C70.203,375.819 62.156,375.829 54.128,375.84 C64.852,375.436 62.701,364.454 52.309,368.335 C40.307,367.36 58.946,356.256 62.702,365.513 C64.886,372.752 70.997,375.484 78.25,375.808" id="Fill-78" fill="#00684a"/><path d="M998.8079,518.4574 C1002.9169,522.6244 1008.1909,527.2214 1008.0529,533.4904 C1005.8429,532.1794 1002.7329,538.3144 1000.8779,532.3784 C999.2059,527.0264 996.5599,525.2134 993.8049,531.9354 C993.6539,527.1134 993.5019,522.3254 993.3439,517.5414 C994.5099,521.7514 996.7429,519.5994 998.8079,518.4574" id="Fill-80" fill="#00684a"/><path d="M971.6536,374.6156 C989.0106,374.4976 1006.3676,374.3796 1023.6746,374.2606 C1009.4066,377.2256 986.4546,368.5106 977.0036,378.5586 C975.4406,384.1296 966.3816,379.5116 971.6536,374.6156" id="Fill-82" fill="#00684a"/><path d="M998.8079,518.4574 C993.3499,523.3254 992.8619,515.1624 992.3389,510.9894 C1002.5999,516.5074 1005.6019,500.1354 1017.4659,504.3044 C1019.4839,504.5984 1015.5439,507.4564 1014.9969,508.6184 C1004.3739,503.5544 1008.0589,517.4184 998.8079,518.4574" id="Fill-84" fill="#162b22"/><path d="M934.0764,474.0736 C928.0564,466.3736 936.4944,466.1226 938.2054,459.2726 C938.5734,462.5806 946.0734,473.4176 940.2764,471.2976 C937.1834,470.0326 932.9714,466.0236 934.0764,474.0736" id="Fill-86" fill="#162b22"/><path d="M970.0579,399.9955 C966.6829,411.5775 960.0659,401.8975 959.8609,395.0455 C963.7839,394.2105 966.7739,398.4865 970.0579,399.9955" id="Fill-88" fill="#0f0f0f"/><path d="M1014.2063,539.0092 C1015.3703,530.0242 1021.1193,539.4302 1024.9603,541.8832 C1022.5623,551.3002 1018.2893,542.3442 1014.2063,539.0092" id="Fill-90" fill="#00684a"/><path d="M117.187,348.0267 C116.833,363.4167 116.615,365.6717 109.046,351.1497 C113.019,353.3897 116.213,353.5977 117.187,348.0267" id="Fill-92" fill="#162b22"/><path d="M109.1318,351.0697 C103.0848,348.3877 105.9668,343.1787 104.6528,339.1837 C106.1788,343.0177 107.5168,347.6097 109.1318,351.0697" id="Fill-94" fill="#162b22"/><path d="M417.6292,1115.6185 C420.0042,1114.6945 422.3782,1113.7705 424.7442,1112.8475 C422.3662,1113.7725 419.9982,1114.6955 417.6292,1115.6185" id="Fill-96" fill="#162b22"/><path d="M993.5574,547.6869 C992.9334,547.7249 992.8894,547.4889 993.0574,546.9619 C993.6124,546.9999 993.7384,547.1509 993.5574,547.6869" id="Fill-98" fill="#00684a"/><path d="M118.2712,331.1488 C118.2712,331.1488 118.1652,331.1248 118.1682,331.1218 C118.1712,331.1188 118.2712,331.1488 118.2712,331.1488" id="Fill-100" fill="#162b22"/><path d="M42.0083,985.7787 C42.6283,986.4577 43.2483,987.1367 43.8653,987.8147 C43.2443,987.1347 42.6263,986.4577 42.0083,985.7787" id="Fill-102" fill="#162b22"/><path d="M116.855,373.2367 C117.039,373.6077 116.641,373.3187 116.49,373.3397 L116.855,373.2367 Z" id="Fill-104" fill="#162b22"/><path d="M135.5947,636.5746 C135.5947,636.5746 135.5517,636.5736 135.5537,636.5736 C135.5567,636.5726 135.5947,636.5746 135.5947,636.5746" id="Fill-106" fill="#00684a"/><path d="M631.439,873.4681 C605.442,888.1731 579.547,848.9931 553.462,841.7531 C531.228,823.5451 504.503,820.8111 482.359,803.6341 C499.32,783.1391 619.866,678.9131 635.432,702.1761 C648.728,746.6221 653.617,793.4381 670.474,836.5931 C687.477,870.7521 648.363,863.1401 631.439,873.4681" id="Fill-108" fill="#144936"/><path d="M881.5774,779.5502 C883.9744,818.2562 864.0344,853.5392 839.8524,883.4772 C805.9524,881.2642 746.1184,904.0502 725.1634,877.9052 C718.4474,852.1612 762.9554,847.5702 776.5564,830.9392 C792.1024,819.0592 805.3544,804.1962 820.8054,792.1762 C853.6394,769.3042 877.6874,698.0342 881.5774,779.5502" id="Fill-110" fill="#144936"/><path d="M363.2358,847.6049 C388.8798,843.5939 460.8518,881.8809 420.8798,908.9889 C393.0488,916.1319 367.4698,943.0799 340.8518,944.5299 C254.9798,889.8999 256.1958,858.9559 363.2358,847.6049" id="Fill-112" fill="#162b22"/><path d="M110.7121,836.4271 C121.9981,866.4281 127.8921,897.6771 144.1851,925.6091 C156.4401,953.3631 185.0271,974.6581 163.4001,1005.3671 C133.3601,1006.2941 95.6281,976.2321 75.3081,951.6011 C48.4161,920.3691 91.1531,864.3551 110.7121,836.4271" id="Fill-114" fill="#162b22"/><path d="M224.2427,607.8344 C242.7387,610.9374 338.4007,581.3464 318.5597,618.9864 C288.6357,637.3234 295.3077,676.5024 276.1307,697.7154 C256.2547,703.1034 238.5417,721.4804 221.7047,726.3314 C206.5897,693.0544 208.9867,639.4374 224.2427,607.8344" id="Fill-116" fill="#162b22"/><path d="M162.9553,878.4056 C167.1253,847.4696 173.4723,773.2156 216.8013,797.7766 C225.1603,823.9176 236.6323,848.7306 250.3693,872.4536 C255.6823,887.1016 230.2093,894.4246 223.5833,906.0566 C212.4003,917.7336 200.5633,928.9246 193.8083,944.2586 C173.0403,961.6516 164.9293,891.7436 162.9553,878.4056" id="Fill-118" fill="#162b22"/><path d="M422.5654,655.6596 C491.5114,653.7586 558.5914,589.7056 493.7804,684.3286 C475.0634,714.4196 460.6194,746.8666 446.6534,779.3656 C427.0664,770.4616 416.3154,746.8976 416.7574,727.3446 C422.7344,720.9636 415.2944,723.2226 413.4334,721.9636 C419.0364,699.8976 409.1084,677.6066 422.5654,655.6596" id="Fill-120" fill="#144936"/><path d="M356.5889,615.9281 C360.8279,622.0891 379.1299,618.7621 387.5619,616.5851 C377.3119,611.7401 367.1849,613.5261 356.5889,615.9281 M422.5659,655.6591 C412.3309,717.3121 384.9129,670.9861 338.2729,685.4121 C328.0829,677.4541 344.3579,642.1971 338.3579,625.6871 C349.2669,589.8781 406.8909,595.9671 436.7819,603.7401 C436.5339,623.4151 427.6679,637.7711 422.5659,655.6591" id="Fill-122" fill="#162b22"/><path d="M324.1316,964.1859 C303.7326,972.6369 294.4616,1013.0869 268.4596,1010.0449 C257.1886,1005.9939 237.9366,1003.2079 242.6746,986.7549 C249.6936,958.6329 254.4326,929.5959 266.9256,903.1489 C272.1986,893.1189 287.5166,922.3049 295.4456,925.3729 C302.7216,936.5799 347.9886,952.4639 324.1316,964.1859" id="Fill-124" fill="#162b22"/><path d="M520.0569,824.8021 C555.1299,826.4811 541.0339,850.4461 533.6829,873.3121 C531.6399,880.8981 528.1789,884.6171 520.1959,884.0731 C468.5749,887.1951 427.5959,925.9951 465.0269,850.2341 C473.7679,831.0241 504.3559,838.7711 520.0569,824.8021" id="Fill-126" fill="#162b22"/><path d="M228.0293,787.5951 C262.6313,771.5531 268.5653,775.7251 300.4383,793.5921 C319.4193,802.3541 280.4333,832.3921 276.5183,846.6001 C271.5563,850.5991 268.4983,871.2781 261.8553,865.8651 C247.8263,841.2441 234.8453,815.1981 228.0293,787.5951" id="Fill-128" fill="#162b22"/><path d="M415.8079,739.6693 C418.4229,744.3553 422.1719,748.7553 423.4329,753.7803 C425.1669,771.4403 446.6479,772.2533 448.0369,787.3303 C428.8149,794.5473 314.6389,809.1443 356.1289,767.7333 C374.7109,759.3013 395.2519,732.2013 415.8079,739.6693" id="Fill-130" fill="#162b22"/><path d="M290.1685,855.6713 C320.9515,780.2723 335.9895,803.6093 395.6265,832.8533 C407.4425,845.3933 462.8425,832.7923 453.7655,852.2383 C434.2195,924.4313 431.3665,791.8733 290.1685,855.6713" id="Fill-132" fill="#162b22"/><path d="M415.3176,1042.4467 C387.3976,1069.4797 242.1296,1057.4277 285.2796,1033.7397 C397.2436,1048.1057 416.6316,987.8047 415.3176,1042.4467" id="Fill-134" fill="#162b22"/><path d="M695.8953,887.8519 C721.2163,883.1839 690.0413,909.7059 686.2663,921.7359 C669.7803,954.8889 636.1403,956.6949 603.3023,960.2859 C570.9593,960.9699 569.7303,997.8989 551.6993,999.2869 C545.7323,998.0209 538.0693,994.7349 532.5793,1001.7289 C527.1303,997.0599 517.5043,999.0509 510.3743,996.4479 C505.9483,993.8509 509.3893,992.1229 510.6053,990.0459 C526.3193,970.8649 528.6753,966.8799 547.4643,985.8159 C633.0013,907.3409 639.5713,988.0579 695.8953,887.8519" id="Fill-136" fill="#162b22"/><path d="M341.6719,1019.2035 C333.7789,1017.0715 295.3329,1024.4955 302.1999,1014.4365 C329.4919,1006.1575 352.3989,985.6895 378.0769,976.4555 C463.2169,995.6035 379.4319,1013.5285 341.6719,1019.2035" id="Fill-138" fill="#162b22"/><path d="M449.541,968.7064 C453.387,979.1464 436.996,995.1684 435.052,979.7114 C435.748,971.7984 428.843,973.1274 425.208,975.6294 C421.321,981.0034 417.296,979.7544 412.462,977.8944 C354.778,965.5004 416.332,949.8414 428.97,920.0344 C443.618,896.1934 454.463,936.3484 445.346,947.0514 C440.258,954.7874 430.911,960.3064 432.101,970.6444 C440.689,973.2594 450.162,956.7314 449.541,968.7064" id="Fill-140" fill="#162b22"/><path d="M147.2136,905.1146 C137.5766,879.6326 118.6826,843.7546 125.7076,817.7506 C137.8286,810.1726 149.9446,784.4906 166.0676,794.3076 C156.0786,828.9336 145.1206,867.4346 147.2136,905.1146" id="Fill-142" fill="#162b22"/><path d="M321.0869,758.8783 C316.9549,749.0423 296.9729,729.4553 316.8149,725.2893 C332.0559,726.7433 386.6759,720.4613 384.1549,735.1263 C368.0099,746.3453 351.0019,756.3713 336.6849,769.9273 C327.2099,774.2163 330.7639,759.1603 321.0869,758.8783" id="Fill-144" fill="#162b22"/><path d="M226.1875,990.3695 C216.2985,980.3505 192.0575,973.8105 201.0865,957.9415 C212.0775,935.0805 230.1095,917.1605 247.6265,899.3535 C256.8645,902.1875 238.7745,932.0155 238.0375,943.5095 C233.0135,958.9465 233.7225,975.8135 226.1875,990.3695" id="Fill-146" fill="#162b22"/><path d="M510.2522,977.3109 C504.3402,985.0279 494.9032,996.1809 483.9792,995.3239 C478.6512,992.7879 459.8712,993.2179 462.2732,986.2699 C481.2792,966.5179 503.2872,950.1649 517.0652,925.6339 C526.5012,914.7139 514.3952,954.2569 524.5302,962.9029 C522.5082,969.1329 512.6622,970.5799 510.2522,977.3109" id="Fill-148" fill="#162b22"/><path d="M413.8186,701.9428 C428.0016,744.7418 349.2556,703.9328 325.9926,715.2768 C318.8806,715.9628 320.4186,713.5208 321.7136,709.2368 C339.5836,684.4508 386.4256,701.7518 413.8186,701.9428" id="Fill-150" fill="#162b22"/><path d="M518.1775,890.1957 C532.7675,888.5717 518.8345,903.9817 515.3395,910.3077 C502.1245,924.1437 478.0555,925.1527 460.9905,933.9837 C453.7575,928.8647 459.2635,915.2947 452.1165,907.8967 C467.6545,899.0457 497.9655,897.9797 518.1775,890.1957" id="Fill-152" fill="#162b22"/><path d="M462.1274,811.4056 C465.5854,843.5146 421.2414,819.4796 403.0604,820.7336 C374.9774,805.6976 440.0414,811.7126 452.0904,800.2586 C462.8664,794.2936 462.2024,803.2136 462.1274,811.4056" id="Fill-154" fill="#162b22"/><path d="M839.8542,883.4779 C858.5612,860.5459 873.1742,834.6049 881.3062,805.9569 C892.8612,824.3739 878.4362,845.7119 877.1372,864.4119 C864.7752,863.3839 870.6632,892.9449 839.8542,883.4779" id="Fill-156" fill="#00684a"/><path d="M313.8625,687.2943 C277.9815,702.9923 310.0485,636.9463 324.2835,629.6333 C328.2965,647.5513 326.4575,673.7323 313.8625,687.2943" id="Fill-158" fill="#162b22"/><path d="M596.2068,869.1947 C630.0108,879.3287 534.7518,903.4827 526.0908,915.5307 C518.6738,916.5027 539.8928,881.8537 547.5568,887.7297 C547.4428,888.6007 547.4828,889.7637 546.6298,890.6187 C563.7888,885.6517 581.4528,880.5857 596.2068,869.1947" id="Fill-160" fill="#162b22"/><path d="M553.4614,841.7504 C594.9264,852.7714 565.1304,869.7954 547.5534,887.7304 C531.9074,865.8434 552.4754,868.6804 553.4614,841.7504" id="Fill-162" fill="#162b22"/><path d="M238.4097,1090.2152 C237.7417,1079.9392 227.6087,1021.9932 247.9567,1042.1432 C251.4447,1044.7362 256.6867,1046.6502 257.9387,1050.0462 C252.9947,1060.7722 249.2767,1086.7732 238.4097,1090.2152" id="Fill-164" fill="#162b22"/><path d="M328.595,973.5648 C336.328,966.0908 361.279,956.3078 360.044,973.0268 C340.48,982.0168 281.961,1022.2958 328.595,973.5648" id="Fill-166" fill="#162b22"/><path d="M502.0078,929.2523 C495.7518,936.6913 463.7998,978.7133 459.3068,966.9703 C458.7328,943.7523 481.2878,930.8073 502.0078,929.2523" id="Fill-168" fill="#162b22"/><path d="M375.1748,959.9105 C335.8898,955.5305 398.2828,928.2305 412.5218,924.2125 C402.3198,937.5455 387.8538,949.1165 375.1748,959.9105" id="Fill-170" fill="#162b22"/><path d="M319.8145,779.1303 C322.3445,789.0743 281.9125,770.7443 279.4885,764.0643 C303.5115,730.5503 302.9055,767.5753 319.8145,779.1303" id="Fill-172" fill="#162b22"/><path d="M288.3884,729.0765 C296.4184,734.1935 278.1784,744.5065 275.0824,750.1805 C264.0294,764.7925 213.8834,739.9595 288.3884,729.0765" id="Fill-174" fill="#162b22"/><path d="M518.1775,890.1957 C498.1885,890.8887 461.6255,915.5867 449.7105,897.9247 C470.9725,895.9307 499.9675,880.3267 518.1775,890.1957" id="Fill-176" fill="#144936"/><path d="M428.7349,1021.2719 C428.2339,1008.1379 434.5449,1000.5599 445.9849,999.1499 C447.6329,999.4449 450.6359,1014.7809 449.2819,1015.0039 C444.1989,1015.8449 445.5819,1020.1819 444.3449,1023.0679 C441.0119,1036.2269 428.3889,1034.4449 428.7349,1021.2719" id="Fill-178" fill="#162b22"/><path d="M220.2024,754.4828 C227.4664,742.5928 239.2894,758.8618 246.1214,763.8468 C253.6124,771.3488 235.3104,772.7168 231.0954,775.8748 C220.5224,779.2468 223.5604,761.4398 220.2024,754.4828" id="Fill-180" fill="#162b22"/><path d="M212.6111,1016.7406 C201.8481,1013.7266 176.2271,1021.1896 181.7751,1004.5096 C185.7151,978.3066 201.9161,1008.2996 212.6111,1016.7406" id="Fill-182" fill="#162b22"/><path d="M482.3567,803.639 C509.1277,816.478 507.1637,818.145 479.2957,824.368 C466.6487,828.984 471.6867,796.758 482.3567,803.639" id="Fill-184" fill="#162b22"/><path d="M115.3642,783.6732 C113.4872,767.3942 124.8982,781.3142 132.9002,783.7862 C145.1422,788.2652 127.1262,796.9962 123.4542,802.0202 C114.3912,809.1142 117.2232,787.2882 115.3642,783.6732" id="Fill-186" fill="#162b22"/><path d="M249.24,720.7181 C261.137,730.0571 277.709,704.0301 286.553,713.5171 C291.962,723.6741 237.728,735.9931 249.24,720.7181" id="Fill-188" fill="#162b22"/><path d="M482.4214,1003.3392 C473.9834,1008.6192 450.3874,1030.8902 457.2574,1011.1222 C458.5654,993.4652 469.8314,1001.7672 482.4214,1003.3392" id="Fill-190" fill="#162b22"/><path d="M249.24,720.7181 C246.766,727.9551 238.646,721.6881 234.81,728.8171 C233.953,730.1571 231.009,729.9971 229.317,731.0161 C202.144,750.2871 232.229,709.0741 249.24,720.7181" id="Fill-192" fill="#00684a"/><path d="M209.1594,764.4222 C214.6864,776.8912 209.4544,784.4882 196.2514,783.9702 C193.1954,777.0902 202.8294,767.1952 209.1594,764.4222" id="Fill-194" fill="#162b22"/><path d="M271.449,1028.9369 C261.591,1039.6149 255.818,1038.4559 247.983,1029.3019 C254.794,1025.3049 262.54,1029.2679 271.449,1028.9369" id="Fill-196" fill="#162b22"/><path d="M329.9612,598.0346 C336.1802,597.5136 342.3992,596.9926 348.6172,596.4716 C341.4572,601.1196 323.0232,617.1766 329.9612,598.0346" id="Fill-198" fill="#162b22"/><path d="M761.1995,930.1947 C754.1695,942.2457 747.8705,928.9977 751.8675,922.3977 C756.4905,918.9497 760.0855,926.3007 761.1995,930.1947" id="Fill-200" fill="#00684a"/><path d="M312.0867,701.6459 C308.7637,707.9489 307.1647,710.9909 302.3837,715.0639 C295.7807,707.4209 303.2747,701.3309 312.0867,701.6459" id="Fill-202" fill="#162b22"/><path d="M238.4097,1090.2152 C247.7307,1088.5582 237.6077,1097.3822 245.5637,1099.6382 C248.8467,1106.9932 242.2587,1102.3602 238.4327,1100.8252 C232.0627,1100.6262 234.5237,1099.1242 237.6547,1097.0282 C240.4247,1095.1742 231.5507,1091.7922 238.4097,1090.2152" id="Fill-204" fill="#144936"/><path d="M228.0293,787.5951 C230.1883,793.3401 228.7603,794.3891 222.8953,794.5171 C221.6683,789.5401 222.6593,787.6101 228.0293,787.5951" id="Fill-206" fill="#00684a"/><path d="M415.3176,1042.4467 C414.0946,1039.5947 410.1476,1036.4037 416.3136,1034.4737 C420.5716,1037.9257 422.7646,1043.8187 415.3176,1042.4467" id="Fill-208" fill="#00684a"/><path d="M626.3271,907.9135 C621.7851,910.7105 618.4541,914.5975 616.6681,908.6185 C618.7821,903.1995 621.1751,904.4815 626.3271,907.9135" id="Fill-210" fill="#144936"/><path d="M324.1316,964.1859 C327.6426,962.4709 331.4246,959.3499 331.6106,964.7349 C326.8416,966.4479 328.5696,970.2999 328.5926,973.5629 C322.7976,972.8129 324.3646,967.8029 324.1316,964.1859" id="Fill-212" fill="#00684a"/><path d="M541.2344,981.5433 C537.7644,977.9393 534.2944,974.3363 530.8264,970.7303 C538.8064,968.5493 538.5424,976.3763 541.2344,981.5433" id="Fill-214" fill="#144936"/><path d="M177.8828,776.974 C178.1668,781.666 171.2558,788.059 168.2698,782.928 C169.9618,778.604 173.4238,776.432 177.8828,776.974" id="Fill-216" fill="#162b22"/><path d="M338.2764,685.4096 C342.5744,683.9436 344.6784,685.1556 346.6244,689.1446 C341.0744,691.3586 338.3954,692.4736 338.2764,685.4096" id="Fill-218" fill="#00684a"/><path d="M313.8625,687.2943 C318.5435,681.8173 323.7655,682.1293 322.2495,689.5763 C318.9335,690.0883 316.0965,690.2313 313.8625,687.2943" id="Fill-220" fill="#144936"/><path d="M391.0518,698.9291 C385.8438,699.1841 376.9648,691.2411 386.4298,693.4821 C391.2178,692.7931 391.1898,694.6191 391.0518,698.9291" id="Fill-222" fill="#00684a"/><path d="M398.5334,691.7308 C400.4974,693.0518 402.3514,694.2988 404.2044,695.5458 C401.4544,699.2718 393.1374,693.6338 398.5334,691.7308" id="Fill-224" fill="#00684a"/><path d="M555.6316,987.725 C551.7416,995.119 550.6386,991.586 547.4646,985.814 C550.1866,986.453 552.9096,987.088 555.6316,987.725" id="Fill-226" fill="#144936"/><path d="M515.8911,985.5551 C514.1271,987.0521 512.3631,988.5491 510.6051,990.0461 C504.9371,986.7171 512.8151,985.2571 515.8911,985.5551" id="Fill-228" fill="#144936"/><path d="M547.4304,985.7836 C545.3744,984.3806 543.3184,982.9766 541.2634,981.5736 C543.3194,982.9766 545.3754,984.3806 547.4304,985.7836" id="Fill-230" fill="#144936"/><path d="M518.3723,969.1137 C519.5113,968.3047 520.6503,967.4957 521.7823,966.6847 C523.0343,970.8427 520.8143,970.1347 518.3723,969.1137" id="Fill-232" fill="#144936"/><path d="M507.6719,980.9984 C509.4709,978.9924 509.9539,980.1154 510.9329,982.1104 C509.8459,981.7394 508.7589,981.3684 507.6719,980.9984" id="Fill-234" fill="#144936"/><path d="M510.2522,977.3109 C510.9272,976.1709 511.6022,975.0309 512.2782,973.8959 C511.6042,975.0379 510.9282,976.1739 510.2522,977.3109" id="Fill-236" fill="#144936"/><path d="M524.3533,964.6547 C524.3473,964.0647 524.4043,963.4817 524.5263,962.9067 C524.4683,963.4897 524.4113,964.0727 524.3533,964.6547" id="Fill-238" fill="#144936"/><path d="M177.949,777.0385 C178.201,776.7145 178.453,776.3915 178.705,776.0665 C178.918,776.7775 178.045,776.7595 177.949,777.0385" id="Fill-240" fill="#162b22"/><path d="M209.2942,764.5512 C209.4092,764.2402 209.5232,763.9302 209.6382,763.6202 C209.5362,763.9392 209.0082,764.3022 209.2942,764.5512" id="Fill-242" fill="#162b22"/><path d="M390.8904,693.5072 C391.0274,693.2722 391.1654,693.0352 391.3024,692.8002 C391.1954,693.0342 390.8784,693.2772 390.8904,693.5072" id="Fill-244" fill="#00684a"/><path d="M733.3904,401.1556 C762.3244,399.4456 777.1194,422.2486 794.0174,441.9006 C802.3744,455.8426 749.1824,477.9676 739.0024,490.3636 C712.9224,509.5436 685.0864,526.1056 657.1594,542.4066 C640.0434,553.4676 649.9414,515.4996 647.3564,506.5056 C665.9904,466.4816 705.3514,435.5036 733.3904,401.1556" id="Fill-246" fill="#144936"/><path d="M629.3567,652.643 C634.2227,676.506 602.6757,675.434 588.8057,687.996 C554.1037,702.704 514.3357,744.594 487.4297,753.54 C517.0857,704.4 537.1557,634.324 586.7407,603.486 C640.6417,569.478 619.4997,616.028 629.3567,652.643" id="Fill-248" fill="#144936"/><path d="M680.7771,396.0785 C736.2781,383.1355 658.5871,443.0915 649.1331,458.9495 C638.1951,451.6695 650.9171,416.7025 649.1291,400.6755 C659.3801,393.1295 672.7411,406.6645 680.7771,396.0785" id="Fill-250" fill="#144936"/><path d="M618.4441,371.6019 C626.9091,375.1639 625.0241,361.1959 632.8511,367.7899 C634.1951,365.7339 635.6681,363.3419 633.0271,361.6009 C606.7101,344.6469 623.3141,357.7489 618.4441,371.6019 M658.6331,397.6229 C624.1471,415.9939 646.9191,359.6639 620.8501,379.4209 C616.3291,388.7329 615.2931,369.8549 600.9991,375.0549 C607.7071,372.5149 601.0071,367.4659 603.1291,363.3919 C606.5401,356.6319 600.0531,357.1229 595.2541,355.5809 C596.9831,350.9689 602.8841,355.6089 606.5421,354.8449 C608.9011,354.8949 612.5171,355.3949 609.1091,350.4929 C604.9181,347.7239 614.5161,339.1489 611.5741,340.0829 C616.7861,346.2879 619.6711,338.9979 623.2891,335.6229 C633.9391,343.9049 623.7201,346.2329 632.2641,354.7449 C641.7461,358.1739 657.3171,346.3879 644.8961,365.1679 C644.9001,365.1639 644.6351,364.7669 644.6351,364.7669 C651.8001,372.2109 637.5551,381.5749 644.6131,389.6709 C649.2361,394.3229 648.3091,384.6059 652.0281,387.0399 C656.7631,393.6089 665.9671,391.8109 658.6331,397.6229" id="Fill-252" fill="#0f0f0f"/><path d="M618.2043,549.7611 C618.2303,557.2541 624.3303,567.0321 612.8883,567.6011 C601.7203,570.5121 595.4363,578.2451 592.5043,562.6621 C592.4453,562.5071 595.5443,560.6061 595.9893,560.9691 C604.8503,571.3291 618.4633,529.4741 618.2043,549.7611" id="Fill-254" fill="#144936"/><path d="M768.9827,412.7465 C764.8157,409.8835 772.0967,404.4845 764.8517,402.8465 C758.1587,400.2095 760.7147,410.4655 755.0707,403.9435 C761.2407,407.8565 764.7637,402.3955 768.2087,398.2625 C765.3337,399.3995 767.8347,405.4555 768.8007,406.0125 C776.0557,408.7865 777.7807,399.8425 784.7667,400.2045 C784.1477,414.6005 799.3787,410.8925 768.9827,412.7465" id="Fill-256" fill="#0f0f0f"/><path d="M628.7056,676.5394 C631.9076,680.0104 634.0946,681.3864 630.0486,684.9034 C626.4436,681.7384 623.5826,681.2264 628.7056,676.5394" id="Fill-258" fill="#00684a"/><path d="M631.439,873.4681 C631.611,872.9821 631.783,872.4951 631.955,872.0091 C632.894,873.1001 633.018,873.4471 631.439,873.4681" id="Fill-260" fill="#00684a"/><path d="M889.9153,936.7894 C881.7233,944.4104 881.1303,939.8064 875.6753,934.3424 C880.9593,928.8064 883.4493,933.5884 889.9153,936.7894" id="Fill-262" fill="#00684a"/><path d="M826.9675,949.725 C821.7395,944.702 823.7665,940.354 828.7115,938.976 C835.2475,942.427 833.6745,945.855 826.9675,949.725" id="Fill-264" fill="#00684a"/><path d="M428.4207,368.8041 C425.6537,372.6031 413.2957,378.8071 417.1737,368.6881 C418.0327,364.2141 410.5097,361.8831 419.3387,360.1871 C423.1377,368.2161 418.3697,369.8861 428.4207,368.8041" id="Fill-266" fill="#162b22"/><path d="M477.4993,346.0922 C488.4333,335.1942 481.3083,363.8342 476.6163,352.9592 C463.0563,347.4642 479.9693,351.2472 477.4993,346.0922" id="Fill-268" fill="#00684a"/><path d="M496.2112,366.8178 C505.8772,358.3408 502.1552,370.4238 503.1432,377.0848 C497.3762,378.2248 497.1122,370.9318 496.2112,366.8178" id="Fill-270" fill="#162b22"/><path d="M531.199,357.1117 C532.407,362.4087 527.373,372.4887 521.884,364.7337 C524.775,362.7077 527.912,356.0507 531.199,357.1117" id="Fill-272" fill="#162b22"/><path d="M429.4902,364.7084 C431.8422,358.8004 436.0522,364.1704 433.7672,368.6754 C432.4442,367.2274 431.2482,365.6524 429.4902,364.7084" id="Fill-274" fill="#162b22"/><path d="M575.4272,304.8607 C564.7312,302.1357 567.4472,308.0457 564.7222,314.9017 C559.4512,295.6487 567.6722,280.6417 575.4272,304.8607" id="Fill-276" fill="#00684a"/><path d="M592.5129,286.8148 C592.2159,294.1678 580.7059,286.7518 577.7229,283.2768 C584.5159,280.9398 589.7289,273.1688 592.5129,286.8148" id="Fill-278" fill="#00684a"/><path d="M566.3945,244.0472 C570.2925,247.3592 569.4245,254.0022 563.5975,250.8252 C564.5445,248.5502 565.4695,246.2992 566.3945,244.0472" id="Fill-280" fill="#162b22"/><path d="M601.437,311.726 C601.686,307.209 603.613,302.523 600.584,298.615 C609.977,303.071 609.024,305.332 601.437,311.726" id="Fill-282" fill="#00684a"/><path d="M560.28,254.8324 C560.455,258.4354 560.63,262.0374 560.789,265.6074 C560.609,261.9944 560.445,258.4134 560.28,254.8324" id="Fill-284" fill="#162b22"/><path d="M495.2117,428.2914 C498.4717,428.0974 506.3497,422.0344 506.9877,426.2454 C499.6907,432.6104 503.8637,457.2534 494.0137,442.2514 C492.8887,440.7814 490.4327,437.9794 488.8597,435.8654 C490.9687,433.6844 497.0127,434.3794 495.2117,428.2914" id="Fill-286" fill="#162b22"/><path d="M516.4294,417.182 C508.9074,405.389 525.6194,405.734 528.3734,413.075 C526.1644,419.602 520.8744,417.164 516.4294,417.182" id="Fill-288" fill="#00684a"/><path d="M445.3201,586.5033 C443.4741,584.3043 443.7521,583.0563 446.8521,583.0763 C446.3381,584.2223 445.8291,585.3623 445.3201,586.5033" id="Fill-290" fill="#00684a"/><path d="M871.0076,870.9769 C869.5586,864.1679 869.5586,864.1679 877.1336,864.4109 C875.0916,866.5979 873.0496,868.7879 871.0076,870.9769" id="Fill-292" fill="#00684a"/><path d="M860.3601,883.1537 C861.3921,881.9477 862.4241,880.7407 863.4621,879.5337 C862.4311,880.7407 861.3951,881.9477 860.3601,883.1537" id="Fill-294" fill="#00684a"/><path d="M33.9382,942.3676 C34.2982,945.8896 37.3622,949.0816 33.6182,950.9206 C32.4552,947.1836 28.5092,945.0056 33.9382,942.3676" id="Fill-296" fill="#00684a"/><path d="M372.4143,551.7279 C392.9723,552.2509 452.0723,536.0879 444.5823,511.9879 C414.4563,486.6549 374.1813,463.5949 336.4813,489.6599 C276.8273,521.7779 329.5843,549.6399 372.4143,551.7279 M371.5023,563.9939 C279.0733,559.1739 273.4393,489.3349 362.7773,467.6659 C399.9983,461.3839 435.3283,481.3369 459.0643,508.7589 C469.7073,537.2399 396.0173,566.2239 371.5023,563.9939" id="Fill-298" fill="#0f0f0f"/><path d="M526.6504,410.0248 C522.3054,409.9658 516.4674,402.7018 514.1844,412.6058 C511.0104,406.9558 505.7364,408.0148 500.2284,408.1608 C499.3104,412.7158 503.9734,422.8298 496.0424,418.6648 C499.6534,432.7838 491.9854,423.3788 485.8214,420.1478 C497.9774,388.9318 494.8384,405.8958 478.5384,397.2368 C476.5244,398.9708 477.2184,405.1678 473.8264,403.4778 C471.0574,395.2358 464.5664,395.4248 460.0404,389.5828 C465.6974,393.5028 480.1094,380.3428 468.9114,382.1158 C488.4714,371.1998 477.4694,395.7608 490.7214,396.0428 C499.4614,393.3738 503.2864,410.4848 511.9374,399.6108 C523.6574,396.7398 512.5514,391.7408 511.0174,385.6138 C516.5024,380.3898 516.9554,383.9298 523.9744,386.4288 C525.7334,387.5818 535.0434,386.4808 526.1084,391.9248 C531.0834,399.8358 520.4474,402.7248 526.6504,410.0248" id="Fill-300" fill="#0f0f0f"/><path d="M323.0498,380.2709 C321.9778,380.8179 322.6328,381.4289 322.9978,382.1959 C324.0708,381.6489 323.4148,381.0379 323.0498,380.2709 M315.6388,376.2939 C345.3428,385.1099 305.8778,386.1669 306.8748,402.1139 C306.7198,404.4069 306.0908,408.9489 301.3928,407.0449 C296.9948,405.2629 302.0598,402.4569 301.4358,401.7319 C298.6998,392.2729 279.2958,392.3309 287.4398,383.4869 C300.2388,363.3879 288.6518,410.6439 305.7278,390.0379 C319.7978,386.4919 300.6178,376.6629 304.9768,370.7119 C310.1138,363.5719 311.0468,373.5129 315.6388,376.2939" id="Fill-302" fill="#162b22"/><path d="M254.5754,520.0892 C258.3134,492.6262 235.5424,504.8052 257.4204,492.7102 C265.2544,491.3842 256.3824,497.3242 260.4204,501.3882 C268.9354,506.4222 257.6724,509.6582 264.5434,516.1862 C257.4004,517.3062 256.2284,520.1182 258.1664,526.7932 C259.8984,531.3912 253.9394,536.4582 252.7784,529.7352 C252.7214,529.2552 250.2364,528.7762 248.8804,528.7882 C237.2964,529.1142 236.0024,517.8312 239.9134,509.6922 C243.0184,505.4622 246.1664,509.2542 248.5934,511.9692 C241.1424,516.8062 252.5074,515.7332 254.5754,520.0892" id="Fill-304" fill="#0f0f0f"/><path d="M429.4902,364.7084 C433.9632,369.1154 435.1252,368.3264 433.7622,362.0764 C438.4782,358.9184 447.3552,345.3814 451.6352,355.1114 C449.4722,359.1644 425.5212,384.2374 429.4902,364.7084" id="Fill-306" fill="#0f0f0f"/><path d="M275.781,482.1928 C266.729,482.6038 263.141,468.8858 254.699,477.3368 C254.447,477.5968 252.452,476.3498 251.472,475.5548 C252.843,471.3608 263.031,466.7568 266.361,470.7138 C265.135,478.4168 277.886,477.8708 275.781,482.1928" id="Fill-308" fill="#00684a"/><path d="M249.188,454.0551 C251.07,443.9831 253.74,444.4221 251.355,433.6141 C253.849,433.1661 257.043,436.5001 257.002,438.0471 C252.279,445.5821 259.321,450.8971 249.188,454.0551" id="Fill-310" fill="#162b22"/><path d="M252.3869,382.1967 C254.1909,375.4737 263.8199,362.4527 264.5749,375.9257 C261.5199,378.4297 256.0709,387.8597 252.3869,382.1967" id="Fill-312" fill="#162b22"/><path d="M410.5388,357.1781 C402.9498,352.1831 405.8638,349.9761 411.2428,344.8911 C415.0068,347.0281 410.6338,352.9461 410.5388,357.1781" id="Fill-314" fill="#0f0f0f"/><path d="M368.6492,356.4222 C368.3112,356.8222 367.5632,357.7082 366.8152,358.5932 C373.6862,351.9902 361.4952,355.0892 358.8752,349.3012 C364.1672,344.9862 370.0032,349.5172 368.6492,356.4222" id="Fill-316" fill="#162b22"/><path d="M450.5471,366.4877 C456.1741,347.5167 455.6761,367.6617 461.6321,371.7137 C461.7701,371.7757 461.2631,374.4767 460.4971,374.8747 C454.6131,378.0737 453.2011,369.5487 450.5471,366.4877" id="Fill-318" fill="#0f0f0f"/><path d="M310.7786,362.0131 C304.2436,368.1801 302.9746,357.9221 299.4826,353.8041 C302.7896,346.0831 306.6166,358.2421 310.7786,362.0131" id="Fill-320" fill="#00684a"/><path d="M484.0369,368.5287 C486.3549,373.5267 483.5149,373.7167 479.1129,374.5657 C467.6139,372.6567 477.8429,358.7837 484.0369,368.5287" id="Fill-322" fill="#0f0f0f"/><path d="M479.1145,374.5668 C481.5005,374.0878 483.9065,373.2388 486.2445,372.8718 C492.5755,380.5488 470.8425,383.3928 479.1145,374.5668" id="Fill-324" fill="#00684a"/><path d="M317.8477,374.0629 C317.4987,369.3309 323.0787,369.8029 326.2977,368.3919 C330.8457,375.5379 321.8377,373.9039 317.8477,374.0629" id="Fill-326" fill="#00684a"/><path d="M297.6272,414.0756 C298.0782,418.3936 303.0582,423.3606 298.4182,425.1196 C297.3512,420.6626 291.4132,417.3686 297.6272,414.0756" id="Fill-328" fill="#00684a"/><path d="M488.7539,435.517 C488.0679,438.556 486.7569,440.804 490.1669,442.911 C484.1299,443.213 481.6489,434.882 488.7539,435.517" id="Fill-330" fill="#00684a"/><path d="M243.1882,503.2035 C238.7852,506.2745 237.6022,500.8695 234.7032,499.9795 C237.2402,491.7195 241.8672,499.7895 243.1882,503.2035" id="Fill-332" fill="#0f0f0f"/><path d="M246.5014,364.1869 C248.6274,364.7019 253.3174,363.0959 254.0654,364.9179 C251.9404,364.4049 247.2414,366.0109 246.5014,364.1869" id="Fill-334" fill="#00684a"/><path d="M476.6218,400.8178 C477.2698,399.6238 477.9178,398.4278 478.5388,397.2338 C477.8818,398.4288 477.2518,399.6238 476.6218,400.8178" id="Fill-336" fill="#162b22"/><path d="M466.0168,353.1879 C468.9448,355.6659 464.9738,356.2569 466.3168,353.0519 C466.3178,353.0519 466.0168,353.1879 466.0168,353.1879" id="Fill-338" fill="#0f0f0f"/><path d="M315.5581,376.2162 C316.2491,375.4662 317.3051,374.7662 317.7951,374.0122 C317.0341,374.6632 316.3251,375.8622 315.5581,376.2162" id="Fill-340" fill="#00684a"/><path d="M242.9057,503.3334 C244.7337,505.5424 241.2997,504.9104 243.1717,503.2094 C243.1877,503.2034 242.9057,503.3334 242.9057,503.3334" id="Fill-342" fill="#0f0f0f"/><path d="M493.647,441.8861 C494.108,441.7531 494.17,441.7841 494.013,442.2511 C494.009,442.2491 493.647,441.8861 493.647,441.8861" id="Fill-344" fill="#00684a"/><path d="M547.4165,887.6293 C562.3425,876.5973 579.3945,842.9763 596.2015,869.1943 C583.1625,877.3823 559.3395,892.1593 547.4165,887.6293" id="Fill-346" fill="#00684a"/><path d="M356.5889,615.9281 C367.1849,613.5251 377.3129,611.7401 387.5619,616.5851 C379.1599,618.7601 360.8049,622.0911 356.5889,615.9281" id="Fill-348" fill="#00684a"/><path d="M547.4055,889.6722 L546.6295,890.6182 C546.4245,889.8842 547.5795,889.9872 547.4055,889.6722" id="Fill-350" fill="#00684a"/><path d="M612.0725,274.143 C611.2385,270.233 602.8645,263.638 601.6265,269.999 C604.5595,273.377 607.2575,277.217 612.0725,274.143 M694.7565,335.896 C803.8545,360.741 856.4925,198.903 750.3025,158.806 C687.3745,131.077 613.8105,190.941 627.4305,258.462 C628.3545,267.43 636.7845,252.783 636.6285,260.062 C637.6755,269.148 626.8565,258.364 628.6895,266.655 C635.0415,300.837 668.4995,326.012 694.7565,335.896 M592.5125,286.815 C592.3055,281.044 588.7955,278.694 583.5565,278.155 C570.0395,264.809 595.2965,269.938 581.0085,247.324 C598.9275,251.986 587.0475,264.181 610.1515,259.489 C614.2815,261.155 614.3605,257.889 614.1285,254.816 C600.6775,127.398 794.7715,96.796 820.1355,223.208 C851.2605,307.797 713.9935,389.576 668.0675,328.707 C644.8335,338.988 628.1545,293.164 616.7495,276.449 C613.0235,278.885 614.9915,290.93 609.2185,284.058 C604.7755,272 603.0495,283.252 596.2155,286.827 C595.0155,286.693 593.7395,286.848 592.5125,286.815" id="Fill-352" fill="#0f0f0f"/><path d="M658.6335,397.6234 C665.9635,391.8154 656.7825,393.6184 652.0285,387.0384 C648.3065,384.6044 649.2365,394.3274 644.6115,389.6704 C637.9695,382.7484 649.4705,373.8984 646.1745,367.4754 C656.3495,366.7284 652.2715,374.5214 665.8745,372.2774 C644.1015,377.1094 683.2865,402.4684 658.6335,397.6234" id="Fill-354" fill="#00684a"/><path d="M571.4575,179.9486 C575.4935,179.4726 580.1285,180.5596 583.8675,178.9786 C586.2215,168.6996 591.0255,173.6996 592.4515,182.1776 C577.9605,186.9966 588.7955,200.0076 579.8545,208.6506 C572.9075,204.5726 580.9895,201.0666 579.9455,198.6706 C583.3665,192.5766 575.9405,193.8676 576.6865,189.1726 C577.3225,179.7706 553.1575,201.3136 571.4575,179.9486" id="Fill-356" fill="#0f0f0f"/><path d="M848.0369,355.0336 C845.2839,360.6706 840.6279,361.4166 842.7839,367.8326 C842.6389,385.3676 824.2599,359.5036 838.8989,354.4416 C842.9919,352.4256 837.0929,352.7686 835.9139,351.7726 C830.8439,344.1216 844.6729,353.3296 848.0369,355.0336" id="Fill-358" fill="#0f0f0f"/><path d="M579.855,208.6498 C582.301,202.9278 584.616,203.6938 589.219,206.9528 C573.266,204.6258 593.057,221.0118 593.621,228.3818 C585.449,235.8198 572.617,215.5398 579.855,208.6498" id="Fill-360" fill="#162b22"/><path d="M661.394,375.2728 C676.602,367.8838 668.48,391.2298 680.775,396.0788 C677.689,402.0468 672.375,399.9948 667.576,399.7358 C662.351,390.7078 677.172,391.1168 664.277,386.7428 C655.988,382.4658 670.646,379.3598 661.394,375.2728" id="Fill-362" fill="#0f0f0f"/><path d="M601.3086,311.598 C599.9966,316.295 599.3756,320.821 601.2996,325.718 C602.0496,330.443 592.2806,336.049 592.8216,327.225 C592.9196,325.646 593.2336,320.184 587.9416,322.869 C585.3086,318.808 596.5876,312.702 601.4416,311.726 C601.4366,311.726 601.3086,311.598 601.3086,311.598" id="Fill-364" fill="#0f0f0f"/><path d="M588.5283,139.1381 C586.3443,150.7291 602.5183,136.1521 595.0913,151.4851 C593.1813,157.5611 586.5983,139.4821 579.9243,141.1831 C570.7653,141.9531 579.5813,128.2371 585.8393,132.1851 C594.7353,135.5781 577.1373,134.3721 588.5283,139.1381" id="Fill-366" fill="#162b22"/><path d="M784.7668,400.2045 C772.0118,402.6075 786.6288,399.4255 784.1738,392.7025 C788.4958,390.5515 792.2938,397.6435 794.9488,391.2445 C803.4878,396.3505 790.1958,401.1635 784.7668,400.2045" id="Fill-368" fill="#162b22"/><path d="M613.5437,114.7083 C612.3997,119.9963 609.0567,122.1893 604.6427,124.5103 C605.5807,118.8923 609.4187,102.5083 613.5437,114.7083" id="Fill-370" fill="#00684a"/><path d="M600.999,375.0551 C605.731,375.1991 610.462,375.3421 615.166,375.4501 C608.217,379.1671 611.03,376.4221 608.779,383.7431 C609.645,377.5791 603.199,382.9591 602.166,379.5591 C602.044,377.8801 597.786,375.1611 600.999,375.0551" id="Fill-372" fill="#162b22"/><path d="M588.5283,139.1381 C577.0223,134.0241 596.2543,133.8161 601.0963,131.0601 C598.9183,137.7281 595.7423,140.5401 588.5283,139.1381" id="Fill-374" fill="#0f0f0f"/><path d="M693.6189,377.3871 C700.1699,382.2321 702.0779,384.0071 695.3409,389.3061 C692.2029,385.3061 692.7939,382.8851 693.6189,377.3871" id="Fill-376" fill="#0f0f0f"/><path d="M572.0022,255.3842 C573.6932,260.4142 573.3502,266.2892 568.9162,269.2712 C567.1392,264.5292 567.1172,258.5802 572.0022,255.3842" id="Fill-378" fill="#162b22"/><path d="M608.0215,245.9672 C601.7135,247.8842 598.8775,252.5322 594.2795,248.6022 C599.8175,245.6812 600.9035,241.1212 608.0215,245.9672" id="Fill-380" fill="#00684a"/><path d="M819.4968,407.8412 C815.8728,410.7402 813.9418,408.2722 811.3318,405.6822 C814.1828,402.9042 818.2448,404.3182 819.4968,407.8412" id="Fill-382" fill="#00684a"/><path d="M583.1912,151.9974 C579.6152,153.9674 577.7302,157.6374 573.9182,155.2984 C575.5132,149.8534 578.0392,151.0404 583.1912,151.9974" id="Fill-384" fill="#00684a"/><path d="M562.6985,192.7025 C564.0135,192.1815 565.3295,191.6585 566.6295,191.1445 C565.5785,194.4875 565.3045,196.0825 562.6985,192.7025" id="Fill-386" fill="#00684a"/><path d="M571.4954,187.9008 C574.2814,184.5678 578.0494,183.6998 576.6874,189.1718 C574.9604,188.7388 573.2274,188.3198 571.4954,187.9008" id="Fill-388" fill="#00684a"/><path d="M579.5903,161.0658 C577.0843,166.0388 576.6703,164.0348 574.9313,160.3228 C576.1453,158.4838 578.2963,159.2668 579.5903,161.0658" id="Fill-390" fill="#00684a"/><path d="M571.4575,179.9486 C568.3195,182.4536 568.0655,179.1696 566.7845,176.6846 C568.3425,177.7726 569.8995,178.8606 571.4575,179.9486" id="Fill-392" fill="#162b22"/><path d="M579.9429,198.6703 C580.3259,198.5113 580.5939,198.7143 580.7499,199.2433 C579.4269,199.7023 578.7309,200.2023 579.9429,198.6703" id="Fill-394" fill="#162b22"/><path d="M596.115,286.7748 C596.115,286.7748 596.216,286.8258 596.215,286.8268 C596.214,286.8278 596.115,286.7748 596.115,286.7748" id="Fill-396" fill="#00684a"/><path d="M644.7971,365.1703 L644.6351,364.7673 C644.6211,364.8083 645.0661,365.2603 644.7971,365.1703" id="Fill-398" fill="#00684a"/><path d="M759.2537,407.1947 C758.7627,402.7167 761.7277,401.8647 764.8527,402.8457 C773.6877,407.4347 765.0917,412.6217 759.2537,407.1947" id="Fill-400" fill="#00684a"/><path d="M499.9971,377.098 C504.7151,375.894 503.1901,380.91 503.9811,384.108 C498.3171,384.043 499.1421,381.316 499.9971,377.098" id="Fill-402" fill="#0f0f0f"/><path d="M576.9512,185.1849 C576.1582,185.1669 575.3652,185.1499 574.5872,185.1279 C575.3852,185.1449 576.1682,185.1639 576.9512,185.1849" id="Fill-404" fill="#162b22"/><path d="M399.145,515.768 C401.393,561.465 343.498,552.935 340.51,513.37 C343.54,475.295 399.981,475.927 399.145,515.768" id="Fill-406" fill="#0f0f0f"/><path d="M661.8635,242.2357 C678.0135,247.2287 685.5145,275.0007 701.9935,274.3217 C724.1545,254.8887 746.5275,235.1227 766.3915,213.3347 C778.2275,200.7847 785.8045,222.0347 772.7805,228.0077 C743.9545,244.2987 724.1025,287.4517 694.8225,294.6127 C684.0215,287.3707 641.1735,250.5947 661.8635,242.2357" id="Fill-408" fill="#0f0f0f"/></g></g></svg>