<svg viewBox="166.04999999999995 166.04999999999995 1143.9 1143.9" xmlns="http://www.w3.org/2000/svg" xmlns:xlink="http://www.w3.org/1999/xlink" overflow="visible" width="1143.9px" height="1143.9px"><defs><polygon id="masterspot-illustrationsgood-job-path-1" points="0.326191042 0.811 499.017929 0.811 499.017929 723.348504 0.326191042 723.348504"/></defs><g id="Master/Spot Illustrations/Good Job" stroke="none" stroke-width="1" fill="none" fill-rule="evenodd"><g id="Group-458" transform="translate(170.000000, 168.000000)"><path d="M286.926,731.0905 C289.432,728.9615 289.146,727.3065 286.224,726.6995 C283.17,728.0845 283.709,729.5375 286.926,731.0905 M464.069,1052.1675 C464.851,1047.1275 468.257,1044.3565 463.105,1042.4915 C460.57,1046.5815 460.555,1047.6305 464.069,1052.1675 M640.587,905.0335 C636.273,909.0565 635.576,910.2255 639.798,913.7865 C644.303,910.8535 644.764,909.8045 640.587,905.0335 M211.071,793.6945 C213.044,789.9745 221.22,785.1215 215.663,783.0255 C212.415,786.9435 203.498,789.3045 211.071,793.6945 M343.301,717.3455 C339.761,712.3405 336.173,716.2955 333.24,718.8605 C333.7,728.0685 338.552,722.1835 343.301,717.3455 M400.962,811.1865 C396.43,807.6725 393.018,805.0105 390.411,809.9235 C391.928,817.8425 395.127,814.6265 400.962,811.1865 M290.494,1023.7325 C279.17,1025.9085 288.572,1030.8405 295.001,1033.1915 C308.156,1028.8905 302.903,1023.8355 290.494,1023.7325 M476.642,970.8805 C477.563,954.2365 462.171,976.4085 464.299,983.1245 C471.815,985.9125 477.093,980.8365 476.642,970.8805 M249.852,785.1625 C246.355,766.2235 239.267,774.5285 233.584,786.7385 C228.968,796.3135 248.637,790.5685 249.852,785.1625 M508.519,1000.9795 C494.415,999.9305 485.113,991.8705 483.843,1010.2115 C480.963,1027.1725 500.563,1005.9315 508.519,1000.9795 M158.541,782.4745 C154.996,797.1305 157.618,821.6545 174.566,799.2635 C185.128,791.0935 162.946,788.4325 158.541,782.4745 M248.512,1014.7155 C242.705,1004.0435 222.513,980.6965 219.401,1004.9045 C217.264,1017.5735 240.522,1011.5625 248.512,1014.7155 M456.776,1016.3585 C460.235,1047.0635 465.893,1023.2655 474.754,1013.6925 C481.372,988.8675 456.772,996.4855 456.776,1016.3585 M442.864,925.2905 C425.612,931.2015 401.747,940.2915 391.223,954.8305 C410.74,970.6165 427.808,935.4695 442.864,925.2905 M487.226,970.5895 C505.93,960.1935 548.93,912.4215 500.749,939.3755 C488.261,943.9025 484.986,958.7325 487.226,970.5895 M274.634,1033.8525 C272.012,1042.1875 268.927,1092.0755 278.497,1085.6395 C284.58,1066.1915 306.073,1040.2635 274.634,1033.8525 M488.744,818.7985 C489.073,812.2995 488.918,801.8775 479.948,806.8445 C461.51,815.6985 441.206,814.8405 421.92,819.7305 C434.408,826.7185 494.138,846.7995 488.744,818.7985 M546.317,922.5535 C528.893,943.4325 511.598,969.7845 487.839,987.3915 C512.99,1002.0535 529.366,984.2905 545.49,966.2005 C548.182,963.6215 547.802,961.4645 546.59,958.2905 C540.182,946.4455 545.229,935.0425 546.317,922.5535 M262.671,987.9575 C264.333,977.0585 296.986,887.9565 278.012,905.9815 C255.327,937.5235 210.822,961.4235 262.671,987.9575 M476.774,941.7075 C472.353,880.3405 441.988,948.6515 419.789,961.9125 C410.41,973.1235 439.528,973.7315 446.114,978.2445 C448.502,978.9955 458.583,973.3925 458.493,971.1855 C458.731,958.2085 471.489,951.7865 476.774,941.7075 M187.122,907.0285 C187.795,872.7075 192.562,833.8205 206.842,801.0055 C189.869,791.8355 177.868,815.9085 165.976,824.6495 C159.736,850.8255 177.979,882.0245 187.122,907.0285 M357.371,1016.4135 C367.081,1019.7735 462.069,1003.7005 441.107,986.7515 C428.543,984.0145 414.809,973.1675 402.196,977.0305 C389.104,991.9705 297.149,1021.0765 357.371,1016.4135 M483.297,851.4975 C466.873,840.9355 443.303,848.6665 425.651,838.2865 C407.388,830.0285 390.043,819.6255 371.574,811.8715 C356.734,795.3055 312.968,864.5855 328.359,859.0805 C464.385,799.6095 459.028,930.5965 483.297,851.4975 M202.147,881.8265 C219.466,995.2375 231.504,929.0995 285.475,885.2475 C288.194,882.8755 289.401,880.9545 287.157,877.7785 C272.223,856.6445 262.946,832.9635 255.618,808.3435 C252.917,799.2695 252.514,799.3535 242.453,800.3855 C204.539,800.2715 209.344,853.7935 202.147,881.8265 M212.617,976.7405 C189.043,937.1065 166.109,895.8395 155.748,849.9825 C145.871,826.5825 101.182,929.0365 109.886,940.5835 C129.092,973.5865 162.248,992.0915 196.96,1005.2825 C208.25,1004.2525 206.924,985.9525 212.617,976.7405 M391.105,851.9905 C294.113,866.1855 289.704,888.0205 369.127,943.2235 C393.275,949.2785 421.682,917.0285 447.724,911.9305 C488.77,886.6875 417.37,847.7705 391.105,851.9905 M300.377,782.4125 C290.452,785.8905 266.146,789.5815 266.813,801.5085 C273.826,825.7775 284.002,851.8745 298.414,871.7135 C345.782,789.7645 359.768,817.3375 300.377,782.4125 M444.036,1038.6975 C455.665,1042.6155 440.991,1027.4635 442.732,1022.1075 C441.429,1013.4025 441.664,1013.8975 433.424,1016.5645 C397.215,1031.0125 359.383,1036.7075 320.655,1030.5375 C274.761,1055.9445 423.614,1062.6325 444.036,1038.6975 M352.454,786.6705 C373.525,776.6145 393.979,754.9195 417.268,741.1755 C395.117,735.2805 363.853,729.9555 342.741,739.4815 C336.814,754.7415 365.073,767.3555 344.106,774.5725 C334.789,764.3625 331.816,749.4185 318.362,765.2795 C301.766,779.5065 344.276,790.8135 352.454,786.6705 M360.982,972.5595 C359.427,966.6415 369.461,955.8685 361.203,951.3935 C341.607,939.2395 324.334,924.5195 309.134,907.2335 C292.759,892.7835 282.559,979.6955 277.409,993.0595 C281.818,1003.6395 307.93,1013.2905 317.626,1004.4695 C330.88,993.6765 350.347,957.7655 360.868,972.6985 C321.267,1014.7095 371.049,981.7465 391.326,972.0795 C394.481,967.4825 383.37,965.1795 380.256,963.1535 C374.288,964.8055 367.198,970.1045 360.982,972.5595 M284.454,735.7855 C277.303,731.3715 287.228,741.4815 298.715,736.4755 C313.832,750.8575 271.935,746.1115 269.349,761.6145 C267.033,757.0415 263.62,758.3315 260.021,759.7195 C254.505,761.6735 260.072,789.7435 267.846,783.6195 C272.474,781.8075 277.038,779.8385 281.629,777.9375 C283.313,776.1215 285.08,782.7145 288.002,777.0585 C294.12,768.5935 305.857,762.6415 313.552,754.9225 C321.09,751.8735 322.797,761.1835 321.47,747.4595 C323.238,739.0165 323.278,738.9985 315.292,740.8585 C304.12,745.4435 304.382,730.8315 315.782,731.9565 C320.623,731.0375 321.283,727.5345 320.628,723.7395 C314.729,715.7865 293.684,733.6925 284.454,735.7855 M445.357,1109.3765 C427.171,1116.0195 466.504,1074.3635 448.979,1056.1145 C436.01,1046.6065 402.631,1070.6935 382.487,1066.1625 C357.224,1067.4055 335.021,1062.7525 310.662,1053.1535 C290.69,1056.4385 293.366,1099.7345 284.28,1116.6245 C256.609,1112.9885 262.936,1086.4685 260.308,1064.8315 C256.932,1054.1865 266.863,1031.9825 254.789,1027.8165 C243.217,1030.5805 218.34,1018.2755 214.408,1032.2635 C211.68,1048.6645 220.587,1086.4285 195.068,1064.2285 C196.455,1028.4235 205.584,1020.6565 166.151,1009.6235 C134.03,1003.8095 96.465,928.0115 104.481,997.7745 C96.557,996.9885 91.706,991.6465 87.043,986.0205 C98.663,918.5615 41.272,865.0405 84.549,798.7015 C81.411,837.4955 81.851,876.2145 96.015,913.4335 C104.6,893.1925 112.288,873.1375 125.268,855.2315 C127.832,847.2385 133.594,850.7785 135.314,845.6205 C135.981,833.2625 152.207,827.9285 148.056,814.3775 C143.337,800.8215 149.837,782.2785 137.664,772.3895 C126.375,767.0225 92.15,733.4255 118.07,742.9395 C167.917,801.4115 123.651,673.2525 171.298,650.6115 C162.757,689.6395 148.655,738.1805 160.755,775.4855 C187.313,796.2755 206.996,775.0175 230.942,761.4765 C259.043,747.2515 229.593,727.2335 219.301,711.6875 C203.946,689.5695 191.137,665.8865 179.155,641.8065 C189.61,605.8795 218.61,704.7305 237.31,708.9365 C241.481,690.3465 238.618,670.2215 240.764,651.1265 C243.01,639.3335 239.633,621.6075 256.318,625.1935 C257.878,654.4715 233.606,719.9125 264.389,734.7735 C260.559,737.2385 249.649,749.3015 259.875,746.2205 C260.104,737.6935 268.766,742.5295 271.808,736.1155 C258.364,727.5195 291.724,722.0475 298.167,717.6475 C302.734,708.2305 314.847,713.9565 323.128,709.4675 C319.72,700.8825 317.737,693.7715 323.166,686.3275 C336.897,688.5395 324.901,704.0955 340.613,700.4445 C343.397,700.2185 346.278,698.4595 348.262,702.2945 C351.345,706.4855 355.036,701.1225 354.552,698.8065 C350.219,689.1665 357.031,678.4965 356.496,668.1465 L356.448,668.2445 C360.094,658.6765 360.394,645.9195 354.787,637.8465 C355.488,620.4385 402.335,597.7915 380.454,626.2315 C365.281,627.0245 370.411,638.3175 371.839,648.8665 C371.865,664.3125 368.155,679.2405 365.762,694.4095 C375.747,697.6325 364.655,701.2325 371.588,703.4035 C375.099,703.6955 379.602,702.2725 378.351,696.5485 C399.092,691.1225 421.818,697.7095 442.47,702.1145 C451.958,725.5535 387.42,699.8375 374.062,709.0375 C365.821,708.3165 347.429,716.4695 355.448,725.8585 C376.04,724.3525 396.243,723.7435 416.359,729.7265 C437.755,741.3715 449.333,717.9365 446.466,750.1815 C430.094,738.8025 417.786,761.1245 402.755,766.2715 C328.686,810.4075 447.032,807.1915 476.373,794.2985 C517.555,814.0685 486.227,827.8725 505.237,830.0135 C519.068,825.7835 531.06,821.6295 544.226,830.0785 C529.056,844.6115 498.78,835.8815 490.941,856.1855 C477.474,885.3795 473.108,898.4195 484.181,929.4985 C487.388,946.0955 509.399,921.1925 519.855,922.8515 C532.901,920.5645 540.465,913.8245 545.304,902.4935 C553.213,891.3365 539.668,896.6815 540.528,888.3995 C566.457,895.9475 557.47,830.1615 575.025,846.5785 C576.718,863.2025 561.558,874.3185 563.678,888.8095 C538.583,926.9465 565.698,907.6745 589.813,899.1065 C643.487,874.7115 615.135,876.1235 670.972,887.6795 C701.498,888.0485 722.243,885.7015 696.28,916.8355 C672.214,964.5585 598.794,930.0785 579.344,984.3615 C571.854,998.9845 557.762,960.8305 547.553,975.6685 C544.529,981.9235 526.977,992.1045 538.158,995.7865 C544.562,995.8375 551.842,997.0025 556.468,999.1295 C565.221,988.4565 579.83,1006.0055 584.206,992.8005 C598.352,954.2245 640.394,960.8125 672.839,951.7665 C722.672,924.7475 699.144,881.3545 773.817,890.3645 C806.225,889.9365 839.153,891.2645 870.063,886.0245 C858.061,900.2065 846.257,911.7655 823.376,912.4235 C794.872,910.7975 784.97,937.5635 767.873,924.1605 C749.185,1009.2215 640.751,973.8905 613.078,1060.2045 C596.272,1049.1615 602.308,1024.5075 584.618,1013.8855 C585.385,1005.2545 579.397,1005.7925 573.889,1005.5775 C511.226,999.6425 531.889,1005.9425 484.607,1026.2335 C477.78,1041.2985 467.441,1059.1125 472.69,1075.8985 C490.674,1096.4095 476.063,1111.6715 464.757,1093.7325 C456.304,1081.8825 455.717,1110.3805 445.357,1109.3765" id="Fill-1" fill="#00684a"/><path d="M653.2996,694.0324 C649.7806,690.3204 648.8206,689.7924 645.0326,692.2714 C647.5396,696.2634 648.4156,696.8884 653.2996,694.0324 M512.4836,766.2494 C552.8736,736.8604 591.9946,704.8854 638.3156,685.1184 C642.9756,683.6834 647.9716,679.7734 648.5096,674.9684 C648.8036,654.7574 643.5586,635.4784 642.4946,615.4104 C643.6646,594.6844 619.9366,615.1244 610.4646,617.3744 C573.6366,628.3564 527.6276,734.3004 512.4836,766.2494 M620.5086,580.5304 C602.0686,566.8824 614.1896,601.1924 625.8306,586.4474 C636.9116,583.8884 642.1336,579.2824 638.5866,566.4694 C639.3356,552.7364 624.5896,576.3024 620.5086,580.5304 M500.3646,810.0154 C451.8346,794.8064 492.5146,754.0094 503.0596,723.7194 C518.1946,698.1764 533.3276,667.9534 548.5706,644.5964 C528.2066,648.7004 426.4806,688.6704 460.1946,647.8844 C509.0626,637.0294 569.1556,626.3474 594.7386,577.7234 C614.3666,545.8854 646.1526,522.8044 638.3456,481.7804 C639.6916,416.4114 662.5616,431.7564 596.7196,430.0654 C623.9406,424.5914 648.0396,421.3404 677.5096,423.2694 C667.2546,425.0194 666.8216,425.6114 666.7156,435.7984 C654.3756,518.1554 685.3566,455.8444 716.9146,426.8964 C722.7016,421.0444 714.7526,423.5894 712.7906,419.0784 C769.9666,421.5914 733.9546,438.0504 711.8086,465.8304 C697.1646,485.5524 674.5966,502.6954 666.0916,525.5844 C665.9586,559.7034 661.1996,571.6934 696.7886,548.4164 C734.3366,524.6964 770.5176,499.0114 806.0936,472.4494 C815.2416,461.4104 778.6356,440.6204 772.3956,428.7874 C804.3986,433.8784 828.8956,467.1694 834.2786,498.5114 C821.8286,477.9414 806.5386,507.6194 791.7886,513.5674 C754.3486,536.5294 719.7776,565.7494 679.2556,584.2584 C659.2446,598.3984 681.6256,628.6494 679.3776,648.8544 C677.3856,660.3614 698.3056,679.7584 696.3666,661.3074 C717.5516,639.8984 767.3046,632.4944 799.6606,621.3984 C823.8046,616.5244 866.2526,595.3294 860.0536,636.2264 C833.6176,633.9464 682.7786,669.5684 687.9466,696.4024 C693.3196,703.1684 690.1646,718.7284 690.2146,720.6414 C706.8146,736.9414 698.7966,770.3804 712.5646,791.2474 C713.6046,808.2834 725.5356,822.2254 725.1686,839.4354 C725.0516,840.2224 727.7516,842.1954 729.1726,842.2254 C777.8226,819.6874 823.4796,767.8124 857.6766,738.2494 C856.3176,732.6404 862.7826,727.5854 864.8046,722.3324 C872.0126,721.5604 872.0126,721.5604 869.5776,713.9014 C871.8566,709.3824 874.1346,704.8634 876.4136,700.3444 C892.4236,731.0934 875.6236,754.6414 853.7196,778.2054 C822.0526,813.4664 784.2626,842.0354 743.5756,866.1044 C728.9686,880.8454 760.4166,896.9764 723.3776,892.1194 C698.7006,886.1984 606.3166,892.3934 675.8076,868.9294 C694.5556,861.8374 694.6746,861.8184 688.2306,842.1704 C670.2686,814.1674 669.4136,715.8354 646.2896,707.7004 C591.1956,731.0054 545.9786,781.0894 500.3646,810.0154" id="Fill-3" fill="#00684a"/><g id="Group-7" transform="translate(274.000000, 0.190000)"><mask id="masterspot-illustrationsgood-job-mask-2" fill="#fff"><use xlink:href="#masterspot-illustrationsgood-job-path-1"/></mask><g id="Clip-6"/><path d="M267.5159,299.8561 C268.2999,299.3831 268.3199,299.0581 267.5989,298.4931 C266.8189,298.9661 266.7969,299.2921 267.5159,299.8561 M256.3699,310.6161 C256.4159,310.4791 253.1769,309.7961 253.3949,311.4861 C255.2719,314.2321 255.3649,316.0041 256.3699,310.6161 M37.3499,688.5821 C36.6689,681.9681 28.8839,690.9541 32.9289,693.6461 C34.4389,691.9171 35.9479,690.1881 37.3499,688.5821 M42.2239,674.2441 C37.7499,680.9351 38.9519,681.6541 43.0599,686.3621 C49.2799,682.5681 44.9499,680.3961 42.2239,674.2441 M21.1899,681.4051 C22.8739,688.1921 25.7519,683.5261 29.7829,681.4581 C25.5909,675.7701 24.0729,673.7781 21.1899,681.4051 M50.7149,659.1551 C52.3399,664.7811 54.8409,666.1931 57.1379,660.8071 C56.0169,656.1151 53.9179,653.5651 50.7149,659.1551 M68.2379,663.3931 C73.9709,658.6301 74.5689,644.2711 65.5279,651.1081 C66.0219,654.9451 64.2589,661.4401 68.2379,663.3931 M209.7539,353.6901 C210.0749,349.7151 209.4759,347.6531 212.9399,347.9041 C218.5249,356.2541 217.3479,338.0021 211.7519,341.5271 C208.3969,344.9461 205.5029,348.3931 209.7539,353.6901 M418.6799,183.1281 C416.4019,219.5661 451.8479,189.7401 453.9309,170.7791 C458.6739,161.3671 456.2539,130.4771 441.8099,147.4701 C435.2239,159.4771 419.8019,169.5591 418.6799,183.1281 M431.9289,120.4971 C427.2799,104.0601 402.7919,107.5211 398.2029,122.0631 C396.0779,139.4471 375.5009,150.6321 379.9839,168.2631 C397.5929,184.8891 430.9959,139.6081 431.9289,120.4971 M395.0979,90.2131 C393.0259,87.1031 391.5789,68.9141 385.6599,77.8061 C372.2539,78.3351 372.1729,73.5081 358.6789,85.4421 C321.3629,119.3021 340.8649,178.9281 362.3869,144.8571 C376.6879,128.2461 391.8419,113.8931 395.0979,90.2131 M68.5669,630.0631 C60.2559,626.9471 40.7719,626.8091 50.8029,639.9801 C52.7919,641.8091 57.9119,642.0091 55.3279,647.1171 C53.9599,650.9491 58.6459,652.6151 60.7539,650.3981 C63.8339,644.4281 52.3949,640.3331 55.8719,634.4611 C61.2569,630.6631 63.2459,641.4891 67.0009,644.0701 C75.1349,646.1141 75.1349,646.1141 73.7439,637.9111 C74.1449,634.3941 68.2159,628.1571 68.5669,630.0631 M294.3839,193.9001 C300.6609,190.6721 292.4229,188.0681 291.9899,182.8611 C292.5279,187.7771 290.8079,194.0731 287.5349,186.7831 C281.5039,192.5651 280.5999,201.9351 277.1139,209.3551 C276.2409,219.2721 285.8069,202.2671 284.3809,211.1211 C289.4779,222.7581 276.2179,216.2061 271.3869,223.2801 C267.6909,234.3151 252.3749,246.6261 260.1309,255.5471 C264.2259,252.0211 278.1459,230.7011 279.8329,242.9641 C278.9469,244.7451 277.2139,247.0671 275.5529,247.3231 C270.3899,248.2671 268.4009,258.3791 272.1409,258.3641 C267.6019,259.8321 264.5369,262.3601 265.4109,267.7241 C261.8019,267.4991 256.0949,270.9391 256.9329,262.7761 C256.9849,262.2731 254.1849,260.6561 253.2909,261.0131 C240.7679,263.1501 254.0039,282.9801 241.9879,283.6731 C234.5489,286.5811 238.3319,291.3671 241.8409,296.5611 C230.7209,298.9941 241.6149,305.1601 242.2779,313.1981 C239.6279,279.3781 245.1159,302.6791 259.8049,307.7411 C256.3499,268.3741 286.2909,289.3741 278.0629,266.6291 C286.1009,266.5301 288.1939,274.1231 295.8599,275.3491 C295.6769,270.2661 297.6089,265.0591 300.6289,261.4911 C299.0569,254.7171 296.9439,251.0181 305.6909,250.8171 C303.2629,246.4221 297.4069,247.5561 297.1489,242.3641 C300.4999,231.4241 303.4729,216.2721 301.7839,206.3011 C300.5119,204.6741 299.6769,205.4271 299.7229,207.2471 C301.2129,214.1961 273.6889,213.6341 294.3839,193.9001 M313.1489,237.3191 L312.7649,237.2051 C298.5219,238.3331 313.1759,252.4901 324.4479,255.5251 C325.7929,247.2461 317.4949,243.1641 313.1489,237.3191 M352.9139,421.5591 C295.1219,466.4311 404.5099,260.4871 408.9739,237.5501 C420.8569,220.7861 398.9639,214.1341 399.5139,196.9531 C397.4899,185.7911 364.6879,206.9431 363.0159,175.7141 C363.5509,165.1801 352.1859,173.1631 346.2699,168.7731 C334.6299,160.2571 334.9819,179.9381 327.6889,165.9201 C327.4289,159.7381 331.8049,154.1821 325.6099,149.0481 C325.7469,140.3291 327.1569,131.6281 318.5309,124.9961 C309.8359,122.3771 312.7219,100.9801 303.3139,108.1681 C297.9789,109.7351 296.8919,103.7431 300.5199,100.6771 C302.4599,99.4221 306.5889,100.2331 305.0809,96.4071 C303.9499,93.8521 298.4309,91.2831 296.0009,90.1021 C298.2459,84.6011 293.5629,81.0001 290.9269,78.8241 C282.6639,70.3061 284.3919,58.5441 282.3119,47.9011 C298.3249,49.2961 295.9159,67.9051 303.4499,77.2631 C306.6509,53.6041 294.0079,37.1791 271.1419,53.6501 C269.5749,46.6441 277.6159,44.2021 279.7829,38.8491 C281.3399,35.2231 281.4659,32.8931 285.5619,36.3831 C289.6459,38.9681 291.3669,34.9841 289.4189,31.6461 C284.5989,22.6331 273.9169,26.3271 268.7399,18.9591 C264.1749,14.9041 265.1009,18.2501 264.3699,20.7741 C259.3529,30.1531 282.8139,37.5631 271.0149,42.5431 C237.1159,17.4961 281.6079,101.3811 277.7369,115.9971 C282.8509,112.0931 279.4749,125.9581 287.9569,118.3071 C292.5049,117.2631 292.1289,112.7511 297.3509,111.6961 C298.5509,118.6941 310.7149,115.8991 309.5969,125.9751 C310.0839,131.4901 321.3529,134.4041 313.1619,140.0011 C320.7969,170.2101 299.4849,153.5071 305.0179,132.8191 C304.8669,130.9481 306.0189,127.5581 301.8149,128.9941 C287.1069,132.8391 309.8479,156.3291 300.2229,162.0751 C301.2229,171.6431 302.9249,172.3411 293.1839,165.2271 C291.4169,170.7351 295.6419,178.0121 298.7889,181.9561 C302.4789,181.1751 305.4559,179.7891 302.6639,175.5111 C298.0909,168.5071 313.6319,157.7941 316.7069,169.5271 C324.9879,166.4411 321.7699,175.7871 323.8139,179.6131 C318.4189,179.0431 316.0709,169.9311 310.2399,176.9191 C308.0139,179.8501 304.3329,182.1571 305.9159,185.8751 C309.4169,195.1671 314.9529,199.8181 324.6859,194.0941 C326.9699,193.3961 331.7189,194.1131 328.0829,189.1961 C340.1629,178.9241 336.5569,201.7801 336.3949,208.5151 C332.9989,225.6081 323.1259,207.7041 322.2759,217.3351 C321.7239,222.0491 313.2679,217.8591 314.7849,223.7061 C315.3939,225.9971 317.0339,229.5151 318.6099,229.7481 C325.4459,233.4951 324.7679,244.9251 327.3249,251.8951 C329.1109,264.2481 311.9739,255.2341 306.7259,268.6291 C302.0659,263.1171 301.9699,269.8591 301.7909,271.0361 C301.2809,274.4081 297.3359,278.7111 303.3029,281.1861 C302.8529,282.1441 302.3669,283.9511 301.9589,283.9331 C290.9839,283.1271 291.8109,302.8511 279.7909,296.2721 C278.7819,295.5571 275.9539,297.4131 273.9659,298.0821 C273.1399,296.2531 272.0999,293.7601 270.7599,296.3411 C275.1619,309.1381 256.2909,310.0881 256.2739,323.9701 L256.3789,323.8211 C250.7199,339.0551 250.7719,331.9111 239.9739,327.8251 C237.7049,325.3641 236.4469,319.5211 232.6199,321.9991 C224.3059,327.3821 229.6519,318.2981 227.3779,317.7321 C220.2259,317.1231 211.9769,332.8661 222.1529,333.0241 C223.0019,333.1111 224.5629,335.7671 224.2389,336.3111 C220.2769,342.9571 226.3419,342.6411 229.5579,344.2921 C234.2079,348.0411 237.8599,353.3581 244.5589,353.9161 C242.8129,364.5521 250.8699,374.4881 243.6289,369.5361 C241.3909,367.5301 240.2649,369.0391 240.8589,371.4661 C245.2419,377.7221 239.9029,378.5051 236.1259,379.6951 C223.8749,382.5411 230.4059,386.0871 231.0469,395.1151 C228.2679,393.6451 223.7219,396.5611 222.3509,391.6041 C223.0859,389.7151 223.8489,388.4061 221.0739,389.5731 C219.6629,387.4031 220.1779,382.9791 215.6689,384.4501 C212.1219,386.4491 210.8159,395.1211 208.8039,387.1801 C210.0449,383.8561 210.6649,381.0601 207.0599,378.9381 C215.6199,353.0751 214.8139,401.8771 228.2039,366.5471 C223.2169,356.5931 202.9149,350.5381 202.6399,367.2151 C196.5469,373.3351 188.6889,376.4101 186.3789,385.9491 C180.2079,393.4731 192.3289,391.0181 190.4999,399.2801 C182.1629,414.7741 183.4069,423.0891 172.5769,433.9751 C171.1329,429.8311 169.7059,425.8941 164.8669,424.9491 C164.6639,424.8691 163.8629,426.3071 163.3389,427.0421 C168.2959,429.3631 161.3649,437.2501 168.6769,438.5721 C169.7399,441.1931 167.0799,441.5781 165.0559,442.1161 C169.3339,444.2021 171.7509,448.2581 173.5579,452.4991 C166.6689,457.1731 165.5139,451.3911 163.4419,446.5951 C156.8109,457.7131 166.6199,468.6691 155.5649,478.0761 C144.3469,471.2721 161.6859,473.4121 156.3349,460.6841 C146.6429,442.1891 140.6729,482.5941 132.0489,488.2071 C129.3809,490.6061 130.0299,492.1441 134.2859,494.0541 C135.7439,505.4171 141.5989,503.8791 149.5729,498.7711 C148.6839,508.4321 136.7759,513.8291 150.5029,520.8021 C148.0339,519.7331 143.3339,522.0991 144.2729,526.6771 C136.8659,535.4061 139.8149,513.7271 139.3579,509.1091 C138.8469,504.9281 133.2139,508.2761 127.6919,501.0441 C118.7499,498.3751 108.8419,531.1501 101.8309,538.1601 C97.2219,550.8241 79.6069,560.6611 95.0149,571.8801 C90.9809,575.9711 83.5459,570.3991 80.0639,575.0811 C76.5409,587.6311 67.1549,596.9691 61.9709,608.5741 C64.9129,623.2451 78.1419,588.4361 86.5619,607.2821 C87.8089,597.8611 78.9579,583.1951 92.8579,580.4811 C94.7209,579.8081 95.3179,573.2831 96.8999,571.9991 C106.2659,568.4051 98.0369,559.1321 102.5179,552.1091 C119.3309,570.8041 106.1149,548.5511 123.1619,551.1491 C122.6109,564.4321 103.6669,574.2131 110.3239,585.1151 C109.8659,587.8081 99.3779,586.0331 98.3379,589.8761 C100.8229,594.3341 99.7399,596.8371 94.9679,598.6631 C92.3549,604.1341 88.8479,611.6841 87.3589,618.0141 C79.3669,614.0341 71.0889,614.7001 78.4989,624.0071 C84.2809,629.7631 82.3259,620.7741 84.9729,620.1971 C89.6819,627.2621 75.8079,635.2591 83.5429,641.3371 C76.8049,645.9921 73.8289,652.9481 78.0879,656.8311 C85.0369,662.5651 81.9609,678.0711 71.8099,670.1691 C65.7589,666.9321 61.1889,675.0891 54.4309,668.6401 C46.7139,668.8301 46.9769,677.9791 54.4809,672.7621 C56.8409,672.9791 58.6569,673.3851 55.9949,676.0161 C50.8399,680.5531 50.1419,682.1621 57.3579,684.0181 C60.9959,685.9001 59.3899,684.3341 59.4269,682.0221 C59.9499,678.6871 61.9079,670.8041 65.5029,675.4531 C61.4679,703.7301 44.6859,674.1771 45.7319,698.5251 C51.9809,708.8501 45.7119,712.1421 35.3379,711.9911 C22.4209,712.4821 22.8529,723.4251 3.5339,723.348504 C-2.7741,720.8171 1.9129,718.6741 3.3869,715.7321 C8.5689,704.3831 13.4219,719.6421 17.9669,714.8801 C23.1559,707.9211 14.7169,701.4161 13.2199,695.3711 C12.4749,687.0421 7.7219,688.9591 1.4739,691.0911 C20.8589,668.0031 29.1989,645.5681 39.5459,617.7981 C42.4619,612.6921 71.3009,576.2011 56.0819,582.2131 C139.8259,459.0301 207.7439,319.6301 270.7949,184.0801 C297.9319,128.5851 224.2629,70.0371 250.3519,12.5561 C293.6209,-29.1539 319.6069,51.1591 326.6729,83.3471 C336.1629,103.4941 357.7669,53.8391 377.8619,60.9551 C394.2599,64.4511 411.1209,78.3951 407.2699,97.0151 C407.7419,99.1761 408.1879,100.0711 411.0489,98.2711 C430.2469,86.6431 448.5129,101.1451 450.9649,120.3731 C475.7819,125.2201 482.8159,149.5471 476.6229,172.1201 C475.5429,177.5611 479.2349,179.4091 481.7239,179.9431 C511.2879,188.9311 498.3579,225.3851 477.0949,236.2761 C468.2289,246.8691 436.4289,228.8611 454.8689,224.6571 C467.4759,227.3871 476.8139,220.5391 481.9869,209.9611 C488.2139,201.9901 475.5869,184.4691 468.0349,195.4261 C459.0829,211.8971 445.3789,223.7701 425.9329,224.8321 C421.7599,225.5911 420.8109,225.0471 423.1149,229.5731 C426.0429,249.9201 411.8349,270.6051 406.8689,290.3121 C387.2279,332.7311 378.4129,383.2851 352.9139,421.5591" id="Fill-5" fill="#0f0f0f" mask="url(#masterspot-illustrationsgood-job-mask-2)"/></g><path d="M844.7219,945.7189 C848.8209,939.5489 835.5509,936.9189 834.7299,944.1519 C835.6559,950.1109 840.8709,949.9189 844.7219,945.7189 M881.9439,936.9239 C888.9749,941.2589 891.1789,944.4779 896.0329,937.3239 C890.1909,933.2069 888.9099,930.0929 881.9439,936.9239 M658.6749,1126.8719 C597.2399,1093.4189 618.7379,1029.7979 677.9459,1009.1629 C703.3379,1001.4249 730.4399,996.5399 748.6119,975.1919 C771.5969,950.9999 794.6179,922.7739 831.2239,924.0219 C878.4369,921.3359 890.0679,853.0959 941.5789,858.3219 C964.4449,858.5429 979.9449,845.9549 990.5539,826.5109 C1009.3739,790.1119 1060.3949,809.7449 1078.7179,772.5739 C1134.5439,700.7079 1139.2559,801.0049 1116.4359,835.1239 C1088.8129,866.8509 1037.1549,842.5339 1015.2939,883.5979 C995.7549,911.5299 953.5909,893.9609 933.1639,924.0649 C888.3629,980.3339 835.8149,942.5979 792.2409,1018.5949 C756.1389,1070.0899 670.3879,1051.4159 658.6749,1126.8719" id="Fill-8" fill="#00684a"/><path d="M153.3621,385.6774 C140.6301,392.5054 96.0431,387.0944 101.3671,401.7374 C127.9311,424.1804 151.7001,449.5314 177.7521,472.1094 C172.6011,443.6704 162.9191,413.1484 153.3621,385.6774 M268.7081,422.5184 C228.5571,337.3094 264.6191,323.9664 174.9631,377.4574 C168.7901,380.2514 174.3871,386.9034 178.4871,384.9644 C201.8111,379.3964 243.5321,421.2104 268.7081,422.5184 M378.6961,308.9694 C364.2471,304.8114 329.4461,306.5064 328.7221,286.8584 C339.8941,276.2884 387.6541,311.3644 385.4901,278.4564 C383.0841,268.1504 380.3181,257.2044 377.4791,247.1694 C364.0961,239.1934 368.9441,203.7794 350.9351,226.8444 C344.2401,248.6414 300.9831,270.6144 308.8491,291.4094 C316.6001,309.4164 395.3081,380.9354 347.1961,382.2544 C325.4811,368.5104 276.1681,359.5404 265.8211,338.8414 C282.2461,331.0084 306.4501,353.1844 324.7171,356.6144 C338.1511,354.7844 293.8131,314.9114 289.6881,302.3104 C283.1991,295.5964 271.8311,319.7724 261.5351,321.1364 C246.5811,332.9804 293.0931,401.3024 295.6991,424.4704 C306.7721,463.7634 271.5141,457.5954 250.7961,438.9114 C247.5621,437.0344 249.1031,436.1704 250.3511,433.8154 C255.0611,426.0524 245.7441,419.3674 241.7011,428.0314 C240.4351,431.2304 239.9931,432.1574 236.4491,429.7924 C223.3981,424.6224 185.3081,389.1704 177.9291,396.8534 C266.9221,619.4874 156.2661,485.0594 78.1831,399.4274 C-5.8089,358.5534 139.6271,407.0734 218.8171,325.2804 C270.1851,292.2424 310.6181,244.3914 348.5651,197.1634 C370.0371,155.1344 400.1611,135.6294 370.9901,197.6144 C368.4731,202.3214 366.7571,205.8054 373.7411,207.6764 C398.7401,229.0274 436.6501,307.0374 378.6961,308.9694" id="Fill-10" fill="#0f0f0f"/><path d="M883.7375,1017.6476 C881.4985,1015.9616 878.4085,1011.4736 878.6035,1016.1436 C880.2115,1017.8416 881.5225,1020.6306 883.7375,1017.6476 M1115.1235,851.6166 C1100.9185,945.5236 1083.0015,891.6956 1036.3375,941.2616 C1022.1065,958.2416 993.3655,953.3396 982.0515,974.3366 C961.4555,1014.9416 909.0705,994.0796 883.4735,1028.5036 C869.3235,1052.6636 846.5915,1062.9226 820.8245,1070.5946 C787.0715,1080.3756 788.8965,1113.7086 771.2465,1130.1216 C745.3535,1130.1896 677.2475,1153.7416 670.2335,1124.6636 C676.6905,1100.3346 691.5595,1083.6456 715.3935,1075.4336 C798.6865,1069.6496 805.0705,977.1656 881.9805,971.4536 C925.4325,971.4066 938.9545,909.6586 984.6465,914.0986 C999.7445,914.3626 1012.2045,908.7146 1020.5695,896.2366 C1040.6255,855.3146 1088.0055,880.9376 1115.1235,851.6166" id="Fill-12" fill="#00684a"/><path d="M690.3796,720.2311 C686.2686,670.4831 685.0606,689.6521 729.2276,668.7441 C772.3526,656.1001 866.4576,603.8871 870.4836,666.4391 C895.4616,735.1021 781.7556,809.7761 729.1756,842.2301 C727.7516,842.1951 725.0516,840.2231 725.1646,839.4361 C725.5246,822.2341 713.6086,808.2841 712.5626,791.2501 C698.8896,770.0511 706.5606,737.4511 690.3796,720.2311" id="Fill-14" fill="#144936"/><path d="M828.4602,396.3889 C851.4472,384.5559 873.9812,371.7489 897.0482,360.1259 C916.3002,353.3409 886.5282,340.1639 883.8022,330.0719 C876.1962,317.7319 869.9132,304.5779 862.8382,291.3139 C850.5502,324.0239 832.3392,367.8799 828.4602,396.3889 M1005.9782,425.8839 C999.6452,422.2459 991.9552,413.3419 985.1192,420.9289 C965.4652,446.5119 940.5572,467.9929 915.9172,486.8159 C861.6212,508.9229 961.3642,422.5319 970.9132,415.4579 C976.3672,410.5539 976.6512,409.5399 970.4812,406.6809 C902.1132,361.1989 934.7502,367.3489 905.4852,451.9649 C903.1872,467.5639 886.9812,533.5719 874.6012,488.6069 C869.1082,470.0799 918.8852,366.8809 890.6842,385.0509 C887.6642,369.1879 872.4372,380.1719 886.9052,388.1399 C782.6982,454.0909 791.7782,391.8779 828.5672,311.5819 C838.9812,296.2729 840.1402,258.0349 864.6782,263.7319 C890.0762,276.3359 903.4922,350.8479 940.9812,342.3279 C946.8032,342.8829 949.3562,347.9899 945.0452,351.9999 C940.4882,376.1289 1022.5372,406.6319 1045.2862,417.4079 C1074.6602,426.1729 1104.8552,428.4009 1135.5382,424.3019 C1099.4362,457.8789 1046.2992,435.4249 1005.9782,425.8839" id="Fill-16" fill="#0f0f0f"/><path d="M900.5867,1112.6315 C864.9827,1118.7435 826.9367,1123.7405 789.9667,1123.5855 C795.5407,1102.8585 807.8977,1088.2275 828.3897,1081.0395 C851.4857,1074.9245 873.0877,1066.3085 885.3417,1044.4235 C909.4567,1005.2335 967.1957,1028.6675 988.1337,984.9585 C1000.9027,962.3645 1031.2797,969.4195 1046.0497,949.1065 C1120.3207,886.6115 1088.1827,959.3875 1070.6897,1003.8905 C1040.8497,1040.2115 997.8157,1025.1875 973.8397,1060.8355 C959.5207,1096.4115 909.2847,1075.4555 900.5867,1112.6315" id="Fill-18" fill="#00684a"/><path d="M855.0437,610.2541 C827.2237,614.9981 690.2177,641.0011 696.1047,669.2111 C669.5907,663.1231 680.2907,621.3881 670.9627,600.6861 C671.7057,576.2071 728.5827,563.2251 746.2907,544.1031 C864.5037,463.4451 819.7287,470.8561 855.0437,610.2541" id="Fill-20" fill="#144936"/><path d="M1051.6179,697.2033 C1075.9599,702.5503 1104.5589,711.4733 1114.8709,736.2483 C1095.9949,736.7833 1080.5469,747.6403 1070.8049,763.0663 C1049.9429,798.1913 997.3219,780.5923 979.8849,821.5793 C962.2359,858.2973 913.4039,836.8593 888.0669,866.2423 C883.8009,851.1713 897.8669,838.6143 894.0609,822.7223 C891.1899,814.8863 889.1109,807.1363 890.4139,798.4693 C971.1399,801.7683 977.5749,711.6963 1051.6179,697.2033" id="Fill-22" fill="#00684a"/><path d="M878.2986,746.1691 C887.0906,737.4701 882.5226,727.8771 880.1526,718.4311 C894.6946,702.3711 910.9796,692.8181 932.1766,688.4101 C944.3856,683.0521 953.7116,674.6151 959.2976,662.3261 C985.8816,669.0541 1012.5706,673.6911 1034.5226,691.3731 C982.2056,700.0921 971.0066,764.4831 924.8156,780.4351 C870.4706,797.5591 900.9236,771.6121 878.2986,746.1691" id="Fill-24" fill="#00684a"/><path d="M284.2854,1116.6286 C309.4294,1010.2146 302.0084,1071.9156 382.4884,1066.1706 C415.5214,1069.0256 468.8704,1025.7316 449.0554,1090.2176 C429.2404,1135.2756 325.8274,1132.7256 284.2854,1116.6286" id="Fill-26" fill="#162b22"/><path d="M772.3889,428.7897 C831.1219,483.1587 804.9519,467.5167 754.9939,509.7007 C740.3419,516.1097 670.5639,576.5347 666.5129,555.5517 C657.4029,516.5787 689.6139,493.0727 711.8129,465.8277 C731.4829,448.4117 742.7789,415.7647 772.3889,428.7897" id="Fill-28" fill="#144936"/><path d="M484.761,1097.5436 C465.921,1076.0206 469.967,1046.7316 486.09,1025.2876 C533.478,1005.5516 509.727,999.7776 573.892,1005.5846 C579.397,1005.7926 585.386,1005.2546 584.619,1013.8846 C599.568,1023.2816 597.853,1041.4416 606.733,1054.8306 C567.741,1073.0256 526.439,1087.0336 484.761,1097.5436" id="Fill-30" fill="#162b22"/><path d="M888.0637,866.2409 C913.4057,836.8579 962.2347,858.2989 979.8827,821.5779 C991.8027,801.1939 1009.7007,789.8279 1032.9437,787.3029 C1070.2147,785.4989 1075.7247,734.5819 1114.8727,736.2499 C1131.6657,752.0929 1084.1317,750.2969 1078.7227,772.5789 C1067.9687,790.0579 1052.2187,798.7969 1031.9067,800.4759 C989.1617,801.1199 986.1627,862.1319 941.5757,858.3149 C903.2257,856.3079 885.2887,889.8659 860.4787,912.8579 C806.6407,938.3409 797.7857,914.4519 748.6167,975.2019 C730.4487,996.5349 703.3297,1001.4289 677.9417,1009.1629 C631.7787,1013.8599 617.8927,1098.9869 613.0827,1060.2079 C643.4787,978.4109 722.8997,1009.7399 775.1497,930.9679 C801.1857,912.0999 836.7397,911.0869 863.4747,903.0599 C860.2797,888.8239 880.1487,877.8149 888.0637,866.2409" id="Fill-32" fill="#162b22"/><path d="M179.1545,641.8068 C191.1375,665.8858 203.9455,689.5688 219.3025,711.6868 C229.6035,727.2208 259.0295,747.2688 230.9395,761.4818 C214.5375,767.2238 200.0755,787.6318 182.4905,785.2828 C174.2635,779.5098 155.4095,778.9908 156.4755,766.3198 C158.9545,724.9158 155.7565,674.5448 179.1545,641.8068" id="Fill-34" fill="#162b22"/><path d="M1115.1233,851.6164 C1088.0063,880.9444 1040.6413,855.2964 1020.5723,896.2414 C1012.2043,908.7154 999.7453,914.3624 984.6463,914.0964 C938.9443,909.6624 925.4403,971.4044 881.9843,971.4634 C834.8533,972.1144 813.1403,1011.8834 786.0063,1043.2104 C752.1623,1079.1054 680.9983,1065.0634 670.2433,1124.6594 C654.5183,1141.9714 662.7873,1107.3244 670.1493,1098.2744 C683.9253,1071.9914 712.8453,1061.5164 739.9933,1054.7724 C799.7353,1040.5284 813.4023,957.1464 881.4373,958.4534 C904.2713,957.4904 918.5223,939.2374 933.1623,924.0604 C953.5993,893.9634 995.7363,911.5314 1015.2943,883.6004 C1027.8813,865.3864 1045.0493,854.1144 1067.2893,855.2004 C1092.6283,864.1634 1133.0473,810.1344 1115.1233,851.6164" id="Fill-36" fill="#162b22"/><path d="M107.053,747.4313 C118.617,760.4653 141.473,767.6143 144.758,785.7123 C143.222,800.1863 154.16,817.7003 144.058,829.9023 C126.884,853.6693 108.698,877.0623 98.715,907.5053 C89.973,918.9463 85.376,868.1443 83.963,856.5853 C77.645,817.3413 89.086,781.8443 107.053,747.4313" id="Fill-38" fill="#162b22"/><path d="M1067.7869,1018.5866 C1047.6139,1119.3146 997.4579,1114.0676 909.7979,1112.3486 C925.2639,1086.9276 965.1589,1108.1156 980.5069,1069.7156 C1000.9669,1037.3596 1047.0939,1052.0936 1067.7869,1018.5866" id="Fill-40" fill="#00684a"/><path d="M1095.2048,924.8302 C1060.2048,923.1202 1047.6388,958.5152 1017.2858,965.8882 C984.5898,971.0572 978.0798,1016.9842 942.0678,1016.1862 C898.0968,1011.7622 886.2588,1057.6842 853.0518,1072.9522 C824.9138,1080.1462 796.4378,1092.2462 789.9678,1123.5812 C759.9138,1132.3132 800.6898,1073.2892 820.8258,1070.6062 C828.9788,1066.9252 837.5998,1064.1892 846.1788,1061.6002 C878.8218,1049.7582 889.5068,1003.5242 929.3198,1004.8932 C969.9998,1007.6092 978.0338,962.1682 1013.2718,954.2342 C1022.0688,951.8992 1030.6438,948.8022 1036.3428,941.2672 C1045.4808,924.5672 1100.9698,898.3542 1095.2048,924.8302" id="Fill-42" fill="#162b22"/><path d="M313.5515,617.9914 C303.1765,645.7964 294.8815,668.1574 275.4675,691.2774 C281.7215,689.1484 286.4755,687.2314 287.2205,695.5614 C288.7845,701.4984 297.0635,708.2624 291.9645,715.0694 C287.5165,719.7424 282.4465,704.7194 277.3865,715.9244 C275.9135,718.8644 271.2265,721.0074 277.5345,723.5414 C270.0195,735.3104 254.1205,739.0954 251.1925,721.9454 C248.5555,689.4904 252.6045,657.3764 256.3195,625.1914 C274.1545,619.9514 293.9015,618.4824 313.5515,617.9914" id="Fill-44" fill="#162b22"/><path d="M39.2961,565.2346 C38.0991,611.2946 95.3451,561.1876 62.8841,546.2036 C49.9031,538.0446 39.1601,551.8156 39.2961,565.2346 M93.7711,558.4076 C94.4721,592.2556 48.7421,627.9136 24.8841,592.3096 C-9.5519,536.4056 78.0981,494.2606 93.7711,558.4076" id="Fill-46" fill="#0f0f0f"/><path d="M859.1941,85.7497 C856.3451,63.0147 879.7721,71.3897 893.0921,71.4577 C905.2441,70.9297 882.9441,42.1657 896.1941,32.4677 C906.9451,20.2847 923.5151,48.6827 932.7421,30.3277 C972.1561,-14.3203 949.1851,67.5407 919.3071,53.8937 C913.7181,51.7987 914.1521,54.5987 915.2281,58.5897 C920.7911,72.1687 924.0491,96.6487 902.1411,93.3537 C877.4631,85.5307 877.8211,86.8677 878.1601,111.5747 C863.5291,128.5927 861.0661,92.4597 859.1941,85.7497" id="Fill-48" fill="#0f0f0f"/><path d="M104.4758,997.778 C103.8938,969.375 101.4418,954.929 126.7508,983.174 C141.2028,1005.959 193.5358,1011.312 196.9508,1028.914 C197.6398,1069.227 192.2208,1066.264 163.0028,1042.21 C143.9408,1026.866 122.2368,1014.843 104.4758,997.778" id="Fill-50" fill="#162b22"/><path d="M80.8752,948.4728 C79.4692,945.4078 78.0892,942.4938 75.5862,945.7438 C77.4182,947.9658 78.8102,953.2668 80.8752,948.4728 M66.4262,847.5598 C63.9292,886.5908 89.5092,920.6808 88.7452,957.4268 C93.4012,1015.8528 42.4382,950.0698 46.2432,918.2488 C47.1282,893.0318 57.0752,870.2248 66.4262,847.5598" id="Fill-52" fill="#162b22"/><path d="M208.78,1072.6242 C222.322,1064.7402 203.033,1028.1032 222.07,1025.9622 C233.018,1029.7112 255.673,1021.5202 260.278,1033.2142 C258.318,1105.2752 283.005,1128.4382 208.78,1072.6242" id="Fill-54" fill="#162b22"/><path d="M927.156,611.4387 C925.495,582.3637 970.338,569.7647 959.417,589.5727 C949.512,592.3377 945.158,614.9877 959.845,608.7877 C995.949,578.7247 936.459,575.9917 963.823,566.3277 C1038.365,567.7647 950.655,685.2607 927.156,611.4387" id="Fill-56" fill="#0f0f0f"/><path d="M1020.0969,544.4597 C1058.3909,517.1037 1084.4299,466.2557 1126.2609,440.4907 C1127.3919,458.9327 1021.2739,602.5667 1020.0969,544.4597" id="Fill-58" fill="#0f0f0f"/><path d="M244.6506,625.6882 C235.6776,642.1972 246.9286,707.8932 233.1686,706.8782 C206.8516,659.8122 153.8716,619.4802 244.6506,625.6882" id="Fill-60" fill="#162b22"/><path d="M1032.4578,307.7746 C1029.6378,318.3676 1048.3318,307.7626 1045.2168,301.8376 C1039.7118,291.7756 1032.7128,298.4966 1032.4578,307.7746 M1032.4008,283.5466 C1080.0708,277.0196 1071.1798,338.0396 1031.4328,339.3016 C999.7248,339.6126 1004.8838,284.8246 1032.4008,283.5466" id="Fill-62" fill="#0f0f0f"/><path d="M35.1282,242.051 C32.7552,266.079 60.6042,227.958 64.3572,252.919 C63.0182,269.316 68.9122,278.197 83.7402,284.983 C91.4232,287.282 89.5212,308.039 80.8612,298.402 C79.5902,297.3 77.5582,297.101 75.9072,296.41 C44.3752,289.548 53.2122,258.245 43.2862,264.179 C24.3462,275.417 12.6562,261.999 20.7282,242.926 C22.0822,234.133 20.9472,233.22 12.9032,236.332 C-27.1608,246.403 39.2462,197.431 35.1282,242.051" id="Fill-64" fill="#0f0f0f"/><path d="M1067.7869,1018.5866 C1047.0769,1052.1016 1000.9799,1037.3556 980.5099,1069.7206 C959.8829,1105.9756 933.4879,1091.9896 900.5869,1112.6366 C909.2659,1075.4616 959.5359,1096.4106 973.8409,1060.8366 C983.2449,1046.0946 997.6409,1036.6726 1015.5639,1034.5056 C1034.4929,1041.5376 1085.1459,981.8066 1067.7869,1018.5866" id="Fill-66" fill="#162b22"/><path d="M890.615,786.9289 C965.491,796.3499 979.961,675.5239 1051.618,697.1909 C1011.458,707.2399 984.375,735.4129 962.549,768.8029 C956.287,785.1599 881.116,814.2999 890.615,786.9289" id="Fill-68" fill="#162b22"/><path d="M1005.9094,425.7023 C1024.9954,461.8133 1010.6344,505.5803 1020.1004,544.4583 C996.8474,546.0133 1001.6244,510.8763 997.5924,494.2373 C1000.2604,474.2803 985.6524,435.4113 1005.9094,425.7023" id="Fill-70" fill="#0f0f0f"/><path d="M876.4133,700.3439 C877.3713,688.3789 869.4703,678.7049 870.4833,666.4389 C896.5003,658.0449 923.6773,644.7859 951.1053,659.8459 C942.4883,670.5779 931.5953,677.8189 918.0723,680.6009 C900.7493,678.4199 887.2323,707.3919 876.4133,700.3439" id="Fill-72" fill="#00684a"/><path d="M712.7908,419.0783 C714.7588,423.6063 722.6948,421.0203 716.9118,426.8963 C698.9008,443.7243 682.9008,469.8383 663.6338,481.9273 C671.9688,409.1743 648.8578,433.1703 712.7908,419.0783" id="Fill-74" fill="#144936"/><path d="M150.9797,672.7101 C144.0517,701.8931 146.7877,732.7181 140.8227,761.6791 C92.9787,740.9341 127.2287,700.9131 150.9797,672.7101" id="Fill-76" fill="#162b22"/><path d="M279.4749,178.2062 C278.4329,214.6842 227.4659,203.3572 253.4639,175.0572 C213.8939,158.2182 274.3039,132.9562 279.4749,178.2062" id="Fill-78" fill="#0f0f0f"/><path d="M443.97,112.1569 C438.956,100.7739 456.14,100.1509 460.584,108.1549 C470.452,124.4259 452.321,153.7419 433.661,142.8849 C421.672,139.1149 411.506,115.6919 426.461,110.5379 C434.32,109.0979 433.029,117.6159 435.327,122.3449 C441.804,129.3469 443.573,116.4379 443.97,112.1569" id="Fill-80" fill="#0f0f0f"/><path d="M879.9299,704.2653 C891.3099,693.6353 901.8909,682.9623 918.0729,680.6023 C935.7639,681.1843 944.3559,656.7813 959.2939,662.3203 C952.4989,677.4433 938.7289,687.7933 922.7859,691.5083 C903.1129,687.5033 876.5099,735.4153 879.9299,704.2653" id="Fill-82" fill="#162b22"/><path d="M451.3767,1106.463 C455.0537,1102.408 458.7257,1082.936 464.7617,1093.728 C474.2277,1105.183 459.9617,1103.613 451.3767,1106.463" id="Fill-84" fill="#162b22"/><path d="M886.9045,388.1403 C883.4725,386.0573 875.9415,378.6143 883.9485,376.7393 C889.8705,377.4203 893.5635,386.9903 886.9045,388.1403" id="Fill-86" fill="#00684a"/><path d="M706.2014,420.0607 C700.4734,421.9897 695.1064,427.6567 688.9314,424.3857 C693.9614,420.0257 699.7434,418.6927 706.2014,420.0607" id="Fill-88" fill="#00684a"/><path d="M870.1941,665.9386 C868.4951,665.4526 866.7971,664.9666 865.0981,664.4806 C867.6931,661.8976 868.6041,663.2226 870.1941,665.9386" id="Fill-90" fill="#00684a"/><path d="M445.3567,1109.3766 C446.0117,1109.2246 446.6667,1109.0726 447.3107,1108.9276 C446.6517,1109.0816 446.0037,1109.2296 445.3567,1109.3766" id="Fill-92" fill="#162b22"/><path d="M330.2185,582.0588 L330.5285,582.3648 C330.2135,582.3298 329.9805,582.4808 330.2185,582.0588" id="Fill-94" fill="#0f0f0f"/><path d="M508.3181,810.6911 C545.7891,766.5331 596.0901,735.3781 646.2811,707.707236 C664.6691,707.3881 670.5941,796.1001 678.9251,816.0731 C682.0451,835.9571 707.8941,863.0001 675.8091,868.9291 C657.9201,875.5191 646.2641,882.7611 627.0021,878.5231 C624.3981,874.8241 621.8211,871.0691 616.4291,874.1971 C616.8331,865.8291 604.1101,866.4151 598.6691,862.5231 C596.6461,851.0351 583.6141,851.2311 575.0261,846.5821 C555.6211,827.5121 526.9791,827.8861 508.3181,810.6911" id="Fill-96" fill="#144936"/><path d="M890.615,786.9289 C893.9,825.2599 871.159,857.5579 850.144,888.1849 C824.621,884.8599 743.248,905.2619 739.966,878.9499 C738.26,855.6279 801.768,836.8539 816.966,814.1669 C856.976,791.6629 885.615,698.1639 890.615,786.9289" id="Fill-98" fill="#144936"/><path d="M391.1052,851.9904 C417.3882,847.7184 488.7492,886.7234 447.7262,911.9264 C421.6732,917.0464 393.2912,949.2514 369.1252,943.2374 C289.6842,888.0144 294.1462,866.1704 391.1052,851.9904" id="Fill-100" fill="#162b22"/><path d="M212.6174,976.7409 C206.9624,986.0009 208.2144,1004.1989 196.9614,1005.2869 C162.2504,992.0889 129.0864,973.5889 109.8894,940.5859 C101.1524,928.8669 145.8054,826.8659 155.7424,849.9789 C166.1074,895.8409 189.0444,937.1059 212.6174,976.7409" id="Fill-102" fill="#162b22"/><path d="M202.1467,881.8268 C209.3157,853.7918 204.5597,800.2778 242.4497,800.3828 C252.5137,799.3528 252.9167,799.2688 255.6177,808.3438 C262.9457,832.9638 272.2227,856.6438 287.1567,877.7788 C289.4007,880.9538 288.1937,882.8748 285.4777,885.2528 C231.4997,929.0998 219.4607,995.2438 202.1467,881.8268" id="Fill-104" fill="#162b22"/><path d="M451.7502,668.6002 C483.4872,662.0352 515.0632,654.9812 546.2092,645.9402 C538.7912,662.2522 526.9442,680.3712 518.3762,697.4912 C500.9172,726.1922 485.7002,756.6092 474.3632,788.2192 C456.4592,778.0332 444.0152,757.2602 446.6892,736.8462 C447.8552,731.9582 444.7892,732.4172 442.1702,731.7502 C444.6452,725.4042 446.0112,719.0332 442.5412,712.5692 C444.0782,698.0982 441.0932,682.1152 451.7502,668.6002" id="Fill-106" fill="#144936"/><path d="M453.8665,614.5749 C453.3485,615.9199 452.9355,617.4919 454.7925,617.4759 C455.7045,615.9209 456.3345,615.2329 453.8665,614.5749 M407.6715,660.2929 C400.9625,661.4169 403.9715,665.8699 402.9365,668.4629 C401.8045,681.4079 417.8935,665.6429 407.6715,660.2929 M451.7505,668.5999 C430.3965,721.9699 455.4065,692.2609 365.7595,694.4129 C363.1825,667.0179 389.5975,655.8159 381.7315,646.2789 C376.4595,640.7929 377.2175,649.9269 371.8375,648.8649 C362.8645,631.5599 384.7105,615.5269 377.4925,635.3799 C378.8675,646.2109 387.8295,629.4079 386.5605,626.4079 C385.1735,620.3849 388.4815,619.6329 391.8745,617.8359 C411.0675,614.5679 388.7225,633.2479 400.7955,633.6429 C408.5425,631.5159 410.7135,629.8209 401.7715,627.3779 C410.7335,623.2529 398.1275,601.0929 409.7495,606.4769 C410.6985,611.4749 414.3985,610.4229 417.5455,610.4669 C480.3975,605.2419 466.5585,620.5489 451.7505,668.5999" id="Fill-108" fill="#162b22"/><path d="M356.5847,965.0338 C329.9467,985.7598 311.0087,1031.4448 277.4107,993.0628 C282.4957,979.7008 292.7927,892.9018 309.1297,907.2288 C323.1707,921.7448 336.5237,937.0758 354.8997,946.5828 C364.8017,951.7628 367.7997,959.6698 356.5847,965.0338" id="Fill-110" fill="#162b22"/><path d="M544.2268,830.0744 C577.5668,834.2794 563.9548,852.6264 557.3188,876.0184 C546.9988,899.7814 499.5028,889.0764 476.6748,900.1594 C491.6708,829.7454 495.5788,855.0074 544.2268,830.0744" id="Fill-112" fill="#162b22"/><path d="M303.1917,784.1452 C362.0457,816.8732 340.0717,796.7022 298.4177,871.7172 C284.0007,851.8762 273.8287,825.7762 266.8157,801.5132 C263.7807,792.3022 296.1587,780.2622 303.1917,784.1452" id="Fill-114" fill="#162b22"/><path d="M483.2966,851.4972 C459.1846,930.4582 463.9446,799.6142 328.3596,859.0812 C312.8766,864.2832 357.0716,795.2682 371.5696,811.8742 C390.0436,819.6252 407.3886,830.0292 425.6506,838.2892 C443.3096,848.6672 466.8636,840.9342 483.2966,851.4972" id="Fill-116" fill="#162b22"/><path d="M446.467,750.1828 C449.759,770.1778 466.948,779.3958 476.381,794.2978 C447.055,807.1968 328.662,810.3948 402.754,766.2678 C417.783,761.1238 430.095,738.8008 446.467,750.1828" id="Fill-118" fill="#162b22"/><path d="M444.0364,1038.6979 C423.4284,1062.6729 274.8354,1055.9149 320.6514,1030.5329 C414.1644,1047.8389 446.7714,984.2979 444.0364,1038.6979" id="Fill-120" fill="#162b22"/><path d="M712.7327,890.7155 C734.4897,889.3405 708.1677,910.6935 704.6347,921.4825 C691.0927,951.0955 659.5597,957.7725 629.8497,958.8465 C592.4677,958.4505 590.2697,1000.0585 574.1007,997.3045 C568.6187,994.9655 560.3457,994.0055 555.2367,1000.2785 C549.5397,991.6665 539.7317,1000.0075 533.2237,992.9955 C562.4887,945.5035 562.8707,998.8025 579.3447,984.3635 C613.7657,919.4675 678.8607,976.5675 712.7327,890.7155" id="Fill-122" fill="#162b22"/><path d="M357.3713,1016.4137 C297.1423,1021.0797 389.0923,991.9767 402.1933,977.0307 C414.8203,973.1597 428.5293,984.0217 441.1023,986.7457 C462.1453,1003.6607 367.1553,1019.7617 357.3713,1016.4137" id="Fill-124" fill="#162b22"/><path d="M187.1223,907.029 C177.9773,882.043 159.7383,850.814 165.9693,824.653 C177.8493,815.899 189.8863,791.835 206.8333,801.001 C192.5593,833.817 187.7973,872.718 187.1223,907.029" id="Fill-126" fill="#162b22"/><path d="M354.4734,767.5993 C311.7734,722.2063 392.7824,733.6233 417.2664,741.1693 C401.5384,753.0573 383.2684,762.5183 369.3744,777.3323 C360.0364,784.6243 363.2494,767.8103 354.4734,767.5993" id="Fill-128" fill="#162b22"/><path d="M476.7737,941.7072 C471.4847,951.7942 458.7337,958.1982 458.4927,971.1842 C458.5827,973.3932 448.5017,978.9962 446.1177,978.2422 C439.4787,973.8072 410.4677,973.0582 419.7897,961.9162 C441.9907,948.6512 472.3497,880.3422 476.7737,941.7072" id="Fill-130" fill="#162b22"/><path d="M262.6707,987.9577 C210.8087,961.4437 255.3637,937.4697 278.0037,905.9787 C297.0247,887.7777 264.3337,977.0627 262.6707,987.9577" id="Fill-132" fill="#162b22"/><path d="M546.3171,922.5539 C545.2221,935.0439 540.1911,946.4439 546.5921,958.2909 C547.8021,961.4649 548.1821,963.6209 545.4921,966.2059 C529.3791,984.2729 512.9661,1002.0769 487.8431,987.3919 C511.5921,969.7949 528.9001,943.4189 546.3171,922.5539" id="Fill-134" fill="#162b22"/><path d="M442.5408,712.569 C452.2288,733.491 431.2508,737.643 416.3578,729.72 C396.3088,721.032 371.1548,729.236 353.2868,723.364 C366.9448,693.031 415.6818,713.991 442.5408,712.569" id="Fill-136" fill="#162b22"/><path d="M540.363,892.4953 C559.116,895.4503 533.607,923.1263 519.858,922.8453 C509.351,921.2333 487.457,946.0453 484.172,929.5023 C467.25,893.4913 520.691,909.2993 540.363,892.4953" id="Fill-138" fill="#162b22"/><path d="M850.1497,888.1862 C865.1087,864.0402 884.2537,841.0982 890.1017,812.0912 C901.1427,830.5932 886.6587,850.5382 886.3077,868.0892 C876.9187,866.7842 879.3897,882.0082 870.0607,886.0222 C862.0917,885.0352 857.5547,891.8262 850.1497,888.1862" id="Fill-140" fill="#00684a"/><path d="M488.7439,818.798 C494.1629,846.784 434.4509,826.739 421.9189,819.735 C441.2059,814.84 461.5109,815.698 479.9489,806.843 C488.8989,801.882 489.0959,812.296 488.7439,818.798" id="Fill-142" fill="#162b22"/><path d="M616.4294,874.1974 C653.1144,877.0554 561.6084,912.4114 551.2194,913.0794 C559.5364,887.4824 595.6034,888.3644 616.4294,874.1974" id="Fill-144" fill="#162b22"/><path d="M274.6335,1033.8522 C306.0755,1040.2772 284.5785,1066.1822 278.4995,1085.6372 C268.9315,1092.1362 272.0135,1042.2182 274.6335,1033.8522" id="Fill-146" fill="#162b22"/><path d="M575.0251,846.5832 C612.6911,860.4522 595.8161,859.1622 580.7681,880.4392 C544.6811,895.9252 578.5431,863.4692 575.0251,846.5832" id="Fill-148" fill="#162b22"/><path d="M487.2263,970.5895 C484.9883,958.7265 488.2603,943.9075 500.7483,939.3775 C548.9403,912.4185 505.9173,960.2015 487.2263,970.5895" id="Fill-150" fill="#162b22"/><path d="M352.4539,786.6706 C344.2779,790.8476 301.7929,779.4796 318.3589,765.2816 C337.3329,742.8936 338.9869,781.0076 352.4539,786.6706" id="Fill-152" fill="#162b22"/><path d="M360.9871,972.5636 C372.1311,966.7866 381.5291,959.0706 392.3411,969.5536 C376.5691,982.0986 318.2151,1015.1626 360.9871,972.5636" id="Fill-154" fill="#162b22"/><path d="M331.4021,690.216 C336.7001,687.615 342.2271,676.424 336.5231,673.593 C337.3121,669.955 343.2241,667.421 345.8111,670.358 C351.1511,675.589 353.4221,671.056 356.4961,668.146 C357.0611,678.495 350.1761,689.17 354.5491,698.807 C355.1251,699.576 353.3341,702.432 352.1431,703.935 C341.6151,694.95 328.0991,708.775 331.4021,690.216" id="Fill-156" fill="#162b22"/><path d="M442.8645,925.2907 C427.8335,935.4547 410.7235,970.6267 391.2285,954.8417 C401.7565,940.2857 425.5965,931.2117 442.8645,925.2907" id="Fill-158" fill="#162b22"/><path d="M281.9075,752.278 C294.0405,743.487 304.5155,745.823 315.2915,740.856 C326.9685,736.774 320.0315,744.822 321.9525,752.197 C322.0395,760.767 318.4315,750.795 313.5535,754.924 C304.8875,765.999 287.7885,768.002 281.9075,752.278" id="Fill-160" fill="#162b22"/><path d="M540.363,892.4953 C527.536,897.3783 479.009,918.4393 476.67,900.1603 C494.816,899.0283 530.05,883.1473 540.363,892.4953" id="Fill-162" fill="#144936"/><path d="M456.7756,1016.3581 C456.5936,1006.2031 463.9036,996.8961 473.5856,997.4041 C475.1396,998.1651 476.2136,1013.4561 474.7566,1013.6941 C465.8936,1023.2691 460.2306,1047.0621 456.7756,1016.3581" id="Fill-164" fill="#162b22"/><path d="M281.9075,752.278 C289.6875,774.226 315.0815,752.386 288.0005,777.057 C285.0805,782.715 283.3125,776.121 281.6245,777.937 C284.8435,770.768 281.5445,762.99 275.3025,758.623 C275.1215,764.399 273.8835,766.978 267.7245,766.685 C268.6625,757.502 274.6215,754.55 281.9075,752.278" id="Fill-166" fill="#0f0f0f"/><path d="M248.5125,1014.716 C240.5325,1011.572 217.2635,1017.567 219.3945,1004.907 C222.5105,980.693 242.7115,1004.048 248.5125,1014.716" id="Fill-168" fill="#162b22"/><path d="M283.1985,772.6452 C275.3005,786.9712 257.6275,789.9022 258.2355,767.2392 C253.8805,760.7562 265.6795,754.3122 269.3465,761.6362 C264.9935,769.1952 278.8625,764.9902 283.1985,772.6452" id="Fill-170" fill="#162b22"/><path d="M508.3181,810.6911 C531.2761,825.4881 537.7781,820.8011 505.2371,830.0111 C493.2671,833.5611 497.2801,804.0421 508.3181,810.6911" id="Fill-172" fill="#162b22"/><path d="M158.5408,782.4743 C162.9508,788.4283 185.1188,791.0943 174.5688,799.2643 C157.6098,821.6653 154.9978,797.1083 158.5408,782.4743" id="Fill-174" fill="#162b22"/><path d="M508.5193,1000.9792 C500.5933,1005.9182 480.9443,1027.1812 483.8403,1010.2112 C485.1053,991.8752 494.4263,999.9252 508.5193,1000.9792" id="Fill-176" fill="#162b22"/><path d="M298.7146,736.4796 C294.5986,735.3956 286.8696,741.6786 284.4556,735.7786 C293.7016,733.6736 314.6826,715.8256 320.6286,723.7356 C322.9556,735.0626 305.6486,732.7066 298.7146,736.4796" id="Fill-178" fill="#162b22"/><path d="M249.8523,785.1627 C248.6423,790.5747 228.9683,796.3067 233.5823,786.7377 C239.2743,774.5137 246.3573,766.2357 249.8523,785.1627" id="Fill-180" fill="#162b22"/><path d="M371.8376,648.8654 C377.2126,649.9294 376.4666,640.7894 381.7246,646.2774 C388.6746,658.0134 364.6296,676.4994 371.8376,648.8654" id="Fill-182" fill="#0f0f0f"/><path d="M476.6418,970.8805 C477.0978,980.8315 471.8088,985.9185 464.2988,983.1255 C462.1688,976.4125 477.5648,954.2335 476.6418,970.8805" id="Fill-184" fill="#162b22"/><path d="M391.8738,617.8327 C383.0968,620.5647 388.4288,632.0027 381.0838,639.0287 C370.2278,638.4037 393.7208,597.0087 391.8738,617.8327" id="Fill-186" fill="#0f0f0f"/><path d="M290.4939,1023.7321 C302.9059,1023.8351 308.1559,1028.8941 294.9989,1033.1891 C288.5749,1030.8331 279.1659,1025.9101 290.4939,1023.7321" id="Fill-188" fill="#162b22"/><path d="M564.3171,884.5675 C569.1841,884.5475 583.7001,879.5965 574.7751,886.4665 C571.7121,888.6505 572.3731,890.6765 574.6301,892.8565 C558.7621,897.7095 558.7481,900.6005 564.3171,884.5675" id="Fill-190" fill="#144936"/><path d="M362.926,612.2248 C367.629,612.2788 372.332,612.3328 377.038,612.3888 C371.754,624.1778 353.318,629.2468 362.926,612.2248" id="Fill-192" fill="#162b22"/><path d="M356.448,668.2443 C355.229,664.4573 355.876,660.4733 352.088,657.0203 C349.597,628.7723 366.168,649.3683 356.448,668.2443" id="Fill-194" fill="#162b22"/><path d="M775.155,930.9738 C769.974,939.6138 761.729,935.6538 764.84,926.1438 C768.522,921.1118 774.503,926.3278 775.155,930.9738" id="Fill-196" fill="#00684a"/><path d="M264.3977,734.7692 C282.9747,735.6782 258.6927,739.5022 259.8737,746.2162 C249.6507,749.2992 260.5577,737.2392 264.3977,734.7692" id="Fill-198" fill="#00684a"/><path d="M343.301,717.3454 C338.552,722.1844 333.697,728.0684 333.241,718.8604 C336.178,716.2944 339.756,712.3404 343.301,717.3454" id="Fill-200" fill="#162b22"/><path d="M211.071,793.694 C203.497,789.306 212.416,786.941 215.662,783.025 C221.219,785.125 213.045,789.969 211.071,793.694" id="Fill-202" fill="#144936"/><path d="M298.7146,736.4796 C306.8166,731.4566 310.8716,739.5306 306.2846,746.2936 C303.7506,743.0316 301.2346,739.7506 298.7146,736.4796" id="Fill-204" fill="#144936"/><path d="M356.5847,965.0338 C368.8087,956.4188 360.7927,965.1548 360.9807,972.5608 C356.5217,972.4288 356.3857,968.2978 356.5847,965.0338" id="Fill-206" fill="#00684a"/><path d="M370.2888,696.7384 C380.4328,693.7564 380.7938,704.0404 371.5878,703.4034 C366.3898,702.9674 371.1218,698.9704 370.2888,696.7384" id="Fill-208" fill="#00684a"/><path d="M640.5872,905.0334 C644.7642,909.8044 644.3032,910.8554 639.7962,913.7864 C635.5772,910.2234 636.2722,909.0574 640.5872,905.0334" id="Fill-210" fill="#144936"/><path d="M444.0364,1038.6979 C442.9254,1036.2439 439.1834,1033.4829 444.8404,1031.8159 C448.9704,1033.8939 451.2034,1042.6369 444.0364,1038.6979" id="Fill-212" fill="#00684a"/><path d="M300.3772,782.4123 C303.1502,772.2123 308.6182,780.5443 302.5712,783.7373 C301.8362,783.3323 301.1112,782.7003 300.3772,782.4123" id="Fill-214" fill="#00684a"/><path d="M464.0686,1052.1671 C460.5556,1047.6331 460.5696,1046.5781 463.1056,1042.4911 C468.2566,1044.3561 464.8506,1047.1271 464.0686,1052.1671" id="Fill-216" fill="#144936"/><path d="M286.926,731.0905 C283.709,729.5375 283.17,728.0825 286.225,726.6995 C289.146,727.3095 289.433,728.9605 286.926,731.0905" id="Fill-218" fill="#00684a"/><path d="M284.1628,736.2819 C279.8408,734.7699 281.6128,732.0759 284.4548,735.7819 C284.4548,735.7789 284.1628,736.2819 284.1628,736.2819" id="Fill-220" fill="#00684a"/><path d="M384.8596,621.9909 C383.3916,623.4049 381.9226,624.8179 380.4536,626.2309 C381.9226,624.8179 383.3916,623.4049 384.8596,621.9909" id="Fill-222" fill="#162b22"/><path d="M460.1965,647.8805 C472.2625,579.1095 509.1845,514.0605 532.1515,448.6935 C543.6035,436.6165 565.4795,433.6555 583.1725,434.3845 C589.0405,436.7545 590.9115,433.9335 592.0025,429.0945 C606.3315,432.0495 620.7325,432.9145 634.7045,428.3225 C643.9105,427.7135 643.5455,428.0905 642.4815,437.2645 C635.0785,466.0185 644.8305,500.7295 632.7055,526.7585 C570.0225,610.2615 570.9065,626.5745 460.1965,647.8805" id="Fill-224" fill="#144936"/><path d="M512.4519,766.2194 C530.3739,728.9784 573.6619,628.8214 610.4579,617.3724 C619.9829,615.0164 643.6179,594.7784 642.4969,615.4094 C643.5569,635.4754 648.8069,654.7584 648.5079,674.9684 C647.9579,679.7754 642.9749,683.6834 638.3149,685.1184 C591.9829,704.8384 552.8459,736.9824 512.4519,766.2194" id="Fill-226" fill="#144936"/><path d="M620.509,580.5305 C626.474,573.9355 630.529,565.1445 638.734,561.0625 C638.76,563.4795 638.506,566.0725 638.448,568.4235 C646.365,582.0605 619.863,594.7705 620.509,580.5305" id="Fill-228" fill="#144936"/><path d="M620.509,580.5305 C628.911,598.6065 605.754,586.9735 612.034,578.0045 C615.929,574.7545 617.764,579.3435 620.509,580.5305" id="Fill-230" fill="#00684a"/><path d="M864.8059,722.3322 C863.9139,718.1112 865.2689,715.1652 869.5819,713.9022 C872.0129,721.5612 872.0129,721.5612 864.8059,722.3322" id="Fill-232" fill="#00684a"/><path d="M653.2996,694.0324 C648.4166,696.8894 647.5366,696.2624 645.0336,692.2694 C648.8226,689.7934 649.7796,690.3194 653.2996,694.0324" id="Fill-234" fill="#00684a"/><path d="M650.5911,878.3966 C650.8191,875.1136 652.1041,875.9506 654.4751,877.1776 C653.1791,877.5886 651.8851,877.9926 650.5911,878.3966" id="Fill-236" fill="#00684a"/><path d="M856.7009,735.9176 C857.3859,735.6056 857.3459,737.6346 857.6819,738.2546 C856.6229,738.8366 857.0129,736.6536 856.7009,735.9176" id="Fill-238" fill="#00684a"/><path d="M546.2097,645.9411 C547.2467,645.5951 548.4067,643.8291 549.2037,645.2651 C548.1417,645.6751 546.9497,647.4351 546.2097,645.9411" id="Fill-240" fill="#144936"/><path d="M690.0535,721.05 C689.4845,721.216 689.1805,720.965 689.5415,720.465 C690.3315,720.051 690.4615,720.296 690.0535,721.05" id="Fill-242" fill="#144936"/><path d="M512.4832,766.2492 C512.1992,766.5622 511.9142,766.8752 511.6302,767.1872 C511.4942,766.5512 511.9642,766.2872 512.4832,766.2492" id="Fill-244" fill="#144936"/><path d="M340.9998,644.2619 C337.2458,641.6799 335.2588,630.8539 329.8728,634.6499 C325.9918,639.7149 343.6688,651.8539 330.3148,651.3059 C327.4578,645.8019 333.0978,643.2229 324.8018,640.1679 C314.6688,626.8119 334.5828,627.3499 342.5088,630.1849 C350.3788,634.8039 347.2048,640.0069 340.9998,644.2619" id="Fill-246" fill="#162b22"/><path d="M543.0613,360.0983 C537.8023,352.9963 536.8483,353.2293 532.8623,361.1783 C528.2713,372.6103 515.6683,372.7633 518.5583,354.1073 C523.1443,357.7463 525.8273,366.1263 528.6313,357.1433 C538.0583,339.1213 561.4323,356.2243 543.0613,360.0983" id="Fill-248" fill="#00684a"/><path d="M528.6321,357.1442 C527.0481,360.0642 525.8981,364.8762 522.5071,358.1962 C518.1241,354.3962 489.1041,338.3042 509.8121,338.8262 C514.8451,349.2782 528.5601,337.7702 526.4621,344.4452 C525.7341,348.9262 521.4891,354.0132 528.6321,357.1442" id="Fill-250" fill="#162b22"/><path d="M552.0071,266.9738 C545.8831,269.3218 551.4441,277.7518 541.9141,274.5618 C540.5751,274.2528 538.8551,275.5748 537.3101,276.1468 C534.7961,260.6438 563.4601,244.2408 552.0071,266.9738" id="Fill-252" fill="#00684a"/><path d="M591.4373,135.8835 C592.3413,141.4485 591.6893,147.9715 599.6183,149.2265 C614.7093,177.5715 573.3333,146.6855 591.4373,135.8835" id="Fill-254" fill="#00684a"/><path d="M476.6384,367.403 C483.6604,370.173 485.4044,372.471 481.0584,379.129 C479.7274,381.052 473.0084,378.238 476.4604,384.655 C472.6234,403.269 465.8574,376.393 476.6384,367.403" id="Fill-256" fill="#162b22"/><path d="M558.4475,110.217 C556.3335,112.403 554.5985,114.955 551.7375,116.187 C555.5015,108.543 548.0745,103.124 547.7735,96.284 C551.1545,75.729 558.4865,102.959 558.4475,110.217" id="Fill-258" fill="#00684a"/><path d="M588.3665,159.4509 C589.1625,162.8739 589.9585,166.2969 590.7325,169.7179 C586.8525,157.8909 578.0255,169.0399 575.5045,170.6699 C575.0635,167.7419 573.5985,162.5269 574.2205,162.2659 C581.5815,151.5219 571.3075,145.5949 588.3665,159.4509" id="Fill-260" fill="#00684a"/><path d="M483.7542,353.8806 C479.5012,348.5926 482.3982,345.1256 485.7492,341.7176 C491.3472,338.1816 492.5252,356.4516 486.9422,348.0926 C483.4742,347.8456 484.0772,349.9016 483.7542,353.8806" id="Fill-262" fill="#162b22"/><path d="M572.0383,264.9406 C564.9373,260.2556 565.1893,257.3236 571.8373,252.2006 C573.7073,255.6976 576.5423,261.9296 572.0383,264.9406" id="Fill-264" fill="#00684a"/><path d="M420.5872,464.3073 C424.6852,465.5573 424.4212,465.4773 423.5262,468.4323 C435.2232,491.0053 416.5572,478.9003 420.5872,464.3073" id="Fill-266" fill="#00684a"/><path d="M336.6072,672.6164 C336.1142,675.8454 333.3872,678.9894 333.4272,682.2124 C333.3902,684.5234 334.9962,686.0904 331.3562,684.2094 C324.2432,682.1304 324.7002,681.0424 329.9972,676.2054 C332.1552,671.4314 321.1292,665.1084 336.6072,672.6164" id="Fill-268" fill="#00684a"/><path d="M342.2375,663.5832 C338.2575,661.6372 340.0225,655.1312 339.5285,651.2992 C348.5725,644.4602 347.9675,658.8252 342.2375,663.5832" id="Fill-270" fill="#144936"/><path d="M361.3591,618.2043 C356.6031,619.2583 358.7401,629.8413 352.4981,624.1983 C345.1471,614.7663 353.2901,614.3913 361.3591,618.2043" id="Fill-272" fill="#144936"/><path d="M324.7146,659.3449 C327.9176,653.7559 330.0206,656.3049 331.1376,660.9989 C328.8376,666.3819 326.3396,664.9709 324.7146,659.3449" id="Fill-274" fill="#162b22"/><path d="M389.8303,551.5529 C388.0413,546.9629 401.1283,549.4699 404.6383,545.5529 C406.0193,551.8819 394.3553,551.4259 389.8303,551.5529" id="Fill-276" fill="#00684a"/><path d="M295.1897,681.5954 C298.0717,673.9684 299.5957,675.9604 303.7827,681.6504 C299.7497,683.7154 296.8757,688.3834 295.1897,681.5954" id="Fill-278" fill="#162b22"/><path d="M316.2244,674.4337 C318.9494,680.5857 323.2804,682.7597 317.0594,686.5517 C312.9514,681.8397 311.7504,681.1287 316.2244,674.4337" id="Fill-280" fill="#162b22"/><path d="M568.384,194.0905 C557.321,195.9565 568.001,189.4765 565.99,183.0505 C566.424,188.2605 574.66,190.8615 568.384,194.0905" id="Fill-282" fill="#00684a"/><path d="M531.7205,249.0148 C542.5915,250.5628 533.1885,259.8048 530.0275,249.3678 C530.2705,248.9628 531.1635,248.7178 531.7205,249.0148" id="Fill-284" fill="#162b22"/><path d="M424.5007,520.9929 C427.4027,513.0559 431.0057,523.8039 431.3477,527.0599 C426.5417,527.5709 424.9257,523.1479 424.5007,520.9929" id="Fill-286" fill="#162b22"/><path d="M340.9998,644.2619 C343.2508,642.2099 345.5018,640.1579 347.7488,638.1039 C349.1348,646.3039 349.1348,646.3039 340.9998,644.2619" id="Fill-288" fill="#00684a"/><path d="M505.7551,400.4782 C505.3591,397.7022 504.8781,394.9662 505.1111,392.1602 C511.7331,391.3332 510.9171,397.4312 505.7551,400.4782" id="Fill-290" fill="#162b22"/><path d="M547.9656,298.2717 C547.2646,300.4467 546.5646,302.6227 545.8676,304.7787 C544.8576,301.3847 544.0736,290.6127 547.9656,298.2717" id="Fill-292" fill="#00684a"/><path d="M311.3499,688.7721 C309.9479,690.3781 308.4389,692.1071 306.9299,693.8361 C302.8839,691.1491 310.6669,682.1551 311.3499,688.7721" id="Fill-294" fill="#162b22"/><path d="M328.4304,668.8336 C329.1944,672.1876 327.4514,674.7006 324.0704,674.8406 C319.5534,671.3476 324.7744,670.0246 328.4304,668.8336" id="Fill-296" fill="#144936"/><path d="M445.3767,448.1882 C450.9817,445.5392 448.7607,448.6532 447.5477,452.6942 C446.8317,451.1882 446.1037,449.6882 445.3767,448.1882" id="Fill-298" fill="#162b22"/><path d="M388.4763,573.0187 C387.3113,573.2397 386.1463,573.4607 385.0043,573.6797 C388.2093,569.6327 393.5263,565.5687 388.4763,573.0187" id="Fill-300" fill="#00684a"/><path d="M488.1262,373.3264 C488.1142,374.4574 488.1022,375.5894 488.0812,376.7054 C488.0892,375.5694 488.1082,374.4474 488.1262,373.3264" id="Fill-302" fill="#162b22"/><path d="M583.9202,239.3688 C583.0332,239.0208 582.1462,238.6738 581.2692,238.3048 C583.0352,236.7608 583.4502,237.2518 583.9202,239.3688" id="Fill-304" fill="#00684a"/><path d="M530.3694,310.8063 C529.3654,316.1953 529.2704,314.4223 527.3944,311.6753 C527.1744,309.9913 530.4204,310.6623 530.3694,310.8063" id="Fill-306" fill="#00684a"/><path d="M496.3508,391.7936 C492.7498,391.3626 494.8048,389.4426 497.3298,389.1936 C497.0038,390.0606 496.6768,390.9266 496.3508,391.7936" id="Fill-308" fill="#162b22"/><path d="M377.9373,588.027 C376.3133,590.261 376.2143,588.917 375.6493,586.9 C376.4153,587.277 377.1763,587.652 377.9373,588.027" id="Fill-310" fill="#162b22"/><path d="M390.3352,568.0676 C391.1172,566.9646 391.6182,565.0616 392.9842,566.6666 C392.0792,567.4066 391.4132,569.5116 390.3352,568.0676" id="Fill-312" fill="#00684a"/><path d="M391.9368,565.6169 C392.7758,565.7429 394.0858,565.1179 393.8208,566.3889 C393.2808,566.8819 391.5358,566.1199 391.9368,565.6169" id="Fill-314" fill="#00684a"/><path d="M384.9841,585.0788 C385.0921,585.7668 384.7341,585.3958 384.3271,585.3068 L384.9841,585.0788 Z" id="Fill-316" fill="#162b22"/><path d="M342.5671,630.2531 C342.7941,629.6731 342.9171,629.1951 343.6631,629.5211 C343.3241,629.7991 342.6531,629.9361 342.5671,630.2531" id="Fill-318" fill="#162b22"/><path d="M533.4075,308.2536 L533.1975,307.5786 C533.7385,307.6716 534.3585,308.7606 533.4075,308.2536" id="Fill-320" fill="#00684a"/><path d="M541.5159,300.0461 C540.7979,299.4821 540.8189,299.1561 541.5989,298.6831 C542.3199,299.2481 542.2999,299.5741 541.5159,300.0461" id="Fill-322" fill="#00684a"/><path d="M587.1487,237.5095 C587.6027,238.5135 586.9877,237.4705 586.7647,237.3945 L587.1487,237.5095 Z" id="Fill-324" fill="#00684a"/><path d="M881.9436,936.9235 C888.9056,930.0925 890.1966,933.2075 896.0326,937.3265 C891.1766,944.4775 888.9766,941.2585 881.9436,936.9235" id="Fill-326" fill="#00684a"/><path d="M844.7219,945.7189 C840.8739,949.9179 835.6489,950.1119 834.7279,944.1509 C835.5539,936.9189 848.8189,939.5489 844.7219,945.7189" id="Fill-328" fill="#00684a"/><path d="M883.7375,1017.6476 C881.5235,1020.6316 880.2105,1017.8416 878.6035,1016.1436 C878.4095,1011.4746 881.4975,1015.9616 883.7375,1017.6476" id="Fill-330" fill="#00684a"/><path d="M880.3464,874.4416 C878.1034,868.3526 881.6074,867.6606 886.3064,868.0886 C884.3204,870.2056 882.3334,872.3236 880.3464,874.4416" id="Fill-332" fill="#00684a"/><path d="M870.135,886.089 C871.434,884.78 872.733,883.47 874.031,882.161 C872.731,883.47 871.433,884.78 870.135,886.089" id="Fill-334" fill="#00684a"/><path d="M80.8752,948.4728 C78.8102,953.2668 77.4182,947.9658 75.5852,945.7438 C78.0942,942.4968 79.4672,945.4068 80.8752,948.4728" id="Fill-336" fill="#00684a"/><path d="M435.9626,511.6037 C431.0836,512.0947 431.8636,491.3457 433.0636,489.6537 C445.5756,480.5237 447.5966,475.0527 448.7706,491.8097 C455.4266,486.1137 454.9166,501.8787 445.2646,503.2667 C442.1636,504.5307 439.9746,505.3527 440.1926,508.9897 C438.3796,509.2037 435.0536,506.9807 435.9626,511.6037" id="Fill-338" fill="#0f0f0f"/><path d="M461.1194,450.8776 C461.0054,451.1006 460.7464,451.3836 460.8094,451.5336 C461.4104,453.1686 462.3964,450.4716 461.1194,450.8776 M475.6874,450.4036 C470.1834,453.8656 470.8104,463.9796 463.7704,463.2526 C457.7234,462.4226 450.3584,453.4516 456.6604,448.3266 C459.6704,446.3486 462.9334,444.4276 456.9464,442.0786 C452.9184,435.0776 459.6014,430.2976 463.2344,438.3516 C467.0004,436.6846 470.5874,434.2346 471.1664,441.7256 C471.3994,444.7326 473.5834,443.1766 474.0684,440.8416 C479.1984,443.9686 479.8414,445.8576 475.6874,450.4036" id="Fill-340" fill="#0f0f0f"/><path d="M530.2737,324.1603 C539.3297,322.3783 545.5477,315.9003 553.9857,312.0723 C554.5527,317.6553 551.1757,319.3083 547.5957,320.7203 C543.7357,322.2423 541.4557,323.4113 545.2217,328.1373 C546.3257,329.9553 544.4157,340.5903 539.4637,338.5243 C535.2707,331.0793 528.9347,336.2733 530.2737,324.1603" id="Fill-342" fill="#00684a"/><path d="M451.3792,489.4162 C442.1252,495.9152 449.2322,471.6762 458.9802,480.1072 C459.1752,474.0052 456.8212,464.3332 466.3712,467.5422 C475.9762,471.8472 467.7802,474.2292 464.6422,479.8772 C463.4542,489.3892 455.4502,482.7322 451.3792,489.4162" id="Fill-344" fill="#00684a"/><path d="M412.6482,580.2848 C421.7192,569.0328 418.8062,585.8638 425.8252,580.0848 C425.0142,587.1908 416.0162,582.8998 416.7902,590.2638 C416.3972,597.8038 407.6242,594.7068 405.7162,599.8438 C400.8202,595.9398 405.2602,591.5978 406.6652,587.1028 C408.6852,584.8528 416.1892,587.4188 412.6482,580.2848" id="Fill-346" fill="#00684a"/><path d="M412.6482,580.2848 C412.4192,598.0678 386.6212,576.1358 420.7432,559.5468 C432.3612,565.3228 397.5332,574.0018 412.6482,580.2848" id="Fill-348" fill="#162b22"/><path d="M497.738,461.2824 C489.215,447.9074 495.338,441.3654 508.027,442.7024 C511.96,451.7284 505.729,460.1654 497.738,461.2824" id="Fill-350" fill="#0f0f0f"/><path d="M420.74,559.5461 C405.19,567.5321 422.086,546.2131 417.591,538.3711 C417.497,537.8401 418.754,536.4821 419.317,536.5191 C431.451,536.8891 425.469,554.6071 420.74,559.5461" id="Fill-352" fill="#0f0f0f"/><path d="M539.8967,440.8141 C532.5567,447.7291 524.4357,455.6041 525.9687,466.7261 C515.8717,472.7931 522.5307,438.1561 539.8967,440.8141" id="Fill-354" fill="#00684a"/><path d="M497.738,461.2824 C511.105,452.5744 514.051,457.1924 501.784,468.8744 C494.86,463.1174 495.69,475.3654 487.715,467.4574 C484.397,465.5814 485.232,463.7074 488.539,464.4234 C493.584,468.7974 494.571,461.9134 497.738,461.2824" id="Fill-356" fill="#162b22"/><path d="M481.3313,415.466 C479.3893,408.488 476.4333,402.397 480.1713,395.602 C489.9413,400.769 487.4573,409.092 481.3313,415.466" id="Fill-358" fill="#0f0f0f"/><path d="M464.8342,538.7995 C459.1492,542.0905 453.3882,550.7045 451.4012,541.1885 C451.4042,532.6275 459.5432,533.5685 464.8342,538.7995" id="Fill-360" fill="#0f0f0f"/><path d="M592.0022,429.0944 C590.8672,439.9644 579.8102,432.1444 572.5932,433.1004 C578.9542,431.2004 584.6952,426.3484 592.0022,429.0944" id="Fill-362" fill="#00684a"/><path d="M470.3264,537.0934 C467.5694,529.8964 459.1264,516.6484 471.4634,521.3024 C471.5514,526.2164 470.6944,530.8284 470.3264,537.0934" id="Fill-364" fill="#00684a"/><path d="M481.3459,432.0236 C473.6619,427.1516 480.5379,422.2216 484.7509,419.2236 C497.6589,421.6066 489.5609,427.0816 481.3459,432.0236" id="Fill-366" fill="#0f0f0f"/><path d="M397.9573,629.0651 C398.7583,625.5461 399.9393,621.6251 400.5553,618.3081 C408.3253,606.9621 407.0083,628.9671 397.9573,629.0651" id="Fill-368" fill="#0f0f0f"/><path d="M494.9832,471.3576 C504.8812,456.7456 497.9872,482.9846 493.7612,488.1986 C488.9342,485.7116 498.2292,476.8826 494.9832,471.3576" id="Fill-370" fill="#00684a"/><path d="M475.6873,450.404 C485.0773,434.966 476.2733,457.57 486.0073,454.901 C485.8493,455.611 485.9253,456.7 485.4933,456.968 C475.7193,455.744 477.0363,464.337 475.6873,450.404" id="Fill-372" fill="#00684a"/><path d="M543.0613,360.0983 C554.8503,353.9223 551.5423,363.0973 546.9913,369.3603 C548.3693,366.7683 543.9063,362.9783 543.0613,360.0983" id="Fill-374" fill="#0f0f0f"/><path d="M392.9846,566.6667 C394.5826,565.4997 404.3586,561.0137 403.5726,565.6927 C396.8406,570.8167 382.7816,581.8757 392.9846,566.6667" id="Fill-376" fill="#0f0f0f"/><path d="M455.2097,434.9597 C458.4497,439.2127 454.1537,450.5017 450.7137,440.9787 C446.4907,434.1567 446.5807,432.7087 455.2097,434.9597" id="Fill-378" fill="#162b22"/><path d="M523.2542,342.945 C513.6722,348.283 504.5462,334.785 514.5522,329.485 C517.9512,334.259 516.3642,341.017 523.2542,342.945" id="Fill-380" fill="#0f0f0f"/><path d="M565.9846,435.2897 C559.8846,435.5247 548.4916,442.8417 545.0266,438.9147 C551.7266,435.9997 558.4586,433.3467 565.9846,435.2897" id="Fill-382" fill="#00684a"/><path d="M614.0955,227.2238 C611.0145,232.9848 598.5325,231.0558 607.2415,226.2768 C608.8375,225.2348 611.0455,224.8808 612.2655,223.5608 C618.0455,216.6238 618.6435,228.1538 614.0955,227.2238" id="Fill-384" fill="#162b22"/><path d="M614.0955,227.2238 C620.9845,224.0838 621.6375,233.2678 616.3255,234.8848 C611.4665,235.5568 614.2825,230.0098 614.0955,227.2238" id="Fill-386" fill="#00684a"/><path d="M508.7551,447.2599 C506.5231,441.7269 511.3601,437.9279 516.5481,440.7189 C515.5151,444.6219 511.9711,445.6309 508.7551,447.2599" id="Fill-388" fill="#162b22"/><path d="M395.8713,548.6896 C389.6663,551.7996 383.3093,543.9166 391.4473,541.0366 C396.2133,541.0726 399.3093,543.4366 395.8713,548.6896" id="Fill-390" fill="#0f0f0f"/><path d="M575.427,296.9665 C569.872,293.9035 575.228,292.7225 578.326,290.6125 C583.53,291.9655 577.891,294.5385 575.427,296.9665" id="Fill-392" fill="#0f0f0f"/><path d="M473.0999,497.9973 C470.6429,494.5243 471.9639,485.4373 477.1949,490.2333 C478.5919,492.8683 475.4569,497.9523 473.0999,497.9973" id="Fill-394" fill="#162b22"/><path d="M473.0999,497.9973 C474.6629,500.4953 481.9429,510.9083 475.2399,510.0273 C474.5789,506.0073 467.6729,503.0443 473.0999,497.9973" id="Fill-396" fill="#00684a"/><path d="M402.8171,614.5041 C402.8011,616.0641 401.3331,617.0771 400.5551,618.3081 C400.5551,618.3081 400.6311,618.2811 400.6321,618.2811 C385.1141,620.6491 393.3031,604.0301 402.8171,614.5041" id="Fill-398" fill="#00684a"/><path d="M474.0681,440.8415 C469.6651,449.3795 473.3331,430.6715 463.2331,438.3515 C465.3821,437.1205 467.5041,435.8815 469.6161,434.6415 C472.2061,434.0215 472.6101,439.1435 474.0681,440.8415" id="Fill-400" fill="#162b22"/><path d="M435.9626,511.6037 C435.1036,506.0017 443.4936,509.7407 446.6286,509.1417 C451.2236,516.0207 440.3446,510.9677 435.9626,511.6037" id="Fill-402" fill="#00684a"/><path d="M518.2258,424.4113 C521.6988,431.3343 520.9568,431.7963 515.9108,435.2163 C514.7398,430.4473 515.3038,429.7213 518.2258,424.4113" id="Fill-404" fill="#162b22"/><path d="M471.1189,434.8806 C467.7459,434.2766 465.2619,427.4276 467.9899,424.7666 C475.4979,422.1876 475.0839,430.7766 471.1189,434.8806" id="Fill-406" fill="#0f0f0f"/><path d="M392.1282,521.0026 C396.6372,526.3636 394.6852,527.4096 391.5092,531.6566 C387.4412,527.8336 389.7652,526.0806 392.1282,521.0026" id="Fill-408" fill="#162b22"/><path d="M505.7551,400.4782 C508.3011,398.3882 508.5961,404.4692 509.5861,406.0062 C507.6241,408.6562 506.9011,402.0122 505.7551,400.4782" id="Fill-410" fill="#00684a"/><path d="M498.5681,335.0851 C494.8481,328.7081 499.9261,328.7601 503.3671,325.1561 C506.3911,329.0751 501.0791,330.8361 498.5681,335.0851" id="Fill-412" fill="#0f0f0f"/><path d="M425.1101,554.612 C423.1181,551.297 425.6151,551.639 428.3731,551.12 C427.2851,552.284 426.1981,553.448 425.1101,554.612" id="Fill-414" fill="#00684a"/><path d="M498.3464,398.1232 C497.3714,399.6052 497.1664,398.8952 496.9744,397.4842 C497.4534,396.2082 497.9294,397.3832 498.3464,398.1232" id="Fill-416" fill="#162b22"/><path d="M481.2312,446.2409 C480.5362,445.9289 479.8422,445.6159 479.1572,445.2999 C479.7482,444.8319 480.5632,446.0069 481.2312,446.2409" id="Fill-418" fill="#162b22"/><path d="M492.1384,461.3508 C491.4364,462.4628 491.1804,461.6858 490.8684,460.8218 C491.3264,459.7998 491.8224,460.6918 492.1384,461.3508" id="Fill-420" fill="#0f0f0f"/><path d="M574.6296,892.8566 C569.1346,884.9476 586.9896,877.2816 590.7286,870.1696 C596.2086,859.9536 614.2046,863.8746 616.4326,874.1966 C602.4966,880.4176 588.5626,886.6366 574.6296,892.8566" id="Fill-422" fill="#00684a"/><path d="M407.6716,660.2931 C417.8936,665.6511 401.8046,681.4021 402.9336,668.4641 C403.9716,665.8701 400.9626,661.4171 407.6716,660.2931" id="Fill-424" fill="#0f0f0f"/><path d="M397.9573,629.0651 C401.7703,626.2211 405.3293,628.8571 409.2283,630.2371 C405.7723,633.4091 391.4503,635.4311 397.9573,629.0651" id="Fill-426" fill="#00684a"/><path d="M453.8665,614.5749 C456.3345,615.2319 455.7045,615.9219 454.7925,617.4769 C452.9355,617.4899 453.3485,615.9209 453.8665,614.5749" id="Fill-428" fill="#144936"/><path d="M300.4226,782.3795 C301.1396,782.8325 301.8566,783.2865 302.5716,783.7365 C301.8546,783.2825 301.1386,782.8305 300.4226,782.3795" id="Fill-430" fill="#00684a"/><path d="M590.4421,870.5246 C587.2171,873.8296 583.9931,877.1346 580.7711,880.4416 C581.4861,874.6866 584.6771,871.3496 590.4421,870.5246" id="Fill-432" fill="#144936"/><path d="M592.5403,868.7438 C591.9353,869.2198 591.3303,869.6958 590.7283,870.1698 C591.3343,869.6928 591.9373,869.2188 592.5403,868.7438" id="Fill-434" fill="#144936"/><path d="M283.1985,772.6452 C277.7045,768.6962 272.2365,766.1232 275.3045,758.6232 C280.2965,762.0852 282.4245,766.7492 283.1985,772.6452" id="Fill-436" fill="#00684a"/><path d="M548.158,83.2936 C543.529,79.8926 543.926,77.5136 548.556,74.2596 C553.424,79.3956 558.51,81.1106 548.158,83.2936" id="Fill-438" fill="#0f0f0f"/><path d="M558.2859,110.0925 C558.2539,106.1295 557.1919,102.2935 562.1129,101.0255 C565.0509,105.4975 561.8609,108.1835 558.2859,110.0925" id="Fill-440" fill="#00684a"/><path d="M571.2029,252.6706 C567.3069,254.6276 565.1759,264.5596 560.5649,260.4436 C547.2299,253.9666 562.7029,243.5396 571.2029,252.6706" id="Fill-442" fill="#0f0f0f"/><path d="M559.5081,218.7282 C561.5961,221.7992 564.6381,224.8792 560.0881,226.5002 C554.8411,225.3522 557.5711,222.2552 559.5081,218.7282" id="Fill-444" fill="#0f0f0f"/><path d="M562.8147,248.4401 C556.4117,249.9661 558.9007,247.7061 561.5077,243.6961 C563.3207,244.3891 562.4127,246.8781 562.8147,248.4401" id="Fill-446" fill="#162b22"/><path d="M561.5071,243.697 C563.0811,241.764 563.8921,239.313 565.8821,242.213 C564.3821,242.849 562.9711,245.095 561.5071,243.697" id="Fill-448" fill="#162b22"/><path d="M519.1946,295.0734 C520.8596,290.3324 520.4036,284.3774 527.0756,284.6404 C529.4306,289.6544 523.4206,297.8034 519.1946,295.0734" id="Fill-450" fill="#0f0f0f"/><path d="M562.5154,194.3244 C562.1934,194.6074 561.8714,194.8914 561.5504,195.1744 C561.8864,194.9284 562.1814,194.0874 562.5154,194.3244" id="Fill-452" fill="#00684a"/><path d="M461.1194,450.8801 C462.4034,450.4681 461.4074,453.1701 460.8094,451.5341 C460.7464,451.3841 461.0054,451.1011 461.1194,450.8801" id="Fill-454" fill="#00684a"/><path d="M400.5554,618.3078 C401.1734,617.5078 401.7914,616.7078 402.4094,615.9048 C401.7914,616.7038 401.1734,617.5058 400.5554,618.3078" id="Fill-456" fill="#162b22"/></g></g></svg>