<svg xmlns="http://www.w3.org/2000/svg" xmlns:xlink="http://www.w3.org/1999/xlink" viewBox="166.04999999999995 129.1500000000001 1143.9 1217.7000000000003" overflow="visible" width="1143.9px" height="1217.7000000000003px"><defs><polygon id="masterspot-illustrationshigh-five-path-1" points="0 0.773335089 129.523946 0.773335089 129.523946 170.242022 0 170.242022"/><polygon id="masterspot-illustrationshigh-five-path-3" points="0.4812 0.687627436 281.6462 0.687627436 281.6462 128 0.4812 128"/><polygon id="masterspot-illustrationshigh-five-path-5" points="0.768589497 0.511366176 96.638 0.511366176 96.638 104.218428 0.768589497 104.218428"/><polygon id="masterspot-illustrationshigh-five-path-7" points="0.3758 0.843 68.3087915 0.843 68.3087915 126.844611 0.3758 126.844611"/></defs><g id="Master/Spot Illustrations/High Five" stroke="none" stroke-width="1" fill="none" fill-rule="evenodd"><g id="Group-351" transform="translate(178.000000, 141.000000)"><path d="M719.5237,1105.1869 C717.5447,1103.6939 717.1907,1104.3159 715.7927,1105.6129 C717.1547,1107.4219 717.6737,1106.2799 719.5237,1105.1869 M714.0757,1110.4399 C712.7307,1103.1119 701.9347,1120.0119 710.2067,1119.6349 C713.5347,1118.4919 713.2037,1113.7779 714.0757,1110.4399 M611.6037,767.8119 C619.6707,768.4429 637.5277,768.5719 645.0427,762.2419 C645.8157,753.9479 660.0377,729.3949 651.6607,729.8809 C637.8467,735.6169 567.6887,772.3399 611.6037,767.8119 M908.2737,899.7629 C908.4967,887.6109 912.5557,871.5749 926.5687,870.1939 C911.5787,856.2329 895.0397,887.3729 898.9197,901.1919 C921.7507,967.9619 1000.3907,875.6469 921.5967,878.4379 C895.2247,888.4459 948.2807,918.6849 934.0267,894.1919 C927.4077,894.1039 934.7947,889.5089 937.9607,888.2739 C962.5167,898.0869 902.8687,939.2599 908.2737,899.7629 M464.1527,937.7159 C490.0827,927.6849 541.5547,924.3929 554.8637,910.8039 C491.0827,882.0149 495.2237,865.6849 464.1527,937.7159 M429.3087,964.7649 C377.2887,975.4419 375.8777,969.1419 380.5527,1024.4389 C384.4277,1053.5689 372.4387,1069.7619 408.7117,1050.7099 C418.4337,1026.1989 421.6697,992.2299 429.3087,964.7649 M650.0847,1112.2979 C722.4707,1114.4249 738.8847,996.0759 664.7957,986.9999 C607.9157,987.1629 579.9237,1035.8169 628.2147,1075.2549 C651.1007,1099.1599 687.4717,1070.3339 679.1377,1044.3439 C673.5217,1019.5939 628.2077,1006.0319 633.7137,1042.6269 C635.1187,1058.5649 670.3887,1060.0329 658.3857,1042.5859 C631.8877,1046.2019 653.5667,1024.0489 662.8937,1031.0219 C674.3437,1042.7309 660.5467,1060.8239 649.1367,1066.9729 C625.3397,1084.1629 605.4977,1038.5389 621.6377,1022.0319 C720.2507,930.5239 730.6697,1119.4109 627.2677,1101.5869 C612.1077,1100.1099 599.2687,1087.4769 603.1377,1072.2609 C586.8887,1091.6019 630.7107,1113.8539 650.0847,1112.2979 M618.2207,841.9969 C637.2827,767.4969 656.2847,789.5049 581.5857,782.7179 C567.3507,781.0119 498.6807,861.0799 508.2257,870.0139 C532.2397,881.4549 556.1307,893.1289 580.0437,904.7619 C593.0017,910.4739 593.1777,890.7899 599.1617,897.0489 C651.4117,934.2179 673.4607,858.0339 618.2207,841.9969 M577.3107,960.9679 C591.7697,956.0619 606.3497,951.4779 620.6547,946.1549 C635.2557,930.1409 691.8937,978.6319 675.0737,954.1459 C625.3677,926.1159 629.1497,921.7199 574.6507,950.0739 C576.6357,944.4279 590.4877,923.0949 577.1747,925.5769 C537.3627,936.3539 497.5317,947.0629 457.7667,958.0099 C444.5457,970.1699 445.2997,994.2219 438.3137,1010.8309 C438.2297,1017.9899 426.1587,1042.9939 438.8777,1039.7139 C463.3537,1031.4439 488.3277,1025.0859 513.9837,1021.8229 C530.7877,1017.1349 558.6997,1027.1989 558.2337,1002.7409 C563.4557,988.3389 567.1727,974.0359 571.2507,959.0309 C574.1177,964.4949 573.4627,960.0729 576.8407,958.6889 C577.2997,959.4459 576.9537,961.9869 577.3107,960.9679 M159.9207,1030.0339 C160.1877,1021.9549 160.4547,1013.8759 160.7207,1005.7979 C193.0617,1001.0179 227.5127,983.0699 257.4137,1004.0379 C234.2397,1010.4959 210.4877,1014.7219 187.0737,1020.2539 C326.2707,1125.9109 236.7427,1145.2359 359.3987,1073.4289 C369.1427,1048.5159 357.0997,1014.0209 359.2977,986.0109 C358.3077,976.6709 345.2237,985.6109 339.3897,985.1989 C344.0557,962.3329 358.4177,967.1529 359.4057,957.0689 C357.7017,943.1469 372.9627,935.4159 379.2957,923.9219 C370.6677,980.3449 397.2467,947.8119 435.3657,944.6449 C452.9477,927.9189 460.0477,900.0509 473.7757,879.4659 C472.8137,867.9719 441.8817,866.8629 431.1397,860.1099 C432.6887,854.2759 437.0297,849.1049 435.3427,842.4939 C513.7957,878.4449 484.3297,838.6499 551.9777,780.0989 C514.0987,756.6039 459.3517,730.2699 438.3797,678.0229 C467.4757,674.0289 501.9537,756.8469 567.6757,762.0889 C591.6697,749.9289 611.9687,727.5189 638.6647,717.7879 C659.6817,733.6129 656.9637,718.2559 664.7097,700.7609 C718.6507,812.8409 826.2767,696.2109 756.2527,627.2369 C740.2467,619.8069 745.5447,610.8369 757.2807,601.6979 C760.1957,599.2249 761.7537,593.0849 767.8087,596.7229 C773.3427,594.0969 764.6627,591.3969 772.0657,588.5399 C783.8807,583.9349 788.3437,571.1639 797.9137,564.7569 C797.4447,560.4219 799.4477,560.2229 802.8657,560.9559 C813.8047,558.2949 800.6387,578.4099 800.6577,585.0869 C793.7957,645.7619 832.6107,707.9919 793.5717,764.2569 C765.3097,767.7459 730.6467,775.5619 705.9957,797.2919 C666.1187,824.4329 694.4997,878.8929 705.2367,914.0939 C700.6637,974.2729 759.4447,1009.3279 798.9597,998.5709 C936.2847,969.7009 832.5837,879.2579 884.4247,851.6619 C902.4827,848.9619 938.3497,820.0419 946.5367,846.6749 C950.9247,850.6319 956.7987,852.1129 958.1897,859.2519 C980.4227,905.4459 993.5487,931.8219 957.8017,974.2699 C968.8797,1001.0279 999.9987,1019.0049 1021.2357,1038.6519 C1030.9577,1045.0489 1011.6007,1049.8169 1013.1947,1056.8699 C1017.8737,1060.3759 1024.6287,1051.6279 1027.1317,1047.3009 C1029.5037,1044.0849 1033.6417,1047.3699 1035.5357,1049.7449 C1060.0437,1066.0839 1044.4827,1076.2689 1023.2917,1084.3699 C1019.4217,1086.0259 1015.7287,1091.1129 1010.8597,1085.9719 C1000.5067,1091.7829 989.1367,1096.4179 978.4197,1101.7019 C974.2087,1064.7359 949.3457,1004.3539 900.4207,1014.9479 C782.1077,1059.3309 922.2527,1139.3639 839.2327,1150.8569 C806.1157,1167.7089 821.6907,1136.3869 817.9597,1113.9499 C815.7557,1089.0529 782.5987,1047.5709 760.1147,1074.8179 C740.7187,1098.1889 723.4617,1114.5969 710.2317,1141.1949 C701.8057,1151.6289 698.9207,1186.8869 680.7867,1171.6369 C669.2637,1168.9539 675.6497,1165.9619 669.9837,1158.3249 C655.6807,1164.2519 635.6447,1132.1899 620.7737,1138.1829 C609.3357,1138.4199 626.6987,1134.8399 618.4527,1130.2359 C609.9117,1119.6529 594.0967,1110.5679 588.8407,1099.5329 C586.7657,1094.1959 579.5387,1096.1879 576.6207,1089.6269 C556.4057,1079.8759 542.8457,1064.6379 547.6847,1040.4599 C518.7877,1029.0609 469.3447,1051.7539 436.2267,1060.2609 C425.3957,1095.9749 459.3067,1139.5659 492.7097,1154.6489 C443.4847,1165.6479 419.5327,1115.5759 414.3307,1073.5849 C411.1187,1063.9399 394.9887,1079.1389 387.9197,1080.3349 C374.9367,1102.8309 414.0207,1160.2089 372.3207,1154.8939 C364.9557,1057.0849 364.7697,1099.7009 297.5427,1135.7999 C295.0017,1141.4719 301.6837,1148.0709 303.5177,1153.4619 C287.5397,1150.1529 271.2697,1153.8249 255.0087,1149.4109 C303.3677,1124.7169 187.4717,1042.4129 159.9207,1030.0339" id="Fill-1" fill="#00684a"/><path d="M822.468,787.507 C825.571,783.863 825.797,780.604 822.087,779.196 C815.476,781.744 816.503,783.28 822.468,787.507 M856.654,610.817 C850.579,605.392 849.532,607.139 846.733,612.653 C849.524,617.394 851.968,614.245 856.654,610.817 M776.42,936.35 C849.42,936.814 848.236,840.191 782.185,834.321 C704.626,832.465 771.003,939.453 794.213,880.653 C795.791,869.016 766.803,847.767 775.205,869.077 C787.13,882.909 740.623,892.255 763.38,861.516 C839.482,810.224 833.9,934.168 756.663,919.819 C727.954,918.079 734.006,877.542 735.838,857.268 C738.964,827.718 766.646,814.726 788.364,799.663 C713.478,795.848 693.871,932.205 776.42,936.35 M891.266,686.863 C939.144,658.456 931.697,715.807 892.291,721.553 C861.351,726.944 861.555,680.783 880.24,666.358 C886.662,658.547 898.667,653.261 902.515,644.17 C880.4,642.101 847.709,672.817 858.088,696.935 C867.63,718.986 885.734,750.301 913.602,734.836 C977.247,713.839 899.388,621.699 878.549,681.737 C876.613,701.785 920.31,721.427 904.552,691.445 C902.731,688.871 901.299,686.298 897.924,690.354 C894.453,692.559 889.53,692.618 891.266,686.863 M1086.099,802.108 C1090.668,803.061 1092.78,807.684 1090.734,811.683 C1114.388,839.529 1083.491,828.64 1063.153,831.22 C970.35,846.273 1025.693,961.915 1081.959,972.13 C1098.922,961.449 1052.614,1045.027 1052.435,1054.927 C1034.264,1023.982 991.489,1009.2 975.751,980.065 C1016.03,931.724 971.279,865.53 939.125,825.169 C924.296,809.638 849.869,841.334 857.06,868.568 C858.853,875.677 858.356,883.659 858.973,889.881 C882.829,932.341 836.308,973.666 795.635,978.936 C730.387,995.402 720.252,961.3 710.122,905.857 C705.264,877.584 684.62,845.322 705.434,819.18 C716.787,803.113 767.988,771.074 783.904,776.997 C786.553,768.08 804.562,780.815 800.786,769.556 C807.607,767.25 811.765,756.833 817.038,753.321 C822.983,753.754 821.864,751.639 819.717,748.236 C825.098,724.615 826.454,700.717 822.112,676.665 C818.091,649.543 806.23,622.389 817.168,595.302 C821.376,586.232 823.462,563.293 834.927,564.117 C831.797,571.696 834.82,570.338 839.234,567.141 C855.112,573.54 869.451,584.748 882.905,592.085 C907.259,594.036 908.609,606.524 911.898,599.357 C948.915,610.097 986.943,622.454 1021.81,638.087 C1058.962,669.611 972.503,643.953 969.78,688.245 C960.971,725.974 958.064,764.77 974.188,800.868 C997.311,828.931 1041.603,805.22 1072.772,805.113 C1077.882,802.066 1075.176,811.091 1077.599,814.372 C1100.907,806.773 1074.357,804.856 1086.099,802.108" id="Fill-3" fill="#00684a"/><path d="M240.9612,824.5407 C240.7272,824.3807 240.6282,824.2607 240.6152,824.6367 L240.9612,824.5407 Z M122.8052,830.2237 C122.6072,830.4897 122.5862,830.5367 122.9422,830.5397 C122.9422,830.5407 122.8052,830.2237 122.8052,830.2237 L122.8052,830.2237 Z M270.8972,633.2707 C270.7032,633.5127 270.6632,633.5647 271.0082,633.5837 L270.8972,633.2707 Z M240.1522,903.7547 C239.8022,902.9967 239.1302,904.2597 239.7692,904.5167 C239.8982,904.2637 240.0252,904.0097 240.1522,903.7547 L240.1522,903.7547 Z M265.1722,899.1067 C265.0112,898.7567 264.8672,898.1357 264.5552,898.6607 C264.6902,899.0577 264.7522,899.6187 265.1722,899.1067 L265.1722,899.1067 Z M122.6392,864.4107 C122.9062,864.9767 123.2892,864.6177 123.7242,864.4977 C123.4652,863.9777 123.0662,864.3037 122.6392,864.4107 L122.6392,864.4107 Z M256.1642,785.5097 C251.6112,783.1587 250.1082,780.2897 246.5622,784.2327 C250.4562,788.5737 251.1132,791.5277 256.1642,785.5097 L256.1642,785.5097 Z M244.3222,765.9517 C246.5022,769.3517 243.2412,760.3517 241.3232,764.9467 C246.7412,735.9527 220.3992,748.5967 203.5852,753.1327 C193.3612,755.6037 180.2042,758.0887 166.3752,763.7657 C151.7192,772.6787 155.6322,830.6857 151.9942,849.9257 C147.5962,865.8197 151.9072,881.8077 147.4972,897.5197 C146.3372,907.0117 139.0012,937.6437 155.2392,919.6687 C158.4482,917.3527 159.6522,911.5517 165.5132,913.6077 C170.2382,905.1407 176.3602,897.8037 184.2932,891.6127 C188.1972,887.6597 190.7542,881.7447 198.0362,883.5607 C208.9402,872.0297 220.0872,860.0257 233.9662,851.3987 C248.2492,829.1947 231.4002,782.4757 244.3222,765.9517 L244.3222,765.9517 Z M257.4162,1004.0377 C244.9962,1001.6827 233.6872,982.6977 245.3332,973.9607 C239.5442,960.1667 239.4792,928.8937 238.5772,906.7937 C246.6362,866.2897 222.1592,906.5827 204.9072,913.5787 C197.2782,922.3897 185.6322,932.6227 174.9342,940.5367 C169.4482,944.5577 166.9882,953.1667 157.9022,951.8117 C152.0452,962.6847 146.6042,961.9157 135.3302,957.2337 C125.1582,953.8287 111.3662,953.6867 116.8412,939.5727 C120.0822,922.1637 117.1462,904.5097 120.7812,887.3727 C123.3092,879.3547 117.3822,802.2627 127.9072,808.8267 C132.9672,807.4497 124.6032,803.2537 124.8992,800.8717 C124.9852,796.0177 125.9492,791.1787 126.5802,786.3337 C126.6392,785.8857 126.7432,785.4437 126.8262,784.9987 C131.1902,786.4157 128.2812,783.6477 128.1432,782.6227 C131.8362,764.0487 83.0052,793.3617 70.6952,792.8237 C43.4452,792.9857 17.9132,827.5017 32.9752,784.8327 C37.6132,750.3027 85.0802,756.1047 108.3892,737.9617 C116.3892,730.8567 129.7252,734.7807 132.2302,725.4087 C136.7722,700.8967 135.8842,675.6147 143.7222,652.3977 C137.4332,634.2557 156.3482,622.3087 172.1692,618.2437 C163.3812,648.3277 171.1322,683.8777 161.1452,711.0777 C165.6072,712.2127 163.4602,715.9937 164.2872,718.5847 C175.3462,719.0167 190.5862,711.8927 201.8962,708.5187 C206.5372,706.6927 210.9232,708.4867 214.3732,704.6597 C218.4232,703.8307 223.3632,706.1147 226.2762,701.0987 C232.0322,698.3467 242.4802,703.1147 244.0882,693.6797 C244.4412,685.6267 243.6492,676.9857 246.9572,669.9927 C246.6592,661.3417 243.8112,641.6667 250.3702,638.1257 C257.5972,634.6897 244.1382,631.6447 250.3362,627.1467 C244.9892,602.0597 245.8012,593.5297 271.4222,590.7877 C276.0042,623.8287 265.1732,660.1707 273.4022,691.4937 C279.5472,684.1517 293.4502,686.4107 303.1102,680.5407 C314.9052,676.8137 328.5192,676.4297 340.2182,673.1867 C341.5632,677.2277 341.3772,676.9567 344.9842,674.4797 C360.6462,666.1077 374.1852,666.5817 367.3152,688.4287 C366.4302,679.1957 361.0602,693.3417 368.3152,691.7037 C382.5502,696.9917 383.2362,718.9917 364.7752,712.6687 C358.3722,716.5137 353.0852,718.1597 346.6172,715.3437 C335.4412,718.8007 324.4352,729.0757 312.5202,725.6517 C310.8072,731.0677 305.5372,727.6417 303.0192,731.0127 C298.1692,727.8807 294.0202,737.4337 289.0062,731.8077 C285.1182,737.0737 278.8692,738.5467 273.5562,737.9597 C263.8722,739.4117 267.5012,784.7637 269.6302,794.3317 C271.1332,800.7407 261.4402,826.2677 274.3472,818.9427 L274.2792,819.0077 C307.3152,787.7397 352.6882,759.0327 387.4152,737.0157 C398.3792,744.4367 408.8732,767.6457 390.5542,771.9667 C388.1672,773.5157 383.9662,773.6767 385.0112,778.2957 C381.9102,777.2297 373.3832,786.9787 377.0452,780.0117 C354.8972,800.0087 266.8282,849.0407 268.1292,873.9327 C267.4252,894.7037 270.0232,916.5167 268.0392,936.6967 C271.0122,948.7967 270.3162,963.9927 271.1372,982.0177 C271.2202,996.0977 275.1732,1008.6777 257.4162,1004.0377 L257.4162,1004.0377 Z" id="Fill-5" fill="#00684a"/><path d="M363.0813,372.3683 C362.8753,372.0223 362.5703,371.9793 362.4503,372.3683 C362.5703,372.7553 362.8753,372.7143 363.0813,372.3683 M354.2133,494.9753 C366.2033,496.0863 364.9243,471.8833 358.2183,483.7773 C358.0233,486.1183 359.3973,488.9583 355.4043,489.9293 C354.5483,490.2363 351.4863,494.8673 354.2133,494.9753 M382.4273,462.0963 C397.8413,484.8503 387.1083,433.1753 372.6603,459.3223 C368.3073,461.7123 371.6463,467.4233 375.0883,468.7473 C375.2053,462.3013 377.9743,454.2413 382.4273,462.0963 M332.6103,349.0643 C338.5943,359.2513 345.8173,399.6193 355.0003,373.2983 C358.1953,370.1183 365.7313,371.8173 365.8523,366.7103 C361.0993,355.9423 337.3833,336.2653 352.2273,359.5943 C348.7993,364.1753 338.8483,362.1403 341.7113,356.4273 C338.4243,351.5363 335.9453,351.3393 342.1443,347.9623 C334.1913,344.1373 330.5473,331.7373 332.6103,349.0643 M377.5063,381.1423 C390.0743,381.2133 389.7093,369.3883 376.0723,372.5653 C367.8593,370.9553 371.7903,378.7223 377.4383,379.5883 C374.3693,382.6193 377.3943,387.0843 377.5063,381.1423 M271.4193,590.7823 C239.9803,606.3523 359.4983,462.8983 366.9733,446.3363 C359.0813,422.7093 280.0923,319.4723 342.5933,319.7303 C355.0943,319.3063 374.5893,360.3453 376.7373,344.2663 C362.8863,306.4543 367.3753,143.8363 421.3803,244.9663 C430.4163,248.3813 428.2383,193.0613 452.0103,211.3613 C465.6193,221.8143 467.5323,238.6063 474.4483,253.0253 C484.8793,247.1083 496.5113,225.1523 508.4823,245.8243 C519.9343,256.6833 505.7593,301.2153 524.6683,293.3213 C528.5923,292.0613 537.3733,296.5393 539.0493,301.5223 C549.8353,353.2793 524.0553,409.0393 493.9713,450.0923 C484.3943,469.1383 458.7703,469.7403 451.3493,488.1663 C419.5073,542.3033 389.9383,597.9953 356.5223,651.0733 C344.1843,634.0323 368.6783,608.3963 379.6243,593.2533 C382.7513,574.3733 401.2743,555.5083 408.8213,535.8363 C426.9933,512.6833 435.4383,476.6053 458.4733,459.6193 C502.4353,437.4903 512.8733,373.4603 529.6583,329.7813 C531.3823,314.7153 523.4653,293.0873 512.7033,315.3323 C514.2203,325.7293 498.8743,354.2463 496.2103,330.4203 C498.8793,305.6603 508.2293,269.0423 493.1933,249.2613 C470.1823,270.0553 485.3543,305.6143 477.9683,333.0023 C450.1473,362.5703 472.3253,284.9213 459.4563,285.1593 C452.3813,271.5563 464.1743,285.1413 463.3873,277.0333 C459.5613,261.6303 459.4573,243.1393 447.3313,231.8693 C442.2943,205.6233 430.6483,258.1823 433.8913,269.5373 C435.4973,279.2493 437.1943,288.0883 437.0343,298.5883 C435.7923,307.3683 442.2763,318.0193 438.9843,328.7873 C428.4533,345.6063 425.8313,319.0513 419.1753,316.6103 C422.4143,308.9123 421.1373,302.0843 418.3483,294.4503 C416.7243,288.4653 410.4263,293.6373 410.9923,297.8613 C404.6673,297.0353 402.5183,276.9133 410.8653,274.9693 C411.5213,259.8193 405.4353,239.0373 392.5083,229.9053 C383.4743,243.8753 371.0743,302.8133 394.1773,307.6153 C395.1893,309.2273 396.0583,315.3943 392.6693,314.9863 C385.8563,316.7453 392.3513,320.5463 389.2683,323.9063 C375.0113,321.3643 394.5593,352.2403 388.6763,357.1393 C391.3963,362.0893 397.9523,358.1633 401.8683,359.5883 C409.5763,360.5983 417.5663,361.1623 420.8573,353.2903 C416.7393,370.5443 442.2693,372.2833 446.4143,389.6313 C446.5033,411.6523 428.6003,388.7253 420.8003,382.9533 C417.0083,381.9793 415.4653,374.9043 412.1523,378.2383 C406.7483,382.2553 412.2523,385.8493 411.8003,390.2663 C408.2643,391.3703 406.0363,388.5223 402.7093,388.2683 C420.9503,376.6563 386.1313,363.6193 392.4263,381.5713 C395.1373,383.3103 404.9083,387.0193 397.0163,389.0493 C398.4353,395.6783 416.0133,393.0143 396.0643,404.9343 C402.6853,401.7943 394.0183,399.5443 391.7973,403.4253 C385.5463,406.4223 384.8483,400.6903 384.9373,395.9273 C395.1633,398.5513 394.8253,380.5603 380.6573,388.5313 C380.8773,395.3103 372.4903,390.9083 371.4043,396.1743 C372.2663,399.0463 372.4933,398.9773 370.2403,401.5033 C364.3883,398.0373 373.6033,390.9433 372.0203,385.8363 C369.4253,387.4693 365.6793,385.9373 364.6473,383.0713 C355.6183,384.8043 366.1103,406.1803 359.8223,397.8593 C353.2043,391.8633 360.5533,390.0883 357.5703,386.1973 C341.8203,392.7913 369.3623,428.6533 376.0143,439.2393 C378.2283,441.7343 384.1133,438.4233 388.0223,439.5033 C387.2023,437.0243 383.5983,436.7053 385.1933,433.1603 C384.7693,422.8953 395.4553,423.0643 398.8823,431.2583 C403.0203,441.1263 392.3063,447.8993 395.0243,457.6373 C399.8523,459.1553 397.1633,460.7773 402.9153,457.9163 C403.2703,460.6823 410.1243,461.4113 405.4233,465.8433 C405.7733,469.5603 406.4533,474.9883 401.8753,473.6543 C394.1983,468.7663 397.1333,481.3773 389.1993,479.8163 C395.2333,473.9883 388.9513,469.8263 386.0053,477.1123 C384.9433,479.8803 388.4423,489.3633 383.0673,487.1213 C383.0403,482.9903 388.3753,481.5133 382.4563,478.4773 C378.6393,471.7273 379.4663,475.2033 374.5543,477.5053 C370.4943,476.9863 371.2523,479.9813 371.4673,481.4543 C372.8563,485.8303 363.9573,486.3023 368.7943,491.3863 C360.6813,488.2693 364.9963,491.5783 367.6503,495.4733 C360.5413,516.0393 354.3443,470.6173 322.9673,532.1093 C318.1453,537.8953 264.1993,603.0093 297.4703,575.1773 C302.5743,563.2773 303.2633,579.2043 309.3903,575.9843 C310.8643,569.4563 312.8723,572.6623 317.8993,571.8553 C328.3583,569.5133 325.4583,566.8053 327.0393,561.8253 C335.2213,560.4963 335.1783,568.5253 340.0523,573.0963 C336.5423,573.9763 328.8163,578.4693 328.7003,580.3703 C330.3313,587.2423 321.4023,590.3773 317.6153,587.4213 C313.1773,578.9893 302.7043,577.4863 294.6593,580.8033 C286.6103,582.8953 280.1453,593.8113 271.4193,590.7823" id="Fill-7" fill="#CA9627"/><path d="M621.4768,381.2926 C621.6758,381.6936 621.8828,382.2006 622.1358,381.6356 C621.9978,381.2056 621.8658,380.7766 621.4768,381.2926 M687.8168,168.9646 C687.2968,169.2416 687.6138,169.5446 687.8058,169.9296 C688.3228,169.6546 688.0188,169.3446 687.8168,168.9646 M738.9088,582.1856 C735.5048,580.6836 734.2888,578.4496 731.3728,580.5326 C734.3868,581.8076 735.3888,585.1256 738.9088,582.1856 M630.4098,366.7886 C626.1608,369.0236 635.5948,374.1646 639.0188,375.4296 C635.1688,377.3036 634.7888,381.3576 638.3728,382.5166 C643.9488,380.1456 642.7488,386.2526 646.9138,387.3716 C646.7968,376.1126 640.4608,370.6016 630.4098,366.7886 M631.8098,381.1046 C621.9478,384.2446 631.3188,395.2856 637.3258,395.7126 C650.9888,384.8736 638.6258,388.2446 631.8098,381.1046 M611.3728,381.9126 C605.1188,370.4736 619.2978,395.8266 623.1328,400.9176 C625.2958,399.0006 625.3908,394.3346 630.0408,395.7146 C625.3698,390.3966 625.5138,378.1656 618.2718,388.8936 C619.7608,383.1936 619.8728,379.1816 612.9528,376.0686 C612.7818,378.2996 614.5718,381.3686 611.3728,381.9126 M664.4598,249.7276 C664.3168,251.8406 662.0488,254.5536 664.7618,255.7236 C664.6928,253.7216 664.8078,251.7066 664.4598,249.7276 M736.4118,617.0866 C706.2548,562.5016 690.8628,496.6046 656.5428,446.0876 C612.6968,419.7496 585.4828,377.4896 573.3818,330.6746 C564.0028,292.2056 593.8888,326.3656 573.8068,273.6346 C570.4648,258.4246 574.9978,238.4586 592.8558,235.4186 C595.4978,234.4046 598.4778,234.6526 598.0168,229.6386 C586.2638,192.0536 640.9748,151.5826 650.9488,203.6736 C655.1278,218.8436 656.9088,235.6106 663.6068,249.7106 C666.9208,223.7546 656.2738,191.1406 679.8198,172.1486 C737.8438,158.8886 711.6718,271.5326 728.8758,304.8526 C740.8418,287.3266 747.1188,255.3206 774.0368,259.1336 C785.0248,260.0076 796.5258,270.6436 792.4488,283.4796 C771.3758,367.4556 723.6308,400.7236 784.6368,484.5816 C795.2868,506.9816 808.2328,528.2116 819.0678,550.4876 C814.6018,551.0046 809.5388,549.2356 806.1458,553.8616 C794.9168,544.5886 789.4098,523.2076 783.1288,508.6206 C768.9378,486.8986 756.0818,461.2886 748.3768,436.4226 C728.2088,409.1436 750.6888,372.0806 759.1428,343.8046 C759.5308,329.0866 794.5488,274.4046 770.8608,274.5726 C751.7918,277.5776 750.3878,301.9516 739.2458,315.0426 C733.0928,321.3806 737.6478,327.9986 736.9248,334.8966 C729.0018,349.6876 725.9298,341.0096 715.4058,349.5816 C705.0698,352.5096 691.9768,385.8716 684.4558,374.0516 C687.8148,351.1576 709.4438,341.1876 722.4828,326.1556 C709.5568,289.7866 707.7848,250.9766 706.6358,212.3476 C667.9068,123.0296 672.4008,274.3776 681.0798,300.5086 C670.8308,313.8716 656.5038,261.1856 651.5068,250.6826 C645.4028,231.4966 634.9468,159.6046 610.7998,207.0596 C602.7968,224.8186 621.0398,234.4056 611.4018,235.9096 C610.1678,246.9256 619.0318,256.7216 615.2778,266.1896 C622.5568,281.6076 628.4658,296.5626 633.2318,312.2516 C634.9888,319.2726 628.7318,320.8946 625.0658,316.9586 C623.7828,309.7486 610.9138,308.5626 615.6458,298.5706 C611.5738,289.0996 608.0958,279.0166 604.8568,269.1596 C603.0498,236.9186 586.4458,250.4776 589.8648,273.4726 C588.3728,297.1566 622.9968,336.0266 615.1478,347.0006 C601.5858,349.1746 599.2628,332.7446 592.3958,324.2956 C581.5978,311.9946 592.6218,341.5706 593.4798,348.2566 C595.4708,351.6276 600.3528,350.9426 603.4078,348.6906 C604.7428,361.2476 595.3788,360.3316 605.2878,372.9906 C606.1478,369.5266 609.6478,365.4626 606.7818,362.1546 C601.4068,358.2326 612.7018,353.3106 614.1838,358.8306 C617.5738,364.2436 618.7348,357.7956 621.0548,356.0646 C622.9858,361.1866 628.5058,356.6076 626.7428,363.1536 C628.0558,368.9176 635.3618,358.5616 627.5118,351.5456 C619.3338,347.1856 627.3748,341.4476 631.5688,338.7596 C631.7898,344.6006 637.4998,352.8356 643.6958,348.0036 C632.9838,346.6746 642.4878,331.5966 650.3188,334.2876 C646.0018,341.8966 649.0778,346.4476 649.2168,354.3466 C650.2938,358.4326 656.0728,359.9676 651.2758,364.3606 C651.4778,368.6816 676.5658,357.0726 664.5528,365.7086 C657.4038,364.4736 663.6528,375.1566 653.6908,371.2616 C657.1648,377.3376 657.6778,381.6106 652.4718,384.4806 C646.4558,388.6886 650.3328,390.2106 650.2868,396.2926 C642.0418,396.0456 645.5378,409.7436 645.6638,413.2206 C651.3298,416.2476 643.5168,419.4496 647.1418,422.9946 C678.5648,454.5076 674.4848,429.5266 688.5808,439.8126 C695.4018,447.2816 680.2988,441.8576 687.1608,448.9596 C691.3188,456.4146 687.0268,454.8696 683.5068,450.1026 C673.8648,452.3826 675.1358,464.0376 681.0128,469.7536 C683.3088,472.8846 686.6158,468.6026 687.4488,466.7146 C690.1978,459.6886 696.8598,476.0956 704.8798,467.8176 C711.3988,468.6606 703.7098,474.9366 704.8398,478.1176 C714.2418,488.4936 694.8908,491.7986 692.1568,494.2876 C690.5218,500.6996 699.3148,500.9806 700.2588,510.0246 C700.8258,514.3466 703.5278,513.5786 707.1608,512.4416 C703.9978,510.7376 698.5988,511.2556 701.5438,507.5066 C712.9848,508.7426 717.9458,521.5466 704.4128,516.0976 C702.3238,520.0096 714.5418,540.9866 711.5418,534.7106 C718.3728,547.8246 722.4288,565.7426 731.0908,578.8486 C728.9868,576.0486 734.3668,575.5676 734.5308,574.2246 C734.2078,561.7246 745.0458,583.7526 734.3188,584.6916 C734.0908,594.8896 753.8748,614.0636 736.4118,617.0866" id="Fill-9" fill="#CA9627"/><path d="M806.1458,553.8615 C829.4548,540.4145 869.8018,590.4375 899.5668,591.8045 C928.3928,596.6995 956.1248,612.6825 985.6468,618.5405 C1014.2708,627.4465 1039.4278,640.7985 1041.0228,673.9785 C1036.2078,668.7785 1035.9008,665.4835 1029.0148,671.1895 C1021.2458,670.2635 1014.7838,672.9785 1007.6268,675.9585 C966.3048,689.7235 974.6858,751.7825 980.6928,786.1045 C1007.2278,791.1195 1037.1638,783.3775 1064.4928,781.6645 C1068.6678,782.8565 1074.0328,777.1765 1078.2708,779.0185 C1081.0468,786.5505 1093.5298,800.9215 1080.9428,804.1475 C1093.3378,805.8365 1085.0948,812.8765 1077.5968,814.3705 C1075.2268,811.1015 1077.8568,802.0585 1072.7738,805.1065 C1041.6648,805.2275 997.2578,828.9235 974.1848,800.8745 C958.0588,764.7715 960.9748,725.9715 969.7798,688.2425 C970.6098,642.2505 1078.7038,671.0505 1006.9988,630.7555 C975.4538,619.8545 943.8288,608.2715 911.8988,599.3505 C908.6458,605.5665 907.3948,599.3955 905.2888,598.3855 C899.7558,593.3735 887.3668,594.4605 882.9028,592.0875 C869.4518,584.7235 855.0998,573.5305 839.2338,567.1395 C834.8198,570.3375 831.7968,571.6955 834.9308,564.1215 C834.9608,564.0485 833.9778,563.2735 833.5878,563.3605 C793.5418,602.9275 826.3848,664.5565 824.9518,713.7765 C824.7888,725.2275 821.0568,736.9245 819.7168,748.2355 C821.8638,751.6395 822.9828,753.7545 817.0398,753.3215 C811.8138,756.8485 807.5828,767.2405 800.7858,769.5545 C804.4808,780.8195 786.5748,768.0735 783.9058,777.0005 C778.3518,774.4045 773.7398,775.4695 768.6698,778.3505 C662.6858,816.4755 702.0388,864.9885 722.1608,954.0325 C745.6348,1022.6765 900.6708,958.5365 858.9738,889.8815 C856.6468,871.1775 854.5738,844.5435 878.1918,836.6395 C897.0688,832.8825 921.8288,810.6055 939.1218,825.1645 C1051.4228,966.0315 940.6548,967.3565 993.9258,1000.9645 C1016.7918,1010.4715 1089.4738,1094.6495 1030.9358,1046.0305 C1024.9378,1047.3685 1022.1578,1055.7975 1015.8188,1058.2885 C1007.9108,1055.9575 1019.0478,1049.0105 1021.6518,1046.1985 C1028.0418,1032.8175 957.4108,995.7585 957.8138,974.2725 C993.5348,931.7875 980.4428,905.3485 958.1848,859.2485 C956.7738,852.0485 950.9448,850.6765 946.5338,846.6835 C938.4208,819.9135 902.3888,849.1615 884.4308,851.6575 C832.4998,879.5205 936.3948,969.5365 798.9588,998.5705 C759.1178,1009.4635 698.8318,973.1355 705.6778,912.3495 C669.1308,836.7665 680.9258,789.9025 766.3018,767.7425 C781.0148,762.9035 792.5068,774.9625 796.0948,755.9555 C838.5688,695.1185 779.3348,623.1575 807.6488,558.6705 C806.1278,564.0035 796.4808,556.8325 797.9138,564.7565 C788.3438,571.1605 783.8768,583.9415 772.0638,588.5395 C764.9568,591.0725 773.0668,594.4975 767.8088,596.7235 C758.1148,594.0185 748.9938,610.6705 744.0828,617.9105 C734.6918,609.6785 764.7268,597.7675 769.9828,587.3205 C781.4308,578.0875 798.8848,552.2315 806.1458,553.8615" id="Fill-11" fill="#00684a"/><g id="Group-15" transform="translate(0.000000, 775.160000)"><mask id="masterspot-illustrationshigh-five-mask-2" fill="#fff"><use xlink:href="#masterspot-illustrationshigh-five-path-1"/></mask><g id="Clip-14"/><path d="M26.8586,30.8397 C45.6266,24.5917 69.2416,18.9157 89.1076,11.5537 C96.6866,11.1807 127.3616,-4.9313 127.2896,2.9337 C126.2666,5.3397 132.2296,11.6267 126.8286,9.8397 C126.0106,15.1017 125.0536,20.4177 124.8986,25.7117 C124.6616,28.0217 132.9136,32.3557 127.9106,33.6687 C117.2426,34.4427 123.9136,73.0377 120.7486,83.7017 C126.2666,84.2347 122.2146,85.9587 121.9046,88.2397 C119.6406,113.6817 119.5266,138.9587 116.8386,164.4137 C114.5466,187.7197 26.7366,134.0897 6.2006,126.8297 C-14.1464,101.0927 21.6516,59.7097 26.8586,30.8397" id="Fill-13" fill="#144936" mask="url(#masterspot-illustrationshigh-five-mask-2)"/></g><path d="M402.3606,764.9548 C391.9976,738.5108 396.7086,680.2918 431.8396,679.3438 C465.9016,709.5288 493.9656,763.3508 550.5526,775.1178 C553.786108,776.2038 555.1706,776.9408 551.9736,780.0978 C528.3356,803.4548 507.6006,829.2538 488.7506,856.5648 C416.3966,858.0528 431.9856,808.0708 402.3606,764.9548" id="Fill-16" fill="#162b22"/><path d="M492.7092,1154.6486 C459.3192,1139.5896 425.3572,1095.9576 436.2212,1060.2676 C469.3212,1051.7206 518.7542,1029.0806 547.6802,1040.4536 C541.4302,1077.8786 567.9852,1080.7636 588.8492,1099.5286 C594.0812,1110.5756 609.9382,1119.6416 618.4492,1130.2386 C608.5692,1162.4256 524.5952,1154.2546 492.7092,1154.6486" id="Fill-18" fill="#162b22"/><path d="M638.6624,717.7841 C611.9734,727.5181 591.6634,749.9291 567.6714,762.1081 C525.5924,750.3681 458.3914,712.2611 457.9224,672.3371 C506.8034,667.1511 568.9044,629.9681 607.0014,675.9201 C615.3994,687.8311 639.6984,702.6801 638.6624,717.7841" id="Fill-20" fill="#162b22"/><path d="M248.4475,596.9423 C248.8625,610.5633 246.7545,626.1183 252.5835,636.1423 C250.7165,639.8863 245.7675,636.2693 247.7095,642.0283 C246.3745,651.2093 245.2405,660.5793 246.9565,669.9923 C243.6285,676.9813 244.4565,685.6313 244.0915,693.6803 C242.4725,703.1073 232.0375,698.3523 226.2755,701.0983 C223.3635,706.1143 218.4235,703.8303 214.3755,704.6613 C200.2315,709.3773 179.6745,717.5763 164.2885,718.5903 C164.4605,714.0173 163.7525,713.0633 160.7705,709.7843 C171.6895,696.0923 161.6915,675.0853 167.5615,658.4493 C157.7595,605.5403 210.7895,608.7183 248.4475,596.9423" id="Fill-22" fill="#144936"/><path d="M154.3997,627.7451 C142.1557,630.0901 141.8037,643.6091 143.7157,652.3971 C142.6067,664.2151 135.0197,675.0641 136.8497,687.9591 C132.2167,700.8491 141.1247,730.4831 122.7367,731.5981 C96.0687,743.9101 68.8697,755.5901 40.7707,765.0041 C42.8787,742.8711 55.1147,723.0721 62.2537,702.7271 C73.5967,686.6361 70.4147,664.2621 85.5027,650.5961 C90.7337,653.9851 85.8797,641.8081 94.9527,642.5781 C115.5247,640.6471 133.0457,626.1741 154.3997,627.7451" id="Fill-24" fill="#144936"/><path d="M271.4192,590.7819 C280.1262,593.7919 286.6262,582.9089 294.6592,580.8049 C317.6152,573.3429 330.5182,599.2919 338.0422,617.3449 C342.0622,634.2109 371.5412,660.1369 357.3492,669.5809 C352.1672,661.6659 344.9522,668.8779 340.2182,673.1859 C333.0052,677.0619 325.0932,673.3439 317.5902,677.6159 C243.1182,697.2659 279.1672,699.5899 271.4192,590.7819" id="Fill-26" fill="#144936"/><path d="M159.9211,1030.0339 C201.6341,1052.7219 257.2861,1092.3139 268.5931,1136.2799 C244.2421,1165.7889 188.3821,1131.3109 171.7361,1104.6189 C157.7011,1082.6559 158.8031,1055.3959 159.9211,1030.0339" id="Fill-28" fill="#162b22"/><g id="Group-32" transform="translate(593.000000, 1064.160000)"><mask id="masterspot-illustrationshigh-five-mask-4" fill="#fff"><use xlink:href="#masterspot-illustrationshigh-five-path-3"/></mask><g id="Clip-31"/><path d="M76.0842,97.7269 C75.9192,97.4109 75.7302,97.3919 75.5142,97.6769 C75.7502,97.9339 75.9992,98.2599 76.0842,97.7269 M202.3552,32.9389 C192.1362,5.3929 124.1102,99.8969 118.6352,116.0719 C111.1262,146.2579 178.2882,109.9629 189.0332,107.2099 C205.0612,88.9359 194.0492,55.7929 202.3552,32.9389 M0.4812,85.5169 C48.1852,54.8269 41.2192,92.4839 76.9812,94.1699 C77.9992,95.5829 80.1742,97.3829 79.8522,98.3549 C75.2472,104.3479 96.5032,114.0559 99.9382,110.6559 C118.8822,72.9099 137.4542,40.8879 167.1192,10.6629 C173.0092,3.2799 187.8022,-4.4531 194.1472,5.2079 C226.5112,21.7029 227.8952,57.3569 224.3072,89.1679 C233.8972,99.3509 265.4842,72.3859 281.6462,77.3539 C248.3962,89.6649 212.5092,99.6529 180.1162,114.7329 C143.6362,136.4069 108.9322,130.4139 76.6462,104.3249 C54.7832,89.4359 31.2822,63.5289 5.8042,86.8929 C3.5502,88.4739 0.9562,90.9879 0.4812,85.5169" id="Fill-30" fill="#00684a" mask="url(#masterspot-illustrationshigh-five-mask-4)"/></g><g id="Group-35" transform="translate(1023.000000, 841.160000)"><mask id="masterspot-illustrationshigh-five-mask-6" fill="#fff"><use xlink:href="#masterspot-illustrationshigh-five-path-5"/></mask><g id="Clip-34"/><path d="M83.594,2.5702 C92.139,13.4782 95.316,26.2852 96.638,39.7202 C79.608,33.3792 33.024,12.8182 28.217,47.2102 C26.028,104.6652 94.904,85.7772 59.75,60.9552 C54.368,64.8582 38.74,72.7462 37.151,61.8332 C39.544,36.7092 78.295,46.6252 93.876,54.3142 C87.115,69.3872 86.834,88.8892 74.74,100.4452 C-30.424,129.4012 -19.853,-18.4728 83.594,2.5702" id="Fill-33" fill="#00684a" mask="url(#masterspot-illustrationshigh-five-mask-6)"/></g><path d="M669.8352,679.885 C675.2892,656.6 689.1292,707.42 705.8662,709.549 C736.4702,726.246 761.7582,666.849 726.7152,655.657 C699.9802,644.892 712.2282,689.034 724.4122,672.656 C725.7252,669.928 727.6492,667.152 731.0032,666.93 C735.0542,683.32 709.5802,711.469 695.9942,694.84 C662.7802,654.723 757.7132,590.315 763.5862,652.912 C774.6742,730.735 682.6002,777.328 669.8352,679.885" id="Fill-36" fill="#00684a"/><path d="M943.7678,1111.457 C862.1078,1151.192 900.6938,1047.374 925.2678,1090.55 C941.3468,1095.164 920.7468,1070.348 915.0348,1067.394 C889.7668,1048.342 865.7618,1089.888 882.0378,1110.17 C894.0678,1125.497 905.0418,1127.982 887.9678,1133.463 C872.1958,1147.889 872.1108,1100.945 866.7638,1090.151 C858.8548,1057.915 895.4208,1034.723 923.6968,1032.29 C959.2988,1027.98 969.4658,1091.508 943.7678,1111.457" id="Fill-38" fill="#00684a"/><path d="M245.3333,973.9611 C235.9233,977.8481 243.8253,989.5581 243.5003,996.9551 C215.2423,989.0141 187.9893,977.4301 160.0743,967.0451 C137.2683,957.6171 169.6303,950.8831 174.9333,940.5351 C186.4153,932.6991 195.3243,922.7331 205.3463,913.9381 L205.2833,914.0021 C222.9123,904.2271 246.6193,867.7181 238.5723,906.7941 C239.0713,928.5881 240.3013,961.1721 245.0473,973.7481 C245.1433,973.8191 245.2373,973.8901 245.3333,973.9611" id="Fill-40" fill="#144936"/><g id="Group-44" transform="translate(464.000000, 0.160000)"><mask id="masterspot-illustrationshigh-five-mask-8" fill="#fff"><use xlink:href="#masterspot-illustrationshigh-five-path-7"/></mask><g id="Clip-43"/><path d="M7.8918,0.8429 C67.5328,12.8239 96.9718,16.3959 29.9078,49.0379 C72.9548,60.2969 84.7468,80.8099 35.6728,96.5389 C42.2668,101.9889 50.3048,105.3559 57.3388,110.1859 C68.1918,116.4499 56.2728,132.0519 46.6898,125.0929 C27.2938,115.6239 -4.7652,94.1759 29.5938,79.9699 C32.9478,76.5829 51.3098,74.5439 42.8428,69.8699 C29.9438,61.2359 5.3608,66.1759 0.3758,48.9929 C1.4488,37.7689 36.9378,29.7419 47.0858,23.2789 C38.0118,17.2949 -9.7912,15.2959 7.8918,0.8429" id="Fill-42" fill="#CA9627" mask="url(#masterspot-illustrationshigh-five-mask-8)"/></g><path d="M1076.0217,778.4523 C1045.7007,785.2033 1010.9907,789.8413 980.6997,786.1113 C974.6767,751.7943 966.2967,689.7353 1007.6197,675.9543 C1014.7597,673.0193 1021.2807,670.2123 1029.0157,671.1913 C1034.9837,666.6563 1036.5667,666.9763 1040.1307,673.6363 C1041.9867,678.2843 1038.3367,685.3273 1044.0087,690.0303 C1032.9807,694.2223 1021.0187,696.6313 1010.7767,702.2583 C978.7317,719.4593 1004.2137,759.5383 1027.4637,772.4793 C1051.0807,797.0673 1079.8097,750.5903 1076.0217,778.4523" id="Fill-45" fill="#00684a"/><path d="M943.7678,1111.457 C969.4858,1091.518 959.2838,1027.977 923.6988,1032.288 C895.4298,1034.705 858.8458,1057.927 866.7668,1090.146 C889.3798,1166.118 863.3498,1135.352 852.4318,1083.092 C842.3668,1050.019 870.9448,1023.337 900.4228,1014.951 C950.1928,996.889 1015.5668,1114.589 943.7678,1111.457" id="Fill-47" fill="#162b22"/><path d="M857.9202,405.7363 C856.7062,405.2303 855.7932,404.8143 855.4312,406.1243 C856.0462,407.6843 856.2762,407.0643 857.9202,405.7363 L857.9202,405.7363 Z M855.3382,387.0243 C888.7632,406.9853 880.4122,405.3443 881.2472,368.4363 C879.9462,335.3463 948.7622,374.0083 941.8622,391.2613 C927.3442,400.7313 912.3462,379.8823 898.3822,376.0923 C894.3202,390.1663 908.0382,421.9803 887.2542,424.0373 C830.4582,394.6963 872.5542,417.5113 847.1542,442.3273 C843.6082,431.0923 832.8492,382.2433 854.2312,386.9413 C854.8182,387.5193 855.1502,388.0303 855.3832,386.9343 L855.3382,387.0243 Z" id="Fill-49" fill="#CA9627"/><path d="M392.3694,1153.2939 C392.3574,1129.7149 381.6714,1102.1889 387.9144,1080.3379 C395.0184,1079.0239 411.0514,1064.0569 414.3314,1073.5839 C414.4104,1139.9109 505.5864,1165.6389 392.3694,1153.2939" id="Fill-51" fill="#162b22"/><path d="M303.5188,1153.4621 C280.2408,1128.9631 345.8998,1109.9831 361.6828,1093.3491 C382.9158,1170.1841 376.7818,1157.0061 303.5188,1153.4621" id="Fill-53" fill="#162b22"/><path d="M824.2229,162.6701 C822.5119,178.2061 845.6819,157.1301 851.2489,155.4101 C827.2319,132.2551 821.3989,120.8661 824.2229,162.6701 M815.4259,191.3501 C801.9899,185.1181 809.6329,164.4991 809.0879,152.6171 C806.6349,127.9111 815.7519,93.1781 842.7609,122.5481 C910.7859,162.4261 855.7199,167.0861 815.4259,191.3501" id="Fill-55" fill="#CA9627"/><path d="M208.2258,147.0665 C199.1298,152.5665 178.8418,152.2475 176.5108,162.5565 C183.1728,169.6995 186.6158,185.6975 197.2088,186.3595 C234.4458,174.1645 211.5908,173.8785 208.2258,147.0665 M195.3278,206.6105 C182.2598,206.9955 152.0138,156.7395 166.3198,149.5705 C183.3928,147.0025 211.8548,119.3175 222.9908,141.2005 C257.3238,191.9175 235.5618,181.9695 195.3278,206.6105" id="Fill-57" fill="#CA9627"/><path d="M174.676,454.3352 C225.317,442.3682 204.295,462.2412 192.385,491.2052 C200.822,494.3062 217.61,486.9192 218.873,501.9812 C214.001,515.4002 186.252,502.2532 180.09,506.1882 C148.47,498.0422 216.925,450.9662 166.063,473.4432 C119.803,474.6322 203.785,428.3282 141.732,439.4222 C124.774,428.7312 154.049,428.0282 161.582,425.8182 C201.484,416.9522 180.24,439.9772 174.676,454.3352" id="Fill-59" fill="#CA9627"/><path d="M1106.594,843.7302 C1003.061,822.7352 992.643,970.5612 1097.741,941.6122 C1104.1,945.7302 1095.274,951.8662 1094.766,957.2812 C1094.008,960.5542 1090.487,970.4222 1087.264,962.5662 C1084.962,958.1152 1074.452,953.8622 1076.239,963.0992 C1037.998,966.1122 1016.686,917.4612 1013.406,884.9782 C1006.966,838.9542 1085.665,808.8882 1106.594,843.7302" id="Fill-61" fill="#162b22"/><path d="M669.8352,679.885 C682.6192,777.361 774.6912,730.685 763.5792,652.909 C764.1562,635.352 755.4162,631.055 739.1082,625.944 C720.3892,618.715 749.3382,613.47 756.2472,627.25 C808.2972,665.714 761.9362,783.87 693.6292,736.82 C677.0742,723.07 655.0672,702.107 669.8352,679.885" id="Fill-63" fill="#162b22"/><path d="M550.1799,582.1433 C558.8389,611.9233 608.2649,587.3783 586.5219,564.9613 C573.8059,546.1143 545.4529,560.8963 550.1799,582.1433 M538.4279,581.7883 C535.4599,538.5093 598.9179,530.0823 605.0779,574.0303 C605.9199,615.4423 544.1079,626.5113 538.4279,581.7883" id="Fill-65" fill="#CA9627"/><path d="M1072.2542,766.6408 C1027.4772,814.4678 943.8882,702.3318 1043.6712,690.2458 C1057.2752,709.1168 1028.3142,703.6438 1018.0322,715.7048 C976.8272,744.0028 1056.0762,782.4508 1061.9822,741.6238 C1065.4052,749.9628 1068.8292,758.3018 1072.2542,766.6408" id="Fill-67" fill="#162b22"/><path d="M1116.8772,895.4763 C1103.3222,883.4493 1043.7292,883.5653 1065.2312,908.1803 C1072.0372,908.8253 1077.3922,905.6813 1082.7462,902.1193 C1095.9812,903.0973 1095.7812,927.4273 1078.4942,926.8333 C1052.6222,929.1263 1037.3202,873.1233 1068.1732,870.1903 C1084.2832,868.5243 1127.0262,871.0083 1116.8772,895.4763" id="Fill-69" fill="#162b22"/><path d="M1061.9817,741.6235 C1042.5347,793.6485 956.9607,721.2665 1048.9097,702.6335 C1066.4297,740.2185 1036.0457,707.1715 1033.6217,733.5815 C1042.8157,759.9725 1038.3287,727.2855 1058.8947,736.9445 L1058.7747,736.9075 C1060.4087,738.0875 1061.1737,739.8385 1061.9817,741.6235" id="Fill-71" fill="#00684a"/><path d="M691.4963,658.539 C677.0473,706.745 728.8233,714.118 731.0073,666.928 C723.3593,666.908 724.6693,682.469 716.4643,674.757 C689.3093,636.328 767.2253,658.525 738.4793,697.371 C720.1563,739.973 651.1323,676.76 691.4963,658.539" id="Fill-73" fill="#162b22"/><path d="M900.3147,1129.8459 C846.0347,1095.2169 902.3757,1024.1199 931.2347,1089.4579 C930.4827,1093.7119 925.3037,1092.5669 924.4337,1088.7679 C912.7697,1058.0049 877.9237,1109.5449 901.2887,1117.8879 C952.0797,1117.6599 946.5777,1115.2179 900.3147,1129.8459" id="Fill-75" fill="#162b22"/><path d="M160.0745,967.0427 C180.9405,977.4407 205.4135,980.5537 225.0265,992.4807 C186.5935,996.9067 149.9645,1025.4447 160.0745,967.0427" id="Fill-77" fill="#162b22"/><path d="M408.3645,685.9157 C405.0085,700.0057 393.4515,767.2987 390.7325,732.2077 C374.6095,716.2897 382.4675,683.1177 408.3645,685.9157" id="Fill-79" fill="#00684a"/><path d="M1058.8948,736.9445 C1049.6468,734.3755 1042.4158,734.4585 1040.4838,745.6135 C1015.4378,724.1995 1062.7508,708.9225 1058.8948,736.9445" id="Fill-81" fill="#162b22"/><path d="M386.5393,692.2795 C384.1573,697.3825 384.9593,707.4325 380.5953,709.8975 C376.2473,699.5815 372.8883,693.7155 386.5393,692.2795" id="Fill-83" fill="#162b22"/><path d="M1044.0061,690.0309 C1041.0161,685.7749 1038.4521,681.4349 1041.2481,676.0389 C1042.1671,680.7039 1043.0861,685.3669 1044.0061,690.0309" id="Fill-85" fill="#00684a"/><path d="M1081.9583,972.133 C1078.8543,973.842 1076.0173,974.423 1074.2783,970.328 C1079.4173,965.562 1080.4393,965.214 1081.9583,972.133" id="Fill-87" fill="#00684a"/><path d="M1072.1604,964.7673 C1076.7674,960.7893 1079.1414,968.0403 1073.3064,968.9373 C1067.7424,968.9703 1073.5554,965.8783 1072.1604,964.7673" id="Fill-89" fill="#00684a"/><path d="M891.4202,1134.0397 C892.3162,1128.5847 893.1572,1127.6847 897.6492,1131.3437 C895.5732,1132.2427 893.4962,1133.1417 891.4202,1134.0397" id="Fill-91" fill="#00684a"/><path d="M359.1604,669.6921 C357.7654,665.4511 360.5844,665.8721 363.1854,666.0551 C364.6044,668.7581 360.9314,668.6261 359.1604,669.6921" id="Fill-93" fill="#00684a"/><path d="M881.469,1137.9958 C882.95,1137.2068 884.432,1136.4178 885.914,1135.6318 C884.434,1136.4228 882.951,1137.2088 881.469,1137.9958" id="Fill-95" fill="#00684a"/><path d="M1086.8333,973.4743 C1086.6993,972.2713 1086.5653,971.0683 1086.4323,969.8653 C1089.1783,970.6433 1089.2093,970.9223 1086.8333,973.4743" id="Fill-97" fill="#00684a"/><path d="M887.5139,1135.2065 C887.7669,1133.6705 887.9919,1133.1835 889.3259,1134.3095 C888.7209,1134.6095 888.1179,1134.9075 887.5139,1135.2065" id="Fill-99" fill="#00684a"/><path d="M670.385,675.812 C670.281,676.469 670.178,677.127 670.078,677.781 C670.183,677.123 670.283,676.467 670.385,675.812" id="Fill-101" fill="#162b22"/><path d="M854.2786,387.0263 C855.4156,386.1013 854.2076,386.0903 855.3376,387.0253 C855.3606,386.8663 854.2616,386.8763 854.2786,387.0263" id="Fill-103" fill="#0f0f0f"/><path d="M1060.4602,738.4853 C1059.8982,737.9593 1059.3372,737.4333 1058.7742,736.9083 C1059.3372,737.4333 1059.8982,737.9593 1060.4602,738.4853" id="Fill-105" fill="#162b22"/><path d="M866.468,393.0224 L866.338,392.8434 C866.467,392.8984 866.615,392.8584 866.468,393.0224" id="Fill-107" fill="#0f0f0f"/><path d="M1053.4885,1056.5073 C1053.1025,1055.9663 1052.7175,1055.4243 1052.3305,1054.8833 C1052.7165,1055.4243 1053.1015,1055.9663 1053.4885,1056.5073" id="Fill-109" fill="#00684a"/><path d="M881.0208,1139.3129 C880.8278,1139.1189 880.9238,1139.2169 881.0208,1139.3129 C880.9138,1139.8709 880.1688,1139.2769 881.0208,1139.3129" id="Fill-111" fill="#00684a"/><path d="M402.3606,764.9548 C448.0856,859.4858 446.0106,840.5988 384.0386,916.7178 C377.5356,931.2438 358.4826,940.7918 359.3996,957.0648 C359.3216,960.7488 358.6406,963.4908 354.6186,963.6728 C335.3826,973.5348 333.5136,1014.1868 305.2656,1010.9758 C279.3706,1007.3468 266.3186,1013.4588 271.1446,982.0138 C270.5476,956.1078 268.3946,932.4858 268.2396,907.1458 C265.7956,876.8868 267.1606,853.7068 296.5996,839.9048 C323.9986,820.4068 348.9916,798.3008 377.0456,780.0118 C369.7946,790.2308 397.6996,765.2748 402.3606,764.9548" id="Fill-113" fill="#144936"/><path d="M269.3635,1006.0046 C286.5955,1007.2086 312.5455,1019.1996 324.4845,1002.8306 C373.7855,940.4356 357.8855,1034.0436 363.2085,1065.7566 C347.4365,1088.0166 309.6255,1097.0736 289.0825,1118.9206 C286.4415,1121.0036 285.1895,1120.9656 283.3075,1118.1416 C257.6955,1078.5316 223.0135,1047.2986 183.9875,1021.5296 C211.6855,1016.7756 242.0055,1002.1816 269.3635,1006.0046" id="Fill-115" fill="#162b22"/><path d="M600.3625,890.8666 C617.0685,895.2966 638.8855,874.2806 628.8645,858.7516 C608.9725,851.8996 602.2485,869.9236 597.7895,885.4946 C596.1345,889.2196 597.2095,890.1676 600.3625,890.8666 M618.2205,841.9966 C673.7235,859.4036 652.3015,933.6476 599.1585,897.0526 C593.1175,890.7306 593.2705,910.3946 580.0415,904.7596 C556.1315,893.1296 532.2395,881.4546 508.2335,870.0186 C497.9415,861.7746 567.8525,780.7046 581.5795,782.7076 C617.3275,794.4676 650.3655,762.5656 622.8205,811.8036 C626.3295,822.1236 612.0705,832.5896 618.2205,841.9966" id="Fill-117" fill="#162b22"/><path d="M571.2454,959.029 C549.2734,1058.048 548.0564,998.04 438.8794,1039.715 C423.3304,1047.727 450.0064,960.346 457.7614,958.009 C497.5314,947.063 537.3624,936.354 577.1744,925.578 C592.5734,925.172 571.6334,950.728 571.2454,959.029" id="Fill-119" fill="#162b22"/><path d="M650.0842,1112.298 C630.7122,1113.936 586.8882,1091.542 603.1302,1072.259 C599.2972,1087.451 612.0832,1100.14 627.2722,1101.586 C730.7202,1119.376 720.2002,930.53 621.6352,1022.033 C605.4922,1038.533 625.3442,1084.166 649.1362,1066.973 C660.5462,1060.837 674.3462,1042.72 662.8972,1031.024 C653.4232,1024.063 631.9682,1046.246 658.3812,1042.585 C670.3952,1060.044 635.1062,1058.551 633.7192,1042.622 C628.2002,1006.042 673.5362,1019.585 679.1362,1044.349 C687.4642,1070.334 651.1052,1099.163 628.2102,1075.253 C579.9202,1035.837 607.9432,987.122 664.8042,987.006 C738.8742,996.088 722.4802,1114.431 650.0842,1112.298" id="Fill-121" fill="#162b22"/><path d="M379.2961,923.9218 C393.7991,900.3118 413.8861,881.6898 431.1371,860.1128 C441.6711,866.9318 473.1071,867.8668 473.7771,879.4578 C460.0551,900.0468 452.9421,927.9208 435.3661,944.6438 C397.2861,947.7998 370.7181,980.3358 379.2961,923.9218" id="Fill-123" fill="#162b22"/><path d="M429.3088,964.7653 C421.6748,992.2193 418.4308,1026.2093 408.7218,1050.7153 C372.4868,1069.7123 384.4048,1053.6673 380.5468,1024.4343 C375.8538,969.1533 377.3628,975.4113 429.3088,964.7653" id="Fill-125" fill="#162b22"/><path d="M464.1526,937.7155 C495.2436,865.5715 491.1816,882.1065 554.8596,910.7995 C541.4456,924.4175 490.1856,927.6515 464.1526,937.7155" id="Fill-127" fill="#162b22"/><path d="M908.2678,899.7634 C902.8978,939.2544 962.5008,898.0914 937.9628,888.2704 C934.7888,889.5084 927.4128,894.1044 934.0218,894.1904 C948.2848,918.6924 895.2198,888.4354 921.6028,878.4434 C1000.4168,875.6644 921.7098,967.9524 898.9158,901.1904 C895.0158,887.3804 911.5948,856.2274 926.5708,870.1914 C912.5488,871.5804 908.5068,887.6054 908.2678,899.7634" id="Fill-129" fill="#162b22"/><path d="M571.2454,959.029 C576.4654,941.318 602.9084,940.257 617.4334,930.843 C640.1154,923.836 658.9644,950.655 677.9664,956.809 C681.5734,969.792 661.5944,953.926 656.4244,951.17 C630.4684,927.756 590.9724,966.38 571.2454,959.029" id="Fill-131" fill="#00684a"/><path d="M611.6038,767.8122 C567.7198,772.3222 637.7858,735.6532 651.6538,729.8822 C660.1248,729.3412 645.7358,753.9792 645.0458,762.2362 C637.5448,768.5782 619.6588,768.4392 611.6038,767.8122" id="Fill-133" fill="#162b22"/><path d="M618.2209,841.9965 C613.8249,837.4015 618.6579,829.5005 620.8569,824.9195 C623.4869,810.3415 627.7329,798.3025 635.1269,785.1345 C640.8879,779.8145 620.4089,829.8035 618.2209,841.9965" id="Fill-135" fill="#144936"/><path d="M714.0754,1110.4404 C713.2064,1113.7724 713.5314,1118.4994 710.2074,1119.6374 C701.9374,1120.0094 712.7254,1103.1164 714.0754,1110.4404" id="Fill-137" fill="#00684a"/><path d="M719.5237,1105.1869 C717.6737,1106.2799 717.1537,1107.4219 715.7927,1105.6119 C717.1927,1104.3159 717.5437,1103.6939 719.5237,1105.1869" id="Fill-139" fill="#00684a"/><path d="M577.3108,960.968 C577.1838,961.118 577.1428,961.541 576.9228,961.192 L577.3108,960.968 Z" id="Fill-141" fill="#00684a"/><path d="M776.4202,936.3503 C693.8672,932.1993 713.4832,795.8403 788.3662,799.6643 C766.6512,814.7243 738.9572,827.7203 735.8412,857.2683 C733.9742,877.5403 727.9782,918.0793 756.6652,919.8263 C833.9682,934.1173 839.4302,810.2383 763.3732,861.5083 C740.6252,892.2643 787.1302,882.8993 775.2132,869.0763 C766.7972,847.7623 795.7992,869.0223 794.2022,880.6513 C770.9712,939.4673 704.6552,832.4273 782.1912,834.3293 C848.2372,840.1813 849.4092,936.8413 776.4202,936.3503" id="Fill-143" fill="#162b22"/><path d="M891.2659,686.8627 C889.5359,692.6107 894.4499,692.5677 897.9249,690.3537 C901.2989,686.2977 902.7309,688.8717 904.5469,691.4477 C920.3209,721.4327 876.5939,701.7737 878.5599,681.7367 C899.4019,621.6747 977.2409,713.8897 913.5969,734.8347 C885.7389,750.3037 867.6239,718.9847 858.0869,696.9377 C847.6919,672.8257 880.4129,642.0917 902.5129,644.1647 C845.4929,684.7457 863.9839,756.8027 921.4219,702.6927 C936.1189,683.8047 913.8149,672.9357 897.6209,682.9167 C892.6239,672.1497 880.4299,683.3187 891.2659,686.8627" id="Fill-145" fill="#162b22"/><path d="M891.2659,686.8627 C889.4659,685.4787 885.1499,685.9557 887.0409,681.8347 C890.9329,671.9307 902.6619,684.0617 891.2659,686.8627" id="Fill-147" fill="#00684a"/><path d="M822.468,787.507 C816.502,783.279 815.477,781.742 822.089,779.196 C825.796,780.612 825.572,783.857 822.468,787.507" id="Fill-149" fill="#00684a"/><path d="M241.2981,764.9782 C236.8121,792.6572 245.3921,826.1252 233.9691,851.3992 C221.1981,860.2152 209.2131,869.8012 199.9101,882.3972 C185.9331,885.4632 173.9581,899.1692 167.0971,912.0532 C160.2721,915.0242 160.8811,912.3512 155.2421,919.6712 C138.9791,937.6752 146.3531,906.9232 147.4951,897.5192 C151.9071,881.8072 147.5961,865.8202 152.0001,849.9262 C155.5981,830.7042 151.7751,772.5902 166.3711,763.7682 C178.1201,754.5112 191.9461,763.8882 202.5211,755.8112 C206.0541,749.5532 217.3161,750.3782 224.1941,747.5682 C239.0341,740.9932 243.1171,751.6622 241.2981,764.9782" id="Fill-151" fill="#144936"/><path d="M380.593,709.8962 C385.427,714.5032 382.631,726.9152 390.314,731.9632 C354.343,762.1322 307.824,786.3572 273.905,818.5222 C262.743,828.8792 270.591,799.8132 269.64,794.3342 C267.369,785.0632 264.049,739.1392 273.55,737.9582 C278.883,738.5502 285.106,737.0712 289.006,731.8072 C294.02,737.4332 298.169,727.8802 303.02,731.0142 C305.543,727.6332 310.798,731.0702 312.518,725.6472 C319.717,730.4052 324.448,721.4382 331.352,722.8582 C334.293,722.8302 335.509,729.7552 339.626,724.9372 C343.046,718.8932 350.449,720.7752 354.215,717.9532 C362.61,711.1402 371.608,715.4012 380.593,709.8962" id="Fill-153" fill="#144936"/><path d="M354.2141,717.9504 C336.6741,720.9874 341.6961,731.2794 331.3521,722.8564 C339.0241,719.4854 345.8321,711.8444 354.2141,717.9504" id="Fill-155" fill="#00684a"/><path d="M340.217,673.1853 C344.309,664.3463 365.552,665.3943 352.155,671.9903 C347.487,671.5453 341.253,680.2183 340.217,673.1853" id="Fill-157" fill="#00684a"/><path d="M203.4377,753.2653 C203.0757,761.6653 178.1917,761.2763 193.4307,755.4563 C200.1867,757.1193 193.5237,751.1253 203.4377,753.2653" id="Fill-159" fill="#00684a"/><path d="M256.1643,785.5102 C251.1143,791.5282 250.4533,788.5732 246.5613,784.2312 C250.1103,780.2902 251.6103,783.1592 256.1643,785.5102" id="Fill-161" fill="#00684a"/><path d="M208.3186,751.7502 C206.7396,752.2092 205.1616,752.6682 203.5846,753.1282 C205.1646,752.6702 206.7416,752.2102 208.3186,751.7502" id="Fill-163" fill="#00684a"/><path d="M384.2073,739.7404 C385.2513,738.8424 386.2953,737.9454 387.3393,737.0484 C387.7953,739.6914 387.7433,741.7434 384.2073,739.7404" id="Fill-165" fill="#00684a"/><path d="M333.3225,675.1316 C334.9925,674.8006 336.6625,674.4696 338.3315,674.1396 C336.6615,674.4716 334.9925,674.8016 333.3225,675.1316" id="Fill-167" fill="#00684a"/><path d="M241.3235,764.9462 C243.6255,761.5962 243.6185,764.7442 244.2845,765.9982 C243.5335,765.5432 242.1315,765.3832 241.3235,764.9462" id="Fill-169" fill="#144936"/><path d="M269.3342,944.9902 C268.8672,945.4752 268.7042,947.0612 267.9502,946.5292 C268.4332,946.0472 268.8382,945.3202 269.3342,944.9902" id="Fill-171" fill="#144936"/><path d="M122.6389,864.4108 C123.0669,864.3038 123.4649,863.9778 123.7239,864.4968 C123.2879,864.6178 122.9079,864.9768 122.6389,864.4108" id="Fill-173" fill="#144936"/><path d="M244.2844,765.998 C244.9174,766.15 245.9014,766.015 245.2544,766.791 C244.9034,766.548 244.6254,766.082 244.2844,765.998" id="Fill-175" fill="#144936"/><path d="M261.634,1003.3718 C260.835,1003.5328 260.035,1003.6928 259.236,1003.8538 C260.034,1003.6928 260.834,1003.5328 261.634,1003.3718" id="Fill-177" fill="#00684a"/><path d="M265.1721,899.1064 C264.7521,899.6184 264.6891,899.0574 264.5551,898.6604 C264.8671,898.1364 265.0111,898.7564 265.1721,899.1064" id="Fill-179" fill="#144936"/><path d="M240.1536,903.7551 C239.9536,904.1481 239.7536,904.8041 239.4496,904.1931 C239.6176,903.7601 239.7976,903.1511 240.1536,903.7551" id="Fill-181" fill="#144936"/><path d="M205.3459,913.9382 C205.1999,913.8182 205.0539,913.6992 204.9079,913.5792 C205.2769,913.4692 205.1929,914.0472 205.3459,913.9382" id="Fill-183" fill="#144936"/><path d="M270.8967,633.2707 L271.0077,633.5837 C270.6637,633.5657 270.7037,633.5117 270.8967,633.2707" id="Fill-185" fill="#144936"/><path d="M122.8049,830.2238 C122.9529,830.5218 122.9649,830.5708 122.6139,830.5098 L122.8049,830.2238 Z" id="Fill-187" fill="#144936"/><path d="M240.9612,824.5407 L240.6152,824.6367 C240.6272,824.2607 240.7272,824.3817 240.9612,824.5407" id="Fill-189" fill="#144936"/><path d="M307.4631,555.363 C305.7581,543.436 332.3571,535.373 331.3681,549.593 C334.1341,550.501 337.6731,552.142 339.1731,547.474 C342.9841,547.221 346.4931,551.626 341.1251,553.096 C337.1031,556.683 333.8391,549.272 332.3381,556.568 C331.8461,558.275 323.1161,559.673 325.4851,555.568 C325.3241,555.16 322.6621,553.304 322.9871,552.369 C327.0691,549.478 322.3461,545.06 318.1981,548.509 C313.5841,550.141 312.6801,555.372 307.4631,555.363" id="Fill-191" fill="#162b22"/><path d="M437.3674,281.2223 C445.5454,270.4733 439.4334,283.6023 446.8144,284.0903 C447.4224,284.0233 448.9144,285.7693 448.7504,286.2513 C444.2544,290.5253 441.1674,294.9923 440.9324,301.4783 C434.5304,317.7483 436.6174,286.2953 437.3674,281.2223" id="Fill-193" fill="#162b22"/><path d="M327.842,542.9729 C303.887,548.8169 328.704,516.5229 334.092,526.7509 C336.363,530.3849 331.132,527.6479 330.108,525.8609 C330.046,527.2079 328.922,530.0599 329.11,530.4059 C332.128,530.2559 326.014,536.2049 325.696,538.0399 C325.647,539.3309 331.343,540.8769 327.842,542.9729" id="Fill-195" fill="#00684a"/><path d="M403.9895,399.3355 C409.7985,398.9305 415.1155,399.5695 418.2725,405.4855 C419.6335,405.0065 425.2945,407.1545 421.9625,408.5735 C409.9555,409.0665 417.1775,408.8975 411.7875,416.0555 C410.5195,409.3225 409.5825,402.5025 403.9895,399.3355" id="Fill-197" fill="#162b22"/><path d="M393.7825,425.2701 C394.3365,424.1591 394.8895,423.0481 395.4425,421.9361 C394.8905,423.6661 399.6195,421.7261 397.4195,424.7801 C397.5445,431.0331 409.0375,422.0711 404.3695,428.3161 C397.6315,450.2281 404.1435,434.3941 393.7825,425.2701" id="Fill-199" fill="#162b22"/><path d="M361.0813,401.7911 C361.5773,395.9401 370.6443,399.2171 371.2343,403.8671 C371.3583,409.5041 367.3903,417.4691 365.6483,408.8361 C367.0733,404.3831 367.4573,402.3291 361.0813,401.7911" id="Fill-201" fill="#162b22"/><path d="M354.2131,494.9753 C351.4811,494.8723 354.5541,490.2313 355.4041,489.9293 C359.3981,488.9583 358.0241,486.1183 358.2191,483.7783 C364.9271,471.8803 366.1981,496.0923 354.2131,494.9753" id="Fill-203" fill="#00684a"/><path d="M352.3831,510.8635 C347.6561,516.2475 353.8291,499.6155 344.6251,500.1265 C361.2401,495.1975 352.6601,497.9175 352.3831,510.8635" id="Fill-205" fill="#162b22"/><path d="M419.5149,299.3112 C415.7929,298.3212 408.4369,299.2892 411.9689,293.8222 C416.7179,288.7622 419.0079,294.4162 419.5149,299.3112" id="Fill-207" fill="#162b22"/><path d="M336.7961,345.4925 C331.7761,352.9745 330.0911,342.1435 333.6301,338.8925 C334.6871,341.0935 335.7411,343.2925 336.7961,345.4925" id="Fill-209" fill="#00684a"/><path d="M316.7805,538.5024 C316.6375,538.9244 316.4955,539.3464 316.3585,539.7654 C316.0895,539.0614 315.8335,538.5044 316.7805,538.5024" id="Fill-211" fill="#162b22"/><path d="M610.0237,320.5361 C608.4267,321.6271 608.3477,321.9841 609.8197,322.8991 C611.1127,322.6031 610.6277,321.6841 610.0237,320.5361 M600.7967,307.7591 C607.8777,293.0781 601.7337,301.4161 612.0887,303.8131 C609.4087,310.3531 613.1347,315.7781 614.5447,321.6351 C610.4967,325.4181 616.3827,325.0831 617.8047,329.2631 C609.7837,331.9021 620.9187,333.6541 618.8267,339.1261 C610.8177,327.3001 605.5807,324.1431 600.7967,307.7591" id="Fill-213" fill="#162b22"/><path d="M631.5686,338.7597 C630.0076,333.5617 628.6026,332.0597 625.1836,336.7797 C635.0146,325.5177 617.5176,322.0077 640.7486,323.3057 C635.8386,324.0007 626.3286,327.6157 634.2266,330.2347 C637.3516,329.7247 644.1116,321.1807 644.4506,327.1477 C645.8346,334.2547 632.0876,346.2517 643.6956,348.0037 C637.4966,352.8337 631.7936,344.6027 631.5686,338.7597" id="Fill-215" fill="#162b22"/><path d="M618.2727,388.8922 C619.5277,390.4772 620.7837,392.0622 622.3737,394.0702 C600.1957,383.0602 622.2277,365.8792 618.2727,388.8922" id="Fill-217" fill="#162b22"/><path d="M695.9133,499.7724 C698.4253,492.2864 700.7683,498.1724 704.1503,501.7914 L704.0763,501.7364 C706.9723,506.3654 701.3173,506.3224 700.3253,509.9624 C698.7753,506.9224 697.4063,503.0804 695.9133,499.7724" id="Fill-219" fill="#162b22"/><path d="M704.8811,467.8206 C699.7611,464.8896 703.1471,452.2496 707.2291,457.5756 C701.6971,461.3326 713.8921,471.3626 704.8811,467.8206" id="Fill-221" fill="#00684a"/><path d="M697.4084,433.0601 C696.4164,437.8751 684.3174,442.3931 685.3214,434.9311 C689.3564,431.4431 692.0824,440.4671 693.2534,432.0031 C693.6834,436.0291 695.0124,430.2841 697.4084,433.0601" id="Fill-223" fill="#162b22"/><path d="M710.469,518.2194 C714.682,518.4194 712.681,520.4164 711.198,521.5134 C704.797,527.0704 698.804,511.9804 710.469,518.2194" id="Fill-225" fill="#00684a"/><path d="M627.5149,351.5439 C624.4979,351.9549 621.1259,351.7859 621.2789,356.0119 C616.5759,353.8619 623.6859,345.7359 627.5149,351.5439" id="Fill-227" fill="#162b22"/><path d="M700.3254,509.9626 C702.3734,510.7056 704.4204,511.4476 707.1604,512.4416 C703.5884,513.6196 700.5884,514.2646 700.3254,509.9626" id="Fill-229" fill="#162b22"/><path d="M611.2766,381.9986 C609.9306,380.0756 607.2126,378.5596 610.3476,377.0976 C610.5826,378.7076 611.2766,380.4686 611.2766,381.9986" id="Fill-231" fill="#162b22"/><path d="M617.7747,345.5887 C618.0187,346.3817 617.3567,346.1207 616.7867,346.0597 C617.1207,345.8997 617.4477,345.7447 617.7747,345.5887" id="Fill-233" fill="#162b22"/><path d="M615.4729,347.2026 C615.9509,348.2836 614.5519,347.5006 615.1349,347.0026 C615.1359,347.0026 615.4729,347.2026 615.4729,347.2026" id="Fill-235" fill="#162b22"/><path d="M693.9631,499.0581 L694.1421,499.0911 C694.0701,499.1101 693.9651,499.1901 693.9631,499.0581" id="Fill-237" fill="#162b22"/><path d="M691.3899,499.417 L691.6629,499.629 C691.6489,499.592 691.2409,499.487 691.3899,499.417" id="Fill-239" fill="#162b22"/><path d="M806.1458,553.8615 C807.3438,554.1435 809.1768,553.7175 807.7868,555.2605 C807.2238,554.8505 806.7038,554.0385 806.1458,553.8615" id="Fill-241" fill="#00684a"/><path d="M807.3254,559.9834 C807.4324,559.5454 807.5414,559.1084 807.6484,558.6704 L807.2974,559.9594 L807.3254,559.9834 Z" id="Fill-243" fill="#00684a"/><path d="M615.3899,1138.1962 C614.6369,1138.7552 613.8839,1139.3142 613.1299,1139.8732 C613.8819,1139.3142 614.6359,1138.7552 615.3899,1138.1962" id="Fill-245" fill="#00684a"/><path d="M795.3547,1097.0991 C787.0527,1119.9521 798.0557,1153.0941 782.0417,1171.3721 C771.3007,1174.1461 704.1297,1210.3941 711.6297,1180.2381 C716.9727,1164.2071 785.1297,1069.5681 795.3547,1097.0991" id="Fill-247" fill="#00684a"/><path d="M669.0842,1161.8869 C668.9102,1161.6719 668.9972,1161.7799 669.0842,1161.8869 C669.0312,1162.5939 668.2082,1161.7899 669.0842,1161.8869" id="Fill-249" fill="#00684a"/><path d="M245.3333,973.9611 C245.2373,973.8901 245.1433,973.8191 245.0473,973.7481 C245.1423,973.8051 245.2383,974.0381 245.3333,973.9611" id="Fill-251" fill="#00684a"/><path d="M390.3069,731.9714 C390.4499,732.0504 390.5909,732.1284 390.7329,732.2074 C390.5889,732.1354 390.4559,732.0234 390.3069,731.9714" id="Fill-253" fill="#144936"/><path d="M609.4055,861.1242 C648.0985,842.8332 628.6345,899.2652 600.3605,890.8652 C602.6675,880.5032 609.9375,872.4892 609.4055,861.1242" id="Fill-255" fill="#00684a"/><path d="M609.4055,861.1244 C609.9335,872.4964 602.6705,880.4974 600.3595,890.8664 C592.8445,889.6324 604.5855,863.8494 609.4055,861.1244" id="Fill-257" fill="#144936"/><path d="M573.177,953.9821 C572.622,954.9551 572.068,955.9281 571.515,956.9001 C572.071,955.9271 572.623,954.9541 573.177,953.9821" id="Fill-259" fill="#00684a"/><path d="M274.3469,818.9428 C274.1079,818.8678 273.8879,818.8238 273.9049,818.5228 C274.0509,818.6368 274.1859,819.0668 274.3469,818.9428" id="Fill-261" fill="#00684a"/><path d="M401.551,326.109 C399.476,328.096 403.792,329.601 405.134,330.871 C408.436,329.024 403.089,327.591 401.551,326.109 M401.219,315.322 C404.791,321.577 403.45,311.102 406.842,314.919 C408.53,316.576 419.939,318.621 413.594,321.375 C409.716,322.248 411.598,322.08 414.214,324.627 C404.051,326.788 408.873,336.426 411.14,343.193 C406.481,345.19 399.922,343.702 404.432,349.437 C402.918,351.461 396.929,359.053 397.611,352.613 C403.379,347.482 395.845,344.465 395.731,340.31 C389.272,343.17 391.517,336.582 389.559,334.566 C387.738,329.35 405.191,331.016 399.802,325.395 C399.097,323.957 394.709,321.22 400.911,321.944 C402.296,321.196 398.817,317.276 401.219,315.322" id="Fill-263" fill="#0f0f0f"/><path d="M345.7551,530.9465 C345.1891,532.2375 344.4921,533.5555 345.9431,534.0665 C348.3051,533.3355 347.7561,533.1285 345.7551,530.9465 M327.8421,542.9725 C330.3591,539.3065 336.2091,540.8005 339.5561,538.6045 C339.4721,538.7225 339.3881,538.8405 339.3051,538.9575 C341.1471,521.5495 371.0701,530.6695 348.9241,541.7605 C352.3401,545.0585 346.6281,547.5815 348.7181,551.5625 C333.2631,543.2415 342.9201,553.1565 331.3661,549.5955 C330.6131,548.0485 332.9781,542.4425 327.8421,542.9725" id="Fill-265" fill="#0f0f0f"/><path d="M358.1292,535.6696 C353.6742,523.2436 369.6312,520.1386 372.0642,531.9546 C367.6622,535.2286 361.4182,544.7716 358.1292,535.6696" id="Fill-267" fill="#162b22"/><path d="M352.4993,510.6687 C358.5873,512.3587 361.4233,507.9627 372.7363,510.3557 C369.7903,512.4647 366.9193,513.3927 367.7943,517.6257 C367.6513,522.6437 364.1023,517.0457 361.3813,517.1967 C357.7353,524.3907 351.6533,515.7147 352.4993,510.6687" id="Fill-269" fill="#162b22"/><path d="M342.2571,534.4826 C340.1781,540.2596 328.9341,543.5406 325.6951,538.0416 C327.4481,530.4986 338.6851,526.9016 342.2571,534.4826" id="Fill-271" fill="#162b22"/><path d="M307.4631,555.363 C317.4371,552.597 317.0941,561.565 309.8491,565.388 C303.5031,566.445 305.6811,558.963 307.4631,555.363" id="Fill-273" fill="#0f0f0f"/><path d="M378.3723,424.1137 C380.9313,431.6037 373.5753,419.2557 373.3943,425.9537 C372.6093,425.5867 371.5583,425.4147 371.1133,424.8027 C371.3863,415.5497 386.9313,418.2837 378.3723,424.1137" id="Fill-275" fill="#162b22"/><path d="M425.8049,428.0903 C422.2829,432.7673 419.9019,440.6933 414.6059,434.0583 C414.7959,429.4023 422.8259,429.7933 425.8049,428.0903" id="Fill-277" fill="#00684a"/><path d="M379.5774,406.9358 C386.2174,402.7628 384.4654,410.0038 386.5994,411.2428 C383.1304,420.0538 379.8874,412.9188 379.5774,406.9358" id="Fill-279" fill="#00684a"/><path d="M361.0813,401.7911 C363.7543,402.4351 359.7873,405.3561 359.2493,407.0081 C359.8603,405.2691 360.4713,403.5301 361.0813,401.7911" id="Fill-281" fill="#0f0f0f"/><path d="M380.1155,423.6053 C379.9815,420.3493 380.3675,419.3633 383.6885,420.4913 C382.4975,421.5283 381.3065,422.5673 380.1155,423.6053" id="Fill-283" fill="#00684a"/><path d="M392.6262,421.1932 C390.6862,422.2462 390.2622,418.7902 389.0892,417.6712 C390.9562,416.2092 391.3532,419.8812 392.6262,421.1932" id="Fill-285" fill="#162b22"/><path d="M341.9045,532.9441 C339.8395,531.4101 341.3955,530.0551 342.4345,528.3501 C342.4575,530.0291 344.3605,532.6791 341.9045,532.9441" id="Fill-287" fill="#00684a"/><path d="M300.8401,568.3552 C301.7681,567.3442 302.1431,567.2762 303.0931,568.0952 C302.2741,569.0732 302.0261,569.5812 300.8401,568.3552" id="Fill-289" fill="#0f0f0f"/><path d="M401.1155,315.2343 C401.6505,314.0753 400.2555,314.5793 401.2205,315.3243 C401.2195,315.3223 401.1155,315.2343 401.1155,315.2343" id="Fill-291" fill="#0f0f0f"/><path d="M417.8909,302.684 C417.8179,302.889 417.5259,303.122 417.9439,303.112 C417.9439,303.112 417.8909,302.684 417.8909,302.684" id="Fill-293" fill="#162b22"/><path d="M420.9465,437.4399 C420.8365,437.3699 420.7245,437.2989 420.6145,437.2289 C420.7245,437.2989 420.8365,437.3699 420.9465,437.4399" id="Fill-295" fill="#00684a"/><path d="M456.9016,278.3961 C456.8776,277.9501 456.8536,277.5041 456.8296,277.0581 C457.2316,277.5631 457.5576,277.9871 456.9016,278.3961" id="Fill-297" fill="#0f0f0f"/><path d="M652.843,323.1589 C651.732,323.3629 650.715,323.2229 651.884,324.3829 C653.343,325.2809 652.956,324.3429 652.843,323.1589 M660.682,312.4819 C665.947,320.1789 658.517,330.6649 667.768,338.0929 C669.82,347.5349 653.59,334.6469 654.568,330.9239 C658.94,325.1589 649.512,327.9899 650.554,324.3379 C650.663,323.9529 648.66,322.8749 647.555,322.2669 C640.22,322.2809 639.847,313.7199 647.174,314.4559 C648.653,313.9969 649.619,309.2349 647.303,308.6649 C641.513,307.4509 639.803,316.2059 637.041,310.5109 C635.552,308.5209 633.569,297.9439 636.543,302.7029 C637.816,304.4009 634.308,306.7949 637.703,308.3679 C644.892,312.2379 638.886,296.9879 644.906,299.0559 C645.231,304.6919 651.723,302.1849 653.592,305.6889 C654.767,302.5189 657.93,301.5429 660.581,299.9179 C658.527,304.7019 662.448,310.1819 660.682,312.4819" id="Fill-299" fill="#0f0f0f"/><path d="M697.4084,433.0601 C690.0844,431.0471 694.6664,428.7551 700.0504,428.1711 C706.8624,428.7491 693.8324,418.2771 700.3924,419.6631 C699.8614,418.3421 711.4464,398.9331 709.6534,413.4791 C705.0994,418.0831 717.6814,420.1341 710.7934,426.2161 C707.4094,430.1351 712.6554,439.9741 704.2804,439.3311 C705.6074,435.1931 700.1444,434.3591 697.4084,433.0601" id="Fill-301" fill="#00684a"/><path d="M755.009,552.8003 C754.733,552.3003 754.278,552.5223 753.822,552.5863 C756.73,552.3003 756.691,551.2713 754.217,550.7273 C749.242,545.9383 758.833,541.4633 760.662,547.7063 C760.95,552.2213 768.926,551.6273 764.818,556.1413 C772.938,561.3003 756.677,567.7573 757.521,560.1443 C761.302,553.0863 755.114,558.6173 755.009,552.8003" id="Fill-303" fill="#0f0f0f"/><path d="M682.5168,357.9525 C686.1418,362.5125 686.4108,365.4085 680.6828,361.0365 C679.1528,358.9865 679.3578,358.8315 676.5358,359.3435 C674.4018,357.4615 673.6258,352.1775 672.2358,349.0785 C673.3428,340.4925 685.8668,355.5025 682.5168,357.9525" id="Fill-305" fill="#0f0f0f"/><path d="M693.5754,396.8994 C677.5834,395.3024 693.7484,402.1514 682.1374,403.9284 C679.9334,394.0284 688.3314,400.0504 681.7874,388.6394 C684.2634,384.8294 690.5774,389.1094 690.4774,392.1284 C687.8854,394.3724 687.8624,394.3464 693.5754,396.8994" id="Fill-307" fill="#00684a"/><path d="M698.5735,419.618 C693.5725,422.56 708.9135,429.643 698.2905,426.574 C690.4305,426.847 688.9145,418.804 686.6825,414.357 C689.7575,412.363 694.3955,412.243 694.6005,418.057 C694.6495,418.678 697.1895,419.103 698.5735,419.618" id="Fill-309" fill="#0f0f0f"/><path d="M670.3518,391.5858 C670.6158,398.7618 659.8118,395.4828 664.0458,389.1398 C661.2668,377.2278 669.8338,382.5798 670.3518,391.5858" id="Fill-311" fill="#0f0f0f"/><path d="M720.2395,419.9471 C729.5635,419.5661 720.6235,421.4791 725.6335,424.8991 C730.7835,425.5731 724.5535,432.0951 721.3805,432.4011 C718.7075,423.5671 710.8865,430.8681 720.2895,419.8941 C720.2895,419.8951 720.2395,419.9471 720.2395,419.9471" id="Fill-313" fill="#00684a"/><path d="M706.9768,441.6855 C705.2908,447.2735 700.1768,451.0875 694.7398,450.3735 C700.6368,449.6825 685.8098,446.5065 695.2558,446.0415 C696.3188,445.9895 698.1818,444.1855 698.1668,443.2165 C699.0778,435.4605 703.9488,444.8875 706.9768,441.6855" id="Fill-315" fill="#162b22"/><path d="M711.8958,420.1783 C710.8548,415.5083 721.9628,408.0233 725.3848,414.9023 C725.9928,415.8663 725.9108,418.0443 724.2298,417.6693 C720.8438,414.9113 721.2718,418.6983 720.2388,419.9473 C717.7668,419.8793 714.6048,420.1393 711.8958,420.1783" id="Fill-317" fill="#162b22"/><path d="M723.2717,517.6006 C716.5817,522.7196 723.8507,526.1756 720.5637,532.2566 C712.4327,534.5966 719.5677,507.3366 723.2717,517.6006" id="Fill-319" fill="#0f0f0f"/><path d="M686.6702,414.0439 C686.5482,414.8249 683.5412,413.5099 683.5162,413.1539 C682.1402,405.9159 671.7822,417.7689 675.8102,402.3709 C677.7752,415.0899 690.9872,401.9429 686.6702,414.0439" id="Fill-321" fill="#00684a"/><path d="M654.1223,419.0307 C652.6403,415.1757 652.4073,406.4827 655.4773,403.8467 C661.7383,405.2237 654.9973,414.8917 654.1223,419.0307" id="Fill-323" fill="#0f0f0f"/><path d="M649.3684,292.0211 C652.4454,284.7011 648.1724,290.7891 644.0154,289.2331 C645.5464,285.0521 650.8704,287.2171 654.3684,286.4001 C653.6384,289.0641 650.0964,297.1461 649.3684,292.0211" id="Fill-325" fill="#162b22"/><path d="M618.6536,214.6407 C616.8326,212.6057 613.3466,211.1867 617.4316,210.5817 C616.5896,205.2207 632.5116,204.9537 618.6536,214.6407" id="Fill-327" fill="#00684a"/><path d="M745.6838,570.3449 C752.3118,571.9249 741.7328,576.1629 738.8808,572.6709 C741.2228,564.9619 742.9678,569.0929 745.6838,570.3449" id="Fill-329" fill="#0f0f0f"/><path d="M618.6711,249.0836 C620.9761,245.5316 625.1641,246.4846 628.5651,244.6746 C625.0731,245.7126 621.8401,253.0216 618.6711,249.0836" id="Fill-331" fill="#162b22"/><path d="M635.2463,245.9402 C631.7013,254.9272 627.5013,248.3682 635.2903,245.8982 L635.2463,245.9402 Z" id="Fill-333" fill="#162b22"/><path d="M678.7161,387.9409 C678.8001,387.9479 678.9381,387.9279 678.9581,387.9669 C679.3091,388.5179 678.3771,388.4589 678.7161,387.9409" id="Fill-335" fill="#00684a"/><path d="M686.1204,434.3885 C685.8334,434.5855 685.5454,434.7825 685.2584,434.9795 C685.6384,434.3385 685.9874,433.1045 686.1204,434.3885" id="Fill-337" fill="#0f0f0f"/><path d="M635.2903,245.8983 L635.4203,245.8243 C635.4133,245.8213 635.1433,246.0263 635.2903,245.8983" id="Fill-339" fill="#162b22"/><path d="M704.1506,501.7917 C704.2886,501.7597 704.4246,501.7287 704.5626,501.6967 C704.4276,501.7347 704.0066,501.6907 704.1506,501.7917" id="Fill-341" fill="#162b22"/><path d="M621.2786,356.0116 C621.1936,352.4326 623.5906,351.8296 626.4106,351.7326 C624.7016,353.1586 622.9906,354.5846 621.2786,356.0116" id="Fill-343" fill="#0f0f0f"/><path d="M345.7551,530.9465 C347.7561,533.1275 348.3051,533.3365 345.9421,534.0665 C344.4921,533.5535 345.1891,532.2395 345.7551,530.9465" id="Fill-345" fill="#00684a"/><path d="M339.3049,538.9577 C339.3879,538.8397 339.4719,538.7217 339.5559,538.6037 C339.4779,538.7277 339.3999,538.8517 339.3219,538.9747 L339.3049,538.9577 Z" id="Fill-347" fill="#162b22"/><path d="M378.3723,424.1137 C378.0253,423.5747 377.2003,423.0517 378.0813,422.7107 C378.1403,423.1817 378.5033,423.6947 378.3723,424.1137" id="Fill-349" fill="#00684a"/></g></g></svg>