<svg viewBox="129 72 317.99999999999994 531" xmlns="http://www.w3.org/2000/svg" overflow="visible" xmlns:xlink="http://www.w3.org/1999/xlink" width="317.99999999999994px" height="531px"><g id="Master/Hands/Show" stroke="none" stroke-width="1" fill="none" fill-rule="evenodd"><g id="base" transform="translate(129.000000, 231.000000)" fill-rule="nonzero"><path d="M310.609959,9.73160067 C297.518652,-1.31298337 277.455714,-1.53867658 260.738587,7.01973985 C259.533228,7.63906618 258.291358,8.29865939 256.963581,9.02283418 C252.599533,2.95193894 242.682004,1.64339405 234.058125,3.92661327 C230.601947,4.84598941 226.474104,6.37613643 221.455128,8.52170954 C220.066861,9.11518274 218.616241,9.75313758 217.041205,10.4605457 C214.952661,11.398589 208.08862,14.5578589 206.86978,15.105928 C201.209867,17.646029 195.468121,20.2780867 187.218162,24.0987215 C186.422626,24.4671422 185.590245,24.8528459 184.636268,25.2950704 C172.811435,30.7765749 172.367288,30.9821275 168.006299,32.9820497 C155.344225,38.7887977 137.342044,47.9709996 124.69275,55.0550119 C121.15447,57.0435232 115.203998,60.4785378 107.510495,64.9619547 L107.206671,65.1390263 C102.726372,67.7504422 97.9450475,70.5481671 93.1761861,73.3458615 C91.5071248,74.325031 89.9588202,75.2342676 88.5704751,76.0502693 C88.2693078,76.2272808 88.0443691,76.3595138 87.7941559,76.5066425 C85.7760117,75.4254299 81.7589649,73.272491 80.4198429,72.5558976 C76.9648311,70.7070454 74.0898074,69.1752984 71.3108748,67.705243 C70.4426092,67.2459305 69.5939415,66.7980848 68.7618301,66.3601528 C60.9649002,62.2567056 54.5564672,58.9894562 49.2549147,56.4466912 C36.1515113,50.1550569 30.8117615,48.0208051 23.7887604,46.9915195 C19.3303885,46.3381039 15.0851385,46.5017509 10.894951,47.5722367 C1.07437074,50.0776073 -2.54062966,61.7433516 3.31417388,71.7407048 C6.79042182,77.6677084 11.1500855,82.5235555 19.8515236,90.9356907 C19.9126189,90.9947548 22.4370893,93.4307099 23.1573009,94.1293526 C24.4009214,95.3357289 25.4145459,96.3314847 26.3656202,97.2848852 C27.2871546,98.2086735 28.1292848,99.0725438 28.9178365,99.9052168 C29.7107379,100.745698 34.1859045,105.451031 35.4768234,106.824544 C47.7124057,119.842976 54.0350548,128.630393 57.0015909,138.695426 C61.6940772,154.635113 62.83,170.727974 62.83,201.29 C62.83,209.552992 63.0329336,229.330286 63.3821568,257.13481 C63.4231896,260.401763 63.4659165,263.75229 63.510167,267.175848 C63.6589258,278.684965 63.8183089,340.519161 63.977692,352.022084 C64.033476,356.048105 64.0852756,359.745154 64.1317626,363.031182 C64.1480333,364.181307 64.1624778,365.197907 64.1749301,366.070728 C64.1875488,366.953836 64.1875488,366.953836 64.1902066,367.138744 C64.2059201,368.231991 65.0966393,369.11 66.19,369.11 L239.52,369.11 C240.63577,369.11 241.535772,368.197018 241.519795,367.081362 C241.508682,366.305353 241.508682,366.305353 241.458652,362.813339 C241.410005,359.418327 241.355779,355.635314 241.297356,351.5613 C241.130436,339.921258 240.963331,278.281216 240.80711,267.417171 L240.802665,267.108049 C240.522184,247.603377 240.308905,232.834175 240.189786,224.690748 C240.050643,216.240476 239.777116,207.383182 239.36491,197.376812 C239.048122,189.686727 238.744086,183.285772 238.076597,169.856069 C237.274657,153.721269 236.944088,146.711414 236.614695,138.194523 C236.930154,137.912463 237.282257,137.597196 237.66855,137.250796 C239.065464,135.998146 240.621832,134.59645 242.297844,133.079389 C247.086936,128.744489 251.876257,124.352832 256.347902,120.173277 C256.889963,119.666624 257.424688,119.165555 257.951714,118.670377 C265.846248,111.252913 271.662769,105.49363 274.694925,101.975758 C276.638424,99.7204121 278.761316,97.3714524 281.28547,94.6661576 C282.463651,93.4034273 283.700642,92.0929882 285.261199,90.4511467 C285.930228,89.7472712 288.627553,86.9159269 289.304889,86.2033179 C302.687636,72.1236546 309.443343,63.8996061 314.882231,53.7658025 C318.20524,47.6066041 317.675119,40.0933687 313.439649,35.4591569 C320.01127,27.4081065 318.249219,16.1790884 310.609959,9.73160067 Z" id="Path" fill="#267966"/><path d="M136.32094,157.996921 C137.07164,157.955215 137.618688,157.911293 139.069805,157.784269 C139.93989,157.708106 140.391759,157.670568 140.90336,157.63417 C143.251332,157.467124 144.895078,157.506102 146.315509,157.822234 C147.393698,158.062197 148.462271,157.38268 148.702234,156.304491 C148.942197,155.226302 148.26268,154.157729 147.184491,153.917766 C145.302826,153.498981 143.321744,153.452004 140.619497,153.644255 C140.079752,153.682656 139.611914,153.721519 138.720996,153.799506 C137.314572,153.922619 136.791703,153.964599 136.09906,154.003079 C134.996191,154.06435 134.151809,155.008071 134.213079,156.11094 C134.27435,157.213809 135.218071,158.058191 136.32094,157.996921 Z" id="Path" fill="#005f4d"/><path d="M130.386331,82.3448742 C137.662351,80.6002714 146.613686,82.1775773 155.400965,87.3809208 C163.415834,92.1268854 168.088961,98.748953 171.679681,108.228454 C172.07095,109.261403 173.225506,109.781587 174.258454,109.390319 C175.291403,108.99905 175.811587,107.844494 175.420319,106.811546 C171.537025,96.5596499 166.357639,89.2201863 157.439035,83.9390792 C147.78591,78.2230298 137.777084,76.4593845 129.453669,78.4551258 C128.379545,78.7126733 127.717578,79.7922066 127.975126,80.8663309 C128.232673,81.9404552 129.312207,82.6024216 130.386331,82.3448742 Z" id="Path" fill="#005f4d"/><path d="M182,47.8 C205.099702,47.8 230.213388,55.526056 249.499412,68.4033079 C250.418031,69.016669 251.659947,68.7692081 252.273308,67.8505885 C252.886669,66.9319689 252.639208,65.6900532 251.720588,65.0766921 C231.781675,51.7635063 205.896152,43.8 182,43.8 C180.895431,43.8 180,44.6954305 180,45.8 C180,46.9045695 180.895431,47.8 182,47.8 Z" id="Path" fill="#005f4d"/><path d="M222.800926,54.3454161 C224.521351,53.2688403 226.245019,52.1687545 227.979267,51.0414005 C238.304886,44.3291981 267.342757,23.4132611 268.70739,22.4814981 C282.02917,13.3854729 291.192171,8.89071837 299.825053,7.82493047 C300.9213,7.68959135 301.70027,6.69119368 301.56493,5.59494686 C301.429591,4.49870003 300.431194,3.71973042 299.334947,3.85506953 C289.902554,5.01956248 280.262163,9.74849265 266.451844,19.1780891 C265.013743,20.1600148 236.027568,41.0387153 225.799188,47.6877077 C224.083947,48.8027061 222.379666,49.8904187 220.679074,50.9545839 C219.742721,51.5405173 219.458651,52.7745737 220.044584,53.7109262 C220.630517,54.6472786 221.864574,54.9313494 222.800926,54.3454161 Z" id="Path" fill="#005f4d"/><path d="M199.076816,48.1443582 C199.982699,47.4936405 200.822316,46.8899802 202.25866,45.8569054 C215.193664,36.5535458 220.735068,32.6307351 228.279085,27.5376036 C241.235485,18.7910527 246.170735,15.6999663 255.380343,10.8604411 C256.358131,10.3466269 256.734255,9.13744461 256.220441,8.15965697 C255.706627,7.18186933 254.497445,6.80574459 253.519657,7.31955886 C244.148988,12.2437195 239.109905,15.3998391 226.040968,24.2223608 C218.453299,29.3449626 212.890028,33.2832537 199.923069,42.6095966 C198.487338,43.6422303 197.648238,44.2455189 196.743184,44.8956418 C195.846075,45.5400568 195.641227,46.7897082 196.285642,47.6868164 C196.930057,48.5839247 198.179708,48.7887731 199.076816,48.1443582 Z" id="Path" fill="#005f4d"/><path d="M310.21544,34.8035628 C311.167338,35.3638886 312.393237,35.0464571 312.953563,34.0945597 C313.513889,33.1426623 313.196457,31.9167631 312.24456,31.3564372 C308.901404,29.3885186 305.129145,28.2647075 301.254084,28.0822142 L301.126107,28.0802872 C298.022598,28.1328891 294.667083,29.1868831 290.915905,31.1061423 C288.334342,32.4269774 285.700231,34.0738002 282.404873,36.3469768 C282.303125,36.4171636 276.362331,40.6011918 274.916422,41.545459 C259.675024,51.5175253 252.649647,56.0294396 243.799334,61.4220733 C242.856072,61.9968175 242.557329,63.2274045 243.132073,64.1706664 C243.706817,65.1139282 244.937404,65.4126708 245.880666,64.8379267 C254.778978,59.4160467 261.830067,54.8876194 277.105002,44.8936103 C278.61877,43.9050275 284.627762,39.6729687 284.676154,39.639587 C287.840062,37.4570864 290.341707,35.8930802 292.737847,34.667115 C295.964565,33.0161916 298.749921,32.1357325 301.131164,32.0809661 C304.334223,32.2423601 307.451044,33.176326 310.21544,34.8035628 Z" id="Path" fill="#005f4d"/></g><g id="Show/Wear" transform="scale(1 1)"><g id="Show/Wear/Watch" stroke="none" stroke-width="1" fill="none" fill-rule="evenodd"><g id="clothing" transform="translate(187.000000, 440.000000)" fill-rule="nonzero"><path d="M183.19,0.62 C182.75,0.51 182.28,0.41 181.8,0.32 C181.97,5.46 182.1,10.6 182.19,15.71 C182.4,28.38 182.79,56.25 183.1,78.08 C188.53,75.82 193.4,72.3 196.18,68.81 C204.829897,57.7398102 208.195759,43.4358104 205.39,29.67 C203,18.07 195.63,3.58 183.19,0.62 Z" id="Path" fill="#EBE8E5"/><path d="M187.05,22.78 C187.008742,22.0476078 186.569852,21.3965726 185.906403,21.0836251 C185.242954,20.7706775 184.461423,20.8460423 183.87,21.28 C177.62,25.9 166.53,29.12 162.05,30.28 C115.05,42.53 57.36,39.8 3.77,22.78 C3.41862293,22.5777649 3.01408159,22.4870918 2.61,22.52 C0.77,22.71 0.76,24.41 0.76,25.66 C0.76,26.41 0.76,27.49 0.76,28.82 C0.76,31.47 0.86,35.13 0.93,39.18 C1.07,47.02 1.24,56.78 1.24,63.03 C1.2513208,63.7330545 1.63100543,64.3785183 2.24,64.73 C8.7,68.73 19.24,72.89 30.41,75.88 C44.9897432,79.8185967 59.9279047,82.2842811 75,83.24 C79.48,83.46 83.9,83.57 88.31,83.57 C111.67,83.57 134.44,80.4 161.95,73.46 C170.77,71.23 178.71,68.98 186.66,63.95 C187.22438,63.5929017 187.57327,62.9776557 187.59,62.31 C188.06,41.14 187.06,23 187.05,22.78 Z" id="Path" fill="#744B15"/><path d="M55.5932493,59.6873277 L57.9332493,60.2873277 C59.0032059,60.5616756 60.0929799,59.9167073 60.3673277,58.8467507 C60.6416756,57.7767941 59.9967073,56.6870201 58.9267507,56.4126723 L56.5867507,55.8126723 C55.5167941,55.5383244 54.4270201,56.1832927 54.1526723,57.2532493 C53.8783244,58.3232059 54.5232927,59.4129799 55.5932493,59.6873277 Z" id="Path" fill="#0B0B0A"/><path d="M70.4,61.96 L71.94,61.96 C73.0445695,61.96 73.94,61.0645695 73.94,59.96 C73.94,58.8554305 73.0445695,57.96 71.94,57.96 L70.4,57.96 C69.2954305,57.96 68.4,58.8554305 68.4,59.96 C68.4,61.0645695 69.2954305,61.96 70.4,61.96 Z" id="Path" fill="#0B0B0A"/><path d="M83.91,62.24 L85.44,62.24 C86.5445695,62.24 87.44,61.3445695 87.44,60.24 C87.44,59.1354305 86.5445695,58.24 85.44,58.24 L83.91,58.24 C82.8054305,58.24 81.91,59.1354305 81.91,60.24 C81.91,61.3445695 82.8054305,62.24 83.91,62.24 Z" id="Path" fill="#0B0B0A"/><path d="M97.5255093,62.3066616 L99.9455093,62.1666616 C101.048235,62.1028676 101.890456,61.1572164 101.826662,60.0544907 C101.762868,58.9517649 100.817216,58.1095443 99.7144907,58.1733384 L97.2944907,58.3133384 C96.1917649,58.3771324 95.3495443,59.3227836 95.4133384,60.4255093 C95.4771324,61.5282351 96.4227836,62.3704557 97.5255093,62.3066616 Z" id="Path" fill="#0B0B0A"/><path d="M20.1000991,29.2599755 C29.9259229,29.3086182 35.5598105,32.1148512 38.3571075,37.5623429 C40.7748931,42.2707693 41.2390417,48.8345481 40.3275479,59.2964068 C40.3111485,59.4870831 40.2945731,59.6882743 40.2765124,59.9146977 C40.25256,60.2149836 40.1692984,61.295665 40.1614094,61.3965953 C40.1134556,62.0101107 40.0731227,62.4981541 40.0296939,62.9795554 C39.9185254,64.2118399 39.7965538,65.2792028 39.6444181,66.2881366 C38.9830728,70.6740465 37.7788063,73.4869557 35.9522579,74.5524422 C34.4178306,75.4477884 32.127914,75.3330895 28.8765862,74.2729163 C27.8410187,73.9352447 26.7763268,73.5303216 25.3222495,72.9360446 C25.377538,72.9586408 23.2052231,72.0623167 22.6182725,71.8281286 C21.6008614,71.4221905 20.7964174,71.1290109 20.0597944,70.9058844 C19.0026575,70.5856728 17.886096,71.1830688 17.5658844,72.2402056 C17.2456728,73.2973425 17.8430688,74.413904 18.9002056,74.7341156 C19.5079097,74.9181919 20.2153515,75.1760191 21.1359412,75.5433263 C21.6972485,75.767283 23.8444232,76.6532339 23.8089678,76.6387434 C25.3453036,77.2666392 26.490019,77.7019969 27.6365486,78.0758503 C31.8727805,79.4571751 35.1979773,79.6237298 37.9679635,78.0074286 C41.1573284,76.1469658 42.7716005,72.3763714 43.5997047,66.8845487 C43.7651104,65.7876111 43.8957359,64.6445196 44.0135157,63.3389491 C44.0585989,62.8392084 44.1001537,62.3363803 44.1492464,61.7082945 C44.1575082,61.6025943 44.240409,60.5265954 44.2638478,60.2327483 C44.2812943,60.0140247 44.2972094,59.8208487 44.3126448,59.6413675 C45.2855793,48.4743249 44.7791043,41.3119859 41.9153925,35.7351571 C38.3656517,28.8223467 31.3251808,25.3154962 20.1199009,25.2599995 C19.0153449,25.2545564 18.1154926,26.1455432 18.1100245,27.2500991 C18.1045564,28.3546551 18.9955432,29.2545074 20.1000991,29.2599755 Z" id="Path" fill="#0B0B0A"/><path d="M32.6705478,54.840909 C34.447606,55.7735886 36.4489976,56.418889 40.0855947,57.3716435 C40.3709084,57.446393 41.345402,57.7000502 41.5004655,57.7405722 C43.2278385,58.1919775 44.2602982,58.4816627 45.2235615,58.7993617 C46.2725499,59.1453341 47.4033892,58.575427 47.7493617,57.5264385 C48.0953341,56.4774501 47.525427,55.3466108 46.4764385,55.0006383 C45.4110989,54.649273 44.3161334,54.34205 42.5118023,53.8705337 C42.3537227,53.8292235 41.3808886,53.5759983 41.0993433,53.5022361 C37.7583143,52.6269177 35.9461087,52.0426157 34.5294522,51.299091 C33.5514062,50.7857687 32.3424133,51.1625018 31.829091,52.1405478 C31.3157687,53.1185938 31.6925018,54.3275867 32.6705478,54.840909 Z" id="Path" fill="#0B0B0A"/></g></g></g><g id="Show/Item" transform="scale(1 1)"><g id="Show/Item/Unlocked" stroke="none" stroke-width="1" fill="none" fill-rule="evenodd"><g id="items" transform="translate(188.000000, 72.000000)" fill-rule="nonzero"><path d="M78.5071581,88.0759536 C77.4063804,88.1460819 76.4566319,87.3117811 76.3843044,86.2111457 L75.9243209,79.2113964 C74.3672443,55.562151 74.3445553,43.6483328 75.5506467,32.0239087 C76.7489047,20.4573913 80.3815231,10.4827718 87.7796171,5.13820968 C92.2402431,1.91914958 97.044801,0.533716291 102.330911,0.598902049 C106.167377,0.646211496 109.220909,1.25375814 115.086235,2.83047236 L115.321547,2.89471381 C123.962101,5.32514001 132.271441,8.8076052 140.03789,13.2498033 L146.16789,16.6398033 C147.134306,17.1742486 147.484642,18.3908358 146.950467,19.357401 L140.180467,31.607401 C139.646553,32.5734939 138.430909,32.9243815 137.464299,32.3914053 L131.305102,28.9949863 C124.798574,25.2639289 117.857171,22.348671 110.653765,20.3195276 L110.445387,20.2626596 C104.163569,18.5899864 101.089348,18.7638995 98.3137294,20.75937 C96.1773875,22.3078039 94.1261284,27.4154901 93.4495363,33.9143169 C92.3774144,44.3541039 92.3483487,54.7693213 93.8856956,78.0588543 L94.3456956,85.0588543 C94.4182277,86.162604 93.5810505,87.1156269 92.4771581,87.1859536 L78.5071581,88.0759536 Z" id="Path" fill="#EAF3F3"/><path d="M115.087307,176.928961 C106.096318,177.346904 102.150331,177.497218 97.184513,177.55985 C93.0140593,177.610969 88.6748252,177.543872 83.0974001,177.369786 C81.4306156,177.317761 80.0420054,177.270006 77.1351133,177.166803 C72.2189183,176.992263 70.152231,176.924348 67.5285078,176.859752 C65.3070466,176.824768 63.0899289,176.651285 60.8936649,176.340818 C56.271279,175.695969 52.8119105,171.773196 52.7501474,167.104284 C52.5605325,151.488936 52.5155246,123.085497 52.7004357,114.228255 C52.7888847,109.991548 53.0408698,101.325339 53.3710673,90.8446705 C53.6933953,80.9821714 60.3342966,72.4508269 69.8112565,69.719634 C79.5142008,66.8964968 86.8692151,64.9655271 91.0401993,64.2673795 C92.0982691,64.0904818 92.8535743,63.9628166 94.8936417,63.6168772 C107.320147,61.5096834 113.020955,60.6977318 120.168203,60.2437121 C131.738448,59.5377894 139.563354,60.1566463 146.085384,63.7029451 C153.773378,67.8832273 156.656976,72.6388206 158.343853,82.9276596 C159.5004,90.0097781 160.311129,98.4922512 160.990395,109.436982 C161.164269,112.238538 161.327921,115.161875 161.510106,118.657123 C161.613475,120.640279 161.947049,127.248842 161.961907,127.539333 C162.117572,130.582828 162.240856,132.868065 162.366494,134.991631 C162.740159,141.294109 163.038728,153.946041 163.230446,167.529906 C163.29265,171.663395 160.064359,175.101017 155.941421,175.297427 C146.271484,175.788425 135.811501,176.236753 130.670546,176.339589 C126.343604,176.428531 122.848865,176.568168 115.087307,176.928961 Z" id="Path" fill="#EAF3F3"/><path d="M83.7033558,148.09001 C82.5948677,148.113565 81.6783739,147.231263 81.6602667,146.122662 L81.6525924,145.656771 C81.6438567,145.129862 81.6438567,145.129862 81.630622,144.339406 C81.6067999,142.920571 81.5798105,141.339551 81.5501866,139.636903 C81.4655489,134.772299 81.376766,129.907743 81.2881037,125.367806 C81.2358089,122.690061 81.1850433,120.203336 81.1363,117.945081 C81.0313583,113.083178 80.9384975,109.403393 80.8611854,107.158848 C80.5180901,97.1980192 84.4706278,90.76 91.62,90.76 C98.722151,90.76 103.865119,95.8826804 104.297129,103.802881 C104.507129,107.718129 104.674153,114.306021 104.804092,122.832833 C104.8802,127.8271 104.938855,133.17697 104.982262,138.526681 C104.997453,140.398956 105.009654,142.137533 105.019138,143.697894 C105.022458,144.244114 105.025202,144.729076 105.027403,145.147213 C105.029571,145.571127 105.029571,145.571127 105.03,145.660897 C105.034946,146.752101 104.164314,147.645875 103.073356,147.66953 L83.7033558,148.09001 Z" id="Path" fill="#3B3B3B"/><path d="M125.735712,68.0185048 C128.05723,71.6439925 129.219734,78.0853324 129.602232,86.1744654 C129.722466,88.7641226 129.85431,91.2305833 130.02688,94.2013059 C130.080776,95.1291207 130.351669,99.6864706 130.424248,100.950089 C130.74465,106.528431 130.925455,110.697018 131.03046,115.592886 C131.581673,140.9218 131.74957,153.716273 131.630055,169.825162 C131.62186,170.929701 132.510623,171.83175 133.615162,171.840001 C134.719701,171.84814 135.62175,170.959377 135.629945,169.854838 C135.749824,153.696809 135.581519,140.8712 135.029527,115.506486 C134.923375,110.557159 134.740599,106.34312 134.417666,100.720719 C134.344803,99.4521467 134.073805,94.8930298 134.020148,93.9693367 C133.848409,91.0129154 133.717356,88.5612572 133.597848,85.9872428 C133.182627,77.2060706 131.932264,70.2779112 129.104288,65.8614952 C128.508647,64.9312884 127.271702,64.6600699 126.341495,65.2557116 C125.411288,65.8513534 125.14007,67.088298 125.735712,68.0185048 Z" id="Path" fill="#3B3B3B"/><path d="M170.929381,9.20979168 L174.609381,4.03979168 C175.249917,3.13990927 175.039674,1.89115401 174.139792,1.25061875 C173.239909,0.610083492 171.991154,0.820325903 171.350619,1.72020832 L167.670619,6.89020832 C167.030083,7.79009073 167.240326,9.03884599 168.140208,9.67938125 C169.040091,10.3199165 170.288846,10.1096741 170.929381,9.20979168 Z" id="Path" fill="#FCD400"/><path d="M183.262113,27.7714022 L190.762113,26.7414022 C191.856411,26.5911186 192.621686,25.5821857 192.471402,24.4878874 C192.321119,23.3935892 191.312186,22.6283142 190.217887,22.7785978 L182.717887,23.8085978 C181.623589,23.9588814 180.858314,24.9678143 181.008598,26.0621126 C181.158881,27.1564108 182.167814,27.9216858 183.262113,27.7714022 Z" id="Path" fill="#FCD400"/><path d="M183.377964,52.0999411 L189.427964,55.1999411 C190.410998,55.7036447 191.616238,55.3150703 192.119941,54.332036 C192.623645,53.3490016 192.23507,52.1437624 191.252036,51.6400589 L185.202036,48.5400589 C184.219002,48.0363553 183.013762,48.4249297 182.510059,49.407964 C182.006355,50.3909984 182.39493,51.5962376 183.377964,52.0999411 Z" id="Path" fill="#FCD400"/><path d="M36.4032427,83.8743777 C42.0181564,88.6340397 45.7353691,96.8959789 46.50419,104.578318 C46.6478215,104.572236 46.808923,104.565416 47.0924361,104.553416 C47.4360892,104.538908 47.4360892,104.538908 47.7804993,104.524444 C51.7776236,104.356863 54.0372734,104.28 55.4185432,104.280247 C59.1000532,104.222336 62.2269994,104.064076 68.7749654,103.653912 L69.3856012,103.615678 C75.5653323,103.229112 78.8333819,103.065319 82.6107928,103.000378 C83.0380454,102.990959 83.3427806,102.984319 84.07696,102.968398 C93.3378083,102.767793 97.150739,102.655794 102.253169,102.382855 C103.358026,102.323754 104.300935,103.172948 104.357394,104.277943 C104.493364,106.939059 104.615212,110.874496 104.710414,115.509284 C104.731653,116.59302 103.886374,117.497078 102.803602,117.547808 C97.0403154,117.817831 92.2024802,117.940563 82.911742,118.099748 C79.2426717,118.157987 75.9557702,118.326689 69.7628445,118.726224 L69.1683686,118.762793 C62.8458091,119.15138 59.5279159,119.312922 55.6782705,119.369634 C54.0600336,119.400605 50.5283258,119.523794 46.8157184,119.673061 C46.1860431,130.229648 42.935622,138.25993 35.8204693,143.427104 C32.4127462,145.95139 28.3206067,147.384795 24.0710081,147.539069 C22.7478066,147.579451 21.4239068,147.486219 20.082527,147.254056 C14.3922996,146.160447 9.3922968,142.797896 6.2557907,137.974096 C3.27972748,133.594548 1.58902376,128.445289 0.927614751,122.561855 C0.330222244,117.247868 0.550407976,112.210338 1.37723283,104.951444 C1.43229343,104.468053 1.47637778,104.088544 1.57365397,103.256699 C3.09465537,90.3067643 11.2778026,80.3800308 21.6654264,79.2726483 C27.0175804,78.6678471 32.3768511,80.3461664 36.4032427,83.8743777 Z M23.1587498,94.4048944 C20.3517797,94.7565323 17.2460638,99.3750496 16.5764917,105.062057 C15.0646764,118.003718 15.4019565,124.568567 18.7440933,129.485733 L18.7988859,129.57091 C19.6595726,130.986393 21.0592119,131.989367 22.6741799,132.350264 C24.1307933,132.548609 25.6067059,132.147863 26.7635871,131.237968 L26.8278625,131.189477 C31.4048807,127.878882 32.2624285,120.77743 31.3939881,107.046239 L31.39,106.92 L31.39,106.780852 C31.1333195,102.704861 29.0707845,97.6938347 26.4527976,95.4690139 C25.6818658,94.7567602 24.6618711,94.376058 23.6127976,94.4090139 L23.4458333,94.4072855 C23.3502109,94.4022984 23.2544246,94.4015014 23.1587498,94.4048944 Z" id="Combined-Shape" fill="#FCD400"/><path d="M91.62,94.72 C96.5339603,94.72 99.9850666,98.1507257 100.302969,103.978929 C100.509277,107.825365 100.675377,114.376841 100.804557,122.853782 C100.880502,127.837443 100.939058,133.17821 100.982394,138.519136 C100.997562,140.388584 101.009744,142.124464 101.019212,143.682206 C101.022526,144.227321 101.025263,144.711199 101.027458,145.128268 C101.029618,145.550696 101.029618,145.550696 101.030021,145.639103 C101.035048,146.743661 101.934545,147.635007 103.039103,147.63 C104.143661,147.624952 105.035007,146.725455 105.03,145.620897 C105.029571,145.531127 105.029571,145.531127 105.027403,145.107213 C105.025202,144.689076 105.022458,144.204114 105.019138,143.657894 C105.009654,142.097533 104.997453,140.358956 104.982262,138.486681 C104.938855,133.13697 104.8802,127.7871 104.804092,122.792833 C104.674153,114.266021 104.507129,107.678129 104.297129,103.762881 C103.865677,95.8529072 98.7022773,90.72 91.62,90.72 C90.5154305,90.72 89.62,91.6154305 89.62,92.72 C89.62,93.8245695 90.5154305,94.72 91.62,94.72 Z" id="Path" fill="#3B3B3B"/></g></g></g></g></svg>