<svg viewBox="51.200000000000045 38.39999999999998 921.6000000000003 704" xmlns="http://www.w3.org/2000/svg" overflow="visible" xmlns:xlink="http://www.w3.org/1999/xlink" width="921.6000000000003px" height="704px"><g id="Master/Doodles/Sleek" stroke="none" stroke-width="1" fill="none" fill-rule="evenodd"><path d="M547.233018,217.498908 C562.08909,227.874746 581.986677,221.791798 596.41932,213.98195 C597.285999,220.031515 608.591569,219.457686 612.641178,222.373747 C619.025055,226.971597 626.177411,235.339936 631.185592,241.436417 C642.751526,255.51688 649.899378,275.193979 656.373346,292.065091 C663.041011,309.437852 671.274828,324.340546 688.415618,334 C693.953537,337.120872 699.317034,341.306228 705,344.233116 C711.794694,347.732931 719.667126,349.444376 727.140208,348.883178 C736.044842,348.214613 743.725069,347.935819 752.454025,346.258542 C761.781187,344.465778 771.736287,342.588203 780.976062,342.870606 C787.832918,343.080829 794.754641,341.684151 801.438522,342.00084 C805.542185,342.194823 809.608911,341.847458 813.705367,342.018885 C815.328814,342.086553 816.597301,342.073922 818.271199,342.224597 C822.240626,342.581887 822.30369,342.152417 822.886582,345.669375 C823.57488,349.826928 820.916283,356.577538 820.654117,360.845166 C820.350509,365.804816 821.191062,370.701309 821.009978,375.617652 C820.806371,381.142109 819.214456,380.634144 814.38826,383.16675 C809.707111,385.622666 805.257496,387.989259 800.417786,390.155554 C786.556323,396.360304 771.920074,402.433327 756.629761,404.143085 C738.28535,406.194794 719.17336,404.019477 700.945166,403.230011 C690.787361,402.790617 680.261081,401.048379 670.490669,398.554569 C662.80317,396.592182 650.343529,392.60786 644.338036,387.448813 C651.210208,387.140245 648.800263,381.03835 644.788493,378.340632 C637.478476,373.42429 634.204555,375.784567 635.95413,384.029298 C627.350401,381.211582 619.655694,374.383378 612.330363,368.916665 C602.912207,361.889065 588.935427,351.328267 588.377761,338.684181 C587.748923,324.426878 570.954985,295.649717 572.702758,310.654081 C574.273052,324.139061 580.170435,342.367643 572.702758,355 C572.377528,347.427443 558.880936,334.983165 552.526789,332.850253 C541.227525,329.05811 527.811114,329.644571 516.039771,330.368173 C494.231345,331.707107 472.356252,335.995486 451.432524,341.774376 C430.324109,347.604694 407.729185,355.178154 390.198299,369.019521 C388.038808,370.72567 386.021662,373.553311 383.823431,375.023071 C383.056754,375.535547 380.760324,375.244121 379.668416,375.811635 C376.762067,377.320191 381.171141,377.574625 376.392693,377.928306 C375.358443,378.004094 372.643989,376.895233 371.940376,376.575838 C360.38345,371.329273 361.039316,357.300238 361.728515,346.551773 C363.31052,321.849159 371.289015,296.924592 381.0324,274.377446 C389.749644,254.208622 401.639907,232.588083 418.876194,218.466117 C426.416844,212.289335 433.905242,205.043392 442.590954,200.640428 C445.890101,198.969467 451.823521,196.352951 450.522601,191.355406 C449.134292,186.020421 442.826092,188.61799 438.391794,188.404157 C415.355422,187.295296 396.78308,177.596143 379.342285,162.851627 C361.469052,147.741701 342.68681,142.638218 320.5,136.926996 C314.111619,135.283103 270.185741,124.728093 263.882946,124.78313 C256.908971,124.844482 249.962924,125.071849 242.996156,125.203577 C238.854654,125.282072 234.708647,125.27305 230.562641,125.605076 C227.224755,125.873044 223.547224,127.252579 220.22195,126.895289 C217.104787,126.560556 217.348935,127.485359 215.81648,125.169291 C214.738086,123.539834 215.029082,120.165431 214.717365,118.180488 C214.444388,116.447272 214.171411,114.713154 213.899335,112.979035 C213.038963,107.508713 209.018354,104.711407 213.450851,102.5 C219.961757,99.2510094 233.377374,96.3046488 240.5,95 C247.319018,93.7521927 285.922368,84.5127572 298.827961,82 C305.255982,80.7485838 383.096354,77.8495976 386,77.8297482 C413.965272,77.6375696 473.602896,93.0402844 487,105.351441 C500.397104,117.662598 500.411616,126.591232 506.200889,131.571634 C512.671254,137.136692 521.42994,144.057827 525.981357,151.272192 C529.05888,156.148836 530.239978,169.052769 536.531961,170.951998 C531.961625,185.579223 533.609396,207.982912 547.233018,217.498908 Z" id="Accent" fill="#00684a"/><path d="M581.635104,38.275574 C588.578385,38.927549 594.015623,41.8528699 600.352167,44.7908155 C606.976775,47.8631238 611.4778,52.1474023 615.901408,58.0106687 C617.979981,60.7655563 619.712876,63.4365798 620.877741,66.7099814 C621.445771,68.3070046 621.978692,76.202846 623.230877,77.1064131 C625.083499,78.4464337 636.432384,73.7843163 639.66592,73.915072 C643.237934,74.0593541 645.456039,75.1721303 647.56702,78.170494 C648.71028,79.7963737 649.876046,85.804824 652.015833,86.4604061 C653.050169,86.7769251 659.501938,84.1176245 661.017883,83.8858712 C663.222486,83.5486117 665.353271,83.0643647 667.612786,82.8470397 C674.629884,82.170717 681.922445,81.9813467 688.729795,84.134758 C699.043329,87.3955364 705.987484,95.2846275 707.179956,105.248694 L707.173972,105 C708.114972,107.321151 707.914972,109.656751 707.343972,112 L707.300081,110.191837 C707.188177,111.848659 706.925394,113.546449 706.502543,115.275358 C705.839992,117.98155 703.98827,119.957314 703.177185,122.522831 C702.087037,125.972077 702.484028,129.581836 701.665741,133.148311 C699.940948,140.661804 696.739819,145.12373 690.255643,149.029268 C711.104391,165.624422 688.491241,203.33978 666.952035,184.310766 C660.832441,192.891948 647.505806,199.032055 637.509029,201.419925 L636.677002,201.612443 C623.523871,204.556044 611.379669,202.49558 604.323871,190.323725 C603.506485,192.455494 602.180483,194.752286 601.777191,196.974231 L600.828375,199.450474 L600.828375,199.450474 C599.886761,200.702122 600.339564,201.425336 602.184984,201.618313 C603.444371,205.176672 604.368881,205.538279 602.512659,209.8442 C602.717844,209.773146 602.923195,209.705905 603.128692,209.642409 L603,210 C603.477204,208.666021 603.956015,207.333011 604.43563,206 C604.937739,207.341723 605.791725,208.119071 607,208.333979 L604.996697,209.168239 L604.996697,209.168239 C618.002943,206.552131 631.36094,218.025138 640.296964,226.662992 C646.700123,232.853598 650.105598,241.935259 654.116012,249.684113 C658.820483,258.773889 662.401499,268.272164 666.745888,277.50983 C670.649177,285.812366 673.059026,294.831805 677.321497,302.950382 C681.353515,310.632506 687.8746,316.172941 694.641441,321.095668 L695.717889,321.877832 C701.642985,326.174175 707.673555,330.333642 715.246234,332.124236 C724.396818,334.287566 734.610545,331.226079 743.554082,328.930189 C747.301663,327.530983 751.141797,326.484123 755.041668,325.691428 L756.000316,325.5 L756.019859,325.498109 C770.79682,322.659854 786.388023,323.335406 801.021589,322.223512 L802.434692,322.110152 C805.707968,321.833182 809.53489,321.898336 813.415261,322.262465 C814.119295,322.036435 814.822257,322.007719 815.524715,322.488302 C819.451241,322.965456 823.339813,323.739376 826.673398,324.766308 L827.332563,324.975054 C830.820857,326.110375 834.746651,326.941801 838.054004,328.479307 C839.830109,329.305323 841.265936,331.288301 843.092452,331.900598 L843.64055,332.07835 C846.659852,333.01892 846.690669,332.282142 850.315697,330.295459 C853.676162,328.453156 857.062734,326.696521 860.51592,325.03908 C881.406978,315.01688 902.48978,306.13 923.988476,297.772456 C929.570648,295.601911 935.121312,294.140153 940.856518,292.247351 L943.168688,291.468665 C946.788003,290.260951 951.549153,288.848726 954.708873,289.85407 C968.293867,294.17442 948.528966,310.404359 944.074751,314.584033 L944.575616,314.555439 C950.210978,314.180665 959.892068,311.920303 963.005163,317.904327 C964.335666,320.460826 963.868459,324.199538 962.676588,326.757841 C961.803389,328.630804 959.902156,329.712018 958.941637,331.480376 L958.529754,332.243461 C957.248574,334.642087 957.852595,333.901972 958.104446,336.954983 L958.167411,337.796301 C958.749643,346.480363 956.814397,350.51383 949.326547,356.277972 C942.024984,361.899565 932.581834,364.295551 923.87415,366.756464 C909.231104,370.895038 893.895592,372.181418 879.025618,375.576305 L877.24353,375.994129 C869.990578,377.740845 862.418954,378.871657 855.145297,380.190035 C847.066857,381.654499 837.564293,380.52008 830.726335,385.00455 C817.060323,393.967178 804.529469,405.154456 789.361014,411.637234 C775.973165,417.358924 763.493623,420.1589 749.109247,422.62883 C735.966624,424.886077 722.367761,423.397034 709.62466,423.612561 L708.468591,423.637001 C693.176808,424.027465 678.994078,422.983223 664.417058,418.575403 C649.594282,414.093638 635.295425,408.358422 622.684453,399.78716 L616.99678,395.93173 C611.801986,392.398522 606.676227,388.821896 601.760087,384.822394 C593.583525,378.170085 588.016657,370.289573 581.901564,361.742659 C578.388964,365.532771 575.580325,367.636585 570.983878,370.060525 C585.020775,385.482485 596.874675,403.372572 610.196809,419.430275 C615.749273,426.124065 620.354722,433.339977 625.619121,440.174443 C630.629108,446.679279 634.025285,454.668157 639.364891,460.868682 L640.0152,461.603951 C645.355216,467.478039 648.97224,474.287255 653.500271,480.805202 C659.051836,488.799335 666.520837,495.793413 672.431583,503.573829 C678.531372,511.604033 684.774294,519.525124 691.399803,527.056653 C697.101509,533.536081 703.142413,539.927648 708.575443,546.614013 L709.817998,548.162428 C721.502659,562.914378 735.346912,576.24605 748.633038,589.569606 C751.130057,592.072601 753.85249,594.505126 756.150632,597.211699 L756.766391,597.956908 C758.549697,600.176148 760.285292,601.646023 762.432281,603.958144 C763.931873,605.57155 765.707777,608.190045 767.109326,610.372793 L767.900126,611.618625 C770.303174,615.446946 771.814814,617.286036 774.73324,620.375113 L776.080089,621.792664 C778.435674,624.290639 782.116183,628.503495 781.235764,631.850592 C780.645229,634.095081 777.92661,634.171731 777.163236,636.047399 C776.737439,637.092543 777.61694,638.424448 777.583632,639.473199 C777.423395,644.622269 779.919664,646.048859 784.024599,649.820935 C787.334473,652.863125 791.416362,655.41764 795.411602,657.770277 L798.378368,659.501367 C802.053905,661.642153 805.865373,664.549439 809.9352,662.597121 C812.763644,661.239065 815.702814,658.651004 818.677091,657.116202 C825.67027,653.507216 833.1835,650.241902 840.369176,647.286328 L842.021208,646.609755 C858.497985,639.889381 875.012095,632.598064 890.882578,624.090368 L894.614955,622.073177 C903.12895,617.503093 912.299332,613.103071 921.566634,610.748378 L922.525643,610.512162 C927.132893,609.412912 931.9958,606.648105 935.388673,610.752031 C938.75634,614.822591 936.584145,620.373848 934.695515,624.488594 L936.81897,624.173514 C941.200029,623.541375 946.218654,623.1326 948.862942,627.18126 C950.030508,628.968556 949.272535,633.690189 950.549026,634.729923 C951.111654,635.18892 955.66309,634.188865 956.561495,634.425127 C968.179541,637.483007 964.128619,654.699476 958.285388,661.183156 C944.936247,675.997327 925.020111,683.30071 907.644354,691.834098 C903.097418,694.066864 898.49287,695.9768 893.808203,697.81279 C887.807436,700.165491 882.317986,703.136802 876.226298,705.332596 C866.078287,708.991051 856.270553,714.305143 846.380001,718.344142 C836.685441,722.304687 825.934763,724.360431 815.703334,727.224768 L811.453658,728.441322 C801.797887,731.160447 786.309589,734.648567 786.133779,721.562536 C777.724388,728.11172 766.994572,707.011528 762.584676,701.640856 L762.452986,701.482968 C758.552397,696.883974 754.671614,692.211035 750.971771,687.448822 C747.594202,683.102322 744.274246,672.530948 739.848838,669.698509 C737.144622,667.967123 734.15234,671.431698 729.991593,672.257714 C722.770148,673.690616 719.191833,671.658943 713.100145,668.303481 C702.448429,662.436443 692.588232,655.283526 681.76341,649.73174 L680.210255,648.949832 C668.882975,643.356193 659.217473,635.243928 648.594154,628.445533 C638.414635,621.931193 627.402427,616.501675 617.844951,609.265924 C599.510123,595.383373 578.253978,585.700958 560.875087,570.53123 L559.722313,569.51168 C550.658148,561.38679 540.022226,554.619957 530.347723,547.086624 C525.939419,543.65361 521.278157,540.7337 516.699714,537.556787 C514.123327,535.76859 511.645063,533.111093 508.823821,531.751234 C506.023283,530.401294 507.445607,529.871959 504.82691,530.890951 C503.33437,531.471687 501.623081,534.179683 500.394301,535.270817 C482.227263,551.41058 461.71159,559.042205 438.783368,566.243689 C434.111034,567.711038 429.731096,569.293065 425.06146,570.599939 L423.493386,571.024839 C418.467541,572.340512 414.789304,574.605742 409.319658,575.396588 C400.604446,576.657459 392.004049,576.887911 383.27434,576.966235 L379.128582,576.995415 C369.121903,577.054931 358.828058,577.206428 349.111245,578.072121 C339.111768,578.963965 328.711699,577.249712 318.896764,576.438125 C313.929432,576.027823 308.795563,575.292885 303.818329,574.535404 C298.965324,573.797762 294.866691,574.734694 290.091103,574.212573 C276.666345,572.747207 264.716124,569.704657 251.925111,565.326595 C240.253052,561.331783 228.333437,560.611274 216.522747,557.27565 C210.244718,555.502783 203.133998,554.04373 197.34838,551.075124 C194.061732,549.388827 189.22403,543.32627 187.744093,547.624075 C185.990494,545.362452 184.871539,542.678804 185.063282,539.769715 C180.571259,540.87167 178.299142,546.674518 175.004391,549.713461 C171.351359,553.081548 167.75504,555.291771 165.265073,559.85289 C159.693704,570.059952 163.313429,584.003921 165.509029,594.709658 L165.860978,596.448432 C168.015255,607.238126 169.822996,619.23018 168.560724,630.102974 L168.47858,630.777422 C167.948689,634.906878 166.698626,640.403819 161.828991,640.663527 C156.597899,640.943073 153.534502,632.729811 151.68278,629.12907 C147.678668,638.673335 142.425071,642.033306 134.82194,633.907514 C133.37621,639.320801 137.269597,661.193075 126.409524,658.660923 C118.363851,656.785043 111.63866,639.366211 109.144447,632.494568 L109.057172,632.25368 C101.189853,610.506348 102.307539,585.580849 104.990821,562.913579 L105.745832,556.638207 C108.272926,535.931967 111.700534,514.069491 128.268447,499.416699 C133.853719,494.476602 139.341844,492.49676 145.641145,491.865005 C144.746449,491.854091 143.861228,491.68544 143,491.132066 L149,491.634066 C148.726794,491.640037 148.452841,491.658015 148.178543,491.681527 C149.896205,491.601661 151.678031,491.600226 153.540803,491.648006 C163.466464,491.903205 177.406138,496.341685 184.020845,503.921008 C185.660118,501.117425 182.371669,498.07758 183.69317,495.173902 C185.389711,491.446323 188.864855,492.803671 192.307572,493.694418 L192.720426,493.798712 C200.797066,495.780789 208.301175,499.478921 216.617269,500.876654 C220.157763,501.472007 223.786014,501.422069 227.357635,501.637175 C228.900942,500.921346 230.449046,501.113913 232,501.768343 L229.368329,501.795034 L229.368329,501.795034 L229.444844,501.800787 L229.444844,501.800787 L229.520808,501.808176 C233.270162,502.18872 234.267589,501.223833 237.52183,500.64941 C240.086514,500.196725 243.980801,500.841485 246.402353,500.00014 C247.414183,499.648452 249.104768,497.823283 250.365955,497.205575 C252.423824,496.198305 255.502525,495.739307 257.76114,495.417378 C270.937959,493.540835 283.55272,488.544724 296.302301,484.163677 L301.65764,482.338035 C316.175737,477.373533 330.245257,472.23884 343.190597,463.418299 L345.051082,462.155442 C357.493387,453.737686 370.655895,445.302987 380.865077,434.28773 C385.673072,429.100787 388.454706,423.146442 391.058099,416.693422 C393.34642,411.023133 390.391047,410.29541 387.617515,405.030013 C385.18066,400.404868 384.751262,396.043038 380.550906,393.248472 C374.413308,389.166189 367.155855,388.380753 361.126282,383.592389 C353.834621,377.80218 353.961559,368.634756 352.414566,359.80328 L352.33578,359.362003 C348.99872,341.028249 351.681331,318.897168 356.230967,301.020608 C361.228905,281.384707 368.53947,262.390862 378.384112,244.698262 C387.666126,228.018342 400.216785,215.506373 413.705457,202.404651 C410.313484,200.048343 404.459451,199.696655 400.420231,197.887718 C395.034148,195.476127 390.542606,192.000054 385.889032,188.642823 L384.554117,187.68787 C374.954331,180.891279 366.25745,173.458042 355.951903,167.730942 C346.380923,162.409635 336.285124,157.90713 326.0804,154.472313 C320.903321,152.729204 314.765723,153.171068 309.344688,151.724639 C305.114625,150.595631 300.30933,149.906684 296.211597,148.398935 C294.097916,147.621615 292.244393,145.913675 290.065897,145.429428 C266.383303,140.166736 240.168433,141.214585 215.576632,141.081124 C210.324836,141.052268 201.939426,139.512958 197.063015,141.798928 C191.974156,144.184995 186.270457,150.065394 181.713619,153.440695 C170.985876,161.386134 159.654095,168.282821 149.236923,176.58626 C137.850299,185.66022 126.238165,194.660418 114.462121,203.276905 L111.226778,205.63389 C106.785756,208.923711 99.0455559,216.130374 95.544194,208.497867 C92.475395,201.804978 98.6508015,195.088644 100.898613,189.384088 L100.107985,189.847363 C93.5357775,193.771369 81.2377036,202.577718 78.0730148,191.430189 C74.8853888,180.202331 84.9955915,169.675144 91.6220007,162.055242 L90.9585526,162.19361 C83.363907,163.807745 69.6655565,167.624508 63.136813,162.608925 C56.2439431,157.312868 62.1573899,145.746849 67.0635073,141.683502 C82.0141124,129.301388 101.960855,121.674272 119.857832,114.68831 C138.019468,107.598645 156.311634,102.289963 174.944978,97.3275583 C178.778051,96.3058602 182.074602,93.0649221 186.052608,92.7078238 C190.636452,92.2957179 188.955769,95.2967869 191.135165,90.2036265 C192.083081,87.9879935 191.732901,85.2799977 192.979685,83.1572463 C199.043466,72.8446787 206.826639,88.256719 209.164472,93.6438543 C222.122023,88.3207443 235.332531,85.8066276 248.572747,81.888465 C259.03583,78.7918091 269.79328,75.4101959 280.382392,72.4181445 C286.086091,70.8057913 291.853704,70.0005165 297.621318,68.9364356 C303.130573,67.9201481 309.679564,66.2762332 315.5435,65.7099257 C320.575978,65.2230492 325.761166,64.7437074 330.927376,64.35864 C331.680707,64.2367321 332.40513,64.1848606 333.095289,64.2021919 C337.465225,63.900246 341.80486,63.6741519 346.009139,63.5772549 L357.617729,63.2928478 C402.281432,62.213497 448.488659,62.1487533 484.382354,93.7872347 C484.382354,96.871266 494.101084,105.127121 496.778101,107.041167 L496.906006,107.131531 C503.812379,111.948752 509.940075,116.678502 516.343233,122.39929 L517.453516,123.395427 C523.859242,129.170601 529.023059,134.384994 532.906105,142.329165 C536.442111,149.565817 537.306308,157.551835 539.192237,165.318724 C544.224383,159.586214 545.774536,164.977858 546.743157,169.695885 C547.784694,174.768304 549.025177,177.816265 552.264114,181.975198 C559.065567,190.713287 567.964087,195.365813 578.825528,196.56787 L580.089654,196.693205 C582.6649,196.926055 588.375754,197.332879 590.097931,196.624347 C593.545716,195.207676 592.514081,194.36092 593.994018,190.550068 C595.121075,187.646389 596.781953,185.520933 598.252888,182.831874 C600.048797,181.55137 600.727552,179.839822 600.289152,177.699036 L600.434985,174.872007 L600.434985,174.872007 C604.175337,172.675311 608.433307,182.795803 609.80792,184.621874 C613.796729,189.918833 618.098808,190.817892 624.579384,190.817892 L624.493318,190.178897 C624.053959,187.242622 623.431278,186.970393 626.555334,185.454202 C628.53492,184.493477 631.338473,185.105169 633.287007,185.858306 L633.51662,185.94927 C639.128498,188.226223 639.007871,189.343508 645.349815,186.743724 C649.746754,184.941324 653.7117,182.631682 657.687475,180.091206 L659.245804,179.085507 C662.184466,177.166895 662.767432,176.543674 664.049774,172.770898 C665.111116,169.649895 664.940077,165.499979 665.336167,162.262648 C661.053892,164.831772 658.54592,169.789668 653.84685,172.339855 C649.080265,174.927015 643.330655,176.544779 638.141873,174.163221 C627.343014,169.207129 630.386607,155.501225 633.571532,146.805519 C628.634808,145.958763 623.466731,143.02172 620.310612,139.152252 C618.185228,136.546156 616.647678,133.298003 614.37556,130.321282 C609.19218,123.53461 595.792628,121.909632 593.25315,132.2736 C591.98225,137.457253 594.922888,139.366461 599.615694,140.068072 L599.868756,140.104515 C605.629168,140.902575 607.032588,139.485003 604.93511,146.293318 C602.624284,147.482744 601.90592,149.335868 602.78182,151.851788 L602.350622,154.363199 L602.350622,154.363199 C601.825802,156.471523 600.701446,158.101911 600.087506,160.128174 L599.664256,161.523338 C598.247736,166.144125 597.485029,167.595973 591.549962,169.195406 C580.56386,172.157119 567.867658,173.752913 556.443808,174.765468 L554.801252,174.906653 C551.011487,175.202015 547.173803,174.997556 548.42654,169.863613 C549.45318,165.655507 556.208631,164.121978 560.007127,162.809303 L560.45688,162.649504 C564.731054,161.083141 572.624952,160.353614 576.285185,158.092893 C580.107052,155.732555 579.826557,151.484061 578.991002,146.936798 L578.938089,146.65222 C577.847941,140.843961 576.737988,136.425319 576.915329,130.183312 C577.109773,123.347945 579.567333,120.868095 583.63896,115.456612 C572.904915,118.436039 560.919586,126.229079 549.774147,126.213749 C534.94417,126.193009 537.692495,110.945991 540.650569,100.919282 L539.707731,101.084949 C534.302022,102.060791 526.671957,103.714902 524.165115,97.3131301 C521.057607,89.3812182 528.809272,80.2238096 533.565055,74.9358683 L533.007652,74.886872 C526.979381,74.4108461 521.316584,75.6104547 519.113164,68.3151205 C517.532404,63.0803832 519.473246,56.9014996 523.071365,52.9517754 C529.886767,45.470421 539.436121,42.3183228 549.084134,40.5946413 L549,40.5905169 L549,40.5905169 L549.192105,40.5754118 C552.848238,39.9262894 556.517126,39.4807108 560.055389,39.0808488 C567.194915,38.2746723 574.472172,37.6028584 581.635104,38.275574 Z M902.809353,636.24218 C899.063059,636.471692 893.089378,640.281236 889.650701,642.319035 L886.499481,644.169019 C883.145596,646.134704 879.735197,648.120209 876.54317,649.906603 L873.434007,651.643753 C866.08272,655.736897 858.088677,660.042051 850.150301,663.161554 L849.016701,663.59898 C839.758993,667.103233 830.422066,671.511955 820.968113,675.65646 L820.165828,676.002568 C816.19758,677.686085 810.967155,679.470513 806.677358,679.020038 C802.611751,678.592856 798.348456,674.530038 794.667427,672.558149 L794.313042,672.374041 C788.474312,669.438801 784.678148,665.62885 780.012385,660.931564 C777.980622,658.886364 772.806244,650.289852 770.062419,649.967923 C767.771561,649.699136 761.598924,654.590899 759.611383,655.840224 L758.541778,656.493414 C755.932021,658.104462 752.526448,660.356941 750.129706,662.212606 L749.69258,662.55564 C747.031574,664.672981 746.88394,663.116537 746.698498,665.898477 C746.575195,667.735447 750.664561,671.289674 752.123804,672.888324 L752.245561,673.024213 C756.738484,678.144426 761.428553,683.155526 765.671219,688.496671 C769.012405,692.702496 772.14028,697.191713 775.04999,701.727467 L775.838134,702.965467 C778.873626,707.771866 784.499007,713.333944 785.723286,718.953734 C792.785394,712.039913 799.722374,715.411607 808.599296,713.328533 C812.443171,712.425868 815.857649,710.295001 819.457569,709.032532 C822.458852,707.980174 825.682487,707.6357 828.77109,706.953065 C842.473111,703.927648 855.766438,698.007571 868.581757,692.713317 C871.574939,691.477 874.058605,689.112576 876.950963,687.68328 C880.050369,686.152086 883.43424,685.640786 886.558852,684.23133 C894.596782,680.607142 902.747239,676.796289 910.695149,672.916903 C918.612002,669.052524 926.924716,665.673331 934.769826,661.693432 L938.79477,659.605104 C944.085898,656.838394 951.73964,652.611026 953.766358,647.734255 C948.182387,648.735212 943.495019,651.916634 938.324241,653.52538 C929.204264,656.362328 929.650766,647.777539 929.650766,641.235245 C926.68384,641.235245 920.809429,645.372607 917.800928,646.850459 L917.55021,646.970461 C913.777451,648.724391 908.829024,653.361259 904.64037,653.673269 C894.275409,654.444277 899.28415,640.809612 902.809353,636.24218 Z M535.914591,358.987771 L532.163548,359.396629 C514.693273,361.281336 497.690265,362.902627 480.439456,366.896237 C461.792609,371.212077 442.340979,377.793147 424.641147,384.290354 C417.697866,386.838737 408.899262,388.636854 402.61313,392.582971 L401.600363,393.226982 C398.058137,395.528205 398.796404,395.829105 401.878563,400.795331 C404.120974,404.408698 406.006003,408.452205 408.404149,411.920388 C417.865754,425.603907 430.723721,437.367559 441.71687,449.743424 L442.710963,450.87026 C454.690369,464.54594 468.661092,478.090719 482.407233,490.173246 L483.781017,491.376576 C497.426325,503.286166 510.878989,516.04612 525.386693,526.747348 C555.62638,549.05337 586.252255,571.050088 617.680213,591.64817 C635.134288,603.088844 652.170668,614.809065 669.672455,626.330897 C678.771727,632.321312 687.263361,638.93665 696.931563,643.940535 C706.906735,649.104033 719.093711,656.335275 727.305381,663.959686 C733.038787,653.823864 745.160947,647.26173 754.231413,640.704106 C755.84138,639.541032 757.558749,638.013867 759.139474,636.657783 L759.725365,636.158316 C763.027317,633.365555 763.193855,633.829963 761.429453,630.634113 C759.488611,627.11994 754.196305,624.288403 751.424574,621.380216 C748.889597,618.720013 747.216116,616.02374 744.914291,613.178676 C737.258048,603.711963 727.395401,595.85129 718.825449,587.24035 C710.57417,578.949537 702.904423,570.531574 694.839487,561.703309 C690.845277,557.33156 686.307343,554.185307 682.476971,549.761255 C677.15856,543.616638 671.913965,537.324132 666.662169,531.117294 C657.793137,520.63477 650.258178,509.546761 641.757739,498.94564 L640.152031,496.963902 C623.467631,476.594868 610.811649,453.566533 596.207623,431.716803 C587.245181,418.308481 576.162757,405.791101 568.015002,391.849837 L566.795924,389.755772 C562.952932,383.122987 559.296721,376.457979 556.434419,369.269324 L555.989163,368.12985 C554.157245,363.350503 554.599246,362.977173 550.128828,361.578538 C545.814145,360.229499 540.367905,359.293469 535.914591,358.987771 Z M138.594699,515.6268 C129.24697,522.495533 124.803558,534.716232 122.30999,545.685284 C117.21573,568.091402 114.867995,591.32083 116.632397,614.247266 L116.775845,615.905454 C117.455732,623.592215 118.699361,634.113801 124.546099,639.309078 C126.951447,633.471963 125.617343,625.581532 126.681386,619.362069 C127.31513,615.657624 128.174826,612.009991 129.06963,608.361456 C129.578245,606.290105 129.889716,600.317725 130.971763,599.114772 C138.739632,590.47678 140.31319,616.187861 141.192691,619.176306 C144.067045,612.242646 143.119129,604.546094 145.672111,597.772948 C148.725606,589.670603 153.500294,596.190353 156.103687,601.278103 C156.872462,590.090825 152.476761,578.814272 152.632496,567.413276 C152.799934,555.2557 154.866805,547.167783 164.179426,538.980672 C168.63184,535.067018 180.523548,530.27685 182.666036,525.355025 C183.030619,524.519992 182.937898,518.348323 182.700244,517.48804 L182.350468,516.229194 C181.713576,514.041201 181.470988,514.469555 177.682501,513.56086 C173.835025,512.637454 170.25401,511.393922 166.360623,510.816794 L165.357846,510.671357 C155.235623,509.237814 147.297895,509.232824 138.594699,515.6268 Z M157.52241,606.621052 C155.948851,606.707621 157.506206,610.694318 157.706952,610.678086 L157.52241,606.621052 L157.52241,606.621052 Z M399.015911,422.984125 L398.557146,424.276636 C394.867906,434.61983 390.672991,445.002052 382.597072,452.86947 C375.847384,459.446031 368.124509,465.135393 360.854905,471.089209 L359.577029,472.142861 C344.749752,484.456442 326.910389,493.228798 309.199755,500.321168 C300.436259,503.830832 291.962629,506.082535 283.131618,509.186405 C278.951066,510.65628 274.499552,510.369519 270.580059,511.292023 C264.640507,512.689756 258.436293,515.579908 252.420223,517.277027 C243.940292,519.67121 235.366739,521.350293 226.50062,520.587401 C214.961792,519.59456 205.369207,513.937797 194.861114,509.845594 C195.407538,513.93419 192.267623,528.423726 194.594653,531.48341 C195.884647,533.178725 204.140427,533.875789 206.69791,534.446605 C217.133987,536.77586 228.242517,538.184415 238.668691,539.535256 C249.72591,540.967257 260.154785,546.44006 270.942842,548.98664 C281.124161,551.38984 292.370422,553.628919 302.432014,554.613644 C311.946281,553.694747 321.73331,556.853625 330.965812,557.243187 C339.942657,557.622829 349.125648,558.599439 358.118697,558.008784 C367.988545,557.361318 377.916006,557.380255 387.747145,557.685953 C398.404672,558.0169 408.557184,556.290925 418.829424,554.784979 C429.214189,553.261901 440.524365,548.539365 450.675977,545.518457 C456.681245,543.731162 462.45786,541.412728 468.491035,539.727332 C474.593524,538.022999 479.456432,533.974081 485.016998,530.865702 L485.390685,530.662395 C489.311403,528.580787 496.801225,526.038991 495.170411,521.816505 C493.67337,517.940725 483.697298,512.122547 480.434055,509.307241 L473.991684,503.755626 C466.477676,497.265592 459.014676,490.687428 452.061393,483.579026 L449.0754,480.518515 C431.205866,462.153345 414.190241,443.709498 399.015911,422.984125 Z M715.763244,460.613679 C718.90082,465.819271 722.334563,471.199252 726.143451,475.914938 C734.941409,486.808837 743.871295,497.252382 754.247015,506.701731 C764.19105,515.760055 775.421167,524.336562 787.351316,530.683771 L787.583754,530.801057 C791.802369,532.839749 816.335143,540.865661 806.828341,548.878623 C803.828078,551.40636 794.437787,549.011662 791.219438,548.004882 C785.657779,546.264591 779.497503,543.363806 774.407019,540.548417 C763.727055,534.639877 753.739941,527.101612 745.18161,518.390268 C735.734716,508.773783 727.951078,498.257301 720.339501,487.195204 L719.524566,486.007907 C712.460532,475.692907 701.647741,456.826568 706.003192,444.106981 C709.773489,442.578833 714.117273,457.882788 715.763244,460.613679 Z M764.302035,475.729624 C767.748333,479.779657 772.142135,483.243949 776.258596,486.46463 C781.269822,490.384797 785.784563,494.425874 791.048578,498.011972 L791.464628,498.290232 C795.909995,501.215106 804.736586,505.677435 803.950825,511.88974 C802.116176,526.401909 776.234683,505.872949 771.408937,501.204421 L770.453583,500.256027 C763.501548,493.280069 746.785604,475.038234 755.419862,466.097136 C760.633865,465.021486 762.132413,473.179769 764.302035,475.729624 Z M803.050664,482.743513 L803.911835,483.462161 C807.816105,486.677956 812.333428,489.94248 814.167985,494.43117 L814.152363,494 C814.700993,494.858597 814.942858,495.725588 814.813465,496.604273 C814.916574,497.145206 814.980048,497.703905 815,498.281399 C811.410989,510.795064 787.264418,488.453108 789.099346,479.456651 C790.748316,471.378024 799.312985,479.569925 803.050664,482.743513 L803.050664,482.743513 Z M313.160657,85.9968997 C309.434709,86.2349652 306.10485,86.3395698 302.387904,86.968099 L299.709794,86.1592171 L299.709794,86.1592171 L297.642023,87.6480287 C296.208896,87.8590413 294.169932,88.0781699 292.850231,88.3342707 C286.03658,89.6553543 279.226529,91.4128914 272.416478,92.9531035 C257.97989,96.2165857 244.02131,99.2167529 229.471297,102.265615 C226.001906,102.992437 217.563384,103.45955 214.842065,105.660755 C212.788137,107.322535 213.479156,108.004292 213.972394,110.929607 L215.494012,120.622197 C216.233438,125.617646 216.16586,127.341754 221.929379,126.789976 C227.136165,126.291301 232.211521,125.367895 237.47682,125.128928 L243.173767,124.862978 C248.251674,124.62991 253.357587,124.431008 258.417889,124.468536 L260.313221,124.494086 C267.813729,124.642877 276.454797,123.398444 283.79777,125.321905 L283.663097,125.025918 C281.483362,120.011625 280.32071,106.402546 286.208519,116.150068 C289.032462,120.825712 288.333003,126.555518 294.403985,128.224682 C299.354213,129.585443 304.739239,130.379897 309.841601,131.671222 L311.519504,132.092083 C331.11571,136.965081 351.394565,140.640463 368.075864,153.528166 L369.350304,154.518526 C385.671532,167.271527 400.742812,181.597485 421.722683,186.219799 C426.886259,187.357825 433.163388,188.019719 438.599727,188.282133 C441.765748,188.434531 448.059081,186.517381 450.210571,189.376873 C455.382222,196.247446 436.469977,204.319127 432.328314,207.834548 L432.207371,207.939676 C424.324275,214.968922 415.413146,220.462466 408.586891,228.665808 C401.452766,237.238874 395.32147,246.581144 390.066973,256.358966 C378.245481,278.355684 369.896979,301.680699 365.043974,326.162677 L364.290623,329.997869 C362.237333,340.622156 360.374924,352.316936 362.21553,362.886996 C363.04912,367.671754 365.72993,372.436672 369.85647,375.163605 C371.075839,375.970274 372.576428,376.551128 374.003838,377.000344 L374.429512,377.131253 C375.895045,377.611893 377.397487,377.895949 378.937738,377.98342 C379.108777,377.116825 379.437352,376.318764 379.921662,375.588336 C381.012711,375.022028 383.308234,375.313298 384.074308,374.801096 C386.270808,373.332123 388.285467,370.505095 390.444159,368.79986 C394.191712,365.840272 398.239034,363.027672 402.361973,360.637096 C411.373026,355.414924 421.077812,352.056748 430.74852,348.786264 L435.206854,347.276568 C458.111671,339.473608 482.103935,333.0774 506.424774,330.69494 L508.464103,330.500871 C520.773583,329.365271 534.354251,328.790416 546.40468,331.046628 L546.933737,331.151187 C555.300956,332.887825 571.260241,339.997951 571.678836,349.745597 C579.11723,337.159683 574.401056,323.918188 572.804993,310.465679 C571.019886,295.429674 567.957388,281.228702 573.005738,266.389282 L573.32974,265.448672 C576.80655,255.483091 582.655216,242.818168 592.387152,237.821413 C595.983472,235.975504 603.656819,237.089181 600.994013,243.189612 C600.925597,243.346519 595.917757,246.196993 595.205694,247.026615 C592.76974,249.863564 590.924319,253.571615 589.109506,256.827883 C574.678319,282.724728 587.519744,310.998622 588.46676,338.480767 C588.905159,351.168579 603.005071,361.683142 612.400511,368.697961 L613.556961,369.569435 C620.517475,374.858135 627.877451,381.138785 636.006587,383.8025 C634.258389,375.561283 637.528834,373.203171 644.833998,378.116881 C648.842611,380.813154 651.250659,386.910878 644.383895,387.219282 C649.797728,391.872381 660.856747,395.477632 667.737914,397.268534 C675.80015,399.366938 684.051429,401.236294 692.449442,402.424818 C709.218461,404.797358 726.29355,404.043484 743.15439,404.216622 C760.514844,404.39427 775.000044,399.759205 790.949876,393.737228 C798.270343,390.972421 805.151511,387.77567 812.115497,384.144268 C814.476735,382.912459 819.833855,381.482262 821.13285,378.785989 C822.806332,375.312396 820.304662,366.303778 820.454096,362.33151 C820.611632,358.102239 823.749746,349.315455 822.791028,345.463122 C821.87552,341.774909 824.198049,344.365675 820.451395,342.521569 C819.438665,342.022894 817.167447,341.764088 815.926965,341.624314 C808.991785,340.842485 800.790918,341.485443 794.051983,342.353841 C786.330024,343.348486 779.175194,342.006662 771.668385,342.893997 C761.700688,344.072249 751.484256,345.812363 741.804544,348.572854 L740.487983,348.955652 C724.794351,353.607926 710.257014,353.337436 696.22059,344.643331 L694.356608,343.472496 C688.665648,339.924082 682.248786,336.213399 677.483534,331.38479 C670.566358,324.375382 665.496403,314.395565 661.590414,305.445562 C652.997957,285.756457 646.737031,265.085332 634.973152,246.920207 C630.111176,239.413316 623.41773,233.254736 617.139132,226.88072 L615.278585,224.986496 C612.867097,222.563466 611.059685,221.050896 607.423277,219.88173 L607.040651,219.765843 C603.546732,218.76434 597.13958,218.293626 596.50199,213.846227 L595.630248,214.312421 C581.287585,221.889082 561.905436,227.517088 547.355296,217.360399 C533.744196,207.859419 532.099522,185.443381 536.662661,170.838419 C530.872542,169.090801 529.714879,158.024359 527.26272,153.447909 C523.865755,147.106435 517.54462,141.897343 512.207428,136.916107 L511.187759,135.954599 C506.101601,131.103111 500.657161,126.998284 494.951661,122.924116 C489.10753,118.749853 485.063809,113.259014 479.689585,108.656413 C457.243873,89.435324 429.83533,82.9281984 400.868533,81.9236338 C371.768505,80.9145604 342.399316,84.1284456 313.160657,85.9968997 Z M524.388264,339.923446 L523.48726,339.95515 C507.424002,340.490798 490.745903,343.980622 475.355998,348.306382 C445.850878,356.599901 417.49442,366.257788 390.375743,380.074609 C392.669466,383.226273 395.088317,379.395581 397.746622,377.775112 C401.630107,375.406179 405.928586,373.496244 409.890388,371.196747 C416.183786,370.551536 421.847719,366.794643 427.863694,365.399181 L428.533634,365.254126 C434.70724,364.015103 440.536068,360.576678 446.607951,358.627066 C454.59457,356.061548 462.678411,354.164238 470.92879,352.716907 C477.853167,351.50133 484.535389,348.868181 491.466067,348.062906 L497.707289,347.32994 C509.779295,345.924001 521.529073,344.780663 533.820714,346.528104 C540.70275,347.505865 546.75986,348.934211 552.906012,352.097997 L554.616166,353.000247 C560.74939,356.207717 561.751949,355.874603 568.97462,352.695265 C566.593578,346.28553 557.55912,342.030108 551.49714,340.725256 C542.658288,338.821953 533.406335,339.590723 524.388264,339.923446 L524.388264,339.923446 Z M312.983428,254.771612 C313.544691,260.234961 299.687893,262.967992 295.900494,264.602203 C288.147919,267.94985 280.767332,272.099491 273.292885,275.973922 L271.689611,276.799552 C247.606657,289.112661 225.763348,306.51742 203.468687,322.258122 C190.162341,331.652803 177.716358,342.271107 164.538842,351.798731 C157.983627,356.538276 152.169251,362.112903 145.908384,367.115998 L144.117387,368.527476 C139.282272,372.394288 132.252854,379.592344 130,370.857597 C130.70811,359.577288 147.762215,349.308978 155.49377,342.404051 L158.229838,339.960726 C167.357866,331.81518 176.586543,323.688931 186.594763,316.499946 C213.579394,297.11458 241.597006,279.61689 271.39086,265.00821 L274.033769,263.723775 C280.676063,260.544121 312.083101,246.007971 312.983428,254.771612 Z M830.83346,344.233116 C830.072787,354.48256 829.20949,364.698639 827.785366,374.885862 C831.129627,373.731605 830.257329,369.131709 833.990479,368.521215 L834.260371,364.362998 C834.514942,360.573244 834.836612,356.833278 835.616249,353.055971 C835.836799,351.987381 837.636309,347.056538 837.236618,346.415384 C836.609175,345.409918 831.821885,344.570376 830.83346,344.233116 Z M276,316.16557 C274.511636,319.418364 271.944027,318.533864 269.165989,319.56909 C264.84901,321.178338 260.746978,324.122459 256.750612,326.418549 C249.070365,330.83112 241.465077,335.421495 233.9492,340.108442 C219.985853,348.815351 206.495747,358.24069 194.033408,369 C186.179759,361.103582 225.502192,333.285156 230.665407,329.962866 L233.248971,328.303236 C239.734891,324.148447 246.422762,319.983908 253.298472,316.554432 L255.927346,315.262109 C262.864996,311.79756 275.729186,304.946356 276,316.16557 Z M930.922756,310.680299 C925.268016,310.921157 920.113214,314.127138 914.919875,316.185683 L914.400393,316.38756 C908.467141,318.646478 902.452872,321.211995 896.646549,323.732424 C882.397204,329.919424 867.217046,334.158614 852.727346,340.127387 C857.083438,347.557918 852.132311,351.214569 845.01709,348.483128 C843.944946,354.750384 843.526351,361.133066 843.526351,367.475169 L850.845918,366.794338 L850.845918,366.794338 C866.730936,364.768075 882.456617,358.269967 898.123786,357.189655 C906.366063,356.621543 915.437471,354.898372 923.758578,353.152244 L927.274225,352.405799 C933.343407,351.105456 946.022795,350.035063 949.410266,344.16368 C945.318834,345.423444 939.920305,348.292856 935.643431,348.404674 L935.099223,348.423806 C932.369253,348.540367 931.366143,348.821992 930.781424,344.764255 C930.483456,342.699216 931.155909,340.220269 932.408994,338.597094 C934.567686,335.801627 939.191139,334.433652 942.331054,332.655374 C946.562918,330.259389 950.498614,327.693871 954.483822,324.904717 C953.374882,322.153076 939.135876,326.948319 934.631395,328.534822 L931.642084,329.603128 C928.996605,330.552534 926.350434,331.530334 923.818338,332.74014 C921.741565,333.73208 918.140745,336.935144 915.79481,336.849476 C909.86516,336.634857 910.398981,329.478461 913.272436,325.36642 C917.343163,319.542831 925.457611,315.208054 930.922756,310.680299 Z M252.173248,352.472758 C255.585106,354.13897 257.322068,359.355792 254.805618,362.188447 C249.218522,360.596127 235.472804,367.520917 243.408331,357.174837 L243.96584,356.463133 C246.306621,353.527529 248.944154,350.896195 252.173248,352.472758 Z M548.404935,191.330093 C542.590727,194.547549 560.291337,205.82543 563.161519,206.748025 L563.243915,206.772794 C565.776192,207.475267 584.871341,210.006518 585.099993,205.801594 C578.435775,204.327211 571.74185,205.217252 565.210863,203.2478 C557.221543,200.837386 554.136541,196.868725 548.404935,191.330093 Z M680.71617,179.101278 C686.301042,178.118356 692.738408,175.582597 694.336272,169.292796 C695.881024,163.214008 691.425009,160.270652 685.979669,159.514974 C673.485723,157.778178 665.036399,175.90633 680.71617,179.101278 Z M182.335661,105.354155 C177.828335,106.01605 174.104186,107.703249 169.883125,109.501366 C159.553272,113.901972 149.107293,117.871535 138.797245,122.301899 L135.3929,123.760227 C117.248502,131.513201 99.313776,138.933548 82.3534897,149.083374 C95.7449397,147.950759 109.44426,144.071372 121.636637,138.418217 C126.793911,136.027642 146.15102,119.952805 146.72085,133.939157 C146.972907,140.128862 141.642793,142.330067 137.142668,145.312199 L134.607951,146.996999 C130.398527,149.808613 126.269905,152.656141 122.301165,155.807199 L120.925455,156.91328 C117.5181,159.57603 96.7214784,173.622917 97.7496963,175.909937 C103.259851,174.59246 109.184101,170.432625 114.037106,167.532554 C118.898213,164.62626 123.973695,162.009947 129.005646,159.376614 L130.680997,158.497785 C133.722789,156.896253 140.66337,151.334176 144.005831,153.766232 C149.79685,157.980173 141.859743,165.811087 139.251849,168.692222 C144.320903,168.165592 151.11295,160.785559 155.056748,157.709644 C160.043884,153.819436 165.288479,150.344039 170.350331,146.515151 C174.979523,143.013378 179.799629,139.702159 184.530825,136.313268 L186.552222,134.855349 C191.569064,131.208617 190.756179,131.229358 190.264667,125.220908 C190.027151,122.318616 190.161436,119.417392 190.334811,116.518467 L190.492419,113.910088 C190.571637,112.537604 191.611374,105.84201 190.378993,104.683243 C189.947795,104.278352 183.018017,105.25406 182.335661,105.354155 Z M137.234489,170.198167 L134.293519,172.327231 L134.293519,172.327231 C136.067823,172.736631 136.926619,172.031452 137.234489,170.198167 Z M637.120141,160.341892 C643.279343,164.642402 650.012877,164.098638 656.111766,159.293141 L656.487095,158.991914 C661.233991,155.110099 665.621832,148.747271 660.228404,144.165156 C651.335278,136.609279 638.589275,152.070015 637.120141,160.341892 Z M630.080537,133.144704 C632.500288,134.246659 635.58259,136.15479 638.156277,136.820292 L638.750423,136.970244 C642.558586,137.902742 641.371369,136.964637 645.477644,135.320659 C649.299014,133.790366 656.492553,133.174462 660.423748,133.972523 C670.954347,136.109702 669.264662,148.540512 668.257332,156.826817 C673.445214,154.305487 674.103264,149.558603 675.947784,144.728758 C677.944439,139.501235 680.093228,134.754352 681.630778,129.319423 C675.060182,131.038184 667.72081,132.039142 660.895456,131.967001 C656.177856,131.034577 651.461013,130.612865 646.749087,129.606499 L645.464141,129.316718 C638.970062,127.770193 636.125414,130.122894 630.080537,133.144704 Z M200.721449,95.8297291 C200.140816,98.9101533 198.105453,103.615555 198.756301,106.757299 C199.606995,110.853109 201.546937,110.180394 201.546937,115.221252 C201.546937,118.286346 201.040121,121.777073 201.598248,124.791668 C202.693798,130.729781 204.451898,129.780224 209.368818,128.478979 C209.368818,122.870912 207.874478,114.525992 206.756423,109.082948 C205.841815,104.633646 202.583973,100.305181 200.721449,95.8297291 Z M586.551123,113.482652 L586.960334,113.560673 C589.798595,114.138857 599.937937,116.63799 596.259835,110.544706 C594.171359,107.08464 589.9593,113.485357 586.551123,113.482652 Z M616.725096,91.8249973 C609.569366,95.6935628 602.370426,106.0927 599.467265,113.645871 L601.260646,113.459357 C603.340471,113.237273 605.16478,112.944181 606.782331,111.745855 C607.846373,110.957714 608.966228,108.73126 609.970857,107.680705 C612.346573,105.195896 615.288093,102.867937 617.952258,100.597503 L618.671339,99.9796448 C625.448982,94.1019502 632.778452,88.9005782 640.970318,85.2069548 C634.246686,81.4817697 622.752868,88.5669257 616.725096,91.8249973 Z M375.85179,62.3410492 L372,62.8845354 L372,62.8845354 C373.165199,61.4689799 374.562942,62.4653255 375.85179,62.3410492 L375.85179,62.3410492 Z M157.784206,606 L157.989206,609.999951 L157.989206,609.999951 C157.766206,610.015955 156.036206,606.085351 157.784206,606 Z M152.840665,566 L152.760665,573 L152.760665,573 C151.940665,570.658758 151.951665,568.323448 152.840665,566 Z M295,552.908876 L291.322,552.41 L291.414852,552.413904 C292.627085,552.418679 293.944538,551.421497 295,552.908876 Z M247,499 C246.498643,500.51426 245.119457,499.862917 244,499.84856 L247,499 Z M710.476387,372 C713.58291,374.127717 719.792467,390.041304 712.814565,387.780715 C707.492835,386.057814 706.389592,375.138427 710.476387,372 Z M410,371.033349 C405.938927,373.294926 401.553116,375.19036 397.554777,377.500698 C394.730846,379.131941 392.430924,382.964477 390,379.761389 L390.62035,379.448306 C396.008437,376.650228 404.261658,370.493342 410,371.033349 Z M785.052663,359.010097 C789.844479,359.461166 787.683908,366.331012 786.25469,369.277201 C783.455995,375.044638 777.599733,378.019305 771.366028,377.921007 C763.962881,378.996775 770.787643,368.753556 772.79434,367.332367 C775.128699,365.680591 777.598828,365.023739 779.860775,363.039402 C781.276416,361.798273 782.880325,358.804314 785.052663,359.010097 Z M669.218084,367.578602 L669.454983,369.083581 C669.894838,371.72264 671.156757,377.661403 667.217899,376.939653 C663.365982,376.23395 662.312523,367.51943 662,365.013282 C665.765807,353.758007 668.045055,360.468927 669.218084,367.578602 L669.218084,367.578602 Z M844.188231,362 C845.039231,362.997668 844.993231,363.999709 844.208231,365 L844.188231,362 L844.188231,362 Z M392,360.238898 C391.938181,367.04961 378.56769,359.988491 380.126403,352.798244 C381.886469,344.676169 391.90109,356.441791 392,360.238898 Z M611.788482,334 C614.272856,336.202209 613.127235,340.856115 613.553002,343.703647 C613.983159,346.589968 616.385891,350.442511 613.864646,353 C607.662489,349.453369 607.873178,339.062082 611.788482,334 Z M447.757712,323.681212 C447.125308,326.061916 441.13188,331.937698 439.496818,333.493214 C435.118634,337.659677 430.01886,336.752523 430.016157,329.86828 C429.334205,322.0732 450.481015,313.440038 447.757712,323.681212 Z M648,327.003645 C647.844285,336.723512 630.32722,326.565288 632.13019,319.273179 C634.402055,310.085351 646.596815,322.711986 648,327.003645 Z M553.731537,307 C554.062011,310.9978 554.589817,312.535992 556.519475,315.599066 L557.189767,316.641044 C558.995656,319.402877 560.047626,320.83048 557.413577,324 C554.148691,321.50882 550.203581,319.572122 549.229283,315.419267 C548.474836,312.210364 549.483897,307.132189 553.731537,307 Z M777,323.835236 L773,323.824236 L773,323.824236 C774.337328,322.786236 775.669663,323.116236 777,323.835236 Z M807,322.136106 C805.671886,323.100106 804.336922,323.105106 803,322.159106 L807,322.136106 L807,322.136106 Z M517.984519,300.360088 C518.036458,305.661793 516.181483,311.89478 511.512512,315.079103 L511.262109,315.243222 C507.493559,317.619341 499.616167,318.583264 502.700454,311.522634 C503.661331,309.323673 506.373304,308.234734 508.031651,306.604991 C510.759392,303.92114 510.984771,301.014551 512.511416,298.502107 C513.032663,297.642322 512.208127,295.611101 513.847925,295.109713 C516.586795,294.272842 518.175581,298.437028 517.984519,300.360088 Z M604.392997,290.131745 L606.154577,290.359514 C609.650164,290.844079 614.93864,291.899355 614.999132,295.260405 C615.08322,299.878154 609.038148,299.406338 605.449175,299.998995 C595.957433,300.123391 592.95615,288.652324 604.392997,290.131745 Z M408.842329,291.30026 C410.301692,294.746827 401.207178,305.067364 399.000157,296.973362 C398.958672,293.536833 407.142351,287.285197 408.842329,291.30026 Z M501.529343,269.87669 C504.586443,275.471027 491.886222,280.635242 488.320194,283 C482.452504,276.341339 497.82813,263.103635 501.529343,269.87669 Z M622.328555,262.649792 C620.665933,265.911319 613.447409,268.413115 610.182105,268.870036 L609.793968,268.918783 C605.708443,269.373178 601.377284,267.997305 603.607235,262.848061 C605.524368,258.423955 613.037056,258.026515 617.189459,256.999978 C620.958252,256.993713 624.521407,258.348252 622.328555,262.649792 Z M460.778878,263 C458.478611,261.173214 450.460826,251.426465 452.261075,247.89043 C454.483071,243.52355 465.659349,256.287726 460.778878,263 Z M531.100782,260 C526.742055,258.4541 504.709894,254.266825 514.468117,245.344536 C520.913744,239.450098 538.824813,254.518914 531.100782,260 Z M430.594999,235.854045 L431.607042,236.382836 C435.261353,238.314978 437.431644,239.892245 434.912106,245 C430.883518,244.638037 426.2396,244.678255 422.69366,242.368458 C420.104998,240.682956 415.612464,234.174026 419.554674,231.364245 C421.981266,229.633954 428.108744,234.559754 430.594999,235.854045 Z M509,194.317652 L508.881218,195.033171 C508.178008,199.0282 506.927292,202.018623 503.316099,204.423699 L503.057214,204.593267 C499.70318,206.754869 493.58748,209.35626 494.021968,202.987906 C494.287332,199.098051 507.244584,184.543687 509,194.317652 Z M446.999714,155.799921 L446.993162,155.988987 C446.993162,164.245023 429.591257,153.671584 431.091743,146.449396 C433.073852,136.91854 447.072908,149.496378 446.999714,155.799921 L446.999714,155.799921 Z M324.194893,102 C327.971682,103.809124 332.903869,123.07842 327.839438,124.772483 C319.788203,127.466697 321.613521,105.411137 324.194893,102 Z M444.174838,106.660745 C448.557474,112.690697 434.266625,120.640341 429.829693,121 C422.477941,115.123152 439.334302,100.002974 444.174838,106.660745 Z M248.984464,107.880198 C249.320427,111.646459 244.124576,115.31189 241.443088,116.999746 L241.275421,117.104778 C236.579794,120.033928 233.993733,119.878462 232,114.42986 C233.432996,109.378152 235.01166,107.004105 240.017931,105.052558 L240.504535,104.869819 C243.728065,103.70707 248.543084,102.924767 248.984464,107.880198 Z M394.958156,116.239226 C393.506563,124.831033 382.477343,111.040034 383.01932,106.470295 C384.054495,96.2667198 395.786477,111.333166 394.958156,116.239226 Z" id="Shape" fill="#0f0f0f"/></g></svg>