<svg viewBox="-20.800000000000068 -179.4472049689441 696.8 777.9503105590062" fill="none" xmlns="http://www.w3.org/2000/svg" xmlns:xlink="http://www.w3.org/1999/xlink" overflow="visible" width="696.8px" height="777.9503105590062px"><g id="Master/Spot Illustration/Process"><path id="Fill 32" fill-rule="evenodd" clip-rule="evenodd" d="M586.099 574H154.5C154.224 574 154 573.776 154 573.5C154 573.224 154.224 573 154.5 573H586.099C586.375 573 586.599 573.224 586.599 573.5C586.599 573.776 586.375 574 586.099 574" fill="#000000"/><path id="Fill 33" fill-rule="evenodd" clip-rule="evenodd" d="M500.937 597H401.5C401.224 597 401 596.776 401 596.5C401 596.224 401.224 596 401.5 596H500.937C501.213 596 501.437 596.224 501.437 596.5C501.437 596.776 501.213 597 500.937 597" fill="#000000"/><g id="User Interface" transform="translate(116 56.24) scale(1 1)"><g id="User Interface/Texting"><path id="Fill 2" fill-rule="evenodd" clip-rule="evenodd" d="M181.605 487.223H388.39V34.9624H181.605V487.223ZM180.605 488.223H389.39V33.9624H180.605V488.223Z" fill="#000000"/><path id="Phone" fill-rule="evenodd" clip-rule="evenodd" d="M195.626 482.549H374.366C379.781 482.549 384.17 478.16 384.17 472.746V51.2321C384.17 45.8171 379.781 41.4281 374.366 41.4281H336.399C329.442 41.4281 323.802 47.0681 323.802 54.0261C323.802 60.9831 318.161 66.6231 311.204 66.6231H258.788C251.831 66.6231 246.191 60.9831 246.191 54.0261C246.191 47.0681 240.551 41.4281 233.593 41.4281H195.626C190.212 41.4281 185.823 45.8171 185.823 51.2321V472.746C185.823 478.16 190.212 482.549 195.626 482.549ZM170 473.911V50.0661C170 35.4731 181.83 23.6431 196.423 23.6431H373.569C388.162 23.6431 399.992 35.4731 399.992 50.0661V473.911C399.992 488.504 388.162 500.333 373.569 500.333H196.423C181.83 500.333 170 488.504 170 473.911ZM263.532 468.799C265.67 468.799 267.403 467.066 267.403 464.928C267.403 462.79 265.67 461.058 263.532 461.058C261.395 461.058 259.662 462.79 259.662 464.928C259.662 467.066 261.395 468.799 263.532 468.799ZM288.867 464.928C288.867 467.066 287.134 468.799 284.996 468.799C282.859 468.799 281.126 467.066 281.126 464.928C281.126 462.79 282.859 461.058 284.996 461.058C287.134 461.058 288.867 462.79 288.867 464.928ZM306.46 468.799C308.598 468.799 310.33 467.066 310.33 464.928C310.33 462.79 308.598 461.058 306.46 461.058C304.322 461.058 302.589 462.79 302.589 464.928C302.589 467.066 304.322 468.799 306.46 468.799Z" fill="#000000"/><g id="Writing"><path id="Fill 6" fill-rule="evenodd" clip-rule="evenodd" d="M324.408 179.924H473.577C478.311 179.924 482.149 183.762 482.149 188.496V241.267C482.149 246.001 478.311 249.839 473.577 249.839H469.003L469.242 249.966L458.77 260.437C456.702 262.505 453.349 262.505 451.281 260.437L440.809 249.966L441.048 249.839H324.408C319.674 249.839 315.836 246.001 315.836 241.267V188.496C315.836 183.762 319.674 179.924 324.408 179.924" fill="#e1e1e1"/><path id="Fill 22" fill-rule="evenodd" clip-rule="evenodd" d="M381.685 218.008C381.685 219.856 380.186 221.354 378.338 221.354C376.49 221.354 374.992 219.856 374.992 218.008C374.992 216.16 376.49 214.661 378.338 214.661C380.186 214.661 381.685 216.16 381.685 218.008" fill="#ffffff"/><path id="Fill 24" fill-rule="evenodd" clip-rule="evenodd" d="M402.338 218.008C402.338 219.856 400.839 221.354 398.991 221.354C397.143 221.354 395.645 219.856 395.645 218.008C395.645 216.16 397.143 214.661 398.991 214.661C400.839 214.661 402.338 216.16 402.338 218.008" fill="#ffffff"/><path id="Fill 26" fill-rule="evenodd" clip-rule="evenodd" d="M422.994 218.008C422.994 219.856 421.495 221.354 419.647 221.354C417.799 221.354 416.301 219.856 416.301 218.008C416.301 216.16 417.799 214.661 419.647 214.661C421.495 214.661 422.994 216.16 422.994 218.008" fill="#ffffff"/></g><g id="Text Message 3"><path id="Fill 20" fill-rule="evenodd" clip-rule="evenodd" d="M327.077 121H84.916C77.23 121 71 127.23 71 134.916V220.584C71 228.27 77.23 234.5 84.916 234.5H92.341L91.954 234.706L108.953 251.705C112.31 255.062 117.754 255.062 121.112 251.705L138.111 234.706L137.723 234.5H327.077C334.763 234.5 340.993 228.27 340.993 220.584V134.916C340.993 127.23 334.763 121 327.077 121" fill="#969696"/><path id="Stroke 28 (Stroke)" fill-rule="evenodd" clip-rule="evenodd" d="M92.9922 149.03C92.9922 148.201 93.6638 147.53 94.4922 147.53H320.497C321.326 147.53 321.997 148.201 321.997 149.03C321.997 149.858 321.326 150.53 320.497 150.53H94.4922C93.6638 150.53 92.9922 149.858 92.9922 149.03Z" fill="#ffffff"/><path id="Stroke 30 (Stroke)" fill-rule="evenodd" clip-rule="evenodd" d="M92.9922 168.833C92.9922 168.005 93.6638 167.333 94.4922 167.333H320.497C321.326 167.333 321.997 168.005 321.997 168.833C321.997 169.662 321.326 170.333 320.497 170.333H94.4922C93.6638 170.333 92.9922 169.662 92.9922 168.833Z" fill="#ffffff"/><path id="Stroke 32 (Stroke)" fill-rule="evenodd" clip-rule="evenodd" d="M92.9922 188.637C92.9922 187.809 93.6638 187.137 94.4922 187.137H320.497C321.326 187.137 321.997 187.809 321.997 188.637C321.997 189.466 321.326 190.137 320.497 190.137H94.4922C93.6638 190.137 92.9922 189.466 92.9922 188.637Z" fill="#ffffff"/><path id="Stroke 34 (Stroke)" fill-rule="evenodd" clip-rule="evenodd" d="M92.9922 208.441C92.9922 207.612 93.6638 206.941 94.4922 206.941H320.497C321.326 206.941 321.997 207.612 321.997 208.441C321.997 209.269 321.326 209.941 320.497 209.941H94.4922C93.6638 209.941 92.9922 209.269 92.9922 208.441Z" fill="#ffffff"/></g><g id="Text Message 2"><path id="Fill 36" fill-rule="evenodd" clip-rule="evenodd" d="M243.449 271.322H107.223C102.9 271.322 99.3945 274.827 99.3945 279.151V327.343C99.3945 331.666 102.9 335.171 107.223 335.171H111.4L111.182 335.286L120.745 344.849C122.634 346.738 125.696 346.738 127.585 344.849L137.147 335.286L136.929 335.171H243.449C247.773 335.171 251.278 331.666 251.278 327.343V279.151C251.278 274.827 247.773 271.322 243.449 271.322" fill="#f5f5f5"/><path id="Stroke 38 (Stroke)" fill-rule="evenodd" clip-rule="evenodd" d="M111.766 287.027C111.766 286.475 112.213 286.027 112.766 286.027H239.904C240.456 286.027 240.904 286.475 240.904 287.027C240.904 287.58 240.456 288.027 239.904 288.027H112.766C112.213 288.027 111.766 287.58 111.766 287.027Z" fill="#e0e0e0"/><path id="Stroke 40 (Stroke)" fill-rule="evenodd" clip-rule="evenodd" d="M111.766 298.168C111.766 297.616 112.213 297.168 112.766 297.168H239.904C240.456 297.168 240.904 297.616 240.904 298.168C240.904 298.72 240.456 299.168 239.904 299.168H112.766C112.213 299.168 111.766 298.72 111.766 298.168Z" fill="#e0e0e0"/><path id="Stroke 42 (Stroke)" fill-rule="evenodd" clip-rule="evenodd" d="M111.766 309.308C111.766 308.756 112.213 308.308 112.766 308.308H239.904C240.456 308.308 240.904 308.756 240.904 309.308C240.904 309.86 240.456 310.308 239.904 310.308H112.766C112.213 310.308 111.766 309.86 111.766 309.308Z" fill="#e0e0e0"/><path id="Stroke 44 (Stroke)" fill-rule="evenodd" clip-rule="evenodd" d="M111.766 320.449C111.766 319.896 112.213 319.449 112.766 319.449H239.904C240.456 319.449 240.904 319.896 240.904 320.449C240.904 321.001 240.456 321.449 239.904 321.449H112.766C112.213 321.449 111.766 321.001 111.766 320.449Z" fill="#e0e0e0"/></g><g id="Text Message 1"><path id="Fill 46" fill-rule="evenodd" clip-rule="evenodd" d="M242.037 266.852H484.198C491.884 266.852 498.114 273.082 498.114 280.768V366.436C498.114 374.122 491.884 380.352 484.198 380.352H476.773L477.16 380.558L460.161 397.557C456.804 400.914 451.36 400.914 448.002 397.557L431.003 380.558L431.391 380.352H242.037C234.351 380.352 228.121 374.122 228.121 366.436V280.768C228.121 273.082 234.351 266.852 242.037 266.852" fill="#b1b1b1"/><path id="Stroke 48 (Stroke)" fill-rule="evenodd" clip-rule="evenodd" d="M250.113 294.881C250.113 294.053 250.785 293.381 251.613 293.381H477.618C478.447 293.381 479.118 294.053 479.118 294.881C479.118 295.71 478.447 296.381 477.618 296.381H251.613C250.785 296.381 250.113 295.71 250.113 294.881Z" fill="#ffffff"/><path id="Stroke 50 (Stroke)" fill-rule="evenodd" clip-rule="evenodd" d="M250.113 314.685C250.113 313.857 250.785 313.185 251.613 313.185H477.618C478.447 313.185 479.118 313.857 479.118 314.685C479.118 315.513 478.447 316.185 477.618 316.185H251.613C250.785 316.185 250.113 315.513 250.113 314.685Z" fill="#ffffff"/><path id="Stroke 52 (Stroke)" fill-rule="evenodd" clip-rule="evenodd" d="M250.113 334.489C250.113 333.66 250.785 332.989 251.613 332.989H477.618C478.447 332.989 479.118 333.66 479.118 334.489C479.118 335.317 478.447 335.989 477.618 335.989H251.613C250.785 335.989 250.113 335.317 250.113 334.489Z" fill="#ffffff"/><path id="Stroke 54 (Stroke)" fill-rule="evenodd" clip-rule="evenodd" d="M250.113 354.292C250.113 353.464 250.785 352.792 251.613 352.792H477.618C478.447 352.792 479.118 353.464 479.118 354.292C479.118 355.121 478.447 355.792 477.618 355.792H251.613C250.785 355.792 250.113 355.121 250.113 354.292Z" fill="#ffffff"/></g></g></g><g id="Side Decoration" transform="translate(355 55.9939) scale(1 1)"><g id="Side Decoration/Flat Leaves Copy"><g id="Group 69"><path id="Fill 67" fill-rule="evenodd" clip-rule="evenodd" d="M317.797 390.422C317.797 390.422 169.069 406.439 211.733 507.339C211.733 507.339 273.721 538.344 317.797 390.422" fill="#8cb8ae"/></g><path id="Fill 70" fill-rule="evenodd" clip-rule="evenodd" d="M207.425 515.998C207.359 515.998 207.291 515.985 207.226 515.956C206.973 515.846 206.857 515.552 206.967 515.298C207.327 514.472 243.599 432.346 301.735 403.219C301.983 403.097 302.282 403.196 302.406 403.442C302.53 403.689 302.43 403.989 302.183 404.113C244.374 433.076 208.242 514.874 207.884 515.698C207.802 515.886 207.618 515.998 207.425 515.998" fill="#000000"/><path id="Fill 72" fill-rule="evenodd" clip-rule="evenodd" d="M201.317 512.193C201.317 512.193 228.744 491.999 173.866 439.641C173.866 439.641 147.626 508.306 201.317 512.193Z" fill="#8cb8ae"/><path id="Fill 74" fill-rule="evenodd" clip-rule="evenodd" d="M203.925 516.402C203.777 516.402 203.631 516.337 203.532 516.212C203.461 516.122 196.361 507.091 189.413 494.434C182.989 482.733 175.383 465.443 175.621 449.525C175.625 449.249 175.863 449.01 176.128 449.032C176.404 449.037 176.625 449.264 176.621 449.54C176.171 479.612 204.035 515.235 204.317 515.592C204.488 515.809 204.451 516.123 204.235 516.294C204.143 516.367 204.033 516.402 203.925 516.402" fill="#000000"/><path id="Fill 76" fill-rule="evenodd" clip-rule="evenodd" d="M201.317 512.693C201.305 512.693 201.293 512.693 201.28 512.692C188.07 511.735 178.524 506.774 172.905 497.944C159.405 476.732 173.257 439.833 173.398 439.462C173.497 439.204 173.788 439.077 174.044 439.173C174.302 439.272 174.431 439.561 174.333 439.819C174.193 440.185 160.519 476.622 173.75 497.409C179.189 505.956 188.476 510.762 201.353 511.694C201.628 511.714 201.835 511.954 201.815 512.229C201.796 512.492 201.577 512.693 201.317 512.693" fill="#000000"/></g></g><g id="Master/Character/Standing" transform="translate(-12.793 -178.006) scale(1 1)"><g id="Master/Character/Standing"><g id="Lower Body/Standing" transform="translate(47 444) scale(1 1)"><g id="Lower Body/Standing/Long Pants Walking"><g id="Group"><path id="Skin" fill-rule="evenodd" clip-rule="evenodd" d="M301.779 301.524C295.782 297.85 268.132 287.57 267.504 279.199C266.527 266.208 266.561 245.435 266.734 230.495C258.678 231.345 249.405 232.229 239.543 232.994L250.706 279.4C251.246 283.587 251.972 283.988 247.421 293.485C243.107 302.483 253.659 303.907 253.659 303.907L301.062 304.025C301.809 304.027 302.416 303.421 302.416 302.674C302.416 302.205 302.179 301.77 301.779 301.524M190.348 301.524C184.351 297.85 156.471 288.831 159.239 280.905C162.093 272.73 174.015 250.677 182.309 234.991C172.107 234.75 162.559 234.064 154.377 232.759L143.373 276.909C142.08 281.252 139.677 283.488 135.741 293.504C132.091 302.791 142.228 303.907 142.228 303.907L189.632 304.025C190.379 304.027 190.985 303.421 190.985 302.674C190.985 302.205 190.749 301.77 190.348 301.524" fill="#a0a0a0"/><path id="Pants" fill-rule="evenodd" clip-rule="evenodd" d="M267.275 181.918C267.097 179.858 266.672 177.828 266.009 175.87L244.764 113.091C252.231 92.6172 255.54 64.3332 254.443 42.5002H168.108C168.108 42.5002 166.819 79.2742 173.585 95.3822C175.735 100.502 179.324 108.952 184.029 119.098L173.369 179.383L133 277.018L165.769 280.159L211.168 190.95L216.661 178.35C218.78 181.466 220.944 184.501 223.147 187.418C225.505 190.542 227.166 194.133 227.944 197.969L245.423 280.159C245.423 280.159 271.517 276.939 275.705 275.327L267.275 181.918Z" fill="#c7c7c7"/><path id="Shoes" fill-rule="evenodd" clip-rule="evenodd" d="M306.458 303.492L306.513 303.488C306.513 300.191 304.312 297.301 301.134 296.424L282.794 291.361C281.599 291.031 280.367 291.758 280.078 292.964L277.558 303.488H246.507C245.091 303.488 243.943 304.636 243.943 306.052H308.981C308.981 304.649 307.854 303.514 306.458 303.492M195.514 303.492L195.569 303.488C195.569 300.191 193.368 297.301 190.19 296.424L171.851 291.361C170.654 291.031 169.424 291.758 169.135 292.964L166.613 303.488H135.563C134.147 303.488 133 304.636 133 306.052H198.037C198.037 304.649 196.911 303.514 195.514 303.492" fill="#969696"/><path id="Fill 8" fill-rule="evenodd" clip-rule="evenodd" d="M280.195 292.477C279.922 292.409 279.656 292.579 279.592 292.848L277.163 302.989H246.507C246.231 302.989 246.007 303.211 246.007 303.489C246.007 303.764 246.231 303.989 246.507 303.989H277.557C277.789 303.989 277.99 303.831 278.044 303.604L280.565 293.081C280.63 292.811 280.464 292.541 280.195 292.477M192.676 303.157H134.67C134.393 303.157 134.17 303.381 134.17 303.657C134.17 303.934 134.393 304.157 134.67 304.157H192.676C192.953 304.157 193.176 303.934 193.176 303.657C193.176 303.381 192.953 303.157 192.676 303.157M248.28 123.981C248.333 123.981 248.387 123.972 248.44 123.955C248.702 123.866 248.842 123.582 248.754 123.321L231.722 72.9938C231.634 72.7318 231.35 72.5938 231.089 72.6798C230.827 72.7688 230.686 73.0518 230.775 73.3138L247.806 123.641C247.877 123.85 248.071 123.981 248.28 123.981M223.547 187.118C212.353 172.294 194.678 144.312 174.046 95.1888C167.817 80.3608 168.476 47.3828 168.593 42.9998H254.443C254.719 42.9998 254.943 42.7768 254.943 42.4998C254.943 42.2238 254.719 41.9998 254.443 41.9998H168.108C167.909 41.9998 167.741 42.1188 167.66 42.2868C167.659 42.2888 167.656 42.2908 167.655 42.2938C167.639 42.3298 167.634 42.3688 167.627 42.4078C167.622 42.4328 167.609 42.4558 167.608 42.4828C167.595 42.8518 166.393 79.5518 173.124 95.5758C193.797 144.794 211.52 172.851 222.748 187.721C225.08 190.808 226.707 194.386 227.454 198.069C227.502 198.306 227.711 198.469 227.943 198.469C227.976 198.469 228.009 198.466 228.044 198.459C228.314 198.405 228.489 198.14 228.434 197.87C227.657 194.041 225.967 190.324 223.547 187.118M258.819 289.786C258.947 289.786 259.075 289.737 259.173 289.639C259.368 289.444 259.368 289.127 259.173 288.932C257.956 287.715 257.464 285.989 257.855 284.313L258.236 282.686C258.299 282.416 258.132 282.147 257.863 282.084C257.587 282.024 257.325 282.188 257.261 282.457L256.881 284.086C256.411 286.102 257.003 288.176 258.466 289.639C258.563 289.737 258.691 289.786 258.819 289.786M147.388 289.786C147.516 289.786 147.644 289.737 147.742 289.639C147.937 289.444 147.937 289.127 147.742 288.932C146.525 287.715 146.033 285.989 146.425 284.313L146.805 282.684C146.868 282.416 146.701 282.147 146.431 282.084C146.163 282.024 145.894 282.188 145.831 282.457L145.451 284.084C144.98 286.1 145.572 288.176 147.035 289.639C147.133 289.737 147.26 289.786 147.388 289.786" fill="#000000"/></g></g></g><g id="Upper Body" transform="translate(8 189) scale(1 1)"><g id="Upper Body/Using Mobile"><path id="Shirt" fill-rule="evenodd" clip-rule="evenodd" d="M300.897 192.387C283.839 181.639 257.665 182.883 257.665 182.883L250.258 198.33L242.95 182.94C242.95 182.94 214.676 181.639 197.618 192.387C182.735 201.765 169.688 237.851 169.688 237.851L205.917 248.668L211.482 231.735L202.728 308.822C202.728 308.822 202.728 312.415 203.741 313C204.754 313.585 215.362 313 215.362 313H245.864C245.864 313 247.655 313.25 248.244 313C248.832 312.75 249.258 311.555 249.258 311.555L249.267 310.513C249.319 310.842 249.585 312.406 249.999 312.629C250.462 312.878 252.496 313 252.496 313H293.288C293.288 313 297.143 313.274 300.897 313.137C304.65 313 300.192 299.045 300.192 299.045L287.033 231.735L292.6 248.668L328.828 237.851C328.828 237.851 315.78 201.765 300.897 192.387Z" fill="#c7c7c7"/><path id="Fill 3" fill-rule="evenodd" clip-rule="evenodd" d="M249.729 208.495C249.606 208.495 249.482 208.45 249.386 208.359L238.894 198.454C238.721 198.291 238.687 198.03 238.811 197.828L240.651 194.834L235.224 190.765C235.108 190.678 235.036 190.545 235.025 190.401C235.015 190.256 235.068 190.114 235.17 190.012L242.596 182.586C242.792 182.391 243.108 182.391 243.303 182.586C243.499 182.781 243.499 183.098 243.303 183.293L236.286 190.311L241.616 194.307C241.823 194.462 241.877 194.749 241.742 194.969L239.875 198.006L250.072 207.631C250.273 207.821 250.282 208.138 250.092 208.338C249.995 208.442 249.862 208.495 249.729 208.495" fill="#000000"/><path id="Fill 7" fill-rule="evenodd" clip-rule="evenodd" d="M250.789 208.495C250.656 208.495 250.523 208.442 250.426 208.338C250.236 208.138 250.245 207.821 250.446 207.631L260.643 198.006L258.775 194.969C258.64 194.749 258.694 194.462 258.901 194.307L264.232 190.311L257.215 183.293C257.019 183.098 257.019 182.781 257.215 182.586C257.41 182.391 257.726 182.391 257.922 182.586L265.348 190.012C265.45 190.114 265.503 190.256 265.493 190.401C265.482 190.545 265.41 190.678 265.294 190.765L259.866 194.834L261.707 197.828C261.831 198.03 261.797 198.291 261.624 198.454L251.132 208.359C251.036 208.45 250.912 208.495 250.789 208.495" fill="#000000"/><path id="Combined Shape" fill-rule="evenodd" clip-rule="evenodd" d="M250.26 310.903C249.984 310.903 249.76 310.679 249.76 310.403V198.331C249.76 198.054 249.984 197.831 250.26 197.831C250.536 197.831 250.76 198.054 250.76 198.331V310.403C250.76 310.679 250.536 310.903 250.26 310.903ZM208.743 253.446C208.722 253.446 208.7 253.445 208.679 253.442C208.404 253.407 208.211 253.156 208.246 252.883L212.519 219.53C212.554 219.256 212.805 219.065 213.079 219.098C213.353 219.133 213.547 219.383 213.512 219.657L209.238 253.009C209.206 253.262 208.99 253.446 208.743 253.446ZM291.543 259.864C291.508 260 291.483 260.099 291.636 260.099L292.072 260.021C292.093 260.021 292.115 260.02 292.136 260.017C292.41 259.982 292.604 259.731 292.569 259.458L285.162 220.04C285.126 219.765 284.872 219.573 284.602 219.607C284.329 219.642 284.134 219.893 284.169 220.167L291.577 259.584C291.589 259.681 291.564 259.78 291.543 259.864Z" fill="#000000"/><g id="Pinapples plattern"><path id="Fill 13" fill-rule="evenodd" clip-rule="evenodd" d="M196.095 215.743C196.095 218.33 196.095 220.428 193.015 220.428C190.357 220.428 189.934 218.33 189.934 215.743C189.934 213.156 191.314 211.058 193.015 211.058C194.716 211.058 196.095 213.156 196.095 215.743" fill="#fde167"/><path id="Fill 15" fill-rule="evenodd" clip-rule="evenodd" d="M191.357 212.263L189.691 207.43L191.691 210.471L191.233 205.429L192.733 210.263L192.942 206.221L193.817 210.388L195.067 205.721L194.526 212.263C194.526 212.263 192.857 213.763 191.357 212.263" fill="#8ab7ad"/><path id="Fill 17" fill-rule="evenodd" clip-rule="evenodd" d="M238.946 262.179C238.946 265.124 238.946 267.511 235.44 267.511C232.416 267.511 231.934 265.124 231.934 262.179C231.934 259.235 233.504 256.847 235.44 256.847C237.377 256.847 238.946 259.235 238.946 262.179" fill="#fde167"/><path id="Fill 19" fill-rule="evenodd" clip-rule="evenodd" d="M233.552 258.219L231.656 252.718L233.933 256.18L233.41 250.442L235.118 255.943L235.356 251.343L236.351 256.086L237.774 250.774L237.158 258.219C237.158 258.219 235.259 259.926 233.552 258.219" fill="#8ab7ad"/><path id="Fill 21" fill-rule="evenodd" clip-rule="evenodd" d="M212.555 300.255C212.555 303.2 212.555 305.587 209.049 305.587C206.025 305.587 205.543 303.2 205.543 300.255C205.543 297.31 207.113 294.923 209.049 294.923C210.986 294.923 212.555 297.31 212.555 300.255" fill="#fde167"/><path id="Fill 23" fill-rule="evenodd" clip-rule="evenodd" d="M207.166 296.295L205.27 290.794L207.547 294.256L207.024 288.518L208.732 294.019L208.97 289.419L209.965 294.161L211.388 288.85L210.772 296.295C210.772 296.295 208.873 298.002 207.166 296.295" fill="#8ab7ad"/><path id="Fill 25" fill-rule="evenodd" clip-rule="evenodd" d="M230.356 193.951C230.356 196.539 230.356 198.636 227.276 198.636C224.618 198.636 224.195 196.539 224.195 193.951C224.195 191.364 225.575 189.266 227.276 189.266C228.977 189.266 230.356 191.364 230.356 193.951" fill="#fde167"/><path id="Fill 27" fill-rule="evenodd" clip-rule="evenodd" d="M225.619 190.472L223.953 185.638L225.953 188.68L225.495 183.638L226.995 188.472L227.203 184.43L228.079 188.597L229.329 183.93L228.788 190.472C228.788 190.472 227.119 191.972 225.619 190.472" fill="#8ab7ad"/><path id="Fill 29" fill-rule="evenodd" clip-rule="evenodd" d="M211.463 202.518C211.463 204.662 211.463 206.4 208.91 206.4C206.708 206.4 206.359 204.662 206.359 202.518C206.359 200.374 207.501 198.636 208.91 198.636C210.32 198.636 211.463 200.374 211.463 202.518" fill="#fde167"/><path id="Fill 31" fill-rule="evenodd" clip-rule="evenodd" d="M207.54 199.635L206.16 195.63L207.817 198.151L207.437 193.972L208.681 197.978L208.853 194.629L209.578 198.081L210.614 194.214L210.166 199.635C210.166 199.635 208.783 200.878 207.54 199.635" fill="#8ab7ad"/><path id="Fill 33" fill-rule="evenodd" clip-rule="evenodd" d="M244.077 212.928C244.077 215.072 244.077 216.81 241.524 216.81C239.322 216.81 238.973 215.072 238.973 212.928C238.973 210.784 240.115 209.046 241.524 209.046C242.934 209.046 244.077 210.784 244.077 212.928" fill="#fde167"/><path id="Fill 35" fill-rule="evenodd" clip-rule="evenodd" d="M240.15 210.045L238.77 206.04L240.427 208.561L240.047 204.383L241.291 208.388L241.463 205.039L242.188 208.492L243.224 204.625L242.776 210.045C242.776 210.045 241.393 211.288 240.15 210.045" fill="#8ab7ad"/><path id="Fill 37" fill-rule="evenodd" clip-rule="evenodd" d="M225.285 210.941C225.285 212.235 225.285 213.285 223.744 213.285C222.415 213.285 222.203 212.235 222.203 210.941C222.203 209.647 222.893 208.598 223.744 208.598C224.596 208.598 225.285 209.647 225.285 210.941" fill="#fde167"/><path id="Fill 39" fill-rule="evenodd" clip-rule="evenodd" d="M222.916 209.2L222.082 206.782L223.083 208.304L222.854 205.782L223.604 208.2L223.708 206.178L224.146 208.262L224.771 205.928L224.501 209.2C224.501 209.2 223.666 209.95 222.916 209.2" fill="#8ab7ad"/><path id="Fill 41" fill-rule="evenodd" clip-rule="evenodd" d="M239.952 301.331C239.952 303.475 239.952 305.213 237.4 305.213C235.198 305.213 234.848 303.475 234.848 301.331C234.848 299.187 235.99 297.449 237.4 297.449C238.809 297.449 239.952 299.187 239.952 301.331" fill="#fde167"/><path id="Fill 43" fill-rule="evenodd" clip-rule="evenodd" d="M236.029 298.448L234.648 294.443L236.305 296.964L235.925 292.785L237.169 296.791L237.341 293.442L238.067 296.894L239.102 293.027L238.654 298.448C238.654 298.448 237.271 299.691 236.029 298.448" fill="#8ab7ad"/><path id="Fill 45" fill-rule="evenodd" clip-rule="evenodd" d="M247.834 281.943C247.834 284.087 247.834 285.824 245.281 285.824C243.08 285.824 242.73 284.087 242.73 281.943C242.73 279.799 243.872 278.061 245.281 278.061C246.691 278.061 247.834 279.799 247.834 281.943" fill="#fde167"/><path id="Fill 47" fill-rule="evenodd" clip-rule="evenodd" d="M243.911 279.059L242.531 275.054L244.188 277.575L243.808 273.396L245.052 277.402L245.224 274.053L245.949 277.505L246.985 273.638L246.537 279.059C246.537 279.059 245.154 280.301 243.911 279.059" fill="#8ab7ad"/><path id="Fill 49" fill-rule="evenodd" clip-rule="evenodd" d="M231.116 288.973C231.116 291.868 231.116 294.214 227.67 294.214C224.696 294.214 224.223 291.868 224.223 288.973C224.223 286.078 225.766 283.732 227.67 283.732C229.573 283.732 231.116 286.078 231.116 288.973" fill="#fde167"/><path id="Fill 51" fill-rule="evenodd" clip-rule="evenodd" d="M225.817 285.08L223.953 279.673L226.191 283.076L225.678 277.435L227.356 282.843L227.589 278.321L228.568 282.982L229.967 277.761L229.362 285.08C229.362 285.08 227.495 286.758 225.817 285.08" fill="#8ab7ad"/><path id="Fill 53" fill-rule="evenodd" clip-rule="evenodd" d="M225.471 231.285C225.471 233.429 225.471 235.167 222.919 235.167C220.717 235.167 220.367 233.429 220.367 231.285C220.367 229.141 221.509 227.404 222.919 227.404C224.328 227.404 225.471 229.141 225.471 231.285" fill="#fde167"/><path id="Fill 55" fill-rule="evenodd" clip-rule="evenodd" d="M221.545 228.402L220.164 224.397L221.821 226.918L221.441 222.74L222.685 226.745L222.857 223.396L223.582 226.849L224.618 222.982L224.17 228.402C224.17 228.402 222.787 229.645 221.545 228.402" fill="#8ab7ad"/><path id="Fill 57" fill-rule="evenodd" clip-rule="evenodd" d="M182.645 230.912C182.645 232.712 182.645 234.171 180.502 234.171C178.653 234.171 178.359 232.712 178.359 230.912C178.359 229.112 179.319 227.653 180.502 227.653C181.686 227.653 182.645 229.112 182.645 230.912" fill="#fde167"/><path id="Fill 59" fill-rule="evenodd" clip-rule="evenodd" d="M179.35 228.491L178.191 225.128L179.582 227.245L179.263 223.737L180.307 227.1L180.453 224.288L181.061 227.187L181.931 223.94L181.554 228.491C181.554 228.491 180.393 229.534 179.35 228.491" fill="#8ab7ad"/><path id="Fill 61" fill-rule="evenodd" clip-rule="evenodd" d="M203.178 235.336C203.178 237.48 203.178 239.217 200.625 239.217C198.423 239.217 198.074 237.48 198.074 235.336C198.074 233.192 199.216 231.454 200.625 231.454C202.035 231.454 203.178 233.192 203.178 235.336" fill="#fde167"/><path id="Fill 63" fill-rule="evenodd" clip-rule="evenodd" d="M199.251 232.453L197.871 228.448L199.528 230.969L199.148 226.79L200.392 230.796L200.563 227.447L201.289 230.899L202.325 227.032L201.877 232.453C201.877 232.453 200.494 233.695 199.251 232.453" fill="#8ab7ad"/><path id="Fill 65" fill-rule="evenodd" clip-rule="evenodd" d="M220.467 272.622C220.467 274.766 220.467 276.504 217.915 276.504C215.713 276.504 215.363 274.766 215.363 272.622C215.363 270.478 216.505 268.74 217.915 268.74C219.324 268.74 220.467 270.478 220.467 272.622" fill="#fde167"/><path id="Fill 67" fill-rule="evenodd" clip-rule="evenodd" d="M216.541 269.739L215.16 265.734L216.817 268.255L216.437 264.077L217.681 268.082L217.853 264.733L218.578 268.186L219.614 264.319L219.166 269.739C219.166 269.739 217.783 270.982 216.541 269.739" fill="#8ab7ad"/><path id="Fill 69" fill-rule="evenodd" clip-rule="evenodd" d="M304.469 215.743C304.469 218.33 304.469 220.428 307.549 220.428C310.207 220.428 310.63 218.33 310.63 215.743C310.63 213.156 309.25 211.058 307.549 211.058C305.848 211.058 304.469 213.156 304.469 215.743" fill="#fde167"/><path id="Fill 71" fill-rule="evenodd" clip-rule="evenodd" d="M309.206 212.263L310.872 207.43L308.872 210.471L309.33 205.429L307.83 210.263L307.621 206.221L306.746 210.388L305.496 205.721L306.037 212.263C306.037 212.263 307.706 213.763 309.206 212.263" fill="#8ab7ad"/><path id="Fill 73" fill-rule="evenodd" clip-rule="evenodd" d="M261.621 262.179C261.621 265.124 261.621 267.511 265.127 267.511C268.151 267.511 268.633 265.124 268.633 262.179C268.633 259.235 267.063 256.847 265.127 256.847C263.19 256.847 261.621 259.235 261.621 262.179" fill="#fde167"/><path id="Fill 75" fill-rule="evenodd" clip-rule="evenodd" d="M267.011 258.219L268.907 252.718L266.63 256.18L267.153 250.442L265.445 255.943L265.208 251.343L264.212 256.086L262.789 250.774L263.405 258.219C263.405 258.219 265.304 259.926 267.011 258.219" fill="#8ab7ad"/><path id="Fill 77" fill-rule="evenodd" clip-rule="evenodd" d="M288.008 300.255C288.008 303.2 288.008 305.587 291.514 305.587C294.538 305.587 295.02 303.2 295.02 300.255C295.02 297.31 293.45 294.923 291.514 294.923C289.577 294.923 288.008 297.31 288.008 300.255" fill="#fde167"/><path id="Fill 79" fill-rule="evenodd" clip-rule="evenodd" d="M293.398 296.295L295.294 290.794L293.017 294.256L293.54 288.518L291.832 294.019L291.594 289.419L290.599 294.161L289.176 288.85L289.792 296.295C289.792 296.295 291.691 298.002 293.398 296.295" fill="#8ab7ad"/><path id="Fill 81" fill-rule="evenodd" clip-rule="evenodd" d="M270.207 193.951C270.207 196.539 270.207 198.636 273.287 198.636C275.945 198.636 276.368 196.539 276.368 193.951C276.368 191.364 274.988 189.266 273.287 189.266C271.586 189.266 270.207 191.364 270.207 193.951" fill="#fde167"/><path id="Fill 83" fill-rule="evenodd" clip-rule="evenodd" d="M274.944 190.472L276.61 185.638L274.61 188.68L275.068 183.638L273.568 188.472L273.36 184.43L272.484 188.597L271.234 183.93L271.775 190.472C271.775 190.472 273.444 191.972 274.944 190.472" fill="#8ab7ad"/><path id="Fill 85" fill-rule="evenodd" clip-rule="evenodd" d="M289.098 202.518C289.098 204.662 289.098 206.4 291.651 206.4C293.853 206.4 294.202 204.662 294.202 202.518C294.202 200.374 293.06 198.636 291.651 198.636C290.241 198.636 289.098 200.374 289.098 202.518" fill="#fde167"/><path id="Fill 87" fill-rule="evenodd" clip-rule="evenodd" d="M293.023 199.635L294.403 195.63L292.746 198.151L293.126 193.972L291.882 197.978L291.71 194.629L290.985 198.081L289.949 194.214L290.397 199.635C290.397 199.635 291.78 200.878 293.023 199.635" fill="#8ab7ad"/><path id="Fill 89" fill-rule="evenodd" clip-rule="evenodd" d="M256.488 212.928C256.488 215.072 256.488 216.81 259.041 216.81C261.243 216.81 261.592 215.072 261.592 212.928C261.592 210.784 260.45 209.046 259.041 209.046C257.631 209.046 256.488 210.784 256.488 212.928" fill="#fde167"/><path id="Fill 91" fill-rule="evenodd" clip-rule="evenodd" d="M260.414 210.045L261.794 206.04L260.137 208.561L260.517 204.383L259.273 208.388L259.101 205.039L258.376 208.492L257.34 204.625L257.788 210.045C257.788 210.045 259.171 211.288 260.414 210.045" fill="#8ab7ad"/><path id="Fill 93" fill-rule="evenodd" clip-rule="evenodd" d="M275.281 210.941C275.281 212.235 275.281 213.285 276.822 213.285C278.151 213.285 278.363 212.235 278.363 210.941C278.363 209.647 277.673 208.598 276.822 208.598C275.97 208.598 275.281 209.647 275.281 210.941" fill="#fde167"/><path id="Fill 95" fill-rule="evenodd" clip-rule="evenodd" d="M277.648 209.2L278.482 206.782L277.481 208.304L277.71 205.782L276.96 208.2L276.856 206.178L276.418 208.262L275.793 205.928L276.063 209.2C276.063 209.2 276.898 209.95 277.648 209.2" fill="#8ab7ad"/><path id="Fill 97" fill-rule="evenodd" clip-rule="evenodd" d="M260.609 301.331C260.609 303.475 260.609 305.213 263.161 305.213C265.363 305.213 265.713 303.475 265.713 301.331C265.713 299.187 264.571 297.449 263.161 297.449C261.752 297.449 260.609 299.187 260.609 301.331" fill="#fde167"/><path id="Fill 99" fill-rule="evenodd" clip-rule="evenodd" d="M264.534 298.448L265.915 294.443L264.258 296.964L264.638 292.785L263.394 296.791L263.222 293.442L262.497 296.894L261.461 293.027L261.909 298.448C261.909 298.448 263.292 299.691 264.534 298.448" fill="#8ab7ad"/><path id="Fill 101" fill-rule="evenodd" clip-rule="evenodd" d="M275.645 283.57C275.645 285.37 275.645 286.829 277.788 286.829C279.636 286.829 279.931 285.37 279.931 283.57C279.931 281.77 278.971 280.311 277.788 280.311C276.604 280.311 275.645 281.77 275.645 283.57" fill="#fde167"/><path id="Fill 103" fill-rule="evenodd" clip-rule="evenodd" d="M278.94 281.149L280.099 277.786L278.708 279.902L279.026 276.395L277.983 279.757L277.837 276.945L277.229 279.844L276.359 276.598L276.735 281.149C276.735 281.149 277.896 282.192 278.94 281.149" fill="#8ab7ad"/><path id="Fill 105" fill-rule="evenodd" clip-rule="evenodd" d="M258.602 281.829C258.602 284.724 258.602 287.07 262.048 287.07C265.022 287.07 265.495 284.724 265.495 281.829C265.495 278.934 263.952 276.588 262.048 276.588C260.145 276.588 258.602 278.934 258.602 281.829" fill="#fde167"/><path id="Fill 107" fill-rule="evenodd" clip-rule="evenodd" d="M263.852 277.936L265.716 272.529L263.478 275.932L263.992 270.291L262.313 275.699L262.08 271.177L261.101 275.839L259.703 270.617L260.307 277.936C260.307 277.936 262.174 279.614 263.852 277.936" fill="#8ab7ad"/><path id="Fill 109" fill-rule="evenodd" clip-rule="evenodd" d="M275.094 231.285C275.094 233.429 275.094 235.167 277.646 235.167C279.848 235.167 280.198 233.429 280.198 231.285C280.198 229.141 279.056 227.404 277.646 227.404C276.237 227.404 275.094 229.141 275.094 231.285" fill="#fde167"/><path id="Fill 111" fill-rule="evenodd" clip-rule="evenodd" d="M279.018 228.402L280.399 224.397L278.742 226.918L279.122 222.74L277.878 226.745L277.706 223.396L276.981 226.849L275.945 222.982L276.393 228.402C276.393 228.402 277.776 229.645 279.018 228.402" fill="#8ab7ad"/><path id="Fill 113" fill-rule="evenodd" clip-rule="evenodd" d="M308.582 234.876C308.582 237.258 308.582 239.189 311.418 239.189C313.865 239.189 314.254 237.258 314.254 234.876C314.254 232.494 312.984 230.563 311.418 230.563C309.852 230.563 308.582 232.494 308.582 234.876" fill="#fde167"/><path id="Fill 115" fill-rule="evenodd" clip-rule="evenodd" d="M312.942 231.672L314.476 227.221L312.634 230.022L313.056 225.38L311.675 229.831L311.484 226.109L310.677 229.945L309.527 225.648L310.025 231.672C310.025 231.672 311.561 233.052 312.942 231.672" fill="#8ab7ad"/><path id="Fill 117" fill-rule="evenodd" clip-rule="evenodd" d="M292.082 226.07C292.082 228.214 292.082 229.952 294.635 229.952C296.836 229.952 297.186 228.214 297.186 226.07C297.186 223.926 296.044 222.189 294.635 222.189C293.225 222.189 292.082 223.926 292.082 226.07" fill="#fde167"/><path id="Fill 119" fill-rule="evenodd" clip-rule="evenodd" d="M296.008 223.187L297.388 219.182L295.731 221.703L296.111 217.525L294.867 221.53L294.695 218.181L293.97 221.634L292.934 217.767L293.382 223.187C293.382 223.187 294.765 224.43 296.008 223.187" fill="#8ab7ad"/><path id="Fill 121" fill-rule="evenodd" clip-rule="evenodd" d="M280.098 272.622C280.098 274.766 280.098 276.504 282.65 276.504C284.852 276.504 285.202 274.766 285.202 272.622C285.202 270.478 284.06 268.74 282.65 268.74C281.241 268.74 280.098 270.478 280.098 272.622" fill="#fde167"/><path id="Fill 123" fill-rule="evenodd" clip-rule="evenodd" d="M284.022 269.739L285.403 265.734L283.746 268.255L284.126 264.077L282.882 268.082L282.71 264.733L281.985 268.186L280.949 264.319L281.397 269.739C281.397 269.739 282.78 270.982 284.022 269.739" fill="#8ab7ad"/></g><path id="Phone Case" fill-rule="evenodd" clip-rule="evenodd" d="M259.881 256.532L241.974 250.669C240.551 250.203 239.775 248.671 240.24 247.247L253.163 207.783C253.629 206.359 255.16 205.583 256.584 206.05L274.491 211.913C275.914 212.379 276.691 213.911 276.225 215.334L263.302 254.799C262.836 256.222 261.304 256.998 259.881 256.532" fill="#8cb8ae"/><path id="Fill 129" fill-rule="evenodd" clip-rule="evenodd" d="M257.024 209.376C256.834 209.376 256.644 209.421 256.468 209.51C256.175 209.658 255.957 209.913 255.855 210.225C255.643 210.871 255.997 211.568 256.642 211.78C257.05 211.913 257.491 211.824 257.824 211.539C257.925 211.452 258.057 211.408 258.189 211.421C258.322 211.432 258.445 211.496 258.531 211.597C258.616 211.699 258.695 211.759 258.778 211.787C259.088 211.887 259.412 211.719 259.511 211.415C259.56 211.268 259.547 211.11 259.477 210.972C259.408 210.834 259.288 210.73 259.14 210.682C259.052 210.654 258.954 210.656 258.826 210.689C258.698 210.721 258.559 210.701 258.446 210.632C258.332 210.563 258.25 210.452 258.217 210.322C258.116 209.901 257.813 209.571 257.409 209.438C257.283 209.397 257.153 209.376 257.024 209.376M257.023 212.841C256.792 212.841 256.558 212.805 256.332 212.73C255.162 212.347 254.521 211.084 254.904 209.914C255.09 209.347 255.485 208.887 256.017 208.618C256.548 208.348 257.153 208.302 257.72 208.488C258.313 208.682 258.785 209.107 259.042 209.663C259.183 209.666 259.319 209.688 259.451 209.732C259.852 209.863 260.178 210.143 260.37 210.52C260.56 210.897 260.593 211.325 260.462 211.726C260.192 212.554 259.3 213.008 258.467 212.737C258.338 212.695 258.218 212.635 258.105 212.556C257.771 212.744 257.399 212.841 257.023 212.841" fill="#000000"/><path id="Skin" fill-rule="evenodd" clip-rule="evenodd" d="M326.24 238.623L298.399 246.936L302.888 260.823C301.066 258.786 291.553 254.367 291.553 254.367C291.553 254.367 275.711 248.893 275.559 240.543C275.408 232.192 271.763 228.7 271.763 228.7L270.852 232.04C270.852 232.04 272.067 239.024 270.852 236.898C269.638 234.773 268.424 230.674 268.424 230.674C264.476 221.108 262.047 221.108 262.047 221.108C259.466 222.778 265.994 237.354 265.994 237.354C262.805 235.381 261.136 230.825 257.796 225.967C254.455 221.108 253.696 222.734 253.696 222.734C252.33 227.549 262.35 241.909 262.35 241.909C260.619 241.291 254.409 232.056 252.166 228.652C251.673 227.904 250.5 228.09 250.299 228.964C249.177 233.825 258.554 245.098 258.554 245.098C256.126 243.579 254.303 240.846 251.722 237.658C249.141 234.47 248.729 236.269 248.729 236.269C249.915 246.008 259.922 253.111 265.444 256.331C267.951 257.793 270.221 259.613 272.154 261.778C283.284 274.251 321.19 314.497 330.437 294.977C341.309 272.023 326.24 238.623 326.24 238.623V238.623ZM246.525 221.973C242.115 224.002 216.338 236.524 195.86 260.823L201.291 247.286L173.632 239.028C173.632 239.028 155.753 291.594 171.458 298.117C187.162 304.641 213.014 275.073 224.26 261.959C224.26 261.959 227.296 258.557 230.719 254.367C231.319 253.634 231.929 252.877 232.538 252.109C233.21 251.264 233.878 250.405 234.524 249.554C234.524 249.554 233.081 256.077 234.524 255.352C235.968 254.627 240.365 249.492 239.592 244.479C239.592 244.479 242.858 243.894 241.95 239.597C241.95 239.597 243.617 238.319 243.505 236.393C243.412 234.792 241.955 233.607 240.352 233.607L235.89 232.787C235.89 232.787 247.556 227.567 247.306 222.432C247.288 222.05 246.872 221.812 246.525 221.973V221.973ZM257.567 183.232V173H242.95V182.939L250.259 198.331L257.567 183.232Z" fill="#a0a0a0"/><path id="Combined Shape_2" fill-rule="evenodd" clip-rule="evenodd" d="M265.993 237.854C265.803 237.854 265.62 237.744 265.537 237.559C264.417 235.059 258.974 222.5 261.774 220.688C262.005 220.54 262.315 220.604 262.466 220.837C262.615 221.068 262.55 221.378 262.317 221.528C260.946 222.416 263.394 230.328 266.449 237.149C266.562 237.402 266.449 237.697 266.197 237.811C266.131 237.84 266.061 237.854 265.993 237.854ZM237.648 232.437C240.131 232.707 242.911 233.384 243.627 235.032C244.616 237.309 243.403 239.073 242.461 239.838C242.753 240.585 242.751 241.404 242.454 242.283C242.404 242.621 242.089 243.78 240.158 244.763C240.279 245.369 240.265 246.032 240.115 246.749C238.908 252.504 234.997 255.616 234.831 255.746C234.681 255.892 234.44 256.009 234.185 256.009C234.053 256.009 233.917 255.978 233.789 255.903C233.137 255.521 232.763 254.261 234.426 247.68C234.481 247.281 234.421 246.683 234.247 246.586C234.123 246.518 233.634 246.601 232.653 247.416C232.441 247.592 232.125 247.564 231.949 247.35C231.772 247.138 231.801 246.823 232.014 246.646C232.774 246.016 233.883 245.235 234.738 245.715C235.607 246.204 235.446 247.601 235.405 247.876C234.144 252.878 234.184 254.437 234.279 254.9C234.984 254.3 238.121 251.384 239.136 246.544C239.38 245.381 239.196 244.451 238.573 243.704C236.844 241.629 232.399 241.709 232.346 241.717H232.333C232.063 241.717 231.84 241.501 231.833 241.23C231.827 240.953 232.044 240.724 232.321 240.717L232.337 240.717C232.705 240.713 237.346 240.669 239.341 243.064C239.535 243.297 239.698 243.544 239.829 243.806C241.345 242.991 241.465 242.135 241.466 242.126C241.47 242.09 241.48 242.039 241.492 242.005C241.792 241.148 241.728 240.412 241.295 239.753C239.65 237.246 233.504 236.773 233.443 236.769C233.167 236.749 232.96 236.509 232.98 236.234C233 235.958 233.232 235.751 233.515 235.772C233.779 235.79 239.842 236.259 241.95 238.952C242.478 238.466 243.492 237.231 242.709 235.43C241.94 233.662 236.651 233.172 233.495 233.277C233.215 233.288 232.988 233.071 232.978 232.795C232.97 232.518 233.185 232.287 233.462 232.278C233.728 232.269 234.609 232.247 235.753 232.296C244.429 227.903 246.146 224.966 246.396 223.602C246.55 222.755 246.18 222.338 246.163 222.318L246.163 222.318C245.98 222.118 245.987 221.803 246.183 221.615C246.378 221.427 246.686 221.426 246.879 221.62C246.953 221.695 247.604 222.392 247.392 223.709C246.985 226.232 243.626 229.235 237.648 232.437ZM182.168 274.697C182.046 274.697 181.925 274.653 181.828 274.564C181.626 274.376 181.613 274.06 181.801 273.857L181.81 273.847C182.113 273.522 189.418 265.674 203.701 251.591C203.897 251.397 204.213 251.399 204.408 251.595C204.602 251.792 204.6 252.109 204.402 252.302C189.899 266.603 182.606 274.459 182.535 274.537C182.437 274.643 182.302 274.697 182.168 274.697ZM310.577 268.687C310.674 268.825 310.829 268.899 310.986 268.899C311.086 268.899 311.186 268.87 311.273 268.808C311.5 268.649 311.553 268.337 311.395 268.111C308.38 263.82 303.808 260.818 303.212 260.437C301.236 258.327 292.152 254.094 291.715 253.894C291.56 253.84 276.202 248.439 276.058 240.533C275.937 233.868 273.611 230.193 272.616 228.922C272.446 228.704 272.132 228.667 271.914 228.836C271.697 229.006 271.659 229.321 271.829 229.538C272.761 230.73 274.943 234.189 275.058 240.552C275.215 249.153 290.729 254.611 291.341 254.82C291.436 254.864 300.782 259.219 302.514 261.157C302.546 261.191 302.582 261.222 302.622 261.247C302.671 261.277 307.534 264.355 310.577 268.687ZM261.94 242.195C262.038 242.334 262.193 242.409 262.35 242.409C262.45 242.409 262.549 242.38 262.636 242.319C262.863 242.161 262.918 241.849 262.76 241.623C260.011 237.682 253.11 226.633 254.177 222.871C254.252 222.605 254.098 222.329 253.832 222.254C253.564 222.176 253.289 222.332 253.214 222.598C251.8 227.583 261.525 241.601 261.94 242.195ZM258.554 245.597C258.41 245.597 258.269 245.535 258.169 245.417C257.781 244.949 248.648 233.896 249.811 228.851C249.873 228.582 250.142 228.415 250.41 228.476C250.68 228.538 250.847 228.806 250.785 229.076C249.732 233.642 258.846 244.666 258.939 244.777C259.115 244.99 259.086 245.305 258.873 245.481C258.781 245.559 258.667 245.597 258.554 245.597ZM265.191 256.763C265.271 256.809 265.357 256.831 265.443 256.831C265.616 256.831 265.783 256.742 265.876 256.583C266.015 256.344 265.934 256.038 265.695 255.899C260.038 252.601 250.376 245.657 249.225 236.209C249.191 235.935 248.941 235.737 248.669 235.773C248.394 235.807 248.2 236.056 248.232 236.33C249.435 246.206 259.374 253.371 265.191 256.763Z" fill="#000000"/></g></g><g id="Hair" transform="translate(107 209) scale(1 1)"><g id="Hair/Medium Pompadour"><path id="Hair" fill-rule="evenodd" clip-rule="evenodd" d="M185.773 104.473C199.698 117.303 167.418 133.798 144.558 124.102L141.409 139.187C141.303 139.693 140.857 140.055 140.341 140.055C139.752 140.055 139.28 139.59 139.251 139.002C139.206 138.031 138.875 136.714 137.448 136.546C135.154 136.276 135.343 141.27 138.448 143.97C138.448 143.97 142.441 148.568 137.54 148.937C133.976 149.206 123.689 139.711 126.472 126.262C129.711 110.605 143.479 113.574 143.479 113.574C143.479 113.574 171.849 91.642 185.773 104.473Z" fill="#0e2c25"/><path id="Skin" fill-rule="evenodd" clip-rule="evenodd" d="M141.409 139.187C141.303 139.692 140.857 140.055 140.341 140.055C139.752 140.055 139.28 139.589 139.251 139.001C139.205 138.03 138.875 136.713 137.448 136.545C135.154 136.275 135.343 141.269 138.448 143.969C138.448 143.969 141.621 147.777 138.787 148.705C142.785 153.76 149.134 156.872 156.195 156.344C166.189 155.596 174.244 147.384 174.829 137.379C175.088 132.937 174.065 129.113 171.876 125.67C162.819 128.117 153.047 128.394 144.558 124.101L141.409 139.187Z" fill="#a0a0a0"/><path id="Fill 6" fill-rule="evenodd" clip-rule="evenodd" d="M174.329 137.35C173.755 147.162 165.943 155.114 156.157 155.846C149.812 156.32 143.662 153.726 139.577 148.883C140.07 148.563 140.288 148.15 140.383 147.82C140.862 146.151 139.041 143.9 138.808 143.622C136.494 141.218 135.854 138.696 136.427 137.544C136.62 137.152 136.936 136.991 137.389 137.042C138.023 137.117 138.44 137.511 138.634 138.216C138.698 138.452 138.737 138.722 138.752 139.026C138.757 139.133 138.772 139.237 138.797 139.338C138.97 140.041 139.598 140.555 140.341 140.555C140.902 140.555 141.411 140.256 141.695 139.797C141.746 139.713 141.769 139.614 141.805 139.52C141.835 139.443 141.88 139.373 141.897 139.289L142.673 135.575C142.69 135.538 142.709 135.501 142.718 135.459C142.724 135.427 142.717 135.396 142.717 135.364L143.406 132.062L143.917 129.617C143.917 129.616 143.918 129.615 143.918 129.614V129.611L144.915 124.835C145.002 124.876 145.091 124.911 145.178 124.951C146.148 125.427 147.273 125.887 148.594 126.299C148.627 126.308 148.659 126.31 148.692 126.313C156.025 128.645 164.212 128.219 171.501 125.983C173.586 129.417 174.563 133.338 174.329 137.35M146.226 124.332C146.214 124.327 146.202 124.321 146.189 124.315C145.956 124.214 145.73 124.1 145.501 123.992C141.541 122.006 140.581 119.764 140.568 119.733C140.467 119.477 140.177 119.351 139.922 119.452C139.664 119.552 139.537 119.842 139.638 120.1C139.683 120.217 140.549 122.312 144.001 124.323L143.044 128.907C141.603 128.491 140.771 127.583 139.752 126.457C139.544 126.227 139.33 125.992 139.105 125.754C138.915 125.553 138.6 125.544 138.398 125.734C138.198 125.923 138.189 126.24 138.379 126.44C138.599 126.673 138.807 126.904 139.011 127.129C140.067 128.296 141.08 129.397 142.84 129.884L142.494 131.542L141.826 134.739C139.847 134.169 138.007 132.573 136.774 131.268C136.585 131.067 136.268 131.058 136.067 131.248C135.867 131.437 135.858 131.754 136.048 131.954C137.382 133.367 139.396 135.101 141.622 135.718L140.919 139.085C140.862 139.357 140.619 139.555 140.341 139.555C140.025 139.555 139.766 139.301 139.75 138.978C139.669 137.25 138.872 136.209 137.506 136.049C137.503 136.048 137.501 136.05 137.498 136.049C136.62 135.951 135.911 136.332 135.531 137.099C134.789 138.594 135.429 141.552 138.062 144.289C138.506 144.821 139.705 146.562 139.422 147.544C139.33 147.861 139.071 148.085 138.631 148.23C138.475 148.281 138.354 148.404 138.308 148.561C138.26 148.717 138.293 148.887 138.393 149.015C142.353 154.022 148.35 156.901 154.674 156.901C155.19 156.901 155.711 156.882 156.231 156.843C166.515 156.074 174.725 147.719 175.327 137.409C175.568 133.271 174.801 129.592 172.908 126.457C172.045 124.802 172.112 124.493 171.666 124.694C164.31 128.001 151.119 126.457 146.226 124.332Z" fill="#000000"/></g></g><g id="Expression" transform="translate(204 312) scale(1 1)"><g id="Expression/Happy"><path id="Combined Shape" fill-rule="evenodd" clip-rule="evenodd" d="M50.3665 26.4408C50.4635 26.5388 50.5915 26.5878 50.7205 26.5878C50.8475 26.5878 50.9745 26.5398 51.0725 26.4438C51.0875 26.4288 52.5665 24.9998 55.0895 24.9998C55.3655 24.9998 55.5895 24.7758 55.5895 24.4998C55.5895 24.2238 55.3655 23.9998 55.0895 23.9998C52.1355 23.9998 50.4375 25.6648 50.3665 25.7348C50.1715 25.9298 50.1715 26.2448 50.3665 26.4408ZM53.8971 31.3323C54.5551 31.3323 55.0891 30.5493 55.0891 29.5843C55.0891 28.6193 54.5551 27.8363 53.8971 27.8363C53.2391 27.8363 52.7061 28.6193 52.7061 29.5843C52.7061 30.5493 53.2391 31.3323 53.8971 31.3323ZM66.5779 29.5843C66.5779 30.5493 67.1119 31.3323 67.7689 31.3323C68.4279 31.3323 68.9609 30.5493 68.9609 29.5843C68.9609 28.6193 68.4279 27.8363 67.7689 27.8363C67.1119 27.8363 66.5779 28.6193 66.5779 29.5843ZM70.5945 26.4438C70.6925 26.5398 70.8195 26.5878 70.9465 26.5878C71.0745 26.5878 71.2035 26.5388 71.3005 26.4408C71.4955 26.2448 71.4955 25.9298 71.3005 25.7348C71.2295 25.6648 69.5315 23.9998 66.5775 23.9998C66.3015 23.9998 66.0775 24.2238 66.0775 24.4998C66.0775 24.7758 66.3015 24.9998 66.5775 24.9998C69.1005 24.9998 70.5805 26.4288 70.5945 26.4438ZM60.7888 30.3977C59.6358 31.9377 57.7338 34.9747 58.4288 36.4387C58.7178 37.0477 59.5118 37.3567 60.7888 37.3567C62.0658 37.3567 62.8598 37.0477 63.1488 36.4387C63.8448 34.9747 61.9418 31.9377 60.7888 30.3977ZM60.7888 38.3567C59.0918 38.3567 57.9938 37.8557 57.5248 36.8677C56.3348 34.3597 59.9818 29.7817 60.4018 29.2677C60.5908 29.0357 60.9858 29.0357 61.1758 29.2677C61.5958 29.7817 65.2428 34.3587 64.0528 36.8667C63.5838 37.8557 62.4858 38.3567 60.7888 38.3567ZM55.2177 43.4637C55.2447 43.4917 57.0167 45.3127 59.9197 45.3127C61.4757 45.3127 63.3577 44.7897 65.4677 43.1857C65.6887 43.0187 65.7317 42.7047 65.5637 42.4847C65.3977 42.2647 65.0827 42.2217 64.8637 42.3897C59.5457 46.4277 56.0887 42.9257 55.9437 42.7747C55.7537 42.5767 55.4377 42.5677 55.2367 42.7577C55.0377 42.9477 55.0287 43.2627 55.2177 43.4637Z" fill="#000000"/><path id="Cheeks" fill-rule="evenodd" clip-rule="evenodd" d="M51.4996 37C53.4327 37 55 36.1045 55 35C55 33.8955 53.4327 33 51.4996 33C49.5665 33 48 33.8955 48 35C48 36.1045 49.5665 37 51.4996 37ZM69.5 37C67.5671 37 66 36.1045 66 35C66 33.8955 67.5671 33 69.5 33C71.4329 33 73 33.8955 73 35C73 36.1045 71.4329 37 69.5 37Z" fill="#b3b3b3"/></g></g><g id="Facial Hair" transform="translate(204.167 311.7) scale(1 1)"><g id="Facial Hair/Goatee"><path id="Beard" fill-rule="evenodd" clip-rule="evenodd" d="M67.3411 50.3047C66.1241 49.7847 66.5581 50.2127 63.7321 48.8337C62.7071 48.3337 61.3621 48.2887 60.3571 48.8327C59.1891 49.4657 57.2881 51.0827 55.8571 51.7047C54.1791 52.4337 61.3521 58.0747 61.6831 58.3147C61.8721 58.4527 62.1701 58.4527 62.3611 58.3167C63.8691 57.2317 68.7011 50.8857 67.3411 50.3047M72.0561 44.8937C70.8251 37.3327 67.0991 37.4187 64.4441 38.5767C62.6371 39.3647 60.5451 39.3647 58.7391 38.5767C56.0841 37.4187 52.3581 37.3327 51.1261 44.8937C51.1261 44.8937 50.2291 49.3487 53.2191 46.4547C56.2071 43.5627 56.0031 40.3107 61.5911 40.4047C67.1791 40.3107 66.9751 43.5627 69.9631 46.4547C72.9531 49.3487 72.0561 44.8937 72.0561 44.8937" fill="#0e2c25"/></g></g><g id="Accesories" transform="translate(107.5 210) scale(1 1)"><g id="Accesories/Earpods"><path id="Earpods" fill-rule="evenodd" clip-rule="evenodd" d="M139.118 138.945C139.621 138.537 139.949 137.922 139.949 137.224C139.949 135.996 138.953 135 137.724 135C136.496 135 135.5 135.996 135.5 137.224C135.5 138.425 136.453 139.397 137.643 139.441L138.683 142.992C138.954 143.913 139.799 144.546 140.759 144.546L139.118 138.945Z" fill="#efefef"/><path id="Fill 4" fill-rule="evenodd" clip-rule="evenodd" d="M140.759 144.046C140.027 144.046 139.37 143.555 139.163 142.851L138.295 139.886C139.524 139.623 140.449 138.531 140.449 137.224C140.449 136.948 140.226 136.724 139.949 136.724C139.673 136.724 139.449 136.948 139.449 137.224C139.449 138.175 138.676 138.949 137.725 138.949C136.774 138.949 136 138.175 136 137.224C136 136.948 135.777 136.724 135.5 136.724C135.224 136.724 135 136.948 135 137.224C135 138.567 135.979 139.679 137.258 139.901L138.204 143.132C138.534 144.259 139.585 145.046 140.759 145.046C141.035 145.046 141.259 144.822 141.259 144.546C141.259 144.27 141.035 144.046 140.759 144.046" fill="#000000"/></g></g><g id="HAS SKIN"><rect id="Rectangle" width="100" height="100" fill="#000000" fill-opacity="0.01"/></g></g></g></g></svg>