<svg viewBox="247.5 11.222222222222172 1350.0000000000002 1144.6666666666667" xmlns="http://www.w3.org/2000/svg" overflow="visible" xmlns:xlink="http://www.w3.org/1999/xlink" width="1350.0000000000002px" height="1144.6666666666667px"><g id="Master/Places/Home Office" stroke="none" stroke-width="1" fill="none" fill-rule="evenodd"><ellipse id="Oval" fill="#fdd531" opacity=".5" cx="958.5" cy="1056.5" rx="637.5" ry="61.5"/><g id="Background" opacity=".5" transform="translate(321.000000, 111.000000) scale(0.966183574879227 0.965556831228473)"><g id="Background/Blob 4" stroke="none" stroke-width="1" fill="none" fill-rule="evenodd"><path d="M851.5471,285.6278 C886.4461,285.6278 921.3601,285.0008 956.2411,285.8018 C991.8381,286.6198 1027.3671,289.3208 1062.6811,294.1848 C1094.9391,298.6268 1126.8041,304.8608 1157.5401,315.9458 C1175.2321,322.3268 1192.2391,330.1488 1206.7931,342.2718 C1212.6071,347.1138 1218.0991,352.6288 1222.6251,358.6708 C1232.5791,371.9588 1232.5871,386.3528 1223.6001,400.3438 C1219.1251,407.3108 1213.2851,413.0158 1206.8351,418.1138 C1193.2151,428.8818 1178.0751,437.1658 1162.5741,444.8018 C1132.0841,459.8228 1100.4391,472.1638 1068.9671,484.9028 C1047.2601,493.6898 1025.4711,502.2768 1003.8631,511.2998 C996.6831,514.2978 989.8601,518.2108 983.0581,522.0308 C979.7651,523.8798 976.6231,526.1978 973.8911,528.8048 C968.2281,534.2048 967.1081,540.2548 970.8231,547.0958 C973.1391,551.3588 976.0901,555.4108 979.3881,558.9738 C984.3161,564.2988 989.7121,569.2048 995.0661,574.1188 C1005.2411,583.4608 1015.6941,592.5058 1025.7311,601.9948 C1041.6551,617.0478 1055.8071,633.5928 1066.4531,652.8878 C1074.6971,667.8288 1080.6991,683.5128 1081.6311,700.7808 C1082.6411,719.4998 1077.1341,735.8918 1064.1001,749.5688 C1055.9701,758.1008 1046.2711,764.4518 1035.8231,769.7178 C1017.3981,779.0068 997.8031,785.0668 977.9531,790.3488 C945.0751,799.0978 911.6141,804.7518 877.9091,809.1678 C851.7731,812.5918 825.5571,815.3738 799.2321,816.1708 C777.2731,816.8378 755.2621,816.2498 733.2841,815.7538 C719.8541,815.4528 706.4121,814.6258 693.0301,813.4198 C668.4321,811.2018 643.8511,808.7338 619.3061,805.9908 C594.9271,803.2668 570.7331,799.2928 546.8221,793.7268 C525.5551,788.7778 504.6221,782.8228 485.0521,772.8598 C473.8181,767.1418 463.1841,760.4938 454.5431,751.1848 C451.1061,747.4828 447.9971,743.3758 445.3191,739.0898 C440.0261,730.6158 439.1371,721.3188 441.8631,711.8048 C443.2071,707.1128 445.2441,702.6168 446.9891,698.0408 C448.0891,695.1578 449.4451,692.3528 450.3041,689.4018 C451.8051,684.2428 450.6981,681.1758 445.7411,679.2718 C441.2341,677.5398 436.3341,676.0868 431.5611,675.9348 C419.7761,675.5578 407.9411,675.5638 396.1711,676.2148 C380.5781,677.0778 365.0371,678.8188 349.4591,679.9678 C327.1761,681.6118 304.8981,683.4578 282.5841,684.4748 C263.3531,685.3528 244.0591,685.8028 224.8191,685.3488 C194.5691,684.6348 164.6691,681.0798 136.0281,670.4178 C121.9861,665.1888 108.5781,658.6718 96.9511,649.1558 C91.3781,644.5938 86.0711,639.4028 81.7711,633.6538 C72.6381,621.4428 71.0121,607.7968 76.2251,593.3708 C79.8671,583.2908 85.8711,574.6808 92.6661,566.5618 C105.3381,551.4188 120.3671,538.7738 135.6581,526.4428 C152.7771,512.6368 170.2551,499.2688 187.1871,485.2398 C196.5451,477.4868 205.2901,468.9588 213.9331,460.3978 C217.4971,456.8678 220.5241,452.5918 223.0021,448.2068 C229.5261,436.6618 226.9511,427.7568 215.5281,421.1098 C206.7581,416.0068 197.0531,413.5568 187.1721,411.9298 C170.6881,409.2148 154.1121,407.0388 137.6571,404.1658 C121.8561,401.4068 106.6191,396.6018 92.1601,389.5568 C49.2071,368.6278 23.1241,334.5118 13.4241,287.9098 C8.3721,263.6368 11.6921,239.9588 18.9921,216.4468 C29.1921,183.5978 48.2231,157.3398 74.5111,135.3878 C101.2151,113.0888 131.6511,98.3768 164.0281,86.8018 C188.6121,78.0138 213.8251,72.2018 239.7361,69.2548 C263.9181,66.5058 288.0641,63.4058 312.2831,61.0398 C330.3561,59.2738 348.5191,58.4428 366.6411,57.1758 C392.9461,55.3358 419.2881,54.8078 445.6461,55.0588 C505.8691,55.6338 565.2301,62.6878 623.3011,79.1248 C641.1501,84.1768 658.6951,90.1848 675.0941,98.9498 C682.7531,103.0438 690.1581,107.7738 697.1031,112.9828 C701.9811,116.6428 706.3661,121.2248 710.1291,126.0508 C718.7951,137.1668 720.5621,149.7348 716.3221,163.1488 C713.5491,171.9228 709.1461,179.9028 703.3991,186.9838 C695.6181,196.5738 687.3861,205.7998 679.2841,215.1268 C673.3241,221.9858 667.0031,228.5498 661.3411,235.6438 C657.7461,240.1458 654.5061,245.1188 652.0911,250.3368 C647.4281,260.4108 650.2051,268.2978 659.7701,273.9498 C667.2281,278.3558 675.5241,280.4408 683.9331,282.0278 C702.3911,285.5108 721.0831,286.6228 739.8081,286.6388 C769.4251,286.6638 799.0431,286.2388 828.6611,286.0308 C836.2891,285.9768 843.9181,286.0228 851.5471,286.0228 L851.5471,285.6278 Z" id="Fill-1" fill="#ffffff"/></g></g><g id="Decoration" transform="translate(205.000000, 233.000000) scale(1 1)"><g id="Decoration/Nature 2" stroke="none" stroke-width="1" fill="none" fill-rule="evenodd"><path d="M159.101179,445.223791 C145.030323,445.223791 130.92852,444.647067 116.900348,445.41426 C106.498202,445.983535 96.2177049,448.337252 86.8976034,453.596937 C73.0732485,461.399742 65.7721111,476.37436 68.7664098,491.801207 C71.5174084,505.969262 80.0446503,512.079136 92.988643,512.015787 C99.6484499,511.982306 105.880347,509.761598 111.553082,506.098014 C119.064439,501.24906 124.272982,494.398595 129.074958,487.048018 C138.348107,472.85549 146.324722,457.689339 159.101179,445.223791 M88.8708675,407.593112 C85.1482943,395.078069 81.7921203,383.048245 77.9545148,371.173099 C75.7156453,364.24231 73.3116831,357.240539 69.9118394,350.83099 C63.2942865,338.353028 53.4952382,328.956946 39.7563335,324.371734 C26.8386316,320.059856 13.9060181,323.740314 5.68866407,333.758281 C-3.18480017,344.576117 -4.6077924,359.436737 1.94904902,370.969688 C4.19856967,374.926658 7.02325184,378.323189 10.9087875,380.605201 C16.0586134,383.628813 21.2020486,386.860073 26.739576,389.0033 C46.9075085,396.809177 67.9573553,401.760951 88.8708675,407.593112 M174.424744,430.905581 C180.34148,424.222211 185.596406,418.28191 190.854539,412.345867 C201.314139,400.538721 207.578353,386.778089 209.344606,371.185332 C211.594121,351.31939 204.096096,335.58398 187.636365,324.298473 C178.390262,317.957894 167.869719,318.620057 158.930465,325.387529 C154.504139,328.73986 151.303072,333.048175 148.985131,338.047395 C144.231642,348.294947 143.794355,358.987488 146.054561,369.822682 C147.115169,374.910262 148.569228,379.971228 150.408184,384.833119 C156.513093,400.970937 166.045731,415.329857 174.424744,430.905581 M351.825084,590.052225 C351.740315,589.61741 351.655546,589.18153 351.571837,588.74565 C340.501034,587.542451 329.445066,586.169802 318.35625,585.17655 C301.587925,583.674949 284.869402,584.28241 268.422139,588.066786 C254.582576,591.251161 241.625668,596.587227 231.02851,606.482449 C224.385817,612.684946 219.583665,620.121549 218.201934,629.304868 C214.744428,652.282883 235.610263,671.856985 258.957705,667.907422 C272.621373,665.594807 283.857475,658.704919 293.594229,649.400107 C302.367798,641.016079 310.392223,631.835956 318.703802,622.965958 C325.697226,615.501647 332.480848,607.833783 339.64381,600.539987 C343.386352,596.728968 347.744526,593.528607 351.825084,590.052225 M284.653935,509.520101 C270.328536,509.332944 257.681937,503.884235 244.504688,500.672954 C233.135459,497.901546 221.720685,495.094187 210.166099,493.35796 C197.424173,491.444091 184.796639,492.716126 173.106478,498.898661 C155.551642,508.184623 147.10151,532.04559 159.630541,550.962222 C170.116415,566.794459 192.263852,576.579507 210.946714,572.680925 C230.83704,568.529629 247.533941,558.924336 259.925278,542.52957 C268.025881,531.812965 276.037512,521.028688 284.653935,509.520101 M303.657797,491.10942 C314.990642,482.895985 325.949174,475.056707 336.790399,467.060558 C343.369144,462.207116 348.928391,456.28102 353.590779,449.604491 C367.639796,429.484807 373.973264,407.286591 369.849418,382.947306 C366.713077,364.434484 353.492669,350.917134 332.947022,353.404801 C326.848166,354.143576 321.411557,356.575067 316.378055,359.920221 C302.928366,368.858652 295.260807,381.57681 292.017824,397.131355 C288.649003,413.291122 290.001223,429.303558 293.728361,445.202581 C296.316562,456.249222 299.212959,467.225908 301.756371,478.283149 C302.690555,482.343759 303.000883,486.546401 303.657797,491.10942 M408.49198,675.614354 C406.169796,675.878515 404.139871,676.126699 402.105709,676.335471 C392.545893,677.311163 382.997725,678.413609 373.424142,679.208222 C362.120305,680.145568 350.763523,680.508789 339.486159,681.681536 C326.809978,682.998081 314.491707,685.951785 303.112688,692.07116 C295.180412,696.336083 288.256216,701.797186 283.350298,709.468508 C276.997913,719.403306 275.589566,730.068807 280.220168,741.02723 C288.704134,761.102403 309.761568,770.436448 327.189067,769.557686 C338.914349,768.967584 349.018444,764.066758 357.663364,755.982152 C365.502456,748.650619 371.739421,740.051538 377.188558,730.932657 C387.686567,713.361687 397.781131,695.54573 408.018649,677.818181 C408.280199,677.365486 408.259021,676.746625 408.49198,675.614354 M426.057241,667.518728 C427.552286,667.668099 428.305125,667.83336 429.049457,667.805817 C448.747685,667.071676 468.45761,666.530339 488.139888,665.4911 C500.794604,664.82158 513.029304,661.62653 524.028411,655.341306 C537.795373,647.472329 548.80086,636.514237 557.541451,623.20647 C562.389182,615.825861 563.928887,607.951587 562.601848,599.521145 C560.852667,588.407327 555.642339,579.289356 544.529455,575.330502 C531.231423,570.594073 517.838755,570.44894 504.462036,576.033922 C486.880903,583.375334 472.710939,594.939384 460.982385,609.640218 C449.772737,623.688482 440.142138,638.800351 431.676951,654.629411 C429.531147,658.641234 428.011645,662.985697 426.057241,667.518728 M375.13056,577.800128 C389.862581,573.455185 403.884753,569.46717 417.812631,565.168042 C430.164008,561.354762 442.017432,556.353496 452.643981,548.780211 C472.161658,534.870638 486.004778,516.974117 491.428238,493.113153 C493.522823,483.900126 494.058918,474.774466 490.870953,465.675443 C486.962545,454.517952 478.252588,448.025043 466.524183,447.808754 C452.776416,447.554109 441.022583,452.957054 430.590977,461.409344 C415.585611,473.569432 405.498335,489.473544 397.344604,506.776605 C386.740304,529.282304 383.414607,554.0553 375.13056,577.800128 M419.277517,666.080881 C420.073571,664.582566 420.574161,663.791465 420.933395,662.940898 C430.229909,640.868632 443.355775,621.127196 458.430859,602.698245 C471.374982,586.875151 487.270565,574.793065 506.957239,568.388859 C518.286934,564.702007 529.826005,562.820353 541.638222,566.466854 C557.295732,571.300538 566.499781,581.745203 569.934825,597.752002 C573.790748,615.72222 566.820753,629.960987 554.791721,642.251202 C549.161947,648.002351 542.740369,653.104691 536.167871,657.785464 C521.89947,667.945545 505.344936,671.852206 488.243049,672.984172 C469.165373,674.246748 450.024991,674.560003 430.912242,675.301197 C429.023605,675.374466 427.138157,675.552863 424.751056,675.716392 C425.318603,677.302843 425.635325,678.550554 426.187993,679.683581 C433.805246,695.284742 441.466076,710.863603 449.087581,726.461578 C450.896506,730.164358 450.749836,732.069373 448.74854,733.093027 C446.544245,734.219683 444.580148,733.164173 442.700013,729.32441 C436.933135,717.542837 431.336308,705.677374 425.566241,693.896863 C423.052664,688.76479 420.277633,683.763329 417.197572,677.896435 C415.537442,680.362123 414.282248,682.011225 413.251309,683.789876 C404.937906,698.153945 396.907215,712.688977 388.293033,726.870402 C382.891766,735.760473 377.041987,744.446662 370.658671,752.653943 C362.077437,763.687952 351.332295,771.945142 337.364673,775.451474 C313.824202,781.35872 287.120771,769.921196 275.379763,748.705868 C265.614544,731.061648 269.894533,710.067192 286.117465,695.928242 C297.181455,686.285297 310.245677,680.884569 324.421612,677.82635 C337.493274,675.005994 350.800883,674.352937 364.08511,673.348397 C378.318438,672.272711 392.52732,670.852976 406.740455,669.512881 C408.227344,669.372713 409.66747,668.75576 411.820749,668.172787 C396.772236,641.864677 381.22207,616.422 364.524056,591.09082 C356.430657,596.343947 349.073795,601.892277 342.655406,608.507798 C335.131681,616.264841 328.171252,624.563444 320.693229,632.368272 C312.153444,641.280642 303.646608,650.271591 294.513768,658.555328 C284.926041,667.24895 273.535765,672.808961 260.583139,675.012365 C236.008542,679.194054 212.939965,661.696373 211.153359,637.171161 C210.275467,625.11456 214.946575,614.890767 222.648855,605.95185 C231.484104,595.698323 243.090133,589.699756 255.578305,585.171894 C267.672169,580.786324 280.275127,578.998116 293.029004,578.381162 C309.665375,577.576256 326.219909,578.662561 342.679851,581.294965 C347.603911,582.083943 352.604494,582.396136 359.011192,583.079987 C340.493624,555.275686 320.652841,530.23971 297.0858,507.01955 C291.416702,513.678608 285.890021,519.792921 280.799098,526.250222 C274.944006,533.674896 269.689408,541.574231 263.794991,548.967049 C249.913457,566.376594 231.364005,576.200058 209.774878,579.99416 C187.634146,583.884893 161.801166,570.435104 151.25796,550.490849 C139.793287,528.801922 149.418213,501.734567 172.429397,491.052041 C185.122694,485.158599 198.510015,484.619163 212.138596,486.075003 C228.74202,487.847283 244.533446,493.001655 260.466228,497.591106 C267.679609,499.669208 274.83666,502.195423 282.509181,501.969243 C284.721979,501.903406 286.927337,501.603956 289.13482,501.411755 C289.275113,500.998683 289.414343,500.585611 289.554636,500.171478 C287.918951,498.679534 286.32259,497.14193 284.644393,495.699895 C262.335734,476.542494 236.675995,463.467549 208.888483,454.368288 C199.180656,451.189015 189.26983,448.63519 179.522679,445.568477 C176.839051,444.723219 174.769734,445.202128 172.413455,446.440282 C162.908628,451.439619 155.770707,458.869603 149.978321,467.73525 C144.065836,476.784603 138.210743,485.872183 132.277001,494.90667 C127.107429,502.779458 120.645465,509.307905 112.213026,513.715774 C105.045346,517.462092 97.437658,519.509399 89.3400083,518.668389 C74.6698602,517.144589 64.7165213,507.545182 62.1838137,492.840249 C58.8975645,473.757179 67.6945518,455.918634 84.9090986,446.817249 C95.8901875,441.013006 107.844822,438.801107 120.034341,438.096018 C129.075778,437.573572 138.171419,437.994077 147.479624,437.196604 C146.012928,436.64124 144.578117,435.973317 143.075285,435.546441 C122.459704,429.683794 102.340461,422.433268 82.3073075,414.820641 C71.7311542,410.802482 60.4854223,408.518375 49.5043334,405.593954 C38.3074914,402.610067 27.166979,399.519992 16.85972,394.03219 C9.06710059,389.883419 2.24696436,384.635602 -2.59632079,377.122791 C-11.6271292,363.115514 -10.5069136,348.764188 -2.97681148,334.830181 C4.26101425,321.438795 16.1678221,315.083435 31.3991409,315.416866 C38.6677885,315.576148 45.4284066,317.944144 51.6916235,321.587459 C64.4773861,329.024875 73.9758367,339.552367 79.3898579,353.254884 C83.0619119,362.54847 85.5361642,372.311407 88.644922,381.832235 C90.9183007,388.790743 93.0694548,395.809779 95.7892193,402.596263 C97.3621976,406.5231 99.9512348,412.03214 99.9512348,412.03214 C99.9512348,412.03214 109.511329,417.998852 114.379059,419.401597 C130.866635,424.153516 147.272373,429.185772 163.725939,434.058745 C164.769631,434.367752 166.944167,435.746074 168.77116,435.931904 C165.195823,429.471418 160.971101,422.125322 157.65403,416.279666 C149.733872,402.314864 142.310052,388.148305 139.133273,372.198847 C136.411383,358.531372 137.151108,345.229185 144.1955,332.893309 C151.097474,320.806976 161.164535,313.586183 175.689076,314.018368 C182.311527,314.215878 188.130484,316.786693 193.281988,320.688045 C211.171427,334.233403 218.665393,352.276891 215.662918,374.458531 C213.429927,390.951672 206.669308,405.478209 195.508602,417.917087 C191.383786,422.515033 187.297231,427.150145 183.346717,431.896755 C181.941665,433.585146 180.991501,435.652629 179.421711,438.222382 C182.382736,439.086753 184.534953,439.741934 186.70205,440.344021 C211.296841,447.185722 235.372974,455.331414 257.611485,468.178055 C269.016641,474.765966 279.758594,482.272406 289.741692,490.860902 C291.32211,492.22011 292.931225,493.544276 294.943149,495.234791 C296.597965,489.814949 295.506445,485.038607 294.546716,480.474641 C292.523101,470.856119 289.876671,461.370333 287.595852,451.803844 C283.770752,435.768374 281.283746,419.637334 283.499732,403.057119 C286.421433,381.201477 295.699879,363.375675 315.301527,351.972131 C331.371413,342.623328 350.047341,344.117395 362.63967,355.802337 C370.282432,362.895705 374.642132,371.897273 376.215111,382.07222 C380.008326,406.612298 374.354107,429.19639 361.214424,450.027317 C353.131654,462.839977 341.822153,472.385228 329.527415,480.985405 C321.310729,486.733369 313.472408,493.019707 305.45447,499.051193 C304.381019,499.859284 303.248049,500.588797 301.662317,501.686782 C326.098747,525.551504 346.191419,551.636619 365.46678,579.758423 C367.007873,576.716133 368.612736,574.403355 369.400288,571.839973 C372.22421,562.629215 374.935471,553.378104 377.386342,544.061157 C381.268835,529.296759 385.706121,514.745799 392.435918,500.983817 C400.136071,485.236116 409.719548,470.803025 422.976141,459.158434 C435.355905,448.282646 449.465946,441.221135 466.436043,441.426078 C481.794901,441.609783 493.347788,450.207837 498.067786,464.818262 C501.842934,476.501081 500.623876,488.098949 497.312119,499.587443 C488.811659,529.079073 469.307791,549.217653 442.603296,563.011492 C430.020533,569.512329 416.371758,573.134407 402.791004,576.903024 C395.917726,578.810163 389.095464,580.941358 382.348663,583.259445 C378.751007,584.494413 375.364852,586.342087 371.571636,588.052778 C387.526737,614.149574 403.17362,639.739852 419.277517,666.080881" id="Fill-1" fill="#bfb647" transform="translate(281.000000, 545.500000) rotate(17.000000) translate(-281.000000, -545.500000)"/><path d="M849.456076,717.789654 C840.859098,688.560318 830.944316,660.073104 818.545212,632.508223 C806.203621,605.072243 790.485004,579.502206 774.938925,553.849571 C747.02125,507.781704 719.251108,461.633744 694.400389,413.802555 C684.964467,395.637467 676.014907,377.262131 671.022508,357.249872 C670.671177,355.84322 670.068538,354.497889 669.259602,352.206447 C667.764258,354.316426 666.696512,355.446504 666.057615,356.781822 C661.497816,366.298001 660.25503,376.513752 661.6466,386.740766 C663.263222,398.633486 665.309943,410.565002 668.445665,422.133592 C676.703815,452.61565 691.025862,480.520931 706.275622,507.980688 C729.867302,550.455584 758.687685,589.348773 788.234486,627.725104 C810.015749,656.014586 831.792011,684.276536 848.185784,716.211551 C848.488354,716.799742 849.027228,717.26654 849.456076,717.789654 M856.12011,707.914304 C856.37892,707.856736 856.63898,707.797917 856.899039,707.740349 C856.899039,706.684109 857.07408,705.592827 856.872783,704.577884 C853.108167,685.654405 850.061216,666.545707 845.335128,647.863761 C836.746901,613.928897 824.456572,581.147889 812.218756,548.394413 C794.963534,502.212662 776.680576,456.470178 753.685284,412.760081 C743.159111,392.751577 730.86128,374.013314 715.453984,357.405054 C709.013752,350.46315 701.843352,344.643813 692.241142,342.792889 C686.58484,341.702859 681.124833,341.955656 676.647553,345.716323 C680.838517,365.19921 688.058929,383.045174 696.79719,400.317965 C715.060144,436.419124 735.201029,471.47155 755.918298,506.197343 C766.508235,523.950698 776.820608,541.885517 787.936917,559.304729 C816.347206,603.823276 837.65586,651.578125 853.944609,701.695749 C854.623516,703.783201 855.392443,705.841869 856.12011,707.914304 M969.272403,154.755749 C968.455965,156.218717 967.967103,156.959588 967.60702,157.758026 C946.627191,204.27517 933.529177,253.123803 925.408558,303.335288 C920.618705,332.945071 916.530264,362.682504 912.781901,392.443715 C909.261091,420.410318 906.2579,448.452009 903.661052,476.518729 C901.273003,502.326546 899.900187,528.22572 897.772197,554.059818 C894.915289,588.731798 891.754562,623.377497 888.743869,658.034459 C888.198743,664.314336 886.415833,677.145659 885.920719,683.428039 C887.297286,681.299289 889.372764,672.607829 889.710341,670.397732 C894.815266,636.925912 900.286526,603.5029 904.802565,569.949734 C908.56093,542.021927 910.981487,513.915159 914.354764,485.931036 C919.144616,446.198111 929.344464,407.840552 945.494431,371.221285 C955.301688,348.983912 965.961641,327.119477 976.396543,305.162434 C988.235518,280.251921 995.479685,254.131237 997.358868,226.59514 C998.434115,210.860406 998.23657,195.207018 992.430233,180.174358 C988.080482,168.91363 980.928836,160.224673 969.272403,154.755749 M877.048677,679.830063 C877.458771,679.837571 877.871366,679.843829 878.281461,679.851338 C878.534019,677.975384 878.864095,676.106939 879.026632,674.223476 C880.990834,651.573119 882.942534,628.922761 884.874228,606.271152 C886.999717,581.350627 889.067693,556.425097 891.220689,531.507075 C894.468937,493.909158 897.21957,456.257428 901.195485,418.737102 C905.601499,377.153253 911.006493,335.673276 918.470711,294.494903 C926.640091,249.426961 937.848921,205.25382 956.39569,163.191909 C957.841022,159.91556 959.006291,156.515316 960.285335,153.213938 C959.371375,152.777174 958.988787,152.465558 958.578692,152.42426 C957.450933,152.311628 956.31067,152.246551 955.17916,152.279089 C941.44975,152.670799 929.729552,158.304918 918.965825,166.328093 C902.036928,178.947918 890.951877,195.911595 883.152582,215.213019 C869.121853,249.930052 863.000444,286.39664 859.959744,323.456424 C857.054075,358.871777 857.216613,394.360967 858.608183,429.841397 C860.408597,475.754081 864.402016,521.510332 868.411689,567.270337 C871.388624,601.241493 873.689154,635.270217 876.287252,669.273912 C876.556064,672.791795 876.796119,676.310929 877.048677,679.830063 M869.303144,732.488171 C869.303144,718.640654 870.055818,704.745581 869.161862,690.955632 C866.5,649.893646 863.260504,608.867952 860.11603,567.838504 C857.476672,533.383029 854.167161,498.971355 852.03542,464.485844 C849.481082,423.161049 848.187034,381.762417 850.498816,340.371294 C852.853108,298.236798 858.473152,256.654201 873.576628,216.886234 C881.522207,195.964157 892.621011,177.164573 910.201308,162.747637 C919.803518,154.872135 930.302184,148.727417 942.444979,145.727643 C966.963122,139.670528 985.122301,150.04897 996.214855,168.907373 C1002.45754,179.521091 1005.05939,191.288665 1005.70704,203.421667 C1007.71875,241.047117 999.28056,276.483745 983.146847,310.33476 C972.104305,333.505729 960.850465,356.604113 950.741888,380.185565 C935.97724,414.628526 926.856391,450.724679 922.456628,487.949657 C919.522203,512.777573 917.211671,537.680577 914.227234,562.502236 C907.034329,622.331268 898.598637,681.950053 881.098359,739.848067 C877.49378,751.774577 873.271558,763.512115 869.426923,775.367292 C868.606734,777.897764 867.157651,779.626045 864.538298,778.785057 C861.921445,777.94532 858.104317,777.843951 857.979288,773.910581 C857.090333,745.574794 842.34569,722.56151 828.972612,699.179042 C815.738316,676.043114 799.009466,655.273716 782.785731,634.193953 C751.158452,593.101932 720.372616,551.436737 695.548153,505.705515 C680.444676,477.884083 666.737772,449.486975 658.749683,418.674529 C654.509957,402.320317 651.39299,385.829695 653.891065,368.79093 C654.892545,361.96416 656.829241,355.506574 660.588856,349.658454 C669.559671,335.707065 684.053007,330.751244 699.66535,336.307771 C708.937484,339.607898 716.091631,345.822698 722.583125,352.953575 C736.893919,368.673291 748.7604,386.091253 758.811463,404.803234 C777.444502,439.48898 792.923065,475.597647 807.24136,512.223172 C823.785168,554.544137 839.786351,597.071595 852.152947,640.844265 C860.452357,670.221275 865.561033,700.216511 868.146628,730.638498 C868.201641,731.294268 868.407938,731.937524 868.54422,732.587037 C868.796778,732.554499 869.049336,732.520709 869.303144,732.488171" id="Fill-1" fill="#7d975a"/></g></g><g id="Chair" transform="translate(372.000000, 525.000000) scale(1 1)"><g id="Chair/Office Chair" stroke="none" stroke-width="1" fill="none" fill-rule="evenodd"><path d="M174.964521,17.5359051 C176.840203,19.2395099 178.798827,20.9041466 180.393706,22.8545493 C185.365213,28.9345699 185.580062,34.6818629 181.322054,41.3843737 C178.656927,45.581936 178.810819,45.7008386 182.217425,48.9521759 C191.351007,57.6710353 192.93989,66.4198702 184.055134,75.9290823 C183.935218,76.0579768 183.815302,76.1878704 183.697385,76.3187632 C181.936622,78.2731626 182.105504,81.3016823 184.104099,83.0132805 C187.727553,86.1177381 190.35071,89.7717455 192.435245,93.9233454 C195.65898,100.346085 195.719937,106.463076 191.297045,112.327273 C189.444347,114.783262 187.428763,117.113353 185.544087,119.545362 C185.485129,119.621299 185.427169,119.697237 185.370209,119.775173 C184.222016,121.337893 184.488829,123.522105 185.969788,124.774079 C190.265769,128.411101 192.808982,133.02732 193.754318,138.516824 C194.753616,144.330063 191.23209,148.686496 188.541981,153.555508 C187.706568,155.066271 188.056322,156.938737 189.337422,158.09579 C194.131053,162.422246 197.415745,167.750882 199.790077,173.76096 C202.296316,180.107762 202.284324,186.074875 199.360379,192.396698 C196.093674,199.457915 194.796586,201.867941 201.513866,207.935972 C208.630865,214.366705 209.038578,222.612951 204.288916,230.906159 C197.927386,242.012064 197.620601,242.63955 185.094403,245.439257 C171.646853,248.443796 158.034418,250.709941 144.504925,253.355774 C143.219828,253.607567 141.833802,253.666519 140.509732,254.095168 C138.410208,254.77661 139.025775,257.911043 141.228227,257.766162 L141.385117,257.75617 C144.996579,257.519364 148.594052,257.092713 152.15355,256.436251 C166.918175,253.712482 181.828698,251.631186 196.107664,246.695228 C200.498579,245.177472 202.720018,245.950838 205.203273,249.775706 C208.662842,255.104342 207.679533,260.512912 205.417123,265.910492 C204.678642,267.67105 203.78527,269.366661 203.160708,270.675589 C203.638373,271.524894 203.689337,271.767695 203.823243,271.827646 C204.961443,272.336229 206.115632,272.816835 207.267822,273.295443 C213.763258,275.994233 217.675509,282.235122 217.296775,289.27036 C216.914044,296.383535 214.483752,301.863047 206.799152,303.902377 C202.081467,305.155351 197.516674,307.008833 192.9269,308.710439 L192.878933,308.727425 C190.333722,309.677647 191.63181,313.539484 194.22099,312.717158 C194.382876,312.6662 194.542764,312.612244 194.701652,312.558288 C200.364673,310.631866 206.258532,309.122102 211.544817,306.433304 C216.22253,304.055252 219.940917,304.812632 223.582358,307.648309 C226.130568,309.631685 228.790699,311.796912 230.505494,314.457732 C234.095971,320.02917 235.731821,325.945324 228.395976,331.482789 C218.660817,338.831771 208.682828,345.714134 197.66557,351.017791 L197.357786,351.167668 L197.357786,351.167668 C194.906508,352.396661 196.586328,356.166574 199.111554,355.098449 C199.547248,354.9136 199.971949,354.709767 200.390655,354.496941 C213.237627,347.996265 225.404078,340.478422 235.773792,330.33373 C236.921985,329.21065 238.141128,327.878741 239.579118,327.39114 C243.502361,326.058232 247.515541,324.908174 251.57269,324.075855 C256.757047,323.011727 262.093297,325.117003 265.270065,329.349536 C265.955583,330.26079 266.627112,331.181036 267.306634,332.099284 C268.456826,332.016352 269.375181,332.064313 270.236575,331.863478 C272.530963,331.329914 274.787377,330.633485 277.080766,330.103919 C279.897786,329.45445 282.718804,328.536202 285.5708,328.399315 C290.818113,328.14852 294.36562,330.754386 296.300261,335.685347 C295.781625,336.127985 295.214024,336.574619 294.690392,337.065217 C286.882878,344.387221 279.041388,351.672255 271.31082,359.073193 C271.124951,359.251048 270.938082,359.4309 270.753212,359.616748 C268.884525,361.492212 271.551651,364.398832 273.579226,362.695227 C273.927981,362.401468 274.265744,362.100714 274.590516,361.786971 C279.943754,356.613208 285.01619,351.132696 290.562293,346.177754 C295.001174,342.212002 299.623925,338.203285 304.803286,335.384594 C310.31841,332.383052 316.484078,330.422658 322.546818,328.61214 C331.698387,325.879378 339.889631,329.007816 345.947374,336.963301 C342.116067,341.985188 338.094892,346.90416 334.475436,352.101903 C332.054137,355.579055 328.935329,358.603578 326.410103,362.240599 C324.838208,364.502747 328.159873,366.993707 329.894654,364.855458 C330.174458,364.511739 330.44227,364.162026 330.709082,363.824302 C335.663601,357.558434 340.490209,351.18965 345.300829,344.811873 C347.114554,342.407842 348.749405,339.86992 350.96285,336.677535 C357.945943,335.917158 365.739467,335.70633 373.266178,338.061402 C379.9235,340.145695 381.082685,344.103453 376.714755,349.495038 C361.628356,368.113789 346.739818,386.913393 331.03885,405.003577 C322.865594,414.421864 313.371265,422.747046 304.053812,431.097207 C297.208622,437.233182 288.724584,440.102832 279.482079,439.939965 C259.604047,439.588253 239.811954,438.51713 220.216723,434.401501 C219.393093,434.228487 218.568692,434.059692 217.743566,433.894919 L215.827361,475.733316 L248.883402,497.494499 L314.42876,552.4148 C315.9534,558.24233 323.497211,562.468853 337.060195,565.094369 C357.40467,569.032644 355.370549,621.499232 327.505371,613.989947 C308.928585,608.983758 302.023865,596.58009 306.791211,576.778944 L306.791211,576.778944 L270.213945,542.275345 L225.535865,503.203741 L239.651558,541.154703 L246.58013,543.894389 C254.899855,554.175874 255.667612,563.814127 248.883402,572.809148 C242.099191,581.804169 232.975007,583.127434 221.510849,576.778944 L221.510849,576.778944 L215.827361,563.974542 L217.983846,552.4148 L197.027174,484.995338 L159.83391,520.105811 L102.583264,565.094369 L107.499737,572.809148 C107.442645,594.303653 100.012202,602.803912 85.2084103,598.309923 C63.002722,591.568939 65.9168822,575.52597 65.9168822,566.740262 C65.9168822,560.883124 72.7673739,556.10797 86.4683573,552.4148 L86.4683573,552.4148 L184.00178,473.386128 L185.779269,429.129056 C185.656909,429.11529 185.534546,429.101556 185.41218,429.087853 C166.554431,426.975583 148.434164,422.381345 131.137318,414.728613 C110.919525,405.785937 96.9943099,391.139931 90.9205778,369.55361 C90.3319914,367.460324 89.5175636,365.415 89.0948607,363.28974 C83.9974425,337.670721 78.958983,312.040712 73.8945417,286.415698 C65.701299,244.945661 57.7748687,203.420669 49.2118858,162.02757 C43.1161692,132.560702 36.2509932,103.253704 29.740568,73.8727664 C28.5883776,68.6750233 27.5950756,63.4373128 26.7556654,58.180618 C25.2137489,48.5085392 25.5045446,46.8309131 32.7124797,44.7116488 C34.9728913,44.0471929 37.2662798,43.4786586 39.5706606,42.9890595 C82.1597339,33.9474644 124.754803,24.9358447 167.337881,15.8722676 C170.210862,15.2607684 172.769064,15.5425376 174.964521,17.5359051 Z" id="Fill-2" fill="#ffffff"/><path d="M356.348342,63.5902876 C356.340373,67.62898 358.199067,72.3820873 362.607969,70.5675733 C366.861979,68.817007 369.265291,64.1987892 369.483138,59.7284503 C369.573074,57.8489896 368.956508,55.2461213 366.918939,54.6416163 C362.80583,53.4206163 358.490862,56.3572113 356.933956,60.1031435 C356.554223,61.0173947 356.351365,62.2653726 356.348342,63.5902876 M235.873823,11.1681202 C279.369259,20.3326147 322.853703,29.551065 366.332152,38.7964931 C369.345035,39.4379678 372.358917,40.1763631 375.272869,41.1635546 C381.211696,43.1739081 383.590025,46.3882756 382.877526,52.7051023 C382.04611,60.0850583 380.819971,67.4530241 379.236084,74.7110799 C371.379605,110.700605 362.873582,146.553243 355.502761,182.639689 C346.75191,225.4836 338.988366,268.528348 330.664215,311.461187 C327.279593,328.914892 323.595182,346.310646 319.930757,363.708397 C319.223254,367.067646 317.994118,370.319982 316.965841,373.608289 C310.759202,393.465027 297.790315,407.426593 279.447204,416.755952 C267.550564,422.806997 254.851487,426.51496 241.985528,429.727329 C235.872823,431.254079 229.699162,432.541025 223.021854,434.055784 L223.021854,472.338431 C223.585458,472.825033 224.69168,474.061021 226.042731,474.908327 C241.82664,484.801225 255.199243,497.731635 269.483206,509.495001 C286.305385,523.347656 303.899023,538.556201 320.580301,552.582713 C320.580301,552.582713 323.408314,552.694621 325.415903,553.115277 C338.741539,555.911987 345.040113,568.464706 340.801092,581.459064 C337.296555,592.199268 327.179664,599.943925 315.97054,600.467497 C301.065014,601.162927 291.367828,587.525096 296.401291,572.900074 C296.989877,571.189475 298.392892,568.151962 299.313245,566.018709 C297.727359,564.352074 294.147875,561.303571 292.244212,559.709876 C285.560908,554.115458 280.496467,550.709247 273.393458,545.696353 C251.466866,530.221027 232.256365,511.727173 213.376631,492.827651 C212.36834,491.819477 211.280104,490.890238 209.714205,489.451416 C208.910769,491.731549 208.246236,493.551059 207.627671,495.386556 C201.714826,512.923193 195.868934,530.481813 189.833175,547.975486 C188.995763,550.403498 189.007755,550.827151 189.215609,551.351721 C190.868447,555.508317 191.824775,563.259969 190.828475,567.588424 C188.361209,578.309643 178.115409,584.607486 167.072169,582.329351 C154.245182,579.683518 145.848082,565.506129 149.725358,553.004368 C151.557071,547.100203 156.666481,541.647669 163.92538,539.951058 C163.92538,539.951058 165.3194,537.847781 166.271731,535.11402 C168.540137,528.603352 171.091344,522.192602 173.492657,515.728896 C174.042271,514.249108 174.448985,512.716363 174.587887,510.993774 C148.772028,531.985582 124.583025,554.645024 100.039272,577.050674 C100.746774,580.004255 101.647142,582.754003 102.042864,585.576692 C104.150383,600.639356 95.4075263,613.085163 81.0516139,615.643068 C67.687005,618.026116 53.650868,608.203161 50.6030097,594.335518 C47.3632862,579.593592 55.0988505,566.058677 68.8731715,562.397675 C69.9214349,562.118903 76.1050898,560.350352 79.1609425,560.660098 C79.2504073,560.564966 80.178447,559.587147 83.2810473,556.648383 C110.755741,530.628693 140.029171,506.792215 170.88349,484.887154 C176.204751,481.110248 181.407096,477.167477 186.735352,473.248686 C185.761036,462.356606 184.798712,451.58243 183.788422,440.278688 C179.511428,440.632398 175.757066,440.998099 171.995709,441.243897 C156.42465,442.258067 140.859588,443.410123 125.274539,444.164505 C115.481421,444.638117 106.621646,441.417755 98.9690237,435.365711 C93.9945192,431.430934 89.215877,427.204395 84.6760671,422.774024 C62.4277007,401.066801 43.1652361,376.83165 24.4563825,352.219806 C19.8166428,346.113807 21.9711289,337.084202 29.0541517,334.14361 C31.3095669,333.207377 33.876763,332.723773 36.6977807,332.594879 L39.6633062,332.46023 C44.1133467,332.263514 48.5695295,332.110639 53.0083195,332.274141 C55.1947831,332.354076 56.6617523,331.918432 58.3945347,330.638481 C61.4314008,328.396317 64.6421446,326.227094 68.0867242,324.735315 C73.4679429,322.404224 79.1219699,322.819884 84.5991212,324.74131 C91.0755703,327.015448 97.5000559,329.437464 104.387216,331.955402 C111.037543,322.635035 120.096178,322.607058 129.962245,326.258068 C131.149411,326.696709 132.400532,326.967487 133.632666,327.273237 C133.972427,327.357168 134.350162,327.286226 135.74818,327.286226 C135.827124,327.152336 136.167885,326.250075 136.774458,325.589616 C142.2656,319.603518 148.991873,318.198669 156.641498,320.373887 C159.759307,321.260161 162.873119,322.160424 166.419627,323.177591 C168.020502,311.753947 174.944637,304.951518 185.212422,300.511154 C181.384112,287.825544 181.768842,276.319966 195.563148,269.057914 C191.433051,258.749356 191.223198,249.137229 201.558935,241.582416 C200.109954,239.088458 198.795877,236.771356 197.430836,234.485228 C190.400776,222.714868 189.978073,212.792994 199.924084,203.434658 C200.837442,202.575362 202.596206,201.516229 203.893295,200.517047 C191.880736,183.156266 199.736216,169.119761 211.604876,155.205157 C209.62127,149.942467 205.417224,144.868622 206.497465,138.317987 C207.530739,132.044125 210.391729,126.666529 214.818618,122.092276 C212.844005,119.176663 210.893376,116.393942 209.036681,113.559264 C205.422221,108.038785 204.684739,101.116454 207.092047,94.9734854 C209.409419,89.0603281 212.927947,84.02745 217.350839,79.6550309 C207.546728,63.5102531 207.865504,59.1168512 219.761145,44.8515342 C219.706184,44.5128116 219.735163,44.1291258 219.582271,43.8413615 C212.66713,30.8280192 217.890459,16.7925139 231.755717,11.4189148 C232.984853,10.9423051 234.565742,10.8923461 235.873823,11.1681202 Z M75.8862436,565.43019 C63.5838882,565.426195 53.9866321,575.555899 54.0026009,588.888979 C54.5752185,596.916405 58.3105937,604.21143 66.394913,608.800672 C79.4507388,616.212602 94.6330705,608.893596 97.8438143,594.218614 C99.7694612,585.412826 93.8426259,572.419467 85.541459,568.542642 C82.4816091,567.112813 79.1129762,565.431191 75.8862436,565.43019 Z M321.655545,557.474707 C312.595911,557.443732 302.115276,563.960395 299.572063,578.114803 C298.05413,586.563883 303.360401,594.18764 311.781484,595.783333 C324.533523,598.198355 337.631319,587.013515 337.749237,573.608493 C337.828181,564.594875 329.61795,556.900177 321.655545,557.474707 Z M164.490982,544.537302 C159.207695,545.759301 156.115867,548.570999 154.260171,553.106284 C149.788314,564.02734 158.180417,577.303467 170.063067,578.348611 C179.371526,579.16794 186.679391,572.654275 187.016154,561.790172 C186.362614,557.408761 184.57387,551.980207 180.076031,547.943513 C175.606172,543.931798 170.572709,543.130454 164.490982,544.537302 Z M186.586456,478.993981 C150.49082,504.303253 115.670288,531.467006 83.8886204,562.074939 C91.353375,564.66282 95.7612777,568.951308 98.1166226,572.809148 C99.9313474,571.156502 101.845003,569.492864 103.671719,567.737302 C126.69654,545.604428 151.925812,525.874587 174.230139,502.946364 C180.537707,496.463673 187.284965,490.409632 193.815377,484.142764 C194.184117,483.789054 194.416954,483.29346 194.506891,483.163566 C191.878737,481.779699 189.326531,480.434801 186.586456,478.993981 Z M222.179446,477.509197 C218.803818,479.692409 214.180067,482.363221 210.558611,484.704304 C211.188169,485.863355 213.752367,486.900505 215.047457,488.161473 C226.988067,499.794945 238.529956,511.919016 251.216042,522.688196 C267.62751,536.619786 284.982315,549.440287 301.883439,562.702425 C302.481019,560.947862 312.719824,553.490969 315.428921,554.209381 C312.942668,551.977209 310.333501,549.499238 307.586431,547.188131 C284.280808,527.57919 261.012158,507.927285 237.578625,488.471219 C232.489201,484.246679 226.78421,480.759535 222.179446,477.509197 Z M218.609954,438.278326 C208.76687,443.149337 199.402451,447.783541 189.172639,452.846395 C189.81119,459.236162 190.477722,466.260409 191.222199,473.274665 C191.697865,477.746003 192.386381,478.54335 197.036113,478.576323 C201.741807,478.608297 206.452497,478.180647 211.15819,477.908869 C216.027768,477.6271 217.03606,477.226428 217.499734,472.337432 C218.352135,463.335804 218.578976,454.273227 218.958709,445.231631 C219.054641,442.960491 218.741861,440.672365 218.609954,438.278326 Z M229.692167,17.5359051 C227.816485,19.2395099 225.857861,20.9041466 224.262982,22.8545493 C219.291475,28.9345699 219.076626,34.6818629 223.334634,41.3843737 C225.999761,45.581936 225.845869,45.7008386 222.439263,48.9521759 C213.305681,57.6710353 211.716798,66.4198702 220.601554,75.9290823 C220.72147,76.0579768 220.841386,76.1878704 220.959303,76.3187632 C222.720066,78.2731626 222.551184,81.3016823 220.552589,83.0132805 C216.929135,86.1177381 214.305978,89.7717455 212.221443,93.9233454 C208.997708,100.346085 208.936751,106.463076 213.359643,112.327273 C215.212341,114.783262 217.227925,117.113353 219.112601,119.545362 C219.171559,119.621299 219.229518,119.697237 219.286478,119.775173 C220.434672,121.337893 220.167859,123.522105 218.6869,124.774079 C214.390918,128.411101 211.847706,133.02732 210.90237,138.516824 C209.903072,144.330063 213.424598,148.686496 216.114707,153.555508 C216.95012,155.066271 216.600366,156.938737 215.319266,158.09579 C210.525635,162.422246 207.240943,167.750882 204.866611,173.76096 C202.360372,180.107762 202.372364,186.074875 205.296309,192.396698 C208.563014,199.457915 209.860102,201.867941 203.142822,207.935972 C196.025823,214.366705 195.61811,222.612951 200.367772,230.906159 C206.729302,242.012064 207.036087,242.63955 219.562285,245.439257 C233.009835,248.443796 246.62227,250.709941 260.151763,253.355774 C261.43686,253.607567 262.822886,253.666519 264.146956,254.095168 C266.24648,254.77661 265.630913,257.911043 263.428461,257.766162 L263.271571,257.75617 C259.660109,257.519364 256.062636,257.092713 252.503138,256.436251 C237.738513,253.712482 222.82799,251.631186 208.549024,246.695228 C204.158109,245.177472 201.93667,245.950838 199.453415,249.775706 C195.993846,255.104342 196.977155,260.512912 199.239565,265.910492 C199.978046,267.67105 200.871418,269.366661 201.49598,270.675589 C201.018315,271.524894 200.967351,271.767695 200.833445,271.827646 C199.695245,272.336229 198.541056,272.816835 197.388866,273.295443 C190.89343,275.994233 186.981179,282.235122 187.359913,289.27036 C187.742644,296.383535 190.172936,301.863047 197.857536,303.902377 C202.575221,305.155351 207.140014,307.008833 211.729788,308.710439 L211.777755,308.727425 C214.322966,309.677647 213.024878,313.539484 210.435698,312.717158 C210.273812,312.6662 210.113924,312.612244 209.955036,312.558288 C204.292015,310.631866 198.398156,309.122102 193.111871,306.433304 C188.434158,304.055252 184.715771,304.812632 181.07433,307.648309 C178.52612,309.631685 175.865989,311.796912 174.151194,314.457732 C170.560717,320.02917 168.924867,325.945324 176.260712,331.482789 C185.995871,338.831771 195.97386,345.714134 206.991118,351.017791 C207.094046,351.06775 207.195974,351.11671 207.298902,351.167668 C209.750179,352.396661 208.07036,356.166574 205.545134,355.098449 C205.10944,354.9136 204.684739,354.709767 204.266033,354.496941 C191.41906,347.996265 179.25261,340.478422 168.882896,330.33373 C167.734703,329.21065 166.51556,327.878741 165.07757,327.39114 C161.154327,326.058232 157.141147,324.908174 153.083998,324.075855 C147.899641,323.011727 142.563391,325.117003 139.386623,329.349536 C138.701105,330.26079 138.029576,331.181036 137.350054,332.099284 C136.199862,332.016352 135.281507,332.064313 134.420113,331.863478 C132.125725,331.329914 129.869311,330.633485 127.575922,330.103919 C124.758902,329.45445 121.937884,328.536202 119.085888,328.399315 C113.838575,328.14852 110.291068,330.754386 108.356427,335.685347 C108.875063,336.127985 109.442664,336.574619 109.966296,337.065217 C117.77381,344.387221 125.6153,351.672255 133.345868,359.073193 C133.531737,359.251048 133.718606,359.4309 133.903476,359.616748 C135.772163,361.492212 133.105037,364.398832 131.077462,362.695227 C130.728707,362.401468 130.390944,362.100714 130.066172,361.786971 C124.712934,356.613208 119.640498,351.132696 114.094395,346.177754 C109.655514,342.212002 105.032763,338.203285 99.8534022,335.384594 C94.3382776,332.383052 88.1726101,330.422658 82.1098703,328.61214 C72.958301,325.879378 64.7670568,329.007816 58.7093135,336.963301 C62.5406213,341.985188 66.5617957,346.90416 70.1812524,352.101903 C72.602551,355.579055 75.7213594,358.603578 78.246585,362.240599 C79.8184804,364.502747 76.4968145,366.993707 74.7620335,364.855458 C74.4822301,364.511739 74.2144183,364.162026 73.9476058,363.824302 C68.9930873,357.558434 64.1664789,351.18965 59.3558592,344.811873 C57.5421337,342.407842 55.9072825,339.86992 53.6938378,336.677535 C46.7107447,335.917158 38.9172211,335.70633 31.39051,338.061402 C24.733188,340.145695 23.5740026,344.103453 27.9419333,349.495038 C43.0283323,368.113789 57.9168704,386.913393 73.6178375,405.003577 C81.7910943,414.421864 91.2854228,422.747046 100.602876,431.097207 C107.448066,437.233182 115.932104,440.102832 125.174609,439.939965 C145.052641,439.588253 164.844734,438.51713 184.439965,434.401501 C195.931889,431.987478 207.573709,430.394782 219.244508,429.087853 C238.102257,426.975583 256.222524,422.381345 273.51937,414.728613 C293.737163,405.785937 307.662378,391.139931 313.73611,369.55361 C314.324697,367.460324 315.139124,365.415 315.561827,363.28974 C320.659245,337.670721 325.697705,312.040712 330.762146,286.415698 C338.955389,244.945661 346.881819,203.420669 355.444802,162.02757 C361.540519,132.560702 368.405695,103.253704 374.91612,73.8727664 C376.06831,68.6750233 377.061612,63.4373128 377.901023,58.180618 C379.442939,48.5085392 379.152143,46.8309131 371.944208,44.7116488 C369.683797,44.0471929 367.390408,43.4786586 365.086027,42.9890595 C322.496954,33.9474644 279.901885,24.9358447 237.318807,15.8722676 C234.445826,15.2607684 231.887624,15.5425376 229.692167,17.5359051 Z M369.776931,51.1384853 C372.657907,53.1608291 374.043933,56.4621254 373.319442,59.8303669 C372.349124,64.351664 371.637624,67.4501264 368.610751,70.9652476 C366.39131,73.5421372 362.091332,75.4605661 358.470876,75.5115243 C357.584499,75.5235145 356.348367,75.1378304 356.348367,75.1378304 C355.20617,75.487544 353.48338,76.8484294 352.578017,77.4949 C344.172923,83.4939868 340.928203,93.5457547 344.237877,103.365712 C345.117259,105.974576 344.300833,107.402406 342.431147,108.947141 C336.988971,113.441461 333.213624,119.164773 330.630439,125.683435 C327.807422,132.806601 328.007282,139.41319 333.63133,145.374308 C336.603242,148.524728 336.425367,150.172379 333.077719,153.786419 C328.516924,158.708388 325.371134,164.280824 324.080042,170.89141 C323.101729,175.895312 323.839211,180.13484 328.32306,183.426145 C331.457857,185.72726 331.51082,186.906294 329.221429,190.300515 C324.805532,196.848152 321.685724,203.954332 319.650154,211.544117 C317.725507,218.718241 317.79246,225.478704 323.412511,231.350895 C325.86179,233.910799 325.554006,234.82505 323.247627,237.977468 C320.144807,242.220993 316.856118,246.352609 314.065079,250.793972 C310.146832,257.031863 307.784492,264.036127 307.481705,271.616918 C307.320818,275.617642 308.413051,279.50246 310.068887,283.147475 C311.127143,285.475568 310.52057,288.178355 308.630898,289.914932 C306.049711,292.287989 304.03113,295.456394 302.367299,298.596822 C300.30275,302.491632 300.954292,306.172618 304.324923,309.448935 C307.611614,312.644318 307.458721,313.383712 303.655394,316.074508 C299.107589,319.291873 295.507119,323.287601 293.02986,328.261527 C290.900357,332.536027 290.350743,336.791542 292.818009,341.260881 C294.647723,344.574168 294.417885,345.058771 291.148182,347.473793 C284.757673,352.191929 280.897385,358.063121 281.45999,366.407287 C281.582904,368.223799 280.801453,370.350058 279.80915,371.943753 C277.428823,375.764623 274.57283,379.286739 272.112558,383.061647 C270.775498,385.111968 269.412456,386.230052 266.783303,385.615556 C257.288975,383.395374 250.209949,387.451052 244.382044,394.537249 C243.691529,395.37856 243.057975,396.266833 242.402435,397.13712 C241.083362,398.886687 239.422529,399.024574 237.57183,398.137301 C236.918289,397.823558 236.315712,397.408897 235.677161,397.065179 C225.550277,391.588664 217.573882,393.181359 209.993209,402.161005 C209.645453,402.572668 209.318683,403.009311 209.017894,403.455945 C205.672245,408.424875 205.670246,409.777767 197.537961,406.589379 C190.940597,404.001498 184.145372,403.393996 177.269203,405.468297 C172.370645,406.946086 168.547332,409.678848 166.357871,414.561849 C164.656066,418.35874 163.661765,418.611533 159.511681,417.461475 C155.321626,416.299426 151.187531,414.798655 146.923527,414.061259 C139.812524,412.833265 132.786461,413.22994 126.392953,417.175709 C122.92539,419.315956 120.018433,421.990765 118.466523,425.881579 C117.869942,427.378353 117.455234,429.428674 115.2258,428.356552 C113.328134,427.4433 113.870752,425.607803 114.555271,424.054075 C117.896923,416.481277 124.070585,412.3017 131.767177,410.268366 C139.147991,408.318962 146.526806,408.999405 153.810687,411.132658 C155.821274,411.721176 157.885824,412.126844 159.924391,412.618441 C160.214188,412.114853 160.188206,412.159817 160.477003,411.656229 C155.234687,406.193703 150.029344,400.695206 144.733066,395.284637 C142.32176,392.820655 139.623656,390.630449 137.272309,388.115508 L137.061457,387.887695 C135.17778,385.858357 138.140698,382.945742 140.109315,384.893147 C140.364136,385.14594 140.611962,385.401731 140.859788,385.648529 C147.671002,392.444963 154.40427,399.317334 161.161522,406.166725 C162.033909,407.051001 162.879315,407.962254 163.898599,409.030379 C175.607371,397.12513 189.006955,398.617907 203.208976,403.854618 C208.913967,395.695301 214.631949,389.057737 228.568156,389.365485 C227.363003,388.175459 225.510305,387.190266 224.609938,386.626728 C219.535503,383.44933 214.373131,380.409819 209.309689,377.212438 L208.788056,376.880709 C206.454695,375.400921 208.543228,371.826848 210.956532,373.172746 C211.25732,373.340609 211.550115,373.514466 211.837912,373.678332 C220.984485,378.904052 230.054112,384.264662 237.929578,391.372841 C238.461205,391.854446 239.056786,392.264111 239.930172,392.94855 C247.055166,383.819027 256.045848,378.892062 267.904515,381.149214 C269.827164,377.95383 271.581931,375.037219 273.413644,371.990714 C270.992346,369.684603 267.355901,370.068289 264.398979,368.412645 C262.982974,367.619294 263.363706,365.481045 264.96558,365.218261 C269.177621,364.526827 272.914995,367.242603 277.083066,367.597312 C276.272635,357.319729 280.692529,349.644016 288.697904,343.768827 C283.362653,330.776468 290.633544,322.192498 299.242495,313.474638 C296.467445,312.51942 293.996181,311.748052 291.584876,310.817813 C289.047658,309.837616 286.535424,308.780482 284.081148,307.612439 C282.673138,306.942987 280.650559,306.29152 281.499962,304.160266 C282.384341,301.936087 284.230044,303.036186 285.695014,303.584737 C287.560703,304.284164 289.350446,305.183428 291.201145,305.92582 C292.865975,306.594272 294.567779,307.166804 297.012062,308.059073 C296.010766,298.690745 299.625226,291.557587 306.140647,285.858255 C305.365192,283.285362 304.583741,281.070176 304.036126,278.797038 C302.506201,272.440244 303.136758,266.188364 305.147345,260.024412 C307.596624,252.514563 311.446919,245.770086 316.287517,239.563169 C317.506661,238.000449 318.734798,236.444723 319.85601,235.015894 C319.760077,234.431372 319.823033,233.979742 319.62817,233.761921 C313.516465,226.950499 313.047794,218.989019 315.424124,210.756761 C317.174894,204.691728 319.647157,198.834525 321.997505,192.335848 C320.460585,192.038092 318.796754,191.541498 317.104943,191.414602 C292.81701,189.600088 270.425744,181.337855 248.545119,171.33105 C246.070857,170.198977 243.589601,169.052916 241.249246,167.678042 C240.480786,167.226412 240.149019,166.028393 239.617392,165.172094 C240.668654,164.730456 241.765883,163.850177 242.760184,163.953093 C244.137216,164.095976 245.490265,164.879334 246.762372,165.559777 C266.855253,176.331955 288.599973,181.848437 310.863329,185.691289 C315.229261,186.444672 319.592195,187.829538 324.676622,186.465655 C317.523649,179.571302 318.426015,171.712738 321.635759,164.083985 C323.848205,158.824293 327.34175,154.10216 330.538503,148.672607 C330.641431,149.062288 330.65742,148.625645 330.447567,148.401829 C323.141701,140.58523 323.009794,131.742472 327.243819,122.637929 C329.51822,117.747934 332.657015,113.25861 335.498018,108.431564 C335.375105,108.331645 335.024351,107.807075 334.593654,107.730138 C315.442111,104.319931 296.813202,98.8424168 278.231259,93.2539936 C267.124064,89.9137292 256.19974,85.9579689 245.220455,82.2000466 C243.526645,81.6205212 241.842828,80.7931987 240.424825,79.7230751 C239.816253,79.2644507 239.629384,77.8436144 239.787273,76.9553419 C239.857224,76.565661 241.25724,76.3548337 242.077663,76.1869711 C242.373456,76.1270202 242.744195,76.4297723 243.07896,76.5706569 C264.898628,85.7121702 287.703603,91.7452293 310.495587,97.7782883 C318.728802,99.9575036 327.108913,101.579175 335.431065,103.415671 C336.451349,103.640487 337.525594,103.617506 338.990564,103.745401 C336.06562,89.7098962 341.873538,79.6381447 352.847827,71.6147157 C352.027403,66.589831 350.991132,61.1682711 354.122931,56.7698733 C355.676839,54.5886597 357.436603,52.6552431 359.562109,51.0555532 C362.731882,48.6685082 366.792029,49.0442005 369.776931,51.1384853 Z M223.698278,206.303309 C232.29224,209.084031 240.906187,211.801805 249.490155,214.613503 C251.064049,215.12908 252.575986,215.831505 254.099916,216.499958 C254.737468,216.779729 255.114203,217.445184 255.012275,218.13362 C254.953316,218.533293 254.638537,218.847036 254.237819,218.900991 C252.762855,219.098829 251.223937,219.510492 249.924849,219.121811 C240.583413,216.319106 231.284947,213.360529 222.041443,210.24508 C220.199737,209.624589 216.947022,208.847225 218.111204,206.163423 C219.32735,203.357721 221.779627,205.682817 223.698278,206.303309 Z M242.686336,129.438259 C258.215424,135.608206 274.208186,139.994614 290.800527,142.116876 C291.87677,142.254763 293.064935,142.190815 293.990285,142.647441 C294.995579,143.144035 295.755045,144.13922 296.620437,144.916583 C295.666108,145.523086 294.733763,146.167559 293.742459,146.709115 C293.473648,146.856994 293.033957,146.694127 292.672211,146.675143 C292.633239,146.860991 292.594266,147.047838 292.555294,147.233685 C282.662245,145.132406 272.710238,143.268932 262.897134,140.842919 C256.774436,139.329159 250.855595,136.98308 244.85781,134.973726 C243.488772,134.515102 242.12473,133.998525 240.839633,133.348057 C239.29372,132.564699 236.997333,131.866271 238.05459,129.556163 C239.219772,127.00825 241.175397,128.837751 242.686336,129.438259 Z" id="Stroke" fill="#267966" transform="translate(202.500000, 313.500000) scale(-1, 1) translate(-202.500000, -313.500000)"/></g></g><g id="Table" transform="translate(847.000000, 617.000000)"><path d="M236.737009,80.6903695 C235.992395,82.8453128 235.473664,84.5568563 234.819003,86.214351 C184.36017,214.032618 133.890342,341.84588 83.4205145,469.660144 C82.6858955,471.519821 82.0522241,473.430544 81.1666833,475.216154 C79.3916038,478.79338 75.9943655,480.580992 72.2742947,480.080541 C67.8915674,479.491009 66.4573112,477.259997 67.8765752,472.951111 C72.9939215,457.415101 78.1572439,441.894104 83.3105715,426.371105 C120.76215,313.563375 158.214728,200.756646 195.670305,87.9499161 C196.291982,86.0792291 196.960636,84.2255575 197.736233,81.9935447 C210.661531,81.5611547 223.456895,81.1337693 236.737009,80.6903695 Z M471.55224,72.5590366 C473.568194,79.5973838 475.362264,86.2493826 477.377219,92.83332 C486.312585,122.022643 495.542799,151.123887 504.23729,180.385275 C522.920602,243.267982 541.141153,306.288815 559.956396,369.130486 C568.294072,396.980601 577.61224,424.536451 586.487637,452.22442 C586.543608,452.397576 586.626565,452.561724 586.681537,452.73488 C588.368662,458.041666 588.185757,459.125644 585.454173,460.033462 C581.134413,461.465754 578.197936,460.04247 576.577776,455.566434 C565.570484,425.148002 554.596175,394.71756 543.598878,364.295125 C509.373627,269.609738 475.142378,174.925351 440.915127,80.2399633 C440.241477,78.3772835 439.594812,76.5055956 438.636309,73.7891459 C450.043394,73.3627614 460.700867,72.9644022 471.55224,72.5590366 Z M503.028532,49.9529175 L504.743028,49.9776727 C509.206713,50.076762 513.708379,51.145726 518.065119,52.2737433 C520.722741,52.9613634 522.987567,54.7239529 523.123496,57.9949026 C523.249431,61.0206312 521.556309,63.8311658 518.023141,64.959183 C514.605913,66.0501669 510.9668,66.8258664 507.392654,66.974 C490.153594,67.6906463 472.903539,68.104019 455.659481,68.7085642 C432.248622,69.5293044 408.842759,70.4591429 385.4319,71.2788821 C367.099406,71.9214616 348.762915,72.4329229 330.430422,73.0674951 C306.474845,73.8972434 282.523265,74.8230783 258.567688,75.6498239 C240.053289,76.2894006 221.534892,76.8128727 203.020493,77.436435 C182.329223,78.1330633 161.640952,78.9187718 140.949681,79.5833712 C136.818824,79.7154903 132.675972,79.5113062 128.542116,79.3761843 C127.661572,79.348159 126.768036,79.0118558 125.922474,78.701576 C123.40478,77.7777428 120.926065,76.1592833 121.018373,73.4888751 C121.084983,71.7042658 122.812087,69.3421356 124.458233,68.3952817 C127.193815,66.8248655 130.42314,65.4316091 133.511539,65.2734664 C153.824005,64.2325277 174.156461,63.59195 194.477923,62.7241675 C214.61648,61.8643921 234.74804,60.8464742 254.886597,59.9826952 C269.039258,59.3761482 283.198915,58.9347502 297.354574,58.371242 C305.156528,58.0609622 312.953485,57.6525939 320.75444,57.2892663 L320.75444,57.2892663 L320.760436,57.4213854 C351.420537,56.0621597 382.078638,54.6438807 412.740738,53.3627253 C435.967693,52.3918498 459.200645,51.598134 482.430599,50.7203424 C489.868741,50.4400897 497.31488,49.8115228 504.743028,49.9776727 Z" id="Fill" fill="#ffffff" transform="translate(327.558009, 265.056720) rotate(2.000000) translate(-327.558009, -265.056720)"/><path d="M321.381799,57.9123091 C321.3798,57.8682694 321.377801,57.8242297 321.375802,57.7801899 C313.574847,58.1435176 305.777891,58.5518859 297.975937,58.8621657 C283.820277,59.4256738 269.66062,59.8670719 255.507959,60.4736189 C235.369403,61.3373978 215.237842,62.3553158 195.099286,63.2150912 C174.777824,64.0828737 154.445368,64.7234514 134.132901,65.7643901 C131.044503,65.9225327 127.815177,67.3157892 125.079596,68.8862054 C123.43345,69.8330593 121.706345,72.1951894 121.639735,73.9797988 C121.547428,76.650207 124.026142,78.2686665 126.543837,79.1924996 C127.389398,79.5027794 128.282935,79.8390827 129.163478,79.867108 C133.297334,80.0022299 137.440186,80.206414 141.571044,80.0742948 C162.262314,79.4096955 182.950586,78.6239869 203.641856,77.9273587 C222.156255,77.3037964 240.674651,76.7803243 259.18905,76.1407476 C283.144628,75.314002 307.096207,74.3881671 331.051784,73.5584188 C349.384278,72.9238465 367.720769,72.4123853 386.053262,71.7698058 C409.464122,70.9500666 432.869984,70.0202281 456.280844,69.1994879 C473.524902,68.5949427 490.774956,68.1815699 508.014016,67.4649237 C511.588163,67.3167901 515.227276,66.5410906 518.644504,65.4501067 C522.177672,64.3220895 523.870794,61.5115549 523.744859,58.4858263 C523.608929,55.2148765 521.344104,53.452287 518.686482,52.7646669 C514.329741,51.6366497 509.828076,50.5676857 505.36439,50.4685963 C497.936242,50.3024465 490.490104,50.9310133 483.051961,51.2112661 C459.822007,52.0890577 436.589055,52.8827734 413.3621,53.853649 C382.700001,55.1348043 352.041899,56.5530833 321.381799,57.9123091 M439.257672,74.2800696 C440.216175,76.9965193 440.862839,78.8682072 441.53649,80.730887 C475.763741,175.416275 509.994989,270.100661 544.220241,364.786049 C555.217538,395.208484 566.191847,425.638926 577.199139,456.057358 C578.819299,460.533394 581.755776,461.956678 586.075536,460.524386 C588.807119,459.616567 588.990024,458.53259 587.302899,453.225804 C587.247928,453.052648 587.164971,452.8885 587.109,452.715344 C578.233602,425.027375 568.915435,397.471525 560.577758,369.621409 C541.762515,306.779739 523.541964,243.758906 504.858653,180.876198 C496.164161,151.61481 486.933948,122.513567 477.998582,93.3242437 C475.983627,86.7403063 474.189557,80.0883075 472.173602,73.0499603 C461.32223,73.4553258 450.664756,73.8536851 439.257672,74.2800696 M198.357596,82.4844683 C197.581998,84.7164812 196.913345,86.5701528 196.291667,88.4408398 C158.836091,201.247569 121.383513,314.054299 83.931934,426.862029 C78.7786064,442.385028 73.615284,457.906025 68.4979377,473.442035 C67.0786737,477.750921 68.5129299,479.981933 72.8956571,480.571464 C76.615728,481.071916 80.0129663,479.284304 81.7880458,475.707078 C82.6735866,473.921467 83.307258,472.010744 84.041877,470.151067 C134.511705,342.336804 184.981532,214.523542 235.440366,86.7052747 C236.095026,85.0477799 236.613757,83.3362365 237.358371,81.1812931 C224.078258,81.624693 211.282893,82.0520784 198.357596,82.4844683 M507.020532,46.0185833 C511.781063,46.0846429 516.639543,47.6170248 521.228164,49.1594157 C525.450974,50.5796965 528.220538,53.8286264 528.137581,58.6289554 C528.054624,63.4072645 525.878752,67.3978632 521.39008,68.9322469 C516.651537,70.5517073 511.584165,71.6046569 506.589755,71.9910053 C498.270069,72.6335848 489.895412,72.5334945 481.544743,72.785722 C480.292392,72.8237563 479.048037,73.0719801 477.245972,73.289176 C477.622776,75.1408458 477.826671,76.8684038 478.32941,78.5048795 C484.946978,100.045305 491.82741,121.506659 498.204104,143.117147 C507.719169,175.365229 516.724499,207.762444 526.234568,240.011527 C547.158717,310.964512 568.163824,381.893476 591.471737,452.111799 C591.528708,452.284956 591.60167,452.451105 591.668635,452.621259 C593.191845,456.519775 594.197324,460.355233 590.124436,463.437013 C587.219942,465.634995 579.650867,465.905238 576.615442,463.499068 C575.189181,462.369049 574.235676,460.37325 573.579016,458.581634 C567.197326,441.174937 560.923579,423.728203 554.619848,406.292479 L508.522,278.792 L531.294873,386.390811 C531.370512,386.748208 531.418018,387.110794 531.437044,387.475238 L531.446564,387.840178 C531.446564,391.706171 528.312557,394.840178 524.446564,394.840178 L524.446564,394.840178 L520.062186,394.840178 C512.467121,394.840178 505.903941,389.534888 504.311886,382.108557 L504.311886,382.108557 L443.757791,99.6463443 C441.531779,93.4886613 439.305782,87.3309752 437.079801,81.1732859 C436.339185,79.1264401 435.644545,77.061578 434.702034,74.3501328 C373.397664,76.469542 312.175448,78.5862391 251.221577,80.6942092 L174.274583,391.971644 C172.439183,399.396217 165.776971,404.612037 158.128901,404.612037 L153.744524,404.612037 C149.878531,404.612037 146.744524,401.47803 146.744524,397.612037 C146.744524,397.124953 146.795363,396.639199 146.896215,396.16267 L180.327605,238.201556 C149.287326,316.850093 118.242294,395.49676 87.2032376,474.14567 C85.927899,477.376583 84.6445645,480.453358 81.5841515,482.59629 C76.6517094,486.051406 69.9122043,485.801181 65.5724548,481.7195 C63.0387687,479.336351 62.4220885,476.599883 63.5225178,473.299907 C96.5174075,374.340665 129.501303,275.376419 162.464209,176.405166 C172.113206,147.433039 181.698235,118.439893 191.305253,89.4537533 C191.925931,87.5810645 192.484641,85.6883576 193.261239,83.1951092 C191.115352,83.0810063 189.395244,82.8658122 187.683131,82.9178592 C174.247099,83.331232 160.790077,83.4723592 147.387028,84.3851824 C141.027326,84.8175723 134.775568,85.3890877 128.469838,84.2310434 C125.177545,83.6264982 122.193093,82.4684539 119.861302,79.9401739 C116.366115,76.1517575 116.087259,72.1741705 119.323581,68.1725618 C122.964693,63.6715028 127.948108,61.4575062 133.583186,61.2232949 C162.977943,60.000192 192.381695,58.9662595 221.77945,57.7972053 C247.729993,56.7642738 273.676538,55.6402602 299.624082,54.5542808 C326.117343,53.4452807 352.610604,52.3482914 379.102866,51.2172715 C411.219212,49.845034 443.334557,48.4297577 475.449903,47.0615238 C485.973446,46.6121185 496.503985,45.8734524 507.020532,46.0185833 Z" id="Stroke" fill="#267966" transform="translate(328.000000, 265.500000) rotate(2.000000) translate(-328.000000, -265.500000)"/></g><g id="Table Objects" transform="translate(952.000000, 421.000000) scale(1 1)"><g id="Table Objects/Computer 1" stroke="none" stroke-width="1" fill="none" fill-rule="evenodd"><path d="M328.731,88.3809 C328.265,94.9029 327.61,101.4149 326.865,107.9119 C325.17,122.7089 323.368,137.4929 321.623,152.2839 C321.498,153.3389 321.48,154.4049 321.384,155.8869 C323.178,156.0379 324.755,156.1629 326.331,156.3049 C330.365,156.6699 331.424,157.4909 331.848,161.5609 C332.279,165.7099 332.661,169.9149 332.48,174.0689 C331.676,192.3939 329.708,220.0539 328.731,238.3709 C328.31089,246.24721 328.431243,248.402894 328.666696,248.513407 L328.67411,248.514808 L328.595507,248.677111 C327.797103,250.239917 326.354824,251.126552 324.021,251.197876 C315.669,251.453876 307.319,251.881876 298.983,252.453876 C295.903,252.665876 294.617,251.070876 294.101,248.553876 C293.704,246.613876 293.728,244.586876 293.571,242.597876 C293.099,236.640876 292.114,221.0839 291.803,215.1179 C291.59,211.0329 291.762,206.9289 291.762,202.0529 C281.529,202.5749 271.664,203.0789 261.247,203.6099 C261.067,207.0839 260.906,210.2989 260.732,213.5129 C260.287,221.6759 257.904806,230.2119 257.404806,238.3709 C257.294806,240.1769 256.623507,241.416532 256.177507,243.166532 C255.409507,246.176532 256.301304,249.4779 252.689304,249.8209 C243.475304,250.6969 237.611839,248.8999 228.400839,249.8209 C214.307839,251.2299 200.655203,250.7659 186.542203,251.9619 C184.444203,252.1399 179.984873,251.9619 177.864873,251.9619 C176.767873,248.1919 175.981,248.9669 176.862,246.0429 C177.583,243.6479 179.66,242.8629 181.927,242.5299 C191.446,241.1349 200.959,239.6929 210.488,238.3709 C218.554,237.2519 226.638,236.2739 235.08,235.1869 C235.08,225.6059 235.341,215.2909 235.341,205.8099 C230.362,206.3529 224.644,206.6069 219.479,207.0629 C200.488,208.7379 181.511,210.5719 162.528,212.3249 C158.912,212.6589 155.292,213.0009 151.666,213.1559 C145.095,213.4379 144.635,212.9569 145.246,206.6229 C145.996,198.8479 146.862,191.0849 147.625,183.3109 C149.718,161.9789 151.777,140.6439 153.867,119.3109 C154.274,115.1539 154.688,110.9939 155.227,106.8529 C155.764,102.7159 156.657,101.6609 160.509,101.1169 C176.871,98.8069 193.218,96.3559 209.623,94.4009 C231.801,91.7569 254.014,89.3719 276.239,87.1569 C292.142,85.5729 308.089,84.4259 324.021,83.1409 C327.889,82.8289 329.043,84.0109 328.731,88.3809 Z M73.8443931,235.925824 C86.5254241,233.717199 99.0708376,235.073964 111.495389,237.857027 C115.852619,238.833481 118.490441,242.095813 119.655582,248.469763 C113.876587,248.166899 108.724743,247.707322 103.566336,247.666294 C92.6042235,247.578797 81.6395612,247.715939 70.6762696,247.748713 C68.8499158,247.754031 66.6373097,248.227246 66.1155964,245.511733 C65.6013005,242.830666 65.7372056,239.944145 68.1595304,238.32401 C69.8746124,237.176518 71.8794154,236.26898 73.8443931,235.925824 Z M396.068234,170.327 C396.068234,170.327 398.535234,171.465418 399.793234,172.243098 C404.045234,174.872495 408.660234,177.13298 409.985234,182.423453 C410.813234,185.733449 411.028234,189.403159 410.612234,192.794908 C409.857234,198.942772 407.277234,204.578654 403.911234,209.684161 C396.418234,221.051986 394.082234,233.043182 398.901234,246.126809 C399.019234,246.446669 399.442234,247.036316 399.789234,248.327 L399.789234,248.327 L372.661234,248.327 C373.149234,246.09002 373.097234,245.132482 373.221234,243.585297 C373.692234,237.716417 371.649234,232.724343 368.567234,227.943807 C364.773234,222.06062 361.044234,216.122249 357.551234,210.050008 C353.660234,203.283883 352.036234,195.962856 353.575234,188.119629 C354.532234,183.246098 356.812234,179.112436 360.360234,175.696162 C361.897234,174.216423 364.869234,171.389796 366.723234,171.150667 C366.723234,171.150667 368.754234,173.033041 369.976234,173.354946 C375.803234,174.884758 380.504234,175.778937 386.506234,174.169415 C387.907234,173.793349 389.377234,173.557285 390.672234,172.943112 C392.571234,172.04178 394.092234,171.768927 396.068234,170.327 Z" id="Fill" fill="#ffffff"/><path d="M118.801599,246.681291 C117.533566,241.07262 114.890279,238.226637 110.613899,237.417901 C98.4199128,235.112933 86.136911,234.067626 73.79405,236.169146 C71.881492,236.495598 69.9415251,237.320396 68.2894685,238.35337 C65.9561477,239.811826 65.8821797,242.359797 66.4391955,244.718673 C67.0041587,247.107846 69.155971,246.663672 70.9399915,246.636918 C81.6491464,246.475563 92.3575145,246.222126 103.067967,246.166881 C108.107949,246.140758 113.150044,246.483934 118.801599,246.681291 M328.731,88.3809 C328.265,94.9029 327.61,101.4149 326.865,107.9119 C325.17,122.7089 323.368,137.4929 321.623,152.2839 C321.5105,153.2334 321.48467,154.19181 321.410645,155.454375 L321.384,155.8869 C323.178,156.0379 324.755,156.1629 326.331,156.3049 C330.365,156.6699 331.424,157.4909 331.848,161.5609 C332.279,165.7099 332.661,169.9149 332.48,174.0689 C331.676,192.3939 330.842248,221.425595 329.865248,239.742595 C329.721248,242.452595 329.464248,245.175595 328.983248,247.842595 C328.484248,250.605595 326.959248,252.210595 323.785248,252.307595 C315.433248,252.563595 307.083248,252.991595 298.747248,253.563595 C295.667248,253.775595 294.381248,252.180595 293.865248,249.663595 C293.468248,247.723595 293.492248,245.696595 293.335248,243.707595 C292.863248,237.750595 292.114,221.0839 291.803,215.1179 C291.59,211.0329 291.762,206.9289 291.762,202.0529 C281.529,202.5749 271.664,203.0789 261.247,203.6099 C261.067,207.0839 260.906,210.2989 260.732,213.5129 C260.287,221.6759 259.973344,233.503595 259.473344,241.662595 C259.363344,243.468595 259.113344,245.294595 258.667344,247.044595 C257.899344,250.054595 256.379344,251.964595 252.767344,252.307595 C243.553344,253.183595 235.08,252.307595 223.945575,252.472712 C209.769752,252.682932 197.144691,253.7369 182.757,253.7119 C180.649915,253.708239 178.533,253.7369 176.413,253.7369 C175.316,249.9669 175.981,246.9669 176.862,244.0429 C177.583,241.6479 179.66,240.8629 181.927,240.5299 C191.446,239.1349 200.959,237.6929 210.488,236.3709 C218.554,235.2519 226.638,234.2739 235.08,233.1869 C235.08,223.6059 235.341,215.2909 235.341,205.8099 C230.362,206.3529 224.644,206.6069 219.479,207.0629 C200.488,208.7379 181.511,210.5719 162.528,212.3249 C158.912,212.6589 155.292,213.0009 151.666,213.1559 C145.095,213.4379 144.635,212.9569 145.246,206.6229 C145.996,198.8479 146.862,191.0849 147.625,183.3109 C149.718,161.9789 151.777,140.6439 153.867,119.3109 C154.274,115.1539 154.688,110.9939 155.227,106.8529 C155.764,102.7159 156.657,101.6609 160.509,101.1169 C176.871,98.8069 193.218,96.3559 209.623,94.4009 C231.801,91.7569 254.014,89.3719 276.239,87.1569 C292.142,85.5729 308.089,84.4259 324.021,83.1409 C327.889,82.8289 329.043,84.0109 328.731,88.3809 Z M375.792706,65.6966349 C376.252706,66.4496349 376.385706,67.3556349 376.410706,68.2366349 C376.601706,74.8406349 371.804706,82.7746349 367.259706,87.5696349 C364.769706,90.1966349 358.995706,95.5666349 358.995706,95.5666349 L358.99193,95.5981013 C358.947994,95.9714825 358.545811,99.591477 359.123706,102.360635 C362.049706,98.3376349 365.557706,94.7396349 369.503706,91.7116349 C370.707706,90.7876349 372.169706,89.8696349 373.643706,90.2346349 C376.653706,90.9776349 376.089706,95.5016349 374.419706,98.1126349 C370.909706,103.597635 365.544706,107.870635 359.413706,110.063635 C359.394706,110.070635 359.374706,110.076635 359.355706,110.084635 C361.536706,120.109635 365.481706,129.748635 370.952706,138.427635 C371.449706,134.477635 372.851706,130.644635 375.020706,127.307635 C374.275706,125.909635 373.800706,123.471635 373.800706,123.471635 C369.852706,122.935635 368.556706,121.480635 367.507706,119.800635 C365.008706,115.793635 367.896706,109.633635 372.574706,108.990635 C377.253706,108.347635 381.695706,113.501635 380.368706,118.034635 C379.988706,119.333635 380.095706,120.994635 377.193706,122.735635 C377.193706,122.735635 377.488706,124.224635 377.611706,125.573635 C379.164706,124.444635 380.804706,123.278635 382.708706,123.027635 C384.613706,122.776635 386.831706,123.792635 387.229706,125.671635 C387.409706,126.523635 387.199706,127.406635 386.930706,128.234635 C385.953706,131.255635 384.186706,134.016635 381.853706,136.168635 C381.095706,136.867635 380.255706,137.532635 379.810706,138.462635 C379.307706,139.513635 379.384706,140.737635 379.472706,141.899635 C380.034706,149.294635 380.596706,156.690635 381.157706,164.086635 L386.282706,164.279635 C385.882706,144.022635 390.404706,123.684635 399.349706,105.505635 C400.631706,102.900635 402.027706,100.257635 402.300706,97.3676349 C402.452706,95.7636349 402.251706,94.1266349 402.575706,92.5496349 C403.487706,88.1206349 409.024706,85.4136349 413.154706,87.2536349 C417.283706,89.0936349 419.026706,94.8076349 416.782706,98.7336349 C414.540706,102.659635 408.932706,104.111635 404.969706,101.933635 C396.416706,118.347635 391.811706,138.191635 391.874706,156.700635 C393.452706,155.300635 395.791706,153.279635 397.369706,151.879635 C395.771706,147.499635 394.546706,142.033635 395.059706,137.400635 C395.282706,135.383635 396.111706,132.972635 398.115706,132.644635 C400.914706,132.187635 402.208706,136.048635 402.056706,138.880635 C401.866706,142.373635 401.265706,146.639635 400.132706,149.949635 C404.064706,147.006635 407.360706,143.128635 411.291706,140.185635 C406.381706,135.613635 404.019706,129.116635 403.950706,122.408635 C403.926706,119.971635 404.552706,117.114635 406.776706,116.118635 C408.914706,115.160635 411.516706,116.556635 412.704706,118.576635 C413.893706,120.596635 414.029706,123.042635 414.134706,125.383635 C414.324706,129.560635 414.512706,133.737635 414.700706,137.914635 C416.982706,135.442635 421.578706,131.204635 422.736706,128.554635 C422.736706,128.554635 420.568706,121.509635 420.507706,118.526635 C420.387706,112.651635 420.352706,111.184635 421.704706,105.468635 C422.087706,103.853635 423.422706,101.638635 425.057706,101.045635 C428.525706,99.7876349 429.930706,107.077635 430.074706,109.162635 C430.182706,110.703635 429.943706,112.366635 429.667706,113.880635 C429.001706,117.542635 427.629706,121.132635 425.673706,124.300635 C429.494706,120.494635 438.534706,112.135635 443.786706,110.910635 C445.058706,110.614635 446.526706,110.444635 447.551706,111.250635 C449.398706,112.701635 448.199706,115.686635 446.641706,117.443635 C444.657706,119.680635 442.269706,121.556635 439.626706,122.955635 C435.644706,125.062635 425.066706,130.175635 425.066706,130.175635 C423.686706,131.409635 419.548706,137.284635 414.835706,141.786635 C415.590706,141.758635 417.877706,141.020635 418.784706,140.680635 C419.995706,140.226635 421.208706,139.783635 422.416706,139.322635 C425.158706,138.273635 427.889706,137.203635 430.695706,136.330635 C431.909706,135.952635 433.262706,135.616635 434.416706,136.151635 C437.130706,137.411635 437.381706,141.628635 435.795706,143.797635 C433.892706,146.402635 430.405706,147.287635 427.182706,147.442635 C423.586706,147.615635 419.958706,147.102635 416.551706,145.939635 C414.985706,145.404635 411.844706,144.665635 411.844706,144.665635 C410.623706,145.246635 409.478706,146.242635 408.521706,147.079635 C403.225706,151.705635 397.930706,156.331635 392.634706,160.957635 C396.363706,157.992635 400.830706,155.964635 405.517706,155.107635 C408.328706,154.593635 412.188706,155.245635 412.534706,158.082635 C412.836706,160.551635 410.110706,162.211635 407.763706,163.036635 C402.951706,164.727635 397.916706,165.783635 392.829706,166.166635 C400.883706,168.944635 409.700706,172.364635 413.542706,179.968635 C417.073706,186.958635 415.245706,195.488635 412.000706,202.615635 C408.755706,209.742635 404.166706,216.306635 402.016706,223.837635 C399.975706,230.987635 400.292706,238.791635 402.907706,245.752635 C403.577706,247.536635 404.235706,249.923635 402.689706,251.036635 C402.053706,251.494635 401.222706,251.553635 400.440706,251.593635 C391.367706,252.061635 382.024706,252.793635 372.944706,252.320635 C369.734706,252.153635 368.603706,250.557635 368.637706,247.442635 C368.687706,242.946635 368.320706,238.712635 366.654706,234.480635 C364.118706,228.047635 359.446706,222.731635 355.739706,216.893635 C350.546706,208.716635 347.168706,198.894635 348.812706,189.347635 C350.439706,179.897635 357.205706,171.496635 366.092706,167.895635 C366.070706,164.385635 364.420706,160.919635 361.711706,158.688635 C359.971706,157.254635 357.774706,156.251635 356.606706,154.322635 C355.439706,152.393635 356.310706,149.092635 358.564706,149.141635 C357.970706,147.539635 357.376706,145.936635 356.782706,144.334635 C352.808706,146.074635 347.576706,143.683635 346.292706,139.539635 C345.007706,135.394635 347.968706,130.464635 352.230706,129.650635 C356.492706,128.837635 361.061706,132.330635 361.393706,136.657635 C361.705706,140.735635 359.015706,145.566635 361.862706,148.504635 C364.862706,148.380635 367.879706,148.699635 370.786706,149.446635 C368.232706,142.354635 365.265706,135.410635 361.905706,128.663635 C360.942706,126.728635 357.931706,120.846635 357.931706,120.846635 C357.931706,120.846635 352.661706,120.736635 349.706706,119.726635 C345.357706,118.240635 341.387706,115.655635 338.269706,112.278635 C336.192706,110.029635 334.793706,105.853635 337.484706,104.391635 C338.661706,103.751635 340.114706,104.038635 341.399706,104.422635 C346.869706,106.058635 353.257706,109.834635 357.099706,114.057635 C356.181706,110.942635 354.818706,105.354635 354.641706,100.987635 C354.491706,97.3036349 354.996706,93.0946349 354.996706,93.0946349 C354.608706,92.2246349 347.077706,87.3836349 345.058706,84.0766349 C342.585706,80.0296349 341.115706,75.3756349 340.817706,70.6426349 C340.697706,68.7456349 340.929706,66.5196349 342.531706,65.4966349 C345.021706,63.9066349 347.491706,67.0266349 349.621706,69.0736349 C354.907706,74.1506349 358.640706,77.9726349 358.018706,90.4126349 C359.457706,83.8226349 362.035706,73.2196349 366.247706,67.9506349 C367.451706,66.4446349 368.829706,64.9656349 370.640706,64.3026349 C372.450706,63.6386349 374.787706,64.0516349 375.792706,65.6966349 Z M84.0065116,230.861322 C91.7904241,230.971044 99.5617791,231.898825 107.341504,232.443666 C114.965498,232.978065 120.35854,236.509431 123.007366,243.867356 C123.307478,244.700337 123.882194,245.434842 124.499976,246.512058 C130.759161,246.730634 137.104097,246.92919 143.445869,247.189673 C145.072494,247.257483 146.772714,247.280834 148.280836,247.790777 C148.367875,247.819832 148.452567,247.858812 148.534945,247.906716 C150.118913,248.823554 149.390845,251.305657 147.566833,251.446085 C146.340761,251.541354 145.33092,251.60515 144.320872,251.58889 C122.629497,251.249665 100.94014,250.709388 79.2469783,250.593237 C72.031973,250.553413 64.8273866,250.960224 57.6254018,251.407151 C55.1354338,251.563347 52.6254971,251.517724 50.1293456,251.392533 C48.531123,251.313708 46.4887678,251.431503 46.4587769,249.167077 C46.4258862,246.75646 48.4762427,247.097224 50.0780473,247.10213 C52.6213605,247.108894 55.1634967,247.206673 57.7048365,247.155333 C58.948488,247.12972 60.1868031,246.85577 61.7337649,246.654636 C61.7758188,245.45037 61.8056421,244.395768 61.8504911,243.340691 C62.0994195,237.415769 64.3115224,234.09895 70.0328035,232.700768 C74.5803111,231.590797 79.3499626,230.795771 84.0065116,230.861322 Z M234.42,237.7849 C222.173,239.2539 210.313,240.6129 198.472,242.1259 C193.628,242.7449 188.83,243.7189 184.005,244.4909 C181.468,244.8969 180.037,246.1009 180.707,249.8209 C192.720294,249.8209 224.610079,248.1089 234.42,247.660795 L234.42,237.7849 Z M326.512,213.8009 C316.533,218.2659 306.181,218.8089 296.681,214.7379 C297.09,222.2019 297.461,241.801009 297.856,248.984009 C307.048,248.508009 315.518,248.070009 324.783,247.591009 C325.371,239.664009 325.912,221.8999 326.512,213.8009 Z M395.814706,171.556635 C393.838706,172.967635 392.317706,173.234635 390.418706,174.116635 C389.123706,174.717635 387.653706,174.948635 386.252706,175.316635 C380.250706,176.891635 375.549706,176.016635 369.722706,174.519635 C368.500706,174.204635 366.469706,172.362635 366.469706,172.362635 C364.615706,172.596635 361.643706,175.362635 360.106706,176.810635 C356.558706,180.153635 354.278706,184.198635 353.321706,188.967635 C351.782706,196.642635 353.406706,203.806635 357.297706,210.427635 C360.790706,216.369635 364.519706,222.180635 368.313706,227.937635 C371.395706,232.615635 373.438706,237.500635 372.967706,243.243635 C372.843706,244.757635 372.895706,245.694635 372.407706,247.883635 L399.535706,247.883635 C399.188706,246.620635 398.765706,246.043635 398.647706,245.730635 C393.828706,232.927635 396.164706,221.193635 403.657706,210.069635 C407.023706,205.073635 409.603706,199.558635 410.358706,193.542635 C410.774706,190.223635 410.559706,186.632635 409.731706,183.393635 C408.406706,178.216635 403.791706,176.004635 399.539706,173.431635 C398.281706,172.670635 395.814706,171.556635 395.814706,171.556635 Z M258.446,153.1579 C252.231,153.7879 246.756,154.3429 241.218,154.9039 C240.498,185.4459 239.508082,217.2174 238.787082,247.8524 C238.787082,247.8524 254.392205,247.0604 254.392205,247.051617 C256.908205,216.727617 257.565,183.5349 258.446,153.1579 Z M301.133,211.8839 C308.571,213.7509 317.698,212.8419 322.062,209.9299 C314.954,208.0489 308.372,208.1649 301.133,211.8839 Z M164.774,105.4089 C159.757,105.7409 159.704,105.7359 159.332,109.4659 C156.416,138.6999 153.518,167.9379 150.622,197.1749 C150.251,200.9139 149.924,204.6579 149.457,209.6859 C149.457,209.6859 152.495,210.1119 152.561,209.6859 C157.821,175.7069 160.132,139.6029 164.774,105.4089 Z M169.146,104.5749 C165.111,139.1379 161.159,174.4519 157.116,209.0839 C183.647,206.5399 209.259,203.3589 235.473,201.4679 C235.985,192.5409 236.974,183.4449 236.349,174.1299 C234.269,174.1299 232.819,174.1679 231.37,174.1239 C222.935,173.8659 217.852,169.7589 215.82,161.5839 C212.697,149.0279 222.45,135.5709 235.33,134.6639 C243.311,134.1019 249.418,138.1079 252.103,145.6519 C252.46,146.6559 252.937,148.0879 253.354,149.1519 C254.755,149.1519 255.958,148.8089 257.198,148.6869 C262.774,148.1359 262.844,148.1139 262.695,153.9359 C262.342,167.7429 261.904,181.5479 261.533,195.3549 C261.501,196.5319 261.709,197.7159 261.823,199.1179 C278.68,198.4919 295.138,197.9459 311.761,194.6599 C315.572,158.8729 322.306,123.7609 324.118,88.0559 C310.89,87.1439 193.515,99.6709 169.146,104.5749 Z M327.476,160.9699 L320.217,160.9699 C318.874,172.0169 317.482,182.8039 316.285,193.6129 C315.759,198.3689 315.951,198.4559 311.045,199.3019 C306.253,200.1279 301.434,200.7969 296.141,201.6089 C296.362,204.1249 296.556,206.3269 296.797,209.0669 C306.722,203.4129 316.475,203.3719 327.056,206.6459 C328.246,191.0839 328.884,176.1229 327.476,160.9699 Z M233.172,139.4109 C226.463,141.1609 222.27,145.6019 220.321,152.1959 C216.899,163.7759 224.209,171.6169 236.347,169.0359 C236.43,168.2589 236.607,167.3899 236.601,166.5219 C236.577,163.2599 236.472,159.9989 236.439,156.7369 C236.393,152.2629 237.12,151.3079 241.403,150.4929 C243.525,150.0889 245.687,149.8929 248.217,149.5499 C246.668,141.3139 240.776,137.4269 233.172,139.4109 Z M368.737706,160.554635 C369.247706,162.679635 370.399706,166.135635 370.399706,166.135635 L370.975223,165.985838 C372.423581,165.608385 374.560331,165.05101 376.335706,164.640635 L376.320306,164.608769 C376.203488,164.368827 375.436466,162.824515 374.513706,161.707635 C374.048706,161.144635 370.167706,160.728635 368.737706,160.554635 Z M375.917706,141.243635 C375.470706,141.338635 373.574706,143.326635 373.127706,143.421635 C373.385706,144.840635 374.920706,149.177635 375.178706,150.596635 C375.917706,151.000635 377.193706,152.259635 377.193706,152.259635 C376.888706,150.789635 376.222706,142.713635 375.917706,141.243635 Z M351.258706,135.584635 C350.660706,136.540635 350.431706,138.604635 351.030706,139.261635 C352.655706,141.045635 354.611706,140.263635 356.175706,138.756635 C356.467706,138.475635 356.671706,138.104635 356.901706,137.660635 C357.215706,137.052635 357.153706,136.311635 356.731706,135.772635 C356.533706,135.520635 356.364706,135.313635 356.174706,135.126635 C354.361706,133.335635 352.498706,133.598635 351.258706,135.584635 Z M370.928706,116.528635 C370.988706,117.916635 371.506706,118.901635 372.761706,119.404635 C374.054706,119.921635 375.547706,119.502635 376.438706,118.431635 C376.915706,117.855635 376.554706,115.976635 376.405706,115.614635 C375.825706,114.213635 375.114706,113.949635 373.699706,113.544635 C371.850706,113.014635 370.849706,114.664635 370.928706,116.528635 Z M409.905706,91.0646349 C407.552706,91.4006349 406.498706,93.0096349 406.530706,95.2046349 C406.555706,97.0556349 408.832706,99.0856349 410.485706,98.5316349 C411.325706,98.2486349 412.030706,97.5606349 412.595706,96.9636349 C413.163706,96.3636349 413.405706,95.5256349 413.235706,94.7166349 C412.769706,92.4946349 411.229706,90.8756349 409.905706,91.0646349 Z" id="Stroke" fill="#267966"/></g></g><g id="Hanging Lamp" transform="translate(807.000000, 17.000000) scale(1 1)" fill="#267966"><g id="Hanging Lamp/Decorated" stroke="none" stroke-width="1" fill="none" fill-rule="evenodd"><path d="M351.075892,289.947825 C350.722614,283.746581 349.918259,279.477855 347.4034,277.204598 C346.434381,276.327271 344.845628,276.399216 344.058238,277.444414 C341.731993,280.535044 348.029121,286.411537 351.075892,289.947825 M259.854372,238.163539 C261.325365,231.370748 262.223529,221.96696 259.760564,215.489927 C257.207782,220.947742 257.35049,230.505412 259.854372,238.163539 M239.74049,232.305032 C237.34838,240.739563 236.726651,248.811373 237.406261,257.451747 C240.992929,251.807076 242.217426,238.803048 239.74049,232.305032 M299.583156,213.604373 C290.638441,213.924128 284.114778,218.47264 278.97229,225.431303 C287.132608,223.743597 295.632233,222.647438 299.583156,213.604373 M325.815531,299.312644 C331.549808,301.792742 340.533444,301.974602 345.611064,299.125787 C339.081412,296.984429 333.008826,293.394182 326.222698,294.784117 C323.967309,295.245762 323.701852,298.399344 325.815531,299.312644 M327.226646,274.113968 C322.69491,268.431326 318.866736,265.298729 314.162353,263.652991 C312.006759,262.89857 309.634609,262.554833 307.342295,262.464902 C305.303463,262.383964 303.169824,263.195342 302.789601,265.47959 C302.402393,267.8138 304.620858,268.441319 306.276473,268.881981 C312.836064,270.627642 319.444555,272.189444 327.226646,274.113968 M192.300469,241.191217 C184.891615,241.686837 177.741232,250.88878 176.043702,261.611557 C184.590231,257.474729 191.834422,248.544578 192.300469,241.191217 M208.785769,260.116703 C215.571896,257.72154 222.033687,247.699226 221.023751,241.376075 C220.994811,241.197212 220.984831,241.015352 220.939923,240.841485 C220.470882,239.037868 219.205468,238.407352 217.685575,239.262696 C216.307393,240.0391 215.016033,241.157243 214.016077,242.392296 C209.849594,247.536351 208.380597,253.510769 208.785769,260.116703 M233.968289,270.816497 C238.550921,282.700384 249.984548,290.532377 258.91629,288.429989 C259.756572,285.863957 258.024113,284.30915 256.478273,282.865257 C250.173163,276.973775 242.61661,273.478456 233.968289,270.816497 M290.647423,250.290239 C283.054944,245.400988 267.374,247.636274 257.897372,254.715845 C267.861004,259.117469 284.427139,257.023075 290.647423,250.290239 M190.944241,266.125095 C196.808254,276.700984 211.601014,288.255124 219.589683,288.498937 C218.57875,279.621745 202.37188,266.963452 190.944241,266.125095 M325.937282,265.078897 C324.125985,257.389794 322.658983,249.605764 320.548298,242.000596 C319.823779,239.3876 318.287919,236.787594 316.48261,234.728173 C314.11944,232.03324 311.090632,232.657761 310.023813,236.082135 C309.411066,238.049626 309.34021,240.381838 309.710454,242.427269 C311.535722,252.519529 319.313822,258.413009 325.937282,265.078897 M154.858011,329.858218 C154.792145,330.385814 154.72628,330.913409 154.660415,331.441004 C156.651345,332.17644 158.588385,333.176673 160.643184,333.594353 C165.073128,334.494663 169.538999,335.352005 174.032813,335.773682 C194.440095,337.690212 214.878314,337.790135 235.374415,337.278528 C262.570819,336.601047 289.686388,335.033249 316.61434,331.256146 C329.128758,329.500493 341.47452,326.493798 353.853215,323.851824 C356.374061,323.314237 358.700306,321.869345 361.116367,320.842133 C361.081438,320.432447 361.048506,320.022761 361.014575,319.613075 C358.513687,318.834672 356.058706,317.823448 353.503929,317.317835 C339.944647,314.630896 326.195753,314.016367 312.418917,313.820517 C278.323616,313.332891 244.281207,314.403071 210.427413,318.587861 C195.358218,320.449434 180.421752,323.443138 165.474308,326.195027 C161.834749,326.865513 158.391787,328.608177 154.858011,329.858218 M155.434832,324.624232 C161.720981,322.882568 167.178824,320.812156 172.822287,319.914844 C188.926366,317.355806 205.060384,314.84773 221.267254,313.108064 C244.171432,310.649949 267.1784,309.482844 290.232272,309.437879 C309.280333,309.400907 328.328394,309.251022 347.261689,311.832042 C351.134772,312.360637 354.974922,313.122053 359.555558,313.899457 C358.275175,309.924505 357.204364,306.601054 356.097627,303.165689 C354.619648,303.39851 353.745435,303.600355 352.86224,303.666305 C345.46636,304.21988 338.075468,304.982296 330.669608,305.165155 C327.884302,305.233103 324.959281,304.213885 322.290736,303.188671 C319.498444,302.116493 317.185173,300.169986 317.399735,296.714636 C317.614296,293.25329 320.089237,291.488644 323.072139,291.007013 C326.408319,290.468426 329.874234,290.453438 333.262308,290.622308 C335.546638,290.735222 337.797038,291.561588 340.735032,292.219084 C337.92278,288.066268 335.645436,284.382094 333.003836,280.980702 C332.139603,279.869554 331.095737,279.204065 331.095737,279.204065 C323.88847,277.405444 314.472718,275.458937 307.260462,273.683299 C305.346375,273.21166 303.394365,272.553165 301.711805,271.552932 C297.566279,269.089821 296.866709,264.242539 300.416453,261.018012 C302.04213,259.542144 304.374362,259.031535 306.500016,258.869659 C307.621723,258.784724 308.75341,258.802711 309.873121,258.915624 C310.324199,258.961589 313.259199,258.923618 313.32207,259.029537 C311.815151,256.448516 309.129641,253.113074 308.170601,251.202539 C305.681689,246.24634 303.975178,241.102285 305.56393,235.483594 C307.573821,228.378043 314.749153,226.501482 319.91659,231.788428 C321.278805,233.182359 322.415481,234.950003 323.168941,236.750622 C324.353519,239.580452 325.470237,242.522196 326.007139,245.524893 C327.610861,254.499011 330.328305,263.109408 333.357114,271.68683 C335.457819,277.636267 339.448661,282.14381 343.446489,288.29909 C340.381754,281.173554 336.493702,271.202201 347.314581,273.592368 C346.912403,272.28637 344.601128,267.086358 344.201944,265.885279 C337.753127,246.423204 331.245431,226.981115 324.867469,207.495058 C321.595158,197.499724 318.342807,187.488402 315.478662,177.37116 C313.426856,170.125717 313.720256,170.041781 306.217594,170.164687 C305.673706,170.17368 305.129817,170.198661 304.585929,170.218646 C284.330337,170.933098 264.072748,171.600586 243.82015,172.378989 C227.514483,173.005508 211.212807,173.761928 194.911132,174.487372 C194.422132,174.509355 193.946105,174.830109 193.300425,175.074921 C188.169913,200.520407 177.846017,231.5636 172.736463,257.031069 C173.928027,251.401387 177.092558,246.553105 178.679314,244.888382 C181.154255,242.293372 183.757932,239.703358 186.712891,237.715882 C189.737708,235.678445 193.300425,236.133096 195.292353,238.106582 C197.741346,240.530723 197.549738,243.516434 196.122655,246.167401 C193.991013,250.131361 191.342427,255.598168 187.504274,258.12523 C186.576171,258.736761 185.513344,259.204403 184.824751,260.076734 C186.438452,260.349524 203.903749,261.481656 203.899757,261.524623 C204.1233,259.164433 204.271996,257.018079 204.537453,254.886714 C205.442603,247.630279 207.91954,241.131263 213.875364,236.460845 C217.103765,233.927787 220.262308,233.779901 222.848022,235.819337 C225.256099,237.719879 225.723145,240.35286 225.427748,243.172697 C224.761111,249.543811 221.966823,254.950665 217.7225,259.657055 C216.68063,260.81217 214.92422,262.812635 211.946308,263.416173 C218.850195,264.605261 227.780938,265.076899 233.968289,265.530551 C232.869536,256.764274 232.401492,246.731968 233.962302,238.324415 C234.717757,234.253537 235.804536,230.159677 237.408257,226.358592 C238.74752,223.182028 242.008853,223.406856 243.544713,226.554442 C244.244283,227.987343 244.709332,229.657062 244.795157,231.245844 C245.040655,235.766377 245.347028,240.320884 245.044647,244.822432 C244.722306,249.618754 243.314184,257.031069 239.995967,262.458907 C244.721308,259.143449 250.380738,251.735131 253.757835,247.788158 C254.67995,246.710984 257.202792,244.76048 257.496193,243.591376 C257.496193,243.591376 255.228828,238.491287 254.915468,236.974451 C254.216896,233.601038 254.294737,233.425173 253.875594,230.005795 C253.229914,224.74383 253.210953,219.481866 254.849603,214.358795 C255.533205,212.222433 256.560106,210.131037 259.130851,209.995141 C261.974039,209.845256 263.386152,211.971625 264.047799,214.290847 C264.78629,216.877863 265.337164,219.610767 265.369098,222.287714 C265.417,226.3476 264.13562,232.369982 263.823258,237.44509 C265.52977,235.126868 267.507726,231.620557 268.638415,230.041767 C272.997504,223.953437 277.882518,218.378712 284.094818,214.089002 C288.198429,211.255175 292.738149,209.519506 297.63913,208.736107 C299.911485,208.372386 301.998219,208.817045 303.47021,210.79153 C304.980124,212.818976 304.579942,214.958335 303.507135,216.956802 C302.743695,218.376713 301.860501,219.860575 300.663947,220.891785 C298.621123,222.652434 296.492474,224.607935 294.041485,225.538221 C288.995799,227.454751 283.705614,228.716784 278.535184,230.31156 C277.158997,230.736235 273.279927,231.149918 273.279927,231.149918 C273.279927,231.149918 270.487635,234.222561 269.807026,235.28075 C267.071618,239.532489 263.661589,242.381304 260.283495,247.382469 C262.919107,246.731968 267.076608,245.338037 268.803078,245.091226 C273.626219,244.401755 278.456345,243.532421 283.30643,243.358555 C285.910107,243.265626 288.739324,244.063015 291.149397,245.156176 C295.903678,247.314521 296.55834,251.88002 292.498639,255.086561 C290.147445,256.944136 287.2344,258.368044 284.3483,259.215394 C274.741938,262.036231 266.907953,262.258061 257.273647,259.229383 C255.929395,258.805708 253.577204,257.280878 252.676046,257.031069 C248.432721,260.505405 243.72235,264.711179 240.344255,267.477058 C246.076537,270.984369 252.080264,274.342793 257.701772,278.251795 C259.970135,279.829585 261.901188,282.373634 263.102731,284.898698 C265.174496,289.25136 262.787376,293.047448 257.974215,293.363206 C255.504265,293.525082 252.847695,293.260285 250.504485,292.488877 C241.438019,289.502167 235.012156,283.34389 230.610154,274.966315 C229.616186,273.075765 228.664133,271.164231 227.875744,269.622413 C220.888029,268.83102 210.943358,266.950462 203.651265,266.125095 C205.16517,267.337166 209.618067,269.205733 210.523217,269.988133 C213.397342,272.477224 216.476048,274.781457 219.036813,277.561325 C220.964872,279.655718 222.444846,282.26172 223.699282,284.845738 C224.73217,286.971108 225.145326,289.465196 223.373947,291.542602 C221.445888,293.804867 218.792313,293.730924 216.339327,292.886572 C213.618889,291.951289 210.904438,290.784184 208.469416,289.26435 C199.74026,283.812531 192.587881,276.65502 186.64004,268.271449 C185.827701,267.126327 185.015362,265.982205 184.168094,264.790119 C175.338144,266.484819 169.002097,271.08629 166.680842,279.5488 C162.65607,294.225545 159.275979,309.078154 155.434832,324.624232 M250.043428,157.455434 C249.567401,130.224317 249.019521,31.0493746 248.493596,3.81925737 C248.478627,3.09880988 248.230135,2.26544898 248.508566,1.68489421 C248.847872,0.975438291 249.59235,0.0601402325 250.230046,0 C250.875726,-0.0547716416 251.999429,0.689657456 252.216985,1.32417085 C252.67904,2.66514246 252.814763,4.15799759 252.859671,5.59589486 C253.255861,18.1172922 253.76482,102.584514 253.924494,115.109909 C254.141051,131.991962 254.076184,148.878012 254.146041,165.762063 C254.148037,166.107798 254.329666,166.453533 254.529258,167.158992 C255.397483,167.275903 256.415402,167.561683 257.421346,167.527709 C273.549376,166.989122 289.67541,166.397576 305.80344,165.852994 C307.975999,165.78005 310.18648,165.671133 312.321117,165.979896 C315.321982,166.414563 317.595335,167.725558 318.583315,171.100969 C323.016253,186.236362 327.41526,201.389741 332.269338,216.393234 C343.159076,250.052421 354.31028,283.626673 365.359693,317.234899 C366.661032,321.194862 366.166044,323.328226 362.123309,325.158822 C357.374017,327.309173 352.364258,329.075818 347.29562,330.29888 C330.342277,334.390742 313.031664,336.269302 295.716062,338.053933 C270.261098,340.676921 244.71532,341.992912 219.153574,342 C199.963803,342.004903 180.687209,341.823042 161.716989,338.054932 C159.069402,337.529335 156.40884,336.800894 153.925916,335.756695 C150.328271,334.243855 149.567825,332.86791 150.20153,328.956909 C150.838228,325.026923 151.769325,321.134908 152.758303,317.274868 C163.604131,274.917352 174.510835,232.575824 185.324729,190.211313 C186.440448,185.841664 187.181933,181.364098 187.894476,176.905518 C188.739748,171.606581 190.316525,170.210652 195.671578,170.019798 C213.418299,169.388283 231.161028,168.678827 249.579377,167.973368 C249.768989,163.92747 250.100312,160.687955 250.043428,157.455434 Z" id="Stroke" fill="#267966"/></g></g></g></svg>