<svg viewBox="225 94.25 1282.5000000000002 987.3809523809526" xmlns="http://www.w3.org/2000/svg" overflow="visible" xmlns:xlink="http://www.w3.org/1999/xlink" width="1282.5000000000002px" height="987.3809523809526px"><g id="Master/Places/Abstract 1" stroke="none" stroke-width="1" fill="none" fill-rule="evenodd"><ellipse id="Oval" fill="#ffffff" opacity=".5" cx="923" cy="1042" rx="579" ry="35"/><g id="Background" opacity=".5" transform="translate(232.000000, 55.000000) scale(1 1)"><g id="Background/Blob 3" stroke="none" stroke-width="1" fill="none" fill-rule="evenodd"><path d="M584.044089,49.6677994 C632.42348,49.5025232 680.262849,54.037897 726.643916,68.6818557 C740.727053,73.128515 754.762757,78.052774 768.201274,84.1254596 C782.657805,90.6587312 795.794688,99.7501382 808.509527,109.283902 C825.22588,121.815728 840.110536,136.270105 852.86308,152.808664 C865.451427,169.134551 874.530849,187.065806 877.404884,207.826199 C879.230498,221.01913 878.325597,233.862064 873.726897,246.331912 C865.15101,269.586032 853.557567,290.972288 834.909785,307.93619 C820.196622,321.319918 805.603869,334.837325 790.945438,348.2806 C774.303278,363.54313 758.428581,379.525096 744.836814,397.622842 C734.140976,411.864548 725.226966,427.034717 721.208425,444.624481 C720.325417,448.490243 719.525114,452.417983 719.202804,456.359092 C717.751799,474.094688 726.220655,487.060364 740.184599,496.510275 C751.40708,504.104474 764.462474,507.356526 777.949641,507.16573 C806.007669,506.768337 834.066913,506.017303 862.10913,504.967313 C900.983406,503.512639 939.837006,501.396861 978.763582,502.275498 C1027.69273,503.37896 1076.29348,507.35045 1123.88959,519.535925 C1149.22683,526.023016 1173.71026,534.793593 1196.34861,548.157877 C1206.28793,554.026397 1215.76872,560.583974 1223.59174,569.095699 C1228.19044,574.100166 1232.48507,579.574941 1235.90642,585.427663 C1242.51318,596.733285 1243.23442,608.838553 1238.66978,621.177151 C1234.14041,633.418529 1226.66402,643.743431 1217.74758,653.102197 C1203.3543,668.210387 1185.98603,679.027472 1167.24459,687.830861 C1144.17204,698.669821 1120.02917,706.634676 1095.39857,712.841041 C1055.1487,722.982438 1014.72369,732.438425 974.305969,741.90535 C908.514522,757.314926 842.64645,772.397596 776.856219,787.815679 C731.248697,798.502731 685.431977,808.093613 639.035099,814.668203 C603.314599,819.729787 567.397063,822.437401 531.299521,821.409285 C500.55233,820.534294 470.701527,815.174969 442.599714,801.988115 C429.670812,795.92029 417.896146,788.214287 408.039531,777.827406 C373.395426,741.325668 395.903634,697.144662 418.482386,661.531284 C422.739315,654.819368 427.543564,648.429498 431.442911,641.524355 C434.124776,636.775094 436.318919,631.545803 437.603295,626.255749 C440.24624,615.370609 436.162021,607.169992 426.188644,602.104762 C418.588201,598.245077 410.379626,596.606898 401.894958,596.209505 C381.895905,595.277396 362.103617,597.513486 342.539987,601.121612 C301.702658,608.656263 260.951684,616.668513 220.21044,624.70993 C188.298067,631.00744 156.187443,632.245797 123.863972,629.289054 C120.798983,629.008327 117.662235,628.557463 114.762658,627.581605 C85.8678393,617.864335 59.8117845,603.495027 38.5855197,581.147495 C19.874492,561.448029 9.50704523,537.655545 3.94627956,511.479925 C-1.76773555,484.586082 -1.36271915,457.591372 2.22283141,430.439893 C7.13167879,393.261251 18.0184709,358.082938 35.7710815,325.017973 C46.1798812,305.63083 58.3924027,287.540376 74.2695319,272.20007 C100.009358,247.32843 125.148348,221.750721 152.024166,198.158756 C196.405693,159.19975 247.391541,130.51582 301.585897,107.443989 C355.692682,84.4110472 411.936445,68.7644938 469.927982,59.1809039 C502.024011,53.8762665 534.281804,50.3920981 566.818121,49.6860284 C572.557678,49.560856 578.302099,49.6677994 584.044089,49.6677994" id="Fill-1" fill="#ffffff"/></g></g><g id="Decoration" transform="translate(232.000000, 227.000000) scale(1 1)"><g id="Decoration/Scribbles" stroke="none" stroke-width="1" fill="none" fill-rule="evenodd"><path d="M868.673,577.7326 C865.821,574.6136 865.834,574.6476 862.135,575.9506 C861.127,576.3046 860.024,576.3956 858.96,576.5836 C856.207,577.0696 853.451,576.6306 850.606,577.6746 C847.736,578.7286 844.264,578.7696 841.174,578.3596 C839.248,578.1046 837.862,578.3506 836.12,578.9616 C829.944,581.1286 825.07,586.4206 818.011,586.4676 C817.385,586.4716 816.778,587.1896 816.138,587.5266 C812.427,589.4796 808.363,590.8686 805.513,594.1916 C800.456,594.2776 797.504,598.5416 793.308,600.3516 C789.042,602.1926 785.85,605.2216 783.534,609.2936 C782.862,610.4756 781.614,611.6936 780.365,612.1216 C775.428,613.8086 772.862,617.8646 770.117,621.7716 C768.89,623.5176 767.478,625.2436 766.748,627.2016 C765.769,629.8316 765.433,632.6936 764.705,635.4256 C763.618,639.5126 766.958,643.3366 771.223,642.7806 C774.392,642.3686 777.544,641.7816 780.724,641.5226 C784.263,641.2346 788.027,642.0556 790.671,638.5716 C791.026,638.1046 792.337,638.3706 793.203,638.2816 C794.078,638.1916 795.482,638.3886 795.741,637.9366 C797.999,634.0046 801.922,634.8556 805.382,634.2596 C807.441,633.9056 810.887,633.5946 811.173,632.5626 C811.856,630.0926 813.353,630.8936 814.735,630.4076 C818.099,629.2216 821.625,628.1076 824.545,626.1566 C827.216,624.3716 830.044,622.1526 832.922,621.4296 C833.924,621.1776 835.118,620.7696 835.725,620.0266 C837.792,617.4906 840.208,615.9116 843.586,615.9656 C844.248,615.9766 845.316,615.7236 845.521,615.2806 C847.165,611.7146 851.124,611.5316 853.821,609.5246 C856.148,607.7946 859.637,607.3636 861.489,605.3336 C863.666,602.9496 866,601.5866 868.884,600.5406 C870.315,600.0206 872.287,598.8826 872.554,597.6956 C873.179,594.9196 875.571,594.8546 877.236,593.8346 C880.52,591.8216 884.085,590.2706 887.389,588.2876 C888.77,587.4596 889.782,586.0166 890.963,584.8546 C887.031,584.1126 885.17,579.8396 881.284,580.9596 C880.957,581.0526 880.242,580.5086 880.002,580.0916 C877.226,575.2816 873.179,576.6366 868.673,577.7326 M903.006,449.4846 C904.851,447.9696 906.443,446.8086 907.849,445.4556 C908.705,444.6306 909.915,443.4786 909.869,442.5276 C909.629,437.5806 910.986,433.0776 912.808,428.5836 C913.707,426.3636 912.281,423.8636 910.469,423.7986 C905.857,423.6346 900.66,420.6336 896.672,425.7046 C896.253,426.2366 895.065,426.3046 894.224,426.3366 C892.234,426.4116 890.113,426.7526 888.277,426.2096 C886.097,425.5636 884.767,429.1456 882.599,426.9986 C880.332,428.9436 877.41,427.4676 874.998,428.4176 C869.418,430.6136 864.242,433.8126 858.252,435.0136 C857.285,435.2086 856.135,435.8976 855.623,436.7086 C852.653,441.4046 847.692,442.9976 843.095,445.2956 C839.448,447.1196 835.916,449.2866 832.657,451.7316 C829.969,453.7496 829.607,458.3946 825.151,458.5756 C824.987,463.2406 818.807,463.2466 818.194,467.5626 C812.438,470.3186 811.586,475.4616 811.89,480.4716 C811.027,482.1736 809.04,480.7666 808.674,483.2686 C808.263,486.0836 804.48,488.3266 807.25,491.8066 C807.287,491.8536 807.049,492.0886 806.983,492.2526 C805.018,497.0986 806.119,502.0576 806.534,506.9716 C806.616,507.9516 807.225,509.0646 807.93,509.7826 C811.221,513.1306 814.617,516.3766 818.016,519.6186 C818.369,519.9566 818.995,520.2336 819.465,520.1936 C825.996,519.6326 832.61,522.7516 839.085,519.7466 C840.683,519.0046 842.374,518.4536 843.935,517.6446 C846.612,516.2546 848.964,514.4306 852.444,515.0466 C854.759,515.4586 857.326,515.3406 858.634,512.0806 C859.403,510.1606 861.544,508.6676 863.311,507.2946 C867.408,504.1086 871.833,501.3236 875.78,497.9686 C878.657,495.5236 881.063,492.4966 883.527,489.5996 C885.218,487.6126 886.741,485.4646 888.175,483.2816 C890.433,479.8416 892.65,476.3686 894.695,472.8006 C896.008,470.5106 896.404,467.3486 898.241,465.7896 C901.053,463.3996 901.439,460.8776 900.531,457.9506 C906.738,454.2566 906.277,453.2676 903.006,449.4846 M976.689,425.0606 C979.375,428.3646 982.101,432.2816 985.428,435.5926 C987.415,437.5716 990.039,438.7426 989.776,442.1846 C989.715,442.9636 990.324,444.0076 990.944,444.5896 C994.995,448.3996 995.461,453.7666 997.281,458.5676 C1000.015,465.7796 998.577,473.1976 998.755,480.5366 C998.767,481.0406 998.593,481.6976 998.257,482.0356 C996.119,484.1796 996.875,486.5216 997.323,487.8636 C996.001,490.5116 994.938,492.4006 994.095,494.3816 C992.209,498.8176 990.445,503.3026 988.597,507.7536 C988.411,508.2016 988.048,508.8016 987.657,508.9026 C983.293,510.0306 983.937,513.0776 984.948,516.3836 C982.04,518.0896 981.08,522.1996 976.998,522.3546 C976.174,524.7726 975.336,527.1856 974.537,529.6116 C974.374,530.1056 974.36,530.6466 974.248,531.3446 C971.7,532.9766 968.368,533.2896 966.855,536.9296 C965.72,539.6576 961.241,540.1146 960.475,543.8126 C960.354,544.3966 959.544,544.8676 959.002,545.3306 C955.621,548.2146 952.441,551.1116 950.085,555.1146 C948.503,557.8046 945.375,560.0056 942.443,561.3216 C940.746,562.0826 940.089,562.2676 939.686,564.2096 C939.11,566.9796 938.214,567.2046 935.112,567.5186 C927.166,574.5896 919.918,581.0396 912.152,587.9496 C912.99,593.9406 913.927,600.2646 914.739,606.6056 C915.167,609.9476 915.288,613.3286 915.721,616.6696 C915.986,618.7136 913.746,619.3876 913.672,621.7046 C913.583,624.4816 914.104,628.1556 911.142,630.4086 C910.905,630.5876 910.816,631.0786 910.811,631.4266 C910.7,638.3536 906.819,643.8486 903.905,649.7126 C903.609,650.3106 903.526,651.3426 903.1,651.4976 C898.146,653.2866 896.843,657.9996 894.437,661.8796 C893.575,663.2716 891.695,664.0326 890.838,665.4246 C888.491,669.2336 885.713,672.6966 882.576,675.8126 C879.67,678.7016 876.261,681.0796 873.251,683.8726 C870.244,686.6626 867.512,689.7466 864.543,692.5796 C863.606,693.4726 862.303,693.9926 861.146,694.6446 C860.532,694.9906 859.571,695.0806 859.282,695.5836 C856.372,700.6416 850.823,702.7496 846.946,706.7196 C845.784,707.9106 844.763,709.8326 842.398,708.7016 C842.007,708.5136 841.07,709.0936 840.585,709.5366 C835.587,714.0956 830.332,717.8166 823.632,720.0396 C818.148,721.8586 813.519,726.1696 808.382,729.1576 C805.159,731.0306 801.672,732.4426 798.358,734.1676 C796.63,735.0666 795.031,736.2096 793.358,737.2126 C789.985,739.2326 787.095,741.9226 782.534,741.7536 C780.067,741.6636 777.367,743.3576 775.05,744.7186 C771.718,746.6766 768.136,747.8166 764.534,749.0686 C760.831,750.3576 756.905,751.6016 753.787,753.8496 C748.549,757.6276 741.99,757.6806 736.606,760.8226 C736.057,761.1426 735.028,760.5386 734.229,760.5616 C733.329,760.5866 732.422,760.7856 731.549,761.0226 C731.266,761.0996 731.057,761.7906 730.854,761.7716 C722.433,760.9776 714.326,763.5676 706.027,764.027943 C705.784,764.0416 705.517,763.6246 705,763.1876 C705.909,760.5696 708.409,759.8596 710.587,758.8086 C713.265,757.5186 716.243,756.8606 718.275,754.3046 C718.909,753.5056 720.551,753.5556 721.681,753.0906 C724.8,751.8096 728.255,750.9616 730.914,749.0296 C735.594,745.6286 740.334,742.8146 746.203,742.2166 C748.562,741.9776 751.938,739.6386 753.469,737.5066 C756.774,738.9056 759.342,738.0276 762.4,735.9866 C767.867,732.3366 773.668,728.7446 779.855,726.7806 C783.402,725.6546 786.896,724.7366 789.998,722.6966 C791.675,721.5946 793.009,719.9236 794.754,718.9866 C797.11,717.7226 799.01,716.1246 802.364,716.0216 C805.788,715.9176 809.849,713.0426 812.225,710.2046 C813.93,708.1686 816.179,709.3426 817.104,708.0026 C818.886,705.4226 821.725,704.7036 823.984,703.0296 C825.448,701.9436 826.764,701.2186 828.543,700.6876 C830.702,700.0436 832.682,698.4606 834.465,696.9586 C838.027,693.9576 841.306,690.6196 844.894,687.6536 C846.642,686.2086 848.944,685.4506 850.78,684.0896 C853.937,681.7526 857.139,679.4056 859.923,676.6586 C863.134,673.4906 865.766,669.7396 868.935,666.5246 C870.883,664.5466 873.392,663.1306 875.605,661.4066 C879.818,658.1246 884.321,655.1496 886.046,649.5716 C886.396,648.4396 888.152,647.8126 889.021,646.7556 C891.159,644.1536 892.582,638.5146 892.898,635.1226 C893.036,633.6346 894.646,632.2856 896.164,630.0076 C896.222,629.7286 893.092,628.2656 896.348,626.8406 C899,625.6786 900.758,620.5646 900.301,617.6666 C900.085,616.2906 899.719,614.6536 900.234,613.4976 C902.543,608.3166 900.083,603.3226 899.941,598.2546 C899.929,597.8366 899.318,597.4366 898.806,596.8076 C896.005,598.7316 892.886,600.2456 890.593,602.5736 C885.195,608.0566 878.244,610.9396 871.848,614.7806 C869.242,616.3446 866.438,618.0696 864.685,620.4336 C862.511,623.3656 858.092,622.9586 856.695,626.5756 C851.372,626.8586 847.652,630.6106 843.231,632.8336 C838.627,635.1466 833.79,636.9476 829.628,640.2116 C827.188,642.1266 824.091,643.7566 821.083,644.2456 C817.732,644.7906 815.196,646.7366 812.235,647.6866 C806.152,649.6386 800.225,652.4976 793.592,652.3496 C793.061,652.3376 792.486,652.4446 791.997,652.6496 C781.969,656.8656 781.971,656.8706 771.317,656.0156 C766.056,658.6276 761.996,652.6686 756.842,653.9366 C756.194,654.0956 755.142,652.7746 754.334,652.0736 C753.344,651.2126 752.409,650.2896 751.461,649.3816 C751.086,649.0236 750.402,648.6096 750.43,648.2666 C750.836,643.2406 747.751,638.3076 750.027,633.2406 C750.246,632.7496 750.531,632.1896 750.483,631.6916 C750.167,628.4866 751.145,625.8266 752.973,623.1266 C755.919,618.7726 758.366,614.0826 761.038,609.5416 C762.355,607.3046 765.657,606.5946 765.759,603.4186 C770.668,603.6096 770.57,596.8796 775.153,596.6216 C776.522,591.9216 781.644,591.4136 784.566,588.3306 C786.696,586.0816 790.297,585.2846 793.085,583.5816 C795.48,582.1186 797.65,580.2906 800.592,578.1296 C801.007,578.1836 802.392,578.3656 803.776,578.5466 C803.663,578.2716 803.551,577.9966 803.439,577.7216 C805.569,576.3196 807.543,574.5036 809.87,573.6186 C812.898,572.4666 815.832,571.2426 818.768,569.8586 C821.769,568.4436 825.409,568.4416 828.714,567.6026 C832.601,566.6166 836.382,565.1866 840.292,564.3296 C845.16,563.2606 849.956,562.0016 855.153,562.4566 C857.286,562.6436 859.807,561.6706 862.231,561.9196 C863.288,562.0286 864.366,562.0096 865.408,562.1966 C872.239,563.4196 879.239,563.0446 886.07,564.8686 C888.552,565.5316 889.13,566.6286 889.799,568.4806 C895.391,566.1706 897.287,573.5036 904.475,572.1626 C907.687,570.6016 912.768,567.5486 916.845,563.0136 C917.081,562.7506 917.412,562.5576 917.726,562.3786 C920.345,560.8766 923.484,559.8646 925.449,557.7556 C927.388,555.6776 928.753,553.2196 931.598,552.0326 C932.632,551.5996 933.437,550.3556 934.087,549.3186 C935.415,547.2026 936.746,545.6416 939.39,544.5596 C942.065,543.4656 944.029,540.4716 946.106,538.1326 C947.843,536.1756 949.302,533.9706 950.852,531.8516 C951.046,531.5866 951.03,530.8826 951.132,530.8786 C955.304,530.7096 955.248,526.0356 958.117,524.2646 C959.619,523.3366 959.944,520.5016 960.986,518.0976 C964.111,519.1286 965.239,516.2626 966.702,513.8216 C967.709,512.1406 968.884,510.5536 969.801,508.8286 C970.434,507.6356 970.71,506.2606 971.226,505.0006 C971.609,504.0626 971.92,502.9736 972.606,502.3026 C976.212,498.7746 979.805,495.4306 978.807,489.5146 C978.564,488.0766 979.919,486.1856 980.905,484.7536 C985.127,478.6266 986.33,472.2706 983.071,465.3046 C982.501,464.0846 981.992,462.3566 982.421,461.2316 C984.064,456.9246 980.788,453.7946 979.715,450.3306 C978.826,447.4616 975.321,445.4096 972.996,442.9766 C972.25,442.1966 971.249,441.4636 970.924,440.5176 C970.095,438.1036 968.01,437.5866 966.099,436.5846 C964.622,435.8106 963.558,434.2736 962.105,433.4306 C958.118,431.1186 954.16,428.6366 949.895,426.9916 C948.446,426.4326 946.46,426.8116 945,425.5636 C944.74,425.3406 944.243,425.0716 944.025,425.1756 C939.233,427.4566 935.32,423.4916 930.882,423.3696 C930.535,423.3596 930.185,423.4896 929.319,423.6496 C928.033,428.3876 926.74,433.3706 925.314,438.3136 C924.488,441.1696 923.331,443.9316 922.535,446.7956 C921.819,449.3756 921.797,452.2116 920.747,454.6206 C918.878,458.9106 916.474,462.9666 914.27,467.1096 C913.844,467.9096 912.832,468.6976 912.902,469.4116 C913.308,473.5646 909.864,475.4236 907.972,478.2026 C907.484,478.9196 906.752,479.7986 906.835,480.5216 C907.318,484.7006 904.096,487.0876 902.239,490.0316 C900.363,493.0056 898.501,496.0646 895.201,498.0366 C893.328,499.1546 892.076,501.3886 890.688,503.2286 C888.58,506.0206 887.009,509.2776 883.384,510.6146 C882.611,510.8996 882.101,511.8466 881.419,512.4286 C877.934,515.4056 875.332,519.6376 870.236,520.3376 C866.03,525.6746 858.23,526.1446 854.39,532.0316 C853.951,532.7046 852.877,533.3366 852.097,533.3376 C850.286,533.3396 848.435,532.5996 846.674,532.8036 C844.837,533.0166 843.127,534.3206 841.289,534.5426 C838.642,534.8596 835.777,534.0746 833.275,534.7536 C828.487,536.0526 824.185,535.9626 819.444,534.1076 C815.022,532.3776 810.502,531.0866 806.146,528.9556 C802.044,526.9486 801.069,522.9676 798.281,520.2576 C796.887,518.9016 795.71,517.2826 794.627,515.6546 C793.35,513.7346 791.417,512.3326 792.486,509.1346 C793.172,507.0886 791.562,504.2966 791.058,501.8236 C790.637,499.7546 790.608,497.8086 790.969,495.5716 C791.966,489.4066 792.488,483.2016 795.222,477.4426 C795.535,476.7826 795.022,475.7716 795.085,474.9386 C795.153,474.0486 795.444,472.4136 795.65,472.4116 C798.745,472.3856 798.76,470.0786 799.277,467.9916 C799.472,467.2066 800.108,466.1686 800.784,465.9276 C803.518,464.9576 804.263,462.5576 805.529,460.3656 C807.092,457.6606 807.898,454.1936 811.536,453.1226 C811.958,452.9986 812.44,452.3806 812.527,451.9226 C813.24,448.1706 816.512,447.1116 819.154,445.2796 C821.355,443.7526 823.671,442.0596 825.138,439.8986 C826.688,437.6156 827.517,434.9656 830.932,435.0616 C831.231,435.0706 831.711,434.8046 831.819,434.5456 C833.846,429.6436 838.942,429.1616 842.824,427.0426 C848.116,424.1546 853.621,421.6476 859.103,419.1256 C860.862,418.3156 862.86,418.0396 864.708,417.4036 C866.114,416.9196 867.768,417.4246 868.866,415.4996 C869.395,414.5716 871.773,414.7036 873.311,414.3456 C876.424,413.6216 879.553,414.5446 882.736,411.9476 C885.144,409.9836 889.712,410.6626 893.319,410.1756 C896.855,409.6986 900.406,409.3186 903.925,408.7416 C907.443,408.1656 910.925,406.9726 914.42,408.7546 C916.547,407.6826 917.13,406.0256 916.98,403.7986 C916.63,398.5996 916.503,393.3866 916.16,388.1876 C915.955,385.0836 914.806,382.0226 916.08,378.8726 C916.301,378.3286 916.034,377.2376 915.594,376.8326 C912.896,374.3486 914.978,371.2456 914.854,368.6016 C914.762,366.6676 915.099,365.2836 913.772,363.4616 C912.503,361.7176 911.824,359.2336 911.699,357.0286 C911.391,351.5856 909.925,346.6196 907.23,341.8996 C906.27,340.2196 905.942,338.1816 905.305,336.3146 C903.731,331.6936 901.412,327.4796 898.785,323.3566 C895.846,318.7436 897.129,313.5576 901.531,310.6076 C902.089,310.2346 903.086,309.8656 903.555,310.1126 C907.96,312.4276 913.344,313.0156 914.486,319.8686 C915.305,324.7736 918.625,329.2636 920.841,333.9346 C921.072,334.4206 921.73,335.0226 921.603,335.3146 C920.01,338.9666 922.446,341.9366 923.666,344.7816 C926.137,350.5486 926.128,357.0816 929.528,362.5086 C930.058,363.3536 930.181,364.5506 930.209,365.5926 C930.333,370.2236 930.241,374.8616 930.45,379.4866 C930.601,382.8246 930.86,386.1926 931.503,389.4626 C932.411,394.0806 932.83,398.4846 931.062,403.0916 C929.657,406.7516 932.571,410.5286 936.651,410.5046 C940.706,410.4816 944.583,410.6356 948.058,413.0116 C948.328,413.1966 948.766,413.2216 949.114,413.1916 C951.784,412.9616 954.069,413.5826 956.361,415.1906 C958.609,416.7666 961.343,417.6556 963.886,418.7956 C964.996,419.2936 966.132,419.8736 967.311,420.0466 C969.34,420.3456 970.984,420.7166 972.254,422.7606 C972.981,423.9296 975.048,424.2646 976.689,425.0606" id="Fill-1" fill="#267966" transform="translate(851.988274, 537.030200) rotate(17.000000) translate(-851.988274, -537.030200)"/><path d="M174.70118,235.13317 C176.872731,235.878581 178.801372,237.611067 180.565045,239.208161 C184.468129,242.744924 188.242506,246.427178 191.964195,250.155529 C192.813896,251.00656 193.125418,252.371773 193.884464,253.344799 C194.743065,254.444831 195.653442,255.732385 196.845665,256.303266 C200.705558,258.151126 203.405612,260.985447 205.378406,264.726229 C206.20344,266.291126 207.429886,267.668176 208.60318,269.019074 C210.102195,270.748162 212.104347,272.145331 213.234807,274.07036 C216.499406,279.629917 220.861031,284.847612 220.31842,291.810021 C219.728475,292.177043 219.343393,292.593745 219.13845,292.518569 C213.157419,290.341458 206.717893,289.022581 202.595814,283.395427 C201.903299,282.449962 200.547656,282.011424 199.564257,281.252517 C198.780244,280.647799 197.951032,280.013806 197.400964,279.21459 C195.838871,276.946182 194.606149,274.418885 192.827505,272.350843 C192.170782,271.587106 190.355858,271.819122 188.585338,271.514618 C187.150424,268.251654 186.007922,264.327093 181.36213,262.748183 C179.179058,262.006417 177.548293,259.440558 175.885485,257.513121 C175.491938,257.055985 175.743179,256.041979 175.800984,255.91982 L175.806178,255.910004 L165.091178,244.009429 C165.526168,242.072977 166.111525,239.469607 166.767946,236.550619 C169.11861,234.202622 172.090085,234.235853 174.70118,235.13317 Z M221.614009,197.718242 C222.560354,198.305976 223.506026,199.541566 223.681607,200.609343 C224.432312,205.173299 227.269006,208.440336 229.692372,212.122595 C231.122806,214.295593 232.39286,216.569939 234.171925,218.521878 C234.524779,218.909279 235.01275,219.569289 234.896133,219.929962 C233.56292,224.075982 236.2141,226.734972 238.185332,229.802999 C239.267572,231.48617 239.434278,233.750132 240.057974,235.738528 C240.625883,237.548397 240.214345,240.320901 244.222463,238.556839 C242.780135,244.04178 244.495587,247.720926 246.925148,251.514677 C248.871027,254.553053 250.142535,258.015628 250.291562,261.995043 C250.464208,266.564108 250.803179,268.68911 248.858303,273.14366 C243.89839,271.208412 238.880977,269.74881 236.360098,264.103607 C234.86005,260.745888 232.599391,257.728543 230.312248,253.946504 C230.513374,253.567602 231.163185,252.341988 231.815448,251.11013 C228.526168,248.534532 227.744496,244.764124 226.604693,241.274463 C225.440642,237.70706 224.672678,234.080402 221.882384,231.225065 C220.814472,230.133182 220.164228,228.421669 219.815131,226.881716 C218.985913,223.2214 217.466319,220.209614 214.719379,217.445767 C213.065475,215.780786 212.971417,212.644031 211.918312,210.283341 C210.842301,207.873301 209.450869,205.604632 208.079219,203.05306 C208.425724,202.30508 209.344783,201.197664 209.390538,200.054393 C209.550205,196.089032 212.833138,195.20534 215.378187,194.917415 C217.342664,194.696069 219.652036,196.500198 221.614009,197.718242 Z M261.426019,170.207004 C265.069511,170.928301 267.037682,173.271097 268.38521,176.64773 C270.070085,180.869785 272.420289,184.786124 273.330658,189.370485 C273.621615,190.844372 275.531098,191.996646 276.701407,193.296407 C276.484086,193.376359 276.266691,193.457724 276.049295,193.539089 C276.828199,195.565358 277.594023,197.598022 278.390245,199.618118 C278.976515,201.10465 280.471161,202.903609 280.057836,203.994337 C278.524727,208.036415 281.73917,210.999657 281.924458,214.597903 C281.992989,215.924891 282.894475,217.341557 283.744535,218.469465 C286.266981,221.814915 287.000871,223.970527 286.605258,227.493012 C286.505928,228.375027 286.444617,229.423309 286.818363,230.168675 C289.147841,234.80475 286.071944,238.479911 284.954158,243.054987 C281.588203,240.956156 278.936097,238.814722 276.686642,236.04296 C275.349162,234.393146 273.548768,233.118426 271.209965,230.997661 C271.237479,230.05382 272.533837,227.624371 270.137242,225.998355 C271.020386,218.834289 266.672962,212.967323 264.625122,206.686276 C262.458944,200.042155 262.502332,192.958701 259.532706,186.55358 C258.417673,184.145036 256.94821,181.946625 256.77497,178.712963 C256.537161,174.252359 257.981923,172.01762 261.426019,170.207004 Z" id="Combined-Shape" fill="#e9cb33" transform="translate(226.379901, 231.367224) rotate(-41.000000) translate(-226.379901, -231.367224)"/><path d="M718.267557,507.653363 C721.630557,508.424363 723.380557,510.701363 724.321557,513.853363 C721.598557,517.977363 721.077557,522.685363 721.041557,527.535363 C721.005557,532.279363 719.677557,534.184363 714.171557,536.696363 C713.549557,534.493363 712.609557,532.693363 712.630557,530.904363 C712.667557,527.690363 713.016557,524.423363 713.724557,521.289363 C714.523557,517.753363 715.345557,514.339363 714.778557,510.636363 C714.359557,507.901363 715.665557,507.056363 718.267557,507.653363 Z M748.009457,502.559663 C748.767457,504.057663 749.595457,505.693663 750.762457,508.001663 C750.535457,510.429663 750.528457,514.372663 749.681457,518.126663 C749.168457,520.396663 747.734457,522.778663 746.025457,524.371663 C744.104457,526.162663 739.555457,522.592663 740.365457,519.364663 C741.780457,513.728663 740.104457,506.690663 748.009457,502.559663 Z M795.462857,497.103263 C797.714857,502.535263 795.201857,515.489263 786.825857,516.698263 C783.927857,510.840263 788.364857,505.074263 787.301857,499.506263 C788.498857,498.220263 789.483857,496.898263 790.723857,495.891263 C792.679857,494.303263 794.489857,494.759263 795.462857,497.103263 Z M656.739557,489.315663 C656.192557,494.902663 657.824557,500.696663 655.115557,506.099663 C653.791557,508.743663 652.813557,511.559663 651.459557,514.827663 C646.248557,512.017663 647.023557,507.477663 647.050557,503.571663 C647.074557,499.883663 648.154557,496.210663 648.655557,492.515663 C648.837557,491.173663 648.685557,489.785663 648.685557,487.772663 C649.105557,487.460663 649.998557,486.533663 651.088557,486.038663 C654.129557,484.656663 657.052557,486.124663 656.739557,489.315663 Z M701.147057,461.891163 C707.224057,462.032163 708.736057,463.431163 708.278057,468.894163 C707.806057,474.526163 707.672057,480.358163 702.861057,484.953163 C702.186057,484.453163 701.209057,484.104163 700.919057,483.452163 C699.144057,479.438163 699.281057,471.335163 701.147057,461.891163 Z M595.914657,450.601163 C598.572657,455.095163 598.885657,459.880163 597.528657,464.866163 C596.216657,469.686163 598.518657,475.109163 595.010657,479.548163 C590.858657,478.198163 587.374657,472.658163 588.984657,468.515163 C589.978657,465.958163 589.512657,464.108163 588.831657,461.876163 C586.882657,455.493163 588.746657,452.479163 595.914657,450.601163 Z M823.928357,454.554663 C827.955357,455.902663 827.663357,459.342663 827.208357,462.571663 C826.721357,466.025663 825.772357,469.413663 824.929357,473.264663 C823.465357,473.889663 821.516357,474.721663 819.709357,475.493663 C815.054357,471.647663 817.497357,467.171663 817.757357,463.013663 C818.010357,458.963663 819.527357,455.745663 823.928357,454.554663 Z M749.145457,440.630063 L749.499361,440.92421 C752.662281,443.563321 755.169493,446.00992 752.497457,450.623063 C751.626457,452.127063 751.326457,454.613063 751.934457,456.203063 C753.944457,461.458063 749.451457,463.815063 747.548457,468.582063 C745.870457,464.003063 742.863457,461.184063 743.919457,456.827063 C744.246457,455.473063 744.142457,453.891063 743.805457,452.520063 C742.496457,447.196063 744.925457,443.697063 749.145457,440.630063 Z M856.744957,447.414463 C858.283957,447.741463 860.930957,451.187463 860.307957,452.987463 C858.550957,458.068463 858.833957,464.201463 852.901957,467.856463 C849.619957,464.248463 848.924957,460.536463 850.677957,456.305463 C851.283957,454.841463 851.762957,453.313463 852.150957,451.776463 C852.814957,449.142463 854.958957,447.036463 856.744957,447.414463 Z M787.943957,435.349163 C789.776957,438.942163 790.828957,442.101163 789.260957,445.934163 C788.211957,448.501163 787.956957,451.495163 787.841957,454.317163 C787.680957,458.275163 784.728957,460.029163 782.484957,463.218163 C779.357957,457.180163 777.686957,451.999163 780.833957,446.259163 C781.492957,445.056163 781.599957,443.467163 781.670957,442.041163 C781.858957,438.209163 783.805957,436.081163 787.943957,435.349163 Z M661.761457,432.322063 C662.299457,433.394063 662.382457,434.693063 662.759457,436.260063 C660.941457,438.111063 659.804457,440.450063 660.738457,443.598063 C661.956457,447.701063 658.937457,450.292063 656.621457,452.921063 C656.047457,453.574063 654.373457,453.259063 652.008457,453.522063 C653.440457,447.316063 651.018457,441.759063 654.127457,436.620063 C654.512457,435.985063 654.186457,434.915063 654.174457,434.046063 C654.144457,431.733063 654.771457,429.661063 657.273457,429.154063 C659.633457,428.676063 660.863457,430.533063 661.761457,432.322063 Z M610.891557,413.925963 C612.244557,416.086963 613.522557,418.125963 614.724557,420.042963 C614.206557,423.023963 613.830557,425.847963 613.187557,428.608963 C612.876557,429.944963 612.292557,431.350963 611.434557,432.399963 C609.333557,434.966963 607.857557,434.624963 606.366557,431.532963 C605.760557,430.276963 604.995557,429.098963 604.169557,427.649963 C605.943557,423.067963 606.228557,417.857963 610.891557,413.925963 Z M730.292157,415.201163 C730.122157,419.953163 730.086157,424.877163 727.571157,429.150163 C726.878157,430.325163 725.302157,431.493163 724.024157,431.626163 C723.191157,431.713163 721.809157,430.088163 721.284157,428.949163 C719.147157,424.314163 721.341157,419.881163 722.440157,415.481163 C722.897157,413.655163 724.334157,412.074163 725.187157,410.619163 C728.938157,410.398163 730.388157,412.542163 730.292157,415.201163 Z M692.461557,391.015663 C697.001557,394.446663 697.800557,396.952663 696.587557,401.363663 C694.919557,407.429663 693.254557,413.515663 692.065557,419.685663 C691.420557,423.030663 689.803557,425.507663 687.846557,427.921663 C687.249557,427.677663 686.730557,427.631663 686.624557,427.398663 C684.618557,422.944663 684.506557,413.140663 685.744557,408.799663 C686.799557,405.102663 687.415557,401.209663 687.636557,397.369663 C687.828557,394.020663 690.358557,392.959663 692.461557,391.015663 Z M773.057257,392.460963 C773.508257,394.180963 774.672257,396.108963 774.311257,397.686963 C772.954257,403.612963 771.276257,409.483963 769.334257,415.246963 C768.682257,417.181963 766.882257,418.730963 765.127257,421.106963 C763.962257,419.748963 762.537257,418.854963 762.411257,417.802963 C761.976257,414.182963 760.911257,410.597963 763.100257,406.898963 C764.602257,404.362963 764.795257,401.085963 765.828257,398.231963 C766.846257,395.419963 767.967257,392.499963 773.057257,392.460963 Z M637.815257,394.162663 C639.870257,394.860663 641.658257,395.465663 644.149257,396.309663 C643.438257,399.817663 642.826257,403.114663 642.087257,406.383663 C641.613257,408.482663 640.798257,410.511663 640.417257,412.622663 C639.946257,415.233663 638.396257,416.280663 635.973257,416.424663 C632.399257,414.501663 633.097257,410.872663 632.640257,409.057663 C634.541257,403.584663 636.081257,399.152663 637.815257,394.162663 Z M575.462957,394.937663 C578.981957,395.121663 580.074957,398.058663 579.963957,400.160663 C579.713957,404.880663 578.452957,409.547663 577.602957,414.235663 C577.048957,414.371663 576.496957,414.506663 575.943957,414.642663 C574.712957,412.991663 573.057957,411.501663 572.351957,409.650663 C571.365957,407.063663 570.801957,404.229663 570.577957,401.458663 C570.297957,397.986663 573.736957,397.009663 575.462957,394.937663 Z M809.133885,391.790267 L809.187757,391.916763 C809.616757,392.903763 809.927757,393.940763 809.952757,394.010763 C809.586757,398.760763 809.457757,402.546763 808.957757,406.282763 C808.526757,409.502763 806.589757,411.818763 803.559757,413.096763 C801.369757,414.021763 799.652757,413.115763 799.096757,410.790763 C798.179757,406.965763 800.007757,403.563763 800.808757,400.007763 C801.277757,397.927763 801.831757,395.865763 802.364757,393.799763 C802.543757,393.109763 802.576757,392.228763 803.024757,391.791763 C803.987757,390.850763 805.070757,389.807763 806.298757,389.415763 C808.155854,388.822537 808.598799,390.510685 809.133885,391.790267 Z M848.733357,379.184663 C848.047357,389.449663 848.421357,400.134663 840.842357,409.473663 C835.674357,402.722663 836.758357,396.403663 839.589357,389.783663 C840.899357,386.719663 840.677357,383.116663 842.962357,380.255663 C844.469357,378.369663 845.928357,377.790663 848.733357,379.184663 Z M731.378557,374.914863 C736.434557,378.234863 736.749557,379.241863 734.875557,384.227863 C734.306557,385.740863 733.502557,387.428863 733.699557,388.918863 C734.350557,393.834863 731.958557,396.482863 727.335557,398.280863 C724.493557,393.498863 722.725557,389.145863 726.589557,384.227863 C727.425557,383.164863 726.711557,380.883863 726.711557,378.224863 C727.772557,377.472863 729.631557,376.153863 731.378557,374.914863 Z M675.106957,359.954063 C675.769957,360.204063 676.424957,360.476063 677.694957,360.980063 C675.192957,367.794063 675.066957,375.246063 670.661957,381.929063 C669.946957,381.187063 669.040957,380.638063 668.723957,379.852063 L668.467986,379.210074 C667.158922,375.890909 666.104381,372.531124 667.443957,368.843063 C667.920957,367.530063 667.987957,366.032063 668.046957,364.610063 C668.275957,359.121063 669.932957,358.003063 675.106957,359.954063 Z M608.668057,363.223163 C608.329057,369.227163 606.536057,374.380163 602.442057,379.453163 C597.094057,371.858163 601.142057,364.661163 601.708057,357.584163 C607.710057,355.411163 609.026057,356.869163 608.668057,363.223163 Z M761.781657,340.030763 C762.724657,340.394763 763.971657,341.843763 763.886657,342.697763 C763.227657,349.317763 763.214657,356.046763 760.473657,362.347763 C758.794657,366.207763 755.685657,368.575763 752.125657,372.135763 C752.125657,366.581763 750.988657,361.909763 752.404657,358.217763 C754.297657,353.284763 754.603657,348.048763 756.572657,343.244763 C756.972657,342.271763 757.603657,341.173763 758.446657,340.660763 C759.383657,340.093763 760.862657,339.674763 761.781657,340.030763 Z M703.128057,343.202163 C704.459057,343.734163 706.200057,344.432163 708.092057,345.190163 C707.516057,350.357163 707.236057,355.332163 706.283057,360.175163 C705.922057,362.005163 704.012057,363.531163 702.624057,365.452163 C700.791057,364.583163 699.372057,363.911163 697.385057,362.970163 C697.718057,361.168163 697.642057,359.102163 698.488057,357.533163 C700.056057,354.624163 700.523057,351.909163 698.941057,349.473163 C700.408057,347.276163 701.652057,345.411163 703.128057,343.202163 Z M810.764857,341.483563 C810.347857,346.341563 809.558857,351.232563 808.261857,355.923563 C807.605857,358.299563 805.465857,360.263563 803.865857,362.602563 C800.113857,357.271563 800.112857,351.755563 803.447857,334.457563 C808.741857,333.633563 811.254857,335.789563 810.764857,341.483563 Z M642.251557,341.718763 C646.041557,341.863763 647.413557,343.835763 647.518557,347.004763 C647.714557,352.938763 646.942557,358.429763 641.129557,361.754763 C635.087557,355.560763 635.426557,349.810763 642.251557,341.718763 Z M734.649957,331.610463 C739.032957,335.874463 736.648957,340.476463 735.278957,345.129463 C733.880957,345.752463 732.455957,346.387463 730.472957,347.271463 C728.786957,343.675463 726.516957,340.323463 727.453957,336.538463 C728.233957,333.380463 730.854957,331.272463 734.649957,331.610463 Z M845.946157,310.042963 C846.288157,316.217963 843.216157,321.491963 841.728157,327.180963 C841.154157,329.377963 840.082157,331.278963 840.886157,333.895963 C841.765157,336.755963 839.848157,339.533963 835.184157,344.252963 C832.995157,339.814963 831.905157,336.144963 833.125157,331.168963 C834.408157,325.938963 835.804157,320.496963 835.766157,314.851963 C835.747157,311.987963 837.547157,309.110963 838.560157,306.139963 C839.355157,306.075963 840.405157,305.976963 841.456157,305.912963 C845.010157,305.696963 845.752157,306.564963 845.946157,310.042963 Z M569.635357,309.233463 C573.415357,320.865463 568.422357,330.374463 563.722357,340.616463 C560.595357,337.913463 560.920357,334.570463 560.199357,331.868463 C559.612357,329.667463 560.463357,327.018463 560.929357,324.617463 C561.493357,321.707463 562.667357,319.069463 562.718357,315.865463 C562.764357,312.940463 565.684357,310.442463 569.635357,309.233463 Z M686.905857,301.387263 C693.922857,302.486263 693.927857,306.765263 691.961857,311.704263 C690.441857,315.520263 688.620857,319.075263 689.067857,323.512263 C689.240857,325.238263 687.211857,327.199263 686.150857,329.033263 C684.874857,331.239263 683.560857,333.423263 681.844857,336.325263 C678.471857,328.682263 677.653857,322.211263 681.587857,315.561263 C682.738857,313.615263 683.691857,311.105263 683.538857,308.938263 C683.310857,305.701263 684.467857,303.519263 686.905857,301.387263 Z M713.605957,297.560663 C714.439957,298.183663 715.071957,299.077663 715.779957,299.830663 C713.826957,305.219663 712.232957,310.533663 709.943957,315.529663 C708.849957,317.917663 706.437957,319.700663 704.273957,322.153663 C702.992957,319.196663 702.087957,317.109663 701.161957,314.973663 C702.623957,310.133663 705.300957,305.614663 705.845957,300.252663 C706.168957,297.081663 711.027957,295.637663 713.605957,297.560663 Z M611.262157,294.248463 C612.192157,295.208463 613.716157,296.039463 613.957157,297.150463 C615.640157,304.906463 616.715157,312.729463 614.430157,320.580463 C614.347157,320.863463 613.915157,321.043463 613.394157,321.484463 C605.154157,312.327463 604.177157,301.108463 611.262157,294.248463 Z M745.843357,281.834563 C746.382357,281.946563 747.070357,282.188563 747.767357,282.216563 C751.011357,282.349563 752.137357,283.380563 752.496357,286.177563 C753.507357,294.039563 751.469357,301.428563 748.799357,308.623563 C747.660357,311.692563 745.657357,314.534563 741.948357,316.349563 C741.607357,314.897563 741.087357,313.769563 741.122357,312.658563 C741.266357,308.026563 738.800357,303.122563 742.619357,298.816563 C743.220357,298.139563 743.372357,296.668563 743.138357,295.710563 C741.914357,290.711563 743.725357,286.336563 745.843357,281.834563 Z M659.526757,284.779563 C662.632757,287.419563 663.161757,288.479563 661.300757,292.027563 C659.377757,295.690563 657.760757,299.398563 657.428757,303.628563 C657.162757,307.016563 654.839757,309.355563 652.726757,311.833563 C648.082757,308.871563 649.255757,304.122563 649.500757,300.505563 C649.853757,295.307563 651.936757,290.226563 653.327757,284.916563 C655.183757,284.301563 657.047757,282.672563 659.526757,284.779563 Z M785.044557,290.485363 C787.052557,296.449363 783.451557,306.755363 778.416557,309.677363 C775.143557,304.362363 776.588557,298.845363 777.943557,293.443363 C778.921557,289.550363 782.188557,290.280363 785.044557,290.485363 Z M826.303257,266.469163 C827.393257,266.998163 828.800257,268.636163 828.673257,269.620163 C827.968257,275.087163 828.275257,280.800163 825.228257,285.799163 C824.054257,287.725163 823.168257,289.827163 821.930257,292.288163 C818.534257,285.583163 818.556257,279.051163 819.962257,272.501163 C820.352257,270.684163 821.731257,268.944163 823.034257,267.512163 C823.734257,266.741163 825.528257,266.092163 826.303257,266.469163 Z M696.650057,254.679263 C697.946057,258.340263 698.981057,261.261263 700.156057,264.577263 C698.421057,269.102263 696.677057,274.115263 694.573057,278.972263 C693.337057,281.822263 691.382057,284.196263 686.814057,283.356263 C686.677057,281.558263 686.095057,279.458263 686.461057,277.538263 C687.181057,273.749263 688.419057,270.057263 689.459057,266.330263 C689.746057,265.301263 690.547057,264.179263 690.335057,263.286263 C689.033057,257.846263 693.808057,257.519263 696.650057,254.679263 Z M626.988657,245.188863 C629.643657,245.580863 630.880657,247.192863 630.827657,250.132863 C630.757657,254.030863 631.005657,257.971863 630.497657,261.811863 C630.022657,265.399863 628.739657,268.880863 627.812657,272.407863 C627.222657,272.426863 626.631657,272.445863 626.041657,272.464863 C622.793657,267.615863 620.422657,262.518863 621.687657,256.269863 C622.172657,253.872863 622.395657,251.423863 622.826657,249.014863 C623.236657,246.725863 624.056657,244.755863 626.988657,245.188863 Z M675.163757,243.580163 C677.391757,250.649163 676.710757,256.891163 670.115757,266.232163 C665.099757,261.124163 667.162757,254.984163 667.519757,249.280163 C667.687757,246.598163 671.837757,243.854163 675.163757,243.580163 Z M790.540257,243.142763 C793.011257,243.892763 793.014257,245.249763 792.290257,247.685763 C791.203257,251.345763 791.709257,255.434763 789.506257,258.870763 C788.656257,260.197763 787.866257,261.564763 786.558257,263.721763 C785.445257,262.321763 784.697257,261.751763 784.454257,261.015763 C782.714257,255.750763 783.235257,250.545763 785.196257,245.452763 C786.006257,243.347763 788.177257,242.424763 790.540257,243.142763 Z M731.500957,236.217363 C732.650957,237.111363 733.882957,238.070363 735.052957,238.979363 C733.323957,245.990363 733.654957,253.474363 728.694957,260.154363 C726.962957,256.042363 725.484957,252.534363 724.256957,249.617363 C724.729957,246.630363 725.032957,244.082363 725.581957,241.589363 C725.790957,240.635363 726.374957,239.574363 727.118957,238.971363 C728.458957,237.884363 730.048957,237.105363 731.500957,236.217363 Z M664.019757,212.412663 C663.907757,217.791663 664.567757,223.627663 660.595757,228.422663 C659.565757,229.664663 659.512757,231.715663 658.780757,234.165663 C651.665757,225.682663 656.893757,217.242663 657.079757,208.870663 C662.568757,205.983663 664.143757,206.482663 664.019757,212.412663 Z M704.872757,205.517163 C707.678757,205.760163 709.885757,207.965163 709.183757,210.612163 C707.702757,216.201163 706.974757,222.199163 702.422757,227.262163 C696.562757,220.219163 700.341757,212.918163 700.411757,205.785163 C702.061757,205.672163 703.484757,205.397163 704.872757,205.517163 Z M768.885757,196.707463 C770.921757,198.764463 771.332757,201.277463 770.576757,204.109463 C768.954757,210.183463 768.839757,216.802463 763.785757,222.086463 C761.224757,216.559463 759.372757,211.346463 761.419757,205.361463 C762.322757,202.720463 762.562757,199.854463 763.183757,196.679463 C764.694757,196.324463 766.799757,194.599463 768.885757,196.707463 Z M744.124757,182.051063 C744.270757,182.060063 744.406757,182.254063 744.911757,182.644063 C745.157757,190.534063 742.183757,197.492063 737.302757,204.197063 C734.218757,200.570063 734.050757,196.579063 734.416757,192.502063 C734.543757,191.086063 735.151757,189.719063 735.360757,188.303063 C736.136757,183.061063 736.967757,182.236063 742.015757,182.014063 C742.716757,181.982063 743.423757,182.009063 744.124757,182.051063 Z" id="Combined-Shape" fill="#94a154"/></g></g></g></svg>