<svg aria-labelledby="Coinbase commerce logo" class="cds-iconStyles-iogjozt" role="img" viewBox="0 0 416 36" width="100%" xmlns="http://www.w3.org/2000/svg"><title>Coinbase commerce logo</title><g><path d="M162.014 20.9106L157.854 20.2937C155.872 20.0115 154.454 19.3487 154.454 17.7868C154.454 16.087 156.298 15.2339 158.799 15.2339C161.542 15.2339 163.288 16.4152 163.668 18.3512H169.148C168.531 13.4357 164.751 10.5547 158.943 10.5547C152.945 10.5547 148.974 13.626 148.974 17.9705C148.974 22.1313 151.573 24.5398 156.817 25.2945L160.978 25.9114C163.012 26.1936 164.141 27.0008 164.141 28.5103C164.141 30.4463 162.159 31.2535 159.416 31.2535C156.062 31.2535 154.172 29.8819 153.89 27.8015H148.311C148.83 32.5726 152.564 35.9261 159.37 35.9261C165.558 35.9261 169.673 33.091 169.673 28.2215C169.667 23.8901 166.687 21.6194 162.014 20.9106ZM143.869 19.4012C143.869 14.1116 140.653 10.5678 133.854 10.5678C127.429 10.5678 123.839 13.8295 123.13 18.8368H128.755C129.037 16.9008 130.553 15.2929 133.762 15.2929C136.643 15.2929 138.061 16.5661 138.061 18.128C138.061 20.1625 135.462 20.6809 132.246 21.0091C127.901 21.4816 122.513 22.991 122.513 28.6612C122.513 33.0582 125.775 35.8933 130.973 35.8933C135.035 35.8933 137.588 34.1936 138.861 31.4963C139.051 33.9048 140.843 35.4668 143.35 35.4668H146.658V30.4135H143.869V19.4012ZM138.29 25.5439C138.29 28.8056 135.455 31.2141 132.003 31.2141C129.877 31.2141 128.079 30.315 128.079 28.425C128.079 26.0164 130.96 25.3536 133.604 25.0714C136.157 24.8351 137.575 24.2707 138.284 23.1813V25.5439H138.29ZM108.194 10.5678C105.03 10.5678 102.379 11.8934 100.489 14.1116V0.736816H94.8187V35.4668H100.397V32.251C102.287 34.5677 104.978 35.9393 108.194 35.9393C114.999 35.9393 120.151 30.5513 120.151 23.2732C120.151 15.9952 114.901 10.5678 108.194 10.5678ZM107.34 30.6957C103.278 30.6957 100.299 27.5324 100.299 23.2798C100.299 19.0271 103.324 15.8114 107.386 15.8114C111.495 15.8114 114.382 18.9746 114.382 23.2798C114.382 27.5259 111.403 30.6957 107.34 30.6957ZM60.6597 0.973075C58.5793 0.973075 57.024 2.4825 57.024 4.56288C57.024 6.64327 58.5859 8.1527 60.6597 8.1527C62.7335 8.1527 64.2955 6.64327 64.2955 4.56288C64.2955 2.4825 62.7335 0.973075 60.6597 0.973075ZM81.2601 10.5678C77.5719 10.5678 75.1633 12.0772 73.7458 14.2035V11.0403H68.1215V35.4668H73.7917V22.1904C73.7917 18.4562 76.1543 15.8114 79.6523 15.8114C82.9139 15.8114 84.9418 18.128 84.9418 21.4816V35.4668H90.612V21.055C90.612 14.9123 87.4488 10.5678 81.2601 10.5678ZM39.915 10.5678C32.7813 10.5678 27.203 16.0017 27.203 23.2798C27.203 30.5578 32.6369 35.9458 39.915 35.9458C47.193 35.9458 52.7188 30.466 52.7188 23.2338C52.7188 16.0477 47.2849 10.5678 39.915 10.5678ZM39.9609 30.6957C35.8986 30.6957 32.9191 27.5324 32.9191 23.2798C32.9191 18.9812 35.8461 15.8114 39.915 15.8114C44.0232 15.8114 47.0027 19.0271 47.0027 23.2798C47.0027 27.5324 44.0232 30.6957 39.9609 30.6957ZM184.741 10.5678C177.463 10.5678 172.128 16.0477 172.128 23.2798C172.128 30.886 177.844 35.9458 184.84 35.9458C190.746 35.9458 195.379 32.4479 196.561 27.4865H190.654C189.801 29.6587 187.727 30.886 184.938 30.886C181.302 30.886 178.559 28.6153 177.942 24.6514H196.698V22.4791C196.692 15.4767 191.593 10.5678 184.741 10.5678ZM178.264 20.5825C179.163 17.183 181.716 15.5292 184.643 15.5292C187.858 15.5292 190.313 17.3733 190.877 20.5825H178.264ZM12.9356 15.8114C15.9151 15.8114 18.2776 17.6555 19.1702 20.3922H25.1685C24.0791 14.5317 19.2621 10.5612 12.975 10.5612C5.84785 10.5678 0.269531 16.0017 0.269531 23.2732C0.269531 30.5447 5.70347 35.9393 12.9815 35.9393C19.1242 35.9393 24.0397 31.9688 25.1226 26.0624H19.1702C18.317 28.8056 15.9544 30.6957 12.9815 30.6957C8.87326 30.6957 5.98566 27.5324 5.98566 23.2798C5.98566 18.9746 8.82076 15.8114 12.9356 15.8114ZM54.2808 16.0936H57.8246V35.4668H63.4948V11.0403H54.2808V16.0936Z" fill="#0052FF"></path><path d="M328.039 35.4668H344.8V32.2773H331.721V24.4349H343.763V21.311H331.721V14.2299H344.8V11.0404H328.039V35.4668ZM415.73 14.2299V11.0404H398.969V35.4668H415.73V32.2773H402.651V24.4349H414.693V21.311H402.651V14.2299H415.73ZM383.98 32.763C379.917 32.763 376.59 29.6063 376.59 24.0149V22.4529C376.59 16.8681 379.924 13.7048 384.019 13.7048C387.386 13.7048 389.4 15.4768 389.985 18.0756H393.909C393.01 13.5998 389.4 10.5088 384.091 10.5088C376.702 10.5088 372.849 16.3037 372.849 23.2405C372.849 30.2167 376.669 35.9393 384.091 35.9393C389.4 35.9393 393.076 32.7827 393.981 28.0969H390.129C389.565 30.676 387.622 32.763 383.98 32.763ZM247.678 10.5154C240.249 10.5154 236.397 16.3102 236.397 23.247C236.397 30.2232 240.249 35.9459 247.678 35.9459C255.101 35.9459 258.92 30.2232 258.92 23.247C258.92 16.3102 255.068 10.5154 247.678 10.5154ZM255.173 24.0149C255.173 29.5998 251.774 32.763 247.678 32.763C243.55 32.763 240.151 29.6063 240.151 24.0149V22.4529C240.151 16.8681 243.55 13.7048 247.678 13.7048C251.774 13.7048 255.173 16.8615 255.173 22.4529V24.0149ZM308.646 29.987H308.613L301.46 11.0404H296.046V35.4668H299.478V15.1683H299.511L307.11 35.5062H309.886L317.486 15.0699H317.519V35.4734H321.096V11.0404H315.714L308.646 29.987ZM276.653 29.987H276.62L269.467 11.0404H264.052V35.4668H267.485V15.1683H267.518L275.117 35.5062H277.893L285.493 15.0699H285.526V35.4734H289.102V11.0404H283.721L276.653 29.987ZM361.043 25.3012C366.214 25.3012 369.063 22.558 369.063 18.2594C369.063 13.9936 366.149 11.0404 360.872 11.0404H350.287V35.4668H353.962V25.3012L364.994 35.4668H370.231L358.923 25.3012H361.043ZM353.962 14.1577H360.761C363.78 14.1577 365.342 15.6474 365.342 18.115V18.535C365.342 20.9632 363.78 22.4529 360.761 22.4529H353.962V14.1577ZM222.865 32.763C218.802 32.763 215.475 29.6063 215.475 24.0149V22.4529C215.475 16.8681 218.809 13.7048 222.904 13.7048C226.271 13.7048 228.286 15.4768 228.87 18.0756H232.794C231.895 13.5998 228.286 10.5088 222.976 10.5088C215.587 10.5088 211.734 16.3037 211.734 23.2405C211.734 30.2167 215.554 35.9393 222.976 35.9393C228.286 35.9393 231.961 32.7827 232.866 28.0969H229.014C228.45 30.676 226.507 32.763 222.865 32.763Z" fill="#0A0B0D"></path></g></svg>