<?xml version="1.0" encoding="utf-8"?>
<!-- Generator: Adobe Illustrator 19.2.1, SVG Export Plug-In . SVG Version: 6.00 Build 0)  -->
<svg version="1.1" id="Layer_1" xmlns="http://www.w3.org/2000/svg" xmlns:xlink="http://www.w3.org/1999/xlink" x="0px" y="0px"
	 width="841.9px" height="595.3px" viewBox="0 0 841.9 595.3" enable-background="new 0 0 841.9 595.3" xml:space="preserve">
<g>
	<g>
		<path fill="#1E3845" d="M171,283.9l-14.4,7.6c-2,1-4.2-0.6-3.9-2.8l2.8-16.1c0.1-0.9-0.1-1.7-0.8-2.4L143,258.8
			c-1.6-1.5-0.7-4.2,1.5-4.5l16.1-2.3c0.9-0.1,1.6-0.7,2-1.5l7.2-14.6c1-2,3.8-2,4.8,0l7.2,14.6c0.4,0.8,1.1,1.3,2,1.5l16.1,2.3
			c2.2,0.3,3.1,3,1.5,4.5l-11.7,11.4c-0.6,0.6-0.9,1.5-0.8,2.4l2.8,16.1c0.4,2.2-1.9,3.8-3.9,2.8l-14.4-7.6
			C172.7,283.5,171.7,283.5,171,283.9z"/>
		<rect x="145.6" y="334" fill="#1E3845" width="53.3" height="21.6"/>
		<polygon fill="#1E3845" points="168.8,280.5 158.6,334 185.7,334 175.6,280.5 		"/>
		<rect x="139.1" y="358.1" fill="#1E3845" width="66.2" height="6.2"/>
	</g>
	<g>
		<rect x="376.8" y="326.4" fill="#1E3845" width="66.2" height="29.3"/>
		<rect x="376.8" y="358.1" fill="#1E3845" width="66.2" height="6.2"/>
		<path fill="#1E3845" d="M409.9,309.7c-7.9,0-14.4,6.4-14.4,14.4h28.7C424.3,316.1,417.8,309.7,409.9,309.7z"/>
		<circle fill="#1E3845" cx="409.9" cy="256.7" r="25.7"/>
		<rect x="405.7" y="278.5" fill="#1E3845" width="8.4" height="34.7"/>
		<circle fill="#FFFFFF" cx="409.9" cy="256.7" r="19.2"/>
		<path fill="#1E3845" d="M412.1,266.5v-20c0-2.2-1.8-4-4-4h-3v4.4h2.5v19.5h-4.6v4.4h13.6v-4.4H412.1z"/>
	</g>
	<g>
		<rect x="147.1" y="143.4" fill="#1E3845" width="50.2" height="29.3"/>
		<rect x="139.1" y="175" fill="#1E3845" width="66.2" height="6.2"/>
		<g>
			<path fill="#1E3845" d="M190.3,60.2l-7.7,7.5c-3.5-3.6-7-5.4-10.4-5.4c-2,0-3.7,0.5-4.9,1.6c-1.3,1.1-1.9,2.3-1.9,3.7
				c0,1.2,0.6,2.4,1.7,3.5c1.1,1.2,3.3,2.5,6.6,3.8c5.9,2.4,9.9,4.5,12.1,6.2c2.2,1.7,3.8,3.8,5,6.2c1.2,2.4,1.8,5.1,1.8,8.1
				c0,3-0.6,5.8-1.9,8.3c-1.2,2.5-2.9,4.6-4.8,6.1c-2,1.5-4.8,2.6-8.5,3.4v32.1H170v-31.9c-3.5-0.4-6.4-1.3-8.9-2.6
				c-3.3-1.9-6.4-4.3-9.3-7.4l7.6-7.8c4.9,5.2,9.6,7.8,14.1,7.8c2.1,0,4.2-0.8,5.8-2.3c1.8-1.6,2.6-3.6,2.6-5.8
				c0-1.8-0.5-3.4-1.6-4.8c-1.1-1.4-3.2-2.8-6.3-4.2c-6.3-2.9-10.6-5.2-12.8-6.9c-2.2-1.7-3.9-3.6-5-5.8c-1.1-2.1-1.7-4.4-1.7-6.8
				c0-4,1.5-7.4,4.4-10.3c2.9-2.9,6.6-4.4,11.1-4.6v-4h7.5v4.5c2.6,0.6,4.8,1.4,6.5,2.5C185.8,56,187.9,57.8,190.3,60.2z"/>
		</g>
	</g>
	<g>
		<path fill="#1E3845" d="M394.4,118.2l-2.5,14.3c-0.4,2.2,1.9,3.8,3.9,2.8l12.9-6.8c0.8-0.4,1.7-0.4,2.5,0l12.9,6.8
			c2,1,4.2-0.6,3.9-2.8l-2.5-14.3c-0.1-0.9,0.1-1.7,0.8-2.4l10.4-10.1c1.6-1.5,0.7-4.2-1.5-4.5l-14.4-2.1c-0.9-0.1-1.6-0.7-2-1.5
			l-6.4-13c-1-2-3.8-2-4.8,0l-6.4,13c-0.4,0.8-1.1,1.3-2,1.5l-14.4,2.1c-2.2,0.3-3.1,3-1.5,4.5l10.4,10.1
			C394.3,116.5,394.5,117.4,394.4,118.2z"/>
		<g>
			<g>
				<path fill="#1E3845" d="M433.7,153.7c-0.9,2.6-0.7,5.4,0.8,7.4c2.9-1,5.5-3.4,6.2-6.3c0.4-1.4,0.3-2.8,0-4
					c-0.4-1.2-1.1-2.3-2-3.1c-0.6,0.3-1.1,0.7-1.6,1.1c-0.5,0.4-0.9,0.9-1.4,1.4c-0.4,0.5-0.8,1-1.1,1.6
					C434.3,152.4,434,153,433.7,153.7z"/>
				<path fill="#1E3845" d="M433.7,153.7c-0.9,2.6-0.7,5.4,0.8,7.4c2.9-1,5.5-3.4,6.2-6.3c0.4-1.4,0.3-2.8,0-4
					c-0.4-1.2-1.1-2.3-2-3.1c-0.6,0.3-1.1,0.7-1.6,1.1c-0.5,0.4-0.9,0.9-1.4,1.4c-0.4,0.5-0.8,1-1.1,1.6
					C434.3,152.4,434,153,433.7,153.7z"/>
				<path fill="#1E3845" d="M441.4,167.6c-3.4-0.4-5.3-2.3-6-4.7c2.7-1.8,5.9-2.8,9.1-2.8c1.6,0,3,0.4,4.2,1c1.1,0.6,2,1.5,2.6,2.7
					c-0.7,0.7-1.4,1.2-2.2,1.7c-0.8,0.5-1.6,1-2.5,1.3c-0.9,0.3-1.7,0.6-2.6,0.7C443.1,167.7,442.3,167.7,441.4,167.6z"/>
			</g>
			<g>
				<path fill="#1E3845" d="M447.2,81.5c2.7,0.4,5.4-0.4,7.1-2.3c-0.8-1.3-1.8-2.6-3.2-3.4c-0.6-0.4-1.3-0.8-2-1
					c-0.7-0.3-1.5-0.4-2.2-0.4c-2.9-0.2-5.3,1.3-6.5,3.4c0.5,0.5,0.9,0.9,1.4,1.4c0.5,0.4,1.1,0.8,1.6,1.1
					C444.5,80.9,445.8,81.3,447.2,81.5z"/>
				<path fill="#1E3845" d="M459.4,71.2c0.3,3.4-1.2,5.7-3.5,6.8c-1.2-1.1-2.1-2.5-2.9-3.9c-0.4-0.7-0.7-1.4-1-2.2
					c-0.3-0.8-0.5-1.5-0.6-2.3c-0.5-3.2,0.2-5.8,2.3-7.3c0.8,0.5,1.5,1.2,2.1,1.8c0.6,0.7,1.2,1.4,1.8,2.2
					C458.5,67.9,459.2,69.5,459.4,71.2z"/>
			</g>
			<g>
				<path fill="#1E3845" d="M453,90.2c1.3,0.5,2.7,0.7,3.9,0.6c1.3-0.1,2.5-0.5,3.5-1.2c-0.2-0.7-0.6-1.4-1-2.1
					c-0.4-0.7-0.8-1.3-1.4-1.9c-0.5-0.6-1.1-1-1.8-1.4c-0.3-0.2-0.6-0.4-1-0.5c-0.3-0.1-0.7-0.3-1.1-0.4c-2.9-0.8-5.4,0.1-7.1,1.9
					c0.3,0.6,0.6,1.1,1,1.6c0.4,0.5,0.9,1,1.3,1.4C450.5,89,451.8,89.7,453,90.2z"/>
				<path fill="#1E3845" d="M467.2,82.8c-0.2,1.7-0.8,3-1.7,4c-0.9,1-2,1.6-3.2,1.9c-0.4-0.7-0.8-1.4-1.1-2.1
					c-0.3-0.7-0.6-1.5-0.8-2.3c-0.2-0.8-0.4-1.6-0.5-2.4c0-0.4-0.1-0.8-0.1-1.2c0-0.4,0-0.8,0-1.2c0.1-3.2,1.5-5.7,3.8-6.7
					c0.6,0.7,1.2,1.5,1.7,2.3c0.5,0.8,0.9,1.6,1.2,2.5C467.1,79.4,467.4,81.1,467.2,82.8z"/>
			</g>
			<g>
				<path fill="#1E3845" d="M456.8,100c2.4,1.5,5.1,2,7.4,1c0-0.8-0.2-1.5-0.5-2.3c-0.2-0.7-0.5-1.5-0.9-2.1
					c-0.8-1.3-1.9-2.4-3.2-3.2c-2.7-1.4-5.3-1.1-7.4,0.3c0.3,1.3,1,2.4,1.7,3.5c0.4,0.5,0.8,1,1.3,1.5
					C455.7,99.1,456.2,99.6,456.8,100z"/>
				<path fill="#1E3845" d="M472.2,95.9c-1.1,3.2-3.5,4.6-6,4.6c-0.2-0.8-0.5-1.5-0.6-2.3c-0.2-0.8-0.2-1.6-0.3-2.4
					c-0.1-1.6,0-3.2,0.5-4.8c0.8-3,2.7-5.2,5.2-5.7c0.9,1.6,1.6,3.5,1.8,5.3c0.1,0.9,0.1,1.8,0.1,2.7
					C472.7,94.2,472.5,95.1,472.2,95.9z"/>
			</g>
			<g>
				<path fill="#1E3845" d="M458.3,110.3c2,2,4.5,3,7,2.6c0.1-0.8,0.1-1.6,0.1-2.3c-0.1-0.8-0.2-1.5-0.4-2.3
					c-0.5-1.5-1.3-2.8-2.4-3.8c-2.3-2-5-2.2-7.3-1.3c0,0.7,0.1,1.3,0.3,1.9c0.2,0.6,0.3,1.3,0.6,1.9c0.3,0.6,0.6,1.2,1,1.7
					C457.4,109.3,457.8,109.8,458.3,110.3z"/>
				<path fill="#1E3845" d="M474.2,109.7c-1.8,2.8-4.5,3.7-6.9,3.2c0-0.8-0.1-1.6-0.1-2.4c0-0.8,0.1-1.6,0.3-2.4
					c0.2-1.6,0.7-3.1,1.5-4.5c1.4-2.8,3.7-4.5,6.3-4.4c0.3,0.9,0.5,1.8,0.6,2.8c0.1,0.9,0.1,1.9,0,2.8c-0.1,0.9-0.2,1.8-0.5,2.6
					C475.1,108.2,474.7,109,474.2,109.7z"/>
			</g>
			<g>
				<path fill="#1E3845" d="M457.5,120.8c1.5,2.4,3.7,3.9,6.2,4c0.3-0.7,0.5-1.5,0.6-2.3c0.1-0.8,0.1-1.6,0.1-2.3
					c-0.2-1.5-0.7-3-1.5-4.2c-1.8-2.4-4.4-3.2-6.8-2.9c-0.1,0.6-0.2,1.3-0.1,1.9c0,0.7,0,1.3,0.2,1.9c0.1,0.6,0.3,1.3,0.6,1.9
					C456.9,119.6,457.2,120.2,457.5,120.8z"/>
				<path fill="#1E3845" d="M473.2,123.7c-2.3,2.4-5.2,2.7-7.4,1.6c0.1-0.8,0.3-1.6,0.4-2.4c0.2-0.8,0.4-1.6,0.8-2.3
					c0.6-1.5,1.4-2.9,2.5-4.1c2-2.4,4.6-3.5,7.1-2.9c0.1,0.9,0.1,1.9,0,2.8c-0.1,0.9-0.3,1.9-0.6,2.7c-0.3,0.9-0.6,1.7-1.1,2.5
					C474.4,122.4,473.8,123.1,473.2,123.7z"/>
			</g>
			<g>
				<path fill="#1E3845" d="M454.5,130.8c0.2,0.7,0.5,1.3,0.9,1.9c0.3,0.6,0.7,1.1,1.2,1.5c0.9,0.9,1.9,1.6,3.2,1.9
					c0.9-1.3,1.4-2.8,1.6-4.3c0.2-1.5,0-3.1-0.5-4.4c-1.2-2.8-3.6-4.1-6-4.3c-0.3,0.6-0.4,1.2-0.6,1.9c-0.2,0.6-0.3,1.3-0.3,1.9
					C453.9,128.1,454,129.4,454.5,130.8z"/>
				<path fill="#1E3845" d="M469.2,137.1c-0.7,0.5-1.4,0.8-2.1,1c-0.7,0.2-1.4,0.3-2,0.2c-1.3-0.1-2.5-0.5-3.5-1.3
					c0.6-1.5,1.2-3,2.2-4.3c0.9-1.3,2-2.5,3.3-3.5c2.5-1.9,5.3-2.4,7.5-1.3c-0.1,0.9-0.4,1.9-0.6,2.8c-0.3,0.9-0.7,1.7-1.2,2.5
					C471.9,134.9,470.6,136.2,469.2,137.1z"/>
			</g>
			<g>
				<path fill="#1E3845" d="M449.4,139.9c0.3,2.8,1.7,5.1,3.9,6.3c0.6-0.5,1.1-1.1,1.5-1.8c0.4-0.7,0.8-1.4,1-2.1
					c0.6-1.4,0.7-3,0.4-4.4c-0.2-1.4-0.9-2.7-1.8-3.6c-0.9-0.9-2-1.6-3.1-1.9C449.8,134.5,449,137.1,449.4,139.9z"/>
				<path fill="#1E3845" d="M462.3,149.2c-3.2,1.1-5.8,0.2-7.4-1.7c0.4-0.7,0.9-1.3,1.4-1.9c0.5-0.6,1-1.2,1.6-1.8
					c1.2-1.1,2.5-2,4-2.7c1.5-0.6,2.9-1,4.2-0.9c1.3,0.1,2.5,0.5,3.5,1.3C468.3,145.1,465.4,148.1,462.3,149.2z"/>
			</g>
			<g>
				<path fill="#1E3845" d="M442.3,147.7c-0.3,2.7,0.5,5.4,2.4,7c1.3-0.8,2.5-1.9,3.3-3.2c0.4-0.7,0.8-1.3,1-2
					c0.2-0.7,0.4-1.5,0.4-2.2c0.1-1.5-0.3-2.8-0.9-3.9c-0.7-1.1-1.6-2-2.7-2.6c-0.2,0.2-0.5,0.5-0.7,0.7c-0.2,0.2-0.4,0.5-0.6,0.7
					c-0.4,0.5-0.8,1.1-1,1.7C442.9,144.9,442.4,146.2,442.3,147.7z"/>
				<path fill="#1E3845" d="M452.9,159.6c-3.4,0.4-5.7-1.1-6.9-3.3c1.1-1.2,2.5-2.1,3.8-3c0.7-0.4,1.4-0.7,2.2-1
					c0.7-0.3,1.5-0.5,2.3-0.7c1.6-0.3,3-0.3,4.3,0.1c1.3,0.3,2.3,1,3.1,2c-0.3,0.4-0.5,0.8-0.8,1.2c-0.3,0.4-0.6,0.7-1,1
					c-0.7,0.7-1.4,1.3-2.1,1.8C456.2,158.7,454.5,159.4,452.9,159.6z"/>
			</g>
			<path fill="#1E3845" d="M444,63.5c1.5,1.1,2.7,2.3,3.5,3.7c0.4,0.7,0.7,1.4,0.9,2.1c0.2,0.7,0.3,1.4,0.3,2.1
				c-0.7,0.1-1.4,0-2.1-0.1c-0.7-0.1-1.4-0.2-2.1-0.4c-1.4-0.5-2.8-1-4.1-2c-0.6-0.5-1.3-0.9-1.8-1.5c-0.6-0.5-1-1.1-1.5-1.7
				c-0.9-1.1-1.6-2.4-2-3.8c1.3-0.5,2.8-0.6,4.4-0.4c0.8,0.1,1.6,0.4,2.4,0.7C442.4,62.6,443.3,63,444,63.5z"/>
		</g>
		<g>
			<g>
				<path fill="#1E3845" d="M386.1,153.7c0.9,2.6,0.7,5.4-0.8,7.4c-2.9-1-5.5-3.4-6.2-6.3c-0.4-1.4-0.3-2.8,0-4
					c0.4-1.2,1.1-2.3,2-3.1c0.6,0.3,1.1,0.7,1.6,1.1c0.5,0.4,0.9,0.9,1.4,1.4c0.4,0.5,0.8,1,1.1,1.6
					C385.6,152.4,385.9,153,386.1,153.7z"/>
				<path fill="#1E3845" d="M386.1,153.7c0.9,2.6,0.7,5.4-0.8,7.4c-2.9-1-5.5-3.4-6.2-6.3c-0.4-1.4-0.3-2.8,0-4
					c0.4-1.2,1.1-2.3,2-3.1c0.6,0.3,1.1,0.7,1.6,1.1c0.5,0.4,0.9,0.9,1.4,1.4c0.4,0.5,0.8,1,1.1,1.6
					C385.6,152.4,385.9,153,386.1,153.7z"/>
				<path fill="#1E3845" d="M378.4,167.6c3.4-0.4,5.3-2.3,6-4.7c-2.7-1.8-5.9-2.8-9.1-2.8c-1.6,0-3,0.4-4.2,1
					c-1.1,0.6-2,1.5-2.6,2.7c0.7,0.7,1.4,1.2,2.2,1.7c0.8,0.5,1.6,1,2.5,1.3c0.9,0.3,1.7,0.6,2.6,0.7
					C376.7,167.7,377.6,167.7,378.4,167.6z"/>
			</g>
			<g>
				<path fill="#1E3845" d="M372.6,81.5c-2.7,0.4-5.4-0.4-7.1-2.3c0.8-1.3,1.8-2.6,3.2-3.4c0.6-0.4,1.3-0.8,2-1
					c0.7-0.3,1.5-0.4,2.2-0.4c2.9-0.2,5.3,1.3,6.5,3.4c-0.5,0.5-0.9,0.9-1.4,1.4c-0.5,0.4-1.1,0.8-1.6,1.1
					C375.3,80.9,374,81.3,372.6,81.5z"/>
				<path fill="#1E3845" d="M360.4,71.2c-0.3,3.4,1.2,5.7,3.5,6.8c1.2-1.1,2.1-2.5,2.9-3.9c0.4-0.7,0.7-1.4,1-2.2
					c0.3-0.8,0.5-1.5,0.6-2.3c0.5-3.2-0.2-5.8-2.3-7.3c-0.8,0.5-1.5,1.2-2.1,1.8c-0.6,0.7-1.2,1.4-1.8,2.2
					C361.3,67.9,360.6,69.5,360.4,71.2z"/>
			</g>
			<g>
				<path fill="#1E3845" d="M366.8,90.2c-1.3,0.5-2.7,0.7-3.9,0.6c-1.3-0.1-2.5-0.5-3.5-1.2c0.2-0.7,0.6-1.4,1-2.1
					c0.4-0.7,0.8-1.3,1.4-1.9c0.5-0.6,1.1-1,1.8-1.4c0.3-0.2,0.6-0.4,1-0.5c0.3-0.1,0.7-0.3,1.1-0.4c2.9-0.8,5.4,0.1,7.1,1.9
					c-0.3,0.6-0.6,1.1-1,1.6c-0.4,0.5-0.9,1-1.3,1.4C369.3,89,368.1,89.7,366.8,90.2z"/>
				<path fill="#1E3845" d="M352.7,82.8c0.2,1.7,0.8,3,1.7,4c0.9,1,2,1.6,3.2,1.9c0.4-0.7,0.8-1.4,1.1-2.1c0.3-0.7,0.6-1.5,0.8-2.3
					c0.2-0.8,0.4-1.6,0.5-2.4c0-0.4,0.1-0.8,0.1-1.2c0-0.4,0-0.8,0-1.2c-0.1-3.2-1.5-5.7-3.8-6.7c-0.6,0.7-1.2,1.5-1.7,2.3
					c-0.5,0.8-0.9,1.6-1.2,2.5C352.8,79.4,352.4,81.1,352.7,82.8z"/>
			</g>
			<g>
				<path fill="#1E3845" d="M363,100c-2.4,1.5-5.1,2-7.4,1c0-0.8,0.2-1.5,0.5-2.3c0.2-0.7,0.5-1.5,0.9-2.1c0.8-1.3,1.9-2.4,3.2-3.2
					c2.7-1.4,5.3-1.1,7.4,0.3c-0.3,1.3-1,2.4-1.7,3.5c-0.4,0.5-0.8,1-1.3,1.5C364.1,99.1,363.6,99.6,363,100z"/>
				<path fill="#1E3845" d="M347.6,95.9c1.1,3.2,3.5,4.6,6,4.6c0.2-0.8,0.5-1.5,0.6-2.3c0.2-0.8,0.2-1.6,0.3-2.4
					c0.1-1.6,0-3.2-0.5-4.8c-0.8-3-2.7-5.2-5.2-5.7c-0.9,1.6-1.6,3.5-1.8,5.3c-0.1,0.9-0.1,1.8-0.1,2.7
					C347.1,94.2,347.3,95.1,347.6,95.9z"/>
			</g>
			<g>
				<path fill="#1E3845" d="M361.5,110.3c-2,2-4.5,3-7,2.6c-0.1-0.8-0.1-1.6-0.1-2.3c0.1-0.8,0.2-1.5,0.4-2.3
					c0.5-1.5,1.3-2.8,2.4-3.8c2.3-2,5-2.2,7.3-1.3c0,0.7-0.1,1.3-0.3,1.9c-0.2,0.6-0.3,1.3-0.6,1.9c-0.3,0.6-0.6,1.2-1,1.7
					C362.4,109.3,362,109.8,361.5,110.3z"/>
				<path fill="#1E3845" d="M345.6,109.7c1.8,2.8,4.5,3.7,6.9,3.2c0-0.8,0.1-1.6,0.1-2.4c0-0.8-0.1-1.6-0.3-2.4
					c-0.2-1.6-0.7-3.1-1.5-4.5c-1.4-2.8-3.7-4.5-6.3-4.4c-0.3,0.9-0.5,1.8-0.6,2.8c-0.1,0.9-0.1,1.9,0,2.8c0.1,0.9,0.2,1.8,0.5,2.6
					C344.8,108.2,345.1,109,345.6,109.7z"/>
			</g>
			<g>
				<path fill="#1E3845" d="M362.3,120.8c-1.5,2.4-3.7,3.9-6.2,4c-0.3-0.7-0.5-1.5-0.6-2.3c-0.1-0.8-0.1-1.6-0.1-2.3
					c0.2-1.5,0.7-3,1.5-4.2c1.8-2.4,4.4-3.2,6.8-2.9c0.1,0.6,0.2,1.3,0.1,1.9c0,0.7,0,1.3-0.2,1.9c-0.1,0.6-0.3,1.3-0.6,1.9
					C362.9,119.6,362.7,120.2,362.3,120.8z"/>
				<path fill="#1E3845" d="M346.6,123.7c2.3,2.4,5.2,2.7,7.4,1.6c-0.1-0.8-0.3-1.6-0.4-2.4c-0.2-0.8-0.4-1.6-0.8-2.3
					c-0.6-1.5-1.4-2.9-2.5-4.1c-2-2.4-4.6-3.5-7.1-2.9c-0.1,0.9-0.1,1.9,0,2.8c0.1,0.9,0.3,1.9,0.6,2.7c0.3,0.9,0.6,1.7,1.1,2.5
					C345.5,122.4,346,123.1,346.6,123.7z"/>
			</g>
			<g>
				<path fill="#1E3845" d="M365.3,130.8c-0.2,0.7-0.5,1.3-0.9,1.9c-0.3,0.6-0.7,1.1-1.2,1.5c-0.9,0.9-1.9,1.6-3.2,1.9
					c-0.9-1.3-1.4-2.8-1.6-4.3c-0.2-1.5,0-3.1,0.5-4.4c1.2-2.8,3.6-4.1,6-4.3c0.3,0.6,0.4,1.2,0.6,1.9c0.2,0.6,0.3,1.3,0.3,1.9
					C365.9,128.1,365.8,129.4,365.3,130.8z"/>
				<path fill="#1E3845" d="M350.7,137.1c0.7,0.5,1.4,0.8,2.1,1c0.7,0.2,1.4,0.3,2,0.2c1.3-0.1,2.5-0.5,3.5-1.3
					c-0.6-1.5-1.2-3-2.2-4.3c-0.9-1.3-2-2.5-3.3-3.5c-2.5-1.9-5.3-2.4-7.5-1.3c0.1,0.9,0.4,1.9,0.6,2.8c0.3,0.9,0.7,1.7,1.2,2.5
					C348,134.9,349.3,136.2,350.7,137.1z"/>
			</g>
			<g>
				<path fill="#1E3845" d="M370.5,139.9c-0.3,2.8-1.7,5.1-3.9,6.3c-0.6-0.5-1.1-1.1-1.5-1.8c-0.4-0.7-0.8-1.4-1-2.1
					c-0.6-1.4-0.7-3-0.4-4.4c0.2-1.4,0.9-2.7,1.8-3.6c0.9-0.9,2-1.6,3.1-1.9C370,134.5,370.8,137.1,370.5,139.9z"/>
				<path fill="#1E3845" d="M357.6,149.2c3.2,1.1,5.8,0.2,7.4-1.7c-0.4-0.7-0.9-1.3-1.4-1.9c-0.5-0.6-1-1.2-1.6-1.8
					c-1.2-1.1-2.5-2-4-2.7c-1.5-0.6-2.9-1-4.2-0.9c-1.3,0.1-2.5,0.5-3.5,1.3C351.6,145.1,354.4,148.1,357.6,149.2z"/>
			</g>
			<g>
				<path fill="#1E3845" d="M377.5,147.7c0.3,2.7-0.5,5.4-2.4,7c-1.3-0.8-2.5-1.9-3.3-3.2c-0.4-0.7-0.8-1.3-1-2
					c-0.2-0.7-0.4-1.5-0.4-2.2c-0.1-1.5,0.3-2.8,0.9-3.9c0.7-1.1,1.6-2,2.7-2.6c0.2,0.2,0.5,0.5,0.7,0.7c0.2,0.2,0.4,0.5,0.6,0.7
					c0.4,0.5,0.8,1.1,1,1.7C377,144.9,377.4,146.2,377.5,147.7z"/>
				<path fill="#1E3845" d="M367,159.6c3.4,0.4,5.7-1.1,6.9-3.3c-1.1-1.2-2.5-2.1-3.8-3c-0.7-0.4-1.4-0.7-2.2-1
					c-0.7-0.3-1.5-0.5-2.3-0.7c-1.6-0.3-3-0.3-4.3,0.1c-1.3,0.3-2.3,1-3.1,2c0.3,0.4,0.5,0.8,0.8,1.2c0.3,0.4,0.6,0.7,1,1
					c0.7,0.7,1.4,1.3,2.1,1.8C363.6,158.7,365.3,159.4,367,159.6z"/>
			</g>
			<path fill="#1E3845" d="M375.8,63.5c-1.5,1.1-2.7,2.3-3.5,3.7c-0.4,0.7-0.7,1.4-0.9,2.1c-0.2,0.7-0.3,1.4-0.3,2.1
				c0.7,0.1,1.4,0,2.1-0.1c0.7-0.1,1.4-0.2,2.1-0.4c1.4-0.5,2.8-1,4.1-2c0.6-0.5,1.3-0.9,1.8-1.5c0.6-0.5,1-1.1,1.5-1.7
				c0.9-1.1,1.6-2.4,2-3.8c-1.3-0.5-2.8-0.6-4.4-0.4c-0.8,0.1-1.6,0.4-2.4,0.7C377.4,62.6,376.6,63,375.8,63.5z"/>
		</g>
	</g>
	<g>
		<path fill="#1E3845" d="M646.4,173.3l-14.4,7.6c-2,1-4.2-0.6-3.9-2.8l2.8-16.1c0.1-0.9-0.1-1.7-0.8-2.4l-11.7-11.4
			c-1.6-1.5-0.7-4.2,1.5-4.5l16.1-2.3c0.9-0.1,1.6-0.7,2-1.5l7.2-14.6c1-2,3.8-2,4.8,0l7.2,14.6c0.4,0.8,1.1,1.3,2,1.5l16.1,2.3
			c2.2,0.3,3.1,3,1.5,4.5l-11.7,11.4c-0.6,0.6-0.9,1.5-0.8,2.4l2.8,16.1c0.4,2.2-1.9,3.8-3.9,2.8l-14.4-7.6
			C648.1,172.9,647.2,172.9,646.4,173.3z"/>
		<g>
			<path fill="#1E3845" d="M631.5,48h-5.7v59.5c0,1.1,0.6,2,1.6,2.5l4.1,2V48z"/>
			<path fill="#1E3845" d="M663.8,48v64.1l4.1-2c1-0.5,1.6-1.4,1.6-2.5V48H663.8z"/>
			<path fill="#1E3845" d="M661,48h-26.7v65.4l12.1,5.9c0.8,0.4,1.7,0.4,2.5,0l12.1-5.9V48z"/>
		</g>
	</g>
	<g>
		<g>
			<path fill="#1E3845" d="M631.5,231h-5.7v59.5c0,1.1,0.6,2,1.6,2.5l4.1,2V231z"/>
			<path fill="#1E3845" d="M663.8,231v64.1l4.1-2c1-0.5,1.6-1.4,1.6-2.5V231H663.8z"/>
			<path fill="#1E3845" d="M661,231h-26.7v65.4l12.1,5.9c0.8,0.4,1.7,0.4,2.5,0l12.1-5.9V231z"/>
		</g>
		<g>
			<circle fill="#1E3845" cx="647.6" cy="335.5" r="28.7"/>
			<circle fill="#FFFFFF" cx="647.6" cy="335.5" r="21.4"/>
			<path fill="#1E3845" d="M650.1,346.5v-22.3c0-2.5-2-4.5-4.5-4.5h-3.3v5h2.8v21.8H640v5h15.2v-5H650.1z"/>
		</g>
	</g>
	<g>
		<rect x="144.1" y="509.4" fill="#1E3845" width="56.2" height="29.3"/>
		<rect x="139.1" y="541.1" fill="#1E3845" width="66.2" height="6.2"/>
		<g>
			<path fill="#1E3845" d="M187,419.1c-10.7-8.2-26-6.1-34.2,4.6c-8.2,10.7-6.1,26,4.6,34.2c10.7,8.2,26,6.1,34.2-4.6
				C199.7,442.5,197.7,427.2,187,419.1z M189.8,451.9c-7.5,9.7-21.4,11.6-31.1,4.2c-9.7-7.5-11.6-21.4-4.2-31.1
				c7.5-9.7,21.4-11.6,31.1-4.2C195.4,428.2,197.3,442.2,189.8,451.9z"/>
			<path fill="#1E3845" d="M181.3,461l-8.8-6.7l-0.1-6.3l8.9-6.2l5.8,1.9l3.2,10.9c0.4-0.5,0.9-1,1.3-1.5c3.7-4.8,5.3-10.6,5-16.2
				l-8.9,6.2l-6.1-2l-3.1-10.2l3.5-4.6l11.2,0.3l0.1-0.2c-1.6-2.7-3.7-5.2-6.3-7.2c-2.7-2-5.6-3.4-8.6-4.2l-0.2,0.1l3.2,10.8
				l-3.5,4.6l-10.7-0.3l-3.7-4.9l3.7-10.6c-5.5,1.2-10.7,4.2-14.4,9c-0.4,0.5-0.8,1.1-1.1,1.6l10.9,0.3l3.8,5.1l-3.6,10.2l-6.1,1.5
				l-8.8-6.7c-0.7,6.4,1.1,13,5.3,18.2l0.1,0l3.8-10.7l6.1-1.5l8.3,6.3l0.2,6.3l-9.3,6.4l0,0.1C168.5,463.4,175.3,463.4,181.3,461z"
				/>
		</g>
		<path fill="#1E3845" d="M190.3,453.7c-8.2,9.5-22.6,11.1-32.7,3.4c-1.3-1-2.5-2.2-3.6-3.4h-0.7c9.4,20.8,7.4,53.3,7.4,53.3h11.4
			h11.4c0,0-2-32.5,7.4-53.3H190.3z"/>
	</g>
	<g>
		<rect x="386.9" y="541.1" fill="#1E3845" width="46.1" height="6.2"/>
		<path fill="#1E3845" d="M409.9,519.5c-10.6,0-19.3,8.6-19.3,19.3h38.5C429.2,528.1,420.5,519.5,409.9,519.5z"/>
		<path fill="#1E3845" d="M429.3,444.5c-1.1-4.9-14.8-8-14.8-8v-2.7c0,0,4.6-4.6,4.6-12.9c0-8.4-9.1-6.8-9.1-6.8s-9.1-1.5-9.1,6.8
			c0,8.4,4.6,12.9,4.6,12.9v2.7c0,0-13.7,3-14.8,8c-1.1,4.9,5.3,25.2,6.5,32.7c2,13.3,2,48.6,2,48.6h10.9h10.9c0,0,0-35.3,2-48.6
			C424,469.7,430.4,449.5,429.3,444.5z"/>
	</g>
	<g>
		<rect x="629.2" y="520.6" fill="#1E3845" width="36.8" height="18.1"/>
		<rect x="625.2" y="541.1" fill="#1E3845" width="44.9" height="6.2"/>
		<path fill="#1E3845" d="M648.3,414h-1.4h-35c0,0,0,39,25.8,69.6h9.2h1.4h9.1c25.8-30.6,25.8-69.6,25.8-69.6H648.3z"/>
		<path fill="#1E3845" d="M653,494.9c0-5.9,4.5-7.1,4.5-7.1v-4.1l-9.9-4.8l-9.9,4.8v4.1c0,0,4.5,1.2,4.5,7.1
			c0,5.9-1.5,22.8-12.4,27.5h17.8h17.8C654.4,517.7,653,500.8,653,494.9z"/>
		<g>
			<path fill="#1E3845" d="M620.7,423.7h-28.2c0,0,0.8,32.2,37.9,43.5L620.7,423.7z M598.6,429h17.8l6.6,29.6
				C605.9,450.3,600.4,436.6,598.6,429z"/>
			<path fill="#1E3845" d="M664.9,467.2c37.1-11.3,37.9-43.5,37.9-43.5h-28.2L664.9,467.2z M672.2,458.6l6.6-29.6h17.8
				C694.9,436.6,689.4,450.3,672.2,458.6z"/>
		</g>
	</g>
</g>
</svg>
