<svg width="355" height="223" viewBox="0 0 355 223" fill="none" xmlns="http://www.w3.org/2000/svg">
<path d="M14.04 68.36C11.64 68.36 9.84 68 8.64 67.28C7.44 66.56 6.66 65.57 6.3 64.31C5.94 62.99 5.76 61.22 5.76 59L5.85 53.42L6.3 42.8L6.57 34.88V21.74C3.69 21.74 2.04 21.26 1.62 20.3C1.44 19.82 1.35 19.31 1.35 18.77C1.35 18.17 1.38 17.6 1.44 17.06C1.56 16.52 1.62 16.01 1.62 15.53C2.7 15.59 4.35 15.62 6.57 15.62L6.66 15.26L6.75 11.84V7.97C6.69 6.53 6.78 5.57 7.02 5.08999C7.32 4.55 7.74 4.28 8.28 4.28C8.58 4.28 8.82 4.31 9 4.37H9.18C9.3 4.37 9.51 4.37 9.81 4.37C10.11 4.31 10.38 4.34 10.62 4.46C11.82 4.64 12.42 5.15 12.42 5.99C12.42 6.17 12.36 6.86 12.24 8.06C11.94 10.16 11.73 12.68 11.61 15.62H20.25C20.73 15.62 21.12 16.04 21.42 16.88C21.72 17.66 21.87 18.5 21.87 19.4C21.87 20.6 21.6 21.29 21.06 21.47C19.92 21.83 18.54 22.01 16.92 22.01C15.48 22.01 13.68 21.89 11.52 21.65V42.98L11.43 46.58C11.25 48.92 11.16 51.35 11.16 53.87V55.67C11.16 57.59 11.58 59.03 12.42 59.99C13.26 60.89 14.37 61.34 15.75 61.34C17.07 61.34 18.21 61.31 19.17 61.25C20.13 61.13 20.82 61.07 21.24 61.07C21.9 61.07 22.23 62.24 22.23 64.58L22.59 66.02C22.77 66.44 22.74 66.68 22.5 66.74C20.58 67.46 19.14 67.91 18.18 68.09C17.28 68.27 15.9 68.36 14.04 68.36ZM51.5215 69.98C43.6015 69.98 38.3215 66.95 35.6815 60.89C33.0415 54.77 31.7215 48.23 31.7215 41.27C31.7215 34.55 32.7415 29.18 34.7815 25.16C36.8215 21.08 39.2815 18.23 42.1615 16.61C45.1015 14.99 48.0415 14.18 50.9815 14.18C56.5015 14.18 60.6715 15.65 63.4915 18.59C66.3115 21.47 68.1115 24.92 68.8915 28.94C69.6715 32.9 70.0615 37.37 70.0615 42.35C70.0615 46.37 69.3715 50.54 67.9915 54.86C66.6715 59.12 64.6015 62.72 61.7815 65.66C59.0215 68.54 55.6015 69.98 51.5215 69.98ZM50.8915 52.52C52.8715 52.52 54.3115 51.59 55.2115 49.73C56.1715 47.87 56.6515 45.62 56.6515 42.98C56.6515 39.56 56.2015 37.16 55.3015 35.78C54.4615 34.34 53.1715 33.62 51.4315 33.62C47.7115 33.62 45.8515 36.98 45.8515 43.7C45.8515 46.22 46.1815 48.32 46.8415 50C47.5015 51.68 48.8515 52.52 50.8915 52.52ZM91.1088 69.62C90.3288 69.62 89.8488 68.93 89.6688 67.55C89.6088 67.31 89.4288 66.83 89.1288 66.11C88.8888 65.33 88.5588 63.89 88.1388 61.79C87.9588 60.83 87.5088 58.76 86.7888 55.58C86.1288 52.34 85.5888 49.76 85.1688 47.84C84.3888 44.72 83.7588 41.87 83.2788 39.29C82.7388 36.95 82.2888 34.88 81.9288 33.08C80.1888 25.16 79.1988 20.81 78.9588 20.03C78.7188 18.59 78.5988 17.78 78.5988 17.6C78.5988 17 78.7188 16.58 78.9588 16.34C79.1988 16.1 79.5288 15.92 79.9488 15.8L82.4688 15.62C84.2688 15.38 85.7088 15.26 86.7888 15.26C87.7488 15.26 88.3488 15.41 88.5888 15.71C88.8888 16.01 89.0688 16.37 89.1288 16.79C89.1888 17.15 89.2488 17.42 89.3088 17.6C89.4888 18.2 89.6088 18.95 89.6688 19.85C89.7888 20.39 89.9088 21.05 90.0288 21.83C90.1488 22.55 90.3288 23.42 90.5688 24.44L92.1888 30.38C93.0888 33.32 93.7488 35.72 94.1688 37.58C94.3488 38.3 94.4988 39.14 94.6188 40.1C94.7388 40.94 94.8888 41.72 95.0688 42.44C95.2488 43.16 95.4588 43.52 95.6988 43.52H95.8788C96.4788 43.22 97.3788 41.78 98.5788 39.2L99.4788 37.4L101.099 34.52C103.019 31.4 104.069 29.54 104.249 28.94C104.729 28.1 105.149 27.5 105.509 27.14C105.929 26.72 106.349 26.51 106.769 26.51C107.069 26.51 107.279 26.6 107.399 26.78C107.519 26.96 107.609 27.32 107.669 27.86C107.789 28.4 107.909 28.85 108.029 29.21C108.089 29.69 108.179 30.17 108.299 30.65C108.419 31.13 108.509 31.61 108.569 32.09C108.989 33.89 109.319 35.66 109.559 37.4C109.919 39.02 110.399 40.46 110.999 41.72C111.179 42.38 111.449 42.98 111.809 43.52C111.929 42.92 112.079 42.47 112.259 42.17L113.069 39.74C113.069 39.62 113.339 38.72 113.879 37.04C114.779 33.86 115.289 31.97 115.409 31.37C115.829 29.63 116.489 27.11 117.389 23.81C118.349 20.45 119.039 18.23 119.459 17.15C119.699 16.25 119.999 15.71 120.359 15.53C120.779 15.29 121.229 15.2 121.709 15.26C122.249 15.26 122.609 15.26 122.789 15.26H128.819C129.779 15.26 130.259 15.59 130.259 16.25C130.259 16.49 130.229 16.73 130.169 16.97C130.109 17.15 130.049 17.36 129.989 17.6C129.869 18.02 129.569 19.01 129.089 20.57C128.669 22.13 128.129 23.93 127.469 25.97C126.389 29.33 125.189 33.62 123.869 38.84L123.419 40.55C123.479 40.25 122.819 43.16 121.439 49.28L119.729 57.02C119.069 59.36 118.199 62 117.119 64.94C116.039 67.88 115.289 69.35 114.869 69.35C114.329 69.35 113.849 68.99 113.429 68.27C113.069 67.55 112.709 66.56 112.349 65.3C111.929 64.46 111.329 62.9 110.549 60.62C109.829 58.34 109.169 56.15 108.569 54.05C108.149 52.37 107.399 49.7 106.319 46.04L104.789 41.36L104.249 42.62C104.129 43.04 103.919 43.52 103.619 44.06C103.379 44.6 103.169 45.05 102.989 45.41L97.9488 55.94C97.5888 56.9 97.2288 57.74 96.8688 58.46C96.6888 58.88 96.2388 59.96 95.5188 61.7C94.7988 63.38 94.3488 64.67 94.1688 65.57C93.7488 66.71 93.2688 67.67 92.7288 68.45C92.1888 69.23 91.6488 69.62 91.1088 69.62ZM151.661 68.99C147.161 68.99 143.621 67.82 141.041 65.48C138.461 63.14 137.171 59.12 137.171 53.42C137.171 47.84 138.881 43.94 142.301 41.72C145.781 39.5 149.741 38.15 154.181 37.67L158.411 37.13C161.231 36.71 163.361 36.5 164.801 36.5V35.33L164.351 30.65C164.051 27.77 163.451 25.88 162.551 24.98C161.651 24.02 160.421 23.54 158.861 23.54C157.721 23.54 155.681 24.23 152.741 25.61C149.801 26.93 146.891 28.58 144.011 30.56C143.951 30.62 143.831 30.65 143.651 30.65C143.411 30.65 143.141 30.44 142.841 30.02C142.361 29.3 141.971 28.31 141.671 27.05C141.551 26.51 141.281 25.88 140.861 25.16C140.501 24.44 140.321 23.9 140.321 23.54C140.321 23.18 140.681 22.76 141.401 22.28C144.761 20.06 147.521 18.41 149.681 17.33C151.901 16.25 153.821 15.53 155.441 15.17C157.061 14.81 158.891 14.63 160.931 14.63C167.351 14.63 172.061 16.85 175.061 21.29C175.661 22.19 176.141 23.18 176.501 24.26C176.861 25.34 177.161 26.39 177.401 27.41C177.701 28.37 177.881 29 177.941 29.3C178.901 33.26 179.291 37.73 179.111 42.71C179.111 47.15 179.051 50.42 178.931 52.52C178.931 53.78 179.051 55.67 179.291 58.19C179.531 60.95 179.621 63.08 179.561 64.58L179.651 65.66C179.651 67.04 179.111 67.73 178.031 67.73C177.311 67.73 175.931 67.79 173.891 67.91C171.851 68.03 170.381 68.09 169.481 68.09C168.881 68.09 168.341 68.12 167.861 68.18C167.381 68.24 166.931 68.27 166.511 68.27C166.271 68.27 166.031 68.18 165.791 68C165.611 67.76 165.521 67.49 165.521 67.19L165.341 66.11C165.281 66.05 165.221 65.93 165.161 65.75C165.161 65.57 165.101 65.42 164.981 65.3C161.621 67.76 157.181 68.99 151.661 68.99ZM150.761 60.44C153.641 60.44 156.311 60.14 158.771 59.54C161.231 58.94 163.241 58.1 164.801 57.02L164.621 49.82C162.581 49.46 161.021 49.25 159.941 49.19C158.921 49.07 157.331 49.01 155.171 49.01C152.591 49.01 150.131 49.49 147.791 50.45C145.511 51.41 144.281 53.45 144.101 56.57C143.981 57.59 144.431 58.49 145.451 59.27C146.471 60.05 148.241 60.44 150.761 60.44ZM206.17 68.27C206.11 68.27 205.63 68.21 204.73 68.09C203.89 67.97 202.75 67.91 201.31 67.91L194.38 68C193.48 68 193.03 67.64 193.03 66.92C193.03 66.68 193.03 65.87 193.03 64.49C193.09 63.11 193.12 60.74 193.12 57.38C193.12 53.96 193.21 50.66 193.39 47.48C193.63 44.3 193.75 42.53 193.75 42.17L194.29 25.88L194.38 16.61C194.38 15.95 194.53 15.59 194.83 15.53C195.13 15.53 195.79 15.56 196.81 15.62C197.83 15.68 199.12 15.71 200.68 15.71C201.88 15.71 203.05 15.68 204.19 15.62C205.39 15.56 206.11 15.53 206.35 15.53C206.53 15.53 206.68 15.65 206.8 15.89C206.98 16.07 207.07 16.22 207.07 16.34L207.25 18.86C209.29 17.54 211.66 16.43 214.36 15.53C217.12 14.57 219.22 14.09 220.66 14.09C221.02 14.09 221.26 14.12 221.38 14.18C221.5 14.24 221.62 14.51 221.74 14.99C221.92 15.41 222.07 15.77 222.19 16.07C222.79 17.57 223.18 19.37 223.36 21.47C223.42 22.43 223.57 23.54 223.81 24.8C223.93 25.34 223.99 26 223.99 26.78C223.99 27.26 223.96 27.53 223.9 27.59C223.42 28.31 222.7 28.82 221.74 29.12C220.78 29.36 219.37 29.6 217.51 29.84C215.17 30.08 213.16 30.44 211.48 30.92L207.52 31.82L207.61 35.42C207.61 37.4 207.64 38.42 207.7 38.48L207.79 46.13C207.91 50.09 207.97 55.49 207.97 62.33C207.97 64.97 207.85 66.74 207.61 67.64C207.61 68.06 207.13 68.27 206.17 68.27ZM249.502 68.99C244.222 68.99 240.172 67.22 237.352 63.68C234.592 60.14 232.792 56.3 231.952 52.16C231.112 47.96 230.692 44.3 230.692 41.18C230.692 33.44 232.192 27.05 235.192 22.01C238.252 16.97 243.022 14.45 249.502 14.45C253.582 14.45 257.332 15.44 260.752 17.42L260.842 7.7L260.932 1.85C260.932 1.43 261.172 1.22 261.652 1.22C262.012 1.22 262.312 1.25 262.552 1.30999C262.852 1.37 263.092 1.4 263.272 1.4L266.152 1.49C266.692 1.49 267.022 1.58 267.142 1.75999C267.262 1.94 267.322 2.21 267.322 2.56999C267.322 2.75 267.322 3.11 267.322 3.65C267.382 4.13 267.412 4.97 267.412 6.17L267.052 16.61C266.752 22.43 266.602 26.42 266.602 28.58V33.44C266.602 34.76 266.632 35.81 266.692 36.59L266.872 59.99L267.052 63.77L267.232 67.1C267.232 67.58 267.112 67.88 266.872 68C266.692 68.12 266.482 68.18 266.242 68.18C266.062 68.18 265.942 68.18 265.882 68.18C265.822 68.18 265.672 68.15 265.432 68.09C265.192 68.03 264.832 68 264.352 68C263.752 68 263.242 68.03 262.822 68.09C262.402 68.15 262.072 68.18 261.832 68.18C261.472 68.18 261.232 68.12 261.112 68C261.052 67.82 261.022 67.43 261.022 66.83V66.74C257.782 68.24 253.942 68.99 249.502 68.99ZM249.862 64.76C254.842 64.76 258.532 62.84 260.932 59V41.27C260.932 35.39 260.902 31.91 260.842 30.83C260.782 29.69 260.752 27.86 260.752 25.34V24.98C259.312 23.06 257.422 21.59 255.082 20.57C252.802 19.49 250.462 18.95 248.062 18.95C246.322 18.95 244.582 19.58 242.842 20.84C241.162 22.1 239.752 24.05 238.612 26.69C237.472 29.33 236.902 32.6 236.902 36.5C236.902 44 237.922 50.6 239.962 56.3C242.062 61.94 245.362 64.76 249.862 64.76ZM296.385 69.53C292.725 69.53 289.695 69.08 287.295 68.18C284.895 67.28 283.425 66.62 282.885 66.2C282.405 65.72 281.295 64.61 279.555 62.87C279.195 62.51 279.105 62.27 279.285 62.15C279.405 61.85 279.615 61.52 279.915 61.16L281.085 59.72C281.385 59.3 281.925 58.61 282.705 57.65C282.885 57.47 283.095 57.38 283.335 57.38C283.575 57.38 283.905 57.53 284.325 57.83C284.745 58.07 285.105 58.34 285.405 58.64C285.465 58.7 285.795 59 286.395 59.54C287.055 60.02 287.985 60.47 289.185 60.89C290.385 61.25 291.705 61.43 293.145 61.43C295.065 61.43 296.715 61.07 298.095 60.35C299.475 59.57 300.165 57.98 300.165 55.58C300.165 53.66 299.745 52.04 298.905 50.72C298.125 49.4 297.135 48.32 295.935 47.48C294.735 46.58 293.085 45.56 290.985 44.42C288.645 43.1 286.755 41.93 285.315 40.91C283.875 39.83 282.645 38.39 281.625 36.59C280.665 34.79 280.185 32.57 280.185 29.93C280.185 26.81 281.025 24.05 282.705 21.65C284.385 19.25 286.665 17.42 289.545 16.16C292.485 14.84 295.725 14.18 299.265 14.18C304.905 14.18 309.165 15.38 312.045 17.78C314.985 20.12 316.515 21.32 316.635 21.38C316.875 21.56 316.995 21.77 316.995 22.01C316.995 22.19 316.935 22.37 316.815 22.55C316.695 22.73 316.605 22.91 316.545 23.09C316.305 23.45 315.885 24.08 315.285 24.98C314.745 25.88 314.295 26.51 313.935 26.87C313.815 27.05 313.665 27.29 313.485 27.59C313.305 27.83 313.125 27.98 312.945 28.04C312.825 28.1 312.645 28.13 312.405 28.13C312.165 28.01 311.325 27.38 309.885 26.24C308.445 25.04 306.825 23.93 305.025 22.91C303.285 21.89 301.785 21.38 300.525 21.38C299.205 21.38 298.275 21.83 297.735 22.73C297.195 23.57 296.925 25.01 296.925 27.05C296.925 28.55 297.285 29.81 298.005 30.83C298.725 31.85 299.415 32.57 300.075 32.99C300.735 33.41 301.995 34.1 303.855 35.06C306.075 35.96 307.995 36.89 309.615 37.85C311.295 38.81 312.885 40.49 314.385 42.89C315.945 45.29 316.725 48.47 316.725 52.43C316.725 63.83 309.945 69.53 296.385 69.53ZM23.94 134.08C17.28 134.08 12.18 131.53 8.64 126.43C5.1 121.27 3.33 114.55 3.33 106.27C3.33 101.05 4.17 96.43 5.85 92.41C7.53 88.39 9.87 85.27 12.87 83.05C15.93 80.83 19.44 79.72 23.4 79.72C27.24 79.72 30.36 80.41 32.76 81.79C35.16 83.17 36.81 84.49 37.71 85.75C37.77 85.81 37.92 86.02 38.16 86.38C38.46 86.68 38.61 86.98 38.61 87.28C38.61 87.58 38.31 88 37.71 88.54C37.17 89.08 36.45 89.92 35.55 91.06C34.95 92.02 34.47 92.5 34.11 92.5C33.93 92.5 33.72 92.38 33.48 92.14C33.24 91.84 33.06 91.63 32.94 91.51C31.86 90.37 30.51 89.29 28.89 88.27C27.33 87.25 25.77 86.74 24.21 86.74C20.91 86.74 18.15 87.28 15.93 88.36C13.71 89.38 11.94 91.45 10.62 94.57C9.3 97.63 8.64 102.04 8.64 107.8C8.64 116.74 10.11 122.56 13.05 125.26C16.05 127.9 19.23 129.22 22.59 129.22C24.15 129.22 26.01 128.56 28.17 127.24C30.39 125.86 32.34 123.61 34.02 120.49C34.56 119.83 34.98 119.5 35.28 119.5C35.58 119.5 35.88 119.62 36.18 119.86L37.53 120.94C38.07 121.42 38.64 122.05 39.24 122.83C39.9 123.61 40.23 124.18 40.23 124.54C40.23 124.78 40.14 125.05 39.96 125.35C38.76 127.27 36.9 129.22 34.38 131.2C31.86 133.12 28.38 134.08 23.94 134.08ZM69.1875 134.98C61.2675 134.98 55.9875 131.95 53.3475 125.89C50.7075 119.77 49.3875 113.23 49.3875 106.27C49.3875 99.55 50.4075 94.18 52.4475 90.16C54.4875 86.08 56.9475 83.23 59.8275 81.61C62.7675 79.99 65.7075 79.18 68.6475 79.18C74.1675 79.18 78.3375 80.65 81.1575 83.59C83.9775 86.47 85.7775 89.92 86.5575 93.94C87.3375 97.9 87.7275 102.37 87.7275 107.35C87.7275 111.37 87.0375 115.54 85.6575 119.86C84.3375 124.12 82.2675 127.72 79.4475 130.66C76.6875 133.54 73.2675 134.98 69.1875 134.98ZM68.5575 117.52C70.5375 117.52 71.9775 116.59 72.8775 114.73C73.8375 112.87 74.3175 110.62 74.3175 107.98C74.3175 104.56 73.8675 102.16 72.9675 100.78C72.1275 99.34 70.8375 98.62 69.0975 98.62C65.3775 98.62 63.5175 101.98 63.5175 108.7C63.5175 111.22 63.8475 113.32 64.5075 115C65.1675 116.68 66.5175 117.52 68.5575 117.52ZM153.955 133.27C153.535 133.21 153.325 132.97 153.325 132.55V132.28L153.415 130.75C153.235 128.23 153.145 124.27 153.145 118.87C153.145 117.01 153.175 115.57 153.235 114.55L153.325 109.33C153.325 108.01 153.205 105.82 152.965 102.76C152.785 99.7 152.605 97.6 152.425 96.46C152.065 94.48 151.285 93.19 150.085 92.59C148.945 91.93 147.235 91.6 144.955 91.6C143.815 91.6 142.525 91.72 141.085 91.96C139.645 92.2 138.625 92.47 138.025 92.77C138.145 95.77 138.205 98.23 138.205 100.15C138.205 104.71 138.115 108.79 137.935 112.39L137.845 118.33C137.845 118.75 137.845 119.89 137.845 121.75C137.905 123.55 137.935 126.58 137.935 130.84C137.935 131.08 137.965 131.32 138.025 131.56C138.085 131.8 138.115 132.07 138.115 132.37C138.055 132.85 137.605 133.09 136.765 133.09C136.225 133.09 135.445 133.06 134.425 133C133.465 132.88 132.565 132.82 131.725 132.82C130.885 132.82 130.075 132.88 129.295 133C128.515 133.06 127.915 133.09 127.495 133.09C127.075 133.03 126.865 132.79 126.865 132.37V132.1L126.955 130.57C126.775 128.05 126.685 124.15 126.685 118.87C126.685 117.01 126.715 115.57 126.775 114.55L126.865 109.33L126.955 102.22C126.955 100 126.895 98.59 126.775 97.99C126.415 95.95 125.395 94.39 123.715 93.31C122.095 92.17 120.205 91.6 118.045 91.6C116.845 91.6 115.555 91.78 114.175 92.14C112.855 92.5 111.895 92.95 111.295 93.49C111.295 98.53 111.325 101.71 111.385 103.03V115.18C111.565 120.04 111.655 123.64 111.655 125.98C111.655 129.16 111.505 131.35 111.205 132.55C111.205 132.97 110.725 133.18 109.765 133.18C109.585 133.18 109.315 133.12 108.955 133C108.595 132.88 107.905 132.82 106.885 132.82C105.745 132.82 104.725 132.85 103.825 132.91C102.985 132.97 102.325 133 101.845 133C100.945 133 100.495 132.64 100.495 131.92C100.495 131.86 100.495 131.74 100.495 131.56C100.555 131.32 100.585 130.96 100.585 130.48L100.405 123.55C100.165 114.19 100.075 108.73 100.135 107.17C100.195 106.75 100.225 105.73 100.225 104.11L100.135 96.64C100.015 92.44 99.9548 89.29 99.9548 87.19C99.9548 85.15 99.9848 83.71 100.045 82.87L99.9548 81.61C99.9548 80.95 100.105 80.59 100.405 80.53C100.825 80.53 101.455 80.56 102.295 80.62C103.195 80.68 104.215 80.71 105.355 80.71C106.375 80.71 107.305 80.68 108.145 80.62C108.985 80.56 109.585 80.53 109.945 80.53C110.125 80.53 110.275 80.65 110.395 80.89C110.575 81.07 110.665 81.22 110.665 81.34V82.51C112.105 81.61 114.145 80.83 116.785 80.17C119.485 79.51 121.795 79.18 123.715 79.18C126.175 79.18 127.915 79.3 128.935 79.54C130.015 79.72 131.395 80.2 133.075 80.98L135.235 82.33C136.795 81.49 138.835 80.77 141.355 80.17C143.935 79.51 146.245 79.18 148.285 79.18C151.285 79.18 153.625 79.51 155.305 80.17C156.985 80.83 158.635 82.21 160.255 84.31C161.755 86.17 162.865 89.02 163.585 92.86C164.305 96.64 164.665 100.72 164.665 105.1C164.665 107.44 164.605 110.35 164.485 113.83C164.365 116.23 164.305 117.73 164.305 118.33C164.305 118.75 164.305 119.86 164.305 121.66C164.365 123.46 164.395 126.46 164.395 130.66C164.395 130.9 164.425 131.14 164.485 131.38C164.545 131.62 164.575 131.89 164.575 132.19C164.575 132.61 164.275 132.85 163.675 132.91C162.895 132.97 161.305 133 158.905 133C158.005 133 157.015 133.06 155.935 133.18C155.455 133.24 154.795 133.27 153.955 133.27ZM179.44 133C179.14 133 178.9 132.91 178.72 132.73C178.6 132.55 178.54 132.22 178.54 131.74V114.19V106.54V80.44C178.54 79.96 178.6 79.63 178.72 79.45C178.84 79.27 179.14 79.18 179.62 79.18L181.33 79.09L183.31 79.18C183.79 79.18 184.03 79.72 184.03 80.8L183.94 83.32C186.94 81.94 189.55 80.92 191.77 80.26C194.05 79.54 196.75 79.18 199.87 79.18C202.69 79.18 205.15 79.63 207.25 80.53C209.41 81.37 211.09 82.3 212.29 83.32C213.55 84.28 214.24 84.91 214.36 85.21C215.62 84.19 216.79 83.32 217.87 82.6C219.01 81.82 220.66 81.07 222.82 80.35C224.98 79.57 227.44 79.18 230.2 79.18C232.96 79.18 235.3 79.63 237.22 80.53C239.2 81.37 240.94 82.87 242.44 85.03C243.52 86.35 244.33 88.45 244.87 91.33C245.47 94.21 245.77 96.58 245.77 98.44C245.77 99.46 245.8 100.33 245.86 101.05L245.95 107.62C245.95 110.44 245.89 112.57 245.77 114.01C245.65 117.37 245.59 121.87 245.59 127.51V130.66L245.68 132.01C245.68 132.61 245.5 132.94 245.14 133L242.35 132.91C241.51 132.91 240.94 132.94 240.64 133H240.37C240.07 133 239.86 132.88 239.74 132.64C239.68 132.34 239.65 131.77 239.65 130.93C239.65 129.61 239.62 128.32 239.56 127.06C239.44 122.62 239.38 118.51 239.38 114.73C239.38 112.45 239.44 110.35 239.56 108.43L239.65 105.01C239.65 102.25 239.5 99.49 239.2 96.73C238.96 93.91 238.57 91.84 238.03 90.52C237.01 88.36 235.9 86.89 234.7 86.11C233.5 85.33 231.67 84.94 229.21 84.94C225.19 84.94 222.13 85.69 220.03 87.19C217.93 88.69 216.73 90.52 216.43 92.68V111.22C216.55 112.9 216.61 115.75 216.61 119.77C216.61 121.39 216.58 122.35 216.52 122.65L216.43 124.27C216.43 126.67 216.52 129.04 216.7 131.38C216.7 132.1 216.49 132.58 216.07 132.82C215.65 133 215.11 133.06 214.45 133H212.74H212.38H211.3H209.59C208.93 133 208.51 132.76 208.33 132.28C208.15 131.74 208.03 131.23 207.97 130.75C207.97 130.21 207.97 129.85 207.97 129.67C207.91 129.25 207.94 128.38 208.06 127.06C208.18 125.74 208.24 124.54 208.24 123.46C208.24 121.9 208.33 119.5 208.51 116.26L208.69 107.62L208.78 100.33C208.78 95.41 208.63 92.14 208.33 90.52C207.85 88.3 206.86 86.83 205.36 86.11C203.92 85.33 201.64 84.94 198.52 84.94C196.06 84.94 193.51 85.45 190.87 86.47C188.29 87.49 186.19 88.63 184.57 89.89C184.57 94.57 184.6 98.71 184.66 102.31V114.73V118.15L184.57 131.56C184.57 132.04 184.42 132.4 184.12 132.64C183.88 132.88 183.37 133 182.59 133H179.44ZM278.489 133.99C272.429 133.99 267.779 132.25 264.539 128.77C261.299 125.23 259.199 121.39 258.239 117.25C257.279 113.11 256.799 109.51 256.799 106.45C256.799 98.59 258.539 92.08 262.019 86.92C265.559 81.76 271.049 79.18 278.489 79.18C281.849 79.18 285.089 80.41 288.209 82.87C291.389 85.27 293.939 88.45 295.859 92.41C297.839 96.37 298.829 100.54 298.829 104.92C298.529 110.62 297.719 115.48 296.399 119.5C294.899 123.7 292.679 127.18 289.739 129.94C286.859 132.64 283.109 133.99 278.489 133.99ZM278.849 129.76C284.009 129.76 287.819 127.42 290.279 122.74C292.799 118.06 294.059 112.39 294.059 105.73C294.059 101.05 293.249 97.06 291.629 93.76C290.069 90.4 288.029 87.88 285.509 86.2C282.989 84.46 280.409 83.59 277.769 83.59C274.889 83.59 272.339 84.64 270.119 86.74C267.899 88.78 266.159 91.54 264.899 95.02C263.699 98.5 263.099 102.31 263.099 106.45C263.099 113.17 264.389 118.75 266.969 123.19C269.609 127.57 273.569 129.76 278.849 129.76ZM337.338 133.27C336.918 133.21 336.708 132.97 336.708 132.55V132.28L336.798 130.75C336.618 128.23 336.528 124.27 336.528 118.87C336.528 117.01 336.558 115.57 336.618 114.55L336.708 109.33L336.798 103.93C336.798 102.31 336.738 101.2 336.618 100.6C336.258 98.44 335.508 96.85 334.368 95.83C333.288 94.75 331.728 94.21 329.688 94.21C327.648 94.21 325.878 94.84 324.378 96.1C324.378 98.92 324.408 101.23 324.468 103.03V115.18C324.648 120.04 324.738 123.64 324.738 125.98C324.738 129.16 324.588 131.35 324.288 132.55C324.288 132.97 323.808 133.18 322.848 133.18C322.608 133.18 321.978 133.12 320.958 133C319.998 132.88 319.008 132.82 317.988 132.82C316.848 132.82 315.828 132.85 314.928 132.91C314.088 132.97 313.428 133 312.948 133C312.048 133 311.598 132.64 311.598 131.92C311.598 131.86 311.598 131.74 311.598 131.56C311.658 131.32 311.688 130.96 311.688 130.48L311.508 123.55C311.268 114.19 311.178 108.73 311.238 107.17C311.298 106.75 311.328 105.73 311.328 104.11L311.238 96.64C311.118 92.44 311.058 89.29 311.058 87.19C311.058 85.15 311.088 83.71 311.148 82.87L311.058 81.61C311.058 80.95 311.208 80.59 311.508 80.53C311.928 80.53 312.558 80.56 313.398 80.62C314.298 80.68 315.318 80.71 316.458 80.71C318.138 80.71 319.368 80.68 320.148 80.62C320.628 80.62 321.108 80.62 321.588 80.62C322.128 80.56 322.578 80.56 322.938 80.62C323.118 80.62 323.268 80.74 323.388 80.98C323.568 81.16 323.658 81.31 323.658 81.43L323.748 82.51C325.248 81.55 327.018 80.77 329.058 80.17C331.098 79.51 333.018 79.18 334.818 79.18C337.578 79.18 339.798 79.54 341.478 80.26C343.218 80.98 344.838 82.39 346.338 84.49C348.978 87.73 350.298 94.51 350.298 104.83C350.298 107.23 350.238 110.17 350.118 113.65L349.938 118.33C349.938 118.75 349.938 119.86 349.938 121.66C349.998 123.46 350.028 126.46 350.028 130.66C350.028 130.9 350.058 131.14 350.118 131.38C350.178 131.62 350.208 131.89 350.208 132.19C350.208 132.61 349.908 132.85 349.308 132.91C348.528 132.97 346.548 133 343.368 133C342.528 133 341.388 133.06 339.948 133.18C338.628 133.3 337.758 133.33 337.338 133.27ZM8.73 208.27C7.65 208.27 7.17 207.04 7.29 204.58V197.11L7.38 192.25C7.38 190.45 7.32 187.75 7.2 184.15L7.11 178.39V175.69H5.31C4.47 175.69 3.9 175.6 3.6 175.42C3.36 175.24 3.24 174.91 3.24 174.43L3.15 173.26C3.15 172.66 3.3 172.27 3.6 172.09C3.96 171.85 4.62 171.73 5.58 171.73H7.38C7.44 170.65 7.44 169.66 7.38 168.76C7.38 167.86 7.38 167.08 7.38 166.42V163.18C7.38 161.86 7.35 160.84 7.29 160.12L7.2 156.34C7.2 152.56 7.56 149.74 8.28 147.88C9.12 145.54 10.59 143.83 12.69 142.75C14.85 141.67 17.16 141.13 19.62 141.13C22.08 141.13 24.03 141.28 25.47 141.58C26.97 141.88 28.44 142.51 29.88 143.47C30.3 143.71 30.39 144.07 30.15 144.55C29.79 145.15 29.49 145.9 29.25 146.8L28.44 149.41C28.38 149.53 28.26 149.92 28.08 150.58C27.96 151.18 27.78 151.48 27.54 151.48C27.12 151.48 26.46 151.45 25.56 151.39C24.72 151.27 23.76 151.21 22.68 151.21C21.72 151.21 21.03 151.45 20.61 151.93C20.19 152.35 19.95 153.1 19.89 154.18V171.91L23.04 171.82C23.7 171.76 24.63 171.73 25.83 171.73C26.79 171.73 27.42 171.85 27.72 172.09C28.08 172.33 28.26 172.72 28.26 173.26L28.17 174.43C28.17 174.91 28.02 175.24 27.72 175.42C27.48 175.6 26.94 175.69 26.1 175.69C25.02 175.69 24.15 175.66 23.49 175.6L19.89 175.51C19.83 176.47 19.8 177.52 19.8 178.66C19.74 179.08 19.71 179.77 19.71 180.73C19.71 182.05 19.68 183.01 19.62 183.61C19.62 184.09 19.59 184.69 19.53 185.41C19.53 186.13 19.56 186.97 19.62 187.93C19.56 189.19 19.53 190.96 19.53 193.24C19.53 197.2 19.71 200.89 20.07 204.31C20.13 204.91 20.16 205.6 20.16 206.38C20.16 206.86 20.01 207.22 19.71 207.46C19.47 207.7 19.02 207.85 18.36 207.91C17.34 208.03 15.51 208.09 12.87 208.09C12.21 208.15 11.46 208.18 10.62 208.18C10.44 208.24 9.81 208.27 8.73 208.27ZM58.2012 209.98C50.2812 209.98 45.0012 206.95 42.3612 200.89C39.7212 194.77 38.4012 188.23 38.4012 181.27C38.4012 174.55 39.4212 169.18 41.4612 165.16C43.5012 161.08 45.9612 158.23 48.8412 156.61C51.7812 154.99 54.7212 154.18 57.6612 154.18C63.1812 154.18 67.3512 155.65 70.1712 158.59C72.9912 161.47 74.7912 164.92 75.5712 168.94C76.3512 172.9 76.7412 177.37 76.7412 182.35C76.7412 186.37 76.0512 190.54 74.6712 194.86C73.3512 199.12 71.2812 202.72 68.4612 205.66C65.7012 208.54 62.2812 209.98 58.2012 209.98ZM57.5712 192.52C59.5512 192.52 60.9912 191.59 61.8912 189.73C62.8512 187.87 63.3312 185.62 63.3312 182.98C63.3312 179.56 62.8812 177.16 61.9812 175.78C61.1412 174.34 59.8512 173.62 58.1112 173.62C54.3912 173.62 52.5312 176.98 52.5312 183.7C52.5312 186.22 52.8612 188.32 53.5212 190C54.1812 191.68 55.5312 192.52 57.5712 192.52ZM104.989 209.44C101.689 209.44 98.8085 208.36 96.3485 206.2C93.9485 204.04 92.0885 201.01 90.7685 197.11C89.5085 193.21 88.8785 188.71 88.8785 183.61C88.8785 182.41 88.9685 179.02 89.1485 173.44C89.2685 171.88 89.3285 170.83 89.3285 170.29L89.2385 168.49C89.2385 167.35 89.2085 165.82 89.1485 163.9C89.0885 161.92 89.0585 159.43 89.0585 156.43C89.0585 156.01 89.3585 155.77 89.9585 155.71C91.4585 155.59 93.2885 155.5 95.4485 155.44C97.6685 155.38 99.6785 155.35 101.479 155.35C101.959 155.35 102.259 155.44 102.379 155.62C102.499 155.74 102.559 155.98 102.559 156.34L102.469 157.87L102.559 159.76C102.559 161.32 102.469 162.94 102.289 164.62C102.109 166.24 102.019 167.26 102.019 167.68C102.019 169.12 102.109 170.89 102.289 172.99C102.349 173.83 102.409 174.79 102.469 175.87C102.529 176.95 102.559 178.09 102.559 179.29L102.469 185.95C102.469 189.67 102.919 192.34 103.819 193.96C104.719 195.52 106.429 196.3 108.949 196.3C109.729 196.3 110.659 196.12 111.739 195.76C112.879 195.34 113.869 194.83 114.709 194.23C114.769 191.53 114.799 188.65 114.799 185.59C114.799 184.15 114.829 182.83 114.889 181.63C114.949 180.43 115.009 179.38 115.069 178.48C115.249 175.96 115.339 173.59 115.339 171.37C115.339 170.47 115.219 168.76 114.979 166.24C114.739 163.36 114.619 161.2 114.619 159.76C114.619 159.52 114.589 158.98 114.529 158.14C114.529 157.24 114.679 156.58 114.979 156.16C115.279 155.68 115.759 155.44 116.419 155.44C116.659 155.44 117.259 155.5 118.219 155.62C119.239 155.74 120.259 155.8 121.279 155.8C122.419 155.8 123.409 155.77 124.249 155.71C125.149 155.65 125.839 155.62 126.319 155.62C127.219 155.62 127.669 155.98 127.669 156.7C127.669 156.76 127.639 156.91 127.579 157.15C127.579 157.33 127.579 157.66 127.579 158.14L127.669 163.81C127.909 171.49 128.029 177.04 128.029 180.46L127.939 184.51L128.029 191.98C128.149 196.18 128.209 199.3 128.209 201.34C128.209 203.44 128.179 204.91 128.119 205.75L128.209 207.01C128.209 207.73 127.969 208.09 127.489 208.09C127.069 208.09 126.469 208.06 125.689 208C124.909 207.94 123.949 207.91 122.809 207.91L118.849 208C118.309 208.06 117.679 208.09 116.959 208.09C116.659 208.09 116.389 208.03 116.149 207.91C115.969 207.73 115.879 207.52 115.879 207.28L115.519 206.38C114.199 207.4 112.789 208.15 111.289 208.63C109.789 209.17 107.689 209.44 104.989 209.44ZM144.935 208C144.575 208 144.305 207.91 144.125 207.73C144.005 207.55 143.945 207.25 143.945 206.83L143.855 201.79C143.555 190.09 143.435 183.34 143.495 181.54V155.44C143.495 154.6 143.885 154.18 144.665 154.18H146.285L148.265 154.27C148.745 154.27 148.985 154.78 148.985 155.8L148.895 159.04L151.595 157.69C153.935 156.55 156.005 155.71 157.805 155.17C159.665 154.57 162.005 154.27 164.825 154.27C167.585 154.27 169.865 154.72 171.665 155.62C173.525 156.46 175.235 157.96 176.795 160.12C178.475 162.16 179.315 166.6 179.315 173.44L179.405 189.1L179.315 194.5C179.195 198.34 179.135 201.16 179.135 202.96C179.135 204.52 179.165 205.45 179.225 205.75C179.345 206.35 179.405 206.68 179.405 206.74C179.405 207.1 179.315 207.37 179.135 207.55C179.015 207.67 178.775 207.76 178.415 207.82C177.935 207.94 177.155 208 176.075 208C175.055 208 174.425 208 174.185 208C173.765 208 173.495 207.88 173.375 207.64C173.255 207.4 173.195 206.83 173.195 205.93L173.555 190.99L173.735 182.62L173.825 176.32C173.825 170.8 173.435 167.2 172.655 165.52C171.875 163.96 171.155 162.82 170.495 162.1C169.895 161.32 169.055 160.78 167.975 160.48C166.955 160.12 165.455 159.94 163.475 159.94C161.075 159.94 158.555 160.45 155.915 161.47C153.335 162.49 151.205 163.63 149.525 164.89C149.525 169.63 149.555 173.77 149.615 177.31V189.73C149.735 192.73 149.825 195.91 149.885 199.27C149.945 202.63 149.975 205.06 149.975 206.56C149.975 207.04 149.825 207.4 149.525 207.64C149.285 207.88 148.775 208 147.995 208H144.935ZM211.712 208.99C206.432 208.99 202.382 207.22 199.562 203.68C196.802 200.14 195.002 196.3 194.162 192.16C193.322 187.96 192.902 184.3 192.902 181.18C192.902 173.44 194.402 167.05 197.402 162.01C200.462 156.97 205.232 154.45 211.712 154.45C215.792 154.45 219.542 155.44 222.962 157.42L223.052 147.7L223.142 141.85C223.142 141.43 223.382 141.22 223.862 141.22C224.222 141.22 224.522 141.25 224.762 141.31C225.062 141.37 225.302 141.4 225.482 141.4L228.362 141.49C228.902 141.49 229.232 141.58 229.352 141.76C229.472 141.94 229.532 142.21 229.532 142.57C229.532 142.75 229.532 143.11 229.532 143.65C229.592 144.13 229.622 144.97 229.622 146.17L229.262 156.61C228.962 162.43 228.812 166.42 228.812 168.58V173.44C228.812 174.76 228.842 175.81 228.902 176.59L229.082 199.99L229.262 203.77L229.442 207.1C229.442 207.58 229.322 207.88 229.082 208C228.902 208.12 228.692 208.18 228.452 208.18C228.272 208.18 228.152 208.18 228.092 208.18C228.032 208.18 227.882 208.15 227.642 208.09C227.402 208.03 227.042 208 226.562 208C225.962 208 225.452 208.03 225.032 208.09C224.612 208.15 224.282 208.18 224.042 208.18C223.682 208.18 223.442 208.12 223.322 208C223.262 207.82 223.232 207.43 223.232 206.83V206.74C219.992 208.24 216.152 208.99 211.712 208.99ZM212.072 204.76C217.052 204.76 220.742 202.84 223.142 199V181.27C223.142 175.39 223.112 171.91 223.052 170.83C222.992 169.69 222.962 167.86 222.962 165.34V164.98C221.522 163.06 219.632 161.59 217.292 160.57C215.012 159.49 212.672 158.95 210.272 158.95C208.532 158.95 206.792 159.58 205.052 160.84C203.372 162.1 201.962 164.05 200.822 166.69C199.682 169.33 199.112 172.6 199.112 176.5C199.112 184 200.132 190.6 202.172 196.3C204.272 201.94 207.572 204.76 212.072 204.76ZM256.616 208.27C256.556 208.27 256.076 208.21 255.176 208.09C254.336 207.97 253.196 207.91 251.756 207.91L244.826 208C243.926 208 243.476 207.64 243.476 206.92C243.476 206.68 243.476 205.87 243.476 204.49C243.536 203.11 243.566 200.74 243.566 197.38C243.566 193.96 243.656 190.66 243.836 187.48C244.076 184.3 244.196 182.53 244.196 182.17L244.736 165.88L244.826 156.61C244.826 155.95 244.976 155.59 245.276 155.53C245.576 155.53 246.236 155.56 247.256 155.62C248.276 155.68 249.566 155.71 251.126 155.71C252.326 155.71 253.496 155.68 254.636 155.62C255.836 155.56 256.556 155.53 256.796 155.53C256.976 155.53 257.126 155.65 257.246 155.89C257.426 156.07 257.516 156.22 257.516 156.34L257.696 158.86C259.736 157.54 262.106 156.43 264.806 155.53C267.566 154.57 269.666 154.09 271.106 154.09C271.466 154.09 271.706 154.12 271.826 154.18C271.946 154.24 272.066 154.51 272.186 154.99C272.366 155.41 272.516 155.77 272.636 156.07C273.236 157.57 273.626 159.37 273.806 161.47C273.866 162.43 274.016 163.54 274.256 164.8C274.376 165.34 274.436 166 274.436 166.78C274.436 167.26 274.406 167.53 274.346 167.59C273.866 168.31 273.146 168.82 272.186 169.12C271.226 169.36 269.816 169.6 267.956 169.84C265.616 170.08 263.606 170.44 261.926 170.92L257.966 171.82L258.056 175.42C258.056 177.4 258.086 178.42 258.146 178.48L258.236 186.13C258.356 190.09 258.416 195.49 258.416 202.33C258.416 204.97 258.296 206.74 258.056 207.64C258.056 208.06 257.576 208.27 256.616 208.27ZM288.03 222.4C287.97 222.34 287.91 222.22 287.85 222.04C287.79 221.92 287.76 221.74 287.76 221.5C287.76 220.3 288.09 219.01 288.75 217.63C289.41 216.31 290.49 214.36 291.99 211.78C292.83 210.46 293.64 209.11 294.42 207.73C295.26 206.29 295.89 204.97 296.31 203.77C294.87 199.51 293.97 196.96 293.61 196.12L289.2 181.54C288.78 180.34 288.36 179.05 287.94 177.67C287.58 176.23 287.25 174.97 286.95 173.89L284.97 167.23C284.61 166.57 284.07 164.83 283.35 162.01C282.51 159.25 282.06 157.78 282 157.6C281.82 156.94 281.73 156.46 281.73 156.16C281.73 155.98 281.76 155.86 281.82 155.8C281.94 155.74 282.06 155.71 282.18 155.71C282.3 155.65 282.42 155.62 282.54 155.62H288.84C289.38 155.62 289.74 155.71 289.92 155.89C290.1 156.07 290.19 156.28 290.19 156.52C290.25 156.7 290.31 156.85 290.37 156.97C290.67 157.51 291.18 159.34 291.9 162.46C292.38 164.2 293.28 167.11 294.6 171.19C295.92 175.27 297.06 178.69 298.02 181.45C298.8 183.49 299.22 184.66 299.28 184.96C299.64 186.04 300 187.03 300.36 187.93L301.35 190.9C302.07 188.98 303 186.28 304.14 182.8C305.28 179.32 306.03 176.83 306.39 175.33L308.64 169.57C310.26 165.43 311.13 163.18 311.25 162.82C311.49 162.4 312.03 160.96 312.87 158.5L313.77 156.07C313.89 155.59 314.04 155.32 314.22 155.26C314.4 155.2 314.7 155.23 315.12 155.35C315.36 155.47 315.96 155.53 316.92 155.53C317.88 155.53 318.42 155.53 318.54 155.53C318.84 155.53 318.99 155.59 318.99 155.71C318.99 155.83 318.96 155.98 318.9 156.16C318.84 156.28 318.78 156.4 318.72 156.52C318.54 156.88 318.15 157.81 317.55 159.31C316.95 160.75 316.38 161.92 315.84 162.82C315 164.08 312.93 169.69 309.63 179.65L308.28 183.43C306.36 189.43 305.25 192.85 304.95 193.69L303.78 197.47L302.79 200.53C301.23 205.45 299.88 209.5 298.74 212.68C297.6 215.92 296.4 218.92 295.14 221.68C294.84 222.28 293.31 222.58 290.55 222.58C289.47 222.58 288.63 222.52 288.03 222.4Z" fill="white"/>
</svg>
