<svg width="133" height="100" viewBox="0 0 133 100" fill="none" xmlns="http://www.w3.org/2000/svg">
<path d="M52.7235 99.3182C57.3628 100.056 62.0702 97.0346 66.0553 94.8009C79.3677 87.3813 92.699 79.9972 105.946 72.4388C110.961 69.5724 116.079 67.0595 120.822 63.5868C124.731 60.7255 129.372 57.7091 131.193 52.7586C134.406 44.0289 128.254 33.7454 123.473 27.1074C122 25.0581 120.438 23.0885 118.791 21.2057C117.138 19.3138 115.447 17.465 113.683 15.7391C107.909 10.1285 98.9014 2.81189 90.7539 5.83088C86.1454 7.53111 83.1311 12.4377 80.2886 16.5481C76.8604 21.5392 74.2794 26.9965 71.3849 32.3214C63.747 46.3965 56.238 60.5508 48.7112 74.6879C46.4696 78.9175 43.4291 83.8885 43.8314 89.0123C43.8724 89.348 43.9263 89.6753 43.9904 90.0057C44.3312 92.197 45.2659 94.2357 46.657 95.8482L46.8998 96.1401C48.2576 97.593 49.9498 98.6025 51.7862 99.0719C52.101 99.1747 52.4007 99.2491 52.7235 99.3182Z" fill="#FF7009"/>
<path d="M4.2421 48.5555L4.26097 48.5393L15.5581 16.0066C16.7135 12.6599 17.8184 9.27854 19.8562 6.39226C21.2238 4.45808 22.5684 2.63482 24.9576 1.54903C26.2644 0.976125 27.6662 0.702325 29.0726 0.743553C34.6395 0.741219 40.5001 4.58489 45.0223 7.6449C50.0328 11.0307 54.46 15.3057 58.1203 20.2929C58.9925 21.5509 59.7284 22.913 60.3142 24.3538C60.5701 25.0636 60.7913 25.788 60.9768 26.5241C61.3136 27.9824 61.359 29.5074 61.11 31.0002C60.8575 32.4193 60.3211 33.7695 59.5379 34.9568C58.4157 36.7674 56.7416 38.676 54.0168 41.1484C53.5812 41.522 53.1548 41.9079 52.7382 42.3059C50.4682 44.3407 47.6989 46.5779 44.479 49.2459C39.5297 53.385 34.5761 57.4432 29.572 61.4666L20.7108 68.6749C19.0933 69.9955 17.3776 71.1694 15.582 72.1839C14.0617 73.049 12.4055 73.5917 10.7063 73.7819C9.41095 73.8554 8.11987 73.6685 6.8997 73.2307L6.74006 73.1697C4.21786 72.2157 2.16211 70.2398 1.00595 67.6584C-0.150226 65.077 -0.316538 62.0916 0.542053 59.3312C0.649489 58.9127 0.766962 58.5747 0.838703 58.3683L4.2421 48.5555Z" fill="#0AAD0A"/>
</svg>
