<svg width="129" height="151" viewBox="0 0 129 151" fill="none" xmlns="http://www.w3.org/2000/svg">
<path d="M0.2 0.599998H16.68V49.56H18.6C21.9067 39.1067 28.7333 33.88 39.08 33.88C46.5467 33.88 52.3067 36.44 56.36 41.56C60.52 46.5733 62.6 53.9867 62.6 63.8V119H46.12V66.04C46.12 60.1733 45 55.6933 42.76 52.6C40.52 49.5067 37 47.96 32.2 47.96C27.8267 47.96 24.1467 49.2933 21.16 51.96C18.1733 54.52 16.68 58.1467 16.68 62.84V119H0.2V0.599998ZM87.4625 135.32C86.3958 140.76 84.4225 144.707 81.5425 147.16C78.6625 149.72 74.5025 151 69.0625 151H55.1425L57.7025 137.88H71.1425L88.9025 48.92H77.8625L80.4225 35.8H91.6225L95.4625 16.28C96.5292 10.84 98.5025 6.89333 101.382 4.44C104.263 1.88 108.423 0.599998 113.863 0.599998H128.743L126.023 13.72H111.782L107.463 35.8H121.543L118.983 48.92H104.742L87.4625 135.32Z" fill="#CA9627"/>
</svg>
