<svg width="378" height="77" viewBox="0 0 378 77" fill="none" xmlns="http://www.w3.org/2000/svg">
<mask id="path-1-outside-1_48_2" maskUnits="userSpaceOnUse" x="0" y="0.681519" width="294" height="77" fill="black">
<rect fill="white" y="0.681519" width="294" height="77"/>
<path d="M2 2.68152H9.89142V26.1259H10.8108C12.3942 21.1204 15.6631 18.6176 20.6176 18.6176C24.193 18.6176 26.9512 19.8434 28.8921 22.2951C30.8841 24.6958 31.8801 28.2456 31.8801 32.9447V59.3771H23.9887V34.0173C23.9887 31.2081 23.4524 29.0629 22.3798 27.5816C21.3072 26.1004 19.6216 25.3598 17.3231 25.3598C15.229 25.3598 13.4668 25.9982 12.0367 27.2752C10.6065 28.501 9.89142 30.2376 9.89142 32.485V59.3771H2V2.68152Z"/>
<path d="M53.6689 60.2965C51.1661 60.2965 48.8677 59.8879 46.7735 59.0707C44.6793 58.2534 42.8916 57.002 41.4104 55.3165C39.9292 53.5799 38.7544 51.4091 37.8861 48.8042C37.0688 46.1992 36.6602 43.0835 36.6602 39.457C36.6602 35.8306 37.0433 32.7149 37.8095 30.1099C38.5756 27.4539 39.6738 25.2831 41.1039 23.5976C42.5852 21.9121 44.3218 20.6607 46.3138 19.8434C48.3569 19.0262 50.6554 18.6176 53.2092 18.6176C58.2658 18.6176 62.1988 20.2776 65.008 23.5976C67.8683 26.9176 69.2985 32.2041 69.2985 39.457V41.4491H44.9347V43.9774C44.9347 47.1442 45.7264 49.5703 47.3098 51.2559C48.9443 52.9414 51.1661 53.7842 53.9754 53.7842C56.376 53.7842 58.3425 53.2479 59.8748 52.1753C61.4582 51.1026 62.7862 49.5959 63.8588 47.6549L68.4557 52.022C67.0256 54.5248 65.0846 56.5424 62.6329 58.0747C60.2323 59.5559 57.2443 60.2965 53.6689 60.2965ZM53.2092 24.9001C50.5532 24.9001 48.5101 25.7173 47.08 27.3518C45.6498 28.9352 44.9347 31.3358 44.9347 34.5536V36.1626H60.9474V34.5536C60.9474 28.1179 58.368 24.9001 53.2092 24.9001Z"/>
<path d="M84.3134 59.3771C81.5552 59.3771 79.5377 58.7642 78.2607 57.5384C77.0349 56.3125 76.422 54.3205 76.422 51.5623V26.0493H70.9056V19.537H73.9703C75.2472 19.537 76.09 19.256 76.4986 18.6942C76.9583 18.0813 77.1881 17.1363 77.1881 15.8594V8.65754H84.3134V19.537H91.7451V26.0493H84.3134V52.8648H91.2088V59.3771H84.3134Z"/>
<path d="M110.071 60.2965C104.861 60.2965 100.852 58.6365 98.0426 55.3165C95.2333 51.9965 93.8287 46.71 93.8287 39.457C93.8287 32.2041 95.2333 26.9176 98.0426 23.5976C100.852 20.2776 104.861 18.6176 110.071 18.6176C113.902 18.6176 116.967 19.5114 119.265 21.2991C121.564 23.0358 123.224 25.3598 124.245 28.2712L117.733 31.3358C117.273 29.3438 116.43 27.837 115.204 26.8155C114.03 25.7428 112.319 25.2065 110.071 25.2065C104.81 25.2065 102.18 28.3989 102.18 34.7835V44.1306C102.18 50.5152 104.81 53.7076 110.071 53.7076C112.37 53.7076 114.157 53.1713 115.434 52.0986C116.762 50.9749 117.784 49.3405 118.499 47.1952L124.475 50.4897C123.3 53.6054 121.513 56.0316 119.112 57.7682C116.762 59.4537 113.749 60.2965 110.071 60.2965Z"/>
<path d="M128.533 2.68152H136.424V26.1259H137.343C138.927 21.1204 142.196 18.6176 147.15 18.6176C150.726 18.6176 153.484 19.8434 155.425 22.2951C157.417 24.6958 158.413 28.2456 158.413 32.9447V59.3771H150.521V34.0173C150.521 31.2081 149.985 29.0629 148.912 27.5816C147.84 26.1004 146.154 25.3598 143.856 25.3598C141.762 25.3598 139.999 25.9982 138.569 27.2752C137.139 28.501 136.424 30.2376 136.424 32.485V59.3771H128.533V2.68152Z"/>
<path d="M170.318 67.1919C169.807 69.7969 168.862 71.6867 167.483 72.8615C166.104 74.0873 164.112 74.7003 161.507 74.7003H154.842L156.068 68.4178H162.503L171.008 25.8195H165.721L166.947 19.537H172.31L174.149 10.1899C174.66 7.58492 175.605 5.69507 176.984 4.52029C178.363 3.29444 180.355 2.68152 182.96 2.68152H190.085L188.782 8.964H181.964L179.895 19.537H186.637L185.411 25.8195H178.593L170.318 67.1919Z"/>
<path d="M208.279 52.7882H207.283C205.7 57.7937 202.406 60.2965 197.4 60.2965C193.876 60.2965 191.117 59.0962 189.125 56.6956C187.185 54.2439 186.214 50.6685 186.214 45.9694V19.537H194.105V44.8968C194.105 50.6685 196.353 53.5543 200.848 53.5543C202.891 53.5543 204.627 52.9414 206.058 51.7156C207.539 50.4386 208.279 48.6765 208.279 46.4291V19.537H216.171V59.3771H208.279V52.7882Z"/>
<path d="M223.862 59.3771V19.537H231.754V26.1259H232.673C234.256 21.1204 237.525 18.6176 242.48 18.6176C246.055 18.6176 248.813 19.8434 250.754 22.2951C252.746 24.6958 253.742 28.2456 253.742 32.9447V59.3771H245.851V34.0173C245.851 31.2081 245.315 29.0629 244.242 27.5816C243.169 26.1004 241.484 25.3598 239.185 25.3598C237.091 25.3598 235.329 25.9982 233.899 27.2752C232.469 28.501 231.754 30.2376 231.754 32.485V59.3771H223.862Z"/>
<path d="M283.423 52.8648H282.503C281.839 55.2143 280.639 57.0531 278.902 58.3811C277.217 59.6581 275.199 60.2965 272.85 60.2965C268.099 60.2965 264.575 58.5088 262.277 54.9334C259.978 51.3069 258.829 46.1482 258.829 39.457C258.829 32.7659 259.978 27.6327 262.277 24.0573C264.575 20.4308 268.099 18.6176 272.85 18.6176C275.199 18.6176 277.217 19.2816 278.902 20.6096C280.639 21.8865 281.839 23.6998 282.503 26.0493H283.423V2.68152H291.314V59.3771H283.423V52.8648ZM275.684 53.5543C277.932 53.5543 279.771 52.9669 281.201 51.7922C282.682 50.6174 283.423 49.0085 283.423 46.9654V31.9487C283.423 29.9056 282.682 28.2967 281.201 27.1219C279.771 25.9471 277.932 25.3598 275.684 25.3598C272.977 25.3598 270.883 26.2025 269.402 27.8881C267.921 29.5736 267.18 31.9487 267.18 35.0133V43.9008C267.18 46.9654 267.921 49.3405 269.402 51.026C270.883 52.7116 272.977 53.5543 275.684 53.5543Z"/>
</mask>
<path d="M2 2.68152H9.89142V26.1259H10.8108C12.3942 21.1204 15.6631 18.6176 20.6176 18.6176C24.193 18.6176 26.9512 19.8434 28.8921 22.2951C30.8841 24.6958 31.8801 28.2456 31.8801 32.9447V59.3771H23.9887V34.0173C23.9887 31.2081 23.4524 29.0629 22.3798 27.5816C21.3072 26.1004 19.6216 25.3598 17.3231 25.3598C15.229 25.3598 13.4668 25.9982 12.0367 27.2752C10.6065 28.501 9.89142 30.2376 9.89142 32.485V59.3771H2V2.68152Z" fill="white"/>
<path d="M53.6689 60.2965C51.1661 60.2965 48.8677 59.8879 46.7735 59.0707C44.6793 58.2534 42.8916 57.002 41.4104 55.3165C39.9292 53.5799 38.7544 51.4091 37.8861 48.8042C37.0688 46.1992 36.6602 43.0835 36.6602 39.457C36.6602 35.8306 37.0433 32.7149 37.8095 30.1099C38.5756 27.4539 39.6738 25.2831 41.1039 23.5976C42.5852 21.9121 44.3218 20.6607 46.3138 19.8434C48.3569 19.0262 50.6554 18.6176 53.2092 18.6176C58.2658 18.6176 62.1988 20.2776 65.008 23.5976C67.8683 26.9176 69.2985 32.2041 69.2985 39.457V41.4491H44.9347V43.9774C44.9347 47.1442 45.7264 49.5703 47.3098 51.2559C48.9443 52.9414 51.1661 53.7842 53.9754 53.7842C56.376 53.7842 58.3425 53.2479 59.8748 52.1753C61.4582 51.1026 62.7862 49.5959 63.8588 47.6549L68.4557 52.022C67.0256 54.5248 65.0846 56.5424 62.6329 58.0747C60.2323 59.5559 57.2443 60.2965 53.6689 60.2965ZM53.2092 24.9001C50.5532 24.9001 48.5101 25.7173 47.08 27.3518C45.6498 28.9352 44.9347 31.3358 44.9347 34.5536V36.1626H60.9474V34.5536C60.9474 28.1179 58.368 24.9001 53.2092 24.9001Z" fill="white"/>
<path d="M84.3134 59.3771C81.5552 59.3771 79.5377 58.7642 78.2607 57.5384C77.0349 56.3125 76.422 54.3205 76.422 51.5623V26.0493H70.9056V19.537H73.9703C75.2472 19.537 76.09 19.256 76.4986 18.6942C76.9583 18.0813 77.1881 17.1363 77.1881 15.8594V8.65754H84.3134V19.537H91.7451V26.0493H84.3134V52.8648H91.2088V59.3771H84.3134Z" fill="white"/>
<path d="M110.071 60.2965C104.861 60.2965 100.852 58.6365 98.0426 55.3165C95.2333 51.9965 93.8287 46.71 93.8287 39.457C93.8287 32.2041 95.2333 26.9176 98.0426 23.5976C100.852 20.2776 104.861 18.6176 110.071 18.6176C113.902 18.6176 116.967 19.5114 119.265 21.2991C121.564 23.0358 123.224 25.3598 124.245 28.2712L117.733 31.3358C117.273 29.3438 116.43 27.837 115.204 26.8155C114.03 25.7428 112.319 25.2065 110.071 25.2065C104.81 25.2065 102.18 28.3989 102.18 34.7835V44.1306C102.18 50.5152 104.81 53.7076 110.071 53.7076C112.37 53.7076 114.157 53.1713 115.434 52.0986C116.762 50.9749 117.784 49.3405 118.499 47.1952L124.475 50.4897C123.3 53.6054 121.513 56.0316 119.112 57.7682C116.762 59.4537 113.749 60.2965 110.071 60.2965Z" fill="white"/>
<path d="M128.533 2.68152H136.424V26.1259H137.343C138.927 21.1204 142.196 18.6176 147.15 18.6176C150.726 18.6176 153.484 19.8434 155.425 22.2951C157.417 24.6958 158.413 28.2456 158.413 32.9447V59.3771H150.521V34.0173C150.521 31.2081 149.985 29.0629 148.912 27.5816C147.84 26.1004 146.154 25.3598 143.856 25.3598C141.762 25.3598 139.999 25.9982 138.569 27.2752C137.139 28.501 136.424 30.2376 136.424 32.485V59.3771H128.533V2.68152Z" fill="white"/>
<path d="M170.318 67.1919C169.807 69.7969 168.862 71.6867 167.483 72.8615C166.104 74.0873 164.112 74.7003 161.507 74.7003H154.842L156.068 68.4178H162.503L171.008 25.8195H165.721L166.947 19.537H172.31L174.149 10.1899C174.66 7.58492 175.605 5.69507 176.984 4.52029C178.363 3.29444 180.355 2.68152 182.96 2.68152H190.085L188.782 8.964H181.964L179.895 19.537H186.637L185.411 25.8195H178.593L170.318 67.1919Z" fill="white"/>
<path d="M208.279 52.7882H207.283C205.7 57.7937 202.406 60.2965 197.4 60.2965C193.876 60.2965 191.117 59.0962 189.125 56.6956C187.185 54.2439 186.214 50.6685 186.214 45.9694V19.537H194.105V44.8968C194.105 50.6685 196.353 53.5543 200.848 53.5543C202.891 53.5543 204.627 52.9414 206.058 51.7156C207.539 50.4386 208.279 48.6765 208.279 46.4291V19.537H216.171V59.3771H208.279V52.7882Z" fill="white"/>
<path d="M223.862 59.3771V19.537H231.754V26.1259H232.673C234.256 21.1204 237.525 18.6176 242.48 18.6176C246.055 18.6176 248.813 19.8434 250.754 22.2951C252.746 24.6958 253.742 28.2456 253.742 32.9447V59.3771H245.851V34.0173C245.851 31.2081 245.315 29.0629 244.242 27.5816C243.169 26.1004 241.484 25.3598 239.185 25.3598C237.091 25.3598 235.329 25.9982 233.899 27.2752C232.469 28.501 231.754 30.2376 231.754 32.485V59.3771H223.862Z" fill="white"/>
<path d="M283.423 52.8648H282.503C281.839 55.2143 280.639 57.0531 278.902 58.3811C277.217 59.6581 275.199 60.2965 272.85 60.2965C268.099 60.2965 264.575 58.5088 262.277 54.9334C259.978 51.3069 258.829 46.1482 258.829 39.457C258.829 32.7659 259.978 27.6327 262.277 24.0573C264.575 20.4308 268.099 18.6176 272.85 18.6176C275.199 18.6176 277.217 19.2816 278.902 20.6096C280.639 21.8865 281.839 23.6998 282.503 26.0493H283.423V2.68152H291.314V59.3771H283.423V52.8648ZM275.684 53.5543C277.932 53.5543 279.771 52.9669 281.201 51.7922C282.682 50.6174 283.423 49.0085 283.423 46.9654V31.9487C283.423 29.9056 282.682 28.2967 281.201 27.1219C279.771 25.9471 277.932 25.3598 275.684 25.3598C272.977 25.3598 270.883 26.2025 269.402 27.8881C267.921 29.5736 267.18 31.9487 267.18 35.0133V43.9008C267.18 46.9654 267.921 49.3405 269.402 51.026C270.883 52.7116 272.977 53.5543 275.684 53.5543Z" fill="white"/>
<path d="M2 2.68152H9.89142V26.1259H10.8108C12.3942 21.1204 15.6631 18.6176 20.6176 18.6176C24.193 18.6176 26.9512 19.8434 28.8921 22.2951C30.8841 24.6958 31.8801 28.2456 31.8801 32.9447V59.3771H23.9887V34.0173C23.9887 31.2081 23.4524 29.0629 22.3798 27.5816C21.3072 26.1004 19.6216 25.3598 17.3231 25.3598C15.229 25.3598 13.4668 25.9982 12.0367 27.2752C10.6065 28.501 9.89142 30.2376 9.89142 32.485V59.3771H2V2.68152Z" stroke="black" stroke-width="4" mask="url(#path-1-outside-1_48_2)"/>
<path d="M53.6689 60.2965C51.1661 60.2965 48.8677 59.8879 46.7735 59.0707C44.6793 58.2534 42.8916 57.002 41.4104 55.3165C39.9292 53.5799 38.7544 51.4091 37.8861 48.8042C37.0688 46.1992 36.6602 43.0835 36.6602 39.457C36.6602 35.8306 37.0433 32.7149 37.8095 30.1099C38.5756 27.4539 39.6738 25.2831 41.1039 23.5976C42.5852 21.9121 44.3218 20.6607 46.3138 19.8434C48.3569 19.0262 50.6554 18.6176 53.2092 18.6176C58.2658 18.6176 62.1988 20.2776 65.008 23.5976C67.8683 26.9176 69.2985 32.2041 69.2985 39.457V41.4491H44.9347V43.9774C44.9347 47.1442 45.7264 49.5703 47.3098 51.2559C48.9443 52.9414 51.1661 53.7842 53.9754 53.7842C56.376 53.7842 58.3425 53.2479 59.8748 52.1753C61.4582 51.1026 62.7862 49.5959 63.8588 47.6549L68.4557 52.022C67.0256 54.5248 65.0846 56.5424 62.6329 58.0747C60.2323 59.5559 57.2443 60.2965 53.6689 60.2965ZM53.2092 24.9001C50.5532 24.9001 48.5101 25.7173 47.08 27.3518C45.6498 28.9352 44.9347 31.3358 44.9347 34.5536V36.1626H60.9474V34.5536C60.9474 28.1179 58.368 24.9001 53.2092 24.9001Z" stroke="black" stroke-width="4" mask="url(#path-1-outside-1_48_2)"/>
<path d="M84.3134 59.3771C81.5552 59.3771 79.5377 58.7642 78.2607 57.5384C77.0349 56.3125 76.422 54.3205 76.422 51.5623V26.0493H70.9056V19.537H73.9703C75.2472 19.537 76.09 19.256 76.4986 18.6942C76.9583 18.0813 77.1881 17.1363 77.1881 15.8594V8.65754H84.3134V19.537H91.7451V26.0493H84.3134V52.8648H91.2088V59.3771H84.3134Z" stroke="black" stroke-width="4" mask="url(#path-1-outside-1_48_2)"/>
<path d="M110.071 60.2965C104.861 60.2965 100.852 58.6365 98.0426 55.3165C95.2333 51.9965 93.8287 46.71 93.8287 39.457C93.8287 32.2041 95.2333 26.9176 98.0426 23.5976C100.852 20.2776 104.861 18.6176 110.071 18.6176C113.902 18.6176 116.967 19.5114 119.265 21.2991C121.564 23.0358 123.224 25.3598 124.245 28.2712L117.733 31.3358C117.273 29.3438 116.43 27.837 115.204 26.8155C114.03 25.7428 112.319 25.2065 110.071 25.2065C104.81 25.2065 102.18 28.3989 102.18 34.7835V44.1306C102.18 50.5152 104.81 53.7076 110.071 53.7076C112.37 53.7076 114.157 53.1713 115.434 52.0986C116.762 50.9749 117.784 49.3405 118.499 47.1952L124.475 50.4897C123.3 53.6054 121.513 56.0316 119.112 57.7682C116.762 59.4537 113.749 60.2965 110.071 60.2965Z" stroke="black" stroke-width="4" mask="url(#path-1-outside-1_48_2)"/>
<path d="M128.533 2.68152H136.424V26.1259H137.343C138.927 21.1204 142.196 18.6176 147.15 18.6176C150.726 18.6176 153.484 19.8434 155.425 22.2951C157.417 24.6958 158.413 28.2456 158.413 32.9447V59.3771H150.521V34.0173C150.521 31.2081 149.985 29.0629 148.912 27.5816C147.84 26.1004 146.154 25.3598 143.856 25.3598C141.762 25.3598 139.999 25.9982 138.569 27.2752C137.139 28.501 136.424 30.2376 136.424 32.485V59.3771H128.533V2.68152Z" stroke="black" stroke-width="4" mask="url(#path-1-outside-1_48_2)"/>
<path d="M170.318 67.1919C169.807 69.7969 168.862 71.6867 167.483 72.8615C166.104 74.0873 164.112 74.7003 161.507 74.7003H154.842L156.068 68.4178H162.503L171.008 25.8195H165.721L166.947 19.537H172.31L174.149 10.1899C174.66 7.58492 175.605 5.69507 176.984 4.52029C178.363 3.29444 180.355 2.68152 182.96 2.68152H190.085L188.782 8.964H181.964L179.895 19.537H186.637L185.411 25.8195H178.593L170.318 67.1919Z" stroke="black" stroke-width="4" mask="url(#path-1-outside-1_48_2)"/>
<path d="M208.279 52.7882H207.283C205.7 57.7937 202.406 60.2965 197.4 60.2965C193.876 60.2965 191.117 59.0962 189.125 56.6956C187.185 54.2439 186.214 50.6685 186.214 45.9694V19.537H194.105V44.8968C194.105 50.6685 196.353 53.5543 200.848 53.5543C202.891 53.5543 204.627 52.9414 206.058 51.7156C207.539 50.4386 208.279 48.6765 208.279 46.4291V19.537H216.171V59.3771H208.279V52.7882Z" stroke="black" stroke-width="4" mask="url(#path-1-outside-1_48_2)"/>
<path d="M223.862 59.3771V19.537H231.754V26.1259H232.673C234.256 21.1204 237.525 18.6176 242.48 18.6176C246.055 18.6176 248.813 19.8434 250.754 22.2951C252.746 24.6958 253.742 28.2456 253.742 32.9447V59.3771H245.851V34.0173C245.851 31.2081 245.315 29.0629 244.242 27.5816C243.169 26.1004 241.484 25.3598 239.185 25.3598C237.091 25.3598 235.329 25.9982 233.899 27.2752C232.469 28.501 231.754 30.2376 231.754 32.485V59.3771H223.862Z" stroke="black" stroke-width="4" mask="url(#path-1-outside-1_48_2)"/>
<path d="M283.423 52.8648H282.503C281.839 55.2143 280.639 57.0531 278.902 58.3811C277.217 59.6581 275.199 60.2965 272.85 60.2965C268.099 60.2965 264.575 58.5088 262.277 54.9334C259.978 51.3069 258.829 46.1482 258.829 39.457C258.829 32.7659 259.978 27.6327 262.277 24.0573C264.575 20.4308 268.099 18.6176 272.85 18.6176C275.199 18.6176 277.217 19.2816 278.902 20.6096C280.639 21.8865 281.839 23.6998 282.503 26.0493H283.423V2.68152H291.314V59.3771H283.423V52.8648ZM275.684 53.5543C277.932 53.5543 279.771 52.9669 281.201 51.7922C282.682 50.6174 283.423 49.0085 283.423 46.9654V31.9487C283.423 29.9056 282.682 28.2967 281.201 27.1219C279.771 25.9471 277.932 25.3598 275.684 25.3598C272.977 25.3598 270.883 26.2025 269.402 27.8881C267.921 29.5736 267.18 31.9487 267.18 35.0133V43.9008C267.18 46.9654 267.921 49.3405 269.402 51.026C270.883 52.7116 272.977 53.5543 275.684 53.5543Z" stroke="black" stroke-width="4" mask="url(#path-1-outside-1_48_2)"/>
<path d="M346.915 0.00160465C348.863 -0.195235 334.945 17.783 334.945 17.783C334.945 17.783 355.565 1.03231 356.978 1.67338C358.39 2.31446 338.631 19.0428 338.631 19.0428C338.631 19.0428 364.522 5.28762 365.95 6.50758C367.378 7.72754 341.706 21.4257 341.706 21.4257C341.706 21.4257 371.817 12.7532 372.859 13.9803C373.902 15.2074 343.837 24.6736 343.837 24.6736C343.837 24.6736 376.115 21.2682 376.957 23.2818C377.8 25.2955 344.794 28.4344 344.794 28.4344C344.794 28.4344 377.842 31.4247 377.8 33.4041C377.757 35.3835 344.472 32.3009 344.472 32.3009C344.472 32.3009 376.195 42.0626 375.295 43.2503C374.396 44.4381 342.907 35.8537 342.907 35.8537C342.907 35.8537 370.966 50.6539 369.716 51.7534C368.465 52.853 340.268 38.7081 340.268 38.7081C340.268 38.7081 363.91 57.1274 361.665 57.9919C359.42 58.8566 336.84 40.5546 336.84 40.5546C336.84 40.5546 354.547 61.29 352.016 61.29C349.485 61.29 332.997 41.1931 332.997 41.1931C332.997 41.1931 344.523 61.558 341.814 61.29C339.106 61.0218 329.153 40.5546 329.153 40.5546C329.153 40.5546 334.072 59.0466 332.165 57.9919C330.258 56.9374 325.726 38.7081 325.726 38.7081C325.726 38.7081 325.78 53.0652 324.114 51.7534C322.449 50.4417 323.087 35.8537 323.087 35.8537C323.087 35.8537 319.365 45.458 318.535 43.2503C317.704 41.0427 321.522 32.3009 321.522 32.3009C321.522 32.3009 316.136 35.7553 316.03 33.4041C315.924 31.053 321.2 28.4344 321.2 28.4344C321.2 28.4344 316.289 25.2541 316.873 23.2818C317.457 21.3095 322.156 24.6736 322.156 24.6736C322.156 24.6736 320.58 15.755 320.971 13.9803C321.361 12.2056 324.288 21.4257 324.288 21.4257C324.288 21.4257 326.688 7.79731 327.88 6.50758C329.072 5.21785 327.363 19.0428 327.363 19.0428C327.363 19.0428 335.093 2.85308 336.852 1.67338C338.611 0.493703 331.048 17.783 331.048 17.783C331.048 17.783 344.967 0.198445 346.915 0.00160465Z" fill="#267966"/>
</svg>
