<svg width="891" height="134" viewBox="0 0 891 134" fill="none" xmlns="http://www.w3.org/2000/svg">
<path d="M783.312 133.587C789.564 134.581 795.907 130.509 801.278 127.499C819.218 117.5 837.184 107.549 855.035 97.3634C861.794 93.5007 868.691 90.1141 875.083 85.4343C880.351 81.5783 886.605 77.5134 889.06 70.8419C893.389 59.0775 885.099 45.2191 878.655 36.2736C876.671 33.5119 874.565 30.8577 872.346 28.3204C870.118 25.7707 867.839 23.2792 865.463 20.9534C857.682 13.3924 845.542 3.53231 834.562 7.60079C828.352 9.89205 824.29 16.5043 820.459 22.0436C815.839 28.7698 812.361 36.1241 808.46 43.3001C798.167 62.2681 788.048 81.3428 777.905 100.394C774.884 106.094 770.786 112.793 771.328 119.698C771.384 120.151 771.456 120.592 771.543 121.037C772.002 123.99 773.262 126.738 775.136 128.911L775.464 129.304C777.293 131.262 779.574 132.622 782.048 133.255C782.473 133.393 782.877 133.494 783.312 133.587Z" fill="#FF7009"/>
<path d="M717.977 65.1777L718.002 65.1558L733.227 21.3139C734.784 16.8038 736.273 12.2469 739.019 8.35732C740.862 5.75076 742.674 3.29368 745.894 1.83044C747.655 1.05838 749.544 0.689401 751.439 0.744962C758.941 0.741816 766.839 5.92165 772.933 10.0454C779.686 14.6082 785.652 20.3694 790.585 27.0902C791.76 28.7856 792.752 30.6212 793.541 32.5627C793.886 33.5193 794.184 34.4956 794.434 35.4876C794.888 37.4528 794.949 39.508 794.614 41.5197C794.273 43.4321 793.55 45.2517 792.495 46.8517C790.983 49.2917 788.727 51.8638 785.055 55.1957C784.467 55.6991 783.893 56.2192 783.331 56.7555C780.272 59.4977 776.54 62.5126 772.201 66.1081C765.531 71.686 758.856 77.1549 752.112 82.5771L740.17 92.2911C737.991 94.0708 735.678 95.6528 733.259 97.02C731.21 98.1857 728.978 98.9172 726.688 99.1734C724.942 99.2726 723.203 99.0206 721.558 98.4306L721.343 98.3485C717.944 97.0628 715.174 94.4 713.616 90.9212C712.058 87.4424 711.833 83.4193 712.99 79.6993C713.135 79.1354 713.294 78.6798 713.39 78.4017L717.977 65.1777Z" fill="#0AAD5F"/>
<path d="M0.73999 13.3396H18.18V62.2996H18.98C20.7933 57.8196 23.5133 54.0863 27.14 51.0996C30.8733 48.1129 35.94 46.6196 42.34 46.6196C50.8733 46.6196 57.4867 49.4463 62.18 55.0996C66.98 60.6463 69.38 68.5929 69.38 78.9396V131.74H51.94V81.0196C51.94 68.1129 46.7133 61.6596 36.26 61.6596C34.02 61.6596 31.78 61.9796 29.54 62.6196C27.4067 63.1529 25.4867 64.0063 23.78 65.1796C22.0733 66.3529 20.6867 67.8463 19.62 69.6596C18.66 71.4729 18.18 73.5529 18.18 75.8996V131.74H0.73999V13.3396Z" fill="#BEC1BE"/>
<path d="M119.792 133.66C113.819 133.66 108.486 132.646 103.792 130.62C99.0992 128.593 95.0992 125.713 91.7925 121.98C88.4858 118.14 85.9258 113.553 84.1125 108.22C82.4058 102.78 81.5525 96.7529 81.5525 90.1396C81.5525 83.5263 82.4058 77.5529 84.1125 72.2196C85.9258 66.7796 88.4858 62.1929 91.7925 58.4596C95.0992 54.6196 99.0992 51.6863 103.792 49.6596C108.486 47.6329 113.819 46.6196 119.792 46.6196C125.872 46.6196 131.206 47.6863 135.792 49.8196C140.486 51.9529 144.379 54.9396 147.472 58.7796C150.566 62.5129 152.859 66.8863 154.352 71.8996C155.952 76.9129 156.752 82.2996 156.752 88.0596V94.6196H99.6325V97.3396C99.6325 103.74 101.499 109.02 105.232 113.18C109.072 117.233 114.512 119.26 121.552 119.26C126.672 119.26 130.992 118.14 134.512 115.9C138.033 113.66 141.019 110.62 143.472 106.78L153.712 116.86C150.619 121.98 146.139 126.086 140.272 129.18C134.406 132.166 127.579 133.66 119.792 133.66ZM119.792 60.2196C116.806 60.2196 114.032 60.7529 111.472 61.8196C109.019 62.8863 106.886 64.3796 105.072 66.2996C103.366 68.2196 102.032 70.5129 101.072 73.1796C100.112 75.8463 99.6325 78.7796 99.6325 81.9796V83.0996H138.352V81.4996C138.352 75.0996 136.699 69.9796 133.392 66.1396C130.086 62.1929 125.552 60.2196 119.792 60.2196Z" fill="#BEC1BE"/>
<path d="M192.699 131.74C186.619 131.74 182.032 130.193 178.939 127.1C175.845 123.9 174.299 119.42 174.299 113.66V62.7796H161.339V48.5396H168.379C171.259 48.5396 173.232 47.8996 174.299 46.6196C175.472 45.3396 176.059 43.2596 176.059 40.3796V25.8196H191.739V48.5396H209.179V62.7796H191.739V117.5H207.899V131.74H192.699Z" fill="#BEC1BE"/>
<path d="M253.231 133.66C247.258 133.66 241.925 132.646 237.231 130.62C232.538 128.593 228.591 125.713 225.391 121.98C222.191 118.14 219.738 113.553 218.031 108.22C216.325 102.78 215.471 96.7529 215.471 90.1396C215.471 83.5263 216.325 77.5529 218.031 72.2196C219.738 66.7796 222.191 62.1929 225.391 58.4596C228.591 54.6196 232.538 51.6863 237.231 49.6596C241.925 47.6329 247.258 46.6196 253.231 46.6196C261.551 46.6196 268.378 48.4863 273.711 52.2196C279.045 55.9529 282.938 60.9129 285.391 67.0996L270.991 73.8196C269.818 69.9796 267.738 66.9396 264.751 64.6996C261.871 62.3529 258.031 61.1796 253.231 61.1796C246.831 61.1796 241.978 63.2063 238.671 67.2596C235.471 71.2063 233.871 76.3796 233.871 82.7796V97.6596C233.871 104.06 235.471 109.286 238.671 113.34C241.978 117.286 246.831 119.26 253.231 119.26C258.351 119.26 262.405 118.033 265.391 115.58C268.485 113.02 270.938 109.66 272.751 105.5L286.031 112.54C283.258 119.366 279.098 124.593 273.551 128.22C268.005 131.846 261.231 133.66 253.231 133.66Z" fill="#BEC1BE"/>
<path d="M296.234 13.3396H313.674V62.2996H314.474C316.287 57.8196 319.007 54.0863 322.634 51.0996C326.367 48.1129 331.434 46.6196 337.834 46.6196C346.367 46.6196 352.98 49.4463 357.674 55.0996C362.474 60.6463 364.874 68.5929 364.874 78.9396V131.74H347.434V81.0196C347.434 68.1129 342.207 61.6596 331.754 61.6596C329.514 61.6596 327.274 61.9796 325.034 62.6196C322.9 63.1529 320.98 64.0063 319.274 65.1796C317.567 66.3529 316.18 67.8463 315.114 69.6596C314.154 71.4729 313.674 73.5529 313.674 75.8996V131.74H296.234V13.3396Z" fill="#BEC1BE"/>
<path d="M386.966 62.7796H374.326V48.5396H386.966V34.7796C386.966 28.0596 388.726 22.8329 392.246 19.0996C395.766 15.2596 401.046 13.3396 408.086 13.3396H421.846V27.5796H404.406V48.5396H421.846V62.7796H404.406V131.74H386.966V62.7796Z" fill="#BEC1BE"/>
<path d="M481.021 117.98H480.381C479.635 120.006 478.621 121.98 477.341 123.9C476.168 125.82 474.621 127.526 472.701 129.02C470.888 130.406 468.648 131.526 465.981 132.38C463.421 133.233 460.435 133.66 457.021 133.66C448.381 133.66 441.661 130.886 436.861 125.34C432.168 119.793 429.821 111.846 429.821 101.5V48.5396H447.261V99.2596C447.261 112.166 452.595 118.62 463.261 118.62C465.501 118.62 467.688 118.353 469.821 117.82C471.955 117.18 473.821 116.273 475.421 115.1C477.128 113.926 478.461 112.433 479.421 110.62C480.488 108.806 481.021 106.673 481.021 104.22V48.5396H498.461V131.74H481.021V117.98Z" fill="#BEC1BE"/>
<path d="M517.034 131.74V48.5396H534.474V62.2996H535.274C537.087 57.8196 539.807 54.0863 543.434 51.0996C547.167 48.1129 552.234 46.6196 558.634 46.6196C567.167 46.6196 573.78 49.4463 578.474 55.0996C583.274 60.6463 585.674 68.5929 585.674 78.9396V131.74H568.234V81.1796C568.234 68.1663 563.007 61.6596 552.554 61.6596C550.314 61.6596 548.074 61.9796 545.834 62.6196C543.7 63.1529 541.78 64.0063 540.074 65.1796C538.367 66.3529 536.98 67.8463 535.914 69.6596C534.954 71.4729 534.474 73.6063 534.474 76.0596V131.74H517.034Z" fill="#BEC1BE"/>
<path d="M655.766 117.98H654.966C653.153 122.886 650.166 126.726 646.006 129.5C641.953 132.273 637.153 133.66 631.606 133.66C621.046 133.66 612.886 129.873 607.126 122.3C601.366 114.62 598.486 103.9 598.486 90.1396C598.486 76.3796 601.366 65.7129 607.126 58.1396C612.886 50.4596 621.046 46.6196 631.606 46.6196C637.153 46.6196 641.953 48.0063 646.006 50.7796C650.166 53.4463 653.153 57.2863 654.966 62.2996H655.766V13.3396H673.206V131.74H655.766V117.98ZM636.886 118.62C642.22 118.62 646.7 117.34 650.326 114.78C653.953 112.113 655.766 108.646 655.766 104.38V75.8996C655.766 71.6329 653.953 68.2196 650.326 65.6596C646.7 62.9929 642.22 61.6596 636.886 61.6596C630.806 61.6596 625.953 63.6329 622.326 67.5796C618.7 71.4196 616.886 76.5396 616.886 82.9396V97.3396C616.886 103.74 618.7 108.913 622.326 112.86C625.953 116.7 630.806 118.62 636.886 118.62Z" fill="#BEC1BE"/>
</svg>
