<svg width="605" height="151" viewBox="0 0 605 151" fill="none" xmlns="http://www.w3.org/2000/svg">
<path d="M0.2 0.599998H16.68V49.56H18.6C21.9067 39.1067 28.7333 33.88 39.08 33.88C46.5467 33.88 52.3067 36.44 56.36 41.56C60.52 46.5733 62.6 53.9867 62.6 63.8V119H46.12V66.04C46.12 60.1733 45 55.6933 42.76 52.6C40.52 49.5067 37 47.96 32.2 47.96C27.8267 47.96 24.1467 49.2933 21.16 51.96C18.1733 54.52 16.68 58.1467 16.68 62.84V119H0.2V0.599998ZM108.102 120.92C102.876 120.92 98.0758 120.067 93.7025 118.36C89.3292 116.653 85.5958 114.04 82.5025 110.52C79.4092 106.893 76.9558 102.36 75.1425 96.92C73.4358 91.48 72.5825 84.9733 72.5825 77.4C72.5825 69.8267 73.3825 63.32 74.9825 57.88C76.5825 52.3333 78.8758 47.8 81.8625 44.28C84.9558 40.76 88.5825 38.1467 92.7425 36.44C97.0092 34.7333 101.809 33.88 107.143 33.88C117.703 33.88 125.916 37.3467 131.782 44.28C137.756 51.2133 140.743 62.2533 140.743 77.4V81.56H89.8625V86.84C89.8625 93.4533 91.5158 98.52 94.8225 102.04C98.2358 105.56 102.876 107.32 108.743 107.32C113.756 107.32 117.862 106.2 121.062 103.96C124.369 101.72 127.143 98.5733 129.383 94.52L138.983 103.64C135.996 108.867 131.943 113.08 126.823 116.28C121.809 119.373 115.569 120.92 108.102 120.92ZM107.143 47C101.596 47 97.3292 48.7067 94.3425 52.12C91.3558 55.4267 89.8625 60.44 89.8625 67.16V70.52H123.302V67.16C123.302 53.72 117.916 47 107.143 47ZM172.099 119C166.339 119 162.125 117.72 159.459 115.16C156.899 112.6 155.619 108.44 155.619 102.68V49.4H144.099V35.8H150.499C153.165 35.8 154.925 35.2133 155.779 34.04C156.739 32.76 157.219 30.7867 157.219 28.12V13.08H172.099V35.8H187.619V49.4H172.099V105.4H186.499V119H172.099ZM225.89 120.92C215.01 120.92 206.637 117.453 200.77 110.52C194.903 103.587 191.97 92.5467 191.97 77.4C191.97 62.2533 194.903 51.2133 200.77 44.28C206.637 37.3467 215.01 33.88 225.89 33.88C233.89 33.88 240.29 35.7467 245.09 39.48C249.89 43.1067 253.357 47.96 255.49 54.04L241.89 60.44C240.93 56.28 239.17 53.1333 236.61 51C234.157 48.76 230.583 47.64 225.89 47.64C214.903 47.64 209.41 54.3067 209.41 67.64V87.16C209.41 100.493 214.903 107.16 225.89 107.16C230.69 107.16 234.423 106.04 237.09 103.8C239.863 101.453 241.997 98.04 243.49 93.56L255.97 100.44C253.517 106.947 249.783 112.013 244.77 115.64C239.863 119.16 233.57 120.92 225.89 120.92ZM264.444 0.599998H280.924V49.56H282.844C286.15 39.1067 292.977 33.88 303.324 33.88C310.79 33.88 316.55 36.44 320.604 41.56C324.764 46.5733 326.844 53.9867 326.844 63.8V119H310.364V66.04C310.364 60.1733 309.244 55.6933 307.004 52.6C304.764 49.5067 301.244 47.96 296.444 47.96C292.07 47.96 288.39 49.2933 285.404 51.96C282.417 54.52 280.924 58.1467 280.924 62.84V119H264.444V0.599998ZM351.706 135.32C350.64 140.76 348.666 144.707 345.786 147.16C342.906 149.72 338.746 151 333.306 151H319.386L321.946 137.88H335.386L353.146 48.92H342.106L344.666 35.8H355.866L359.706 16.28C360.773 10.84 362.746 6.89333 365.626 4.44C368.506 1.88 372.666 0.599998 378.106 0.599998H392.986L390.266 13.72H376.026L371.706 35.8H385.786L383.226 48.92H368.986L351.706 135.32ZM430.983 105.24H428.903C425.596 115.693 418.716 120.92 408.263 120.92C400.903 120.92 395.143 118.413 390.983 113.4C386.929 108.28 384.903 100.813 384.903 91V35.8H401.383V88.76C401.383 100.813 406.076 106.84 415.463 106.84C419.729 106.84 423.356 105.56 426.343 103C429.436 100.333 430.983 96.6533 430.983 91.96V35.8H447.463V119H430.983V105.24ZM463.525 119V35.8H480.005V49.56H481.925C485.232 39.1067 492.058 33.88 502.405 33.88C509.872 33.88 515.632 36.44 519.685 41.56C523.845 46.5733 525.925 53.9867 525.925 63.8V119H509.445V66.04C509.445 60.1733 508.325 55.6933 506.085 52.6C503.845 49.5067 500.325 47.96 495.525 47.96C491.152 47.96 487.472 49.2933 484.485 51.96C481.498 54.52 480.005 58.1467 480.005 62.84V119H463.525ZM587.907 105.4H585.987C584.601 110.307 582.094 114.147 578.467 116.92C574.947 119.587 570.734 120.92 565.827 120.92C555.907 120.92 548.547 117.187 543.747 109.72C538.947 102.147 536.547 91.3733 536.547 77.4C536.547 63.4267 538.947 52.7067 543.747 45.24C548.547 37.6667 555.907 33.88 565.827 33.88C570.734 33.88 574.947 35.2667 578.467 38.04C582.094 40.7067 584.601 44.4933 585.987 49.4H587.907V0.599998H604.387V119H587.907V105.4ZM571.747 106.84C576.441 106.84 580.281 105.613 583.267 103.16C586.361 100.707 587.907 97.3467 587.907 93.08V61.72C587.907 57.4533 586.361 54.0933 583.267 51.64C580.281 49.1867 576.441 47.96 571.747 47.96C566.094 47.96 561.721 49.72 558.627 53.24C555.534 56.76 553.987 61.72 553.987 68.12V86.68C553.987 93.08 555.534 98.04 558.627 101.56C561.721 105.08 566.094 106.84 571.747 106.84Z" fill="black"/>
</svg>
