<svg width="376" height="75" viewBox="0 0 376 75" fill="none" xmlns="http://www.w3.org/2000/svg">
<path d="M0 2.68152H7.89142V26.1259H8.8108C10.3942 21.1204 13.6631 18.6176 18.6176 18.6176C22.193 18.6176 24.9512 19.8434 26.8921 22.2951C28.8841 24.6958 29.8801 28.2456 29.8801 32.9447V59.3771H21.9887V34.0173C21.9887 31.2081 21.4524 29.0629 20.3798 27.5816C19.3072 26.1004 17.6216 25.3598 15.3231 25.3598C13.229 25.3598 11.4668 25.9982 10.0367 27.2752C8.6065 28.501 7.89142 30.2376 7.89142 32.485V59.3771H0V2.68152Z" fill="white"/>
<path d="M51.6689 60.2965C49.1661 60.2965 46.8677 59.8879 44.7735 59.0707C42.6793 58.2534 40.8916 57.002 39.4104 55.3165C37.9292 53.5799 36.7544 51.4091 35.8861 48.8042C35.0688 46.1992 34.6602 43.0835 34.6602 39.457C34.6602 35.8306 35.0433 32.7149 35.8095 30.1099C36.5756 27.4539 37.6738 25.2831 39.1039 23.5976C40.5852 21.9121 42.3218 20.6607 44.3138 19.8434C46.3569 19.0262 48.6554 18.6176 51.2092 18.6176C56.2658 18.6176 60.1988 20.2776 63.008 23.5976C65.8683 26.9176 67.2985 32.2041 67.2985 39.457V41.4491H42.9347V43.9774C42.9347 47.1442 43.7264 49.5703 45.3098 51.2559C46.9443 52.9414 49.1661 53.7842 51.9754 53.7842C54.376 53.7842 56.3425 53.2479 57.8748 52.1753C59.4582 51.1026 60.7862 49.5959 61.8588 47.6549L66.4557 52.022C65.0256 54.5248 63.0846 56.5423 60.6329 58.0747C58.2323 59.5559 55.2443 60.2965 51.6689 60.2965ZM51.2092 24.9001C48.5532 24.9001 46.5101 25.7173 45.08 27.3518C43.6498 28.9352 42.9347 31.3358 42.9347 34.5536V36.1626H58.9474V34.5536C58.9474 28.1179 56.368 24.9001 51.2092 24.9001Z" fill="white"/>
<path d="M82.3134 59.3771C79.5552 59.3771 77.5377 58.7642 76.2607 57.5384C75.0349 56.3125 74.422 54.3205 74.422 51.5623V26.0493H68.9056V19.537H71.9703C73.2472 19.537 74.09 19.256 74.4986 18.6942C74.9583 18.0813 75.1881 17.1363 75.1881 15.8594V8.65754H82.3134V19.537H89.7451V26.0493H82.3134V52.8648H89.2088V59.3771H82.3134Z" fill="white"/>
<path d="M108.071 60.2965C102.861 60.2965 98.8518 58.6365 96.0426 55.3165C93.2333 51.9965 91.8287 46.71 91.8287 39.457C91.8287 32.2041 93.2333 26.9176 96.0426 23.5976C98.8518 20.2776 102.861 18.6176 108.071 18.6176C111.902 18.6176 114.967 19.5114 117.265 21.2991C119.564 23.0358 121.224 25.3598 122.245 28.2712L115.733 31.3358C115.273 29.3438 114.43 27.837 113.204 26.8155C112.03 25.7428 110.319 25.2065 108.071 25.2065C102.81 25.2065 100.18 28.3989 100.18 34.7835V44.1306C100.18 50.5152 102.81 53.7076 108.071 53.7076C110.37 53.7076 112.157 53.1713 113.434 52.0986C114.762 50.9749 115.784 49.3405 116.499 47.1952L122.475 50.4897C121.3 53.6054 119.513 56.0316 117.112 57.7682C114.762 59.4537 111.749 60.2965 108.071 60.2965Z" fill="white"/>
<path d="M126.533 2.68152H134.424V26.1259H135.343C136.927 21.1204 140.196 18.6176 145.15 18.6176C148.726 18.6176 151.484 19.8434 153.425 22.2951C155.417 24.6958 156.413 28.2456 156.413 32.9447V59.3771H148.521V34.0173C148.521 31.2081 147.985 29.0629 146.912 27.5816C145.84 26.1004 144.154 25.3598 141.856 25.3598C139.762 25.3598 137.999 25.9982 136.569 27.2752C135.139 28.501 134.424 30.2376 134.424 32.485V59.3771H126.533V2.68152Z" fill="white"/>
<path d="M168.318 67.1919C167.807 69.7969 166.862 71.6867 165.483 72.8615C164.104 74.0873 162.112 74.7003 159.507 74.7003H152.842L154.068 68.4178H160.503L169.008 25.8195H163.721L164.947 19.537H170.31L172.149 10.1899C172.66 7.58492 173.605 5.69507 174.984 4.52029C176.363 3.29444 178.355 2.68152 180.96 2.68152H188.085L186.782 8.964H179.964L177.895 19.537H184.637L183.411 25.8195H176.593L168.318 67.1919Z" fill="white"/>
<path d="M206.279 52.7882H205.283C203.7 57.7937 200.406 60.2965 195.4 60.2965C191.876 60.2965 189.117 59.0962 187.125 56.6956C185.185 54.2439 184.214 50.6685 184.214 45.9694V19.537H192.105V44.8968C192.105 50.6685 194.353 53.5543 198.848 53.5543C200.891 53.5543 202.627 52.9414 204.058 51.7156C205.539 50.4386 206.279 48.6765 206.279 46.4291V19.537H214.171V59.3771H206.279V52.7882Z" fill="white"/>
<path d="M221.862 59.3771V19.537H229.754V26.1259H230.673C232.256 21.1204 235.525 18.6176 240.48 18.6176C244.055 18.6176 246.813 19.8434 248.754 22.2951C250.746 24.6958 251.742 28.2456 251.742 32.9447V59.3771H243.851V34.0173C243.851 31.2081 243.315 29.0629 242.242 27.5816C241.169 26.1004 239.484 25.3598 237.185 25.3598C235.091 25.3598 233.329 25.9982 231.899 27.2752C230.469 28.501 229.754 30.2376 229.754 32.485V59.3771H221.862Z" fill="white"/>
<path d="M281.423 52.8648H280.503C279.839 55.2143 278.639 57.0531 276.902 58.3811C275.217 59.6581 273.199 60.2965 270.85 60.2965C266.099 60.2965 262.575 58.5088 260.277 54.9334C257.978 51.3069 256.829 46.1482 256.829 39.457C256.829 32.7659 257.978 27.6327 260.277 24.0573C262.575 20.4308 266.099 18.6176 270.85 18.6176C273.199 18.6176 275.217 19.2816 276.902 20.6096C278.639 21.8865 279.839 23.6998 280.503 26.0493H281.423V2.68152H289.314V59.3771H281.423V52.8648ZM273.684 53.5543C275.932 53.5543 277.771 52.9669 279.201 51.7922C280.682 50.6174 281.423 49.0085 281.423 46.9654V31.9487C281.423 29.9056 280.682 28.2967 279.201 27.1219C277.771 25.9471 275.932 25.3598 273.684 25.3598C270.977 25.3598 268.883 26.2025 267.402 27.8881C265.921 29.5736 265.18 31.9487 265.18 35.0133V43.9008C265.18 46.9654 265.921 49.3405 267.402 51.026C268.883 52.7116 270.977 53.5543 273.684 53.5543Z" fill="white"/>
<path d="M344.915 0.00160465C346.863 -0.195235 332.945 17.783 332.945 17.783C332.945 17.783 353.565 1.03231 354.978 1.67338C356.39 2.31446 336.631 19.0428 336.631 19.0428C336.631 19.0428 362.522 5.28762 363.95 6.50758C365.378 7.72754 339.706 21.4257 339.706 21.4257C339.706 21.4257 369.817 12.7532 370.859 13.9803C371.902 15.2074 341.837 24.6736 341.837 24.6736C341.837 24.6736 374.115 21.2682 374.957 23.2818C375.8 25.2955 342.794 28.4344 342.794 28.4344C342.794 28.4344 375.842 31.4247 375.8 33.4041C375.757 35.3835 342.472 32.3009 342.472 32.3009C342.472 32.3009 374.195 42.0626 373.295 43.2503C372.396 44.4381 340.907 35.8537 340.907 35.8537C340.907 35.8537 368.966 50.6539 367.716 51.7534C366.465 52.853 338.268 38.7081 338.268 38.7081C338.268 38.7081 361.91 57.1274 359.665 57.9919C357.42 58.8566 334.84 40.5546 334.84 40.5546C334.84 40.5546 352.547 61.29 350.016 61.29C347.485 61.29 330.997 41.1931 330.997 41.1931C330.997 41.1931 342.523 61.558 339.814 61.29C337.106 61.0218 327.153 40.5546 327.153 40.5546C327.153 40.5546 332.072 59.0466 330.165 57.9919C328.258 56.9374 323.726 38.7081 323.726 38.7081C323.726 38.7081 323.78 53.0652 322.114 51.7534C320.449 50.4417 321.087 35.8537 321.087 35.8537C321.087 35.8537 317.365 45.458 316.535 43.2503C315.704 41.0427 319.522 32.3009 319.522 32.3009C319.522 32.3009 314.136 35.7553 314.03 33.4041C313.924 31.053 319.2 28.4344 319.2 28.4344C319.2 28.4344 314.289 25.2541 314.873 23.2818C315.457 21.3095 320.156 24.6736 320.156 24.6736C320.156 24.6736 318.58 15.755 318.971 13.9803C319.361 12.2056 322.288 21.4257 322.288 21.4257C322.288 21.4257 324.688 7.79731 325.88 6.50758C327.072 5.21785 325.363 19.0428 325.363 19.0428C325.363 19.0428 333.093 2.85308 334.852 1.67338C336.611 0.493703 329.048 17.783 329.048 17.783C329.048 17.783 342.967 0.198445 344.915 0.00160465Z" fill="#CA9627"/>
</svg>
