<svg width="135" height="146" viewBox="0 0 135 146" fill="none" xmlns="http://www.w3.org/2000/svg">
<path d="M54.7235 98.8926C59.3628 99.6302 64.0702 96.6091 68.0553 94.3754C81.3677 86.9558 94.699 79.5717 107.946 72.0132C112.961 69.1469 118.079 66.6339 122.822 63.1613C126.731 60.3 131.372 57.2836 133.193 52.333C136.406 43.6033 130.254 33.3198 125.473 26.6818C124 24.6325 122.438 22.663 120.791 20.7802C119.138 18.8882 117.447 17.0395 115.683 15.3136C109.909 9.70298 100.901 2.38635 92.7539 5.40535C88.1454 7.10557 85.1311 12.0121 82.2886 16.1226C78.8604 21.1137 76.2794 26.5709 73.3849 31.8959C65.747 45.971 58.238 60.1252 50.7112 74.2623C48.4696 78.492 45.4291 83.463 45.8314 88.5868C45.8724 88.9224 45.9263 89.2498 45.9904 89.5802C46.3312 91.7715 47.2659 93.8101 48.657 95.4226L48.8998 95.7145C50.2576 97.1674 51.9498 98.177 53.7862 98.6464C54.101 98.7491 54.4007 98.8235 54.7235 98.8926Z" fill="#FF7009"/>
<path d="M6.2421 48.13L6.26097 48.1137L17.5581 15.5811C18.7135 12.2344 19.8184 8.853 21.8562 5.96672C23.2238 4.03254 24.5684 2.20928 26.9576 1.12349C28.2644 0.550588 29.6662 0.276787 31.0726 0.318016C36.6395 0.315682 42.5001 4.15935 47.0223 7.21937C52.0328 10.6051 56.46 14.8802 60.1203 19.8673C60.9925 21.1254 61.7284 22.4875 62.3142 23.9282C62.5701 24.6381 62.7913 25.3625 62.9768 26.0986C63.3136 27.5568 63.359 29.0819 63.11 30.5747C62.8575 31.9938 62.3211 33.344 61.5379 34.5313C60.4157 36.3419 58.7416 38.2505 56.0168 40.7229C55.5812 41.0965 55.1548 41.4824 54.7382 41.8803C52.4682 43.9152 49.6989 46.1524 46.479 48.8204C41.5297 52.9594 36.5761 57.0176 31.572 61.0411L22.7108 68.2493C21.0933 69.57 19.3776 70.7439 17.582 71.7584C16.0617 72.6234 14.4055 73.1662 12.7063 73.3563C11.411 73.4299 10.1199 73.2429 8.8997 72.8052L8.74006 72.7442C6.21786 71.7901 4.16211 69.8142 3.00595 67.2328C1.84977 64.6514 1.68346 61.6661 2.54205 58.9057C2.64949 58.4872 2.76696 58.1492 2.8387 57.9428L6.2421 48.13Z" fill="#0AAD5F"/>
<path d="M128.392 136.758H134.462C134.507 136.758 134.546 136.774 134.576 136.804C134.622 136.819 134.652 136.85 134.668 136.896C134.698 136.926 134.714 136.965 134.714 137.01V139.461H128.644C128.598 139.461 128.56 139.461 128.53 139.461C128.499 139.446 128.469 139.43 128.438 139.415C128.423 139.385 128.408 139.354 128.392 139.324C128.392 139.293 128.392 139.255 128.392 139.209C128.392 138.797 128.392 138.392 128.392 137.995C128.392 137.583 128.392 137.171 128.392 136.758ZM128.621 129.04C129.278 129.04 129.873 129.086 130.408 129.177C130.957 129.254 131.438 129.361 131.851 129.498C132.278 129.636 132.645 129.788 132.95 129.956C133.255 130.124 133.492 130.3 133.66 130.483C133.721 130.529 133.759 130.582 133.775 130.643C133.79 130.704 133.797 130.773 133.797 130.849C133.797 131.155 133.797 131.506 133.797 131.903C133.797 132.285 133.797 132.674 133.797 133.071C133.797 133.453 133.797 133.819 133.797 134.17C133.355 134.17 132.912 134.17 132.469 134.17C132.026 134.17 131.583 134.17 131.141 134.17C131.064 134.17 131.003 134.147 130.957 134.102C130.912 134.056 130.889 133.995 130.889 133.918C130.889 133.72 130.889 133.506 130.889 133.277C130.889 133.048 130.889 132.804 130.889 132.544C130.889 132.285 130.889 131.987 130.889 131.651L131.507 132.636C131.11 132.407 130.66 132.246 130.156 132.155C129.667 132.048 129.095 131.995 128.438 131.995C127.904 131.995 127.423 132.063 126.995 132.201C126.568 132.338 126.209 132.552 125.919 132.842C125.629 133.117 125.407 133.468 125.255 133.896C125.102 134.323 125.026 134.827 125.026 135.407V139.919C125.026 140.469 125.102 140.95 125.255 141.362C125.407 141.774 125.606 142.102 125.85 142.347C126.094 142.591 126.407 142.782 126.789 142.919C127.186 143.041 127.705 143.103 128.346 143.103C128.759 143.103 129.14 143.072 129.492 143.011C129.843 142.935 130.141 142.835 130.385 142.713C130.644 142.591 130.835 142.477 130.957 142.37C130.957 141.866 130.957 141.408 130.957 140.995C130.957 140.583 130.957 140.179 130.957 139.782C130.957 139.369 130.957 138.942 130.957 138.499H133.981L133.866 139.049C133.866 139.843 133.866 140.598 133.866 141.316C133.866 142.018 133.866 142.782 133.866 143.606C133.866 143.713 133.858 143.797 133.843 143.858C133.828 143.919 133.79 143.981 133.729 144.042C133.439 144.423 133.019 144.759 132.469 145.049C131.935 145.339 131.332 145.568 130.66 145.736C129.988 145.904 129.308 145.988 128.621 145.988C127.446 145.988 126.43 145.843 125.575 145.553C124.735 145.263 124.041 144.851 123.491 144.316C122.957 143.782 122.56 143.133 122.3 142.37C122.056 141.591 121.934 140.728 121.934 139.782V135.293C121.934 134.346 122.071 133.491 122.346 132.727C122.636 131.949 123.056 131.292 123.606 130.758C124.155 130.208 124.85 129.788 125.69 129.498C126.529 129.193 127.507 129.04 128.621 129.04Z" fill="white"/>
<path d="M110.152 145.53C109.679 145.53 109.205 145.53 108.732 145.53C108.259 145.53 107.778 145.53 107.289 145.53C107.243 145.53 107.197 145.523 107.152 145.507C107.121 145.477 107.091 145.446 107.06 145.416C107.045 145.37 107.037 145.324 107.037 145.278C107.037 144.164 107.037 143.049 107.037 141.934C107.037 140.82 107.037 139.713 107.037 138.613C107.037 137.499 107.037 136.384 107.037 135.27C107.037 134.14 107.037 133.025 107.037 131.926C107.037 131.514 107.037 131.109 107.037 130.712C107.037 130.3 107.037 129.895 107.037 129.498C107.373 129.498 107.747 129.498 108.159 129.498C108.572 129.498 108.984 129.498 109.396 129.498C109.824 129.498 110.19 129.498 110.495 129.498C110.587 129.498 110.656 129.513 110.702 129.544C110.747 129.559 110.801 129.613 110.862 129.704C110.923 129.796 111.015 129.964 111.137 130.208C111.488 130.865 111.831 131.506 112.167 132.132C112.503 132.743 112.832 133.353 113.152 133.964C113.488 134.575 113.809 135.186 114.114 135.796C114.435 136.392 114.748 136.987 115.053 137.583C115.374 138.178 115.687 138.781 115.992 139.392C116.313 139.988 116.618 140.598 116.908 141.224L116.015 140.606H117.573L117.092 140.881C116.969 140.194 116.863 139.553 116.771 138.957C116.695 138.362 116.626 137.797 116.565 137.262C116.504 136.713 116.458 136.186 116.427 135.682C116.397 135.163 116.374 134.659 116.359 134.17C116.343 133.666 116.336 133.155 116.336 132.636C116.336 132.193 116.336 131.704 116.336 131.17C116.336 130.62 116.336 130.063 116.336 129.498C116.824 129.498 117.305 129.498 117.779 129.498C118.252 129.498 118.725 129.498 119.199 129.498C119.275 129.498 119.336 129.521 119.382 129.567C119.428 129.613 119.451 129.674 119.451 129.75C119.451 130.849 119.451 131.956 119.451 133.071C119.451 134.17 119.451 135.277 119.451 136.392C119.451 137.491 119.451 138.591 119.451 139.69C119.451 140.789 119.451 141.896 119.451 143.011C119.451 143.438 119.451 143.866 119.451 144.293C119.451 144.706 119.451 145.118 119.451 145.53C119.145 145.53 118.825 145.53 118.489 145.53C118.153 145.53 117.824 145.53 117.504 145.53C117.183 145.53 116.893 145.53 116.634 145.53C116.542 145.53 116.435 145.5 116.313 145.439C116.191 145.362 116.03 145.149 115.832 144.797C115.16 143.652 114.542 142.583 113.977 141.591C113.412 140.583 112.885 139.621 112.396 138.705C111.908 137.789 111.435 136.888 110.976 136.003C110.534 135.102 110.083 134.178 109.625 133.231L110.656 134.01H109.075L109.488 133.666C109.61 134.384 109.702 135.064 109.763 135.705C109.839 136.346 109.9 136.957 109.946 137.537C110.007 138.102 110.053 138.644 110.083 139.163C110.114 139.667 110.129 140.14 110.129 140.583C110.144 141.026 110.152 141.431 110.152 141.797C110.152 142.393 110.152 143.011 110.152 143.652C110.152 144.278 110.152 144.904 110.152 145.53Z" fill="white"/>
<path d="M101.723 143.813H98.3336L98.4252 142.873C98.4252 142.614 98.4252 142.324 98.4252 142.003C98.4252 141.683 98.4252 141.392 98.4252 141.133C98.4252 140.308 98.4252 139.484 98.4252 138.659C98.4252 137.835 98.4252 137.018 98.4252 136.209C98.4252 135.384 98.4252 134.56 98.4252 133.735C98.4252 132.895 98.4252 132.056 98.4252 131.216H101.815L101.723 132.155C101.723 132.399 101.723 132.674 101.723 132.979C101.723 133.285 101.723 133.567 101.723 133.827C101.723 134.667 101.723 135.506 101.723 136.346C101.723 137.171 101.723 138.003 101.723 138.843C101.723 139.667 101.723 140.492 101.723 141.316C101.723 142.141 101.723 142.973 101.723 143.813ZM104.174 145.53H96.2265C96.196 145.53 96.1655 145.523 96.1349 145.507C96.1044 145.492 96.0739 145.477 96.0433 145.462C96.0281 145.431 96.0128 145.4 95.9975 145.37C95.9822 145.339 95.9746 145.309 95.9746 145.278C95.9746 144.973 95.9746 144.683 95.9746 144.408C95.9746 144.133 95.9746 143.866 95.9746 143.606C95.9746 143.332 95.9746 143.041 95.9746 142.736H103.899C103.945 142.736 103.991 142.751 104.037 142.782C104.082 142.797 104.113 142.828 104.128 142.873C104.159 142.904 104.174 142.942 104.174 142.988C104.174 143.293 104.174 143.583 104.174 143.858C104.174 144.118 104.174 144.385 104.174 144.66C104.174 144.935 104.174 145.225 104.174 145.53ZM95.9746 129.498H103.899C103.991 129.498 104.059 129.521 104.105 129.567C104.151 129.613 104.174 129.674 104.174 129.75C104.174 129.964 104.174 130.178 104.174 130.391C104.174 130.605 104.174 130.819 104.174 131.033C104.174 131.231 104.174 131.437 104.174 131.651C104.174 131.849 104.174 132.063 104.174 132.292H96.2265C96.1655 132.292 96.1044 132.269 96.0433 132.224C95.9975 132.162 95.9746 132.101 95.9746 132.04C95.9746 131.811 95.9746 131.598 95.9746 131.399C95.9746 131.185 95.9746 130.979 95.9746 130.781C95.9746 130.567 95.9746 130.353 95.9746 130.139C95.9746 129.926 95.9746 129.712 95.9746 129.498Z" fill="white"/>
<path d="M87.9676 129.063C89.0364 129.063 89.9525 129.193 90.7159 129.452C91.4794 129.697 92.0367 129.995 92.3879 130.346C92.4489 130.407 92.4871 130.468 92.5024 130.529C92.5176 130.59 92.5253 130.666 92.5253 130.758C92.5253 131.048 92.5253 131.376 92.5253 131.743C92.5253 132.109 92.5253 132.476 92.5253 132.842C92.5253 133.209 92.5253 133.567 92.5253 133.919C92.0978 133.919 91.655 133.919 91.1969 133.919C90.7388 133.919 90.2884 133.919 89.8456 133.919C89.7693 133.919 89.7082 133.896 89.6624 133.85C89.6166 133.804 89.5937 133.743 89.5937 133.667C89.5937 133.514 89.5937 133.361 89.5937 133.209C89.5937 133.056 89.5937 132.896 89.5937 132.728C89.5937 132.544 89.5937 132.354 89.5937 132.155C89.5937 131.957 89.5937 131.735 89.5937 131.491L90.235 132.315C89.8685 132.147 89.5097 132.033 89.1585 131.972C88.8226 131.895 88.4256 131.857 87.9676 131.857C87.5248 131.857 87.1354 131.888 86.7995 131.949C86.4789 132.01 86.204 132.117 85.975 132.27C85.746 132.407 85.5704 132.59 85.4482 132.819C85.3261 133.033 85.265 133.293 85.265 133.598V134.079C85.265 134.369 85.3108 134.621 85.4024 134.835C85.5093 135.048 85.6925 135.232 85.9521 135.384C86.2269 135.537 86.6315 135.697 87.166 135.865L89.3646 136.53C90.067 136.743 90.6549 136.98 91.1282 137.24C91.6168 137.484 91.9985 137.766 92.2733 138.087C92.5482 138.408 92.7467 138.774 92.8688 139.186C92.991 139.599 93.0521 140.072 93.0521 140.606V141.66C93.0521 142.545 92.8154 143.316 92.3421 143.973C91.8687 144.614 91.1816 145.111 90.2808 145.462C89.3952 145.798 88.3264 145.966 87.0743 145.966C86.3414 145.966 85.6467 145.92 84.9902 145.828C84.3489 145.737 83.7839 145.599 83.2953 145.416C82.822 145.217 82.4479 144.996 82.1731 144.752C82.1273 144.706 82.0891 144.66 82.0586 144.614C82.0433 144.553 82.0356 144.454 82.0356 144.317C82.0356 144.042 82.0356 143.775 82.0356 143.515C82.0356 143.255 82.0356 142.981 82.0356 142.69C82.0356 142.4 82.0356 142.103 82.0356 141.797H82.4708C83.1579 142.255 83.8755 142.599 84.6237 142.828C85.3719 143.042 86.2575 143.149 87.2805 143.149C88.2271 143.149 88.9142 142.996 89.3417 142.69C89.7845 142.385 90.0059 142.019 90.0059 141.591V140.812C90.0059 140.553 89.9601 140.339 89.8685 140.171C89.7922 139.988 89.6242 139.82 89.3646 139.667C89.1051 139.499 88.6928 139.339 88.1279 139.186L85.9521 138.522C85.2039 138.293 84.5855 138.034 84.0969 137.743C83.6083 137.438 83.2266 137.117 82.9518 136.781C82.6922 136.446 82.5013 136.087 82.3792 135.705C82.2723 135.308 82.2189 134.896 82.2189 134.468V133.369C82.2189 132.743 82.3487 132.17 82.6082 131.651C82.8831 131.117 83.2724 130.659 83.7763 130.277C84.2802 129.88 84.8833 129.582 85.5856 129.384C86.3033 129.17 87.0972 129.063 87.9676 129.063Z" fill="white"/>
<path d="M74.6819 129.063C75.7507 129.063 76.6668 129.193 77.4303 129.452C78.1937 129.697 78.751 129.995 79.1022 130.346C79.1633 130.407 79.2015 130.468 79.2167 130.529C79.232 130.59 79.2396 130.666 79.2396 130.758C79.2396 131.048 79.2396 131.376 79.2396 131.743C79.2396 132.109 79.2396 132.476 79.2396 132.842C79.2396 133.209 79.2396 133.567 79.2396 133.919C78.8121 133.919 78.3693 133.919 77.9113 133.919C77.4532 133.919 77.0028 133.919 76.56 133.919C76.4836 133.919 76.4225 133.896 76.3767 133.85C76.3309 133.804 76.308 133.743 76.308 133.667C76.308 133.514 76.308 133.361 76.308 133.209C76.308 133.056 76.308 132.896 76.308 132.728C76.308 132.544 76.308 132.354 76.308 132.155C76.308 131.957 76.308 131.735 76.308 131.491L76.9493 132.315C76.5829 132.147 76.2241 132.033 75.8729 131.972C75.537 131.895 75.14 131.857 74.6819 131.857C74.2391 131.857 73.8498 131.888 73.5138 131.949C73.1932 132.01 72.9184 132.117 72.6893 132.27C72.4603 132.407 72.2847 132.59 72.1626 132.819C72.0404 133.033 71.9793 133.293 71.9793 133.598V134.079C71.9793 134.369 72.0251 134.621 72.1168 134.835C72.2236 135.048 72.4069 135.232 72.6664 135.384C72.9413 135.537 73.3459 135.697 73.8803 135.865L76.079 136.53C76.7814 136.743 77.3692 136.98 77.8425 137.24C78.3311 137.484 78.7129 137.766 78.9877 138.087C79.2625 138.408 79.461 138.774 79.5832 139.186C79.7053 139.599 79.7664 140.072 79.7664 140.606V141.66C79.7664 142.545 79.5297 143.316 79.0564 143.973C78.5831 144.614 77.896 145.111 76.9951 145.462C76.1095 145.798 75.0407 145.966 73.7887 145.966C73.0558 145.966 72.3611 145.92 71.7045 145.828C71.0632 145.737 70.4983 145.599 70.0097 145.416C69.5363 145.217 69.1623 144.996 68.8874 144.752C68.8416 144.706 68.8034 144.66 68.7729 144.614C68.7576 144.553 68.75 144.454 68.75 144.317C68.75 144.042 68.75 143.775 68.75 143.515C68.75 143.255 68.75 142.981 68.75 142.69C68.75 142.4 68.75 142.103 68.75 141.797H69.1852C69.8723 142.255 70.5899 142.599 71.3381 142.828C72.0862 143.042 72.9718 143.149 73.9948 143.149C74.9415 143.149 75.6286 142.996 76.0561 142.69C76.4989 142.385 76.7203 142.019 76.7203 141.591V140.812C76.7203 140.553 76.6745 140.339 76.5829 140.171C76.5065 139.988 76.3386 139.82 76.079 139.667C75.8194 139.499 75.4072 139.339 74.8422 139.186L72.6664 138.522C71.9183 138.293 71.2999 138.034 70.8113 137.743C70.3227 137.438 69.941 137.117 69.6661 136.781C69.4066 136.446 69.2157 136.087 69.0935 135.705C68.9867 135.308 68.9332 134.896 68.9332 134.468V133.369C68.9332 132.743 69.063 132.17 69.3226 131.651C69.5974 131.117 69.9868 130.659 70.4906 130.277C70.9945 129.88 71.5976 129.582 72.3 129.384C73.0176 129.17 73.8116 129.063 74.6819 129.063Z" fill="white"/>
<path d="M55.8486 129.498H66.3612C66.407 129.498 66.4451 129.513 66.4757 129.544C66.5062 129.559 66.5368 129.59 66.5673 129.635C66.5978 129.666 66.6131 129.704 66.6131 129.75C66.6131 130.223 66.6131 130.651 66.6131 131.033C66.6131 131.399 66.6131 131.819 66.6131 132.292H56.1006C56.0548 132.292 56.009 132.285 55.9631 132.269C55.9326 132.239 55.9021 132.208 55.8715 132.178C55.8563 132.132 55.8486 132.086 55.8486 132.04C55.8486 131.567 55.8486 131.139 55.8486 130.758C55.8486 130.376 55.8486 129.956 55.8486 129.498ZM58.9864 136.117H65.0099C65.0557 136.117 65.0939 136.132 65.1244 136.163C65.1702 136.193 65.2007 136.224 65.216 136.254C65.2465 136.285 65.2618 136.323 65.2618 136.369C65.2618 136.69 65.2618 136.987 65.2618 137.262C65.2618 137.522 65.2618 137.781 65.2618 138.041C65.2618 138.285 65.2618 138.545 65.2618 138.82H58.9864V136.117ZM57.2228 145.53C57.177 145.53 57.1388 145.523 57.1083 145.507C57.0778 145.492 57.0472 145.477 57.0167 145.462C57.0014 145.431 56.9862 145.4 56.9709 145.37C56.9556 145.339 56.948 145.309 56.948 145.278C56.948 144.866 56.948 144.271 56.948 143.492C56.948 142.698 56.948 141.797 56.948 140.789C56.948 139.766 56.948 138.697 56.948 137.583C56.948 136.453 56.948 135.338 56.948 134.239C56.948 133.124 56.948 132.101 56.948 131.17H60.4293L60.246 131.674C60.246 132.025 60.246 132.384 60.246 132.75C60.246 133.117 60.246 133.483 60.246 133.85C60.246 134.552 60.246 135.277 60.246 136.025C60.246 136.774 60.246 137.522 60.246 138.27C60.246 139.018 60.246 139.774 60.246 140.537C60.246 141.286 60.246 142.018 60.246 142.736H66.3612C66.4375 142.736 66.4986 142.759 66.5444 142.805C66.5902 142.851 66.6131 142.912 66.6131 142.988C66.6131 143.431 66.6131 143.858 66.6131 144.271C66.6131 144.668 66.6131 145.087 66.6131 145.53H57.2228Z" fill="white"/>
<path d="M49.2617 145.988C48.1623 145.988 47.2004 145.843 46.3759 145.553C45.5514 145.278 44.8643 144.874 44.3146 144.339C43.7649 143.805 43.3527 143.148 43.0778 142.37C42.8183 141.591 42.6885 140.705 42.6885 139.713V135.086C42.6885 134.186 42.8259 133.369 43.1007 132.636C43.3756 131.888 43.7802 131.246 44.3146 130.712C44.8643 130.178 45.5285 129.765 46.3072 129.475C47.1011 129.185 48.002 129.04 49.0097 129.04C49.7884 129.04 50.4832 129.116 51.0939 129.269C51.7199 129.406 52.2467 129.59 52.6742 129.819C53.117 130.033 53.4606 130.262 53.7049 130.506C53.7354 130.536 53.7583 130.575 53.7736 130.62C53.7889 130.666 53.7965 130.712 53.7965 130.758C53.8118 130.804 53.8194 130.849 53.8194 130.895C53.8194 131.46 53.8194 132.109 53.8194 132.842C53.8194 133.56 53.8194 134.247 53.8194 134.903C53.3766 134.903 52.9338 134.903 52.491 134.903C52.0482 134.903 51.6054 134.903 51.1626 134.903C51.0863 134.903 51.0252 134.88 50.9794 134.835C50.9336 134.789 50.9107 134.728 50.9107 134.651C50.9107 134.376 50.9107 134.102 50.9107 133.827C50.9107 133.552 50.9107 133.247 50.9107 132.911C50.9107 132.559 50.9107 132.155 50.9107 131.697L51.552 132.659C51.1703 132.414 50.7733 132.246 50.361 132.155C49.9488 132.048 49.4831 131.995 48.9639 131.995C48.3532 131.995 47.8188 132.109 47.3607 132.338C46.9179 132.552 46.5744 132.895 46.3301 133.369C46.101 133.842 45.9865 134.445 45.9865 135.178V139.461C45.9865 140.148 46.0476 140.728 46.1698 141.202C46.3072 141.66 46.5286 142.041 46.8339 142.347C47.1088 142.622 47.4523 142.82 47.8646 142.942C48.2921 143.049 48.7654 143.103 49.2846 143.103C50.1244 143.103 50.8649 143.003 51.5062 142.805C52.1475 142.606 52.8193 142.286 53.5217 141.843H53.9568C53.9568 142.057 53.9568 142.27 53.9568 142.484C53.9568 142.683 53.9568 142.889 53.9568 143.103C53.9568 143.301 53.9568 143.507 53.9568 143.721C53.9568 143.919 53.9568 144.133 53.9568 144.362C53.9568 144.439 53.9415 144.507 53.911 144.568C53.8957 144.629 53.8652 144.675 53.8194 144.706C53.6056 144.935 53.2774 145.149 52.8346 145.347C52.3918 145.53 51.865 145.683 51.2542 145.805C50.6435 145.927 49.9793 145.988 49.2617 145.988Z" fill="white"/>
<path d="M33.9989 129.04C35.1441 129.04 36.1747 129.284 37.0908 129.773C38.0222 130.246 38.7551 130.956 39.2895 131.903C39.8392 132.85 40.1141 134.033 40.1141 135.453V139.827C40.1141 141.141 39.8469 142.255 39.3125 143.171C38.778 144.087 38.0528 144.79 37.1367 145.278C36.2205 145.752 35.1746 145.988 33.9989 145.988C32.8538 145.988 31.8155 145.752 30.8841 145.278C29.968 144.79 29.2351 144.087 28.6854 143.171C28.151 142.255 27.8838 141.141 27.8838 139.827V135.453C27.8838 134.033 28.1663 132.85 28.7312 131.903C29.2961 130.956 30.0443 130.246 30.9757 129.773C31.9224 129.284 32.9301 129.04 33.9989 129.04ZM30.9757 139.621C30.9757 140.492 31.0826 141.141 31.2964 141.568C31.5101 141.996 31.7315 142.309 31.9605 142.507C32.1896 142.69 32.4797 142.843 32.8309 142.965C33.1973 143.087 33.6172 143.148 34.0905 143.148C34.6707 143.148 35.1746 143.019 35.6021 142.759C36.0297 142.499 36.3732 142.102 36.6328 141.568C36.8924 141.034 37.0221 140.377 37.0221 139.598V135.201C37.0221 134.712 36.9916 134.308 36.9305 133.987C36.8694 133.651 36.7778 133.369 36.6557 133.14C36.5335 132.911 36.3808 132.712 36.1976 132.544C35.9686 132.315 35.6785 132.14 35.3273 132.017C34.9761 131.895 34.5486 131.834 34.0447 131.834C33.3424 131.834 32.7622 131.972 32.3041 132.246C31.8613 132.521 31.5254 132.911 31.2964 133.415C31.0826 133.918 30.9757 134.514 30.9757 135.201V139.621Z" fill="white"/>
<path d="M22.1384 138.201C22.5353 138.904 22.9018 139.56 23.2377 140.171C23.5736 140.766 23.9324 141.423 24.3142 142.141C24.4516 142.37 24.5737 142.53 24.6806 142.622C24.8028 142.698 24.9478 142.736 25.1158 142.736C25.1921 142.736 25.2456 142.736 25.2761 142.736C25.3219 142.736 25.3753 142.736 25.4364 142.736H25.8716C25.8716 143.194 25.8716 143.622 25.8716 144.019C25.8716 144.4 25.8716 144.82 25.8716 145.278C25.8716 145.355 25.8487 145.416 25.8029 145.462C25.7571 145.507 25.696 145.53 25.6196 145.53C25.5128 145.53 25.3677 145.53 25.1845 145.53C25.0165 145.53 24.8562 145.53 24.7035 145.53C24.1844 145.53 23.7492 145.492 23.398 145.416C23.0468 145.324 22.7415 145.171 22.4819 144.958C22.2376 144.729 22.0086 144.416 21.7948 144.019C21.3978 143.24 21.0008 142.469 20.6038 141.705C20.2221 140.927 19.8328 140.156 19.4358 139.392L22.1384 138.201ZM13.7329 129.498C14.7865 129.498 15.84 129.498 16.8935 129.498C17.9471 129.498 19.0006 129.498 20.0542 129.498C20.9856 129.498 21.7795 129.605 22.4361 129.819C23.0927 130.032 23.6271 130.353 24.0393 130.781C24.4516 131.193 24.7493 131.689 24.9325 132.269C25.131 132.85 25.2303 133.498 25.2303 134.216V135.499C25.2303 136.201 25.1234 136.835 24.9096 137.4C24.6959 137.949 24.3829 138.423 23.9706 138.82C23.5736 139.201 23.085 139.491 22.5048 139.69C21.9246 139.888 21.268 139.988 20.5351 139.988C20.0771 139.988 19.6114 139.988 19.138 139.988C18.68 139.988 18.2143 139.988 17.741 139.988L17.489 140.125V137.285C17.9318 137.285 18.3746 137.285 18.8174 137.285C19.2755 137.285 19.7259 137.285 20.1687 137.285C20.5962 137.285 20.9474 137.224 21.2222 137.102C21.4971 136.98 21.6956 136.789 21.8177 136.529C21.9551 136.254 22.0238 135.926 22.0238 135.544V134.056C22.0238 133.766 21.9857 133.514 21.9093 133.3C21.8483 133.086 21.7414 132.903 21.5887 132.75C21.4513 132.613 21.2604 132.506 21.0161 132.43C20.7871 132.338 20.5046 132.292 20.1687 132.292C19.4816 132.292 18.7869 132.292 18.0845 132.292C17.3974 132.292 16.7103 132.292 16.0232 132.292C15.3514 132.292 14.6719 132.292 13.9848 132.292C13.9085 132.292 13.8474 132.269 13.8016 132.224C13.7558 132.178 13.7329 132.117 13.7329 132.04C13.7329 131.598 13.7329 131.178 13.7329 130.781C13.7329 130.368 13.7329 129.941 13.7329 129.498ZM18.0387 145.53C17.5348 145.53 17.0462 145.53 16.5729 145.53C16.1148 145.53 15.6262 145.53 15.1071 145.53C15.0308 145.53 14.9697 145.507 14.9239 145.462C14.8781 145.416 14.8552 145.355 14.8552 145.278C14.8552 144.042 14.8552 142.851 14.8552 141.705C14.8552 140.545 14.8552 139.392 14.8552 138.247C14.8552 137.102 14.8552 135.949 14.8552 134.789C14.8552 133.613 14.8552 132.422 14.8552 131.216H18.3135L18.0387 131.834C18.0387 132.338 18.0387 132.842 18.0387 133.346C18.0387 133.834 18.0387 134.308 18.0387 134.766C18.0387 135.712 18.0387 136.644 18.0387 137.56C18.0387 138.461 18.0387 139.385 18.0387 140.331C18.0387 141.263 18.0387 142.247 18.0387 143.286C18.0387 143.698 18.0387 144.095 18.0387 144.477C18.0387 144.858 18.0387 145.21 18.0387 145.53Z" fill="white"/>
<path d="M4.4203 145.53C3.91643 145.53 3.41257 145.53 2.9087 145.53C2.40483 145.53 1.89333 145.53 1.37419 145.53C1.29784 145.53 1.23677 145.507 1.19096 145.462C1.14516 145.416 1.12225 145.355 1.12225 145.278C1.12225 144.042 1.12225 142.851 1.12225 141.705C1.12225 140.545 1.12225 139.392 1.12225 138.247C1.12225 137.102 1.12225 135.949 1.12225 134.789C1.12225 133.613 1.12225 132.422 1.12225 131.216H4.67224L4.4203 131.834C4.4203 132.246 4.4203 132.636 4.4203 133.002C4.4203 133.353 4.4203 133.72 4.4203 134.102C4.4203 135.094 4.4203 136.094 4.4203 137.102C4.4203 138.094 4.4203 139.102 4.4203 140.125C4.4203 141.133 4.4203 142.186 4.4203 143.286C4.4203 143.698 4.4203 144.095 4.4203 144.477C4.4203 144.858 4.4203 145.21 4.4203 145.53ZM0 129.498C1.03828 129.498 2.13763 129.498 3.29805 129.498C4.45848 129.498 5.50439 129.498 6.43578 129.498C7.18395 129.498 7.84814 129.567 8.42835 129.704C9.00856 129.842 9.5048 130.048 9.91705 130.323C10.3446 130.582 10.6881 130.91 10.9477 131.307C11.2225 131.689 11.4287 132.14 11.5661 132.659C11.7035 133.163 11.7722 133.727 11.7722 134.354V135.751C11.7722 136.514 11.673 137.201 11.4745 137.812C11.276 138.407 10.963 138.919 10.5354 139.346C10.1232 139.759 9.57351 140.079 8.88641 140.308C8.21459 140.522 7.40534 140.629 6.45868 140.629C6.06169 140.629 5.65707 140.629 5.24482 140.629C4.83256 140.629 4.4203 140.629 4.00805 140.629L3.75611 140.721V137.835C4.25998 137.835 4.74858 137.835 5.22191 137.835C5.69524 137.835 6.1075 137.835 6.45868 137.835C6.79459 137.835 7.0847 137.797 7.329 137.72C7.58857 137.644 7.80233 137.529 7.97029 137.377C8.13825 137.224 8.2604 137.026 8.33674 136.781C8.41308 136.537 8.45125 136.232 8.45125 135.865V134.193C8.45125 133.842 8.41308 133.552 8.33674 133.323C8.27566 133.079 8.16878 132.88 8.0161 132.727C7.86341 132.559 7.65728 132.445 7.39771 132.384C7.13814 132.307 6.82513 132.269 6.45868 132.269C5.78686 132.269 5.09976 132.269 4.3974 132.269C3.69504 132.269 2.99268 132.269 2.29031 132.269C1.58795 132.269 0.908491 132.269 0.251934 132.269C0.175591 132.269 0.114516 132.246 0.0687093 132.201C0.0229031 132.155 0 132.094 0 132.017C0 131.575 0 131.155 0 130.758C0 130.361 0 129.941 0 129.498Z" fill="white"/>
</svg>
