<?xml version="1.0" standalone="no"?><svg xmlns:xlink="http://www.w3.org/1999/xlink" xmlns="http://www.w3.org/2000/svg" viewBox="0 0 1000 62.50000000000001" preserveAspectRatio="xMaxYMax slice"><g transform="scale(0.6622516556291391)"><rect x="0" y="0" width="1510" height="94.375" fill="#ffffff"/><rect x="0" y="0" width="94.38" height="94.38" fill="#FF7009"/><rect x="0" y="0" width="94.38" height="94.38" fill="#FF7009"/><rect x="94.38" y="0" width="94.38" height="94.38" fill="#FF7009"/><path d="M 94.38 94.38 A 94.38 94.38 0 0 0 188.76 0 L 94.38 0" fill="#0AAD5F"/><rect x="188.75" y="0" width="94.38" height="94.38" fill="#171f40"/><path d="M 188.75 94.38 A 94.38 94.38 0 0 0 283.13 0 L 188.75 0" fill="#0AAD5F"/><rect x="283.13" y="0" width="94.38" height="94.38" fill="#0AAD5F"/><path d="M 283.13 0 A 94.38 94.38 0 0 0 377.51 94.38 L 377.51 0" fill="#171f40"/><rect x="377.5" y="0" width="94.38" height="94.38" fill="#FF7009"/><path d="M 377.5 94.38 A 94.38 94.38 0 0 1  471.88 0 L 471.88 94.38" fill="#171f40"/><rect x="471.88" y="0" width="94.38" height="94.38" fill="#171f40"/><polygon points="566.26,0 566.26,94.38 471.88,94.38" fill="#0AAD5F"/><rect x="566.25" y="0" width="94.38" height="94.38" fill="#FF7009"/><path d="M 566.25 0 A 94.38 94.38 0 0 1 660.63 94.38 L 566.25 94.38" fill="#171f40"/><rect x="660.63" y="0" width="94.38" height="94.38" fill="#FF7009"/><path d="M 660.63 94.38 A 94.38 94.38 0 0 1  755.01 0 L 660.63 94.38 A 94.38 94.38 0 0 0 755.01 0" fill="#0AAD5F"/><rect x="755" y="0" width="94.38" height="94.38" fill="#0AAD5F"/><rect x="755" y="0" width="94.38" height="94.38" fill="#FF7009"/><rect x="849.38" y="0" width="94.38" height="94.38" fill="#171f40"/><rect x="849.38" y="0" width="94.38" height="94.38" fill="#0AAD5F"/><rect x="943.75" y="0" width="94.38" height="94.38" fill="#171f40"/><path d="M 943.75 94.38 A 94.38 94.38 0 0 1  1038.13 0 L 943.75 94.38 A 94.38 94.38 0 0 0 1038.13 0" fill="#171f40"/><rect x="1038.13" y="0" width="94.38" height="94.38" fill="#0AAD5F"/><rect x="1038.13" y="0" width="94.38" height="94.38" fill="#171f40"/><rect x="1132.5" y="0" width="94.38" height="94.38" fill="#FF7009"/><rect x="1132.5" y="0" width="94.38" height="94.38" fill="#0AAD5F"/><rect x="1226.88" y="0" width="94.38" height="94.38" fill="#FF7009"/><polygon points="1226.88,0 1321.2600000000002,0 1321.2600000000002,94.38" fill="#171f40"/><rect x="1321.25" y="0" width="94.38" height="94.38" fill="#FF7009"/><polygon points="1321.25,0 1415.63,0 1321.25,94.38" fill="#FF7009"/><rect x="1415.63" y="0" width="94.38" height="94.38" fill="#FF7009"/><rect x="1415.63" y="0" width="94.38" height="94.38" fill="#0AAD5F"/></g></svg>