<?xml version="1.0" standalone="no"?><svg xmlns:xlink="http://www.w3.org/1999/xlink" xmlns="http://www.w3.org/2000/svg" viewBox="0 0 1000 62.50000000000001" preserveAspectRatio="xMaxYMax slice"><g transform="scale(0.6622516556291391)"><rect x="0" y="0" width="1510" height="94.375" fill="#ffffff"/><circle cx="47.19" cy="47.19" r="9.44" fill="#FF7009"/><circle cx="141.57" cy="47.19" r="9.44" fill="#171f40"/><rect x="226.5" y="37.75" width="18.875" height="18.875" fill="#ffffff"/><circle cx="231.22" cy="42.47" r="4.72" fill="#171f40"/><circle cx="240.66" cy="42.47" r="4.72" fill="#0AAD5F"/><circle cx="231.22" cy="51.91" r="4.72" fill="#0AAD5F"/><circle cx="240.66" cy="51.91" r="4.72" fill="#171f40"/><rect x="320.875" y="37.75" width="18.875" height="18.875" fill="#ffffff"/><circle cx="325.6" cy="42.47" r="4.72" fill="#0AAD5F"/><circle cx="335.03000000000003" cy="42.47" r="4.72" fill="#FF7009"/><circle cx="325.6" cy="51.91" r="4.72" fill="#171f40"/><circle cx="335.03000000000003" cy="51.91" r="4.72" fill="#0AAD5F"/><rect x="415.25" y="37.75" width="18.875" height="18.875" fill="#ffffff"/><circle cx="419.97" cy="42.47" r="4.72" fill="#0AAD5F"/><circle cx="429.41" cy="42.47" r="4.72" fill="#FF7009"/><circle cx="419.97" cy="51.91" r="4.72" fill="#171f40"/><circle cx="429.41" cy="51.91" r="4.72" fill="#171f40"/><rect x="509.625" y="37.75" width="18.875" height="18.875" fill="#ffffff"/><circle cx="514.35" cy="42.47" r="4.72" fill="#171f40"/><circle cx="523.78" cy="42.47" r="4.72" fill="#0AAD5F"/><circle cx="514.35" cy="51.91" r="4.72" fill="#FF7009"/><circle cx="523.78" cy="51.91" r="4.72" fill="#171f40"/><rect x="604" y="37.75" width="18.875" height="18.875" fill="#ffffff"/><circle cx="608.72" cy="42.47" r="4.72" fill="#171f40"/><circle cx="618.1600000000001" cy="42.47" r="4.72" fill="#171f40"/><circle cx="608.72" cy="51.91" r="4.72" fill="#0AAD5F"/><circle cx="618.1600000000001" cy="51.91" r="4.72" fill="#0AAD5F"/><rect x="698.375" y="37.75" width="18.875" height="18.875" fill="#ffffff"/><circle cx="703.1" cy="42.47" r="4.72" fill="#0AAD5F"/><circle cx="712.53" cy="42.47" r="4.72" fill="#0AAD5F"/><circle cx="703.1" cy="51.91" r="4.72" fill="#0AAD5F"/><circle cx="712.53" cy="51.91" r="4.72" fill="#0AAD5F"/><rect x="792.75" y="37.75" width="18.875" height="18.875" fill="#ffffff"/><circle cx="797.47" cy="42.47" r="4.72" fill="#FF7009"/><circle cx="806.9100000000001" cy="42.47" r="4.72" fill="#171f40"/><circle cx="797.47" cy="51.91" r="4.72" fill="#171f40"/><circle cx="806.9100000000001" cy="51.91" r="4.72" fill="#171f40"/><circle cx="896.57" cy="47.19" r="9.44" fill="#0AAD5F"/><circle cx="990.94" cy="47.19" r="9.44" fill="#0AAD5F"/><rect x="1075.875" y="37.75" width="18.875" height="18.875" fill="#ffffff"/><circle cx="1080.6000000000001" cy="42.47" r="4.72" fill="#0AAD5F"/><circle cx="1090.03" cy="42.47" r="4.72" fill="#171f40"/><circle cx="1080.6000000000001" cy="51.91" r="4.72" fill="#171f40"/><circle cx="1090.03" cy="51.91" r="4.72" fill="#0AAD5F"/><circle cx="1179.69" cy="47.19" r="9.44" fill="#171f40"/><rect x="1264.625" y="37.75" width="18.875" height="18.875" fill="#ffffff"/><circle cx="1269.3500000000001" cy="42.47" r="4.72" fill="#FF7009"/><circle cx="1278.78" cy="42.47" r="4.72" fill="#FF7009"/><circle cx="1269.3500000000001" cy="51.91" r="4.72" fill="#171f40"/><circle cx="1278.78" cy="51.91" r="4.72" fill="#171f40"/><circle cx="1368.44" cy="47.19" r="9.44" fill="#171f40"/><circle cx="1462.8200000000002" cy="47.19" r="9.44" fill="#0AAD5F"/></g></svg>