<svg xmlns="http://www.w3.org/2000/svg" width="32" height="31" fill="none">
    <g fill="#9394AB" clip-path="url(#path)">
    <path d="M30.967 10.884H1.033A25.08 25.08 0 0 0 .65 12.06h30.702c-.11-.398-.238-.787-.384-1.176ZM31.515 12.696H.485c-.092.36-.165.721-.229 1.091h31.488c-.064-.37-.137-.73-.229-1.091ZM31.854 14.508H.146c-.045.333-.073.665-.1.997h31.908a18.261 18.261 0 0 0-.1-.997ZM32 16.767c0-.152 0-.294-.01-.446H.01c-.01.152-.01.294-.01.446 0 .152 0 .313.01.465h31.98c.01-.152.01-.313.01-.465ZM31.945 18.133H.055c.018.275.046.55.082.816h31.726c.036-.266.064-.54.082-.816ZM31.707 19.946H.293c.045.246.1.483.155.72h31.104c.055-.236.11-.474.155-.72ZM31.269 21.758H.73c.074.209.138.427.21.636h30.117c.073-.21.147-.427.21-.636ZM30.601 23.57H1.4l.247.541h28.708l.247-.54ZM29.687 25.383H2.322c.08.151.17.303.275.455h26.816l.274-.455ZM28.453 27.195H3.547l.284.36h24.338l.284-.36ZM26.816 29.007H5.184l.293.266h21.046l.293-.266ZM24.54 30.82H7.46l.284.18h16.512l.283-.18ZM28.873 6.898a16.377 16.377 0 0 0-.933-1.186A15.316 15.316 0 0 0 15.973 0 15.314 15.314 0 0 0 3.585 6.253h.027c-.164.218-.329.427-.484.645h25.746ZM29.12 7.268H2.88c-.293.437-.567.892-.823 1.357h27.886a13.617 13.617 0 0 0-.823-1.357ZM30.18 9.071H1.82c-.21.418-.403.845-.577 1.272h29.513a17.482 17.482 0 0 0-.575-1.272Z"></path>
    </g>
    <defs>
    <clipPath id="path">
        <path fill="#fff" d="M0 0h32v31H0z"></path>
    </clipPath>
    </defs>
</svg>