<svg width="170" height="32" viewBox="0 0 170 32" fill="none" xmlns="http://www.w3.org/2000/svg">
<g clip-path="url(#clip0_422_3177)">
<path d="M42.3967 24.1194C42.5969 25.487 43.5882 27.0841 46.3047 27.0841C48.6209 27.0841 49.7361 26.2712 49.7361 24.9323C49.7361 23.5934 48.9545 23.0291 47.5343 22.857L42.7303 22.3405C38.5555 21.9006 36.1058 19.481 36.1058 15.5216C36.1058 11.1128 39.4324 8.17676 46.1045 8.17676C53.2818 8.17676 56.1318 11.5623 56.4082 15.5503H49.6693C49.4692 14.0488 48.2396 13.0925 46.1331 13.0925C44.2649 13.0925 42.9686 13.7811 42.9686 15.0052C42.9686 15.9998 43.5882 16.7458 45.2181 16.8797L49.126 17.224C54.397 17.6639 56.6084 20.1887 56.6084 24.3872C56.6084 28.8629 53.8251 31.9998 46.1712 31.9998C38.6889 31.9998 36.1058 28.1074 35.7627 24.1194H42.3967Z" fill="#151F72"/>
<path d="M89.502 21.1545V31.4163H82.8298V21.8622C82.8298 20.4659 81.7623 19.2226 80.3802 19.2035C78.3309 19.1843 77.4635 20.4372 77.4635 23.1246V31.4163H70.8962V21.8622C70.8962 20.4754 69.8287 19.2226 68.4371 19.2035C66.3878 19.1748 65.5204 20.4372 65.5204 23.1246V31.4163H58.8578V14.3547H65.5204V16.9847C66.5784 15.005 68.3799 13.8096 71.2012 13.8096C74.0226 13.8096 75.9289 15.1485 76.844 17.4246C77.9401 15.2154 79.7702 13.8096 82.8012 13.8096C87.3955 13.8096 89.502 16.6787 89.502 21.1545Z" fill="#151F72"/>
<path d="M92.6473 31.4163V17.0039H99.3195V31.4163H92.6473Z" fill="#151F72"/>
<path d="M102.465 31.4164V8.73145H109.128V31.4164H102.465Z" fill="#151F72"/>
<path d="M123.892 26.1563H130.469C129.821 29.3027 127.295 31.971 121.032 31.971C113.827 31.971 111.377 27.4282 111.377 22.8568C111.377 17.9411 114.265 13.8096 121.032 13.8096C128.486 13.8096 130.488 18.381 130.488 23.0959C130.498 23.5855 130.466 24.075 130.393 24.5591H117.878C118.211 26.7492 119.298 27.5621 121.175 27.5621C122.462 27.5621 123.415 26.9405 123.892 26.1563ZM117.906 20.8771H124.197C123.997 19.0983 123.149 18.1132 121.137 18.1132C119.269 18.1132 118.278 18.8305 117.906 20.8771Z" fill="#151F72"/>
<path d="M143.508 31.4164H136.683L136.703 8.73145H143.499L143.508 31.4164Z" fill="#151F72"/>
<path d="M169.348 20.0261C169.348 25.86 165.917 31.4164 158.606 31.4164H146.635V8.73145H158.606C165.917 8.73145 169.348 14.1827 169.348 20.0261ZM157.005 26.0321C160.646 26.0321 162.247 23.9855 162.247 20.0261C162.247 16.0668 160.579 14.1158 157.005 14.1158H153.469V26.0321H157.005Z" fill="#151F72"/>
<path d="M16.9853 15.5508H0V31.4752H16.9853V15.5508Z" fill="#151F72"/>
<path d="M21.1125 0H20.6454C16.3181 0 12.4482 2.84041 12.4482 9.08547V15.5601H29.3859V9.08547C29.3859 2.84041 25.478 0 21.1125 0Z" fill="#FF9B00"/>
<path d="M99.3099 8.72168H92.6473V15.4105H99.3099V8.72168Z" fill="#151F72"/>
</g>
<defs>
<clipPath id="clip0_422_3177">
<rect width="169.348" height="32" fill="white"/>
</clipPath>
</defs>
</svg>
