<svg xmlns="http://www.w3.org/2000/svg" width="32" height="32" fill="none">
    <g fill="#9394AB" clip-path="url(#clip)">
    <path fill-rule="evenodd" d="M26.827 16a10.827 10.827 0 1 1-21.655 0 10.827 10.827 0 0 1 21.655 0Z" clip-rule="evenodd"></path>
    <path d="M16.51 3.825h-1.02L15.992 0l.518 3.825ZM22.53 5.707l-.884-.51 2.346-3.056-1.462 3.566ZM26.804 10.354l-.51-.883 3.557-1.479-3.047 2.362ZM28.183 16.51v-1.02l3.817.502-3.817.518ZM26.293 22.53l.51-.884 3.056 2.346-3.566-1.462ZM21.646 26.804l.884-.51 1.478 3.557-2.362-3.047ZM15.49 28.183h1.02L16.009 32l-.518-3.817ZM9.47 26.293l.884.51-2.346 3.056 1.462-3.566ZM5.196 21.646l.51.884-3.557 1.478 3.047-2.362ZM3.825 15.49v1.02L0 16.009l3.825-.518ZM5.707 9.47l-.51.884L2.14 8.008 5.707 9.47ZM10.354 5.196l-.883.51L7.992 2.15l2.362 3.047Z"></path>
    </g>
    <defs>
    <clipPath id="clip">
        <path fill="#fff" d="M0 0h32v32H0z"></path>
    </clipPath>
    </defs>
</svg>